<svg xmlns="http://www.w3.org/2000/svg" width="40" height="40" fill="none"><path fill="#F7C020" fill-rule="evenodd" d="M3.797 31.727c.284-.116.59-.177.901-.179h1.969v-4.881a2.5 2.5 0 0 1 2.5-2.5h21.666a2.5 2.5 0 0 1 2.5 2.5v4.881h1.539c.432.002.851.12 1.217.335-3.634 4.912-9.465 8.101-16.04 8.117h-.097c-6.646-.016-12.53-3.272-16.155-8.273m16.014-17.993a1 1 0 0 0 .47-.196 2.5 2.5 0 0 0 1.008-2.15 5.22 5.22 0 0 0-1.112-3.055 5.22 5.22 0 0 1-1.222 2.835 1.78 1.78 0 0 0-.464 1.955c.14.312.428.672 1.32.61m2.1 1.119h-4.656v9.314h4.657z" clip-rule="evenodd"/></svg>