<svg xmlns="http://www.w3.org/2000/svg" width="40" height="40" fill="none"><path fill="#F7C020" fill-rule="evenodd" d="M22.211 14.57c-.45 1.648-1.697 2.743-2.785 2.446-1.087-.298-1.603-1.875-1.152-3.522.45-1.648 1.697-2.743 2.785-2.445 1.087.297 1.603 1.874 1.152 3.522m-1.61 14.76c1.84-.43 2.084-2.204 1.99-3.79-.03-.474-.032-.984-.034-1.51-.007-1.947-.014-4.105-1.48-5.425a3.2 3.2 0 0 0-1.089-.639c-.396-.118-.806-.171-1.218-.102-.552.091-1.052.37-1.549.646-.219.122-.437.243-.66.349-.574.267-1.19.425-1.804.584-.269.07-.538.138-.803.217-.871.257-1.762.626-2.34 1.333-.852 1.033-.824 2.726.126 3.674.656.662 1.574.907 2.495 1.152.813.216 1.628.433 2.268.939.372.293.665.663.96 1.036q.207.267.429.525c.662.773 1.622 1.26 2.71 1.011m-6.524-11.014c1.088.297 2.334-.797 2.785-2.445.45-1.648-.065-3.224-1.152-3.522-1.088-.297-2.334.797-2.785 2.445-.45 1.648.065 3.224 1.152 3.522m13.345-3.4c.762.83.36 2.44-.897 3.596s-2.896 1.42-3.659.59-.36-2.44.897-3.596 2.896-1.42 3.659-.59m.323 8.627c1.258-1.156 1.66-2.765.897-3.596-.763-.83-2.4-.566-3.659.59s-1.66 2.765-.897 3.596c.763.83 2.4.566 3.659-.59" clip-rule="evenodd"/></svg>