<svg xmlns="http://www.w3.org/2000/svg" width="40" height="40" fill="none"><path fill="#F7C020" d="m26.135 20.197-.021-.059v-.006l1.117-.373-.496-1.332-1.262.424-.477-.788 2.212-.715-.493-1.541-2.607.834a50 50 0 0 0-1.138-1.606c.077-.243.62-1.66 3.057-1.964.314-.04.4-1.8.4-1.8a8.4 8.4 0 0 0-1.365-.196q.048-.001.098-.004c.24 0-.504-.781-.639-.907a.03.03 0 0 1 0-.044c.138-.114.605-.734.484-.915l-.633-.59a.103.103 0 0 0-.151.01l-.98 1.063a.104.104 0 0 1-.182-.083l.213-1.126a.104.104 0 0 0-.1-.123l-.944-.014a.11.11 0 0 0-.097.059l-.392 1.018a.103.103 0 0 1-.193-.013l-.295-.994a.104.104 0 0 0-.102-.079h-1.19a.103.103 0 0 0-.102.104s-.023 1.91-.319 2.08c-1.4.808-2.002 3.28-2.183 4.197l-.143-.008h-.035l.046-.036v-1.069c0-.094.03-.373.087-.448l1.417-2.287a.435.435 0 0 0-.133-.64l-.994-.552a.434.434 0 0 0-.585.161l-.841 1.766c-.162.441-.557.434-.736.022l-.385-.916a.44.44 0 0 0-.442-.186l-1.252.236a.434.434 0 0 0-.295.642l1.24 2.17q.057.1.059.216v3.056a10.17 10.17 0 0 0-1.859 5.39c-.07 1.37.684 2.904 1.863 4.341l-.004 3.649a.583.583 0 0 0 .583.584h1.7a.583.583 0 0 0 .584-.584v-.938c2.597 1.961 5.617 3.172 7.242 2.45 2.397-1.068 4.03-4.836 1.663-11.535m-6.048-6.315c.113-.837.605-1.51 1.34-1.727a5.3 5.3 0 0 0-1.34 1.727"/></svg>