<svg xmlns="http://www.w3.org/2000/svg" width="40" height="40" fill="none"><path fill="#F7C020" fill-rule="evenodd" d="m16.914 36.93 1.041-16.258h4.71l1.034 16.153a20.152 20.152 0 0 1-6.785.105M13.42 9.185c.465.907 1.524 1.707 2.466 2.39q.329.235.67.464c.35.236.7.473 1.018.727 1.333 1.064 2.604 2.167 3.165 3.537.343.835.474 1.7.257 2.57q-.003.017-.01.034c-.012.04-.025.082-.009.117a.5.5 0 0 0 .104.124q.026.025.05.052.036-.018.076-.035c.057-.024.115-.05.134-.083.163-.293.324-.588.456-.888.491-1.116.67-2.26.613-3.42-.052-1.1-.527-2.105-1.445-3.03-.573-.576-1.282-1.066-1.99-1.556q-.303-.21-.601-.42c-.1-.07-.188-.149-.277-.226a4 4 0 0 0-.274-.224c-.932-.672-1.749-1.407-2.356-2.227-.69-.93-1.155-1.914-1.134-2.979l.033-.237a9 9 0 0 0 .077-.649c.003-.05-.04-.102-.083-.154q-.031-.036-.055-.072-.041.023-.089.046c-.068.032-.136.065-.153.107q-.339.804-.643 1.614c-.301.802-.456 1.617-.413 2.445l.001.017c.038.7.07 1.289.412 1.956" clip-rule="evenodd"/></svg>