<svg xmlns="http://www.w3.org/2000/svg" width="40" height="40" fill="none"><path fill="#F7C020" fill-rule="evenodd" d="M29.014 22.508c-.619.3-.881-1.088-1.894-1.35a7 7 0 0 1-1.293 3.225c.862.525 1.968-.281 2.175.506.225.863-2.325 3.413-3.132 3.131-.656-.225.15-1.387-.375-2.268a6.7 6.7 0 0 1-3.318 1.368c.262.994 1.63 1.256 1.33 1.875-.356.769-3.974.769-4.424 0-.413-.712.937-.918 1.181-1.893a6.66 6.66 0 0 1-3.187-1.37c-.526.882.262 2.044-.375 2.27-.788.3-3.338-2.25-3.113-3.113.206-.787 1.313.019 2.175-.506a6.87 6.87 0 0 1-1.294-3.225c-1.012.262-1.256 1.65-1.893 1.35-.77-.357-.77-3.975 0-4.425.712-.413.918.956 1.912 1.181a6.74 6.74 0 0 1 1.369-3.187c-.9-.563-2.063.262-2.306-.394-.282-.788 2.268-3.338 3.13-3.113.807.207-.037 1.332.526 2.213a6.84 6.84 0 0 1 3.094-1.275c-.225-1.013-1.613-1.219-1.2-1.931.45-.77 4.068-.77 4.425 0 .3.637-1.107.88-1.35 1.912 1.162.15 2.268.6 3.206 1.294.562-.881-.263-2.006.525-2.213.862-.225 3.412 2.326 3.131 3.132-.244.656-1.406-.15-2.287.394a6.84 6.84 0 0 1 1.368 3.187c.994-.244 1.2-1.594 1.913-1.181.75.431.75 4.05-.019 4.406" clip-rule="evenodd"/></svg>