<svg xmlns="http://www.w3.org/2000/svg" width="40" height="40" fill="none"><path fill="#F7C020" fill-rule="evenodd" d="M6 34.283v-8.412c0-.69.57-1.23 1.261-1.23h5.134c.69 0 1.261.54 1.261 1.23v13.102A20 20 0 0 1 6 34.283m10.19 5.355-.003-.093V22.87c0-.66.54-1.231 1.231-1.231h5.164c.69 0 1.261.57 1.261 1.23v16.677q0 .044-.003.087A20 20 0 0 1 20 40c-1.303 0-2.576-.124-3.81-.362m10.154-.665V19.566c0-.69.57-1.26 1.261-1.26h5.164c.66 0 1.231.57 1.231 1.26v14.717a20 20 0 0 1-7.656 4.69m6.024-29.721a.8.8 0 0 1 .192-.028c.321-.003.497.242.423.613l-1.26 5.536c-.087.44-.439.528-.761.235l-1.26-1.29c-.175-.175-.38-.058-.468.03-.791.557-2.11 1.406-4.013 2.402-8.085 4.218-14.822 4.54-16.696 4.54h-.528a1.05 1.05 0 0 1-.996-1.113 1.05 1.05 0 0 1 1.113-.996h.02c.442.012 7.54.184 16.09-4.305a32 32 0 0 0 3.516-2.08c.088-.059.205-.205.117-.322l-1.172-1.143c-.322-.293-.205-.644.205-.761z" clip-rule="evenodd"/></svg>