<svg xmlns="http://www.w3.org/2000/svg" width="40" height="40" fill="none"><path fill="#F7C020" fill-rule="evenodd" d="M13.259 38.835a20 20 0 0 1-7.956-5.27 3.98 3.98 0 0 1 7.955.18v5.09m2.79.775V28.043a3.98 3.98 0 0 1 7.959 0v11.555A20 20 0 0 1 20 40c-1.353 0-2.674-.134-3.952-.39m10.748-.795V24.301l.028.003v-.493a3.98 3.98 0 0 1 7.959 0v.493h-.027V33.5a20 20 0 0 1-7.96 5.316M11.878 25.534a2.601 2.601 0 1 0-2.6 2.6 2.6 2.6 0 0 0 2.6-2.6m10.75-5.703a2.6 2.6 0 1 0-2.6 2.6c1.435 0 2.6-1.165 2.6-2.6m10.776-4.232a2.6 2.6 0 1 0-2.6 2.6c1.435 0 2.6-1.165 2.6-2.6" clip-rule="evenodd"/></svg>