<svg xmlns="http://www.w3.org/2000/svg" width="40" height="40" fill="none"><path fill="#F7C020" fill-rule="evenodd" d="M32.993 35.856C37.282 32.188 40 26.737 40 20.651c0-6.33-2.94-11.972-7.53-15.637-5.114 1.167-8.92 5.039-8.766 10.003.011.357.045.786.079 1.222.044.568.089 1.147.087 1.593-.004 1.808-1.017 2.929-1.746 3.736-.4.442-.714.79-.73 1.105-.038.714.352.971.832 1.287.503.332 1.106.73 1.417 1.79.213.728.282 1.484.347 2.193.17 1.851.31 3.381 2.9 3.248.33-.014.709-.054 1.107-.096 1.325-.14 2.875-.303 3.64.409.637.59 1.147 3.165 1.346 4.305zM7.07 35.91a1 1 0 0 0 .027-.1c.199-1.14.708-3.715 1.345-4.305.765-.712 2.315-.548 3.64-.409.399.042.777.082 1.107.096 2.59.134 2.73-1.396 2.9-3.248.065-.709.135-1.465.348-2.193.31-1.06.913-1.458 1.417-1.79.48-.316.87-.573.832-1.287-.017-.315-.331-.663-.73-1.105-.73-.807-1.742-1.928-1.746-3.736-.002-.446.043-1.025.087-1.593.034-.436.067-.866.078-1.222C16.529 10.033 12.692 6.15 7.547 5 2.947 8.664 0 14.314 0 20.651c0 6.116 2.745 11.59 7.07 15.259" clip-rule="evenodd"/></svg>