<svg xmlns="http://www.w3.org/2000/svg" width="40" height="40" fill="none"><path fill="#F7C020" fill-rule="evenodd" d="M16.117 13.921c.097.124.176.225.288.17.273-.126.273-1.413.007-1.566-.136-.079-.22.023-.323.147-.09.108-.193.233-.357.273a2.43 2.43 0 0 0-.487-1.133c.155-.096.333-.074.485-.056.157.019.284.034.328-.084.1-.287-.806-1.194-1.113-1.114-.148.04-.136.169-.121.329.013.143.029.31-.066.458a2.45 2.45 0 0 0-1.14-.46c.043-.182.188-.295.31-.39.123-.097.224-.176.17-.29-.126-.273-1.413-.273-1.573 0-.078.134.024.218.15.32.11.091.24.197.277.367-.4.06-.78.213-1.1.453-.094-.147-.078-.314-.064-.456.016-.161.029-.292-.123-.33-.307-.08-1.213.826-1.113 1.106.043.117.17.102.324.082s.336-.042.496.058c-.26.333-.427.72-.487 1.133-.165-.037-.269-.163-.359-.272-.102-.124-.186-.226-.321-.148-.273.16-.273 1.447 0 1.574.115.054.195-.047.292-.172.094-.12.205-.263.381-.308.054.42.214.813.46 1.146-.142.087-.303.072-.442.058-.16-.015-.292-.028-.331.122-.08.307.827 1.214 1.107 1.107.114-.04.1-.167.08-.322-.018-.151-.04-.33.053-.485.327.26.72.427 1.133.487-.04.16-.164.262-.271.35-.125.103-.228.187-.149.323.16.274 1.447.274 1.574 0 .054-.112-.046-.191-.17-.29-.118-.093-.258-.203-.304-.376.434-.054.84-.22 1.18-.487.092.154.07.332.05.482-.02.157-.035.284.084.325.286.1 1.193-.807 1.113-1.114-.04-.15-.17-.137-.33-.122-.14.014-.3.03-.443-.058.246-.34.406-.733.46-1.146.177.046.29.189.385.31m12.603 9.607c.232.295.42.533.685.405.649-.301.649-3.357.015-3.721-.322-.187-.522.054-.767.35-.212.255-.458.552-.848.647a5.8 5.8 0 0 0-1.155-2.691c.367-.227.792-.176 1.152-.133.371.045.675.081.78-.2.237-.68-1.916-2.834-2.645-2.644-.351.092-.323.4-.287.78.031.34.068.737-.156 1.088a5.8 5.8 0 0 0-2.708-1.092c.102-.432.445-.7.734-.926.295-.23.534-.418.406-.69-.3-.649-3.356-.649-3.736 0-.185.32.057.518.354.762.263.216.57.468.659.87a5.8 5.8 0 0 0-2.613 1.076c-.223-.35-.184-.745-.15-1.083.037-.383.068-.693-.293-.785-.728-.19-2.881 1.963-2.644 2.628.103.279.402.241.77.195.366-.045.8-.099 1.178.138a5.7 5.7 0 0 0-1.156 2.691c-.392-.088-.64-.388-.852-.646-.243-.295-.443-.537-.763-.351-.65.38-.65 3.436 0 3.736.274.13.462-.111.693-.408.223-.286.487-.623.906-.732a5.8 5.8 0 0 0 1.092 2.724c-.338.206-.72.17-1.051.138-.381-.037-.692-.067-.785.29-.19.728 1.963 2.881 2.628 2.628.273-.097.237-.396.192-.764-.043-.36-.094-.785.125-1.152a5.6 5.6 0 0 0 2.691 1.156c-.095.38-.39.622-.644.831-.297.244-.54.444-.353.768.38.649 3.436.649 3.736 0 .13-.267-.108-.455-.402-.688-.281-.222-.613-.485-.722-.895a5.65 5.65 0 0 0 2.803-1.156c.217.365.164.787.12 1.145-.048.372-.086.674.196.77.681.238 2.835-1.915 2.645-2.644-.094-.356-.405-.326-.786-.29-.33.032-.713.069-1.051-.137a5.94 5.94 0 0 0 1.092-2.723c.422.109.69.448.915.735" clip-rule="evenodd"/></svg>