<svg xmlns="http://www.w3.org/2000/svg" width="40" height="40" fill="none"><path fill="#F7C020" fill-rule="evenodd" d="M5.442 33.713C6.869 32.565 9.102 31 11 31q.372 0 .696.039a.4.4 0 0 1 .069-.092l9.767-9.767a5.8 5.8 0 0 1 2.563-1.486l4.341-1.181c.097.332.276.634.52.878l2.545 2.545c.245.244.547.424.878.524l-1.188 4.333a5.76 5.76 0 0 1-1.483 2.568l-3.258 3.254-.089.09a.4.4 0 0 1-.135.087l.034.022c.59.381 1.064.686 1.74.686.944 0 1.666-.446 2.427-.916.852-.527 1.753-1.084 3.073-1.084 1.102 0 1.95.202 2.547.44C32.4 36.832 26.57 40 20 40a19.94 19.94 0 0 1-14.558-6.287M33.89 21.371l.632-.636a1.293 1.293 0 0 0 0-1.828l-2.536-2.54a1.33 1.33 0 0 0-1.833 0l-.632.636a1.293 1.293 0 0 0 0 1.828l2.536 2.54a1.3 1.3 0 0 0 1.833 0m-7.895 10.573a8 8 0 0 1-.413-.232l-.071-.042a4.9 4.9 0 0 0-2.863-.839c-.067 0-.135 0-.186.004a4.92 4.92 0 0 0-2.668.831 5.2 5.2 0 0 1-1.144.549L15.136 28.7l3.88-3.88 7.05 7.052z" clip-rule="evenodd"/></svg>