<svg xmlns="http://www.w3.org/2000/svg" width="40" height="40" fill="none"><path fill="#F7C020" fill-rule="evenodd" d="M7.795 36.07v-8.835c0-.385-.315-.7-.7-.7H5.098l.673-4.805c.007-.035.007-.063.007-.098 0-1.156 1.1-2.102 2.451-2.102h4.735c1.261 0 2.305.827 2.438 1.877-1.128.603-1.891 1.71-1.912 2.977l-.785 5.555a.7.7 0 0 0 .168.56.69.69 0 0 0 .526.239v8.248a20 20 0 0 1-5.604-2.916m9.106 3.735v-9.768c0-.385-.315-.7-.7-.7h-1.997l.68-4.805v-.099c0-.861.609-1.604 1.478-1.926l.01-.003.01-.004c.295-.112.617-.168.953-.168h4.735a2.7 2.7 0 0 1 .963.172l.005.002h.003l.001.001h.002c.869.322 1.478 1.065 1.478 1.926v.099l.68 4.805h-1.997c-.385 0-.7.315-.7.7v9.768a20.2 20.2 0 0 1-5.604 0m9.146-.832a1.4 1.4 0 0 1-.04-.332v-7.903a.69.69 0 0 0 .525-.239.7.7 0 0 0 .169-.56l-.785-5.555c-.02-1.268-.784-2.374-1.912-2.977.133-1.05 1.177-1.877 2.437-1.877h4.736c1.352 0 2.451.946 2.451 2.101 0 .035 0 .063.007.098l.673 4.806H32.31c-.385 0-.7.315-.7.7v8.835a20 20 0 0 1-5.564 2.903m-15.45-21.72a2.627 2.627 0 1 0 0-5.253 2.627 2.627 0 0 0 0 5.253M22.33 19.43a2.627 2.627 0 1 1-5.254 0 2.627 2.627 0 0 1 5.254 0m6.479-2.175a2.627 2.627 0 1 0 0-5.254 2.627 2.627 0 0 0 0 5.253" clip-rule="evenodd"/></svg>