<svg xmlns="http://www.w3.org/2000/svg" width="40" height="40" fill="none"><path fill="#F7C020" fill-rule="evenodd" d="M27.265 14.97c.946 0 1.696.75 1.696 1.696v3.154h-3.667c-.868 0-1.617.71-1.617 1.617v1.104c0 .867.71 1.616 1.617 1.616H29v3.115c0 .946-.75 1.695-1.695 1.695H11.73c-.946 0-1.695-.749-1.695-1.695V16.666c0-.867.59-1.735 1.3-2.01l13.485-4.535c.394-.158.749-.079 1.064.118.355.237.552.67.552 1.183v3.549zm-14.195 0h12.5v-3.587c0-.197-.04-.394-.158-.473-.04-.04-.158-.04-.276 0zm11.317 7.57v-1.103c0-.473.394-.828.867-.868h3.706v2.8h-3.745a.833.833 0 0 1-.828-.828m1.577-.551a.45.45 0 0 0-.118-.316.43.43 0 0 0-.592 0 .45.45 0 0 0-.118.316c0 .079.04.197.118.276a.45.45 0 0 0 .316.118c.079 0 .197-.04.276-.118a.36.36 0 0 0 .118-.276" clip-rule="evenodd"/></svg>