<svg xmlns="http://www.w3.org/2000/svg" width="40" height="40" fill="none"><path fill="#F7C020" fill-rule="evenodd" d="m16.53 18.956-1.446-1.445-1.172 1.125-5.578-5.579 3.89-3.89 5.578 5.578-.984 1.031 1.439 1.44 2.311-2.33c-.234-1.641.188-3.329 1.36-4.641l3.234 3.234 1.219-1.219c-.141-.609 0-1.218.468-1.687a1.84 1.84 0 0 1 2.578 0 1.84 1.84 0 0 1 0 2.578c-.468.422-1.078.61-1.687.469l-1.219 1.219 3.235 3.234c-1.313 1.172-3 1.594-4.641 1.313l-2.344 2.343 1.453 1.453 1.031-.984 5.579 5.578-3.891 3.89-5.578-5.577 1.125-1.172-1.453-1.454-1.781 1.782-.87-.87-2.271 5.136-5.625-5.625 5.136-2.27-.87-.871z" clip-rule="evenodd"/></svg>