<svg xmlns="http://www.w3.org/2000/svg" width="40" height="40" fill="none"><path fill="#F7C020" d="m30.694 11.314 1.807.586a.19.19 0 0 1 .133.176.19.19 0 0 1-.12.183l-2.056.822v1.864a.19.19 0 0 1-.192.19.2.2 0 0 1-.134-.055l-1.323-1.3-1.28.787a.19.19 0 0 1-.2 0 .2.2 0 0 1-.09-.182l.162-1.645-1.357-.755a.191.191 0 0 1 .023-.344l1.162-.468a3.14 3.14 0 0 0-2.27-.222c-1.36.41-2.26 1.743-2.572 2.277l1.349.84a.903.903 0 0 1 .286 1.235l-.766 1.23a8.616 8.616 0 1 1-4.625-2.887l.766-1.227a.89.89 0 0 1 1.232-.287l1.27.79c.357-.613 1.339-2.052 2.892-2.521.91-.275 1.86-.167 2.826.317l.012-1.528a.191.191 0 0 1 .324-.137l1.258 1.207 1.201-.638a.19.19 0 0 1 .282.169z"/></svg>