<svg xmlns="http://www.w3.org/2000/svg" width="40" height="40" fill="none"><path fill="#F7C020" d="M30.425 27.047c0 .787.12 2.389-.908 2.811-1.027.422-2.294-.183-3.232-.697-.94-.514-3.147-.33-3.957-.603s-.543-1.51-.543-2.72c0-1.208-.393-1.992-.543-3.322a8.1 8.1 0 0 1 .113-2.401l-1.007-.936a1 1 0 0 1-1.048-.074l-1.091 1.018c.158.787.199 1.594.12 2.394-.149 1.329-.542 2.116-.542 3.322s.262 2.449-.543 2.719-3.02.089-3.957.603-2.205 1.117-3.232.697-.916-2.024-.916-2.81c0-.787.263-1.359.124-1.901-.14-.543-.436-2.027-.129-3.113s.7-1.269.85-1.961-.121-1.209.634-2.268c.755-1.06 1.78-1.961 2.113-2.567a8.3 8.3 0 0 1 1.33-1.793c1.002-1.002 2.478-.624 2.837-.263.36.362.787.695.787 2.476a23.5 23.5 0 0 0 .19 3.12l1.008-.936a1 1 0 0 1 .091.015v-6.984c0-1.204 1.93-1.162 1.8.123v6.932l.909.845q.201-1.55.197-3.113c0-1.78.422-2.113.786-2.475s1.836-.74 2.84.262a8.3 8.3 0 0 1 1.33 1.783c.332.603 1.36 1.508 2.113 2.567s.482 1.573.634 2.268.543.876.85 1.961c.306 1.086.026 2.567-.126 3.113s.118 1.125.118 1.908"/></svg>