<svg xmlns="http://www.w3.org/2000/svg" fill="none" viewBox="0 0 991 450">
    <path
        fill="#00305F"
        d="M766 107v2l-1 1-1 1v2l-1 1-1 1h1l-2 2-1-1-1 1-1 1-1 1-1 1-1 1h-3v1h3l1-1h1l2-2h1l1-1 2-1 1-1h1v-1l1-1 1-1v-2l1-2v-3l-2 1ZM267 37v-1h-1l-1-1h-1c0 1 0 0 0 0l-1 1h-1s0-1 0 0h-1v1-1h-1v-1s0-1 0 0h-2v-1h1v-1l-1-1c0 1 0 0 0 0l-1 1v-1h-1v-1l-1-1-1 1v-1h-2l-1-1h-1l-2 1h-1v1l-1 1v1h1-1v-1l-1-1v1l-1-1h-1v1h-1v1h-1s-1 0 0 0v-2l1-2h-1v-1s1 0 0 0v-1h-1v-1l-1-1h1-1v-1h-4l-1 1h-1l-1 1h-3v1h-1v1s0-1 0 0v1h-1v1l1 1h1l1 1h-2v1h-1v1l1 1h2v1l-1 1v-1l-1-1h-1l-1-1-1-1v-1l1-1-1-1 1-2s-2 0 0-1l3-2 1-1h-7l-2 1-2 1-2 3-1 1-1 2v3l3 2h1l2 1h-4l1 2 1 1 1 1h5l1 1 1 1h11l-1-1h5v1h5v-1l-1-1h-1v-1h2l-1 1h2l1 1v1h3l-1 1h1l1 1 1 1h1v1h-2l-1 1 1 1 1-1h2v-1 1l1-1 1 1s0-1 0 0h-1 1v1l1 1v-1h1v1l1 1 2 2 1 1v2l-1 1-1 1-1 1-1 1h-1v1c-1 0 0 0 0 0v1h1l1 1-1 1h-1l-1 1-1-1-1 1v1s0-1 0 0h-1v-1h-2v-1h-3v2h-2v2l1 1h5l1-1h1v1h1v-1h1v-1h-1 2v1l1 1v-1h1v1h1l1 1h-1l1 1h1-1l1 1h3l-1 1h-1l1 1h2v2h1v1h1v-1h1s0-1 0 0l1 1h1l1 1h3l1 1h2l1 1v-2l-2-2-1-1h-1l-1-1-1-1-1-1v-1l1 1h2l1 1 2 1 1 1h2v1s0-1 0 0h1v1h1v-1h-1v-1h1v-2h1l-1-1v-2h-1v-1s-1 0 0 0v-1l-1-1h-2l-1-1c0 1 0 0 0 0 0 1 0 0 0 0l-1-1v-1h-1v-1h-1v-1h-1v-1h-1 1v1h2v-1h-1v-1h2v-1h1v1h1v1h1v1h2v1h1v1c-1 0-1 0 0 0v1h2v1h2v-3h1l1-1h1v-2h3v-2l-1-1h-3s-1 0 0 0v-1h1-1v-1h-1v-1h-2l-1 1h-1l1-1v-1h-1l-1-1s0 1 0 0h-1l-1 1v-1l-1 1h-1l1-1v-1s1 0 0 0v-1h-3v1h-1v1-1h-1v-1l-1-1c0 1 0 0 0 0h-1l-1-1h1v-1h5v-1l-1-1h-3l-1-1h3l1-1-1-1-1-1h-1v1h-2v-1s-1 0 0 0l1-1s1 0 0 0v-1h-2v-1l-1 1h-1c-1 0 0 0 0 0v-1h-1l-1 1s-1 0 0 0v-2h-1l-1 1v-2Zm-149-3h2l1 1v1l2 1 1 1h2v-1l2-1h3v-1l1-1v-1l2-1 1-2h1l2-1 1-1h2l1-1 2-1h1l1-1-4-2-1-1h-1l-2-1h-1l-1 1h-1l-1-1h-2l-1 1-2-2h-7l-3 1 1 1 1 1v2l-1 1-1 1v1l-1 1v2l-2 3h2Z"
    />
    <path
        fill="#00305F"
        d="M181 44h1l1 1h2v-2h-1l-1-1s0-1 0 0h-2v-1l-1-1h-2l-1-1-1-1h-1v-1l1-1v-1l-1-1-1-1v-1l-1-1v-2l-1-1h2v-1l1-1s1 0 0 0v-2h-6v2h2v2l-1-1-1-1-1 1-1-1h-1l-1 1v2l1 1 1 1v3c0 1 0 0 0 0l-1 1-1-1v-1l-1-1v-1l-1-1h-1l-1-1v-1h-3v1h2v1s1 0 0 0h-1v1l-1-1-1 1h-1l1-1-1-1h-1l-1-1h-3l-1 1v1s0-1 0 0h-2l1-1v-3h-3l-1 1h-2l-1 1s0-1 0 0h-2v1h-2l-1 1-1 1 1 1h1l-1 1h-2v2h3v1h7-2l-1 1h-2l-1 1h-2v1l1 1a217 217 0 0 1 3 1l1-1h7l2 1h3l-1 1h-11l-2 1v1l1 1 2 1v1h3l1 1 1-1h1l1 1v2h1l1 1h4v-1h6l2-1h2l1-1h2v-1l1-1v2h3l1 1h8v-1h1l-1-1v-1h-2v1-1h-1 2v-2Zm30-66h2v-1h3l-1 1h-1l-1 1h3a12 12 0 0 1 2-1l-1 1h-2v1h-1l1 1 1 1 1-1v1l1 1h2l1 1h2l1-1 1-1h2s0-1 0 0c0 0 1-1 0 0l-1 1h-1v1s-1 0 0 0h1l2 1h4v-1h1v-1h1s0-1 0 0v1h6l1-1h3l1-1 1-1h1v-1h2l2-1-3 1-1 1-1 1h5v1h-6l-1 1-1 1h-7l-1 1 1 1 1 1 1 1h1v1h4-5l-1-1v-1h-2v-1h-2l-1-1h-7v2h1l-1 1h1v1h1l2 1h1l1 1 1 1 1 1h2l1 1v-1h3l-1 1h-3 1l1 1-1 1-1-1h-1l-1-1h-5s1 0 0 0h-3l-1 1-1 1-1 1v1h2v1l1-1h1v1h2l1-1v-1l1-1v1l1 1v1h-3v1h1v1l1 1h3l1-1 1-1V0h1v1l-1 1-1 1-2 1h-3l-1-1-1-1-2-1h-4v2l1 1h1l1 1h-4l-1 1h-1l-1 1v2h2V8h1l-1 1h1v1h1V9h2v1h2V9h1v1h4l-1-1h2c0 1 0 1 0 0V8h1v1s0-1 0 0h3v1s0-1 0 0h1v1h1v-1h1V9h-1V8h1v1h3v1h-1v1h2v-1h3l1-1h1l2-1V7l-1-1h-1v1h-1l-1-1V5l1-1h1l2-1V2l-1-1 1-1v1h4l1-1h1v-1l1-1v-1h-1 3v-1s1 0 0 0l-1-1h-1l-1-1h3v-1l-1-1h-4v-1h1v1h3l1-1h4v-1l-1-1h1l1 1h3l1-1h1v-2h1-2s-1 0 0 0l2-1h1v-1h3l1-1 3-2h1v-1h3l1-1 4-2h1l-1-1-2 1h-3l-1 1h-1v-1h3l2-1h1l2-1h2l2-1h1l1-1h1l1-1c1 0 0 0 0 0l-1-1-1-1h-3l-2-1 1-1h-6c1 0 0 0 0 0h-2l-1 1h-1l-2 1-1-1-1 1h-1l3-1h1l2-1s1 0 0 0l-1-1v1l-2-1h-5l-2-1h-3v1h1v1h-1l-1-1-1-1c0 1 0 1 0 0h-3l-1 1v1h1-3v-1h-9l1 1 1 1h1l1 1h-1v-1h-2l-1-1s1 0 0 0h-4v-1h-3v1s0-1 0 0c-1 0 0 0 0 0v1h1-1l-1-1h-3v1l1 1h1-1l-1-1h-1l-1 1v1h-1v1h2l2 1h2l1 1h1l1 1h-1l-1-1h-1l-2-1h-3l-1-1h-1v1h2-3l-1-1-1-1h-3l-1-1v1l-1 1h1-3l-1 1h4l1 1s1 0 0 0l-1 1-1-1-2-1h-1v1h-1v-1h-4l-1 1v1h-2v-1h-1l-1 1h-2l-1 1h-1l1 1Z"
    />
    <path
        fill="#00305F"
        d="m198-11 1 1h4s1 0 0 0h-3l1 2h1v1l1-1h1s0-1 0 0v1l1-1h1l1-1h1l1 1h1-2l1 1h3-6l-1 1h-1s-1-1 0 0l1 1 1 1h1v1l1-1h1l1 1h-2c-1 1 0 1 1 1l1 1h5v-1l1 1h1v-1l1 1h1l1-1v-1h1v1-2h-1v-1l1-1h1l-1 1v1h1l1-1h1l1-1h2l1-1h1-1l1-1-1-1v-1h-1l-1 1v-1h-2s-1 0 0 0v-1h-1v-1l-1-1h-1l1-1v-1h-3v1l1 1h-2v-2l-1-1h-3v-1l-1-1h-1l-1-1-1-1h-1v-1h-5v1h2l1 1h-3l-1 1v-1h-2l-1 1 1 1h2v1h-1v-1h-2l-1 1s1 0 0 0v1h-1v1s-1 0 0 0l1 1h4l1-1-2 1h-5l1 2Zm-5 8v1l1 1h1c1 1 0 0-1 1h1v1h6V0l1-1h-1l1-1-1-1h-3v-1h-2l-1-1h-2l-1 1 1 1Zm4 4c0 1 0 0 0 0Zm2 2h1v1l2-1h4V1h-3l-2 1h-1V1l-1 1h-1v1h1Zm14-1c-2 0-1 1-1 1v1c1 0 0 0 0 0v1h1V4l1 1h2V3l-1-1h-2Zm-7 7 1-1-1-1h-1l-1-1h-7v1s-1 0 0 0v1h1s-1 0 0 0l1 1 1 1h3v1h1l1-1h1V9Z"
    />
    <path
        fill="#00305F"
        d="M214 19v1h3l1-1h1v-1 1l1 1h3s0-1 0 0h5s-1 0 0 0h6v-1s-1 0 0 0l2 1h6l1-2s-1 0 0 0h2l-1-1v-2h-1v-1h-3v-1h-2v-1l-1 1-1-1-1 1h-1s0 1 0 0h-2s0-1 0 0h-1l-1 1h-4v1h-1l-1-1h-6v1-2h-1v-1h-3v-1h-1 4v-1h-2V9h-1l-1-1h-6v1h-1v1h1v1h1v1h1v1h1v1l-1 1v3h1v1h3v-1 1h1ZM173-6h1s1 0 0 0v1h1v-1h2v1h1v1h-1 1v1h-2v-1h-1l-1 1v1h1v1h3v-1h2c0 1 0 0 0 0l1 1 1-1v1h3v2h6l-1-1v-1l-1-1v-2h-1l-1-1h-2v-1h-3s0-1 0 0h-2v-2h-8v1l1 1Zm8 8h4V1h-4v1Zm17 44h1l1 1 1-1h-1l-1-1-1 1h-1s0-1 0 0l-1-1h-1v-1h-2v1h-1v2h-1v1h-1s0-1 0 0h-1v1h3v1h4v1h3v-1h1l1-1h-1l-1-1-1-1v-1Zm-1-15 1-1h-1v-1l1-1-1-1h-1v2h-1v-1h-1c0-1 0 0 0 0h-2 1v-1h1l1-1v-1h1v-1l-1-1h-1v-1h-2v1h-2v1h1-2l-1-1h-1v1h-2v1h-1l-1 1h1v1h3v2h-1l-1 1-1-1-1-1h-3v1l1 1 1 1 1 1h3v1l1 1h1v1h1l1 1 1 1h1l1-1-1-1 1-1v2l1-1h2v-1h1v-3Zm-2-3c0-1 0 0 0 0Zm0-15Zm-4-5-1 1-1-1V7h-1v1h-1V7l-1 1-1-1-1 1 1 1 1 1h1l1 1v1h-1v-1h-1l-1-1-1-1h-2v1l1 1v1h1l1 1h-2v-1h-1v-1 1l-1-1v-1h-1l-1-1h-1V8h-3v1l1 1-1 1 1 1 1-1v1l1 1v-1 1h2v1l1 1 1-1h5c1-1 0 0 0 0l-1 1 1 1v1l2 1 1-1h2v1l1-1h1v-1c1-1 0 0 0 0 0-1 0 0 0 0v-1c0-1 0 0 0 0h1v-2c-1 0 0 0 0 0l-1-1 1-2h-1V9l-1-1h-2Zm7 7h1v-1h-3v1h2Z"
    />
    <path
        fill="#00305F"
        d="M203 20h1l1-1c0 1 0 1 0 0l1-1v-1l-1-2-1-1h-3l-1 1h-2v1h-1v1l1 1h1l1 1h2l1 1Zm-3-1h-1v1h2l-1-1Zm2-6h1v-1h-1v1Zm-57-3h-1l3 1h-4c0-1 0 0 0 0h-1v1h4l-1 1h-4l-1 1h5-1l-1 1h-3c0-1 0 0 0 0h-1v1h1v1h1l1-1 1 1h5v-1h1v-1l1 1-1 1 1 1 1-1h1l1-1h1v1l1-1h2c1 0 1 0 0 0l-1 1h-3l-1 1h-2l-2 1v1h1l1 1h3l3-1 2-1 1-1s0 1 0 0l1 1 1-1s0 1 0 0h2l1-1 1 1 1-1h1v1h3v-1h1v-1h1v-2h1v-2l-2-1-1 1h-1v1l-1-1h-2 1l-1-1h-1V9l-1-1V7c0-1 0 0 0 0h-2l-1 1-1 1-1 1h2v1h1v1h-2v1h2l1 1h-6v-1l-1-1h-1l-1-1h-1l-1-1h-3V9h-4v1Zm-7 1-1 1-1 1-1 1c-1 0-1 0 0 0h3l1-1 1-1-1-1h-1Z"
    />
    <path
        fill="#00305F"
        d="M125 11v1l1 1 1-1h3v-1l1 1v1h1l1-1h1v-1s-1 0 0 0h1l1-1V9l1-1V7l1 1v1l1 1h2V9h1l2-1-1-1h1l-1-1V5h1l1-1-1-1h-3l-1 1h-4l-2 1-2 1-1 1-1 1h-1l-1 1h-2l-1 2Zm5 1s0-1 0 0Zm19-5h-2l1 1h2l1-1-2-1v1Zm-2-6v1h2l1-1-1-1h-3v1h1Zm12 0 1-1h1-2l-1-1h-1l-1 1h-4l-1 1v2l2 1s0-1 0 0h4l1-1h2V2l-1-1h-1 1Zm13 3 1 1h3l-1-1V3l-1-1h-1l-1-1-1 2 1 1Zm6 11h-2l-1 1h-1l1 1h2s0 1 0 0l1-1v-1Zm73 14h3l-1-1v-1l-1-1h-1l-1-1h-2l-1-1-1 1h-1l-1-1h-1s0 1 0 0h-2v2h1v1h1v1l1 1h3l1-1h1l1 1h1Zm42 101v-1l-2-1-1-1h-4l1 1 2 1 1 1h1l2 1v-1Zm18-9c-1-1 0 0 0 0Zm-2 0-1 1-1 1-1 1-1 1v2h-1v2l-1 1-1 1v1h-1 1v1l-1 1-1 1h1l2 1 2-1 2 1h1l1-1h1v1l1 1h-1l-1 1h2l1-1h1v-1h2v2l1-1 1 2 1-1v-1l1-1-1-1-1 1 1-1v-1h-1l-1 1h-1l1-1 1-1 1-1h-1l-1 1h-1v-1c1 0 0 0 0 0v-1l1-1-1-1-1-1-1 1-1 1h-1v-1h-2l1-1 1-1h-3l-1 1 1-1v-2l2-2v-1c-1 0 0 0 0 0l1-1h-2Zm-69-47 2-1v-1l-1-1h-2l-1-2h-1l-1-1-2-1-2-1h-1l-1-1h-1s0 1 0 0v-1l-1-1c-1 0-3 0-2 2v3l-1 2 1 1-2 1s-2 0-1 1h5v1l2 1 1-1 1-1 1-2h1l2 1 2 1 2 1Zm-118 59h1v-2l-2-1-1-1-1-1-2-2h-1l-3-1-2-1h-2l2 2h-1l2 1h2l1 1v1l1 1 1 1h2v1h1l2 1Zm-20-14-1-1v-1h-1v-1l-1-2v-1l1-1h-3v2h1v1l1 1v1l1 1 1 1 1 1v-1Zm-4-10h1c1 0 0 0 0 0v-1l-1-2v-1h-1l-1-1v-1h-1l1 2v1s-2 0-1 1l2 1 1 1Zm-8-11-1-1v-1h1-2s-1-1-1 1v1l1 1 1 1v-1l1-1Zm3-1-1-1-1 1v1h1v2h1l1-1v-1l-1-1Zm-1 5v-1l-1-1v-1h-1v2l1 1v1l1 1v-2Zm4 0v-1l-1-1-1 2h2Zm-3-1v4l1-1v-2l-1-1Zm12 13-2-1 1 1 1 1c1 1 0 0 0 0v-1Zm151 109 1-1 1 1 1-1v-1h-1l-1-1h-1l-1-1-2-1-1-1h-2l-1-1h-1l-1-1h-2l-1-1-1-1h-10l-1 1-1 1v2l1-1 2-1h1l1-1h2v1l1 1h4l1 1 1 1h2v1l2 1 1 1h1l-1 1c-1 1 0 1 1 1h2l2-1 1 1Z"
    />
    <path
        fill="#00305F"
        d="M235 216v2h1l-1-2Zm16 11-2-1-1 1 1 1 1 1 1-1h2v-1h-2Zm17 0h1l1-1h4v-1l-2-1h-1l-1-1h-5l-2-1h-1v1h1v2l1 1h-5v1l1 1v-1h5l1 1 1 1v-1l1-1Zm14-1h-1l-2 1v1h3l1-1-1-1Zm-33-19h-1v2h1c0 1 0 1 0 0v-2Zm0 4 1-1h-1v1Zm2-9h-1v2l1 1v-3Zm-3 0h-1l-1 1h2l1-1h-1Zm11 12v1c1 0 0 0 0 0v1l1-1-1-1ZM12 108l-2 1-1 1v1l1-1h3l-1-2Zm30-13-1 1h-1l-1 1v1l1 1h-1l-1-1-2 1 1 1 1 1h1l2-1 2-1-1-3 1-1h-1Zm54-47c-1 1 0 1 0 0Zm14-8c0-1-1 0 0 0Zm129 8Z"
    />
    <path
        fill="#00305F"
        d="m240 257 1 1h1l1-1-1-1 1-1 1-1v-1h1v1l1-1 1 1h1v1l-1 1h1l1 2 1-1 1-2-1-1-1-1v-1h-2l-2-1s0-1 0 0l-1 1-2 1h-5l-1-1v-1h-1l-1-2v-1l-1-1v-6l1-2v-2l-1-1v-1l-2-1-1-1h-3l-1 1-2-1h-2l-1 1h-2l1-2 1-1v-2l-1-1 1-1v-2 2l1-1v-4l1-1 1-2 1-1-1-1h-2l-1 1-2-1h-1l-2 1h-1v1c-1 1-1-1-1 1v3h-1v1l-1 1-1 1h-1v-1l-2 1-2 1-1-1-1 1h-1l-1-1h-2l-1-1-1-2v-1l-1-1-1-1v-1l-2-2v-6l1-1-1-2 1-2h1v-2l-1-2-1-1 1-1 1-1v-1l1-1h2l2-1 1-1v-1h2l2-1h1l1 1h5v1h2s-1 0 0 0l1-1 1 1s0 1 0 0h1l-1-1v-1l-1-1h-1 3l1-1 1 1h1v-1l2 1v-1h3l1 1 1 1 1 1 2-1h2l1 1h1v1l1 1v1l-1 2v1l1 1 1 1 1 1v1l1 1h1v2h2v-1l1-1v-4l-1-1v-1l-1-1v-4l-1-1-1-1v-2l1-2 1-1v-1l2-2 2-1v-1l1-1h3v-1l2-1 1-1h1l-1-1v-1h1l2-1v-1h-1v-3l-1-1h-1l1-1-1-1v-2c1 0 0 2 1 0l1-3v3l1 1-1 2 2-1v-1l1-1-1-1v-2l1 1h1s2-1 1-2l1-1v-1l-1-1v-1h1v1l1-1 1-1h5l1-1 1-1v-2h-1l1-2v-1l1-1 1-1h2l1-1 1-1h3v-1h1v-1h2l1-1v1l2-1h1v-1l1 1c-1 0 0 0 0 0h1l1 1h-3l-1 1-2 1-1 1v2h3l2-2 1-1h1l2-1h2l2-1 1-1h1l-1-1s1-1 0 0h-5l-1-1h-2l-1-1v-1l-1-1-1-1 1-2v-1l-2 1v-1h-1 3l1-1 1-1-1-1-1-1-2-1h-1l-1 1h-1l-1 1h-3l-1 1-2 1-2 2-1 1-2 1 1-1 1-1 1-1 1-1v-1h2l1-1v-1h2l1-1 1-1 1-1 1-1h15l2-1h1l3-2 1-1h2l2-1h2l1-1v-1l-1-1v-1l1-1-1-1 1-1-2-1-2-1-1 1v1-2l-1-1-2 1h-1l-1 1-2 1h-1v-1h2l1-1 1-1h4l1-1h-2v-2l-2 1h-1v-1l-1-1v1l-1 1v-1l-1-1h-1v-2h-1s1 0 0 0l-1-1-1-1-1-1s-1 0 0 0l1-1v-2l-1-1c-1 0-1 0 0 0v-1l-1-1h-1v-1l-1-1h-1v-2l-1-1c-1-1 0 0 0 0v-1l-1-1-1-1v-1h-1l-1 1v1h-1v2l-1 1c0 1 2 0 1 1l-1 2-1-1h-2v1h-1l-1 1v-1h-1v1l-1-1v-2h-3v1l-1-1h1l1-1h-1c0-1 0 1 0 0l-1-2v-4l1-2h-4l-2-1v-1l-1-1h-1l-1-1v-1l-1-1-1 1h-6l-1-1h-2l-1-1-1 1h-2v1l1 2v1s1 0 0 0v4l1 1v3h-1v2l-1 1h-1v1l2 1 2 1v1l1 1v1l1 1-1 1v2l1 1h-1l-1 2h-1l-1 1-1 1-1 1h-1l-1-1-1 1 1 2v2h1v4l1 1v1l-1 1v1l1 1-1 1-1-1h-1v2l-1-1h-3 1v-1h1v-1l-1-1h-1l-1-1h-1l1-1s0 1 0 0l-1-1h-1v-5l-1-1v-1l1-1v-1h-1s1 0 0 0l-1-1-1 1h-2v-1h-3l-2-1h-1l-1-1h-2l-1-1v-1l-2-1h-1l-1-1h-3v-1l-1-1h-1l-2 1h-3s0 1 0 0l1-1-1-1v-1l-1-1v-2h-2l-1-1-1 1v-1l-1-1v-2l1-2-1-1 1-1 1-1v-1l1-1v-1l1-1v-1l1-1h1v-1l1-1h1l-1-1h2v1l1-1h1l1-1-1-1h-1l-1-1h-1v-1l-1 1v-1h-1l-1-1 2 1h1l1 1h4v-2h1l1 1h1l1-1h1l1-1 1-1v-1h1v-2h-1l-1-1h2l1-1h1l1-1v-1h1l-1-1h-1v-1h3l1 1 1 1v-1h3l-1-1-1-1-1-1s-1 0 0 0h1v1h1l1 1 1 1 1 1-1-1 1-1s-1 0 0 0h1l1-1 1-1 1-1v-1l1-1h-1l-1-1-1-1-1-1v-1h2v-1h1l1-1h-2v-1h1v-1h-2l-1-1h-1v-1s1 0 0 0h-1l-1-1h-6l1 1v2h1l1 1v1h-2v1l-1 1v2h-1v1l-1 1v1h-1l-1 1v1l-1-2v-1l-1-1-1-1v-1h1s0 1 0 0l1-1-1-1v-1l-1-1h-2v-1h-1l-1 1-1 1c1 0 1 0 0 0l-1 2v-3h-1l1-1s1 0 0 0v-1l-1-1h-1v-1h-1v1h-2l-1-1h1l2-1v-1l-1-1-1-1-1-1h-1v-2l-1-1-1-1-1-1h-2l2-1h1v-1l1-1v-1h-1 1l2-1h3v-1l1-1 1-1v-1l1-1v-1h-5l-1-1h-6l-1 1s-1 0 0 0v1h-1v3l-1 1v1l1 1v1h1l-1 2h1v1l-1 1c-1 0-1 0 0 0v1h-2l-1 2v2h1v1c1 0 0 0 0 0l-1 1 1 2h1v1h2l2 1h1v1h-1l1 1-1 1h2v-1 2l-1 2h-3v1h-1l-1 1 1 1 1 1v1l-1 1v-2h-1l-1-1s-1 0 0 0l1-1v-1l-1-1h-2v-1h-1v-1l-1 1h-3l1 1v1h-1v1h-1s1-1 0 0h-7l-1 1v-1h-1s1 0 0 0l-1-1h-4v-1h-1l-1-1h-1v-1l-1-1v-1h-1l-2 1-2 1h-3l-1 1v1h2l1 1v-1h2l1-1h2v-1l1 1h-1l-1 1h-2l-2 1v1s-1 0 0 0v1l1 1v1h1v1h-2l1 1v1l-1-1-1-1s-1 0 0 0l1-1v-1h-1s0-1 0 0h-2v-2h-2l-1-1h-3v1h-4l-1 1h-1l-1-1h-2v-1l-1 1-1-1 1-1h1l1-1-1-1-2-1-1-1h-1l-2 1h-2l-2-1h-1l-1-1h-3l-1-1-1-1h-3l-1-1h-3l-1 1-1 1h-1v-1h-1v-3l-1 1h-1v2s0-1 0 0l-1 1h-1l-1-1h-1l-1-2v-1l-1-1h-1l-1-1s1 0 0 0v2s1 0 0 0v1l-1 1h-4s1 0 0 0l-1 1-1 1-1 1-1-1h-2v1h-1l-1 1v1l-1 1-1-1v-1h2v-1h1l1-1s0 1 0 0h1l1-1h3l1-1 1-1v-1h-1l-1 1h-1s0-1 0 0h-1l-1 1h-2l-1 1h-2v1h-1l-1 1v-2h-2v1h-3v1h-1v1l1 1h1-1l-2-1h-4l-1-1h-1l-1-1v-1h-7l-1-1h-1l-1-1h-8l-1-1h-6l-1-1h-9l-1-1h-1v-1h-1l-1-1-2 1h-2v-1h-2l-1 1h-1l1-1v-1h-3l-2 1h-1l-1 1h-3l-2 1h-1v1h-1l-1 1h-2l-2 1-2 2v2l-3 1-2 1H5l-1 1-1 1 2 1s-1 0 0 0l2 1h1l2 1v1l1 1 1 1 1 1h2v-1h1v1h1v1l1 1 1-1c0 1 0 0 0 0h2v1h-2v1h-2v1h-6v-2s1 0 0 0h-1v-1l-1 1H7l-1 1v1H3v1H1l-1 1v1h4l1 1H3v1h1v1l1 1h10l1-1h2l1-1v2l-1 1h1l1 1v1h-1v1l-1 1h-2s0-1 0 0h-1l-1 1H9v3H7v1H6v2H5v1l1 1 1 1v-1l1-1h1-1v2h1v1s0-1 0 0h3s0-1 0 0v1h-1v-1l-1 1-1-1H8l-1 1h1v1h1l1 1v1h4v-1h1v-2h1v4h1v1s0-1 0 0h-1v1h1v2s-1 0 0 0h1v-1h2l1-1v1h2l1 1v1h1v-2h1v-1h1v1h-1v1h2l1-1 1-1h1v1h-1v1h-1v3l-1 1c1 0 1 0 0 0l-1 1-1 1v1h-2l-1 1h-1l-1 1h-1v2l-1-1v1l-1-1-1 1h-1v1h-1v1h-2v1h1v1l1-1h1l1-1v-1h1v1h3v-1h1v-1l1 1 1-1h2v-1h1v-2h2s0-1 0 0l1-1h1l1-2h1v-1h1l1-1h1l1-1h1v-1l1-1h1v-2h-2l1-1v-1h1l1-1c0 1 0 0 0 0h1v-1h1v-1l1-1 1-1v-1h1l1-1h3l1-1s1 0 0 0v1h-1v1h2-5v1h-1v2h-1v2h-1 2v1l-1 1h-1 3s-1 1 0 0l2-1 1-1h1l1-1h2l1-1v-1h-1v-1l1-1v-1h1l-1 1 1 1v-1h3l1 1v1s0-1 0 0h1l1 1h1v-1h2-1v1l1 1h9v1h1l1 1 1-1h2-1v1l2 1 1 1s0-1 0 0h1l1 1 1 1 1 1s0-1 0 0h2v-1h1v-1 1l1 1h2v-1l-1-1h1v2h1l1 1h1l1 1v1l1 1v1h1v1h1v1l1 1 1 1-1 1h3l1 1h-1v1h1v1h-1l1 1v2h2v1h-1v1h2v1l1-1h1v2l1 1 1 1v1h1v1l1-1h1v1h-1l-1 1v1h1l-1 1v1h1v1-1h1v1l1-1 1 1v1h4v1h1l-1 1h1v1h2v1h1l1 1v1h1v2h-4l-1-1v3l1 1v2l1 1-1 1h1v1h-1v8h-1v3l1 2v1s-1 0 0 0v3s0-1 0 0v1h-1v1l1 1 1 1v3h1v1h1v1h1v1l1-1h2l-1 1h-1v1s-1 0 0 0v1l1 1s0-1 0 0v2l1 1h1v1l1 1v2h1v1h4v1h2v1h1l1 1 1 1v2l1 1v1h1v1l1 1v2h1v2h1v1h1l1 1 1 1 1 1v2h-1s0-1 0 0h-2 1v1l1 1h1l1 1h1l1 1 1 1h1v4h1l1 1 2 1v1h1v1h1v1h2v-1h-1v-2h-1l-1-1h-1v-3h-1v-1c-1 0-1 0 0 0v-1l-1-1h1-1v-1l-1-1-1-1-1-1-1-1v-1l-1-1v-2l-1-1h-2v-1l-1-1v-2s0 1 0 0v-2l2 1h2v1s0-1 0 0l1 1-1 1h1v1l1 1v1l1 1v1h1v1l1 1h1l1 1v1l1 1h1l1 1 1 1v1h-1l1 1h1a11 11 0 0 0 1 1v1h1v1l1 1h1v1h1l1 1 1 1v1l1 1h1v2s1 0 0 0v1h1v3h-1v1h1v2l1 1h1l1 1h1v1h1l1 1h2l1 1h1v1h1l1 1h2v1h3a10 10 0 0 0 1 1h1l1 1 2 1h4l1-1h2v-1h1l1 1h1l1 1 1 1 1 1 1 1v1h1l2 1h3v1h2l1 1a17 17 0 0 0 2 0h2v1h1l1 1v1l1 1 1 1 1 1v3h1l1 1h1v-1h-1 1v1h1s0 1 0 0l1 1h1v2h2l1 1h2v1h2v1Zm-29-119 2-2 2-1 2-1 1-1h1l1-1v-1h1l1 1h3l1 1 1 2v1l1-1h1l1 1v1l1 1-1 1h1l1 1v1h6l1 1h2l1 1v1l1 1s1 0 0 0v1h-1l-2-1-1-1h-1l1 1v1l1 1-1 1h-1v3l-1 1-1 1v1h-1l-1 1h2l1-1h2v-1h3l1-1v1l1-1h2l-1-1h-1c-1 0-1 0 0 0l1-1v-1h2l2-1h1v1h1l1-1 1-1h1l1-1 1-1s1 0 0 0l-2 3h-1v2l-1 1h-6v1l-1 1-1 1-1 1h-1l-1 1h-2l-2 1h-2l-1-1h-1l1-1 1-2 1-1v-3h-1l-1-1v1l-1 1-1-1h1l1-1v-3l-1-1-1-1h-2v-1l-1 1-1 1v2l-1-1-1 1-1 2c1 0 1 0 0 0v2l1 1v2l-1 1v1l-1 1-2-1-1-2v-1l1-2v-2l1-1v-2l1-1-1-1-1 3h-1l1-1v-1l1-1v-1h1l1 1 1-1 1-1h5-1l-1-1h-1v-1h-3l-1 1h-1l-1-1h-1l-2-1s-1 0 0 0l1-1 1-1h-2l-1 1-2 1-1 1h-3v-1h-1l-1 1h-1l1-1Zm-73-74h2l-1 1-1-1h-4v1s-1 0 0 0l1 1h-1l-1 1-1 1h-3l1-1h2v-1h1v-1h-3v1h-1v1l-1 1v-1h-3s-1 0 0 0l1-1v-1l1-1h1-1l-1-1h4l-1-1h-6l-1 1-1-1-1 1-1-1h3l2-1h1l1-1h2l2-1h2l2-1 1 1h1l-2 1h-1l1 1h-2 2l1 1h3v-1h1v-1h1v2l-1 1h-1v1Zm26 14h-2l-1-1-1 1h1v1h-4v1l-1 1-1 1-1 1h-2l-1 1v1h-4l-2 1-1-1h-3v-1l-1-1 1 1h4v-1l1-1h2v-1l-1-1v-1l-1-1-1-1 1 1 1 1h3l1 1h1l1 1 1-1h1l1-1h1l1-1 1-1h5v1Zm29 42-1-2-1-1 1-1h-2v-1l1-2h1l1-2 1 1c0 1 0 0 0 0v1h-1c-1 1 0 1 1 1l1 1-1 1 1 1v1l1 1v1l1 1 1 1v3l-2 1v-2l1-2-1-1v1h-1v-1l-1-1h-1Z"
    />
    <path
        fill="#00305F"
        d="M253 206h-1l1 1v1h1v-1l-1-1Zm3 3-1-1v2c1 0 0 0 0 0l1-1Zm-2 3v-1 1Zm2 0v1h1v-1h-1s-1 0 0 0Zm4 6v1h2l-2-1Zm3-3s1 0 0 0h-1 1Zm-229 1-1 1v2l2-1 1-1-2-1Zm-2-2h-1l1 1v-1Zm-3-1 1 1v-1h-1Zm-2-2-1 1 1 1v-2Zm-4-1v1-1c0-1 0 0 0 0Zm-2 0v1-1ZM4 87l-2 1v1h3c1 0 2 1 1-1 0-1-1-2-2-1Zm283 51-1 1h1l1 1-1-1v-1Zm4 1h-3v1l1 1h2l1-1-1-1Zm6 0v-1h-1l-2 2v1h2l1-2Zm0 3h1l1-2h-2l-1 2h1Zm-44-90-2 1v3h3l2-1v-3h-3Zm-7-3 2-2h-1l-2 1v1h1Zm2-3 1-1-1-1-1 2h1Zm4 1-1-1-1 1 1 1 1-1Zm4 4 1-1h-1v1Zm3 3h2v-1h-3l1 1Zm-16-8 1-1c1 0 1 0 0 0l-1-1-1 1c-1-1-1 0 0 0l1 1Zm-19 6v2l1-1v-1h-1Zm1-9h-2 2Zm12 33h-2l-2 1-1 1 1 1h2l2-1 1-1-1-1Zm6 5 1 1 1-2v-2l-2 1-1 1 1 1Zm5-6h2v-1l-1-1-1 1v1Zm3-2h-1l2 1v-1h-1Zm149-29s0 1 0 0h1l2-1h1v-1h-2l-1 1h-1l-1-1h-2l-1-1h-2l-2 1h-2v1h-3v-1l1 1 1-1h1l1-1 1 1v-2h3v-1c1 0 0 0 0 0l-1-1h-4v1h-1v1h-1v1h-1c0-1 0 0 0 0h-1v-1h1v-1h1l1-1h4l1-1h1v-1l-2-1h-3 3l1 1h1l1 1h1l1 1v1l1 1h1l1 1h1v-1l1-1v2h2v-2l-1-1h1l1-1-1-1-1-1-1 1v-2h-1l-1-1h-1v-1h-1l-1-1h-1v-2s-1 0 0 0l-1-1s-1 0 0 0v-1h-4v-1h-1 4v-1l1 1v-1 1h3l1 1-1-1-2-1s0-1 0 0h-1v-1l1 1 1-1h4v1l-1-1h-2v1l1 1h1l1 1h2v-1h2l1-1h2v-2h-3v-1h-1l-1 1v-2h2v1h3l1-1h2l1-1 1-1h-4v-1h1v-1h-2v-1h-1v-1h1l1 1h1l1-1v-1l1-1-1-2h-1v-1h-4V9h-1s0 1 0 0h-1V8h-1l-1-1h2v1h1V7h1a2 2 0 0 1 1-1h3l1 1h3V4l-2-1-1 1-1-1h-2V2h-1V1h2v1h3l-1-1h-1V0h-5v1l-1 1V0h1v-2l1-1v-2h1l1-1h1v-1h1l1-1h1-1l-1-1v-1l1-1h3l1-1h1v-1h-2c0-1 0 0 0 0h-2c0-1 0 0 0 0h-1v-1h-2v2h-2v-1h1l1-1h9v-1h1l1-1h-1c0-1 0 0 0 0h-2v-1h-1l-1 1h-1l-1-1h6-1 2v-1h4v-1h-1l1-1h3l1-1 2-2h1-1l-1-1h-1l-1-1h-3l-1-1-1 1h-4l-2 1-1 1-1 1h-2v-1h-2l-1 1h-1l1-1h-2l-1 1-2 1h-1v1a12 12 0 0 1-2 1l-2 1-1 1v-1l2-1c0-1 0 0 0 0v-1h1l1-1 2-3c0-1 0 0 0 0l-1-1v-1h-5l-1 1v1h-2v1h-1c0-1 0 0 0 0h-2v1h-3s-1 0 0 0c0-1 0 0 0 0l1-1h3v-1h1v-1c1 0 0 0 0 0v-1h-10l-1 1h-1v-1 1h-6v1h-2c0-1 0 0 0 0v-1l1 1 1-1h3l1-1h5l1-1h1l3 1 1-1h8l3-1 1-1h1l1-1h-1l-1-1h-5l-2-1-1 1h-1v-1h1l1-1h-1v-1h-3v1h-5c-1 0 0 0 0 0h-2 4l2-1h2l-1-1c-1 0 0 0 0 0h-2l-1-1h-10l-1-1h-7v1h-1l-1-1a319 319 0 0 0-6 0v1l-1 1v-1h-2l-1 1h-2v1h3v1h-2l-1 1c-1 0 0 0 0 0v1l-1-1h-1l1-1-1-1h-2l1 1h-1v1l-1-1h-3l-1-1h-5l-1 1h-3c-1 0 0 0 0 0v1h-1v-1h-3v1h1l1 1c0-1 0 0 0 0h4-3l1 1h1v1h2v1h1-1l-1-1a57 57 0 0 1-3-1h-5c-1 0 0 0 0 0-1 0 0 0 0 0v1l1 1h2l1 1h2v1l1 1h1v1h-2v-1h-2l-1-1-1-1-1 1v-1h-2l-1-1h-2l-1-1h-1c-1 0 0 0 0 0h-3v2l1 1 1 1h-2l-1 1v-1l-1-1v-1h-4v-1l-1 1 1 1v1l-1 1h-1v1-4l-1-1h-2v-1 1h-2l-1 1h-3v1-1h-2l-1 1h-4l1 1h1v1l1 1h3v1h1l1 1h-1v-1h-1l-2-1h-1l-1-1-1-1h-6v2h1v1h-1v3h-1l-1-1h-4v1l1 1-1-1-1-1h-1l-1 1h-1v1h-1l-1 1h-2l-1 1h-1v1h-1v2h8v-1h1v1h-2l-1 1 1 1h-1l1 1v1h-1l-1 1h-2v1h-1l-1-1v1h-2v1h-1v-1h-1l-1 1h-1v1h-4v1h-3v1h-3v2h1v1h2v1h3l1 1h1V1l1 1v1h1l1-1h1v1l1-1h2l1-1 1 1h1l1 1h-1l-1 1-1-1-1 1-3-1-1 1h-6v1h-1l1 1h3v1h4l1 1h-3v2h1v1h5v-1h1v1h1v-1h1l1 1h2v-1h1c0-1 0 0 0 0 0-1 0 0 0 0l1-1v1h1l1-1h1l1 1h5v1h3l1 1h1v1h2v3h1l1 1h2v2h1l1 1v2l1 1v1l1 1 1 1h-1v1l1 1h1v2h1v1h-1v1h-1v1h-1 1l1-1v1l-1 1h-1l-1 1h1v1h4v-2h1v-2h-1l1-1v2h1v1l1-1v1c-1 0 0 0 0 0v1-1h1v1h1v1h1v-1h1v1l-1 1h1v1h1v1h1v2h-3v-1h-2v-1h-5v1l1 1h3l1 1 1 1h5c1 0 0 0 0 0l1 1h-1v2h-1v1h1v1-1 1h-2v1h1l-1 1 1 1h-1v1h1v1c1 0 0 0 0 0h2l-1 1h1-1v1h-1 1s1 0 0 0h-1c-1 0 0 0 0 0h-2v-1 1h-1v-1h-4v1l-1 1c-1 0 0 0 0 0h7v1-1h2v1h-2l-1-1c-1 0 0 0 0 0h-6v1l1 1h1l1-1 1 1-1 1h-2v2c-1 0 0 0 0 0h2l1-1 1-1 1-1h2-1l-2 1-1 1-1 1h-1v1c-1 0 0 0 0 0h-1 4-1v1h-2v1h3l1-1h1v1-1h-1l-1 1h-1v3h2c1 0 0 0 0 0v1h-2v1l1 1v-1h1v-1h1v-1 1l1-1v-1 1h2v2h1v1h-1l-1-1v1h-1l-1 1-1 1v1l1-1s0 1 0 0l1 1h-1l1 1h-1 2l-1 1h2v2l-1 1h2v1l1 1 1-1v3h1v1h2v1h-1l1 1h1v-1h1v1h1l1-1h1v-1h1v1l1-1v2h-1v1h2v1c1-1 0 0 0 0v1h1l1-1v1h2l1-1h-1l-1-1h2l1-1v-2h1v-1h-1l1-1v-2l1-1h-1l-1-1 1-1v1h1l1-1v-1h1v-1h1l-1-1 1-1v1h1v-3h-2 2l1-1v-1l-1-1h-1v-1h1l1 1 1-1h1v-1h-1v-1h4l1-1c0-1 0 0 0 0v-2h2-1v2h-1v1h1v-1h3v-1l1 1 1-1 1-1h2l1-1v-1h1v-1l1-1v-1l1-1 1-1h2v-1h1l-1-1v-1c-1-1 0 0 0 0h1l1 1 1 1 1-1h3-1v-1l1 1h1l1-1h3c0-1 0 0 0 0l2-1h1l1-1c0 1 0 1 0 0h2l1-1h1v-1h1l3-2v-1Z"
    />
    <path
        fill="#00305F"
        d="m319 43-1-1h-4v1l1 1h-2l1 1h2c1 1-1 1-1 1l2 1 3-1h1l1-2-3-1Zm4 8-1-1-3-1 1 1-1 1h-1l1 1c1 0 0 0 0 0l-2 1-1 1v1l3-1h2l1-1 1 1 1-1v-1h-3 1l1-1Zm82-22-3-1-1-1h-3v1h1l1 1h5Zm-1 2-1-1h-1l-1-1h-3v1l1 1h2l1 1h2l-1-1h1Zm-93-2h-1 3-2Zm2 3 1-1v-1h-2v1s1 0 0 0h-1v1h2Zm4 5h-1l1 1v-1s0-1 0 0Zm2-1h-1v1h1l1-1h-1Zm-1-1h-1 1Z"
    />
    <path
        fill="#00305F"
        d="m321 36-2-1 1 1 1 1v-1Zm1 3h1l-1-1h-1l1 1Zm536 277s1-1 0 0Zm-11 9s1 1 0 0Zm45 35h-1v-2h-1v-3l1-1-1-1v-1l1-1v-2l-1 2h-1v-1h-1v-2h-2v-1h-1v-1h-1v-3h-2v-1h-1v1l-1-1v-2l-1-1v-1h-1v-2h-2l1-1h-2v-1h-2l-1-1-1-2v-1l-1-1v-2c-1-1 0 0 0 0l-1-1v-2l-1-1v-3h-1v-1h-2v1l-1-1v-1l-1-1v-3l-1-1v-1l-1-1v-2l-1 1v1l-1 1v2h-1l1 1-1 1v8l-1 1s1 0 0 0v1s1 0 0 0l-1 1v2h-3v-1h-2v-1h-1v-1h-2l-1-1-1-1h-2v-1h-1v-1l-1-1h-1v-1h1v-1l1-1-1-1h2v-2h1v-2h-1v1h-1l-1-1v-1 1h-5l-1-1h-1l-1-1h-1v-1h-1l-1 1 1 1h1v1h-1l-1 1-1-1-1 1-1 1h-1v1l-1 1-1 1v4h-1l-1-1h-1l-1 2v-1l-1-2-1-1h-1l-1-1-1 1h-1l-1 1h-1l-1 1v2h-1v2h-2l-1 1 1 1-1 1v1-2l-1-1h-1v1l-2 1v1h1l-1 1v1l-1 1s1 0 0 0l-1 1v1h-1l-1 1h-1l-1 1h-3v1h-2l-1 1h-3l-1 1h-1l-1 1-1 1h-1l-1 1v1h-1v-2l-1 2v4l-1 1v1l1 1s0-1 0 0l1 2v2l-1-1h-1l1 1v1c1 0 0 0 0 0l-1-1v-1h-1v-1 2h1v1h1v1l1 1v3l1 1v1l1 1 1 1-1 1s1 0 0 0v1l1 1v1l1 1v1l1 1h-1l1 2-1 1s0-1 0 0v1s1 0 0 0v1h-1v2h1l1 1v1l1 1h6v-1h1l1-1h1l1-1 1-1h9l1-1h1v-1l2-1h1l1-1v-1h7v-1h1l1-1h8l1 1 1 1 1-1h1v1h2v1h1v2h1l1 1v1s1 0 0 0v1h1v1l1 1h1v-1l1-1 1-1h1v-1l1-1 1-1c0-1 0 0 0 0v2l-1 1v3h-1v1h1l1-1v-1h2v2h-1v1h3v2l1 1v3h1v1l1 1h2l1 1h3l1 1h1v1h1v-1h1v-1h2v-1h1l-1 1h2l-1 1h2l1 1v1l1-1v-1h1l1-1 1-1 1-1 1 1 1-1h3v-1l1-1v-4l1-1 1-1v-3h1v-2h1v-1l1-1 1-1 1-1v-2l1-1v-5h1v-2h1v-2Zm-26-41s1 0 0 0Zm14-24h-3v1h2v1h4l1-1h1l1-1h1v-1l1-1v-1l-1-1h-1v2h-1v1h-1l-1 1h-3Zm10-4-6-4 3 3 2 1v2l1-1v-1s0 1 0 0Zm-8-4h1l-1-1v1Zm-1-3-1-1v1h1Zm-9 2h2v-1h-2v1Zm26 12-1-1-1-1-1-1-1-1v2l1 1 1 1 1 1h1v-1Zm3 2h1l-1-1-1-1v1l1 1Zm-1 1-1 1 1 1v-2Zm3 2v-1h-1v-1h-1l-1 1h1l1 1h1v1h1l-1-1Zm5 0v-1h-1l-1-1h-1l1 1h1l1 1Zm5 2-1-1-1-1v-1 3l1 1h1v1-1s1 0 0 0v-1Zm-2 2v-1h-1l-1-1-1 1 1 1h2Zm37 73-4-1 1 2 1 1 2 2h1v-2l-1-2Zm0 5c0 1 1 3 2 1v-2l-2 1Zm12 3-2 2c-1 1-2-1-3-1-2 0-1-1-2-2l-1-2v1h-1l-1 3v2l-1 2-1 1 2 1 1 2v2c-1 2-1 1 1 2l1-1 2-2 2-2v-2l1-1h1l1-1 1-2-1-2Zm-11 12h-4l-1-1c0-1 0-2-1-1l-1 2v1l-2 3-2 2-3 2-3 2-2 2-1 2s-3 1-2 2l3 1 1 1h5l2-2 2-3v-2l2-1 2-1h1l-1-2 3-3 1-2 1-2Zm-18 19-1 1h1v-1Zm-54-20h-2l-2 1h-3l-1-1h-2v1l1 1v5l2 1 1 1h2v-1h1v-1h1l1 1v-3h1v-5Zm-1-3h-1l1 1v1l1-1-1-1Z"
    />
    <path
        fill="#00305F"
        d="m848 383-2-1-1 1-1 1h3l1-1Zm17 13v-1l-1 1 1 1v-1Zm4-103-2-1-1-1-1-1-1-1h-2l-1-1h-2l-2-1v-1h-2l-1-1h-2l-1-1h-2l-1-1h-1l-1 1-1 1h-1l-1 2h-1l-1 1h-2v-1l-1-1v-2h-1 1v-3h-2l-1-1h-3l-1 1-1 1h-1v-1h-2l1 1v1h3v2h1c0 1 0 0 0 0h2l1 1 1-1v1h1-1s1 0 0 0h-2l-1 1v-1h-1v1l1 1 1 1v1l1 1 1-1v-2h1l-1 1h1v1h2v1h2v1h2l1 1h3l1 1v1l1 1v1h1v1l1 1h-1l-1 1h-1v1l-1 1h4v-1l1 1s0-1 0 0h2l1 1 1 1 1 1h6v-2h-2l-1-1 1 1h3l-1-1h2v-1h1s-1 0 0 0h2c0 1 0 0 0 0l1 1h1l1 1v1h1l1 1v1l1 1h1v1h6l1 1 1 1v-1c1-1 0 0 0 0v-1h-1l-1-1-1-1h-1v-2l-1 1-1-1v-1l-1-1-1-1h-1v-1l-1-1c0-1-1-1 1-1h1v-1l-1-1h-1l-2-1v-1h-1l-1-1Zm-51-4v-1l-1-1h-1l-1 1 1 1v1l2-1Zm4-2h-2l1 1h-1l1 1 1-1h3l1 1h1l1 1 1-1h-1v-1l-2-1h-4Z"
    />
    <path
        fill="#00305F"
        d="M838 298v-1l1-1v-3l-1 3h-1l1 1v1Zm-4-4-1 1h1v1l1-1v-1h-1Zm-4 7v-1l1-1s0-1 0 0h-1l-1 1v1h1Zm-1 1h-1s-1 0 0 0h1s1 0 0 0Zm-8-27c0-1 0-2-1-1l-1 1v1l1 1v4h1v-1l-1-2h1l2 1v-1l-1-1v-1l1-1h-2l-1 1 1-1Zm0-2c1 1 1 0 1-1h-1v1Zm0 11-1-1h-1v1h2Zm8-4v-1h-2v1h2Zm14 2v-1h-2l1 1h1Zm-18 3h2l-1-1-1 1Zm-238 45c0-1 0 0 0 0Zm17-10-1-2v-4l-1-1h-1l-1 1v2l-1 1-1 1-1 1s1-1 0 0v1l-1 1v1h-2l-1 1v1h-1v-1l-1 1h-3v1l-1 2v6l1 1-1 2v2h-1v1h-1v5l1 1v1l-1 1v1h1v1l1 1h1v1h1l1 1 1-1h2l1-1h1v-1l1-1v-1l1-2v-2l1-1v-2l1-1v-2l1-1v-1l1-1v-3l1-2v-2l1-1v-2l-1-1 1-1v1h2v-1l-1-2Zm-19 21c0-1 0 0 0 0Zm-318 20s0-1 0 0Zm101-63v-2l-2-2h-1l-1-1h-2l-1-1v-1l-2-1-2-1v-1l-2-1h-6l-2-1c0 1 0 0 0 0h-5v1l-1-1 1-1-1-1h-1l-1-1h-2l-1-1-1-1h-3l-1 1v1l-2 1-1 1v1s0-2-1-1h-1l-1-1h3l2-1v-3h-5l-1 1v2-1h-1v-3h1l1-1h1v-4h-1l-1-1v-2l-1-2v-1h-1v-1l-1-1-2-1h-1l-1-1-1-1h-9l-1-1-2-1v-1h-1v-1l-1-1-1-1h-1l-1-1h-1l-1-1h-2l1-1-1-1-1-1c0 1 0 1 0 0h-1c0-1 0 0 0 0h-1v-1h-1c-1 0-1 0 0 0v-1h1-5l-1 1h-3l-1-1h-6l-1-1v-1h-2l-1-1v-1l-2-1v3h-2l-1 1v1l1 1v3h-1l-1-2v-5s-1 0 0 0h1l1-1c0-1 0 0 0 0h1v-1h-4l-1 1v1l-1 1h-3s1-1 0 0l-2 1h-1l-1 1v1l-1 2-1 1-1 1-1 1v1l-2 1-1 1 1 1v3l1 1-1 1h1v4l-1 1v1l-1 1h-1v1h-1v1h-1v2h-1l-1 1h-1v1s-1 0 0 0v1l-1 1v2l-1 1v2h1-1l1 1 1 1v-1l1-1v2l-1 1-1 1h-1l-1 1v4h1v2h-1s1 0 0 0l1 1h2v1h1v2h1v1l1 1v1l1 1 1 1v1l1 1v2l1 2h1v1l1 1v1l1 1 1 1v2s-1 0 0 0v1l1 1v1h1l1 1 1 1h1l2 2h2l1 1h2l1 1v2l2 1s0-1 0 0l1 1v3l1 1v1l-1 1 1 1s0-1 0 0v3l-1 1v5l-1 5v4h-1v4l-1 1v2l1 1-1 2v1l-1 3v1l1 1v2l-1 1v1l-1 2v2l-1 1v2l-1 1v1l-1 1v1l-1 2v2l1 2v2l-1 1v3h-1v1l1 1 1 1h1l1-1v1l-1 1 1 1v1l-1 1v1s0-1 0 0v5h-1v2l1 1h-2l1 1-1 1-1 1s0 1 0 0l-1-1-1-1-1 1v1l-2 1 2 1 1-1v1l1-1 1 1-1 1h-1l1 1h1v1h1l1 1h-3v1l-1 1 1 1 1 1-1 2s1 0 0 0v2h1l-1 1-1 1s-1 0 0 0l1 1h1l1 1v1l1 1v-2l1 1h1s0-1 0 0v1h-1l1 1c-1 0 0 0 0 0h1l1 1 1 1 1 1h-2v3h2l1-1v-2l1-1 1-1h1v1l-2 2h2v1h-1v1l1 1v1h-4v1h4v1h2s-1 0 0 0h7s1 0 0 0h3v-1h-1l-2-1h-1l-1-1c0-1 0-2-1-1l-1-1-1-1v-2h-2l-1-1-1-1h3c1 0 1 0 0 0l-1-2v-4l1-1 1-1h1v-1l1-3 1-1 2-1 2-1v-1h-1v-1l1-1-1-1h-2l-1-1-1-1 1-2v-2h2l2-2c0 1 1 2 1 0l1-2-1-1h1v-2l1-1-1-1h2v1h1l1-3h-2l-1 1h-1v-5h1l2 1v1l2-1h2v-1l-1-1 1-1 1-1v-1l-1-2h5l5-1h2l1-1 1-1 1-1v-1l1-1s-1 1 0 0v-1l-1-1-1-1 1-2-1-1v-1l-2-1h-1v-5l1-1v-1 5l-1 1 1 1h2l1 1h7l1-1h1l1-2 1-1 1-1 1-1v-2l1-1s0 1 0 0l1-1h1l1-1 1-1 1-1v-2l1-1c0-1 0-2 2-2l1-2v-1l1-1v-4l-1-1v-1h1l-1-2h2l1-1 2-1 1-1h1l1-1v1h2l-1-1 2-1 1-1s0-1 0 0h6l1-1v-1h1l2-2v-1l1-2 1-1v-2c1 0 1 2 1 0v-4l1-1 1-1v-12l1-1h-1 2l1-1 1-1v-2l1-1 3-3 1-1 1-1v-1l1-1v-5Zm-74-63 1-1h-1v1Zm1 1v1-1Zm1 2h-1l1 1s0 1 0 0v-1Zm0 2v1-1Zm0 3-1-1 1 1Zm-2 3v-1 1Zm-81 34-1-1-1 1 1 1-1 1h2l1-1-1-1Zm1 0Zm1 1h-1l1 1v-1Zm2 0v1h1l-1-1Zm68-51h1-1Zm5-2v1-1Zm1 3c-1 0 0 0 0 0 1 0 0 0 0 0Zm3 20h2l-1-2-1 2Zm154-148h1v1h1v-1h1l-1 1-1 1c1 0 0 0 0 0h2l1-1v4l-1 1 1 1h2l1-1h1v1h-1v1h1v1h1v3h-2l-1 1h-1l1 1v2l-1 1h-2v1l1 1 1-1 1 1h1l1 1v-1h2v-1 1l-1 1h-3l-1 1v1h-1v1h-1l-1 1 1 1 1-1v-1h2v1h1l1-1v-1h11l1-1 1-1h-2v-1h1l1-1 1-1v-1l1-1h-1v-1h-4v-1h1l-1-1v-1h-1v-2h-1v-1l-1-1h-1v-1h-1v-2h-1v-1h-1v-1h-2v-1h1v-1h1v-2h1v-3h-4l-1 1-1-1 1-1 1-1v-1h-4l-1 1v2h-1l-1 1h1v1l-1 2-1 1Z"
    />
    <path
        fill="#00305F"
        d="m438 121 1 1h2l1-1h1l1-1v-1h3l1-4v-2l1-1 1-1v-1l-1-1-1-1h-2l-1 1v1h-1l-1 1v1h2-2v-1h-1v1h-5l1 1 1 1-1 1h1l1 1-1 1h1l-1 1v1h-1l-1 1 1 1Zm-19-48 1-1 1-1h3l1-1h1v-1h1v-1h1v-2l-1-1h-2l1-1h-2 1v-1h-1v-1l1-1h-1l-1 1h-1v-1h-2v1s0 1 0 0h-3v1h-2 1v1h-1v-1l-1-1h-1v1h-1v1l-1-1h-1l-1 1v1h-2v2-2h-1l-1-1 1-1v-1h-1l-1-1h-3 1v1l1 1h-1l-1-1-1 1h1-1v1h-1v1l-1 1h2l1-1h1l1 1v-1h1v1l-1 1h2-2v1h-4l1 1h1l1-1v1h1c0-1 0 0 0 0 0-1 0 0 0 0l1 1 1-1v1c-1 0 0 0 0 0v1l-1 1h-1l-1 1h4l1-1v1h2v1h1l1 1h3l1-1s0 1 0 0h1v-1h3Zm-19-10Zm96-71v2h2v-1 2h1-3s0-1 0 0h1v2h2v1l1 1v1h3l1-1h1v-2h2v-1h1v1h-1v1h3v-1h1v1h-1l-1 1s0-1 0 0h-2v1h-4v2l1 1V2h7-1s1 0 0 0h-3v1h-1l1 1h-2V3h-1l-1 1v1h1l1 1h2l1 1V6h2v1h-2v1h1l1 1h2s1 0 0 0V8l1-1 1-1V4h2V3s1 0 0 0V1h1l1-1v-2h2v-1h5v-1l-1-1c0 1 0 0 0 0h-2v-1h-2l-1-1-1 1-1-1v-2h-2v1h-1v-1h1v-1l-2-1-1-1-1 1v-1h-2l1 1-1 1v1h1v2l1 1h-1l-3-4h-1l-1 1-1 1 1 1-1-1h-2v-1h-1 2l1-1v-1l-2 1h-2l-1 1-1-2-1 1-1 1v-1l-1 1 1 1Z"
    />
    <path
        fill="#00305F"
        d="m534 2-1-1-1 1-1-1h-1l-1-1h1l-1-1h-2v-1l-1-1h-3l-1 1s1-1 0 0h-1l1 1v-1l1 1v1c1 0 1-1 0 0l1 1h1l-1 1-1 1v1h4l1-1v1l-1 1h2V4h2l1-1h1l1-1Zm73 33v1l1 1h2l1 1h-1 1l1 1v-2h1v1h1v1h-1v1h2l1 1h7c1 0 2 0 1-1l-2-1-1-1v-1l-2-1v-3l-1-1 1-1 1-1v-1l2-1 1-2h1l1-2 1-1 1-1v-1h1v-1l1-1 1 1 1-1 1-1 1-1h1l1-1s0 1 0 0h1l2-1h2l5-2h2l1-1h2l1-1h2l1-1h1V7h-6l-1 1h-1v1h-2l-1 1h-3l-1 1h-6l-1 1h-2l-1 1h-2l-1 1h-2v1l-1 1-1-1-1 1-1 1h-2l1 1v2h-2v2l-1 1h-1l-1 1-1 1v1-1l1 1v1l-2 1h-1v1h-1l-1 1s-1 0 0 0l1 1s1 0 0 0v1l-1 1h-2l-1 2Zm-8 12-1 1v1l1 1h3l1-1 1-1c0-1-3-2-5-1ZM488 159c-1 1 1 3 1 4v2c1 1 1 0 2-1 1 0 1 1 1-1v-2c0-2 0-2-2-3h1l-1-1-2 2Zm4-5v-2l-2 2c-1-1-1 1-1 1l1 2c2-1 2-1 2-3Zm8 15 3 2 3 1h1v-1l1-4-3 1h-4 1c-1-1-2 0-2 1ZM705 24Zm72-3h-1l-1-1v1h-2v1h1v1h4v-2s1 0 0 0h-1Zm79 99 1 1v1l1 1v4s0-2 0 0v2l-1 2v2h1v2l-1 1v6h1v-1l1-1h2v1s0 1 0 0h1v-2h-1l-1-1v-1h-1v-1l1-1v-4h1v-1l1 1h2l1 1-1-2-1-1v-1l-1-1v-4l-1-1v-3l1-1-1-2v-2l-1-1v-1h-2l1 1v1l-1 1h-1v5h-1Zm9 12ZM741-1l-1 1v1h2l1-1h1l1-1h9l1-1h2v-1l-1-1h-1l-1-1h-1v-1h-3l-1 1h-1l1-1v-2h-1v1h-1l-1-1v1h-1l-1 1v1l-1 1v1l-1 1h-1v1Zm103 18v1h1l2 1h1l1 1h1l1-1h4l1-1h2l1 1h2l1-1h-2l-1-1-1-1v-1l1-1h1v1h-1v2l2 1 1-1 1 1h1l1-1v-1l2-1h-1l-1-1h-2v-1h-4l-1-1h-3l-1 2h-1v-1h-1l-1-1-1-1h-1v1l-1-1-1 1h-2v1l-1 1v2h-1l1 1Zm25 0h1l1 1h1l1 1h3l1 1 1-1h3l1-1v-1h-2l-1-1h-3l-1-1h-2l-1 1s1-1 0 0h-1v-1h-1l-1 1v1Zm-18 10h1l1-1h1l1 1h3l3 1 1-1-1-1v-1l-1-1h-6v1l-1 1h-1l-1 1Zm2-3 1-1 1-1-1-1h-1l-1 1v1l1 1Zm-14-8h1l1-1v-1h-1l-1 1v1Zm2 7-1-1h-1v1h1l1 1h1l-1-1Zm119 17h1l1-1 1 1h1l1-1h4v-2l-2-1h-5l-1 1-1 1h-1v1l1 1Z"
    />
    <path
        fill="#00305F"
        d="M991 62h-1l-2-1-1-1-1-1-1-1h-2l-1 1-1-1h-3l1 1v2h-2v-4h-1l-1-1-1-1v-1h-1l-1-1h-1l-1-1h-2l-2-2h-1l-1-1h-2l-3-2h-1l-1-1h-3l-1-1h-3l-1-1h-3l-1 1h-2v-1h-4l-3-1v2l-1 1h1l1 1v1h1l-1 1h-1v1h-2v-1h-1l-1-1h-2v-2l-1-1-1 1h-9v-1h-1l-1 1v-1h-1l-1 1-1-1h-2v1h-1v3c0 1 0 0 0 0v-1c-1 0 0 0 0 0v-1l-1-1-1-1h-3v-1h1v-2c0-1 0 0 0 0l-1-1-1-1h-1l-1-1h-4l-1-1-1 1v-1h-1l-1 1h-5l-2 1h-1s-2 0-1-1h-1v-1l-1-1h-4v-1h-3v-1l2 1-1-1h1v-1l-1-1-3-1h-5l-1-1h-6l-3-1h-6v2h-4v1h1c1 0 1 0 0 0v4h-1l-1-1h-3v2h-2l-1-1-1-1h-3l-1 1h-4l-1-1-1-1h-1l-1 2-1 1v1l-1 1h-2l-1-1-1-1h-1l-2-2v-1l-1-1v-1l1 1h1l1-1-1-1-1-1c-1 0 0 0 0 0l1-1h-1l-1-1h1v-1l-1-1h-1v-1h-8l-1-1-1-1v1h-2l-1 1v4l-1-1h-6l-1-1h-4l-1-1v-1h-1l-3-1h-8l-2 1 1 1h-2v-2l-1-1-1 1h-2l-1-1h-4l-1 1h2v1h-3l-2 1h-1l-1 1h-4l-1 1-1 1h-1v-1h1v-1l1-1h2l1-1 1-1h2l1-1 1-1h2v-1h1v-1h2l1-1h1l1-1h1v-1h2l2-2v-1l-1-1h-2l1-1 1 1h1v-2l-1-1-1 1c-1 0 0 0 0 0l-1-1v-1l-1-1h-1l-1-1h-10v1h-2c-1 0 0 0 0 0h-1c-1 0-1 0 0 0V8l1-1c1 0 0 0 0 0V6h-7 1l1-1h1V3h-3l-1-1h-2l-1 1h-1l-1 1-2 1-2 2c-1 1 0 0 0 0v2h1-5l-1 1c-1 0 0 0 0 0l1 1 1 1h-1l-1-1h-3l-1 1h-1l-1 1h-2l-2 1 1-1v-1l-2-1h-1l-1 1h-4v1h-1l-1 1h-6v1h-2l-2 1-1 1h-1v1h-2v1l-1 1c-1 0 0 0 0 0l1 1h-2v1h1v1h1l-1 1h-3l-1 1-1-1-1 1h-10l-1 1-1 1v1h1v2l1 2 3 1c1 0 0 0 0 0l1 1v1h-4v-1h-1l-1-1h-2v-1h-3l-1-1h-3v2h1l1 1h1v1h-1l-1-1h-4v1h1v1h1l1 1 1 1h3v1h-2v-1h-6l-1-1 1-1-1-1v-1l1-1v-3h-2v3l-1 1h-2l-1 1v1l-1 1v1h1l1 2h1v2l-1 1-1 2 1 1v2h1l2 1v-1h5l1 1 1 1 1 1 1 1-1 1-1 1 1 1h1l2 1h-2l-2-1-1-1v-3l-1-1-1-1h-3l-1 1h-1l-1 2h1v4h-1l-1 1v1l-2 2h-1l-1 1v1h-2v-1h-5l-2-1v-1h2l1 1h1l1-1h3v-2l1-1 1-1h1v-2l1-1v-1l-1-1h-1l-1-1 1-2v-3l-1-1v-1h1v-2l-1-2-1-1v-1l1-1v-1l1-1v-3h-2l-1-1h-7v1l-1 1v2l-1 1v1h-1l-1 1-1 1h-1l-1 1v2h2v2l-1 1v3h2l1 1v1l1 1h1v3h-2l-1-1-4-2v-1h-3l-1-1h-1l-1-1h-2l-1-1h-6l-2-1-1-1-1-1h-2v2l1 1h1l1 1h1v1l1 1 1 1h-1v1h-1l-1 1v1h-1l-1-1 1-1-1-1h-2l-2 1v1h-6l-2 1h-4 1l1-1v-1l1-1h-3l-1 1-1 1-1 1v-1h-1c0-1 0 0 0 0h-3l-1 1-1 1-1 1c-1 0 0 0 0 0l-4 1-1 1v1l-1 1-3 1h-1l-1-2h-1l-1-1 1-1 1-1h3v-1l-2-1-1-1h-6l1 1h1v3l-1 1v1l1 1v4l-1 1v-1h-1v-1h-4l-2 1-1 1-1 1h-1l-1 2 1 1 1 2h-6l-1-1-1-1-1-1-1 1-1 1v1l1 1h1l2 1-1 1h-3l-1-1-1-1h-3l1-1-1-1v-5h-1v-1h-1l-1-1h-1v-1h-1l-1-1v-1h-1 2v1h1l1 1h3l1 1h2l2 1h8c1 0 0 0 0 0h1l1-1 2-1 1-1v-2l-1-1v-1l-1-1-1-1h-2l-1-1-2-1h-2v-1l-2-1h-1l-1-1-1-1-1 1h-2l-1-1h-3c0-1 0 0 0 0h-1l-1-1 1-1-2-1-1 1v-1l-1 1h-5l-1-1h2l1-1 2-1v-1l-2-1h-2l-2-1v1l-1 2h-1v-2l1-1-1-1-1 1h-1v2h-2v-2l-1 1-1 1-1 1h-1c-1 0-1 0 0 0l1-2 1-1h-3v1l-1 1h-1v1h-1l-1 1h-4v1h-2l-2 2h-2v-1h-2v1s0 1 0 0l-1 1h-1v-1h-1l-1 1v1s1 0 0 0c0 0 0 1 0 0h-1v1l-1 1h-1v-1l-1 1v-2l-1 1-1 1-1 1v1h2l1-1 1 1c0-1 0 0 0 0v1h-1l-1-1v1h-2v1l-1 1v1l-1 1-1 1v1l-2 2v1h-2v1s1 0 0 0v2l-1 1h-1v2h-1v1h-2l-1 1-1 1-1 1v1h-1v1h-1v-1l-1 1v1l-1 1h-3v1h-1l-1 1-1 1h-1l-1 1-1 1v2h1v1l-1 1v3h1l1 1-1 1v2l1-1 1 1-1 2c-1 0 0 0 0 0l1 1v1h2l2 1 2-1 1-1 1-1h1l1-1h1l1-1v-2 1l1 1h1v3l1 1h1v4l1 1 1 1 1 1h-1v2l1 1v1h3l1-1v-1h2c0-1 0 0 0 0h1l1-1h1v-1 1l1-1 1-1v-2 1h-1v1-4h1l-1-2 1-1v-1h2l1-1h1l1-1v-1l1-1v-1h-1v-1h-1l-1-1-1-1h-1v-5l1-1v-1h-1l1-1h1v-2l1 1 1-1 1-1 1-1h1l1-1h2v-1l1-1 1-1-1-1v-1l1-1v-1h1v-1h1l1-1h3l1 1v-1h1l2 1v3h-1l-1 1-1 1-1 1-1 1-1 1-1 1-1 1h-2v1l-1 1-1 2 1 1 1 1v6h2l1 1 1 1h4v-1h2v-1h8v-1l1 1 1 1h3v1h-4v1l-1 1h-3l-1-1h-3v1h-4l-1 1-1 1v2l1 1h1l1 1v1h-1v2l-1 1-2-1v-1h-2v-1h-1l-1 1-1 1v1l-1 1v1c1 0 0 0 0 0v5l-1 1-1 1h-1l-1 1h-3v-1l-1-1-1 1h-3l-2 1-1 1h-2l-1 1h-1l-1-1-2-2-1 1h-1l-2 1h-1v-1h-2l-1-1v-1h-1v-3h1v-1h1l1-1h1l-1-1h-1v-1l1-1v-3h-2l-1 1-1 1h-1l-1 1h-1v1l-1 1v4h1l1 1h-1v1l1 1v1l1 1v1h-1v1h-7l-1 1-1 1h-1v1l-1 1v1l-1 1-1 1-1 1h-1l-1 1h-2l-1 1v3h-1l-1 1h-1l-1 1-1 1h-1l-1-1h-2l-1-1v2l1 1v1h-4l-1-1-1 1h-2l-1 1v1l1 1h2l1 1h1l1 1h1v1l1 1 1 1v1h1v5l-1 3v1h-16l-1-1-1 1h-1l-1 1h-1l-1 1h1v1l1 1v5l-1 4-1 1v2l1 1h1v3l-1 1h7l1 2 1 1h2v-1h2l1-1c0 1 0 1 0 0h2v1l1-1h2l1-1 1-1 1-1h1v-1l1-1h1l1-1-1-1-1-1 1-1v-1l1-2 1-1h1l1-1h1l1-1 1-1h1l1-1v-3l1-1 1-1h3l1 1h1l1 1 2-2h1l1-1h1v-1h6l1 2v1l1 1 1 1v1l2 1 1 1v1h2l2 1 1 1h1l1 1v1h1l1 1 1 1 1 1v1l-1 3h1v-1l1-1 1-1v-1l1-1h-1l-1-1v-1l1-1h1l1 1 1 1h1v-1l-1-1-2-1-1-1h-1l-1-1v-1l-1-1h-3v-1l-1-1-1-2h-1v-1l-2-1v-1h-1l-1-1v-1l1-1-1-1 1-1h1l1-1 1 1v1l1 1c0 1 0 0 0 0l1-1 1 1v1h1v1c1 0 1 0 0 0l1 1v1l1 1h2l1 1 1 1h1l1 1 1 1v-1l1 1 1 1 1 1v5l1 1v1h1v1l1 1h1v1h1l1 1h-1v2l1 1v1l1 1h2l1 1 1-1h-1v-1l-1-1 1 1 2-1h-1l-1-1-1-1 1-1 1 1 1 1h1l-1-1v-1h1v-1h-1l-1-2h-1l-1-1v-3l1 1h1l1 1v-1h1c1 0 0 0 0 0v-1l-1-1h2v1c1 1 0-1 1-1h3l1 1h2l1-1h1l1-1h1l1 1 1-1c1 0 0 0 0 0v-1h-2l-1-1v-1l-1-1v-2l1-1h1v-2l1-1v-1l1-1h1v-1l1-1h-1l1-1h1l1-2 1-1 1-1h1v2h1l1 1h1l1-1h1v1h-1l-1 1h-1v1h2v3h2l1-1h2l1-1c0-1 0 0 0 0h2l1-1c1 0 0 0 0 0h-2l-1-1h-2v-2h1l2-1 1-1h2l1-1h3l2-1v1l-1 1h-2v1l1 1h-1v1l-1 1h-1l-1 1v1h1l1 1h1l1 1 1 1h1l1 1 1 1v1h2l1 1 1 1v1l1 1v1a3 3 0 0 1-1 1l-1 1h-7c0 1 0 0 0 0h-4l-1-1h-1l-1-1h-1v-1h-7l-3 2-1 1h-5l-1 1h-1v1h-1l-1 1-2-1h-2l-1 1v2c0 1 0 0 0 0h1v2l1 1-1 1v1h1v1h-1l1 1 1 1h1l1 1h1l1 1h1v1h3l1-1v-1h3l1 1v1h1l1 1v-1h2l1-1h1v-1h4v2c0 1 0 0 0 0v4c0 1 0 0 0 0v2l-1 1-1 1v1l-1 1v1c1 0 0 0 0 0v1l-1 1v1l-1 1 1 1 1 2v3-2l-1-3-1-1v1c-1 0 0 0 0 0h-4l-1-1h-5l-1 1-2 1h-1l-1-1h-2l-3-1h-3l-1-1a3 3 0 0 1-1 0v-1h-5v-1l-1-1h-4l-2 1-1 1-1 1 1 1v1l-1 1-1 1h-1l-1 1v-1l-1-1h-1l-1-1h-4l-1-1h-1v-2h-1v-1h-1l-2-1h-5l-1-1h-1v-1h-1v-1h-2l-1-1 1-1h1v-1l1-1v-1l-1-2h-1l1-1v-1l1-1h-1l-1 1v-2h-3l-3 1h-2c0-1 0 0 0 0h-4l-2 1h-1v-1h-5l-1 1h-4l-1 1h-1l-1 1h-1l-2 1h-1v1l-1 1h-4v-1h-2v1h-1l-1-1h-1l-2-1-1-1v1l-1 1v2h-1v2h-1l-1 1h-1l-1 1h-1l-1 1-1 1v1l-1 1v1l-1 3v3l-1 1-1 1-1 1-1 1-1 1h-1l-3 1-1 1h13-12l-1 1v1l-1 1-1 1h-1v1l-1 1v2l-1 1h-1v1l-1 1v2l-1 2-1 1-1 1v3-1l2 2 1 2h-1v2l1 2v2l-1 1v3l-1 1v1l-1 1v2l1 1v5h1v1h3v2l1 1v1l1 1h1a17 17 0 0 0 3 3v1l1 2v1h1v1h1l1 1 1 1 2 1 1 1 1 1h1v1h1l1 1h1l2 1h1l2-1c0-1 0 0 0 0l2-1h9l1 1h1l1-1 2-1h2a4 4 0 0 0 1-1h1l2-1h1l3-1h4l1 1 1 1c1-1 1 1 1 1v1l1 1 1 1h4l1-1 2-1-1 1v1h1l1 1 1-1v1l1 2v3h-1v4l-1 2v3l1 2 1 1 3 4 1 1v1l2 2 1 2v1l1 2 1 2 1 1v2l-1 1 1 2 1 3v4h-1l-1 1-1 1v1l-1 1v4l-1 1v1l-1 1v6l1 1 1 1v1l1 1 1 1v1l1 2v1h1v1l1 1 1 1v2l-1 2 1 1v1l1 1v5l1 2v1l2 3 1 1 1 1 1 1v2l1 2v1l1 1 1 1v3l-1 1 1 1v1l1 1h-1l1 1h1v1h2l2 1v-1h1l1-1h3l1-1h4l1 1h2v-1h2l1-1h3l1-1 1-1 1-1h1v-1h1l1-1v-1l2-1c0-1 0 0 0 0v-1l1-1 1-1 1-1v-1l1-1v-1h1l1-1v-1l1-1 1-1v-5h-1v-1h1v-1h1l1-1h1l1-1h2v-1l1-1v-6l-1-1v-3l-1-1v-2 1l1-1 1-1h1l1-1 1-1 1-1v-1h1l1-1h1l1-1 1-1h2l2-2 1-1v-15l-1-1v-1h-1v-1l-1-1-1-2 1-1v-1c-1 0 0 0 0 0v-3h-1v-1h-1v-1l1-1v-1l1-1v-2l1-1v-1l1-1 1-1 1-1h1v-1h1v-1l1-1v-1h1l1-1v-1l1-1 1-1 1-1h1l1-1 1-1h1l2-2h1v-1l1-1h1l2-3 1-1v-1l1-2 1-1 1-1v-1l1-1c0-1 0 0 0 0l1-2 1-1v-1l1-1 1-1v-3l1-2-1-2h-1l-1 1h-3l-1 1h-5v1h-4l-1 1h-3l-1-1-1-1v-1h-1l-1-1h2v-2h-1l-1-1h-1v-1l-1-1-1-2h-1l-1-1h-1v-1h-1v-1h-1l-1-1v-1l-2-3v-2l-1-1-2-1v-1h-1v-3l-1-1 1-2-1-2v-1l-1-1h-1v-1h-1v-1h-1v-4h-1l-1-1v-1l-1-1-1-3v-2h-1v-1l-1-1v-1l-1-1v-1l-1-1v-1l1 1v1h1v1l1 1v1h2v-2l1-1v-1 3h1l1 1 1 1v1h1v2l1 1 2 2v2l1 1h1v1l1 1 1 1v1l1 1v4l1 1v1h1l1 1 1 1 1 1 1 2v1l1 1v1h1l1 1v1h1v6l1 3v1l1 1v1h5l1-1h1v-1h4v-1h3v-1h1l1-1 1-1h3l1-1h2l1-1v-2h2v-1h2l1-1h3v-1l1-1 1-1h2v-1h1v-2h3v-4h1l1-1v-1h1l1-1 1-1v-2h-1v-1l-1-1-1-1-1-1h-3v-1h-1l-1-1v-5h-1l-1 1v1h-1v1l-1 1h-1l-1 1-2 1h-2l-1 1h-1l-1-1h-1v-2l1-1v-1l-1-1h-1l-1 1v1l-1-1-1-1 1-2h-1v-1h-1l-1-1-1-1v-1l-1-1v-1l-1-1v-3h1l1-1h1l1 1h1c1 0 0 0 0 0l1 1 1 1 1 1v2h1v1h1l1 1-1 1h1v-1l1 1h1l1 1h1l2 1h4v-1l1-1 1 1h1l1 1v1l1 1v1h1l1-1 1 1h3l2 1h1l1 1h2l1-1h9l2-1 1 1v1h1v1h1v2h1l1 1h1v1h1v1h3v1h-1v1h-1v1h1l1 1v1h1l1 1h1l1-1h2v-1c1 0 0 0 0 0v-2h1v1h1v11l1 1v4l1 1 1 1v1l1 1v2l1 2v1l1 2v1l2 1 1 2v4l1 1 1 1v1l1 1h2v-1l1-1 1-1h2v-1h-1v-1l1-1 1-1h1l-1-1v-3l1-1v-1l1-1v-1l-1-2v-4l2-1h1v-1h2l1-1v-1l1-1h1l1-1 1-1h1v-1l1-1 1-1h1l1-2h2v-1h1l1-1v-2l1-1h2l1-1v1h3v-1l1-1 1 1h1l1-1 1-1h1l1 1v3h1v-1h1l-2 1 1 1v1h1v1h1l1 1 1 1v1l-1 1h1l1-1v1l1 3v5h3l1-1h1v-1l1-1 1-1v1l1 1v2l1 1v3l1 1v2c0 1 0 0 0 0l1 1v4l1-1v3l-1 1h1v1l-1 1v1l-1 2v1h1l1 1 1 1v1l1 1 1 1h-1v1h2v3l1 2h-1l1 1 1 2 1 1 1 1 1 1 1 1 1 1 2 1h1l1-1-1-1v-1l-1-1-1-1v-4l1-1-1-1-1-1-1-1v-1h-1v-1h-2v-1h-2l-1-1v-3h-1v-2h-1c0-1 0 0 0 0l-1-1v-3l1-3 1-1v-4h2s1 0 0 0v1l1 1h2l1 1 1 1h1v1l1 1v1l1 1h1v1h1c0-1 0 0 0 0h1l1 1v1l-1 1v1h2v-1h2v-1h1v-2c-1 0 0 0 0 0v-1h1c0-1 0 0 0 0h2l2-1 1-1 1-1v-1l1-1v-2l-1-1v-5l-2-2-2-2-1-1h-1v-1l-1-1v-1l-1-1-1-1v-3l1-1h1v-2h1l1-1h1v-1h2l1-1v1h3v2l1 1h1l-1-1 1-1v-1h5l1-1h1v-1h2l1-1h2l2-1h2l1-1 1-1 1-1h1l1-1v-1h1l1-1 2-1v-2l1-1v-1l1-1 1-1v-1l1-1 1-1h1v-3l1-2h-1l-1-1h-1c-1 0 0 0 0 0l1-1h1l1-1-1-1v-1l1-1h-1l-1-1-1-1v-1l-1-1v-1l-1-2-1-1-1-1h-1l1-1 1-1v-1l1-1 1-1h1l2-1h1l1-1v-1h-3l-1-1h-2l-1 1-2 1v-3h-1l-1-1h-1l-1-1v-1l1-1h3l1-1v-1l1-1h1l1-1 1-1h3v1l-1 1v1l-1 1h1v1l-1 1h-1 2l2-1 2-1 1-1h3l2 1v2l-1 1v2l1 1h1l1-1 1 1 1 1v2h-2l1 1 1 2-1 2-1 1v2h1l1-1v1l1-1h2l1-1h1l1-1h3l-1-1-1-1 1-1-1-3v-1l-1-1-1-1v-2h-1l-1-1-1-1 1-1v-2h1l2-1 1-1 2-3v-1l2-1a6 6 0 0 1 1-1l1-1 1-1h1l2 1 1 1 2-1h1l1-2 2-1 1-2 2-2 1-1 3-3v-1l1-1 1-2 1-1h1l1-2 1-1 1-2v-6l1-1a86 86 0 0 0 1-5v-4l-1-1-2-1-1-2h-2l-1 1-1 1-1 1h-1v-3h1-2v2h-2l1-2v-1h-4v-1l1-1 1-1 2-1 1-1 2-1v-1h1v-1l1-1 2-1 1-1 1-1h1v-1l1-1 1-1h1l1-1 1-2h2l2-1 2 1 2-1h1l1 1h1l1-1 1 1h1l1-1 1 1h1l2-1 1-1h1l1 1h1l1-1 1 1 2 1h-1l-2 1h2v1l1-1h2s0 1 0 0l1-1h1l1 1v-1h4v-1h-3v-2l1-1 1-1 2-1 1-1 2-2 1-1 1-1c1 0 0 1 0 0h2l1 1v-1h2l1 1 1-1 1 1-1 1-1 1 1 1h1l-1 1h1l1-1h1l1-1h1l1-1v-1h1l1 1 1-1h-1v-2l1-1 1-1h1l1-1 1 1h1-1v1h-1l-1 1v2l-1 1v2h-1l-1 1h-1l-1 1h-1v1h-1l-1 1v1h-1l-1 1-1 1-2 2-1 1-1 1h-1v1h-1l-2 1h-1l1 1-1 1v1l-1 1h-1v1l-1 2v7l1 2v4l1 1v4l1 1 1-1 1-1 1-1 1-1 1-2v-1l1-1h3v-4l2-1h1l1-1 2-1-1-1v-1l1-1v-2l1-1v1l1 1 1-1v-2h-1v-2l1-1v-1l-2-1v1l-1-1-1-1 1-1 1-1 2-2 1-3h2l1 1 1-1 2-1 1-1v3l1-1 1-1 1-1 2-1h4l2 3h1v-2l2-1 1-1h1l1-1 2-2h2l2-1 1-1h2l2-1 2-1v-1l2 1 3 1 1-1v-1l1-1-1-1-1-1h-1l1-1-1-2v-1h-3v-1l-1-1-1 1-1-1h2l-1-1 2 1 2 1h2l2-1 2-1 1-2-1-1v-1l2-2 1 1v3h6l1 1 1 1 1 1h1l1 1 1 1h2v-1l1 2 1-1s-1 0 0 0h1l-1-1h2l-1-1 1-1v-1l-1-1h5l1-1c0-1 0 0 0 0v-1h2l-1-1h1Zm-376 97-1 1h-1l-2-1v3h1l1 1h-1v1s0 1 0 0l2 1v7h-1l-3 1-2-1h-3l-1-1-2-1h-2v-5l1-1v-1l1-1v-1l-1-1v-1l-1-2v-1l-2-1v-1l-1-1-1-2 1-1-1-1-1-1-1-1v-1l1-1 1-1v-1h1l2-1s1 1 0 0h1l1-2h2l1-1 2-1h1l1 1h3l1 1v1l-1 2v1l1 1c1 0 0 0 0 0l-1-1h-4l-1 1v1l1 1-3-1-1 2h2v1h1v2l1 1h2l1 1v4l1 1v-2l1-1h2l-1 1 2 1 1 1v1h-1Zm153-50-1 2v2l-1 1-1 1v1h-1l-1 1-2 1-1 1h-1l-2 2h-1l-1 1h-3v-1h3l1-1 1-1 1-1 1-1 1-1 1 1 2-2h-1l1-1 1-1v-2l1-1 1-1v-2l2-1v3Z"
    />
    <path
        fill="#00305F"
        d="M758 293v-6l-1-1-1-1h-1v-1h-1v-2h-1v-1h-2l1-1h-1v-1h1l-1-1v-1l-1 1v-1l-1-1h-1v-1l-1-1-1-1-1 1v-1h-1l-1-1h-1v-1h-1v-1l-1-1h-1l-1-1h-1v-2h-1v-1h-1v-1 1l-1-1h-4l-1-1h-1v2l1 1 1 1 1 1 1 1s-1 0 0 0l2 1 1 1v1l2 1 1 1v2l1 2 2 1v1l1 1 1 1 1 2 1 2 1 1v1l1 1c1 0 1-2 1 0l1 2 3 2 1 1 1 1v-1h1l1 1h1l1-2Zm13-19h-3s0-1 0 0h-1v1l-1 2v1l1 1 1 3v1h1v2l1 1v1h1l1-1v1h1v-1l1 1v1l2-1v1h1l1-1 1 1h2l1 1v1h2v-1h1v-1h1v-1l1-1v-3h1l1-2 1-1v-3l1-1h3l-1-1h-1v-1l-1-1v-1l-1-1v-1h-1v-2l2 1-1-1 1-1h1v-2s0-1 0 0h2l1-1-1-1h-2l-1-1-1-1v-1h-1l-1-1c0 1 0 0 0 0l-1 1-1 1v1l-1 1h-1v3l-1 1-1 1-1-1v-1h-1v1l-1 1-1 1h-1v1l-1 1h-4v3h-1Zm55-93-1 1-1 1h-1v1h1v1h1v-1l1 1-1 1v3h1v-1 2l1-1h1v-1l1-1v-2l1-1v-1h-1v-1h-2v-1h-1Zm14-5h-1c0-1 0 0 0 0h-1v-1l-1 1c0-1 0 0 0 0h-5v1h-1l-1 1-1 1-1 1h-1c-1 0 0 0 0 0v1h4v-1s-1 0 0 0h2v-1l1 1v-1h5v2l1 1h1v-1h1v-1h1v-2l1 1h3v-1h1l1 1v-1c1 0 1 0 0 0l1-1h1v1h2v-1l1-1v-1c1 0 0 0 0 0v-3l1-1v-4h1v-2h1v-1l1-1v-1h-1c1 0 0 0 0 0v-1l-1-1v-1c-1 0-1 0 0 0v-1h-1v-1 1h-1c0 1 0 1 0 0h-1c-1 0 0 0 0 0v1h-1v6h-1v2l-1 1h-1v1l-1 1v1h-2c-1 0 0 0 0 0h-1v1h-1l-1-1v1l-1 1v1h-1v2h-1Z"
    />
    <path
        fill="#00305F"
        d="m831 182-1 1h1v1l1 1 1-1v-1h1l1-1v1h2v-3h-2l-1 1h-2l-1 1Zm21-29-1 1 1 1c0-1 0 0 0 0v2h1v-1 1-1h2v-1h-1l-1-1 1-1v1h1l1-1v1h3v1h2l1-1v-1l1-1h3l1-1v-1c1-1 0 0 0 0l-1-1 1-1v-1l-1 1v1h-1l-1-1h-2l-1-1h-1v-1l-1-1-1-1h-1l-1 1h1v4h-1v2h-3v1l-1 1Zm-71 149v-1l1-1h-4l-1-1v-1h3s0-1 0 0h-2v-1l-1 1h-2l-1-1h-2s0-1 0 0l-1-1v1l-1 1h-1l-1-1s1 0 0 0h-3l-1-1h-1l-1-1h-1l-1 1-1-1h-1l-1 2s-1 0 0 0l1 1h1v1h3l1 1h5l1 1h4l1 1h1s0-1 0 0h2l1-1 2 1h1Zm14-21v1s0-1 0 0v2l-1 1v1l-1 1 1 1h1v2l1 1-1 1v2l1 1 1-1v-2l1-1-1-2 1-1 1-2 1 1-1 1s-1 0 0 0l1 1 1 1v2l2-1h1l1-1-2-2v-1l-1-1v-1l-1-1 1-1h1l1-1h1v-1h1l-1-1-1 1h-4l-2 1v-1l-1-1v-2l1-1h7l1 1h1l2-1h1l1-1v-3l-1 1-1 1-1 1h-5l-1-1h-3l-1 1-1 1-1 1v1l-1 2Zm-10 21-2-1h-1v1l1 1h1l1-1Zm2 0h-2l1 1h1v-1Zm1 2h1l1-1c1 0 0 0 0 0l-1-1h-1v2Zm3-2 1 1h2v-1h-2l-2-1 1 1Zm10 1h1v-1h-2l-1-1h-2v1h-1l1 1h4Zm6-1h3l1-1h-2l-1 1h-2s-1 0 0 0h1Zm-3-1v1l-1 1h1v-1h1v-1h-1Zm6 3Zm-4 4 1-1h2l1-1 1-1-1-1h-2v1l-1 1h-1v2Zm5-4 3-1h1l1-1h1l-1-1-2 1h-3l-1 1 1 1s0 1 0 0Zm-16 2h1l1 1h1l1-1h-1v-1l-1-1h-2s0 1 0 0l-1 1v1h1Zm17-23-1 1h-1l-1-1v1c-1 0 0 0 0 0h4v1-1h1l-2-1Z"
    />
    <path
        fill="#00305F"
        d="M807 283v-1l-1-1-1 1c-1 0 0 0 0 0v1h2Zm-13-32c-1 0 0 0 0 0Zm1-4v1l-1 1-1 1-1 1v1l-1 1h-1l-1 1v1h1l1-1 1-1 1-1v-1h1l1-1s0 1 0 0v-3Zm1-13v1l1 1v2h2s0-1 0 0h1l-1 1h-1l1 1h3v-1l-1-1v-1s0 1 0 0v-3h1l1-1v-5l-1-1-1 1v-1h-1l-1-1v1l-1 1v5l-1 1-1-1v1Zm4 8-1-1h-1l-1-1v1l1 1 1 1v2h1l1-1v-2h-1Z"
    />
    <path
        fill="#00305F"
        d="M803 239h-1v1s-1 0 0 0l1 1h1v1s0 1 0 0l-1-1 1-1c0 1 0 1 0 0l-1-1Z"
    />
    <path
        fill="#00305F"
        d="M805 239h-2l1 1h1v1s-1 0 0 0l1 1v1h1v1h1v-2h-1v-2l-1-1-1 1v-1Zm3 1v1h1v-1h-1Zm0 1s1 0 0 0Zm-6 4 1-1v-1h-1v3s0-1 0 0v4-1h2s-1 0 0 0l1-1v-2h-1c0 1 0 0 0 0h-2v-1Zm4 7 1-1v-1h1v-2l-1-1v2l-1 1c0 1 0 0 0 0v-2h-1v1h-1 1l-1 1v1l-1 1h1l1 1v-2h1v1c0 1 0 0 0 0Z"
    />
    <path
        fill="#00305F"
        d="M807 252h2v-2h-1l-1 1v1Zm5-7v-1l-1-1h-1v1h-2 1v2h1-1v3h1v2h1v-3h1v-1s0 1 0 0v-2Zm-10-4v1-1Zm3 5h1v-1h1v1l1-1-1-1h-1v-1l-1-1v2l1 1-1 1Zm6 17s0 1 0 0Zm1-11v1l-1 1h-1v1h-1s0-1 0 0h-1v1h-1v-1h-2v1h-2l-1 1v2s0-1 0 0v2h1v-1h-1l1-1v-1l1-1v1h1l1-1v1-1h2v4l1 1h1l1 1h1v-1s1 0 0 0v-3c0 1 0 0 0 0h1s0-1 0 0v1l1 1v-2h1v-2h-1v-4h-1v-1h-1Zm0-2c0-1 0 0 0 0v1l1-1h-1Zm1 1v1h1v-1h-1Zm-14 11h1v1-1h-1Zm3 0v1-1c-1 0-1 0 0 0Zm14 4h-1v2l1-1v-1Zm-19-51 1 1 1 1 1-2s-1 1 0 0l1-2v-2c1-1 1 1 1-1v-2l-1-1-1 1h-1v1l-1 1v1l-1 1v3Zm-108 39-1-1-2-2v2l-1 1 1 1v6c3 1 2 2 3 1l2-2v-3l-2-3Zm69 30v-1h-2v1l1 1 1 1h1v1-1l-1-1v-1Zm6 3v-1h-1v1h1Zm49 14 2-1h1l-2-1-1 2Zm2-119-1 1h1l1-1h-1Zm33 117ZM612 145s1 0 0 0ZM145 77Z"
    />
</svg>
