<svg xmlns="http://www.w3.org/2000/svg" width="36" height="43" fill="none"><path fill="#fff" d="M16.467 12.19v4.74a9.439 9.439 0 0 1-2.213 1.116c-.79.27-1.683.405-2.677.405-1.087 0-2.065-.165-2.934-.494a6.317 6.317 0 0 1-2.223-1.422 6.241 6.241 0 0 1-1.393-2.241c-.323-.876-.484-1.857-.484-2.943s.158-2.063.474-2.932A6.313 6.313 0 0 1 6.4 6.178a5.997 5.997 0 0 1 2.174-1.422c.85-.336 1.804-.504 2.864-.504a9.6 9.6 0 0 1 1.433.099c.441.066.85.168 1.225.306.375.132.728.3 1.057.504.336.204.659.44.968.71l-.138.208c-.053.079-.129.105-.227.079-.066-.02-.188-.105-.366-.257-.171-.151-.425-.313-.76-.484-.337-.177-.768-.339-1.295-.484-.52-.144-1.156-.217-1.906-.217-.969 0-1.844.152-2.628.454a5.522 5.522 0 0 0-1.996 1.314c-.546.572-.968 1.27-1.264 2.093-.297.816-.445 1.74-.445 2.774 0 1.027.148 1.952.445 2.775a5.889 5.889 0 0 0 1.274 2.103 5.675 5.675 0 0 0 2.035 1.323c.804.303 1.71.454 2.717.454.454 0 .876-.03 1.264-.088.396-.06.768-.145 1.117-.257.349-.112.688-.247 1.017-.405.33-.165.662-.349.998-.553v-4.078h-2.934a.162.162 0 0 1-.119-.05.151.151 0 0 1-.049-.108v-.276h3.606Zm13.757 4.039c.026 0 .063.017.109.05l.207.217a7.81 7.81 0 0 1-.938.8 5.975 5.975 0 0 1-1.107.612 6.485 6.485 0 0 1-1.324.394 7.715 7.715 0 0 1-1.57.149c-.942 0-1.812-.165-2.608-.494a5.954 5.954 0 0 1-2.045-1.422c-.573-.619-1.021-1.366-1.344-2.241-.323-.876-.484-1.857-.484-2.943 0-1.06.161-2.024.484-2.893.323-.875.777-1.622 1.363-2.24a6.156 6.156 0 0 1 2.114-1.452c.824-.343 1.73-.514 2.717-.514.929 0 1.752.142 2.47.425A6.994 6.994 0 0 1 30.273 5.9l-.148.217c-.026.046-.079.07-.158.07-.04 0-.109-.037-.207-.11a6.164 6.164 0 0 0-.376-.266 5.348 5.348 0 0 0-.563-.355 4.209 4.209 0 0 0-.77-.356 6.167 6.167 0 0 0-1.008-.276 6.59 6.59 0 0 0-1.245-.109c-.896 0-1.719.155-2.47.464-.75.31-1.396.75-1.936 1.323s-.961 1.27-1.264 2.094c-.297.816-.445 1.734-.445 2.754 0 1.04.148 1.972.445 2.795.303.816.72 1.51 1.254 2.083.534.566 1.163 1 1.887 1.303a6.061 6.061 0 0 0 2.361.455c.534 0 1.011-.037 1.433-.11a5.393 5.393 0 0 0 1.155-.325c.356-.145.682-.322.979-.533.302-.21.602-.451.899-.72.046-.047.088-.07.128-.07ZM16.98 28.993c0 1.086-.159 2.06-.475 2.923-.316.856-.76 1.583-1.333 2.182a5.787 5.787 0 0 1-2.055 1.363c-.797.315-1.676.473-2.638.473H5.472V22.052h5.008c.962 0 1.841.158 2.638.474a5.724 5.724 0 0 1 2.055 1.372c.573.593 1.017 1.32 1.333 2.182.317.856.475 1.827.475 2.913Zm-.573 0c0-1.033-.145-1.952-.435-2.755-.283-.81-.688-1.49-1.215-2.043a5.141 5.141 0 0 0-1.877-1.264c-.725-.29-1.525-.435-2.4-.435H6.014V35.49h4.465c.876 0 1.676-.145 2.4-.434a5.142 5.142 0 0 0 1.878-1.264c.527-.553.932-1.231 1.215-2.034.29-.81.435-1.731.435-2.765Zm11.504 6.468v.473h-7.43V22.052h.544V35.46h6.886Z"/><path stroke="#fff" stroke-miterlimit="10" stroke-width="1.717" d="M1.183 41.437V.858H34.34v40.58H1.182Z"/><path fill="#fff" stroke="#fff" stroke-width="3.433" d="M2.3 40.32v-.33h30.79v.33H2.3Z"/></svg>