<svg width="98" height="121" viewBox="0 0 98 121" fill="none" xmlns="http://www.w3.org/2000/svg">
<g clip-path="url(#clip0)">
<path d="M45.6882 34.286V47.987C43.7091 49.3381 41.5779 50.4132 39.2944 51.2124C37.0109 51.9926 34.4324 52.3827 31.559 52.3827C28.4192 52.3827 25.5934 51.907 23.0816 50.9555C20.5697 49.9851 18.4289 48.615 16.6592 46.8452C14.9085 45.0565 13.567 42.8967 12.6346 40.3658C11.7021 37.835 11.2359 34.9996 11.2359 31.8598C11.2359 28.72 11.6926 25.8942 12.606 23.3823C13.5384 20.8515 14.8705 18.6917 16.6021 16.9029C18.3338 15.1142 20.427 13.7441 22.8817 12.7926C25.3365 11.8221 28.0957 11.3369 31.1594 11.3369C32.6627 11.3369 34.0423 11.432 35.2983 11.6223C36.5732 11.8126 37.753 12.1076 38.8377 12.5072C39.9223 12.8878 40.9404 13.373 41.8918 13.9629C42.8623 14.5528 43.7948 15.2379 44.6891 16.0181L44.2895 16.6175C44.1373 16.8458 43.9184 16.9219 43.633 16.8458C43.4427 16.7887 43.0907 16.5414 42.5769 16.1037C42.0821 15.666 41.3495 15.1998 40.379 14.7051C39.4085 14.1913 38.1621 13.7251 36.6398 13.3064C35.1365 12.8878 33.3002 12.6784 31.1309 12.6784C28.3336 12.6784 25.8027 13.1161 23.5383 13.9915C21.2928 14.8668 19.3709 16.1322 17.7724 17.7878C16.193 19.4433 14.9751 21.4604 14.1188 23.839C13.2625 26.1986 12.8344 28.8722 12.8344 31.8598C12.8344 34.8284 13.2625 37.5019 14.1188 39.8806C14.9751 42.2592 16.2025 44.2858 17.801 45.9604C19.4184 47.6159 21.3784 48.8909 23.681 49.7852C26.0025 50.6606 28.619 51.0983 31.5305 51.0983C32.8435 51.0983 34.0614 51.0126 35.1841 50.8414C36.3258 50.6701 37.401 50.4227 38.4095 50.0992C39.4181 49.7757 40.3981 49.3856 41.3495 48.9289C42.301 48.4532 43.2619 47.9204 44.2324 47.3305V35.5419H35.755C35.6218 35.5419 35.5076 35.4944 35.4124 35.3992C35.3173 35.3041 35.2697 35.1994 35.2697 35.0852V34.286H45.6882ZM85.437 45.9604C85.5131 45.9604 85.6178 46.008 85.751 46.1031L86.3504 46.7311C85.5131 47.5684 84.6093 48.339 83.6388 49.0431C82.6683 49.7282 81.6027 50.3181 80.4419 50.8128C79.2811 51.3076 78.0062 51.6882 76.617 51.9546C75.2469 52.24 73.7341 52.3827 72.0786 52.3827C69.3574 52.3827 66.8456 51.907 64.543 50.9555C62.2596 49.9851 60.29 48.615 58.6345 46.8452C56.979 45.0565 55.685 42.8967 54.7526 40.3658C53.8201 37.835 53.3539 34.9996 53.3539 31.8598C53.3539 28.7961 53.8201 26.0084 54.7526 23.4965C55.685 20.9656 56.998 18.8058 58.6916 17.0171C60.4042 15.2093 62.4403 13.8107 64.7999 12.8212C67.1786 11.8317 69.7951 11.3369 72.6495 11.3369C75.3326 11.3369 77.7112 11.746 79.7854 12.5643C81.8596 13.3825 83.791 14.5623 85.5797 16.1037L85.1516 16.7317C85.0755 16.8649 84.9232 16.9315 84.6949 16.9315C84.5807 16.9315 84.3809 16.8268 84.0955 16.6175C83.8291 16.4082 83.4675 16.1513 83.0108 15.8468C82.5731 15.5233 82.0308 15.1808 81.3838 14.8192C80.7559 14.4386 80.0137 14.0961 79.1574 13.7917C78.3011 13.4682 77.3306 13.2018 76.246 12.9924C75.1613 12.7831 73.9625 12.6784 72.6495 12.6784C70.0615 12.6784 67.6829 13.1256 65.5135 14.02C63.3442 14.9144 61.4794 16.1893 59.919 17.8449C58.3586 19.5004 57.1407 21.5175 56.2654 23.8961C55.4091 26.2557 54.9809 28.9103 54.9809 31.8598C54.9809 34.8664 55.4091 37.559 56.2654 39.9377C57.1407 42.2973 58.3491 44.3049 59.8904 45.9604C61.4318 47.5969 63.2491 48.8528 65.3423 49.7282C67.4355 50.6035 69.7095 51.0412 72.1642 51.0412C73.7056 51.0412 75.0852 50.9365 76.303 50.7272C77.5209 50.5179 78.6341 50.2039 79.6427 49.7852C80.6702 49.3666 81.6122 48.8528 82.4685 48.2439C83.3438 47.635 84.2097 46.9404 85.066 46.1602C85.1992 46.027 85.3229 45.9604 85.437 45.9604ZM47.1724 82.8598C47.1724 85.9996 46.7157 88.8159 45.8023 91.3087C44.8889 93.7825 43.6045 95.8852 41.9489 97.6169C40.2934 99.3295 38.3144 100.643 36.0118 101.556C33.7093 102.469 31.1689 102.926 28.3907 102.926H13.919V62.7936H28.3907C31.1689 62.7936 33.7093 63.2503 36.0118 64.1637C38.3144 65.0771 40.2934 66.3996 41.9489 68.1313C43.6045 69.8439 44.8889 71.9466 45.8023 74.4394C46.7157 76.9132 47.1724 79.72 47.1724 82.8598ZM45.5169 82.8598C45.5169 79.8722 45.0983 77.2177 44.261 74.8961C43.4427 72.5555 42.2724 70.586 40.7501 68.9876C39.2468 67.3891 37.439 66.1713 35.3268 65.334C33.2336 64.4967 30.9216 64.0781 28.3907 64.0781H15.4889V101.642H28.3907C30.9216 101.642 33.2336 101.223 35.3268 100.386C37.439 99.5484 39.2468 98.3305 40.7501 96.732C42.2724 95.1336 43.4427 93.1736 44.261 90.852C45.0983 88.5115 45.5169 85.8474 45.5169 82.8598ZM78.7569 101.556V102.926H57.2921V62.7936H58.862V101.556H78.7569Z" fill="white"/>
<path d="M1.18932 119.17V1.18932H96.8107V119.17H1.18932Z" stroke="white" stroke-width="2.37864" stroke-miterlimit="10"/>
<path d="M4.7573 115.602V114.651H93.7185V115.602H4.7573Z" fill="white" stroke="white" stroke-width="4.75728"/>
</g>
<defs>
<clipPath id="clip0">
<rect width="98" height="120.359" fill="white"/>
</clipPath>
</defs>
</svg>
