<svg xmlns="http://www.w3.org/2000/svg" xml:space="preserve" fill-rule="evenodd" stroke-miterlimit="10" clip-rule="evenodd" viewBox="0 0 80 103"><path fill="none" d="M0 0h79.011v102.7H0z"/><g transform="translate(-.00008 -.00008) scale(1.68108)"><clipPath id="a"><path d="M0 0h47v57H0z"/></clipPath><g clip-path="url(#a)"><path fill="#fff" fill-rule="nonzero" d="M21.755 16.429v6.387c-.923.63-1.917 1.131-2.982 1.504-1.065.363-2.268.545-3.608.545-1.464 0-2.782-.221-3.954-.665-1.172-.452-2.17-1.091-2.996-1.916-.816-.834-1.442-1.841-1.877-3.021-.435-1.18-.652-2.501-.652-3.965s.213-2.781.639-3.952c.435-1.18 1.056-2.187 1.864-3.021.808-.834 1.784-1.472 2.929-1.916 1.145-.452 2.432-.678 3.861-.678.701 0 1.344.044 1.93.133.595.088 1.145.226 1.651.412.498.174.976.401 1.425.679.452.275.887.594 1.304.958l-.186.279c-.071.107-.173.142-.306.107-.089-.027-.253-.142-.493-.346-.231-.204-.572-.422-1.025-.652-.453-.24-1.034-.457-1.744-.652-.701-.195-1.558-.293-2.569-.293-1.305 0-2.486.204-3.542.612-1.047.408-1.944.998-2.689 1.77-.737.772-1.305 1.712-1.704 2.821-.4 1.1-.599 2.346-.599 3.739 0 1.384.199 2.63.599 3.739.399 1.109.972 2.054 1.717 2.834.755.772 1.669 1.366 2.743 1.783 1.083.408 2.303.613 3.661.613.612 0 1.18-.04 1.704-.12.533-.08 1.034-.195 1.504-.346.469-.151.928-.333 1.372-.546.444-.222.892-.47 1.344-.745v-5.496h-3.954c-.06.001-.118-.023-.159-.066-.045-.044-.067-.093-.067-.147v-.372h4.859Zm18.54 5.442c.036 0 .084.023.147.067l.279.293c-.392.392-.815.752-1.265 1.077-.452.32-.949.595-1.491.825-.541.231-1.136.409-1.784.533-.639.133-1.344.199-2.117.199-1.269 0-2.44-.221-3.514-.665-1.065-.452-1.984-1.091-2.756-1.916-.772-.834-1.376-1.841-1.811-3.021-.435-1.18-.652-2.501-.652-3.965 0-1.428.217-2.728.652-3.899.435-1.18 1.047-2.187 1.837-3.02.799-.843 1.749-1.495 2.849-1.956 1.11-.462 2.33-.692 3.662-.692 1.251 0 2.361.19 3.328.572.967.381 1.868.931 2.703 1.65l-.2.293c-.036.062-.107.093-.213.093-.053 0-.146-.049-.28-.147-.124-.097-.293-.217-.506-.359-.204-.151-.457-.311-.758-.479-.293-.178-.639-.337-1.039-.479-.399-.151-.852-.275-1.358-.373-.506-.097-1.065-.146-1.677-.146-1.207 0-2.317.208-3.329.625-1.012.417-1.881 1.012-2.609 1.783-.728.772-1.296 1.713-1.704 2.821-.4 1.1-.599 2.338-.599 3.713 0 1.401.199 2.657.599 3.766.408 1.1.972 2.036 1.691 2.807.719.763 1.566 1.349 2.542 1.757.977.408 2.037.612 3.182.612.719 0 1.363-.049 1.931-.146.568-.098 1.087-.244 1.557-.44.48-.195.919-.434 1.319-.718.408-.284.812-.608 1.211-.972.062-.062.12-.093.173-.093ZM22.448 39.073c0 1.464-.213 2.777-.639 3.939-.426 1.153-1.025 2.133-1.798 2.94-.772.799-1.695 1.411-2.769 1.837-1.074.425-2.259.638-3.555.638h-6.75V29.719h6.75c1.296 0 2.481.213 3.555.638 1.074.426 1.997 1.043 2.769 1.85.773.798 1.372 1.778 1.798 2.941.426 1.153.639 2.461.639 3.925Zm-.772 0c0-1.393-.196-2.63-.586-3.712-.382-1.092-.928-2.01-1.638-2.755-.701-.745-1.544-1.313-2.529-1.703-.977-.39-2.055-.586-3.236-.586H7.67v17.512h6.017c1.181 0 2.259-.195 3.236-.586.985-.39 1.828-.958 2.529-1.703.71-.745 1.256-1.659 1.638-2.741.39-1.091.585-2.333.585-3.726Zm15.503 8.716v.638H27.168V29.719h.732v18.07h9.279Z"/><path fill="none" stroke="#fff" stroke-width="2.31" d="M1.157 1.157h44.687v54.687H1.157z"/><path fill="#fff" fill-rule="nonzero" stroke="#fff" stroke-miterlimit="4" stroke-width="4.63" d="M2.664 53.893h41.494v.443H2.664z"/></g></g></svg>