<svg xmlns="http://www.w3.org/2000/svg" fill="none" viewBox="0 0 278 90"><g clip-path="url(#a)"><path fill="#577291" d="m1.3 16-.6 1H.1L0 12.4h.4c.8 2 1.8 4 4 4 1.6 0 2.3-1 2.3-2.4 0-1.2-.5-2-1.7-2.5l-2.6-1.2C1 9.8.4 8.8.4 7.1c0-2 1.5-3.4 3.5-3.4 1 0 2 .3 2.7.9l.5-.9h.6L7.8 8h-.4C6.7 6 6 4.2 3.6 4.2a2 2 0 0 0-1.8 2c0 1.1.5 1.8 1.6 2.4.8.5 1.7.7 2.5 1.1 1.4.7 2.4 1.5 2.4 3.4 0 2.3-1.7 4-4 4a5.3 5.3 0 0 1-3-1Zm7.5-3.6c0-2.3 1.4-4.5 3.8-4.5 1.7 0 2.6 1 2.6 2.2 0 .7-.3 1-1 1-.3 0-1-.1-1-.9 0-.7.3-.8.3-1.1-.1-.6-.4-.7-1-.7-1 0-2 1-2 3.8 0 2.3.9 3.9 2.4 3.9 1.1 0 1.8-.6 2.4-1.7l.3.3c-.6 1.2-1.8 2.2-3.1 2.2-2.5 0-3.7-1.9-3.7-4.5Zm7.9-7.8c0-.6.5-1.2 1-1.2.8 0 1.2.5 1.2 1.2 0 .6-.4 1.2-1.1 1.2-.6 0-1.1-.5-1.1-1.2Zm-.8 11.7.7-.1c.3-.1.5-.5.5-.9V10c0-.4-.2-.7-.5-1l-1-.3v-.3l3-.3.2.2v7c0 .4.1.7.4.9l.8.2v.4h-4.1v-.4Zm9-5c0-1.4-.2-2.9-1.4-2.9-1 0-1.7 1.2-1.8 3l3.3-.1Zm-5 1c0-2.2 1.3-4.4 3.6-4.4 2.4 0 3.3 1.7 3.3 3.7v.1h-5v.3c0 2.4.6 4.1 2.4 4.1 1.3 0 1.7-.5 2.3-1.7l.4.2C26.3 16 25 17 23.7 17c-2.6 0-3.8-2-3.8-4.5Zm7 4 .8-.2c.3-.1.5-.4.5-.8V9.9c0-.4-.2-.8-.5-1a2 2 0 0 0-.8-.3v-.3l2.8-.2h.2v1.3c.6-.7 1.3-1.5 2.7-1.5 1.5 0 2.2 1.2 2.2 3v4.3c0 .4.2.7.5.8l.7.2v.4h-4v-.4l.7-.1c.3-.1.4-.4.4-.8v-4.5c0-1.3-.6-2-1.3-2-1.1 0-1.8.8-2 1.3v5c0 .5.2.7.4.9l.8.2v.4h-4v-.4Zm8.8-4c0-2.2 1.5-4.4 3.8-4.4 1.7 0 2.6 1 2.6 2.2 0 .6-.3 1-1 1-.3 0-1-.2-1-.9 0-.8.3-.8.3-1.1-.1-.6-.4-.7-1-.7-1 0-1.9 1-1.9 3.8 0 2.3.8 3.8 2.3 3.8 1.1 0 1.8-.6 2.3-1.6l.4.2c-.6 1.2-1.8 2.3-3.1 2.3-2.5 0-3.7-2-3.7-4.5Zm11.9-1c0-1.4-.3-2.9-1.4-2.9-1 0-1.8 1.1-1.8 3l3.2-.1Zm-5 1c0-2.2 1.3-4.4 3.6-4.4s3.2 1.7 3.2 3.6v.2h-5v.2c0 2.4.7 4.1 2.4 4.1 1.3 0 1.7-.5 2.3-1.6l.4.2c-.6 1.3-1.7 2.2-3.1 2.2-2.7 0-3.8-2-3.8-4.5Z"/></g><g clip-path="url(#b)"><path fill="#577291" d="M73.5 6.5v2h.1a3 3 0 0 1 2.8-2c1.9 0 2.5 1 2.5 2.7v3.5c0 1 0 2.2.3 3h-3c.2-.8.2-1.7.2-3V9.6c0-.9-.3-1.2-1.2-1.2-.7 0-1.2.2-1.6.5v4c0 1.2 0 2.1.3 3h-3c.3-.9.3-2 .3-3V9.4c0-1-.3-1.7-.7-2.1l3-.9ZM84.4 14v-3.3c-.2.3-.4.5-1 .7-1 .5-1.3 1-1.3 1.8s.5 1.3 1.2 1.3.9-.2 1-.5Zm-.8-7.5c2.3 0 3.2 1 3.2 2.8v4c0 .7.3 1 .8 1l.5-.2-.1.6c-.3.8-.8 1.2-1.8 1.2-1.1 0-1.7-.8-1.7-1.6-.4 1.1-1.2 1.6-2.4 1.6-1.4 0-2.3-.9-2.3-2.2 0-1.5 1.3-2.1 2.6-2.6s2-.9 2-1.8V9c0-1-.3-1.5-1.3-1.5-.6 0-.8.2-.9.8-.2.9-.5 1.2-1.1 1.2-.5 0-1-.3-1-1 0-1.2 1.7-2 3.5-2Zm9.8 8.2c-.3.7-1.1 1.2-2.2 1.2-1.8 0-2.5-1-2.5-2.6V8h-1v-.1L91 4.6v2.1h2.3L93.1 8h-2v4.9c0 1 .4 1.3 1.2 1.3.7 0 1 0 1.3-.2l-.2.7Zm3.3-8v6.2c0 1 .4 1.4 1.3 1.4.7 0 1.3-.2 1.6-.7V9.4c0-1 0-1.7-.4-2.5l2.8-.2V13c0 1.4.1 2 .4 2.7h-2.7V14c-.5 1.2-1.2 2-2.8 2-2 0-2.6-1.2-2.6-3V9.5c0-1-.1-1.7-.4-2.5l2.8-.2Zm9.1 2.1c.4-1.7 1.2-2.3 2.2-2.3 1 0 1.4.5 1.4 1.2S109 9 108.3 9c-.4 0-.7-.2-.9-.4-.2-.2-.3-.4-.5-.4-.5 0-1 .8-1 2.2v2.3c0 1 0 2.2.3 3h-3c.2-.8.3-2 .3-3V9.5c0-1-.3-1.7-.7-2.1l3-.9v2.3Zm5.7 1.3 3-.3c0-1.4-.2-2.2-1.2-2.2s-1.6.8-1.8 2.5Zm1.8 5.8c-2.3 0-4.2-1.5-4.2-4.5s1.8-5 4.3-5c2.3 0 3.4 1.5 3.4 4.3h-5.3v.3c0 2.2 1.1 3.1 2.7 3.1 1.5 0 2-.5 2.5-1v.2a3.4 3.4 0 0 1-3.4 2.6Z"/></g><g clip-path="url(#c)"><path fill="#577291" fill-rule="evenodd" d="m165.8 11.8.7-1.5c.9.6 1.9.9 3 .9s1.6-.4 1.6-1-.9-.8-2-1c-1.4-.4-3.1-.8-3.1-2.7 0-1.5 1.2-2.8 3.7-2.8a6 6 0 0 1 3 .8l-.6 1.6a5 5 0 0 0-2.4-.7c-1.2 0-1.7.4-1.7 1s.9.8 2 1c1.4.4 3.1.8 3.1 2.7 0 1.5-1.2 2.7-3.7 2.7-1.4 0-2.8-.4-3.6-1Zm-20.3-4.7c0 2-1.5 3.2-3.9 3.2H140v2.4h-2V3.9h3.7c2.4 0 3.9 1.2 3.9 3.2Zm-2.1 0c0-1-.6-1.6-1.9-1.6H140v3h1.6c1.3 0 1.9-.5 1.9-1.4Zm11.4-3.2v8.8H153l-4.4-5.4v5.4h-2V3.9h1.7l4.3 5.3V4h2Zm3.8 6.9h4l.8 1.9h2.2l-4-8.8h-2l-4 8.8h2.2l.8-1.9Zm2-5 1.4 3.4h-2.8l1.4-3.3Zm-22.8 9h35.3v2h-35.3v-2Z" clip-rule="evenodd"/></g><g clip-path="url(#d)"><path fill="#577291" fill-rule="evenodd" d="M233.1 13.2a5 5 0 0 1-3.6.3 3 3 0 0 1-1-.7 3 3 0 0 1-.8-1.1l-.2-1.5c0-.5 0-1 .2-1.4a3 3 0 0 1 1.9-1.8c.4-.2.9-.2 1.4-.2a4.8 4.8 0 0 1 2 .4v1.3a3.1 3.1 0 0 0-1.8-.5c-.4 0-.8 0-1.2.3-.3.1-.5.4-.7.7-.2.3-.3.8-.3 1.2 0 .5.1 1 .3 1.2.1.4.4.6.7.8.3.2.7.3 1.2.3.7 0 1.4-.2 2-.6v1.3Zm-8.7 3h12.2v-12h-12.2v12Zm-26.8-9.4h2.5a3 3 0 0 1 1.8.5c.4.3.6.7.6 1.3 0 .3 0 .6-.2.8-.2.3-.4.5-.7.6.4.1.7.3 1 .6.2.3.3.7.3 1 0 .5-.1.8-.3 1.1a2 2 0 0 1-1 .7c-.3.2-.8.2-1.3.2h-2.7V6.8Zm-3.4 9.5h12V4.2h-12v12.1ZM200 8c.8 0 1.1.2 1.1.8 0 .3 0 .5-.3.6-.2.2-.4.3-.8.3h-1V8h1Zm.2 2.7H199v1.9h1.2c.4 0 .7-.1 1-.3.1-.1.3-.3.3-.6 0-.7-.5-1-1.3-1Zm12.5-3.9h2.6a3 3 0 0 1 1.7.5c.4.3.6.7.6 1.3 0 .3 0 .6-.2.8-.1.3-.3.5-.6.6.4.1.7.3.9.6.2.3.3.7.3 1 0 .5-.1.8-.3 1.1a2 2 0 0 1-.9.7c-.4.2-.8.2-1.4.2h-2.7V6.8Zm-3.4 9.5h12.1V4.2h-12v12.1Zm5.8-8.3c.8 0 1.2.2 1.2.8 0 .3-.1.5-.3.6-.2.2-.5.3-.8.3h-1V8h1Zm.2 2.7h-1.2v1.9h1.2c.4 0 .7-.1 1-.3.2-.1.3-.3.3-.6 0-.7-.4-1-1.3-1Z" clip-rule="evenodd"/></g><g clip-path="url(#e)"><path fill="#DBE5F0" d="M278 20.5h-20.4V0H278v20.5Z"/><path fill="#577291" d="M262.8 10.7c0 1 .3 1 1.4 1v.4h-4.4v-.3c.9 0 1.1-.2 1.1-1.1V4.4c0-1-.2-1.1-1-1.1v-.4h7.6v2h-.3c-.3-1-.7-1.3-2.5-1.3h-1.4c-.4 0-.5 0-.5.5V7h.7c1.4 0 1.7-.3 2-1.2h.3V9h-.4c-.2-1-.7-1.3-2-1.3h-.6v3Zm13.5-7.8h-8.1l-.2 2h.4c.3-1 .8-1.3 1.8-1.3h1v7c0 1-.2 1.1-1.2 1.2v.3h4.4v-.3c-1 0-1.3-.2-1.3-1.1V3.6h1.2c1 0 1.4.3 1.7 1.3h.5l-.2-2Z"/></g><g clip-path="url(#f)"><path fill="#577291" d="M8.7 38.7c0-1.3-1.2-1.6-2.2-1.6v.2c.6 0 1 .2 1 .6 0 .3-.1.6-.7.6-.4 0-1.4-.2-2-.5a8 8 0 0 0-2.3-.5 2 2 0 0 0-2.1 2c0 1 .7 1.2 1 1.4v-.2c-.1 0-.3-.2-.3-.6 0-.2.2-.7.9-.7.5 0 1.3.3 2.3.6l2.3.5v2l-1 .8 1 .8V47a3 3 0 0 1-1.6.3c-1 0-1.7-.2-2.4-1L5.2 45v-4.4L2 42c.3-.8 1-1.4 1.7-1.8l-.1-.1c-1.9.5-3.6 2.2-3.6 4.4 0 2.5 2 4.4 4.4 4.4 2.5 0 4.2-2 4.2-4.1h-.2c-.3.8-1 1.6-1.6 2V44l1-.8-1-.9v-1.9c1 0 1.9-.6 1.9-1.8Zm-5.5 6.9-.7.4c-.5-.6-.7-1.3-.7-2.4v-1.3l1.4-.6v3.9ZM10 47l-.8.7v.1l.5-.3 1.4 1.2 1.8-1.2v-.1l-.5.3-.7-.7v-4.2l.5-.4 1.1.9V47c0 2.4-.5 2.8-1.6 3.2v.1c1.8.1 3.4-.5 3.4-3.5v-4.2l.6-.4-.1-.2-.5.4-1.6-1.3-1.8 1.3v-5.2L9.2 39c.3.2.6.3.6 1v7Zm11.5-.6-1.6 1.1-1.5-1.2v-.8l3-2-1.6-2.3-3.3 1.8v4l-.6.5.1.1.6-.4 2.1 1.6 2.9-2.3-.1-.2Zm-3.1-1.1v-3.1l1.5 2.1-1.5 1Zm15-7.3-.1-.6h-.1c-.2.5-.5.8-1 .8-.7 0-1-.3-1.3-.6l-1.8 2.1.1.1.6-.5c.4.3.7.5 1.6.6v5.2L27.7 39c-.3-.5-.8-1.2-1.6-1.2-1 0-2 .8-1.8 2.2h.2c0-.3.2-.8.7-.8.3 0 .6.3.8.6v2.1c-1.1 0-1.9.5-1.9 1.5 0 .5.3 1.2 1 1.4v-.1a.6.6 0 0 1-.2-.5c0-.3.3-.5.7-.5h.3v2.6c-1.3 0-2.4.8-2.4 2s1 1.8 2.2 1.7c-.7-.1-1-.5-1-1s.4-.7.9-.7.9.3 1.2.7l1.8-2v-.2l-.5.5a3 3 0 0 0-2-1V40l5.1 8.8h.4V40a2 2 0 0 0 1.8-1.9Zm4.6 8.3-1.6 1.1-1.5-1.2v-.8l3-2-1.6-2.3L33 43v4l-.6.5.1.1.6-.4 2.2 1.6 2.8-2.3v-.2Zm-3-1v-3.1h.1l1.4 2.1-1.5 1Zm13.4-3.4-.5.3-1.2-1-1.3 1.2.5.6v4.7l-1.5-1V43l.5-.3-1.4-1.4-1.4 1.2.6.6v4.5l-.2.2-1.4-1V43c0-1-.4-1.2-.9-1.5-.4-.3-.7-.5-.7-1 0-.3.4-.5.6-.6v-.2c-.5 0-1.9.5-1.9 1.7 0 .7.4 1 .7 1.2.3.4.6.6.6 1.2v3.6l-.7.5.1.2.7-.6 1.4 1.3 1.6-1 1.8 1 3.3-2v-4.2l.8-.6-.1-.1ZM60 38.4l-.6.6-1.4-1.3-2.1 1.5V38h-.2v10l-1.1-.3-.1-8.5c0-.6-.5-1.5-1.6-1.5-1.2 0-2 .9-2 1.8h.3c0-.4.2-.7.6-.7.4 0 .7.2.7 1v2.5c-1.1 0-1.8.7-1.8 1.5 0 .5.2 1.3 1 1.3V45c-.3-.1-.3-.3-.3-.4 0-.4.3-.5.8-.5h.2V48c-1 .3-1.3 1-1.3 1.8 0 1 .8 1.8 2 1.8 1 0 1.7-.2 2.5-.3l1.8-.4c.5 0 .7.3.7.6 0 .5-.2.6-.4.7v.1c1-.2 1.6-.8 1.6-1.7 0-1-1-1.5-2-1.5l-2.3.3-2 .3c-.4 0-1-.2-1-.8 0-.5.5-1 1.6-1 .5 0 1.2 0 2 .3.7.2 1.4.4 2 .4 1 0 1.8-.4 1.8-1.7v-7.7l.7-.7H60Zm-2.6 3.9c-.2.1-.4.3-.7.3a1 1 0 0 1-.8-.3v-2.8l.6-.5 1 .9v2.4Zm0 1.8c-.1 0-.4-.3-.7-.3-.4 0-.7.2-.8.3v-1.6c.1.1.4.3.8.3.3 0 .6-.2.7-.3v1.6Zm0 3c0 .5-.3 1-1 1H56v-3.7c.1-.1.4-.3.8-.3.3 0 .5.2.7.3v2.7Zm8.6-4.5-2-1.4-3 1.8v4l-.7.5v.2l.6-.4 2 1.5L66 47v-4.3Zm-3.4 4v-4.5l1.6 1.1v4.5l-1.6-1.1Zm9.4-5.3-.6.3-.7-.3-1.2 1.1-1-1.1-2 1.2.1.1.5-.3.7.7v4l-.8.6v.1l.5-.3 1.5 1.3 2-1.3-.1-.2-.6.3-.8-.6v-4.4c.4.3.7.6 1.2.6.9.1 1.4-.8 1.4-1.8Zm7.6 6-2.2 1.5-2.9-4.4 2.1-3.2h.1c.3.2.7.5 1.1.5.4 0 .8-.3 1-.5 0 1.2-.9 2-1.5 2s-1-.3-1.3-.5l-.2.3 3.1 4.7.7-.4Zm-7-.3-.8.7.2.1.3-.3 1.4 1.2 2-1.2-.2-.1-.5.3-.7-.7v-9.7L72 39c.3.2.6.3.6 1v7ZM90 38.7c0-1.3-1.2-1.6-2.1-1.6v.2c.5 0 1 .2 1 .6 0 .3-.2.6-.8.6-.4 0-1.4-.2-2-.5-.9-.2-1.6-.5-2.2-.5a2 2 0 0 0-2.2 2c0 1 .7 1.3 1 1.4-.2-.2-.4-.3-.4-.7 0-.3.3-.7 1-.7.5 0 1.2.2 2.3.6l2.3.5v2l-1 .7 1 1v2.6a3 3 0 0 1-1.6.4 3 3 0 0 1-2.4-1l2.5-1.3v-4.4L83.3 42a4 4 0 0 1 1.6-1.8V40c-2 .5-3.6 2.2-3.6 4.3 0 2.5 2 4.4 4.4 4.4a4 4 0 0 0 4.1-4c-.5.7-1 1.5-1.7 1.9V44l1-.8v-.1l-1-.8v-1.9c1 0 2-.6 2-1.8Zm-5.5 6.9-.7.4c-.5-.6-.7-1.3-.7-2.4 0-.5 0-1 .2-1.3l1.3-.6v3.9Zm7.7-7.6-1.3 1.1 1 1.3h.2l1.3-1.1-1.2-1.3Zm2 9.4-.6.3-.6-.7v-4.3l.6-.4-.1-.2-.5.4-1-1.3-2 1.2.2.2.5-.3.5.7v4.1l-.8.6v.2l.5-.4 1.4 1.3 1.9-1.3v-.1Zm10.4-.1-.4.3-.7-.6v-4.3l.6-.5-.1-.1-.5.4-1.5-1.3-1.8 1.3-1.5-1.3-1.8 1.3-1-1.3-2 1.2.2.2.4-.3.6.7v4.1l-.5.5 1.5 1.2 1.4-1.3-.6-.5v-4.3l.6-.4.9.9V47l-.5.5 1.4 1.2 1.4-1.3-.5-.5v-4.2l.5-.3 1 .9V47l-.5.5 1.5 1.3 2-1.3v-.2Zm5.5-1-1.6 1.2-1.5-1.2v-.8l3-2-1.6-2.3-3.3 1.8v4.2l2.2 1.6 2.9-2.3-.1-.1Zm-3.1-1v-3.1l1.5 2.1-1.5 1Zm8.8-.6-1.2-1c.9-.6 1.2-1.6 1.2-2.2v-.4h-.2c0 .3-.3.7-.8.7s-.9-.3-1.2-.7l-2.8 1.6V45l1 .8c-1 1-1.2 1.6-1.2 2 0 .7.3 1.1.8 1.3V49c0-.1-.2-.2-.2-.5 0-.2.3-.5.8-.5.6 0 1 .4 1.2.6l2.7-1.6v-2.3Zm-.7-1.9c-.4.8-1.3 1.5-2 2l-.6-.7V42a1.9 1.9 0 0 0 2.6 1Zm-1 5a2 2 0 0 0-1.9-1.1c-.1 0-.6 0-1.2.3a7 7 0 0 1 2.3-2l.7.6v2.3Z"/></g><g clip-path="url(#g)"><path fill="#577291" d="m141 45.3.6-.3.3-.2v-6.9h-.5c-.2 0-.1 0-.2.2l-1 1.3-.4.5c-.1.2-.1.2-.3.2v-2.4h7.1V40h-.1l-.2-.3-.6-.8-.6-.8-.2-.2h-.7v6.9l.4.2.4.3s.1.2 0 .2h-4v-.2Zm6.3-.3v-7.6l-.3-.2-.3-.1v-.2h.7l1-.3h1v3.5a3 3 0 0 1 2.6-.8c.8.2 1 1 1 1.7v4h.2l.3.3h.1v.2h-3.1v-.2l.3-.2.2-.1v-4c0-.3 0-.6-.4-.8h-.9l-.3.2V45h.1l.4.3v.2h-3.2v-.2l.4-.2.2-.1Zm8.1-2.4c0 .8.3 1.6 1 2 .3.2.7.3 1.1.2.5 0 1-.3 1.4-.5v.3l-.2.2-.2.2a3 3 0 0 1-1 .5c-.6.2-1.4.2-2 0-.6 0-1-.3-1.4-.7a3 3 0 0 1-.6-1.5c-.2-1.2 0-2.5 1-3.3.8-.7 2.2-.8 3.2-.4 1.2.5 1.4 1.9 1.4 3h-3.7Zm0-.3h1.6l.2-.1v-.4c0-.6 0-1.4-.4-2-.3-.3-.6-.2-.9.1-.5.7-.5 1.7-.5 2.4Zm-25.7 6.2c0-1 .2-2 .7-2.7a4 4 0 0 1 2.2-1.6 7.5 7.5 0 0 1 4 .1l.3.1v2.3h-.2l-.1-.1-.4-.6-.9-1.4c-.1-.3-.6-.3-.8-.3-.3 0-.6 0-.9.2-.6.4-.8 1.1-1 1.7-.2 1-.2 2-.2 3 0 .9.2 1.7.5 2.4.2.5.5.8 1 1h.4c.1 0 .5 0 .5-.2v-3.1l-.4-.3-.3-.1v-.3h3.7v.3l-.2.1-.4.3c-.1 0 0 0 0 .2v2.9l-.6.2a7.7 7.7 0 0 1-2.7.3c-.9 0-1.9-.3-2.7-.8a3.6 3.6 0 0 1-1.3-2 5 5 0 0 1-.2-1.6Zm7.8-1.5v-.2l.4-.1 1.2-.2.9-.2h.3v4.3c0 .4 0 1.2.3 1.5.2.1.5.1.8 0 .1 0 .5-.1.6-.3v-4.5l-.3-.1-.3-.1-.2-.1v-.2h.4l2.1-.4h.3v5.7h.1l.5.3h.1v.2h-.2l-1.1.2h-1c-.1.1-.2.1-.2 0h-.2v-.7h-.2c0 .2-.2.3-.4.4-.6.4-1.2.5-1.9.4-.5-.1-.9-.4-1-.9-.2-.3-.3-.6-.3-1v-3.7l-.3-.1-.4-.2Zm16-.7h.2v1.9l.1-.1c.2-.7.4-1.4 1-1.7h.9v1.9a3.1 3.1 0 0 0-1.8.2h-.1v3.8l.2.1.3.2v.3H151v-.3l.3-.2.2-.1v-5h-.1l-.3-.1c-.1 0-.4-.1-.3-.3h.2l2.2-.4h.2Zm6.4.2v-2h-.1l-.5-.2-.1-.1V44l.6-.1 1.7-.3h.5V52l.4.1.3.1v.3h-.8l-1.6.3h-.3v-.7l-.5.3a2.3 2.3 0 0 1-1.8.4c-1.7-.4-2-2.4-1.9-3.8.1-.7.3-1.5.8-2s1.2-.7 1.8-.8c.5 0 1 0 1.5.2Zm0 5.4v-5l-.1-.2a1 1 0 0 0-.8 0c-.4.1-.6.6-.7 1-.2.6-.2 1.4-.2 2 0 .7 0 1.4.3 2 .4.4 1 .6 1.5.2Zm5.6-5.6h.2v6h.2l.3.2.1.1v.3H163v-.3h.2l.3-.3c.1 0 0 0 0 0v-5.1l-.4-.2-.2-.1v-.2l.5-.1.6-.1 1.3-.3h.2Zm.2-1.6c0 1-1.4 1.5-2 .7a1 1 0 0 1 0-1.3c.2-.4.7-.5 1.2-.4.5 0 .8.5.8 1Zm7.5 7.5v-4.9l-.2-.1-.3-.1-.2-.1v-.2l.1-.1 1.1-.2 1.1-.2h.5v.7h.1l.5-.4c.6-.3 1.3-.4 2-.3.5 0 .9.3 1 .7.2.4.2.7.2 1v4.2h.2l.2.2.2.1v.3h-3.3v-.3h.1l.3-.2.2-.1v-4c0-.3 0-.6-.2-.8-.1-.2-.3-.3-.6-.3h-.5l-.4.3V52l.2.2.2.1h.2v.3h-3.3v-.2l.1-.1.5-.2Zm-3.6-3.1v-1.4c-.1-.5-.2-1-.8-1.1h-.6l-.3.5-.9 1.1-.1.3h-.2v-1.8l.5-.1 1.4-.3c.7 0 1.5 0 2.2.3.5.2.8.7.9 1.2v4.5h.5l.1.2v.1l-.4.2c-.7.1-1.6.2-2-.4l-.3-.3-.3.3a2 2 0 0 1-1 .5c-.7 0-1.4-.1-1.8-.7a2 2 0 0 1-.1-1.8c.4-1 1.8-1.1 2.8-1.3h.4Zm0 2.8v-2.5c-.5 0-1 0-1.3.6v1.2c0 .3 0 .6.3.8.3.2.7.1 1-.1ZM148 49v-1.4c0-.5-.2-1-.8-1.1h-.6l-.3.5-.8 1.1-.2.3h-.2v-1.7l.5-.1 1.5-.3c.7 0 1.4 0 2 .3.6.3 1 .7 1 1.2v4.5h.1l.4.1.1.1v.1a3 3 0 0 1-.4.2c-.6.2-1.6.2-2-.4l-.3-.3-.3.3a2 2 0 0 1-1 .5c-.6 0-1.3 0-1.7-.7a2 2 0 0 1-.2-1.8c.5-1 1.8-1 2.8-1.3h.4Zm0 2.8v-2.5c-.5 0-1 0-1.2.6-.2.4-.2.8-.1 1.2 0 .3.1.6.4.8.2.2.7.1 1-.1Z"/></g><g clip-path="url(#h)"><path fill="#577291" d="M208.6 43.4c-1 0-1.7.7-2.8 2l-1.3 2c-.1.3-.3.2-.2 0l.7-1.8 2.6-7c0-.2-1-.6-1.1-.2-.4 1-1.3 1.2-2.7 1.2-1.4 0-4.3-.9-6.5-.9-2.8 0-4.3 1.7-4.3 3.7 0 1.1.7 1.9 1.7 1.8a.9.9 0 0 0 1-.7.5.5 0 0 0-.7-.6c-1 .2-1.3-.4-1.3-1 0-1.2 1-2.1 3.3-2.1l2.8.2a327 327 0 0 1-3.5 10l-.4.2-1 .3c-.5.1-.4.6 0 .5h4.5c.4 0 .4-.5.1-.5l-1-.2c-.4 0-.5-.2-.4-.5l3.2-9.6 2 .2c.9 0 1.8 0 2.5-.5l-2 5.7-1.8 4.9c-.3.8.9.8 1.1.4.9-1.8 2-3.4 3-5 .8-1 1.5-1.7 2-1.7.3 0 .6.2.6.7 0 .6-.3 1.5-.9 3.1-.7 2.1-1 2.7-1.3 2.7-.2 0-.7-.6-1-.7a.6.6 0 0 0-.6.3c-.2.2 0 1 1 1 1.4 0 2.6-1.3 3.4-3.5a9 9 0 0 0 .6-2.9c0-1-.5-1.5-1.3-1.5Zm23 7.1c-.8-.2-1.2-.5-1.2-.8V49l.6-9.3c0-.8-1-.8-1.3-.3l-.8 1-6.9 8.7c-.5.7-1.2 1.2-2 1.4-.3.1-.3.5 0 .5l1.8-.1h2c.3 0 .4-.3 0-.4-.7-.2-1.1-.4-1.1-.6 0-.2.1-.5.6-1l2-2.8h3.8l-.2 3.7a.4.4 0 0 1-.3.4l-.9.3c-.2 0-.3.5 0 .5l2-.2 1.9.2c.4 0 .4-.4 0-.5Zm-2.4-6.1v1h-3.3l3.3-4.3a232 232 0 0 0 0 3.3Zm-14.3-1c-1.5 0-3.1 1.7-3.9 4.3-.7 2.4 0 3.4 1 3.4.7 0 1.8-.8 2.4-1.8.2-.4 0-.8-.3-.4-.4.5-1 1-1.5.8-.4 0-.8-.7-.2-2.4 1.4-.1 3-.9 3.5-2.2.3-1.2-.4-1.6-1-1.6Zm.1 1.3c-.3 1-1.6 2-2.5 2.1.9-2.2 1.7-2.8 2.2-2.8.3 0 .4.3.3.7Zm21.4-.4h1.4c.3 0 .5 0 .5-.3.1-.3 0-.4-.2-.4h-1.4l.7-1.7c0-.3 0-.4-.2-.4h-.7c-.2 0-.2 0-.3.3l-.7 1.8h-1c-.2 0-.4 0-.5.4 0 .3 0 .3.3.3h1l-1.7 4.3a18 18 0 0 0-.7 1.8c0 .6.3.9.7.8.9-.2 2-1 3.2-2.5.3-.4 0-.6-.3-.3l-1.4 1.3c-.5.2-.7 0-.5-.4l1.8-5Zm15.2-.4c0-.2-.3-.3-1-.4-.3 0-.4.2-.8 1a1.6 1.6 0 0 0-1.4-.6c-1.2 0-2.7 1.2-4 2.9-1 1.3-1.3 2.3-1 3.3a1.2 1.2 0 0 0 1.1 1c1 0 1.9-.9 2.8-1.8l.6-.6c.2-.2.3 0 .2.1l-.7 1.7c-.1.6.2.7.6.7.9-.2 2.3-1 3.3-2.4.3-.4 0-.7-.3-.3l-1.5 1.3c-.4.3-.6.2-.5-.2l2.6-5.7Zm-4 4.4c-1 1-1.8 1.7-2.4 1.7-.4 0-.6-.2-.6-.5-.1-.7.5-1.8 1-2.6 1-1.3 2.2-2.3 3-2.3.5 0 .8.2.8.5.1.6-.9 2.4-1.7 3.2Zm23.4-5c-.9 0-2 .5-3 1.7-.3.4 0 .6.2.4l1.2-1c.3-.1.6 0 .5.4l-.6 1.2-1.1 2.7-.7 1.6c-.1.6.1.8.5.8.8 0 2-.6 3-1.8.3-.4 0-.7-.2-.4l-1.3 1c-.3.2-.6 0-.5-.3l.5-1.1 1.2-2.7.8-1.8c.1-.5-.1-.8-.5-.8Zm1-4.1a1 1 0 0 0-1 .8.8.8 0 0 0 .7 1 1 1 0 0 0 1-.8.8.8 0 0 0-.4-1h-.3Zm4.6 4.3c-1.5 0-3 1.6-3.8 4.2-.8 2.5 0 3.4 1 3.4.7 0 1.8-.8 2.5-1.8.2-.4 0-.8-.3-.4-.4.5-1 .9-1.5.8-.6 0-1-.7-.3-2.6 1-2.6 1.6-3 1.9-3 .3 0 .8.8 1.2.9a.5.5 0 0 0 .6-.3c.2-.3.1-1.1-1.3-1.2Zm-9.5.1h-1.4l.7-1.7-.1-.4h-.8c-.1 0-.2 0-.3.3l-.7 1.8h-1c-.2 0-.3 0-.4.4 0 .3 0 .3.2.3h1l-1.7 4.3-.7 1.8c0 .6.3.9.7.8.9-.2 2.1-1 3.2-2.5.3-.4 0-.6-.2-.3l-1.5 1.3c-.4.2-.7 0-.5-.4l1.9-5h1.3c.3 0 .5 0 .5-.3.2-.3 0-.4-.2-.4Zm-25.3 4.7-1.5 1.4c-.4.2-.6 0-.5-.4l4.1-10.8c0-.2 0-.4-.2-.4l-2.4.3c-.1 0-.2.2 0 .3l.9.3c.2 0 .2.1 0 .4l-3.5 9.2-.6 1.8c-.1.6.2.9.7.8.9-.2 2.1-1 3.3-2.5.3-.4 0-.7-.3-.4Zm17.3 0 1-2c.5-1 .6-1.5.6-1.9 0-.7-.4-1-1.1-1-1 0-2 .8-3.2 2.6l-1 1.4c-.2.2-.3.2-.3 0l.7-1.6a6 6 0 0 0 .5-1.8c0-.4-.1-.6-.6-.6-.6 0-1.3.3-2.6 1.8-.4.6 0 .7.2.5l1.1-1.1c.4-.3.7-.2.6.1l-.3 1-2 4.8c-.3.7 1 .8 1.2.3.7-1.6 2.2-3.6 2.8-4.4 1-1.3 1.7-2.2 2.3-2.2.3 0 .4.2.4.5s0 .5-.2.8l-1.4 3-.9 1.8c-.1.5.2.8.6.8.8 0 2-.6 3-1.8.3-.4 0-.7-.3-.4l-1.2 1c-.4.2-.6 0-.5-.3l.6-1.2Z"/></g><g clip-path="url(#i)"><path fill="#577291" d="M7.3 75.8v6.9a4 4 0 0 0 1.9-2.4c-.2 2.5-1.8 5-4.4 5-2.6 0-4.6-2-4.6-5.1 0-2.4 1.5-3.8 3.5-5.1l-.9-.2a2 2 0 0 0-2 1.9H.5v-.4c0-1.7.8-3.7 3-3.7 1.3 0 2.4 1.3 4 1.3a2 2 0 0 0 1.7-1c0 1.2-.4 2.4-2 2.8Zm1 7c-1 1-2 1.9-3.2 1.9-2.5 0-4.3-2-4.3-4.7a5 5 0 0 1 1.4-3.5c-.5.5-1.8 1.6-1.8 3.6 0 3 2 5 4.4 5a4 4 0 0 0 3.5-2.2Zm.7-9c-.3.6-1 1.4-2.3 1.4-1.4 0-2.6-1-3.7-1-1 0-1.7.7-2 1.2a3 3 0 0 1 1.8-.6c1.5 0 2.4.8 3.9.8s2.2-1 2.4-1.8Zm-5 1.3c-1 1-1.9 2-1.9 4.2a4 4 0 0 0 1.3 3l.5-.2v-5l-.5.3v-.2l2.5-1.4-2-.7Zm3.2.7H5.9v5.4l-2.4 1.3a3 3 0 0 0 1.9.6c.6 0 1.2-.1 1.7-.3v-7Zm-2.7 1L4 77v5l.4-.2v-5Zm10.7.7v6.4c0 1.8-1.6 3-3.4 3.4v-.1c.9-.5 1.4-1.3 1.4-2.3v-6.6l-1-1-.4.5V83l.5.5-1.5 1.7L9 83.6l.7-.8v-8.2l2-2v5l1.6-1.8 1.7 1.5.3-.4.1.2-.3.4Zm-5.2 6 .4-.4v-8.8l-.4.4v8.2l-.6.6 1.4 1.4.3-.3-1.1-1Zm3.8-5.5-1.2-1-.3.2 1 1V85c0 .4 0 .9-.2 1.2.5-.4.7-.9.7-1.5V78Zm4.3 3.2v1l1.8 1.4 1-1.1.2.1-2.4 2.6-2.4-2-.4.4-.2-.1.5-.5v-4.7l3.5-2.5 1.8 3-3.4 2.4ZM16.7 83v-5l-.4.3V83l2.3 2 .3-.4-2.2-1.7Zm1.3-6v4l1.6-1.2L18 77Zm.4-.3-.3.2 1.6 2.6.4-.2-1.7-2.6Zm15 8.4-2.6-2.3-2 2.3-2.6-2.3v-3.7h-.5c-.5 0-.7.3-.9.7l-.1-.7c0-.5.1-1.8 1.5-1.8v-3.2c0-.6-.7-.8-.7-1.6 0-1 1-2.1 2.8-2.8-.6.5-1 .8-1 1.6 0 1.3 1.2 1 1.2 2.9v.7l2.2-2.3 2.3 2.3 2.1-2.3 2.1 2v7l-3.8 3.5Zm-6.6-2.6v-4h-1c-.6 0-.8.4-.9.7.2-.2.4-.3.8-.3h.7v3.8l2.4 2 .3-.2-2.3-2Zm0-8.5c0-.8-.7-1-.7-1.6 0-.6.3-1.2.7-1.7-.6.4-1.1 1.1-1.1 1.8 0 .6.7 1 .7 1.5v3.3h.4V74Zm3.9 1.8-1.4-1.4-.8.8v6.6l1.7 1.4.5-.5v-6.9Zm.6 6.6v-6.9L29.7 74l-.3.3 1.5 1.4v7l2.5 2.1.3-.3-2.4-2Zm3.6-6.8-1.2-1.1-.6.6v6.6l1.8 1.6v-7.7Zm.6-.3L34.1 74l-.3.3 1.3 1.2v7.7l.4-.3v-7.6Zm7.9 9.8-1.8-1.6-1.6 1.6-1.9-1.7-.3.2-.1-.1.3-.4v-5l3.5-2.5 2 1.6.4-.4.1.2-.4.4v5.1l1 1 .3-.4.2.2-1.7 1.8Zm-4.8-2V78l-.4.3v4.9l1.8 1.6.3-.3-1.7-1.5Zm3-5L40.2 77v5.5l1.2 1 .3-.2v-5Zm.6 5V78l-1.6-1.3-.3.2 1.5 1.3v5.3l1.6 1.4.2-.3-1.4-1.3Zm6.6-4h1.9V83l-3 2c-.4-.4-1-.7-1.6-.7-.6 0-1 .2-1.6.7l2.4-3.7h-1.5v-3.5l3-2.1c.4.3.7.4 1.2.4.4 0 1 0 1.3-.4h.1L48.8 79Zm-2.1 4.7c-.5 0-1 .2-1.3.4l.8-.1c.5 0 1.1.2 1.6.7l.4-.3c-.4-.4-.8-.7-1.5-.7Zm2-3.1h-1l-2.2 3v.1c.5-.4 1-.6 1.7-.6a2 2 0 0 1 1.5.7v-3.2Zm-2.7 0v-3l-.4.2v3.2h1.5l.3-.4H46Zm3.8-3.7c-.3.3-.6.4-1.2.4-.4 0-.8-.1-1.2-.5v2.7h.7l1.8-2.6Zm-.8-.2c-.4 0-.8-.1-1-.5l-.5.3c.3.5.6.6 1.2.6.3 0 .8 0 1.3-.5l-1 .1Zm.3 3.2h-1.2l-.3.4h1V84l.5-.2V80Zm7.8-2.6v6.4c0 1.8-1.6 3-3.4 3.4v-.1c.9-.5 1.4-1.3 1.4-2.3v-6.6l-1-1-.4.5V83l.5.5-1.5 1.7-1.7-1.6.7-.8v-8.2l2-2v5l1.6-1.8 1.7 1.5.3-.4.2.2-.4.4Zm-5.2 6 .4-.4v-8.8l-.4.4v8.2l-.6.6 1.4 1.4.3-.3-1.1-1Zm3.8-5.5-1.2-1-.3.2 1 1V85c0 .4 0 .9-.2 1.2.5-.4.7-.9.7-1.5V78Zm4.8 7.2L59 83.7l-.4.4-.1-.2.4-.4V78l-.8-.7-.3.3-.1-.1 1.6-1.9 1.5 1.4.4-.4.1.1-.4.5v5.4l.9.9.4-.5.1.2-1.7 1.9Zm-1.1-1.8v-5.6l-1-.9-.3.3.9.8v5.5l1.5 1.4.2-.3-1.3-1.2Zm.5-7.8-1.5-1.4 1.4-1.5 1.5 1.4-1.4 1.5Zm-1-1.7-.2.3 1.2 1.1.3-.3-1.2-1.1Zm9.4 11.3-1.6-1.5v-5.4l-1-1-.5.7v5l.6.5-1.5 1.7-1.8-1.6.7-.8v-4.6l-.9-.8-.3.3-.2-.1 1.7-1.8 1.7 1.5v.3l1.8-1.8 1.6 1.4.4-.3.2.1-.5.5v5.3l.8.8.4-.5.2.2-1.8 1.9Zm-4.9-1.6.4-.5v-5l-1-1-.3.3.9.8v5l-.6.5 1.5 1.4.2-.3-1-1Zm3.9-.2V78l-1.2-1-.3.2 1.1 1v5.4l1.4 1.3.3-.3-1.3-1.2Zm6.3 5.1c-.7-.7-1-1-1.7-1-.6 0-1.3.3-2 .7l2.5-3-1.8-1.5-.4.4-.1-.1.4-.5v-5.2l3.5-2.6 2 1.6.3-.4.2.2-.4.4V84c0 1 .5.9.5 1.6 0 .8-1.2 1.6-3 3Zm-2.5-5.1V78l-.4.3v5.1l1.8 1.5.3-.3-1.7-1.3Zm1.3 3.7a3 3 0 0 0-1.7.5l1.3-.2c.6 0 1 .3 1.6.8l.3-.3a2 2 0 0 0-1.5-.8Zm2.2-1.8c-.4-.3-.5-.6-.5-1.4v-.3L71 87c.6-.3 1.1-.6 2-.6.8 0 1.3.3 1.8.8.4-.3.6-.6.6-1s-.3-.7-.8-1Zm-.5-7L72.6 77v5.8l1.2.9.4-.5v-5Zm1.1 6.7c-.5-.3-.5-.6-.5-1.4v-5.7l-1.6-1.2-.3.2 1.5 1.2v5.7c0 .8 0 1 .5 1.4.5.3.8.6.8 1v.3c.1 0 .2-.2.2-.5 0-.4-.2-.6-.6-1Zm4.5.2L78 83.8l-.3.4-.2-.1.5-.5v-6.5h-1.1l.6-1h.5V75l2-2.1v3.3h1.4l-.6 1H80v5.7l1 .7.4-.4.1.2-1.7 1.9Zm-1.2-10.6-.4.4V76h.4v-1.5Zm0 8.8V77h-.4v6.6l1.5 1.2.3-.3-1.4-1.2Zm9-5.7v5.2l-3.1 2.3-2.4-1.8-.3.3-.1-.1.3-.4v-5l3.3-2.4 2.2 1.7.3-.4.2.1-.4.5Zm-5 5.3v-5l-.4.2v5l2.2 1.7.4-.2-2.2-1.7Zm3-4.7L84 77v5.5l1.6 1.2v-5.5Zm.6-.3-1.7-1.4-.4.3 1.7 1.3v5.7l.4-.3V78Zm8.5 7.2L93 83.7v-5.4l-1-1-.5.7v5l.5.5-1.5 1.7-1.7-1.6.7-.8v-4.6l-1-.8-.3.3-.1-.1 1.7-1.8 1.7 1.5v.3l1.7-1.8 1.7 1.4.3-.3.2.1-.4.5v5.3l.8.8.4-.5.2.2-1.8 1.9Zm-5-1.6.5-.5v-5L89 77l-.3.3 1 .8v5l-.6.5 1.4 1.4.3-.3-1.1-1Zm4-.2V78l-1.2-1-.3.2 1 1v5.4l1.5 1.3.3-.3-1.3-1.2Zm12.4 1.8c-.5-.6-.7-.8-1.3-1V88l-.7-.7-2.2 2v-5a4 4 0 0 0-2 1.2 3 3 0 0 1 2-3v-3.6h-.4c-.6 0-.9.3-1.1.8l-.2-.8c0-.8.6-1.6 1.5-1.6h.2v-2l-.8-.7-.4.4-.1-.2 1.9-2 1.7 1.6V76l.4-.4v-2.2h.2v2l2.5-2.7 2.1 2v8l-3.3 2.5Zm-4.2-1.7c-.8.2-1.3.7-1.7 1.3.5-.4 1-.6 1.7-.8v-.5Zm.6-5.3h-1c-.8 0-1 .5-1 1 .2-.4.4-.5.8-.6h.8v10.2l.4-.4V78.2Zm0-3.3-1-.9-.3.3.9.8v2h.4v-2Zm2.1 1-.4.5V87l.4.4V75.9Zm2.5-.4-1.1-1-1.2 1.2v6.6c1 0 1.7.3 2.2 1v-7.8Zm-2.3 8v.5c.7.2 1 .4 1.4.9l.4-.4c-.5-.5-.9-.9-1.8-1Zm2.9-8.3-1.3-1.2-.3.3 1.2 1.1V84l.4-.3v-8.6Zm8.2 2.5v5.2l-3.2 2.3-2.3-1.8-.3.3-.1-.1.3-.4v-5l3.3-2.4 2.2 1.7.3-.4.2.1-.4.5Zm-5 5.3v-5l-.4.2v5l2.2 1.7.4-.2-2.2-1.7Zm3-4.7-1.6-1.2v5.5l1.6 1.2v-5.5Zm.6-.3-1.8-1.4-.3.3 1.7 1.3v5.7l.4-.3V78Zm5.7 1.1h1.9v4l-3 2a2 2 0 0 0-1.6-.7c-.5 0-1 .2-1.6.7l2.4-3.7h-1.5v-3.5l3-2.1c.5.3.7.4 1.2.4.4 0 1 0 1.3-.4h.1l-2.2 3.3Zm-2.1 5c-.5 0-1 .2-1.3.4l.8-.1c.5 0 1.1.2 1.6.7l.4-.3c-.3-.4-.8-.7-1.5-.7Zm2-3.1h-1l-2.2 3v.1c.5-.4 1-.6 1.7-.6a2 2 0 0 1 1.5.7v-3.2Zm-2.7 0v-3l-.4.2v3.2h1.5l.3-.4h-1.4Zm3.9-3.7c-.4.3-.7.4-1.3.4-.4 0-.8-.1-1.2-.5v2.7h.7l1.8-2.6Zm-1-.2c-.3 0-.7-.1-1-.5l-.4.3c.3.5.7.6 1.2.6.3 0 .8 0 1.3-.5l-1 .1Zm.4 3.2h-1.2l-.3.4h1v3.6l.5-.2v-4Zm4.5 5-1.7-1.3-.4.4-.1-.1.4-.5v-6.5h-1.1l.6-1h.5V75l2-2.1v3.3h1.5l-.6 1h-1v5.7l1.1.7.4-.4.1.2-1.7 1.9ZM124 74.7l-.4.4v1.1h.4v-1.5Zm0 8.8v-6.3h-.4v6.6l1.6 1.2.2-.3-1.4-1.2Z"/></g><path fill="#577291" d="m164.7 84.1.1-.3c0-.2.1-.2.2-.3l.3-.2a.9.9 0 0 1 .7 0 .9.9 0 0 1 .5.5v.7a1 1 0 0 1-.8.5 1 1 0 0 1-.7-.2 1 1 0 0 1-.3-.7Zm3.5 0v-.3l.2-.3.3-.2a.9.9 0 0 1 .8 0 .9.9 0 0 1 .4.5l.1.3v.4a1 1 0 0 1-.9.5 1 1 0 0 1-.7-.2 1 1 0 0 1-.2-.7Zm3.4 0a1 1 0 0 1 .3-.6l.3-.2a.9.9 0 0 1 .7 0 .9.9 0 0 1 .5.5v.7a.9.9 0 0 1-.5.5 1 1 0 0 1-1-.2 1 1 0 0 1-.3-.7Zm11.2-2.3-1.4.1c-.4 0-.7.2-1 .3-.2 0-.4.2-.5.4l-.1.5v.4l.3.4.3.1h.5a2.4 2.4 0 0 0 1-.1l.5-.3.4-.4v-1.4Zm-4-3a4 4 0 0 1 1.3-.8 4 4 0 0 1 1.5-.3c.4 0 .8 0 1.1.2a2.2 2.2 0 0 1 1.3 1.4l.1 1.1v4.5h-.9l-.1-.3-.2-.6-.5.4-.6.4a2.9 2.9 0 0 1-1.3.2h-.8l-.7-.4-.4-.6a2 2 0 0 1-.1-.8c0-.3 0-.6.2-.9l.7-.7 1.4-.5 2-.2v-.5c0-.5-.1-1-.3-1.2-.3-.3-.6-.4-1-.4a2.2 2.2 0 0 0-1.3.4l-.4.2-.3.1h-.3l-.2-.2-.2-.5Zm8.6 0 .5-.4a3 3 0 0 1 1.8-.7c.4 0 .8 0 1 .2.3.1.6.3.8.6l.4.8c.2.3.2.7.2 1.1V85h-1.4v-4.5c0-.5 0-.9-.3-1.2-.3-.3-.6-.4-1-.4a2 2 0 0 0-1 .2l-1 .7V85h-1.3v-7h.8c.2 0 .3 0 .4.2v.7Zm11.3.7a2 2 0 0 0-.8-.6 2 2 0 0 0-.8-.1c-.7 0-1.1.2-1.5.6-.3.5-.5 1.1-.5 2l.1 1.2.4.7.5.5.7.1c.4 0 .8 0 1-.2l.9-.8v-3.4Zm1.3-4.9v10.3h-.8c-.2 0-.3 0-.3-.2l-.2-.9-1 1-1.3.2c-.4 0-.8 0-1.1-.2l-.9-.7-.5-1.1a5.8 5.8 0 0 1 0-3l.6-1.2a2.8 2.8 0 0 1 2.3-1.1c.4 0 .8 0 1 .2.4.1.6.3.9.6v-3.9h1.3Zm5.8 10.3v-7h.8c.2 0 .3 0 .3.2l.1.7 1-.8a2 2 0 0 1 1-.3c.5 0 .9.1 1.2.4.3.3.5.6.6 1a2.2 2.2 0 0 1 1.6-1.3 3 3 0 0 1 1.7 0l.8.6c.2.2.3.5.4.9l.2 1.1V85h-1.4v-4.5c0-.5 0-1-.3-1.2-.3-.3-.6-.4-1-.4a1.5 1.5 0 0 0-1 .4l-.4.5V85h-1.5v-4.5c0-.5 0-1-.3-1.2-.2-.3-.5-.4-1-.4-.2 0-.5 0-.8.2l-.7.7V85h-1.3Zm15.5-3.1-1.4.1c-.4 0-.7.2-1 .3-.2 0-.4.2-.5.4l-.1.5v.4l.3.4.3.1h.5a2.4 2.4 0 0 0 1-.1l.5-.3.4-.4v-1.4Zm-4-3a4 4 0 0 1 1.3-.8 4 4 0 0 1 1.5-.3c.4 0 .8 0 1 .2a2.2 2.2 0 0 1 1.4 1.4l.1 1.1v4.5h-.9l-.2-.3-.1-.6-.5.4-.6.4a2.9 2.9 0 0 1-1.3.2h-.8l-.7-.4-.4-.6a2 2 0 0 1-.2-.8l.3-.9.7-.7 1.4-.5 2-.2v-.5c0-.5-.1-1-.3-1.2-.3-.3-.6-.4-1-.4a2.2 2.2 0 0 0-1.3.4l-.4.2-.4.1h-.2l-.2-.2-.2-.5Zm8.6 0 .5-.4a3 3 0 0 1 1.8-.7c.4 0 .7 0 1 .2.3.1.6.3.8.6l.4.8.2 1.1V85h-1.4v-4.5c0-.5 0-.9-.3-1.2-.3-.3-.6-.4-1.1-.4a2 2 0 0 0-1 .2l-.8.7V85h-1.4v-7h.8c.2 0 .3 0 .4.2v.7Zm12.7-1-4 9.2-.1.2-.3.1h-1l1.3-2.8-3-6.7h1.2l.3.1.2.2 1.8 4.3a5.6 5.6 0 0 1 .2.6 7.6 7.6 0 0 1 .2-.6L237 78l.2-.2h1.3Zm4.5 7.1v-7h.9c.1 0 .3 0 .3.2l.1.7.9-.8a2 2 0 0 1 1.1-.3c.5 0 .9.1 1.2.4.2.3.5.6.6 1a2.2 2.2 0 0 1 1.6-1.3 3 3 0 0 1 1.7 0l.7.6c.2.2.4.5.5.9l.2 1.1V85h-1.4v-4.5c0-.5-.1-1-.4-1.2-.2-.3-.5-.4-1-.4a1.5 1.5 0 0 0-1 .4l-.3.5-.1.7V85h-1.4v-4.5c0-.5-.1-1-.3-1.2-.2-.3-.6-.4-1-.4-.3 0-.6 0-.8.2l-.7.7V85h-1.4Zm14.8-7.2c.5 0 1 .1 1.4.3.4.1.8.4 1 .7.4.3.6.7.8 1.2l.2 1.5c0 .5 0 1-.2 1.5l-.7 1.1a3 3 0 0 1-1.1.8c-.4.2-.9.2-1.4.2-.6 0-1 0-1.5-.2a3 3 0 0 1-1.7-2 3.7 3.7 0 0 1 0-2.9c.1-.5.4-.9.7-1.2a3 3 0 0 1 1-.7l1.5-.3Zm0 6.3c.6 0 1.1-.3 1.5-.7.3-.5.5-1.1.5-2 0-.7-.2-1.4-.5-1.8-.4-.5-.9-.7-1.5-.7-.7 0-1.2.2-1.6.7-.3.4-.4 1-.4 1.9 0 .8.1 1.4.4 1.9.4.4.9.7 1.6.7Zm6.3-4.8c.3-.5.5-.8.9-1.1.3-.3.7-.4 1.1-.4a1.6 1.6 0 0 1 .8.2v1c-.1.2-.2.2-.3.2h-.3a2 2 0 0 0-1 0l-.4.3-.4.5-.3.6v4.4H263v-7h1l.2.3v1Zm8.5 1.4-.1-.8-.4-.6c-.1-.1-.3-.3-.5-.3l-.8-.2c-.5 0-1 .2-1.3.5-.4.3-.6.8-.7 1.4h3.8Zm1.1 3.3a2.8 2.8 0 0 1-1.3.9 4.2 4.2 0 0 1-1.5.2c-.5 0-1 0-1.4-.2a3.1 3.1 0 0 1-1.8-2 5 5 0 0 1 0-3c.1-.4.4-.7.6-1a3 3 0 0 1 1.1-.8 3.5 3.5 0 0 1 2.6 0 2.6 2.6 0 0 1 1.6 1.5l.2 1.4v.4l-.3.1h-4.7c0 .5 0 .8.2 1.1l.4.8.7.5.9.2.8-.1a3.9 3.9 0 0 0 1-.5l.2-.1.3.1.4.5Zm1.5.2v-.3l.2-.3.3-.2a.9.9 0 0 1 .8 0 .9.9 0 0 1 .5.5v.7a1 1 0 0 1-.9.5 1 1 0 0 1-.7-.2 1 1 0 0 1-.2-.7Z"/><defs><clipPath id="a"><path fill="#fff" d="M0 3.4h49.5V17H0z"/></clipPath><clipPath id="b"><path fill="#fff" d="M70.5 4.6h46.2v11.3H70.5z"/></clipPath><clipPath id="c"><path fill="#fff" d="M137.8 3.7h35.3v13.1h-35.3z"/></clipPath><clipPath id="d"><path fill="#fff" d="M194.2 4.2h42.4v12h-42.4z"/></clipPath><clipPath id="e"><path fill="#fff" d="M257.6 0H278v20.5h-20.4z"/></clipPath><clipPath id="f"><path fill="#fff" d="M0 36.8h116.5v15.7H0z"/></clipPath><clipPath id="g"><path fill="#fff" d="M129.7 36.5h50v16.4h-50z"/></clipPath><clipPath id="h"><path fill="#fff" d="M193 38.1h85v13.2h-85z"/></clipPath><clipPath id="i"><path fill="#fff" d="M0 69.6h127v19.7H0z"/></clipPath></defs></svg>