<svg xmlns="http://www.w3.org/2000/svg" xml:space="preserve" fill-rule="evenodd" stroke-linejoin="round" stroke-miterlimit="2" clip-rule="evenodd" viewBox="0 0 278 128"><clipPath id="a"><path d="M0 0h54.4v15H0z"/></clipPath><g clip-path="url(#a)"><path fill="#577291" fill-rule="nonzero" d="m1.4 13.8-.6 1H0V10h.5c.8 2.2 2 4.3 4.4 4.3 1.7 0 2.5-1 2.5-2.6 0-1.3-.6-2.2-1.9-2.8L2.6 7.7A3.7 3.7 0 0 1 .3 4.1C.3 1.9 2 .2 4.3.2c1 0 2.2.5 3 1l.5-.9h.7L8.6 5h-.4c-.8-2.3-1.7-4-4.3-4A2 2 0 0 0 2 3c0 1.3.6 2 1.7 2.7l2.8 1.2c1.5.8 2.7 1.6 2.7 3.8 0 2.5-2 4.3-4.5 4.3a5.8 5.8 0 0 1-3.3-1.2Zm8.2-4c0-2.5 1.6-4.8 4.2-4.8 2 0 3 1 3 2.3 0 .7-.4 1.2-1.1 1.2-.4 0-1.1-.2-1.1-1 0-.9.2-1 .2-1.3-.1-.6-.4-.7-1-.7-1.1 0-2.2 1-2.2 4.2 0 2.5 1 4.2 2.5 4.2 1.3 0 2.1-.6 2.7-1.8l.4.3c-.7 1.3-2 2.5-3.5 2.5-2.7 0-4-2.2-4-5Zm8.7-8.5c0-.7.6-1.3 1.3-1.3.7 0 1.2.5 1.2 1.2 0 .8-.5 1.4-1.2 1.4s-1.3-.6-1.3-1.3Zm-.9 12.9.9-.2c.3-.1.5-.5.5-1V7.2c0-.4-.2-.8-.5-1-.2-.2-.8-.4-1.1-.4v-.4l3.3-.2.1.1V13c0 .4.2.7.5 1l.9.2v.4h-4.5v-.4Zm10-5.6c0-1.5-.2-3.1-1.5-3.1-1.2 0-2 1.2-2 3.2h3.5ZM22 9.8C22 7.3 23.4 5 26 5s3.5 1.8 3.5 4H24v.3c0 2.6.8 4.5 2.7 4.5 1.4 0 1.9-.6 2.6-1.8l.4.2c-.7 1.5-2 2.5-3.5 2.5-2.9 0-4.2-2.2-4.2-5Zm7.7 4.3.9-.2c.3-.1.5-.4.5-1V7.2c0-.4-.2-.8-.5-1-.2-.2-.6-.4-1-.4v-.4l3.2-.2.1.1v1.4c.8-.8 1.5-1.7 3-1.7 1.7 0 2.5 1.3 2.5 3.3V13c0 .5.2.8.5 1l.8.2v.4h-4.5V14l.8-.2c.4-.1.5-.4.5-1V8.2c0-1.4-.7-2.1-1.4-2.1-1.3 0-2 .8-2.2 1.3V13c0 .4.1.7.4.9.3.2.6.2.9.2v.4h-4.5v-.3Zm9.7-4.3C39.4 7.3 41 5 43.5 5c2 0 3 1 3 2.3 0 .7-.5 1.2-1.1 1.2-.4 0-1.1-.3-1.1-1 0-.9.2-1 .2-1.3-.1-.6-.4-.7-1-.7-1.1 0-2.1 1-2.1 4.1 0 2.5.8 4.2 2.4 4.2 1.3 0 2-.6 2.6-1.8l.5.3c-.7 1.3-2 2.5-3.5 2.5-2.7 0-4-2.2-4-5Zm13-1.2c0-1.5-.2-3.1-1.5-3.1-1.2 0-2 1.2-2 3.2l3.5-.1Zm-5.5 1.2c0-2.5 1.5-4.8 4-4.8s3.5 1.8 3.5 3.9v.2h-5.5v.2c0 2.7.8 4.5 2.7 4.5 1.4 0 1.9-.5 2.5-1.8l.4.2c-.6 1.5-1.9 2.5-3.4 2.5-2.9 0-4.2-2.2-4.2-5Z"/></g><clipPath id="b"><path d="M70.4 1.3h50.8v12.4H70.4z"/></clipPath><g clip-path="url(#b)"><path fill="#577291" fill-rule="nonzero" d="M73.7 3.4v2.2A3.2 3.2 0 0 1 77 3.3c2 0 2.7 1 2.7 3v3.9c0 1.2 0 2.4.3 3.3h-3.3c.3-.9.3-2 .3-3.2V6.6c0-.9-.3-1.3-1.3-1.3-.8 0-1.3.2-1.8.6v4.4c0 1.3 0 2.3.3 3.2h-3.3c.3-.9.4-2.1.4-3.3V6.6c0-1-.4-1.8-.8-2.3l3.3-.9Zm12 8.2V8a3 3 0 0 1-1.2.8c-1 .5-1.3 1-1.3 2 0 .9.5 1.4 1.2 1.4.8 0 1-.2 1.2-.6Zm-1-8.2c2.6 0 3.6 1 3.6 3v4.4c0 .8.3 1 1 1h.4l-.1.5c-.3 1-.8 1.4-2 1.4s-1.8-.9-1.8-1.8c-.5 1.3-1.3 1.8-2.6 1.8-1.6 0-2.6-1-2.6-2.5S82 9 83.5 8.4c1.4-.5 2.2-1 2.2-2v-.2c0-1.1-.4-1.7-1.4-1.7-.7 0-1 .3-1 1-.3 1-.6 1.3-1.3 1.3-.5 0-1-.4-1-1.1-.1-1.4 1.8-2.3 3.8-2.3Zm10.8 9c-.3.8-1.2 1.3-2.3 1.3-2 0-2.9-1-2.9-2.9V5h-1v-.1L93 1.3v2.3h2.6L95.3 5H93v5.4c0 1 .4 1.5 1.3 1.5.8 0 1.1-.1 1.5-.3l-.3.8Zm3.7-8.9v6.9c0 1 .4 1.6 1.4 1.6.8 0 1.4-.3 1.8-.8V6.6c0-1 0-1.9-.4-2.8l3-.3v7c0 1.6.2 2.3.4 3h-3v-2c-.4 1.3-1.2 2.2-3 2.2-2 0-2.9-1.3-2.9-3.2v-4a8 8 0 0 0-.4-2.7l3-.3Zm10 2.4c.4-1.8 1.3-2.6 2.4-2.6 1 0 1.5.6 1.5 1.4 0 .8-.4 1.4-1.2 1.4-.4 0-.7-.2-1-.4-.1-.2-.3-.5-.5-.5-.6 0-1.1 1-1.1 2.4v2.5c0 1.2 0 2.5.3 3.4h-3.3c.3-1 .3-2.2.3-3.3V6.6c0-1-.3-1.8-.7-2.3l3.2-.9V6Zm6.2 1.5 3.4-.4c0-1.5-.3-2.5-1.4-2.5-1.1 0-1.8 1-2 2.9Zm2 6.3c-2.5 0-4.6-1.7-4.6-5 0-3.2 2-5.4 4.7-5.4 2.5 0 3.8 1.6 3.8 4.7h-5.9v.3c0 2.5 1.3 3.5 3 3.5 1.6 0 2.3-.6 2.8-1.1v.1a3.8 3.8 0 0 1-3.8 3Z"/></g><clipPath id="c"><path d="M137.3.8h46.6v13.3h-46.6z"/></clipPath><g clip-path="url(#c)"><path fill="#577291" d="m180.1 10.7-1 .4a5.4 5.4 0 0 1-3 0c-.5-.2-.9-.5-1.2-.8L174 9l-.2-1.6c0-.6 0-1.1.2-1.6a3.3 3.3 0 0 1 2-2 5.3 5.3 0 0 1 3.8.2l.1 1.5a3.4 3.4 0 0 0-2-.6c-.5 0-1 .1-1.3.3a2 2 0 0 0-.8.8c-.2.4-.3.8-.3 1.4 0 .5 0 1 .2 1.3.2.4.5.6.9.8.3.2.8.3 1.3.3a4 4 0 0 0 2.1-.6v1.4Zm-9.6 3.4h13.3V.8h-13.3v13.3ZM141 3.7h2.8a4 4 0 0 1 2 .5c.4.4.6.8.6 1.5 0 .3 0 .6-.2.9-.2.3-.4.5-.7.6l1 .7c.2.3.3.7.3 1.2 0 .4-.1.8-.3 1.1l-1 .8a4 4 0 0 1-1.5.2h-3V3.7Zm-3.7 10.4h13.3V.8h-13.3v13.3Zm6.4-9.1c.8 0 1.2.3 1.2.9 0 .3-.1.5-.3.7-.2.2-.5.3-1 .3h-1v-2h1Zm.2 3h-1.4v2h1.3c.5 0 .8 0 1-.2.3-.2.5-.4.5-.7 0-.7-.5-1-1.4-1Zm13.7-4.3h2.9c.8 0 1.4.2 1.9.5.4.4.7.8.7 1.5l-.3.9c-.1.3-.4.5-.7.6.4.2.8.4 1 .7.2.3.4.7.4 1.2 0 .4-.2.8-.4 1.1a2 2 0 0 1-1 .8 4 4 0 0 1-1.5.2h-3V3.7ZM154 14.1h13.3V.8H154v13.3Zm6.4-9.1c.8 0 1.2.3 1.2.9 0 .3 0 .5-.3.7-.2.2-.5.3-.9.3h-1.1v-2h1.1Zm.2 3h-1.3v2h1.3c.4 0 .8 0 1-.2.3-.2.4-.4.4-.7 0-.7-.5-1-1.4-1Z"/></g><path fill="#577291" fill-rule="nonzero" d="M213.3.6h.4V.4h-5.1l-.1.2h.8c.6 0 1.2.5 1.2 1.4 0 .5-.3 1.2-.6 2l-3.4 7.5-.9-9.8c0-.7.4-1 1.2-1h.5V.3H200l-.1.2h.5c.5 0 .8.4.8 1l1.3 12.7h3.1l5.3-11c.8-1.7 1.6-2.7 2.4-2.7Zm-.6 13.7c-.5 0-.8-.1-.8-.9 0-1 .4-3 .8-4.7 0 .8.6 1.6 1.5 1.6h.5c-.8 3.3-1 4-2 4Zm14.8-6.6c1 0 1.6-.8 1.6-1.7 0-.8-.5-1.4-1.3-1.4-1.5 0-2.2 1.1-3.4 3.3-.2-1.4-.8-3-2.3-3-1.7 0-3.7 2.4-5.5 3.9-.9.7-1.8 1.1-2.5 1.1-.8 0-1.2-.7-1.2-2 .5-2.3.8-2.8 1.6-2.8.6 0 .8.3.8 1s-.1 1.8-.4 3.3c.8-.2 2-1.3 3-2.4a3.5 3.5 0 0 0-3.3-2.1 6 6 0 0 0-5.9 5.9c0 2.1 1.6 3.8 4 3.8 4 0 5.6-3.4 5.6-5.8v-1c.5-.6 1.3-1.2 2-1.2s1.3 1.8 1.8 4.6c-.5.5-1 1.6-1.2 1.8-.1-1-.8-1.6-1.6-1.6-1 0-1.7 1-1.7 1.7 0 .9.6 1.5 1.4 1.5 1.7 0 2.2-1.6 3.2-3 .4 1.5 1.1 3 2.4 3 1.6 0 3-1.3 3.7-2.3l-.1-.2c-.5.5-1 .8-1.5.8-1 0-1.6-2-2.2-4.6.4-.4.8-1.5 1.2-1.9.2.5.7 1.3 1.8 1.3Z"/><clipPath id="d"><path d="M0 33.8h35.4v16.8H0z"/></clipPath><g clip-path="url(#d)"><path fill="#577291" fill-rule="nonzero" d="M14.8 33.8a3 3 0 0 0-3 3.1v8.3c0 .3-.2.5-.5.5H8.7c-5.6 0-5-7.1-.3-7.1h2.8v-2h-3c-1.8 0-3.2.7-4.1 1.7-1 1-1.4 2.5-1.4 3.9 0 1.3.4 2.7 1.4 3.8a6 6 0 0 0 4.4 1.7h4.9c.3 0 .5-.2.5-.5v-10c0-.6.3-1 .7-1.2.4-.1.9 0 1.2.5a1169.8 1169.8 0 0 0 6 9.6l.6 1 .3.5.4.2.1-.2V37.1c0-.5.4-1 .8-1 .4-.2.9 0 1.2.4a1304.7 1304.7 0 0 0 6.9 11c0 .2.2.3.4.3l.1-.2V33.9h-2v7.8L27.4 36c-2.1-3.6-6-2-6 1v4.8L17.9 36c-.9-1.4-2-2-3-2Zm-6.1 0C-3 33.9-3 50.5 8.8 50.5h4.6c2 0 3.2-1.1 3.2-3.3V43l3.6 6c1.7 2.8 5.8 2.2 5.8-1.3V43l3.5 6c1.8 2.8 5.9 2.2 5.9-1.3V33.9h-2v13.4c0 .6-.4 1-.7 1-.5.2-.9 0-1.2-.4l-6.9-11c0-.2-.3-.3-.4-.2-.2 0-.3.2-.3.4v10.2c0 .6-.3 1-.6 1-.4.2-.9 0-1.2-.4l-.2-.4-.7-1a5824.7 5824.7 0 0 1-6-9.7c0-.1-.3-.2-.4-.1-.2 0-.3.2-.3.4v10.1c0 .7-.5 1.2-1.1 1.2h-5c-2.1 0-3.8-.8-4.8-2A6.3 6.3 0 0 1 2 42.2a6.1 6.1 0 0 1 6.3-6.3h3v-2H8.6Z"/></g><path fill="#577291" fill-rule="nonzero" d="M61.9 35c0-1.6-1.5-2-2.6-2v.3c.7 0 1.2.2 1.2.7 0 .3-.2.8-1 .8l-2.4-.6a8 8 0 0 0-2.7-.7 2.5 2.5 0 0 0-2.6 2.4c0 1.2.9 1.5 1.2 1.7v-.2c-.1-.1-.3-.3-.3-.7 0-.3.3-.9 1-.9s1.6.4 2.8.7c1.1.3 2.2.6 2.9.6v2.4l-1.2 1 1.2 1v3.3c-.7.4-1.3.5-2 .5-1 0-2-.3-3-1.2l3.2-1.6v-5.2L53.8 39a4 4 0 0 1 2-2.2v-.2c-2.4.6-4.4 2.7-4.4 5.3 0 3 2.5 5.4 5.3 5.4 3 0 5-2.5 5-5h-.1a5 5 0 0 1-2 2.4v-3.2l1.2-1-1.2-1v-2.4c1.1 0 2.3-.7 2.3-2.2Zm-6.6 8.3-1 .5c-.5-.7-.8-1.6-.8-3 0-.5 0-1 .2-1.5l1.6-.7v4.7Zm8 1.7-1 .8.2.2.4-.4 1.7 1.5 2.3-1.5v-.2l-.7.4-.8-.8v-5l.6-.5 1.3 1v4.7c0 3-.6 3.4-1.9 3.8v.3c2.2 0 4.1-.7 4.1-4.4v-5l.7-.5-.1-.2-.6.5-2-1.6-2 1.6v-6.3h-.2l-2.7 1.9v.1c.3.2.8.3.8 1.2V45Zm14-.8-2 1.5-1.9-1.6v-.9l3.6-2.4-1.8-2.8-4 2.1v5l-.7.6.1.2.7-.5 2.6 1.9 3.4-2.8v-.3Zm-4-1.2v-3.7h.2l1.6 2.6-1.8 1.1Zm18.3-8.6-.1-.7h-.2c-.2.6-.5.9-1.3.9a2 2 0 0 1-1.4-.7l-2.2 2.5.1.2.8-.7c.5.4.8.7 2 .7v6.3l-4.6-7.6c-.4-.6-.9-1.5-2-1.5-1.2 0-2.2 1-2 2.8h.1c.1-.5.3-1 .9-1 .4 0 .7.3 1 .7v2.5c-1.4 0-2.3.6-2.3 1.8 0 .6.3 1.5 1.2 1.7v-.1a.7.7 0 0 1-.2-.6c0-.3.3-.6.8-.6h.4v3c-1.6 0-2.9.9-2.9 2.4 0 1.4 1.2 2.1 2.6 2v-.1c-.8 0-1.2-.5-1.2-1 0-.7.4-1 1-1s1.2.4 1.6.9l2.2-2.5-.2-.1-.5.6a4 4 0 0 0-2.3-1.2v-7.6l6 10.7h.5V36.5c1.2 0 2.2-1 2.2-2.2Zm5.6 10-2 1.4-1.8-1.6v-.9l3.6-2.4-1.9-2.8-4 2.1v5l-.7.6.2.2.7-.5 2.5 1.9 3.5-2.8-.1-.3ZM93.4 43v-3.7h.1l1.7 2.6-1.8 1.1Zm16.2-4-.6.3-1.4-1.2-1.7 1.5.7.7V46l-1.8-1.2V40l.6-.4-1.7-1.6-1.7 1.5.7.7v5.5l-.3.1-1.6-1.1V40c0-1-.5-1.4-1.1-1.7-.5-.4-.8-.7-.8-1.2 0-.4.4-.7.6-.8v-.2c-.6 0-2.2.6-2.2 2 0 .8.4 1.1.8 1.5.4.4.8.7.8 1.4v4.4l-.9.6.2.2.7-.6 1.8 1.5 1.9-1.3 2.1 1.3 4-2.4v-5l1-.8-.1-.2Zm14.1-4.3-.7.7-1.7-1.5-2.5 1.8V34h-.2v12.4l-1.4-.3-.2-10.3c0-.8-.5-1.8-1.9-1.8-1.3 0-2.3 1-2.3 2.1h.3c0-.5.3-.8.7-.8.5 0 .9.3.9 1.3v3c-1.4 0-2.2.8-2.2 1.7 0 .7.3 1.6 1.2 1.6v-.2a.6.6 0 0 1-.4-.5c0-.5.4-.6 1-.6h.3v4.7c-1.1.4-1.6 1.2-1.6 2.1 0 1.3 1 2.2 2.5 2.2 1 0 2-.1 2.9-.4l2.2-.3c.6 0 .8.3.8.6 0 .6-.2.8-.5.9v.1c1.2-.2 2-1 2-2.1s-1.2-1.8-2.4-1.8l-2.8.4-2.4.3c-.6 0-1.2-.2-1.2-1 0-.6.6-1 1.9-1 .7 0 1.5 0 2.3.2 1 .2 1.8.5 2.5.5 1.2 0 2.2-.4 2.2-2v-9.4l.9-.7-.2-.2Zm-3.1 4.7c-.2.2-.5.4-1 .4-.3 0-.7-.2-.8-.4V36l.7-.5 1.1 1v2.9Zm0 2.3c-.1-.2-.5-.4-1-.4-.3 0-.7.2-.8.3v-2c.1.2.5.5.9.5s.8-.3.9-.4v2Zm0 3.5c0 .6-.4 1.2-1.2 1.2h-.6V42c.1-.2.5-.4.9-.4s.7.2.9.4v3Zm10.4-5.4-2.4-1.7L125 40v5l-.8.6v.1l.7-.4 2.4 1.8 3.8-2.3v-5.2Zm-4 4.8V39l1.8 1.4v5.4l-1.9-1.3Zm11.2-6.4h-.1a1 1 0 0 1-.7.3c-.3 0-.7-.1-.8-.3h-.2l-1.3 1.4-1.3-1.4-2.3 1.5.1.1.6-.4.8.9V45l-1 .7.2.2.4-.4 1.8 1.5 2.4-1.6v-.1l-.8.4-.9-.8v-5.3c.4.4.9.7 1.4.7 1 .1 1.7-1 1.7-2.2Zm9.2 7.3-2.6 1.8-3.5-5.3 2.5-4h.1c.3.4.8.7 1.3.7.6 0 1-.3 1.2-.6h.1c0 1.5-1.1 2.4-1.9 2.4-.7 0-1.1-.4-1.6-.6l-.2.4 3.8 5.6.8-.4ZM139 45l-1 .8.2.2.4-.4 1.7 1.5 2.3-1.5-.2-.2-.6.4-.7-.8V33.3h-.1l-2.8 1.9v.1c.3.2.8.2.8 1.2V45Zm21-10c0-1.6-1.5-2-2.6-2v.3c.7 0 1.2.2 1.2.7 0 .3-.2.8-.9.8-.5 0-1.7-.3-2.5-.6-1-.3-2-.6-2.7-.6A2.5 2.5 0 0 0 150 36c0 1.1.9 1.5 1.2 1.7v-.2c-.2-.1-.4-.3-.4-.7 0-.3.3-.9 1-.9.8 0 1.7.3 2.9.7l2.8.6v2.4l-1.1 1 1.1 1V45c-.6.4-1.3.5-1.9.5-1.1 0-2.1-.4-3-1.3l3.1-1.5v-5.3L152 39a5 5 0 0 1 2-2.2v-.2c-2.3.6-4.4 2.7-4.4 5.3 0 3 2.5 5.3 5.3 5.3 3 0 5-2.5 5-5h-.1a5 5 0 0 1-2 2.4v-3.1l1.2-1-1.1-1V37c1.1 0 2.3-.7 2.3-2.2Zm-6.6 8.3-1 .5c-.5-.7-.8-1.6-.8-3 0-.5 0-1 .2-1.5l1.6-.7v4.7Zm9.2-9.1-1.6 1.3 1.3 1.5h.2l1.5-1.3-1.4-1.5Zm2.3 11.2-.6.4-.7-.8v-5.2l.7-.5-.1-.2-.6.5-1.3-1.6-2.2 1.5.1.2.5-.4.7.9v5l-1 .7.1.1.5-.3 1.7 1.5 2.3-1.5v-.3Zm12.7 0-.5.3-.9-.7v-5.2l.8-.6-.1-.2-.7.6-1.7-1.6-2.3 1.6-1.7-1.6-2.2 1.6L167 38l-2.2 1.5v.2l.6-.4.7.9v5l-.6.5 1.8 1.5 1.7-1.5-.7-.7v-5.2l.7-.5 1 1.1V45l-.5.6 1.7 1.4 1.7-1.5-.7-.7v-5l.6-.4 1.2 1V45l-.5.6 1.8 1.6 2.3-1.6v-.2Zm6.6-1.2-1.9 1.5-1.9-1.6v-.9l3.6-2.4-1.8-2.8-4 2.1v5.2l2.7 1.9 3.4-2.8v-.2Zm-3.8-1.3v-3.7h.2l1.7 2.6-1.9 1.1Zm10.7-.7-1.4-1.1c1-.8 1.4-2 1.4-2.7v-.5h-.2c-.1.4-.4.8-1 .8-.7 0-1-.3-1.4-.8l-3.4 1.9v2.7l1.3 1c-1.3 1.2-1.6 2-1.6 2.5 0 .8.4 1.3 1 1.6l.1-.2c-.1-.1-.3-.2-.3-.6 0-.2.3-.6 1-.6s1.1.5 1.4.7l3.2-2v-2.7Zm-.8-2.2c-.5.9-1.7 1.8-2.3 2.2l-.9-.7V39a2.3 2.3 0 0 0 3.2 1Zm-1.3 6a2.5 2.5 0 0 0-2.2-1.4c-.2 0-.8 0-1.4.4.4-.6 1.3-1.7 2.6-2.5l1 .8V46Z"/><clipPath id="e"><path d="M208 31h22.4v22.5H208z"/></clipPath><g fill-rule="nonzero" clip-path="url(#e)"><path fill="#dbe5f0" d="M208 31h22.5v22.5H208z"/><path fill="#577291" d="M213.7 42.7c0 1 .3 1.2 1.5 1.2v.4h-4.8V44c1 0 1.3-.1 1.3-1.2v-7c0-1-.3-1.1-1.3-1.2v-.3h8.5v2.2h-.3c-.4-1.1-.8-1.5-2.8-1.5h-1.5c-.5 0-.6.1-.6.5v3.2h.8c1.6 0 2-.2 2.1-1.3h.4V41h-.4c-.2-1.2-.8-1.5-2.1-1.5h-.8v3.3Zm14.8-8.5h-8.9l-.2 2.2h.5c.4-1.1.8-1.5 2-1.5h1.2v7.8c0 1-.3 1.2-1.5 1.2v.4h5V44c-1.2 0-1.5-.1-1.5-1.2V35h1.3c1 0 1.5.4 1.8 1.5h.5l-.2-2.2Z"/></g><clipPath id="f"><path d="M0 69.5h60.4v19.9H0z"/></clipPath><g clip-path="url(#f)"><path fill="#577291" fill-rule="nonzero" d="m13.7 80 .6-.2.4-.3v-8.2h-.6l-.3.1-1.1 1.6-.6.7c0 .1 0 .2-.3.2v-1.4l.1-1V71h8.5v2.9h-.2l-.2-.3-.7-1-.8-1s0-.2-.2-.3h-.8v8.2c0 .2.4.3.5.3l.5.3v.3h-4.8V80Zm7.6-.3v-9.1l-.4-.2-.4-.2v-.1l.4-.1.5-.1 1.3-.2.7-.2h.3V74c.8-.8 2.2-1.2 3.2-1 1 .3 1.3 1.1 1.3 2v4.7l.1.1.5.3v.3H25V80l.3-.2.3-.2V75c0-.4 0-.8-.4-1l-.7-.1h-.4l-.5.3v5.5l.2.1.5.3v.3h-3.8V80l.3-.2.4-.2ZM31 77c0 .9.3 1.9 1.2 2.4.4.2 1 .3 1.4.3.6 0 1.1-.4 1.6-.6v.3l-.2.2a3.6 3.6 0 0 1-1.4 1c-.8.2-1.7.2-2.5 0-.6-.2-1.2-.5-1.6-1a3 3 0 0 1-.8-1.8c-.2-1.4 0-3 1.2-4a4 4 0 0 1 3.9-.5c1.4.6 1.7 2.3 1.7 3.7H31Zm0-.4h2l.2-.1V76c0-.8 0-1.7-.5-2.3-.3-.5-.8-.4-1 0-.6.8-.7 2-.7 3ZM0 84a6 6 0 0 1 .8-3.3c.7-1 1.6-1.5 2.7-1.8a9 9 0 0 1 4.9 0l.2.2c.1.3 0 .6 0 .8l.1 2h-.3v-.2c-.3-.2-.4-.5-.6-.8l-1-1.6c-.2-.3-.7-.3-1-.3a2 2 0 0 0-1 .2c-.8.5-1.1 1.3-1.3 2-.3 1.3-.3 2.5-.2 3.8 0 .9.1 1.9.5 2.8.2.5.6 1 1.2 1l.6.1c.1 0 .5 0 .6-.2V85l-.5-.2-.4-.3v-.3h4.5v.4l-.3.2-.4.2c-.2.1-.2.1-.2.3v3.5l-.5.2a9.5 9.5 0 0 1-3.3.4c-1.1 0-2.3-.3-3.3-1a4.3 4.3 0 0 1-1.6-2.5A6 6 0 0 1 0 84Zm9.4-1.8v-.3h.5l1.4-.3 1.1-.2h.4v5.2c0 .5-.1 1.4.4 1.7.2.2.6.2.9.1.2 0 .6-.2.7-.4v-5.5l-.3-.1-.4-.1-.2-.1v-.3h.5l2.5-.5h.3l.1.1v6.9h.1l.6.3h.1v.3H18c-.5 0-1 0-1.4.2l-1.2.1h-.5v-.9h-.1l-.6.4c-.6.5-1.5.6-2.3.5-.5-.1-1-.5-1.3-1-.2-.4-.2-.8-.2-1.3v-4.5l-.3-.1-.6-.2Zm19.3-.8h.3v2.2-.1c.3-.8.6-1.7 1.4-2h1v2.2a3.8 3.8 0 0 0-2.2.3h-.1v4.4l.2.2.3.2h.2v.4h-4v-.3l.4-.3s.2 0 .3-.2v-6h-.2l-.4-.1s-.4-.1-.3-.3h.2l2.7-.6h.2Zm7.7.2v-2.4h-.1l-.5-.3-.2-.1v-.1l.8-.2c.7 0 1.3-.2 2-.3h.6v10.2l.5.1.3.1v.3h-.1l-.9.1-1.9.3h-.4v-.8l-.5.4c-.3.1-.5.3-.8.3a3 3 0 0 1-1.4 0c-2-.4-2.4-2.7-2.3-4.4.1-1 .4-1.8 1-2.5.6-.6 1.4-.9 2.2-1 .6 0 1.2 0 1.7.3Zm0 6.5v-6l-.1-.2c-.3-.2-.7-.2-1-.1-.5.2-.7.7-.8 1.2-.2.8-.3 1.7-.2 2.5 0 .8 0 1.7.4 2.3.4.6 1.2.7 1.7.3Zm6.8-6.7h.3v7l.2.2.3.1.2.2v.3h-4v-.4h.3l.3-.3.1-.1v-5.8l-.2-.2-.4-.1-.3-.1v-.3h.7l.7-.2 1.6-.3h.2Zm.3-2c0 1.3-1.7 1.8-2.5.9-.3-.5-.3-1 0-1.6.3-.4.9-.6 1.4-.5.7.1 1.1.6 1.1 1.3Zm9 9v-6h-.2l-.4-.1-.2-.1v-.3h.1l2.7-.6h.5v.9h.2l.6-.4a4 4 0 0 1 2.4-.5c.6 0 1 .4 1.3 1l.1 1.1v5l.2.2.4.1.2.2v.2h-4v-.3h.1l.4-.2.2-.1v-4.9c0-.3 0-.6-.2-1-.2-.2-.5-.2-.7-.3l-.7.1s-.4.1-.4.3v5.7l.2.1.3.2.1.1v.3h-4v-.3l.2-.1.6-.2ZM48 84.8V83c0-.6-.2-1.3-.9-1.4h-.7l-.4.6-1 1.4-.2.3h-.2v-2.1l.5-.2 1.8-.3c.8 0 1.8 0 2.6.3.6.3 1 .8 1 1.5l.1 1v4.3h.2l.4.2.1.1v.2l-.5.1c-.7.3-2 .3-2.5-.4l-.2-.3-.4.3c-.3.3-.8.5-1.2.6-.8 0-1.7-.1-2.2-.8-.4-.6-.4-1.5-.1-2.2.5-1.2 2.2-1.3 3.3-1.5l.5-.1Zm0 3.4v-3c-.6 0-1.2 0-1.4.7-.2.5-.2 1-.1 1.5 0 .3 0 .7.4 1 .3.1.9.1 1.1-.2Zm-25.9-3.4V83c0-.6-.2-1.3-1-1.4h-.6l-.4.6-1 1.4-.2.3h-.3v-2.1l.6-.2 1.8-.3c.8 0 1.7 0 2.5.3.6.3 1 .8 1.1 1.5v5.4h.2l.5.1.1.1v.2l-.5.2c-.8.2-2 .2-2.5-.5l-.2-.3-.4.4a3 3 0 0 1-1.2.5c-.8 0-1.7 0-2.2-.8-.4-.6-.5-1.5-.2-2.2.6-1.2 2.2-1.3 3.4-1.5l.5-.1Zm0 3.4v-3c-.6 0-1.2 0-1.5.7v1.5c0 .3 0 .7.4 1 .3.1.8.1 1.1-.2Z"/></g><clipPath id="g"><path d="M76.4 72.3h38.8v14.4H76.4z"/></clipPath><g clip-path="url(#g)"><path fill="#577291" d="m107.2 81.2.7-1.7c1 .6 2 1 3.2 1 1.4 0 1.9-.5 1.9-1 0-.8-1-1-2.1-1.3-1.6-.4-3.5-.8-3.5-3 0-1.6 1.3-3 4-3 1.3 0 2.5.3 3.4 1l-.7 1.6a5 5 0 0 0-2.7-.7c-1.3 0-1.8.5-1.8 1 0 .8 1 1 2 1.3 1.7.4 3.6.8 3.6 2.9 0 1.6-1.3 3-4 3-1.6 0-3.2-.5-4-1.1Zm-22.4-5.3c0 2.2-1.6 3.5-4.2 3.5h-2v2.7h-2.2v-9.7h4.2c2.6 0 4.2 1.4 4.2 3.5Zm-2.3 0c0-1-.7-1.7-2-1.7h-1.9v3.4h1.9c1.3 0 2-.6 2-1.7ZM95 72.4v9.7h-1.8l-4.9-5.9v6h-2.2v-9.8H88l4.8 6v-6H95Zm4.2 7.6h4.5l.9 2.1h2.3l-4.3-9.7h-2.2L96 82.1h2.3l.9-2Zm2.3-5.4 1.5 3.7h-3l1.5-3.7Zm-25.1 9.8h38.8v2.2H76.4v-2.2Z"/></g><clipPath id="h"><path d="M131.2 71.4h102.7v16H131.2z"/></clipPath><g clip-path="url(#h)"><path fill="#577291" fill-rule="nonzero" d="M150.1 77.8c-1.1 0-2.1.9-3.3 2.5l-1.7 2.4c-.1.3-.3.3-.2 0l.9-2.2 3-8.4c.2-.3-1-.8-1.3-.3-.5 1.1-1.5 1.5-3.2 1.4-1.7 0-5.2-1-7.9-1-3.3 0-5.2 2-5.2 4.4 0 1.4 1 2.3 2.1 2.2a1 1 0 0 0 1.2-.8.6.6 0 0 0-.2-.6.6.6 0 0 0-.6-.1c-1.2.2-1.6-.6-1.6-1.2 0-1.5 1.3-2.6 4-2.6l3.4.3a392.7 392.7 0 0 1-4.3 12 1 1 0 0 1-.4.3l-1.3.3c-.6.2-.5.7 0 .7l2.5-.2 3 .1c.4 0 .5-.5.1-.6l-1.2-.2c-.5 0-.7-.2-.5-.7l4-11.5 2.2.3c1.2 0 2.2 0 3.2-.7l-2.5 6.9-2.1 5.9c-.4 1 1 1 1.3.4 1-2 2.3-4 3.6-5.9 1-1.3 1.8-2 2.4-2 .4 0 .7.2.7.7 0 .8-.4 1.9-1 3.8-1 2.5-1.3 3.2-1.6 3.2-.3 0-1-.7-1.2-.8a.7.7 0 0 0-.8.4c-.2.2 0 1.1 1.3 1.2 1.6 0 3-1.6 4-4.3.7-1.8.8-2.7.8-3.4 0-1.3-.6-2-1.6-2Zm27.8 8.7c-1-.3-1.4-.6-1.4-1v-1l.6-11.1c0-1-1-1-1.6-.4l-1 1.3-8.2 10.4c-.6.8-1.5 1.4-2.5 1.8-.3 0-.3.5.1.5l2.1-.2 2.5.1c.3 0 .5-.3 0-.5-1-.2-1.4-.4-1.4-.7 0-.2.2-.6.7-1.3l2.5-3.3h4.6l-.3 4.4v.4l-.4.2-1 .3c-.3 0-.4.6 0 .6l2.3-.2 2.3.2c.6 0 .5-.4.1-.5ZM175 79v1.1h-4l4-5.2c.1-.2.3-.1.3 0l-.3 4Zm-17.4-1.2c-1.7 0-3.7 2-4.6 5-1 3 0 4.3 1.2 4.3.8 0 2.2-1 3-2.3.2-.4 0-.9-.4-.4-.5.5-1.2 1.1-2 1-.4 0-.9-1-.2-3 1.7 0 3.7-1 4.2-2.6.5-1.4-.4-2-1.2-2Zm.2 1.5c-.4 1.3-1.9 2.3-3 2.6 1-2.7 2-3.5 2.7-3.4.3 0 .5.4.3.8Zm26-.4h1.5c.4 0 .6-.1.7-.4.1-.4 0-.5-.3-.5H184l.8-2.1c.1-.3 0-.4-.1-.4h-.9c-.2 0-.3 0-.4.3l-.8 2.2h-1.3c-.2 0-.4 0-.5.5 0 .3 0 .4.3.4h1.1l-2 5-.7 2.3c-.2.7.3 1 .8 1 1-.3 2.5-1.3 3.8-3 .4-.5 0-.8-.3-.4l-1.7 1.5c-.6.3-.8.1-.6-.4l2.2-6Zm18.2-.5c0-.3-.3-.4-1.3-.6-.2 0-.4.3-.9 1.3a2 2 0 0 0-1.7-.7c-1.4 0-3.3 1.4-4.8 3.4-1.2 1.7-1.5 2.8-1.3 4a1.5 1.5 0 0 0 1.5 1.2c1.1 0 2.2-1 3.3-2.2l.8-.7c.2-.2.3 0 .2.2-.4.6-.7 1.3-.9 2-.1.7.2.9.8.8 1-.1 2.7-1.1 4-2.8.3-.6 0-.8-.4-.4l-1.8 1.5c-.5.4-.8.3-.6-.1 0-.3.4-1 3-7Zm-4.7 5.3c-1.3 1.1-2.3 2-3 2-.5 0-.7-.2-.8-.6-.1-.9.7-2.2 1.4-3.1 1.1-1.5 2.6-2.8 3.5-2.8.6 0 1 .3 1 .6a7 7 0 0 1-2.1 3.8Zm28-6.1c-.9 0-2.2.7-3.5 2-.4.5 0 .8.3.5l1.4-1c.4-.3.7-.1.6.3l-.7 1.5-1.3 3.2-.9 2c-.2.6.2 1 .7 1 1 0 2.3-.8 3.5-2.2.4-.5.1-.8-.3-.5l-1.4 1.2c-.5.2-.8 0-.6-.4l.6-1.3 1.4-3.2 1-2.2c0-.6-.2-1-.7-1Zm1.3-5a1.2 1.2 0 0 0-1.2 1 1 1 0 0 0 .5 1.1l.4.2a1.2 1.2 0 0 0 1.2-1 1 1 0 0 0-.5-1.1 1 1 0 0 0-.4-.1Zm5.6 5.3c-1.8-.1-3.7 2-4.6 5-1 3 0 4.2 1.3 4.2.8 0 2.1-1 3-2.3.2-.4 0-.9-.4-.4-.5.5-1.2 1-1.8 1-.7 0-1.2-1-.4-3.2 1.1-3.2 2-3.5 2.3-3.6.3 0 1 1 1.4 1a.6.6 0 0 0 .8-.3c.2-.3 0-1.4-1.6-1.4Zm-11.5.1h-1.6l.8-2.1c0-.3 0-.4-.2-.4h-.8c-.3 0-.3 0-.4.3l-.9 2.2h-1.3c-.2 0-.3 0-.4.5 0 .3 0 .4.2.4h1.2l-2 5-.8 2.3c-.1.7.3 1 .8 1 1-.3 2.5-1.3 3.9-3 .3-.5 0-.8-.3-.4l-1.8 1.5c-.5.3-.8.1-.6-.4l2.3-6h1.6c.4 0 .5-.1.6-.4.2-.3 0-.5-.3-.5Zm-30.5 5.7-1.8 1.6c-.5.3-.8.1-.6-.4l5-13c0-.3 0-.6-.3-.6l-3 .4s-.2.3 0 .3l1.1.4c.2.1.3.2.1.6l-4.2 11-.8 2.2c-.1.7.3 1 .8 1a8.3 8.3 0 0 0 4-3c.4-.6 0-.9-.3-.5Zm20.8 0 1.2-2.4c.7-1.3.8-1.9.8-2.3 0-.9-.5-1.3-1.4-1.3-1.2 0-2.3 1-3.8 3.2l-1.3 1.7c-.2.2-.3.2-.2 0l.8-2 .6-2.1c0-.6-.2-.8-.8-.8-.6 0-1.5.4-3 2.3-.6.7 0 .8.2.5l1.3-1.3c.5-.4.9-.3.7.2a9 9 0 0 1-.4 1l-2.4 6c-.3.7 1.2 1 1.5.3.8-2 2.7-4.3 3.4-5.4 1.1-1.5 2-2.6 2.7-2.6.4 0 .6.2.6.6l-.3 1-1.7 3.6-1 2.2c-.2.6.1 1 .7 1 1 0 2.2-.8 3.5-2.2.4-.5.1-.8-.3-.5l-1.5 1.2c-.4.3-.7 0-.6-.4l.7-1.5Z"/></g><path fill="#577291" fill-rule="nonzero" d="M8 112.2v7.6c1-.5 1.8-1.5 2.1-2.6-.1 2.7-2 5.4-4.8 5.4-3 0-5-2.1-5-5.5 0-2.6 1.6-4.2 3.8-5.7l-1-.1c-1.5 0-2.3 1-2.3 2H.7v-.4c0-1.8.9-4 3.2-4 1.5 0 2.7 1.3 4.4 1.3.7 0 1.6-.3 2-1 0 1.3-.5 2.6-2.3 3Zm1.1 7.8c-1 1-2.1 2-3.5 2-2.7 0-4.7-2-4.7-5.1 0-1.8.7-2.8 1.5-3.9-.6.5-2 1.8-2 4 0 3.4 2.2 5.4 5 5.4 1.9 0 3.2-1.3 3.8-2.4Zm.8-10c-.3.7-1 1.6-2.5 1.6s-2.9-1-4.1-1c-1.1 0-1.9.7-2.2 1.2.5-.3 1-.7 2-.7 1.6 0 2.6 1 4.2 1 1.8 0 2.5-1.2 2.7-2Zm-5.6 1.5a6 6 0 0 0-2 4.6c0 1.2.4 2.5 1.3 3.4l.6-.4v-5.4l-.5.3-.1-.3 2.8-1.5-2.1-.7Zm3.5.8H6.5v5.9l-2.7 1.4c.6.5 1.3.7 2.1.7a4 4 0 0 0 1.9-.4v-7.6Zm-3 1-.3.2v5.5l.4-.2v-5.5Zm11.8.8v7c0 2-1.7 3.4-3.7 3.8v-.1c1-.5 1.5-1.5 1.5-2.5V115l-1.1-1-.4.5v5.7l.6.5-1.7 1.9-1.9-1.8.8-.8v-9l2.1-2.4v5.5l1.9-2 1.8 1.8.4-.4.1.1-.4.5Zm-5.7 6.7.4-.5v-9.7l-.4.4v9.1l-.7.7 1.6 1.4.3-.3-1.2-1.1Zm4.2-6.1-1.4-1.2-.3.3 1.2 1v7.5c0 .5 0 1-.3 1.2.6-.3.8-.9.8-1.6v-7.2Zm4.8 3.5v1l2 1.6 1.1-1.2.2.1-2.7 2.9-2.7-2.2-.4.4-.2-.1.5-.5V115l3.9-2.8 2 3.3-3.7 2.7Zm-1.5 1.8v-5.2l-.5.3v5.1l2.6 2 .3-.3-2.4-1.9Zm1.5-6.3v4.2l1.8-1.3-1.8-2.9Zm.5-.4-.3.3 1.8 2.8.3-.2-1.8-2.9Zm16.5 9.3-2.8-2.5-2.2 2.5-3-2.6v-4h-.5c-.5 0-.8.3-.9.7l-.2-.7c0-.6.2-2 1.7-2v-3.5c0-.7-.8-1-.8-1.8 0-1.2 1-2.3 3.1-3-.6.4-1 .8-1 1.7 0 1.4 1.3 1 1.3 3.2v.8l2.4-2.5 2.5 2.4 2.4-2.4 2.3 2.2v7.6l-4.3 3.9Zm-7.3-2.9v-4.3h-1.1a1 1 0 0 0-1 .7h.1c.2-.2.4-.3.9-.3h.7v4.1l2.7 2.4.3-.4-2.6-2.2Zm0-9.4c0-.8-.7-1.1-.7-1.6 0-.8.3-1.4.7-2-.6.5-1.2 1.2-1.2 2 0 .7.8 1 .8 1.7v3.6h.4v-3.7Zm4.3 2-1.5-1.5-.8.9v7.2l1.8 1.6.5-.6v-7.5Zm.7 7.4V112l-1.7-1.8-.4.4 1.7 1.6v7.6l2.7 2.4.4-.3-2.7-2.3Zm4-7.6-1.3-1.2-.8.7v7.3l2 1.8V112Zm.6-.3-1.5-1.5-.3.4 1.4 1.3v8.5l.4-.4v-8.3Zm8.7 10.8-2-1.8-1.7 1.8-2-2-.4.4-.1-.2.3-.4V115l3.9-2.8 2.2 1.7.4-.4.1.1-.4.5v5.7l1 1 .4-.4.2.2-1.9 2Zm-5.2-2.3v-5.5l-.4.3v5.4l2 1.8.2-.4-1.8-1.6Zm3.3-5.4-1.7-1.3v6l1.3 1.2.4-.3v-5.6Zm.6 5.6v-5.9l-1.7-1.4-.4.3 1.7 1.3v5.9l1.7 1.5.3-.3-1.6-1.4Zm7.3-4.6h2v4.4l-3.2 2.3c-.4-.5-1-.9-1.8-.9-.6 0-1 .2-1.7.8H49l2.8-4.1H50v-3.8l3.4-2.4c.5.3.8.5 1.3.5.4 0 1 0 1.5-.4L54 116Zm-2.3 5.2c-.6 0-1 .2-1.5.5l1-.1c.4 0 1.2.2 1.7.8l.4-.4a2 2 0 0 0-1.6-.8Zm2.2-3.4h-1.2l-2.4 3.5c.6-.4 1.2-.7 2-.7.5 0 1.2.3 1.6.8v-3.6Zm-3 0v-3.3l-.4.3v3.4H52l.3-.4h-1.5Zm4.3-4a2 2 0 0 1-1.4.5c-.4 0-1-.2-1.3-.6v3h.7l2-2.9Zm-1-.2c-.4 0-.9-.2-1.2-.6l-.5.4c.4.4.8.6 1.4.6.3 0 .9 0 1.4-.5v-.1l-1.1.2Zm.3 3.5h-1.3l-.3.5H54v4l.4-.4v-4Zm8.6-3v7.2c0 2-1.7 3.3-3.6 3.7v-.1c.9-.5 1.4-1.5 1.4-2.5V115l-1-1-.5.5v5.7l.6.5-1.6 1.9-2-1.8.8-.8v-9l2.2-2.4v5.5l1.8-2 1.8 1.8.4-.4.2.1-.5.5Zm-5.7 6.8.4-.5v-9.7l-.4.4v9.1l-.6.7 1.6 1.4.2-.3-1.2-1.1Zm4.2-6.1-1.3-1.2-.3.3 1.2 1v7.5c0 .5-.1 1-.3 1.2.5-.3.7-.9.7-1.6v-7.2Zm5.3 7.9L65 121l-.4.4-.2-.2.5-.5v-6l-.9-.7-.3.3-.1-.1 1.8-2 1.6 1.4.4-.4.2.1-.5.6v6l1 .9.4-.5.2.2-2 2Zm-1.2-2v-6.1l-1.1-1-.3.3 1 .9v6l1.6 1.5.3-.3-1.5-1.3Zm.6-8.6-1.7-1.5 1.5-1.7 1.7 1.6-1.5 1.6Zm-1-1.9-.4.4 1.4 1.2.3-.3L65 110Zm10.2 12.5-1.8-1.6v-6l-1-1-.6.6v5.5l.6.6v.1l-1.7 1.8-1.9-1.8.8-.8v-5.2l-1-.8-.4.4-.1-.2 1.8-2 1.9 1.6v.5l2-2.1 1.7 1.6.5-.4.1.2-.5.5v5.8l1 .9.4-.5.2.2-2 2Zm-5.4-1.8.4-.5v-5.8l-1.1-1-.3.3 1 1v5.3l-.6.7 1.5 1.4.4-.3-1.3-1.1Zm4.3-.2v-6l-1.3-1.1-.3.3 1.2 1v6l1.5 1.5.3-.4-1.4-1.3Zm6.9 5.7c-.7-.8-1.2-1-1.8-1a5 5 0 0 0-2.2.6H77l2.8-3.3-2-1.6-.4.4-.1-.2.4-.5V115l3.9-2.8 2.2 1.7.3-.4.2.1-.4.5v7c0 1 .6 1 .6 1.8 0 1-1.4 1.8-3.4 3.3Zm-2.7-5.7v-5.8l-.5.3v5.7l2 1.6.4-.4-2-1.4Zm1.4 4c-.7 0-1.3.3-1.9.7.4-.1.8-.3 1.5-.3.6 0 1.2.3 1.7 1l.4-.4c-.5-.6-1.1-1-1.7-1Zm2.5-1.9c-.5-.3-.6-.7-.6-1.5v-.4l-3.4 4a4 4 0 0 1 2.2-.7 3 3 0 0 1 2 .8c.4-.3.7-.6.7-1.1 0-.5-.4-.8-.9-1Zm-.6-7.8-1.7-1.3v6.3l1.2 1 .5-.5V115Zm1.2 7.5c-.5-.4-.6-.7-.6-1.6v-6.2l-1.7-1.4-.4.2 1.7 1.4v6.3c0 .9 0 1.1.6 1.5.5.3.9.6.9 1.1v.3s.2-.2.2-.5c0-.4-.2-.7-.7-1Zm5 .2-2-1.5-.3.4-.2-.1.4-.5v-7.2h-1.2l.7-1.1h.5v-1.4l2.2-2.3v3.7h1.7l-.7 1.1h-1v6.2l1.2.9.4-.5.2.2-2 2Zm-1.4-11.7-.4.5v1.2h.4v-1.7Zm0 9.8v-7h-.4v7.2l1.7 1.4.3-.4-1.6-1.2Zm10-6.4v5.7l-3.5 2.6-2.6-2-.3.4-.2-.2.4-.4v-5.6l3.6-2.6 2.4 1.9.4-.4.2.1-.4.5Zm-5.5 5.9v-5.6l-.5.3v5.5l2.5 1.9.4-.3-2.4-1.8Zm3.2-5.2-1.7-1.4v6.1l1.7 1.4V115Zm.7-.4-1.9-1.5-.4.3 1.9 1.5v6.3l.4-.3v-6.3Zm9.4 8-1.8-1.6v-6l-1-1-.7.6v5.5l.7.6v.1l-1.7 1.8-2-1.8.8-.8v-5.2l-1-.8-.3.4-.2-.2 1.9-2 1.8 1.6v.5l2-2.1 1.8 1.6.4-.4.2.2-.5.5v5.8l1 .9.4-.5.1.2-2 2Zm-5.4-1.8.4-.5v-5.8l-1.2-1-.3.3 1 1v5.3l-.6.7 1.6 1.4.3-.3-1.2-1.1Zm4.2-.2v-6l-1.2-1.1-.3.3 1.1 1v6l1.6 1.5.3-.4-1.5-1.3Zm13.8 2c-.6-.6-.8-.9-1.4-1v4l-.9-.7-2.4 2.1v-5.5c-.7.2-1.5.6-2.2 1.3 0-1.6.9-2.8 2.2-3.2v-4h-.4c-.6 0-1 .3-1.2.8h-.1l-.1-.9c0-.9.6-1.8 1.7-1.8v-2.2l-.8-.7-.4.4-.1-.2 2-2.1 2 1.7v1.9l.4-.5v-2.4h.3v2.2l2.7-3 2.3 2.2v8.9l-3.6 2.7Zm-4.7-1.8c-.8.1-1.4.6-1.8 1.3a4 4 0 0 1 1.8-.8v-.5Zm.6-6h-1c-.9 0-1.2.6-1.2 1.2.3-.4.5-.6 1-.6h.8v11.1l.4-.4V115Zm0-3.6-1-1-.3.4 1 .8v2.3h.3v-2.5Zm2.4 1.2-.4.4v11.9l.4.4v-12.7Zm2.7-.5-1.2-1.1-1.2 1.4v7.2c1 0 1.8.4 2.4 1V112Zm-2.4 8.9v.5c.7.2 1 .4 1.4 1l.5-.4c-.5-.6-1-1-2-1.1Zm3-9.2-1.3-1.3-.3.3 1.2 1.2v9.5l.5-.3v-9.4Zm9.1 2.7v5.7l-3.4 2.6-2.6-2-.3.4-.2-.2.4-.4v-5.6l3.6-2.6 2.4 1.9.4-.4.2.1-.5.5Zm-5.5 5.9v-5.6l-.4.3v5.5l2.5 1.9.3-.3-2.4-1.8Zm3.3-5.2-1.7-1.4v6.1l1.7 1.4V115Zm.7-.4-2-1.5-.3.3 1.9 1.5v6.3l.4-.3v-6.3Zm6.3 1.3h2v4.4l-3.2 2.3c-.4-.5-1-.9-1.8-.9-.6 0-1 .2-1.7.8h-.1l2.8-4.1h-1.8v-3.8l3.5-2.4c.4.3.7.5 1.2.5.4 0 1 0 1.5-.4l-2.4 3.6Zm-2.3 5.2c-.6 0-1 .2-1.5.5l1-.1c.5 0 1.2.2 1.7.8l.5-.4a2 2 0 0 0-1.7-.8Zm2.2-3.4h-1.2l-2.4 3.5c.7-.4 1.2-.7 2-.7.5 0 1.2.3 1.6.8v-3.6Zm-3 0v-3.3l-.4.3v3.4h1.6l.3-.4h-1.5Zm4.3-4a2 2 0 0 1-1.4.5c-.4 0-1-.2-1.3-.6v3h.7l2-2.9Zm-1-.2c-.4 0-.8-.2-1.2-.6l-.5.4c.4.4.8.6 1.4.6.3 0 .9 0 1.4-.5v-.1l-1.1.2Zm.3 3.5h-1.3l-.3.5h1.2v4l.4-.4v-4Zm5 5.6-2-1.6-.4.4-.1-.1.4-.5v-7.2h-1.2l.7-1.1h.5v-1.4l2.2-2.3v3.7h1.7l-.7 1.1h-1v6.2l1.1.9.5-.5.1.2-2 2Zm-1.3-11.7-.5.5v1.2h.5v-1.7Zm0 9.8v-7h-.5v7.2l1.8 1.4.3-.4-1.6-1.2Zm20 .3.1-.4.2-.3.3-.2a.9.9 0 0 1 .7 0 1 1 0 0 1 .5.5v.7a1 1 0 0 1-.8.5 1 1 0 0 1-.7-.2 1 1 0 0 1-.3-.7Zm3.5 0v-.4l.2-.3.3-.2a.9.9 0 0 1 .8 0 1 1 0 0 1 .4.5l.1.3v.4a1 1 0 0 1-.9.5 1 1 0 0 1-.7-.2 1 1 0 0 1-.2-.7Zm3.4 0a1 1 0 0 1 .3-.7l.3-.2a.9.9 0 0 1 .7 0 1 1 0 0 1 .5.5v.7a.9.9 0 0 1-.5.5 1 1 0 0 1-1-.2 1 1 0 0 1-.3-.7Zm11.2-2.4-1.4.1c-.4 0-.7.2-1 .3l-.5.4-.1.5v.5l.3.3.3.1.5.1a2.4 2.4 0 0 0 1-.2l.5-.3.4-.4v-1.4Zm-4-3a4 4 0 0 1 1.3-.8 4 4 0 0 1 1.5-.3c.4 0 .8 0 1.1.2a2.2 2.2 0 0 1 1.3 1.4l.1 1.1v4.5h-.9l-.1-.3-.2-.6-.5.5-.6.3a3 3 0 0 1-1.3.3c-.3 0-.6 0-.8-.2-.3 0-.5-.2-.7-.3l-.4-.6a2 2 0 0 1-.1-.8c0-.3 0-.6.2-.8.1-.3.4-.5.7-.7a3 3 0 0 1 1.4-.5c.5-.2 1.2-.3 2-.3v-.5c0-.5-.1-1-.3-1.2-.3-.3-.6-.4-1-.4a2.2 2.2 0 0 0-1.3.4l-.4.2-.3.1h-.3l-.2-.2-.2-.5Zm8.6 0 .5-.4a3 3 0 0 1 1.8-.7c.4 0 .8 0 1 .2.3.1.6.3.8.6l.4.8c.2.3.2.7.2 1.1v4.5h-1.4v-4.5c0-.5 0-.9-.3-1.2-.3-.3-.6-.4-1-.4a2 2 0 0 0-1 .3 2 2 0 0 0-1 .6v5.2h-1.3v-7h.8c.2 0 .3 0 .4.2v.7Zm11.3.8a2 2 0 0 0-.8-.7 2 2 0 0 0-.8-.1c-.7 0-1.1.2-1.5.6-.3.5-.5 1.1-.5 2l.1 1.2.4.8.5.4.7.1c.4 0 .8 0 1-.2l.9-.8v-3.3Zm1.3-5v10.3h-.8c-.2 0-.3 0-.3-.2l-.2-.8-1 .8c-.4.2-.8.3-1.3.3-.4 0-.8 0-1.1-.2l-.9-.7-.5-1.1a5.8 5.8 0 0 1 0-3l.6-1.2a2.8 2.8 0 0 1 2.3-1.1c.4 0 .8 0 1 .2.4.1.6.3.9.6v-3.9h1.3Zm5.8 10.3v-7h.8c.2 0 .3 0 .3.2l.1.7 1-.8a2 2 0 0 1 1-.3c.5 0 .9.2 1.2.4.3.3.5.6.6 1a2.2 2.2 0 0 1 1.6-1.3 3 3 0 0 1 1.7.1l.8.5.4.9.2 1.1v4.5h-1.4v-4.5c0-.5 0-1-.3-1.2-.3-.3-.6-.4-1-.4a1.5 1.5 0 0 0-1 .4l-.4.5v5.2h-1.5v-4.5c0-.5 0-1-.3-1.2-.2-.3-.5-.4-1-.4-.2 0-.5 0-.8.2l-.7.7v5.2h-1.3Zm15.5-3.1-1.4.1c-.4 0-.7.2-1 .3l-.5.4-.1.5v.5l.3.3.3.1.5.1a2.4 2.4 0 0 0 1-.2l.5-.3.4-.4v-1.4Zm-4-3a4 4 0 0 1 1.3-.8 4 4 0 0 1 1.5-.3c.4 0 .8 0 1 .2a2.2 2.2 0 0 1 1.4 1.4l.1 1.1v4.5h-.9l-.2-.3-.1-.6-.5.5-.6.3a2.9 2.9 0 0 1-1.3.3c-.3 0-.6 0-.8-.2-.3 0-.5-.2-.7-.3l-.4-.6a2 2 0 0 1-.2-.8c0-.3.1-.6.3-.8.1-.3.4-.5.7-.7a3 3 0 0 1 1.4-.5c.5-.2 1.2-.3 2-.3v-.5c0-.5-.1-1-.3-1.2-.3-.3-.6-.4-1-.4a2.2 2.2 0 0 0-1.3.4l-.4.2-.4.1h-.2l-.2-.2-.2-.5Zm8.6 0 .5-.4a3 3 0 0 1 1.8-.7c.4 0 .7 0 1 .2.3.1.6.3.8.6l.4.8.2 1.1v4.5h-1.4v-4.5c0-.5 0-.9-.3-1.2-.3-.3-.6-.4-1.1-.4a2 2 0 0 0-1 .3c-.3.1-.6.3-.8.6v5.2h-1.4v-7h.8c.2 0 .3 0 .4.2v.7Zm12.7-1-4 9.2-.1.2-.3.1h-1l1.3-2.8-3-6.7h1.2l.3.1.2.2 1.8 4.3a5.5 5.5 0 0 1 .2.6 7.5 7.5 0 0 1 .2-.6l1.7-4.3.2-.2h1.3Zm4.5 7.1v-7h.9c.1 0 .3 0 .3.2l.1.7.9-.8a2 2 0 0 1 1.1-.3c.5 0 .9.2 1.2.4.2.3.5.6.6 1a2.2 2.2 0 0 1 1.6-1.3 3 3 0 0 1 1.7.1l.7.5c.2.3.4.5.5.9l.2 1.1v4.5h-1.4v-4.5c0-.5-.1-1-.4-1.2-.2-.3-.5-.4-1-.4a1.5 1.5 0 0 0-1 .4l-.3.5-.1.7v4.5h-1.4v-4.5c0-.5-.1-1-.3-1.2-.2-.3-.6-.4-1-.4-.3 0-.6 0-.8.2l-.7.7v5.2h-1.4Zm14.8-7.2c.5 0 1 .1 1.4.3.4.1.8.4 1 .7.4.3.6.7.8 1.2l.2 1.5c0 .5 0 1-.2 1.5l-.7 1.2a3 3 0 0 1-1.1.7c-.4.2-.9.2-1.4.2-.6 0-1 0-1.5-.2a3 3 0 0 1-1.7-1.9l-.3-1.5c0-.6.1-1 .3-1.5.1-.5.4-.9.7-1.2a3 3 0 0 1 1-.7l1.5-.3Zm0 6.3c.6 0 1.1-.2 1.5-.7.3-.5.5-1 .5-2 0-.7-.2-1.4-.5-1.8-.4-.5-.9-.7-1.5-.7-.7 0-1.2.2-1.6.7-.3.4-.4 1-.4 1.9 0 .8.1 1.4.4 1.9.4.5.9.7 1.6.7Zm6.3-4.8c.3-.5.5-.8.9-1.1.3-.3.7-.4 1.1-.4a1.6 1.6 0 0 1 .8.2v1c-.1.2-.2.2-.3.2h-.3a2 2 0 0 0-1 0l-.4.3-.4.5-.3.6v4.4H255v-7h1l.2.3v1Zm8.5 1.4-.1-.8-.4-.5-.5-.4-.8-.2c-.5 0-1 .2-1.3.5-.4.3-.6.8-.7 1.4h3.8Zm1.1 3.3a2.8 2.8 0 0 1-1.3.9 4.2 4.2 0 0 1-1.5.2c-.5 0-1 0-1.4-.2a3.1 3.1 0 0 1-1.8-2 5 5 0 0 1 0-3c.1-.4.4-.7.6-1a3 3 0 0 1 1.1-.8 3.5 3.5 0 0 1 2.6 0 2.6 2.6 0 0 1 1.6 1.6l.2 1.3v.4l-.3.1h-4.7c0 .5 0 .8.2 1.2l.4.7c.2.3.5.4.7.5l.9.2.8-.1a4 4 0 0 0 1-.5l.2-.1.3.1.4.5Zm1.5.2v-.3l.2-.3.3-.2a.9.9 0 0 1 .8 0 1 1 0 0 1 .5.5v.7a1 1 0 0 1-.9.5 1 1 0 0 1-.7-.2 1 1 0 0 1-.2-.7Z"/></svg>