<svg xmlns="http://www.w3.org/2000/svg" xml:space="preserve" fill-rule="evenodd" stroke-linejoin="round" stroke-miterlimit="2" clip-rule="evenodd" viewBox="0 0 96 103"><path fill="#fff" fill-rule="nonzero" d="M25.3 29.8c0 1.8-.5 3.4-1.5 4.5-1 1.2-2.3 1.8-3.8 1.8s-2.7-.6-3.7-1.7c-1-1.2-1.5-2.6-1.5-4.4 0-1.9.5-3.4 1.5-4.6 1-1.2 2.3-1.8 3.8-1.8s2.7.6 3.7 1.8c1 1.1 1.5 2.6 1.5 4.4Zm-.8-.1c0-1.6-.4-2.9-1.2-3.9-.8-1-1.9-1.5-3.2-1.5-1.3 0-2.4.5-3.2 1.5-.8 1-1.2 2.3-1.2 4 0 1.6.4 3 1.2 4.1.8 1.1 1.9 1.6 3.1 1.6 1.3 0 2.4-.5 3.2-1.5.9-1.1 1.3-2.5 1.3-4.3Zm11.4 6.2h-1l-3.5-5.7-3.4 5.7h-.9l3.9-6.3-3.6-5.8h1l3.1 5.2 3.1-5.2h.9L32 29.6l3.9 6.3Zm8.8-11.5h-5.2v4.7h4.8v.7h-4.8v6.1h-.8V23.7h6v.7Zm13 5.4c0 1.8-.5 3.4-1.5 4.5-1 1.2-2.3 1.8-3.8 1.8s-2.7-.6-3.7-1.7c-1-1.2-1.5-2.6-1.5-4.4 0-1.9.5-3.4 1.5-4.6 1-1.2 2.3-1.8 3.8-1.8s2.7.6 3.7 1.8c1 1.1 1.5 2.6 1.5 4.4Zm-.8-.1c0-1.6-.4-2.9-1.2-3.9-.8-1-1.9-1.5-3.2-1.5-1.3 0-2.4.5-3.2 1.5-.8 1-1.2 2.3-1.2 4 0 1.6.4 3 1.2 4.1.8 1.1 1.9 1.6 3.1 1.6 1.3 0 2.4-.5 3.2-1.5.9-1.1 1.3-2.5 1.3-4.3Zm11.9 6.2H68l-1.3-3.1c-.3-.6-.4-.9-.5-1.1-.2-.4-.5-.7-.7-.9-.4-.3-1-.5-2-.5H62v5.6h-.8V23.7h2.4c.9 0 1.5 0 1.9.1.7.1 1.2.4 1.6.7.6.6 1 1.5 1 2.4 0 .9-.3 1.6-.8 2.1s-1.2.8-1.9.9c.4 0 .8.3 1.2.7.1.2.3.6.6 1.1l1.6 4.2Zm-1.7-9c0-.7-.2-1.3-.7-1.8-.3-.3-.7-.5-1.1-.6-.3-.1-.8-.1-1.5-.1H62v5.2h.9c1 0 1.6 0 2.1-.1.7-.1 1.2-.4 1.6-.8.3-.4.5-1 .5-1.8Zm14 2.9c0 1.9-.6 3.5-1.8 4.7-.6.6-1.3 1-2.1 1.2-.7.2-1.6.3-2.8.3h-2.8V23.7h2.1c1.5 0 2.6.1 3.3.2 1 .2 1.7.6 2.3 1.2 1.2 1.3 1.8 2.8 1.8 4.7Zm-.9-.1c0-1.7-.5-3-1.5-4-.6-.6-1.4-1-2.3-1.1-.5-.1-1.4-.1-2.7-.1h-1.3v10.8h1.7c1.2 0 2 0 2.5-.1.8-.2 1.6-.6 2.1-1.1 1-1.1 1.5-2.5 1.5-4.4ZM28.1 53.8h-2.4l-.7-8.3-2.7 8.3h-2.1l-2.8-8.3-.4 8.3h-2.2L15.9 42h2.7l3 8.6 2.8-8.6H27l1.1 11.8Zm13.4 0h-2.6l-.9-2.5h-4.3l-.9 2.5h-2.5L34.6 42h2.5l4.4 11.8Zm-4.2-4.4-1.5-4.8-1.5 4.8h3Zm15.4 4.4H50l-1.4-3.2c-.3-.7-.6-1.1-.9-1.3-.2-.1-.6-.2-1.1-.2h-.3v4.7h-2.5V41.9h3c1.1 0 1.8 0 2.2.1.7.1 1.4.4 1.8.9.6.6 1 1.4 1 2.4 0 .8-.2 1.4-.6 2-.5.6-1.1.9-2 1.1.5 0 1 .4 1.4 1 .1.2.4.7.8 1.6l1.3 2.8Zm-3.4-8.4c0-.5-.1-.9-.4-1.1-.2-.2-.5-.3-.8-.4-.2 0-.6-.1-1.2-.1h-.7v3.3h1c.7 0 1.3-.2 1.6-.5.3-.3.5-.7.5-1.2Zm13.9-1.5h-3.3v9.8h-2.5v-9.8h-3.2v-2h9v2Zm4.9 9.9h-2.5V41.9h2.5v11.9Zm12.5 0h-2.2l-5-7.9.1 7.9h-2.3V41.9h2.3l4.9 7.9-.1-7.9h2.3v11.9ZM61.1 93.9c0 .3-.1.7-.1 1.1l7.2-7.2c-.4 0-.8.1-1.1.1l-6 6ZM70 88c-.3-.1-.6-.1-.9-.1L61 96c0 .3.1.6.1.9L70 88Zm1.6.5c-.2-.1-.5-.2-.7-.3l-9.4 9.5c.1.2.2.5.3.7l9.8-9.9Zm1.2.8c-.2-.1-.4-.3-.6-.4L62.1 99.1c.1.2.3.4.4.6l10.3-10.4Zm.6.5-10.5 10.5.5.5 10.5-10.5c-.2-.2-.3-.4-.5-.5Zm-2.1 12.3c1.4-.6 2.5-1.6 3.3-2.8-.1-.1-.1-.2-.2-.3l-3.1 3.1Z"/><path fill="#fff" fill-rule="nonzero" d="M0 0v95.8h48.5c.3 3.9 3.5 6.9 7.4 6.9 2.6 0 4.9-1.4 6.2-3.4-.1-.2-.3-.5-.4-.7-1.1 2-3.3 3.4-5.8 3.4-3.5 0-6.4-2.7-6.7-6.2v-.7c.1-3.6 3.1-6.5 6.7-6.5 2.5 0 4.7 1.4 5.8 3.4 0-.1.1-.1.1-.2l-.3.6 4-4c-1.5.6-2.8 1.8-3.6 3.2.1-.1.1-.3.2-.4-1.3-2.1-3.6-3.4-6.2-3.4-4 0-7.3 3.2-7.4 7.2H.7V.7h94.1V95h-6.6v.2c0-4.1-3.3-7.4-7.4-7.4-2.6 0-4.9 1.4-6.2 3.4-.1-.1-.2-.3-.3-.4L64 101.2c.2.1.4.3.6.4l9.6-9.6c-.2.5-.4 1-.6 1.6l-8.4 8.4c.2.1.5.2.7.3l7.5-7.5v1.1l-6.7 6.7c.3.1.6.1.9.1l5.9-5.9c0-.2-.1-.3-.1-.5.1.5.2.9.3 1.3l-5.1 5.1c.4 0 .8-.1 1.1-.1l4.3-4.3c1.2 2.6 3.8 4.4 6.8 4.4 4.1 0 7.4-3.3 7.4-7.4v.5h7.3V0H0Zm73.6 94.1c-.1.1-.1.1 0 0Z"/><path fill="#fff" fill-rule="nonzero" d="M21.8 68.8c0 1-.3 1.9-.9 2.5-.7.7-1.6 1-2.8 1-1.3 0-2.4-.4-3.4-1.3l.5-.6c1 .8 2 1.1 2.9 1.1.9 0 1.7-.2 2.2-.7.5-.5.8-1.1.8-2 0-.6-.2-1.1-.7-1.6-.4-.4-1.2-.8-2.3-1.3-1.1-.5-1.9-.9-2.3-1.3-.5-.5-.7-1.1-.7-1.9 0-.9.3-1.6.9-2.2.6-.6 1.5-.8 2.5-.8 1.3 0 2.4.4 3.2 1.3l-.5.5c-.4-.3-.6-.5-.7-.6-.6-.3-1.2-.5-1.9-.5-.8 0-1.5.2-2 .7-.5.4-.8 1-.8 1.7 0 .5.2 1 .6 1.4.4.4 1.1.8 2.3 1.3 1.1.5 1.9.9 2.3 1.3.5.4.8 1.1.8 2Zm12 2.4c-.2.2-.6.4-1.1.6-.8.3-1.7.5-2.7.5-1.6 0-2.9-.5-4-1.6s-1.6-2.7-1.6-4.6c0-2 .6-3.5 1.7-4.7 1.1-1.1 2.4-1.7 4-1.7 1.5 0 2.6.3 3.4.9l-.4.6c-.8-.5-1.8-.8-2.9-.8-1.4 0-2.6.5-3.5 1.4-1 1-1.5 2.4-1.5 4 0 1.7.4 3 1.3 4.1.9 1 2.1 1.5 3.6 1.5 1.1 0 2.1-.3 3.2-.9l.5.7Zm10.8.8h-.8v-6h-6.6v6h-.8V59.9h.8v5.4h6.6v-5.4h.8V72Zm13.8-6.1c0 1.8-.5 3.4-1.5 4.5-1 1.2-2.3 1.8-3.8 1.8s-2.7-.6-3.7-1.7c-1-1.2-1.5-2.6-1.5-4.4 0-1.9.5-3.4 1.5-4.6 1-1.2 2.3-1.8 3.8-1.8s2.7.6 3.7 1.8c1 1.1 1.5 2.6 1.5 4.4Zm-.9-.1c0-1.6-.4-2.9-1.2-3.9-.8-1-1.9-1.5-3.2-1.5-1.3 0-2.4.5-3.2 1.5-.8 1-1.2 2.3-1.2 4 0 1.6.4 3 1.2 4.1.8 1.1 1.9 1.6 3.1 1.6 1.3 0 2.4-.5 3.2-1.5.9-1.1 1.3-2.5 1.3-4.3Zm14 .1c0 1.8-.5 3.4-1.5 4.5-1 1.2-2.3 1.8-3.8 1.8s-2.7-.6-3.7-1.7c-1-1.2-1.5-2.6-1.5-4.4 0-1.9.5-3.4 1.5-4.6 1-1.2 2.3-1.8 3.8-1.8s2.7.6 3.7 1.8c1 1.2 1.5 2.6 1.5 4.4Zm-.8-.1c0-1.6-.4-2.9-1.2-3.9-.8-1-1.9-1.5-3.2-1.5-1.3 0-2.4.5-3.2 1.5-.8 1-1.2 2.3-1.2 4 0 1.6.4 3 1.2 4.1.8 1.1 1.9 1.6 3.1 1.6 1.3 0 2.4-.5 3.2-1.5.9-1.1 1.3-2.5 1.3-4.3ZM80.9 72h-6.2V59.9h.8v11.4h5.4v.7Z"/></svg>