<svg width="201" height="103" viewBox="0 0 201 103" fill="none" xmlns="http://www.w3.org/2000/svg">
<g clip-path="url(#clip0)">
<path d="M106.395 0.397949V95.7016H200.704V0.397949H106.395Z" fill="#002147" stroke="white" stroke-width="0.738342" stroke-miterlimit="10"/>
<path d="M127.406 78.9888C127.406 82.5701 124.644 85.2561 121.192 85.2561C117.739 85.2561 114.977 82.5701 114.977 79.1878C114.977 75.6064 117.739 72.9204 121.192 72.9204C124.743 72.9204 127.406 75.6064 127.406 78.9888ZM125.433 79.0883C125.433 75.8054 123.855 73.5173 121.192 73.5173C118.331 73.5173 116.95 76.3028 116.95 79.0883C116.95 82.3712 118.528 84.6593 121.192 84.6593C124.151 84.6593 125.433 81.8738 125.433 79.0883Z" fill="white"/>
<path d="M165.19 78.9883C165.19 82.5697 162.427 85.2557 158.975 85.2557C155.522 85.2557 152.76 82.5697 152.76 79.1873C152.76 75.6059 155.522 72.9199 158.975 72.9199C162.526 72.9199 165.19 75.6059 165.19 78.9883ZM163.217 79.0878C163.217 75.8049 161.638 73.5168 158.975 73.5168C156.114 73.5168 154.733 76.3023 154.733 79.0878C154.733 82.3707 156.311 84.6588 158.975 84.6588C161.934 84.6588 163.217 81.8733 163.217 79.0878Z" fill="white"/>
<path d="M169.925 79.1874H171.405C173.674 79.1874 174.167 77.7947 174.167 76.4019C174.167 75.4071 173.674 74.4123 172.688 73.9149C172.096 73.7159 171.602 73.7159 170.912 73.7159H170.024V79.1874H169.925ZM172.688 81.0776C171.997 80.0827 171.701 79.6848 170.912 79.6848H170.024V83.7636C170.024 84.062 170.123 84.261 170.517 84.3605L171.898 84.6589V85.0568H166.67V84.5594L167.854 84.261C168.248 84.1615 168.347 84.062 168.347 83.6641V74.3128C168.347 74.0143 168.248 73.8154 167.854 73.7159L166.67 73.4175V73.0195H171.8C172.885 73.0195 173.674 73.119 174.266 73.318C175.548 73.8154 176.239 75.0092 176.239 76.2029C176.239 77.6952 175.154 78.889 173.378 79.2869V79.3864C173.773 79.5853 173.97 79.7843 175.252 81.4755L176.831 83.6641C177.028 83.9625 177.324 84.1615 177.719 84.261L178.903 84.5594V84.9573H176.042C175.746 84.9573 175.548 84.8579 175.252 84.4599L172.688 81.0776Z" fill="white"/>
<path d="M149.603 77.1978H150.096V81.177H149.603L149.307 79.9833C149.208 79.5853 148.912 79.3864 148.518 79.3864H145.657V83.7636C145.657 84.062 145.755 84.261 146.15 84.3605L147.531 84.6589V85.0568H142.303V84.5594L143.487 84.261C143.881 84.1615 143.98 84.062 143.98 83.6641V74.3128C143.98 74.0143 143.881 73.8154 143.487 73.7159L142.303 73.4175V73.0195H151.181V76.004H150.688L150.096 74.2133C149.997 73.7159 149.8 73.6164 149.406 73.6164H145.755V78.7895H148.616C149.011 78.7895 149.208 78.5905 149.406 78.1926L149.603 77.1978Z" fill="white"/>
<path d="M179.69 85.0568V84.5594L180.874 84.261C181.269 84.1615 181.367 84.062 181.367 83.6641V74.3128C181.367 74.0143 181.269 73.8154 180.874 73.7159L179.69 73.4175V73.0195H185.215C186.695 73.0195 187.78 73.2185 188.668 73.6164C190.937 74.6112 191.923 76.8993 191.923 79.0879C191.923 81.177 191.134 83.1667 189.161 84.261C188.273 84.7584 186.991 84.9573 185.313 84.9573H179.69V85.0568ZM183.143 73.7159V83.9625C183.143 84.3605 183.242 84.4599 183.636 84.4599H185.116C186.497 84.4599 187.484 84.261 188.273 83.7636C189.457 82.8682 190.049 81.2765 190.049 79.1874C190.049 77.1978 189.457 75.2081 187.878 74.2133C187.188 73.8154 186.3 73.7159 184.919 73.7159H183.143Z" fill="white"/>
<path d="M132.043 84.5593V84.9572H127.899V84.5593L128.985 84.2609C129.379 84.1614 129.675 84.0619 129.872 83.7634L133.424 79.1873L129.872 74.3127C129.675 74.0142 129.379 73.8153 128.985 73.7158L127.998 73.4173V73.0194H133.128V73.4173L132.043 73.6163C131.648 73.7158 131.747 73.8153 131.944 74.1137L134.608 77.9935H134.706L137.468 74.1137C137.666 73.8153 137.764 73.7158 137.37 73.6163L136.285 73.3178V72.9199H140.428V73.3178L139.343 73.6163C138.948 73.7158 138.652 73.8153 138.455 74.1137L135.101 78.4909L138.85 83.5645C139.047 83.8629 139.343 84.0619 139.737 84.1614L140.724 84.4598V84.8577H135.594V84.5593L136.679 84.3603C137.074 84.2609 136.975 84.1614 136.778 83.8629L133.917 79.7842H133.818L130.859 83.8629C130.662 84.1614 130.563 84.2609 130.958 84.3603L132.043 84.5593Z" fill="white"/>
<path d="M119.613 67.5485C119.317 67.847 118.824 68.1454 118.133 68.1454C117.541 68.1454 116.949 67.9465 116.653 67.5485C116.16 67.0511 116.16 66.3548 116.16 65.6584V62.3755H116.851V65.9568C116.851 66.4542 116.851 66.8522 117.147 67.1506C117.344 67.3496 117.739 67.5485 118.133 67.5485C118.528 67.5485 118.922 67.4491 119.12 67.1506C119.514 66.7527 119.514 66.3548 119.514 65.3599V62.3755H120.205V65.161C120.205 66.1558 120.205 66.9517 119.613 67.5485Z" fill="white"/>
<path d="M125.63 67.9464L122.967 63.2707V67.9464H122.375V62.2759H123.066L125.729 66.9515V62.2759H126.321V67.9464H125.63Z" fill="white"/>
<path d="M128.59 67.9464V62.2759H129.28V67.9464H128.59Z" fill="white"/>
<path d="M133.424 67.9464H132.635L130.662 62.2759H131.353L132.931 67.25L134.608 62.2759H135.299L133.424 67.9464Z" fill="white"/>
<path d="M136.976 67.9463V62.2759H140.034V62.8728H137.567V64.7629H139.836V65.3598H137.567V67.4489H140.034V68.0458H136.976V67.9463Z" fill="white"/>
<path d="M144.276 63.1712C143.98 62.8728 143.585 62.8728 143.092 62.8728H142.5V64.9619H142.697C143.289 64.9619 143.881 64.9619 144.276 64.564C144.473 64.365 144.572 64.0666 144.572 63.8676C144.572 63.5691 144.374 63.2707 144.276 63.1712ZM144.868 67.9464L144.177 66.4541C143.783 65.5588 143.585 65.4593 142.796 65.4593H142.5V67.9464H141.81V62.2759H142.993C143.783 62.2759 144.276 62.2759 144.769 62.6738C145.065 62.9723 145.164 63.3702 145.164 63.7681C145.164 64.166 145.065 64.4645 144.769 64.7629C144.572 64.9619 144.276 65.1609 143.881 65.1609C144.079 65.1609 144.276 65.2603 144.374 65.3598C144.572 65.5588 144.67 65.7577 144.769 66.1557L145.558 67.8469H144.868V67.9464Z" fill="white"/>
<path d="M152.068 67.9464V62.2759H152.759V67.9464H152.068Z" fill="white"/>
<path d="M156.607 62.8728V67.9464H155.916V62.8728H154.239V62.2759H158.185V62.8728H156.607Z" fill="white"/>
<path d="M161.44 65.7579V67.9465H160.749V65.7579L158.974 62.3755H159.763L161.144 65.0615L162.525 62.3755H163.216L161.44 65.7579Z" fill="white"/>
<path d="M169.53 62.7732C168.445 62.7732 167.754 63.6685 167.754 65.1607C167.754 66.5535 168.543 67.5483 169.628 67.5483C170.812 67.5483 171.404 66.5535 171.404 65.1607C171.305 63.6685 170.615 62.7732 169.53 62.7732ZM169.53 68.0457C168.05 68.0457 167.063 66.8519 167.063 65.1607C167.063 63.3701 168.149 62.1763 169.628 62.1763C171.108 62.1763 172.095 63.3701 172.095 65.0612C171.996 66.8519 171.009 68.0457 169.53 68.0457Z" fill="white"/>
<path d="M174.562 62.8729V64.763H176.732V65.3599H174.562V68.0459H173.871V62.3755H176.831V62.9724H174.562V62.8729Z" fill="white"/>
<path d="M146.939 63.6685C146.939 62.7732 147.63 62.1763 148.617 62.1763C149.603 62.1763 150.096 62.6737 150.195 62.7732L149.899 63.1711C149.8 63.0716 149.307 62.7732 148.715 62.7732C148.025 62.7732 147.63 63.1711 147.63 63.6685C147.63 63.8675 147.729 64.0664 147.926 64.2654C148.123 64.4643 148.419 64.5638 148.715 64.6633C149.11 64.8623 149.603 65.0612 149.899 65.3597C150.096 65.6581 150.294 65.9566 150.294 66.3545C150.294 67.2498 149.603 68.0457 148.518 68.0457C147.531 68.0457 146.939 67.4488 146.841 67.4488L147.137 66.9514C147.334 67.0509 147.926 67.4488 148.518 67.4488C149.406 67.4488 149.702 66.9514 149.702 66.454C149.702 66.1555 149.603 65.9566 149.406 65.8571C149.11 65.5586 148.715 65.4592 148.419 65.2602C148.025 65.0612 147.729 64.8623 147.433 64.6633C147.137 64.4644 146.939 64.1659 146.939 63.6685Z" fill="white"/>
<path d="M179.89 22.881C179.89 22.881 179.89 30.8395 179.89 31.3369C179.396 31.3369 173.872 31.3369 173.872 31.3369L173.773 31.5359C173.675 31.8343 173.477 32.0333 172.787 32.0333C172.096 32.0333 171.899 31.8343 171.8 31.5359L171.702 31.3369C171.702 31.3369 166.177 31.3369 165.684 31.3369C165.684 30.8395 165.684 22.881 165.684 22.881H165.092V23.1794L164.599 22.9804C164.5 22.7815 164.303 22.5825 164.106 22.5825C163.81 22.5825 163.612 22.7815 163.612 23.0799C163.612 23.3784 163.81 23.5773 164.106 23.5773C164.204 23.5773 164.303 23.5773 164.402 23.4779L165.092 23.6768V24.3732L164.599 24.2737C164.5 24.0747 164.303 23.9753 164.106 23.9753C163.81 23.9753 163.612 24.1742 163.612 24.4727C163.612 24.7711 163.81 24.9701 164.106 24.9701C164.204 24.9701 164.402 24.8706 164.5 24.7711L165.092 24.8706V25.567H164.599C164.5 25.4675 164.402 25.368 164.204 25.368C163.908 25.368 163.711 25.567 163.711 25.8654C163.711 26.1639 163.908 26.3628 164.204 26.3628C164.402 26.3628 164.5 26.2633 164.599 26.1639H165.191V26.9597H164.599C164.5 26.8602 164.402 26.7608 164.204 26.7608C163.908 26.7608 163.711 26.9597 163.711 27.2582C163.711 27.5566 163.908 27.7556 164.204 27.7556C164.402 27.7556 164.5 27.6561 164.599 27.5566H165.092V28.253L164.5 28.3525C164.402 28.253 164.303 28.1535 164.106 28.1535C163.81 28.1535 163.612 28.3525 163.612 28.6509C163.612 28.9494 163.81 29.1483 164.106 29.1483C164.303 29.1483 164.5 29.0488 164.599 28.8499L165.092 28.7504V29.4468L164.402 29.6457C164.303 29.5462 164.204 29.5462 164.106 29.5462C163.81 29.5462 163.612 29.7452 163.612 30.0437C163.612 30.3421 163.81 30.5411 164.106 30.5411C164.303 30.5411 164.5 30.3421 164.599 30.1431L165.092 29.9442V30.6405L164.402 30.939C164.402 30.939 164.303 30.8395 164.204 30.8395C163.908 30.8395 163.711 31.0385 163.711 31.3369C163.711 31.6354 163.908 31.8343 164.204 31.8343C164.402 31.8343 164.697 31.6354 164.697 31.4364L165.191 31.2374V31.8343C165.191 31.8343 171.11 31.8343 171.406 31.8343C171.702 32.2323 172.096 32.5307 172.787 32.5307C173.477 32.5307 173.872 32.3317 174.168 31.8343C174.464 31.8343 180.383 31.8343 180.383 31.8343V22.881H179.89Z" fill="white"/>
<path d="M168.742 20.8911C169.995 20.8911 171.011 20.7129 171.011 20.4931C171.011 20.2734 169.995 20.0952 168.742 20.0952C167.488 20.0952 166.473 20.2734 166.473 20.4931C166.473 20.7129 167.488 20.8911 168.742 20.8911Z" fill="white"/>
<path d="M171.899 17.31L170.616 18.2054V18.3048L170.912 18.4043C171.011 18.4043 171.011 18.5038 170.912 18.5038L170.123 19.2002H170.024L169.432 18.3048C169.432 18.2054 169.432 18.2054 169.432 18.2054L169.827 18.1059V18.0064L168.84 16.5142H168.643L167.657 18.0064V18.1059L168.051 18.2054C168.15 18.2054 168.15 18.3048 168.051 18.3048L167.459 19.2002H167.361L166.571 18.5038V18.4043L166.867 18.3048V18.2054L165.486 17.31H165.388L166.177 19.7971C166.571 19.5981 167.558 19.4986 168.643 19.4986C169.728 19.4986 170.715 19.5981 171.109 19.7971L171.899 17.31Z" fill="white"/>
<path d="M172.884 37.604C174.137 37.604 175.153 37.4258 175.153 37.206C175.153 36.9863 174.137 36.8081 172.884 36.8081C171.631 36.8081 170.615 36.9863 170.615 37.206C170.615 37.4258 171.631 37.604 172.884 37.604Z" fill="white"/>
<path d="M175.943 34.023L174.66 34.9184V35.0179L174.956 35.1173C175.055 35.1173 175.055 35.2168 174.956 35.2168L174.167 35.9132H174.068L173.476 35.0179C173.476 34.9184 173.476 34.9184 173.476 34.9184L173.871 34.8189L172.884 33.3267H172.687L171.701 34.8189V34.9184L172.095 35.0179C172.194 35.0179 172.194 35.1173 172.095 35.1173L171.503 36.0127H171.405L170.615 35.3163V35.2168L170.911 35.1173V35.0179L169.53 34.1225H169.432L170.221 36.6096C170.615 36.4106 171.602 36.3111 172.687 36.3111C173.772 36.3111 174.759 36.4106 175.153 36.6096L175.943 34.1225V34.023Z" fill="white"/>
<path d="M176.928 20.8911C178.181 20.8911 179.197 20.7129 179.197 20.4931C179.197 20.2734 178.181 20.0952 176.928 20.0952C175.675 20.0952 174.659 20.2734 174.659 20.4931C174.659 20.7129 175.675 20.8911 176.928 20.8911Z" fill="white"/>
<path d="M180.086 17.31L178.804 18.2054V18.3048L179.1 18.4043C179.198 18.4043 179.198 18.5038 179.1 18.5038L178.31 19.2002H178.212L177.62 18.3048C177.62 18.2054 177.62 18.2054 177.62 18.2054L178.014 18.1059V18.0064L177.028 16.5142H176.831L175.844 18.0064V18.1059L176.239 18.2054C176.337 18.2054 176.337 18.3048 176.239 18.3048L175.647 19.2002H175.548L174.759 18.5038V18.4043L175.055 18.3048V18.2054L173.674 17.31H173.575L174.364 19.7971C174.759 19.5981 175.745 19.4986 176.831 19.4986C177.916 19.4986 178.902 19.5981 179.297 19.7971L180.086 17.31Z" fill="white"/>
<path d="M167.656 23.5776C167.558 23.5776 167.558 23.5776 167.656 23.5776C167.558 23.5776 167.558 23.6771 167.558 23.6771V24.3735C167.558 24.5725 167.558 24.5725 167.656 24.5725C167.853 24.5725 167.951 24.3735 167.951 24.075C167.951 23.6771 167.755 23.5776 167.656 23.5776Z" fill="white"/>
<path d="M171.8 22.4825C171.504 22.2836 171.011 22.1841 170.517 22.1841H166.571V30.1426H170.813C171.8 30.1426 172.392 30.3416 172.392 31.2369H172.49V23.9748C172.589 23.3779 172.293 22.781 171.8 22.4825ZM169.728 24.5716C169.827 24.5716 169.827 24.5716 169.827 24.4722C169.827 24.3727 169.827 24.3727 169.827 24.1737V23.7758C169.827 23.5768 169.827 23.5768 169.728 23.4773V23.3779H170.123L170.419 24.0742L170.715 23.3779H171.109V23.4773C171.011 23.4773 171.011 23.4773 171.011 23.6763V24.2732C171.011 24.4722 171.011 24.4722 171.109 24.4722V24.5716H170.517V24.4722C170.616 24.4722 170.616 24.4722 170.616 24.2732V23.6763L170.32 24.5716H170.221L170.024 23.8753V24.2732C170.024 24.4722 170.024 24.4722 170.024 24.5716C170.024 24.6711 170.024 24.6711 170.221 24.6711V24.7706L169.728 24.5716ZM170.715 26.3623C170.517 26.2628 170.419 26.1634 170.419 25.9644C170.419 25.7654 170.517 25.5665 170.813 25.5665C170.912 25.5665 170.912 25.5665 171.011 25.5665H171.109C171.109 25.6659 171.109 25.7654 171.109 25.8649H171.011C171.011 25.7654 170.912 25.6659 170.813 25.6659C170.715 25.6659 170.616 25.7654 170.616 25.8649C170.616 25.9644 170.715 25.9644 170.813 26.0639C171.011 26.1634 171.109 26.2628 171.109 26.4618C171.109 26.6608 170.912 26.8597 170.715 26.8597C170.616 26.8597 170.616 26.8597 170.517 26.8597C170.419 26.8597 170.419 26.8597 170.419 26.8597C170.419 26.7602 170.419 26.6608 170.32 26.5613H170.419C170.419 26.6608 170.517 26.8597 170.715 26.8597C170.813 26.8597 170.912 26.7602 170.912 26.6608C170.813 26.4618 170.813 26.3623 170.715 26.3623ZM169.531 25.7654C169.531 25.8649 169.728 26.1634 169.728 26.3623C169.827 26.1634 169.925 25.8649 169.925 25.7654C169.925 25.6659 169.925 25.6659 169.827 25.6659H169.728V25.5665H170.123V25.6659C170.024 25.6659 170.024 25.6659 169.925 25.8649C169.925 25.8649 169.728 26.4618 169.531 26.7602H169.432C169.333 26.4618 169.136 25.9644 169.038 25.8649C168.939 25.6659 168.939 25.6659 168.84 25.6659V25.5665H169.432V25.6659L169.531 25.7654ZM169.038 23.4773C169.333 23.4773 169.629 23.6763 169.629 24.0742C169.629 24.4722 169.333 24.6711 169.038 24.6711C168.643 24.6711 168.446 24.3727 168.446 24.0742C168.446 23.8753 168.643 23.4773 169.038 23.4773ZM167.065 24.6711C167.163 24.5716 167.163 24.5716 167.163 24.3727V23.7758C167.163 23.5768 167.163 23.5768 167.065 23.5768V23.4773H167.558C167.755 23.4773 167.952 23.4773 168.051 23.6763C168.15 23.7758 168.248 23.8753 168.248 24.0742C168.248 24.4722 167.952 24.6711 167.558 24.6711H167.065ZM168.248 27.8545C168.15 27.8545 168.15 27.8546 168.15 28.0535V28.6504C168.15 28.8494 168.15 28.8494 168.248 28.8494H167.656C167.755 28.8494 167.755 28.8494 167.755 28.6504V28.0535C167.755 27.8546 167.755 27.8545 167.656 27.8545V27.7551L168.248 27.8545ZM168.248 26.7602H167.854V26.6608C167.952 26.6608 167.952 26.6608 167.952 26.5613C167.952 26.4618 167.952 26.3623 167.952 26.2628V25.9644C167.952 25.8649 167.952 25.7654 167.952 25.7654C167.952 25.7654 167.854 25.7654 167.854 25.6659V25.5665H168.248L168.84 26.2628V26.0639C168.84 25.8649 168.84 25.7654 168.84 25.7654C168.84 25.6659 168.742 25.6659 168.643 25.6659V25.5665H169.038V25.6659C168.939 25.6659 168.939 25.6659 168.939 25.7654C168.939 25.8649 168.939 25.9644 168.939 26.0639V26.7602H168.742L168.15 25.9644V26.2628C168.15 26.4618 168.15 26.5613 168.15 26.5613C168.15 26.6608 168.15 26.6608 168.248 26.7602ZM169.235 28.8494H168.347C168.446 28.8494 168.446 28.8494 168.446 28.6504V28.0535C168.446 27.8546 168.446 27.8545 168.347 27.8545V27.7551H168.939V27.8545C168.84 27.8545 168.84 27.8546 168.84 28.0535V28.6504C168.84 28.7499 168.84 28.7499 168.84 28.8494H168.939C169.038 28.8494 169.038 28.8494 169.136 28.7499C169.136 28.7499 169.235 28.6504 169.235 28.5509H169.333C169.333 28.6504 169.235 28.8494 169.235 28.8494ZM170.221 28.8494H169.333C169.432 28.8494 169.432 28.8494 169.432 28.6504V28.0535C169.432 27.8546 169.432 27.8545 169.333 27.8545V27.7551H169.925V27.8545C169.827 27.8545 169.827 27.8546 169.827 28.0535V28.6504C169.827 28.7499 169.827 28.7499 169.827 28.8494H169.925C170.024 28.8494 170.024 28.8494 170.123 28.7499C170.123 28.7499 170.221 28.6504 170.221 28.5509H170.32C170.221 28.6504 170.221 28.8494 170.221 28.8494ZM171.306 27.8545C171.208 27.8545 171.208 27.8546 171.109 28.0535C171.109 28.0535 170.912 28.6504 170.715 28.9489H170.616C170.517 28.6504 170.32 28.153 170.221 28.0535C170.221 27.8546 170.221 27.8545 170.123 27.8545V27.7551H170.715V27.8545H170.616C170.517 27.8545 170.517 27.8546 170.616 27.954C170.616 28.0535 170.813 28.352 170.813 28.5509C170.912 28.352 171.011 28.0535 171.011 27.954C171.011 27.8546 171.011 27.8545 170.912 27.8545H170.813V27.7551L171.306 27.8545ZM171.8 23.5768C171.701 23.5768 171.701 23.5768 171.701 23.7758V24.3727C171.701 24.5716 171.701 24.5716 171.8 24.5716V24.6711H171.208V24.5716C171.306 24.5716 171.306 24.5716 171.306 24.3727V23.7758C171.306 23.5768 171.306 23.5768 171.208 23.5768V23.4773L171.8 23.5768Z" fill="white"/>
<path d="M169.037 24.5723C169.234 24.5723 169.234 24.4728 169.234 24.0749C169.234 23.677 169.136 23.478 168.939 23.478C168.84 23.478 168.741 23.677 168.741 23.9754C168.741 24.3734 168.84 24.5723 169.037 24.5723Z" fill="white"/>
<path d="M176.83 26.1634C176.83 26.4619 176.929 26.7603 177.126 26.7603C177.323 26.7603 177.323 26.6608 177.323 26.2629C177.323 25.865 177.225 25.666 177.027 25.666C176.929 25.666 176.83 25.865 176.83 26.1634Z" fill="white"/>
<path d="M175.154 22.2837C174.66 22.2837 174.167 22.3832 173.871 22.5821C173.378 22.8806 173.082 23.4775 173.082 24.1738V31.436H173.181C173.279 30.5407 173.773 30.3417 174.759 30.3417H179.001V22.3832L175.154 22.2837ZM176.042 23.577H176.436L177.028 24.2733V24.0744C177.028 23.8754 177.028 23.7759 177.028 23.7759C177.028 23.6764 176.929 23.6764 176.831 23.6764V23.577H177.225V23.6764C177.127 23.6764 177.127 23.6764 177.127 23.7759C177.127 23.8754 177.127 23.9749 177.127 24.0744V24.7707H177.028L176.337 23.8754V24.1738C176.337 24.3728 176.337 24.4723 176.337 24.4723C176.337 24.5718 176.436 24.5718 176.535 24.5718V24.6713H176.14V24.5718C176.239 24.5718 176.239 24.5718 176.239 24.4723C176.239 24.3728 176.239 24.2733 176.239 24.1738V23.8754C176.239 23.7759 176.239 23.6764 176.239 23.6764C176.14 23.577 176.14 23.577 176.042 23.577ZM177.62 26.1635C177.62 26.5614 177.324 26.7604 177.028 26.7604C176.633 26.7604 176.436 26.4619 176.436 26.1635C176.436 25.865 176.633 25.5666 177.028 25.5666C177.423 25.5666 177.62 25.865 177.62 26.1635ZM176.337 26.7604L175.746 26.8599V26.7604C175.844 26.7604 175.844 26.7604 175.844 26.5614V25.9645C175.844 25.7656 175.844 25.7656 175.746 25.7656V25.6661H176.337V25.7656C176.239 25.7656 176.239 25.7656 176.239 25.9645V26.5614C176.14 26.6609 176.239 26.6609 176.337 26.7604ZM175.45 24.5718C175.548 24.5718 175.548 24.5718 175.548 24.3728V23.7759C175.548 23.577 175.548 23.577 175.45 23.577V23.4775H176.042V23.577C175.943 23.577 175.943 23.577 175.943 23.7759V24.3728C175.943 24.5718 175.943 24.5718 176.042 24.5718V24.6713L175.45 24.5718ZM175.45 26.7604L174.858 26.8599V26.7604C174.956 26.7604 175.055 26.7604 175.055 26.5614V25.7656C174.956 25.7656 174.858 25.7656 174.858 25.865C174.858 25.865 174.858 25.9645 174.759 26.064H174.66C174.66 25.9645 174.66 25.7656 174.66 25.6661H174.759C174.759 25.6661 174.759 25.6661 174.858 25.6661H175.548H175.647H175.746C175.746 25.7656 175.746 25.865 175.746 26.064H175.647C175.647 25.9645 175.647 25.865 175.548 25.865C175.548 25.865 175.45 25.865 175.351 25.865V26.6609C175.252 26.6609 175.252 26.6609 175.45 26.7604ZM174.266 24.6713H173.871V24.5718C173.97 24.5718 173.97 24.5718 173.97 24.4723C173.97 24.3728 173.97 24.3728 173.97 24.1738V23.7759C173.97 23.577 173.97 23.577 173.871 23.4775V23.378H174.266L174.562 24.0744L174.858 23.378H175.252V23.4775C175.154 23.4775 175.154 23.4775 175.154 23.6764V24.2733C175.154 24.4723 175.154 24.4723 175.252 24.4723V24.5718H174.66V24.4723C174.759 24.4723 174.759 24.4723 174.759 24.2733V23.6764L174.463 24.5718H174.364L174.167 23.8754V24.2733C174.167 24.4723 174.167 24.4723 174.167 24.5718C174.167 24.5718 174.167 24.5718 174.266 24.6713ZM175.844 28.8495H175.252C175.351 28.8495 175.351 28.8495 175.351 28.6505V28.0536L175.055 28.8495H174.956L174.66 28.0536V28.4516C174.66 28.6505 174.66 28.6505 174.66 28.75C174.66 28.8495 174.66 28.8495 174.858 28.8495H174.463C174.562 28.8495 174.562 28.8495 174.562 28.75C174.562 28.6505 174.562 28.6505 174.562 28.4516V28.0536C174.562 27.8547 174.562 27.8547 174.463 27.7552V27.6557H174.858L175.154 28.3521L175.45 27.6557H175.844V27.8547C175.746 27.8547 175.746 27.8547 175.746 28.0536V28.6505C175.647 28.8495 175.647 28.8495 175.844 28.8495ZM176.831 28.8495H175.943C176.042 28.8495 176.14 28.8495 176.14 28.6505V28.0536C176.14 27.8547 176.14 27.8547 176.042 27.8547V27.7552H176.831C176.831 27.7552 176.831 27.9542 176.831 28.0536H176.732C176.732 27.9542 176.732 27.9542 176.633 27.8547C176.633 27.8547 176.535 27.8547 176.436 27.8547C176.337 27.8547 176.337 27.8547 176.337 27.9542V28.2526H176.436C176.633 28.2526 176.633 28.2526 176.633 28.1531H176.732V28.551H176.633C176.633 28.3521 176.633 28.3521 176.436 28.3521H176.337V28.6505C176.337 28.75 176.337 28.75 176.337 28.8495H176.436C176.535 28.8495 176.535 28.8495 176.633 28.75C176.633 28.75 176.732 28.6505 176.732 28.551H176.831C176.831 28.6505 176.831 28.8495 176.831 28.8495ZM178.015 28.8495H177.423H177.521C177.62 28.8495 177.62 28.8495 177.521 28.75L177.423 28.551H177.127L177.028 28.75C177.028 28.8495 177.028 28.8495 177.127 28.8495H177.225H176.831C176.929 28.8495 176.929 28.8495 177.028 28.6505L177.423 27.7552H177.521L177.62 28.0536C177.719 28.2526 177.817 28.4516 177.817 28.6505C177.916 28.8495 177.916 28.8495 178.015 28.8495ZM178.409 24.6713H177.817V24.5718H177.916C178.015 24.5718 178.015 24.5718 177.916 24.4723L177.817 24.2733H177.521L177.423 24.4723C177.423 24.5718 177.423 24.5718 177.521 24.5718H177.62V24.6713H177.225V24.5718C177.324 24.5718 177.324 24.5718 177.423 24.3728L177.817 23.4775H177.916L178.015 23.8754C178.113 24.0744 178.212 24.2733 178.212 24.4723C178.31 24.5718 178.31 24.5718 178.409 24.6713Z" fill="white"/>
<path d="M177.324 28.1533L177.226 28.4518H177.422L177.324 28.1533Z" fill="white"/>
<path d="M177.718 23.8755L177.619 24.1739H177.914L177.718 23.8755Z" fill="white"/>
<path d="M170.814 43.5729C171.086 43.5729 171.307 43.3502 171.307 43.0755C171.307 42.8008 171.086 42.5781 170.814 42.5781C170.541 42.5781 170.32 42.8008 170.32 43.0755C170.32 43.3502 170.541 43.5729 170.814 43.5729Z" fill="white"/>
<path d="M175.45 44.2692C175.723 44.2692 175.944 44.0465 175.944 43.7718C175.944 43.4971 175.723 43.2744 175.45 43.2744C175.178 43.2744 174.957 43.4971 174.957 43.7718C174.957 44.0465 175.178 44.2692 175.45 44.2692Z" fill="white"/>
<path d="M172.786 11.0427C173.059 11.0427 173.279 10.82 173.279 10.5453C173.279 10.2705 173.059 10.0479 172.786 10.0479C172.514 10.0479 172.293 10.2705 172.293 10.5453C172.293 10.82 172.514 11.0427 172.786 11.0427Z" fill="white"/>
<path d="M183.638 15.32C183.91 15.32 184.131 15.0973 184.131 14.8226C184.131 14.5479 183.91 14.3252 183.638 14.3252C183.365 14.3252 183.145 14.5479 183.145 14.8226C183.145 15.0973 183.365 15.32 183.638 15.32Z" fill="white"/>
<path d="M161.245 34.6195C161.442 34.9179 161.541 35.1169 161.541 35.4153C161.541 35.7138 161.442 36.0122 160.85 36.4101L159.272 37.6039L158.976 37.206L160.653 36.0122C160.949 35.8132 161.047 35.6143 161.047 35.4153C161.047 35.3158 160.949 35.1169 160.85 34.9179C160.653 34.7189 160.456 34.6195 160.258 34.6195C160.061 34.6195 159.864 34.7189 159.568 34.9179L157.989 36.0122L157.693 35.6143L159.173 34.6195C159.568 34.321 159.864 34.1221 160.258 34.1221C160.752 34.0226 161.047 34.321 161.245 34.6195Z" fill="white"/>
<path d="M156.016 31.3365L159.172 30.2422L159.37 30.7396L157.594 32.9282L159.863 32.0329L160.06 32.5303L157.002 33.7241L156.805 33.2266L158.581 31.038L156.213 31.8339L156.016 31.3365Z" fill="white"/>
<path d="M155.621 28.8499L158.877 28.3525L158.975 28.8499L155.72 29.3474L155.621 28.8499Z" fill="white"/>
<path d="M155.522 24.8703V24.2734L158.777 25.5667V26.1636L155.423 27.1584V26.5615L158.185 25.7657L155.522 24.8703Z" fill="white"/>
<path d="M158.482 17.4092C157.988 17.4092 157.791 17.7076 157.495 18.205L157.101 18.9014L160.06 20.4931L160.356 19.9957L159.172 19.2993L159.271 19.1999C159.468 18.8019 159.567 18.8019 160.06 18.8019L161.047 18.9014L161.343 18.404L160.257 18.3045C160.06 18.3045 159.863 18.3045 159.764 18.3045C159.764 18.3045 159.665 18.3045 159.567 18.404C159.567 18.3045 159.567 18.3045 159.567 18.205C159.567 18.1056 159.567 18.0061 159.567 17.9066C159.468 17.7076 159.37 17.5087 159.172 17.4092C158.778 17.4092 158.58 17.4092 158.482 17.4092ZM157.89 18.404C158.087 18.0061 158.186 17.9066 158.383 17.9066C158.482 17.9066 158.58 17.9066 158.679 18.0061C158.778 18.1056 158.876 18.205 158.975 18.3045V18.404C158.975 18.603 158.876 18.8019 158.778 19.0009L158.679 19.1004L157.791 18.603L157.89 18.404Z" fill="white"/>
<path d="M162.033 12.6339L162.428 12.3354L164.401 15.0215L164.006 15.3199L162.033 12.6339Z" fill="white"/>
<path d="M163.908 11.3409L166.079 10.2466L166.276 10.6445L165.487 11.0424L166.769 13.629L166.276 13.9274L164.993 11.3409L164.204 11.7388L163.908 11.3409Z" fill="white"/>
<path d="M169.235 9.25171L169.827 9.05273L169.333 11.2413L169.728 12.5346L169.235 12.6341L168.84 11.3408L167.262 9.64963L167.854 9.45066L168.939 10.6444L169.235 9.25171Z" fill="white"/>
<path d="M179.297 13.8278L180.974 10.9429L182.552 11.8382L182.355 12.2361L181.27 11.5398L180.777 12.3356L181.862 12.9325L181.664 13.3304L180.579 12.7335L179.79 14.0268L179.297 13.8278Z" fill="white"/>
<path d="M187.782 21.1895L188.965 19.6973L189.163 20.2942L188.275 21.289L189.557 21.5874L189.755 22.0848L187.979 21.6869L186.696 23.2786L186.499 22.6817L187.486 21.4879L186.006 21.1895L185.809 20.5926L187.782 21.1895Z" fill="white"/>
<path d="M186.893 24.5719L190.148 24.2734L190.345 26.1636H189.852L189.753 24.8703H188.866L188.964 26.0641H188.57L188.471 24.8703L186.893 25.0693V24.5719Z" fill="white"/>
<path d="M188.274 27.457C187.879 27.457 187.583 27.5565 187.287 27.7555C186.794 28.1534 186.695 28.6508 186.695 28.9493C186.695 30.0436 187.78 30.541 188.57 30.541C188.964 30.541 189.26 30.4415 189.556 30.2425C190.148 29.8446 190.148 29.2477 190.148 29.0487C190.148 28.0539 189.26 27.457 188.274 27.457ZM188.57 30.0436C187.879 30.0436 187.189 29.6456 187.189 29.0487C187.189 28.8498 187.287 28.4518 187.583 28.2529C187.78 28.1534 188.076 28.0539 188.274 28.0539C188.57 28.0539 189.162 28.1534 189.458 28.5513C189.556 28.6508 189.655 28.8498 189.655 29.0487C189.655 29.3472 189.556 29.6456 189.26 29.8446C189.162 29.9441 188.866 30.0436 188.57 30.0436Z" fill="white"/>
<path d="M186.4 16.4146C186.104 16.4146 185.709 16.514 185.413 16.713C184.821 17.1109 184.525 17.7078 184.525 18.1057C184.525 18.4042 184.624 18.6032 184.723 18.9016C185.117 19.4985 185.611 19.598 186.005 19.598C186.301 19.598 186.696 19.4985 187.09 19.2995C187.485 19.0011 187.978 18.5037 187.978 17.9068C187.978 17.6083 187.879 17.4094 187.781 17.1109C187.386 16.6135 186.893 16.4146 186.4 16.4146ZM185.906 19.1006C185.611 19.1006 185.315 19.0011 185.117 18.7026C185.019 18.5037 185.019 18.4042 185.019 18.2052C185.019 17.8073 185.216 17.4094 185.709 17.1109C186.005 16.912 186.301 16.8125 186.498 16.8125C186.794 16.8125 187.09 16.912 187.288 17.2104C187.386 17.4094 187.485 17.5088 187.485 17.7078C187.485 18.1057 187.288 18.4042 186.794 18.7026C186.4 19.0011 186.104 19.1006 185.906 19.1006Z" fill="white"/>
<path d="M177.423 9.45068C176.733 9.45068 176.141 9.94809 175.845 10.7439C175.746 10.9429 175.746 11.1419 175.746 11.2414C175.746 11.5398 175.845 11.8382 175.943 12.1367C176.239 12.7336 176.831 12.9325 177.226 12.9325C177.423 12.9325 177.719 12.8331 177.916 12.7336C178.508 12.4351 178.804 11.7388 178.804 11.0424C178.804 10.7439 178.706 10.4455 178.607 10.2465C178.41 9.74913 177.916 9.45068 177.423 9.45068ZM177.226 12.4351C177.029 12.4351 176.634 12.3357 176.437 11.9377C176.338 11.7388 176.338 11.5398 176.338 11.3408C176.338 10.7439 176.733 9.94809 177.423 9.94809C177.818 9.94809 178.311 10.2465 178.311 11.0424C178.311 11.5398 178.015 12.4351 177.226 12.4351Z" fill="white"/>
<path d="M159.074 21.5872L159.567 21.6867L159.074 23.4774L155.917 22.5821L156.509 20.6919L156.903 20.7914L156.509 22.0846L157.397 22.2836L157.693 21.0898L158.087 21.1893L157.791 22.3831L158.778 22.6815L159.074 21.5872Z" fill="white"/>
<path d="M159.863 14.6239C160.357 14.1265 160.751 14.1265 160.751 14.1265L160.85 14.5244C160.85 14.5244 160.455 14.5244 160.159 14.8228C160.061 14.9223 159.962 15.1213 159.962 15.2208C159.962 15.3202 159.962 15.4197 160.061 15.5192C160.258 15.7182 160.653 15.5192 160.949 15.4197C161.146 15.3202 161.442 15.2208 161.639 15.2208C161.836 15.2208 162.034 15.3202 162.231 15.4197C162.428 15.6187 162.527 15.9171 162.527 16.1161C162.527 16.4145 162.428 16.6135 162.231 16.912C161.836 17.4094 161.244 17.4094 161.244 17.4094L161.146 17.0114C161.442 16.912 161.738 16.8125 161.935 16.6135C162.034 16.514 162.132 16.3151 162.132 16.2156C162.132 16.1161 162.034 16.0166 161.935 15.9171C161.836 15.8177 161.738 15.8177 161.639 15.8177C161.442 15.8177 161.146 15.9171 160.949 16.0166C160.554 16.2156 160.159 16.3151 159.765 16.0166C159.567 15.8177 159.469 15.6187 159.469 15.4197C159.567 15.1213 159.666 14.8228 159.863 14.6239Z" fill="white"/>
<path d="M186.005 31.8343L187.287 32.4312L187.189 32.5307C186.992 32.9286 186.992 33.0281 186.4 33.0281H185.413L185.216 33.5255H186.301C186.498 33.5255 186.696 33.5255 186.794 33.426C186.794 33.426 186.893 33.426 186.893 33.3266V33.426C186.893 33.5255 186.893 33.625 186.992 33.824C187.189 34.2219 187.583 34.3214 187.879 34.3214C188.373 34.3214 188.57 34.0229 188.866 33.426L189.162 32.7297L186.202 31.3369L186.005 31.8343ZM187.978 33.824C187.781 33.824 187.583 33.7245 187.485 33.5255C187.485 33.426 187.485 33.426 187.485 33.3266C187.485 33.1276 187.583 32.9286 187.682 32.7297L187.781 32.6302L188.767 33.0281L188.669 33.3266C188.274 33.7245 188.175 33.824 187.978 33.824Z" fill="white"/>
<path d="M184.23 35.0177C183.934 35.4156 183.638 35.8135 183.638 36.3109C183.638 36.7089 183.835 37.2063 184.328 37.6042C184.624 37.9026 185.019 38.0021 185.413 38.0021C185.907 38.0021 186.203 37.9026 186.795 37.1068L187.288 36.4104L184.723 34.3213L184.23 35.0177ZM185.413 37.5047C185.117 37.5047 184.92 37.4052 184.624 37.2063C184.328 37.0073 184.131 36.7089 184.131 36.2114C184.131 35.913 184.328 35.6146 184.526 35.3161L184.723 35.0177L186.597 36.5099L186.499 36.8083C186.104 37.3057 185.907 37.5047 185.413 37.5047Z" fill="white"/>
<path d="M191.825 26.5615C191.825 16.0164 183.341 7.46094 172.884 7.46094C162.427 7.46094 153.943 16.0164 153.943 26.5615C153.943 32.9283 157.002 38.7977 162.23 42.3791C162.723 44.2692 164.499 45.7615 166.571 45.7615C167.162 45.7615 167.656 45.662 168.149 45.463C168.84 45.662 169.53 45.8609 170.319 46.0599C170.122 46.6568 169.826 47.1542 169.53 47.6516L169.925 48.0495C170.023 47.9501 170.122 47.9501 170.221 47.9501C170.615 47.9501 170.911 48.2485 170.911 48.6464C170.911 49.0444 170.615 49.3428 170.221 49.3428C169.925 49.3428 169.629 49.1438 169.431 48.8454C169.431 48.8454 169.333 49.1438 169.333 49.6412C169.333 51.034 170.813 52.6257 172.884 53.2226C174.956 52.5262 176.436 51.034 176.436 49.6412C176.436 49.1438 176.337 48.8454 176.337 48.8454C176.14 49.0444 175.942 49.3428 175.548 49.3428C175.153 49.3428 174.857 49.0444 174.857 48.6464C174.857 48.2485 175.153 47.9501 175.548 47.9501C175.646 47.9501 175.844 47.9501 175.942 48.0495L176.337 47.6516C176.14 47.1542 175.942 46.6568 175.844 46.1594C179.296 45.662 182.157 44.2692 184.426 41.7822C189.063 38.1014 191.825 32.5304 191.825 26.5615ZM166.472 45.1646C164.302 45.1646 162.526 43.3739 162.526 41.1853C162.526 40.4889 162.723 39.892 163.019 39.2951C163.216 39.4941 163.414 39.6931 163.611 39.892C163.414 40.29 163.315 40.7874 163.315 41.1853C163.315 42.3791 163.907 43.3739 164.992 44.0703C165.683 44.4682 166.373 44.7666 167.162 45.0651C166.965 45.1646 166.768 45.1646 166.472 45.1646ZM172.884 39.3946C172.095 39.3946 171.306 39.2951 170.517 39.1957C169.727 37.7034 168.248 36.7086 166.571 36.7086C166.176 36.7086 165.781 36.8081 165.387 36.9076C162.131 34.52 160.257 30.6402 160.257 26.5615C160.257 19.4982 165.979 13.7283 172.983 13.7283C179.987 13.7283 185.709 19.4982 185.709 26.5615C185.511 33.6247 179.79 39.3946 172.884 39.3946ZM175.646 39.5936C175.252 40.1905 175.054 40.8868 174.956 41.6827C173.772 41.3843 172.687 40.9863 171.7 40.4889C171.898 40.091 172.391 39.892 172.786 39.892C173.772 39.892 174.759 39.7925 175.646 39.5936ZM171.602 39.892C171.404 39.9915 171.306 40.1905 171.207 40.29C170.714 40.091 170.122 39.7925 169.727 39.4941C170.319 39.6931 171.108 39.7925 171.602 39.892ZM166.472 37.206C167.754 37.206 169.037 37.9024 169.727 38.9967C169.135 38.7977 168.445 38.5988 167.853 38.3998C167.458 38.2008 166.965 38.1014 166.472 38.1014C165.387 38.1014 164.499 38.5988 163.907 39.3946C163.71 39.2951 163.414 39.0962 163.216 38.9967C164.006 37.9024 165.189 37.206 166.472 37.206ZM175.449 47.3532C174.759 47.3532 174.167 47.8506 174.167 48.6464C174.167 49.4423 174.759 49.9397 175.449 49.9397C175.548 49.9397 175.646 49.9397 175.745 49.9397C175.646 51.034 174.364 52.2278 172.786 52.7252C171.207 52.2278 170.023 51.034 169.826 49.9397C169.925 49.9397 170.023 49.9397 170.122 49.9397C170.911 49.9397 171.404 49.4423 171.404 48.6464C171.404 47.9501 170.813 47.3532 170.122 47.3532C170.319 46.9552 170.517 46.5573 170.714 46.0599C171.602 46.2589 172.391 46.2589 173.279 46.2589C173.969 46.2589 174.561 46.2589 175.153 46.1594C175.252 46.5573 175.35 46.9552 175.449 47.3532C175.449 47.3532 175.548 47.3532 175.449 47.3532ZM173.279 45.7615C170.714 45.7615 167.557 44.8661 165.387 43.5729C164.696 43.1749 163.907 42.4786 163.907 41.1853C163.907 40.8868 164.006 40.4889 164.104 40.1905C164.894 40.8868 165.781 41.4837 166.275 41.7822C166.373 41.8817 166.472 41.8817 166.571 41.8817C166.867 41.8817 167.162 41.5832 167.162 41.2848C167.162 40.9863 167.064 40.7874 166.768 40.6879C166.275 40.4889 165.387 40.091 164.4 39.5936C164.894 38.9967 165.584 38.5988 166.472 38.5988C166.867 38.5988 167.261 38.6982 167.557 38.7977L168.248 39.1957C170.418 40.5884 176.14 44.0703 183.045 42.1801C180.48 44.5677 177.225 45.7615 173.279 45.7615ZM183.933 41.3843C180.875 42.4786 178.014 42.3791 175.548 41.8817C175.646 40.7874 176.041 39.5936 176.732 39.3946C182.157 37.7034 186.103 32.6298 186.103 26.5615C186.103 19.1998 180.184 13.1314 172.884 13.1314C165.584 13.1314 159.665 19.1003 159.665 26.5615C159.665 30.6402 161.539 34.52 164.795 37.1065C164.006 37.405 163.414 38.0019 162.921 38.6982C162.723 38.4993 162.427 38.3998 162.23 38.2008L162.131 38.3003C162.23 38.4993 162.526 38.6982 162.723 38.9967C162.329 39.6931 162.131 40.4889 162.131 41.2848C162.131 41.3843 162.131 41.5832 162.131 41.6827C157.396 38.2008 154.535 32.6298 154.535 26.6609C154.437 16.3148 162.723 7.95835 172.884 7.95835C182.946 7.95835 191.233 16.3148 191.233 26.5615C191.233 32.4309 188.57 37.8029 183.933 41.3843Z" fill="white"/>
<path d="M25.2998 29.8001C25.2998 31.6001 24.7998 33.2001 23.7998 34.3001C22.7998 35.5001 21.4998 36.1001 19.9998 36.1001C18.4998 36.1001 17.2998 35.5001 16.2998 34.4001C15.2998 33.2001 14.7998 31.8001 14.7998 30.0001C14.7998 28.1001 15.2998 26.6001 16.2998 25.4001C17.2998 24.2001 18.5998 23.6001 20.0998 23.6001C21.5998 23.6001 22.7998 24.2001 23.7998 25.4001C24.7998 26.5001 25.2998 28.0001 25.2998 29.8001ZM24.4998 29.7001C24.4998 28.1001 24.0998 26.8001 23.2998 25.8001C22.4998 24.8001 21.3998 24.3001 20.0998 24.3001C18.7998 24.3001 17.6998 24.8001 16.8998 25.8001C16.0998 26.8001 15.6998 28.1001 15.6998 29.8001C15.6998 31.4001 16.0998 32.8001 16.8998 33.9001C17.6998 35.0001 18.7998 35.5001 19.9998 35.5001C21.2998 35.5001 22.3998 35.0001 23.1998 34.0001C24.0998 32.9001 24.4998 31.5001 24.4998 29.7001Z" fill="white"/>
<path d="M35.8996 35.9003H34.8996L31.3996 30.2003L27.9996 35.9003H27.0996L30.9996 29.6003L27.3996 23.8003H28.3996L31.4996 29.0003L34.5996 23.8003H35.4996L31.9996 29.6003L35.8996 35.9003Z" fill="white"/>
<path d="M44.7002 24.4002H39.5002V29.1002H44.3002V29.8002H39.5002V35.9002H38.7002V23.7002H44.7002V24.4002Z" fill="white"/>
<path d="M57.7002 29.8001C57.7002 31.6001 57.2002 33.2001 56.2002 34.3001C55.2002 35.5001 53.9002 36.1001 52.4002 36.1001C50.9002 36.1001 49.7002 35.5001 48.7002 34.4001C47.7002 33.2001 47.2002 31.8001 47.2002 30.0001C47.2002 28.1001 47.7002 26.6001 48.7002 25.4001C49.7002 24.2001 51.0002 23.6001 52.5002 23.6001C54.0002 23.6001 55.2002 24.2001 56.2002 25.4001C57.2002 26.5001 57.7002 28.0001 57.7002 29.8001ZM56.9002 29.7001C56.9002 28.1001 56.5002 26.8001 55.7002 25.8001C54.9002 24.8001 53.8002 24.3001 52.5002 24.3001C51.2002 24.3001 50.1002 24.8001 49.3002 25.8001C48.5002 26.8001 48.1002 28.1001 48.1002 29.8001C48.1002 31.4001 48.5002 32.8001 49.3002 33.9001C50.1002 35.0001 51.2002 35.5001 52.4002 35.5001C53.7002 35.5001 54.8002 35.0001 55.6002 34.0001C56.5002 32.9001 56.9002 31.5001 56.9002 29.7001Z" fill="white"/>
<path d="M68.8002 35.9002H68.0002L66.7002 32.8002C66.4002 32.2002 66.3002 31.9002 66.2002 31.7002C66.0002 31.3002 65.7002 31.0002 65.5002 30.8002C65.1002 30.5002 64.5002 30.3002 63.5002 30.3002H62.0002V35.9002H61.2002V23.7002H63.6002C64.5002 23.7002 65.1002 23.7002 65.5002 23.8002C66.2002 23.9002 66.7002 24.2002 67.1002 24.5002C67.7002 25.1002 68.1002 26.0002 68.1002 26.9002C68.1002 27.8002 67.8002 28.5002 67.3002 29.0002C66.8002 29.5002 66.1002 29.8002 65.4002 29.9002C65.8002 29.9002 66.2002 30.2002 66.6002 30.6002C66.7002 30.8002 66.9002 31.2002 67.2002 31.7002L68.8002 35.9002ZM67.1002 26.9002C67.1002 26.2002 66.9002 25.6002 66.4002 25.1002C66.1002 24.8002 65.7002 24.6002 65.3002 24.5002C65.0002 24.4002 64.5002 24.4002 63.8002 24.4002H62.0002V29.6002H62.9002C63.9002 29.6002 64.5002 29.6002 65.0002 29.5002C65.7002 29.4002 66.2002 29.1002 66.6002 28.7002C66.9002 28.3002 67.1002 27.7002 67.1002 26.9002Z" fill="white"/>
<path d="M81.0996 29.8002C81.0996 31.7002 80.4996 33.3002 79.2996 34.5002C78.6996 35.1002 77.9996 35.5002 77.1996 35.7002C76.4996 35.9002 75.5996 36.0002 74.3996 36.0002H71.5996V23.7002H73.6996C75.1996 23.7002 76.2996 23.8002 76.9996 23.9002C77.9996 24.1002 78.6996 24.5002 79.2996 25.1002C80.4996 26.4002 81.0996 27.9002 81.0996 29.8002ZM80.1996 29.7002C80.1996 28.0002 79.6996 26.7002 78.6996 25.7002C78.0996 25.1002 77.2996 24.7002 76.3996 24.6002C75.8996 24.5002 74.9996 24.5002 73.6996 24.5002H72.3996V35.3002H74.0996C75.2996 35.3002 76.0996 35.3002 76.5996 35.2002C77.3996 35.0002 78.1996 34.6002 78.6996 34.1002C79.6996 33.0002 80.1996 31.6002 80.1996 29.7002Z" fill="white"/>
<path d="M28.0998 53.8H25.6998L24.9998 45.5L22.2998 53.8H20.1998L17.3998 45.5L16.9998 53.8H14.7998L15.8998 42H18.5998L21.5998 50.6L24.3998 42H26.9998L28.0998 53.8Z" fill="white"/>
<path d="M41.4998 53.8H38.8998L37.9998 51.3H33.6998L32.7998 53.8H30.2998L34.5998 42H37.0998L41.4998 53.8ZM37.2998 49.4L35.7998 44.6L34.2998 49.4H37.2998Z" fill="white"/>
<path d="M52.6998 53.7999H49.9998L48.5998 50.5999C48.2998 49.8999 47.9998 49.4999 47.6998 49.2999C47.4998 49.1999 47.0998 49.0999 46.5998 49.0999H46.2998V53.7999H43.7998V41.8999H46.7998C47.8998 41.8999 48.5998 41.8999 48.9998 41.9999C49.6998 42.0999 50.3998 42.3999 50.7998 42.8999C51.3998 43.4999 51.7998 44.2999 51.7998 45.2999C51.7998 46.0999 51.5998 46.6999 51.1998 47.2999C50.6998 47.8999 50.0998 48.1999 49.1998 48.3999C49.6998 48.3999 50.1998 48.7999 50.5998 49.3999C50.6998 49.5999 50.9998 50.0999 51.3998 50.9999L52.6998 53.7999ZM49.2998 45.3999C49.2998 44.8999 49.1998 44.4999 48.8998 44.2999C48.6998 44.0999 48.3998 43.9999 48.0998 43.8999C47.8998 43.8999 47.4998 43.7999 46.8998 43.7999H46.1998V47.0999H47.1998C47.8998 47.0999 48.4998 46.8999 48.7998 46.5999C49.0998 46.2999 49.2998 45.8999 49.2998 45.3999Z" fill="white"/>
<path d="M63.1002 43.8999H59.9002V53.6999H57.4002V43.8999H54.2002V41.8999H63.2002V43.8999H63.1002Z" fill="white"/>
<path d="M68.0996 53.7999H65.5996V41.8999H68.0996V53.7999Z" fill="white"/>
<path d="M80.5002 53.7999H78.4002L73.4002 45.8999L73.5002 53.7999H71.2002V41.8999H73.5002L78.4002 49.7999L78.3002 41.8999H80.6002V53.7999H80.5002Z" fill="white"/>
<path d="M61.1 93.8998C61.1 94.1998 61 94.5998 61 94.9998L68.2 87.7998C67.8 87.7998 67.4 87.8998 67.1 87.8998L61.1 93.8998Z" fill="#FFFFFE"/>
<path d="M70 87.9999C69.7 87.8999 69.4 87.8999 69.1 87.8999L61 95.9999C61 96.2999 61.1 96.5999 61.1 96.8999L70 87.9999Z" fill="#FFFFFE"/>
<path d="M71.6 88.5002C71.4 88.4002 71.1 88.3002 70.9 88.2002L61.5 97.7002C61.6 97.9002 61.7 98.2002 61.8 98.4002L71.6 88.5002Z" fill="#FFFFFE"/>
<path d="M72.7996 89.2999C72.5996 89.1999 72.3996 88.9999 72.1996 88.8999L62.0996 99.0999C62.1996 99.2999 62.3996 99.4999 62.4996 99.6999L72.7996 89.2999Z" fill="#FFFFFE"/>
<path d="M73.4004 89.7998L62.9004 100.3C63.1004 100.5 63.2004 100.6 63.4004 100.8L73.9004 90.2998C73.7004 90.0998 73.6004 89.8998 73.4004 89.7998Z" fill="#FFFFFE"/>
<path d="M71.2998 102.1C72.6998 101.5 73.7998 100.5 74.5998 99.3C74.4998 99.2 74.4998 99.1 74.3998 99L71.2998 102.1Z" fill="#FFFFFE"/>
<path d="M0 0V95.8H48.5C48.8 99.7 52 102.7 55.9 102.7C58.5 102.7 60.8 101.3 62.1 99.3C62 99.1 61.8 98.8 61.7 98.6C60.6 100.6 58.4 102 55.9 102C52.4 102 49.5 99.3 49.2 95.8C49.2 95.6 49.2 95.5 49.2 95.3C49.2 95.2 49.2 95.2 49.2 95.1C49.3 91.5 52.3 88.6 55.9 88.6C58.4 88.6 60.6 90 61.7 92C61.7 91.9 61.8 91.9 61.8 91.8C61.7 92 61.6 92.2 61.5 92.4L65.5 88.4C64 89 62.7 90.2 61.9 91.6C62 91.5 62 91.3 62.1 91.2C60.8 89.1 58.5 87.8 55.9 87.8C51.9 87.8 48.6 91 48.5 95H0.7V0.7H94.8V95H88.2C88.2 95.1 88.2 95.1 88.2 95.2C88.2 91.1 84.9 87.8 80.8 87.8C78.2 87.8 75.9 89.2 74.6 91.2C74.5 91.1 74.4 90.9 74.3 90.8L64 101.2C64.2 101.3 64.4 101.5 64.6 101.6L74.2 92C74 92.5 73.8 93 73.6 93.6L65.2 102C65.4 102.1 65.7 102.2 65.9 102.3L73.4 94.8C73.4 95 73.4 95.1 73.4 95.3C73.4 95.5 73.4 95.7 73.4 95.9L66.7 102.6C67 102.7 67.3 102.7 67.6 102.7L73.5 96.8C73.5 96.6 73.4 96.5 73.4 96.3C73.5 96.8 73.6 97.2 73.7 97.6L68.6 102.7C69 102.7 69.4 102.6 69.7 102.6L74 98.3C75.2 100.9 77.8 102.7 80.8 102.7C84.9 102.7 88.2 99.4 88.2 95.3C88.2 95.5 88.2 95.6 88.2 95.8H95.5V0H0ZM73.6 94.1C73.5 94.2 73.5 94.2 73.6 94.1C73.5 94.2 73.5 94.2 73.6 94.1Z" fill="#FFFFFE"/>
<path d="M21.8002 68.8002C21.8002 69.8002 21.5002 70.7002 20.9002 71.3002C20.2002 72.0002 19.3002 72.3002 18.1002 72.3002C16.8002 72.3002 15.7002 71.9002 14.7002 71.0002L15.2002 70.4002C16.2002 71.2002 17.2002 71.5002 18.1002 71.5002C19.0002 71.5002 19.8002 71.3002 20.3002 70.8002C20.8002 70.3002 21.1002 69.7002 21.1002 68.8002C21.1002 68.2002 20.9002 67.7002 20.4002 67.2002C20.0002 66.8002 19.2002 66.4002 18.1002 65.9002C17.0002 65.4002 16.2002 65.0002 15.8002 64.6002C15.3002 64.1002 15.1002 63.5002 15.1002 62.7002C15.1002 61.8002 15.4002 61.1002 16.0002 60.5002C16.6002 59.9002 17.5002 59.7002 18.5002 59.7002C19.8002 59.7002 20.9002 60.1002 21.7002 61.0002L21.2002 61.5002C20.8002 61.2002 20.6002 61.0002 20.5002 60.9002C19.9002 60.6002 19.3002 60.4002 18.6002 60.4002C17.8002 60.4002 17.1002 60.6002 16.6002 61.1002C16.1002 61.5002 15.8002 62.1002 15.8002 62.8002C15.8002 63.3002 16.0002 63.8002 16.4002 64.2002C16.8002 64.6002 17.5002 65.0002 18.7002 65.5002C19.8002 66.0002 20.6002 66.4002 21.0002 66.8002C21.5002 67.2002 21.8002 67.9002 21.8002 68.8002Z" fill="white"/>
<path d="M33.8004 71.2002C33.6004 71.4002 33.2004 71.6002 32.7004 71.8002C31.9004 72.1002 31.0004 72.3002 30.0004 72.3002C28.4004 72.3002 27.1004 71.8002 26.0004 70.7002C24.9004 69.6002 24.4004 68.0002 24.4004 66.1002C24.4004 64.1002 25.0004 62.6002 26.1004 61.4002C27.2004 60.3002 28.5004 59.7002 30.1004 59.7002C31.6004 59.7002 32.7004 60.0002 33.5004 60.6002L33.1004 61.2002C32.3004 60.7002 31.3004 60.4002 30.2004 60.4002C28.8004 60.4002 27.6004 60.9002 26.7004 61.8002C25.7004 62.8002 25.2004 64.2002 25.2004 65.8002C25.2004 67.5002 25.6004 68.8002 26.5004 69.9002C27.4004 70.9002 28.6004 71.4002 30.1004 71.4002C31.2004 71.4002 32.2004 71.1002 33.3004 70.5002L33.8004 71.2002Z" fill="white"/>
<path d="M44.6004 72.0004H43.8004V66.0004H37.2004V72.0004H36.4004V59.9004H37.2004V65.3004H43.8004V59.9004H44.6004V72.0004Z" fill="white"/>
<path d="M58.4004 65.9002C58.4004 67.7002 57.9004 69.3002 56.9004 70.4002C55.9004 71.6002 54.6004 72.2002 53.1004 72.2002C51.6004 72.2002 50.4004 71.6002 49.4004 70.5002C48.4004 69.3002 47.9004 67.9002 47.9004 66.1002C47.9004 64.2002 48.4004 62.7002 49.4004 61.5002C50.4004 60.3002 51.7004 59.7002 53.2004 59.7002C54.7004 59.7002 55.9004 60.3002 56.9004 61.5002C57.9004 62.6002 58.4004 64.1002 58.4004 65.9002ZM57.5004 65.8002C57.5004 64.2002 57.1004 62.9002 56.3004 61.9002C55.5004 60.9002 54.4004 60.4002 53.1004 60.4002C51.8004 60.4002 50.7004 60.9002 49.9004 61.9002C49.1004 62.9002 48.7004 64.2002 48.7004 65.9002C48.7004 67.5002 49.1004 68.9002 49.9004 70.0002C50.7004 71.1002 51.8004 71.6002 53.0004 71.6002C54.3004 71.6002 55.4004 71.1002 56.2004 70.1002C57.1004 69.0002 57.5004 67.6002 57.5004 65.8002Z" fill="white"/>
<path d="M71.5 65.9002C71.5 67.7002 71 69.3002 70 70.4002C69 71.6002 67.7 72.2002 66.2 72.2002C64.7 72.2002 63.5 71.6002 62.5 70.5002C61.5 69.3002 61 67.9002 61 66.1002C61 64.2002 61.5 62.7002 62.5 61.5002C63.5 60.3002 64.8 59.7002 66.3 59.7002C67.8 59.7002 69 60.3002 70 61.5002C71 62.7002 71.5 64.1002 71.5 65.9002ZM70.7 65.8002C70.7 64.2002 70.3 62.9002 69.5 61.9002C68.7 60.9002 67.6 60.4002 66.3 60.4002C65 60.4002 63.9 60.9002 63.1 61.9002C62.3 62.9002 61.9 64.2002 61.9 65.9002C61.9 67.5002 62.3 68.9002 63.1 70.0002C63.9 71.1002 65 71.6002 66.2 71.6002C67.5 71.6002 68.6 71.1002 69.4 70.1002C70.3 69.0002 70.7 67.6002 70.7 65.8002Z" fill="white"/>
<path d="M80.9002 72.0004H74.7002V59.9004H75.5002V71.3004H80.9002V72.0004Z" fill="white"/>
</g>
<defs>
<clipPath id="clip0">
<rect width="201" height="103" fill="white"/>
</clipPath>
</defs>
</svg>
