<svg xmlns="http://www.w3.org/2000/svg" width="104" height="57" fill="none"><path fill="#002147" d="M0 0h104v57H0z"/><path fill="#CE261E" d="M0 53h104v4H0z"/><path fill="#fff" d="M22.088 16.92c0 1.018-.17 1.962-.509 2.832A6.708 6.708 0 0 1 20.148 22a6.539 6.539 0 0 1-2.22 1.488c-.864.352-1.821.528-2.872.528-1.05 0-2.01-.177-2.882-.529a6.644 6.644 0 0 1-2.228-1.488 6.708 6.708 0 0 1-1.432-2.246 7.727 7.727 0 0 1-.509-2.832c0-1.018.17-1.958.51-2.822a6.687 6.687 0 0 1 1.43-2.256 6.527 6.527 0 0 1 2.23-1.479c.87-.358 1.831-.537 2.881-.537 1.05 0 2.008.179 2.873.537a6.539 6.539 0 0 1 2.219 1.488 6.582 6.582 0 0 1 1.431 2.247c.34.864.51 1.804.51 2.822Zm-2.651 0c0-.762-.103-1.443-.308-2.045a4.272 4.272 0 0 0-.864-1.545 3.734 3.734 0 0 0-1.383-.97c-.538-.224-1.147-.336-1.826-.336-.678 0-1.29.112-1.834.336a3.824 3.824 0 0 0-1.393.97 4.38 4.38 0 0 0-.875 1.545c-.205.602-.307 1.284-.307 2.045 0 .762.102 1.446.307 2.054a4.4 4.4 0 0 0 .875 1.537 3.87 3.87 0 0 0 1.393.96c.544.224 1.155.335 1.834.335.68 0 1.288-.111 1.826-.335a3.786 3.786 0 0 0 1.383-.96c.378-.423.666-.935.864-1.537.205-.608.308-1.292.308-2.054Zm6.346-2.909v6.26c0 .601.138 1.068.413 1.401.282.326.701.49 1.258.49.41 0 .795-.09 1.153-.27a4.132 4.132 0 0 0 1.019-.758v-7.123h2.372v9.85h-1.45c-.308 0-.51-.144-.605-.432l-.164-.787a7.444 7.444 0 0 1-.634.566c-.218.167-.451.31-.701.432a3.79 3.79 0 0 1-.797.269 3.78 3.78 0 0 1-.913.106c-.538 0-1.015-.09-1.431-.27a2.916 2.916 0 0 1-1.038-.777 3.45 3.45 0 0 1-.643-1.18 5.169 5.169 0 0 1-.212-1.518v-6.259h2.373Zm8.365 9.849v-9.849h1.392c.244 0 .413.045.51.135.096.09.16.243.192.46l.144 1.19c.352-.607.765-1.087 1.239-1.44a2.609 2.609 0 0 1 1.595-.527c.486 0 .89.112 1.21.336l-.307 1.776c-.02.115-.061.198-.125.25a.445.445 0 0 1-.26.067c-.096 0-.227-.023-.393-.067a2.638 2.638 0 0 0-.663-.068c-.493 0-.916.138-1.268.413-.353.269-.65.666-.894 1.19v6.135h-2.373Zm9.636-13.88h2.171c.224 0 .41.054.557.162a.735.735 0 0 1 .308.423l2.363 8.304c.057.205.109.429.154.672.05.237.099.49.144.758.05-.268.105-.521.163-.758.064-.243.131-.467.202-.672l2.728-8.304a.92.92 0 0 1 .298-.403.87.87 0 0 1 .557-.183h.759a.91.91 0 0 1 .557.164.79.79 0 0 1 .307.422l2.71 8.304c.14.41.262.864.364 1.363.045-.25.09-.49.135-.72.051-.23.102-.445.153-.643l2.364-8.304a.775.775 0 0 1 .297-.413.903.903 0 0 1 .558-.173h2.027l-4.314 13.882h-2.334l-3.036-9.485-.124-.393a15.356 15.356 0 0 1-.116-.452c-.038.16-.08.31-.125.451a8.546 8.546 0 0 1-.115.394l-3.064 9.485h-2.335L43.784 9.979Zm24.696 3.878c.736 0 1.402.118 1.998.355a4.31 4.31 0 0 1 1.537 1.008c.422.435.749.966.98 1.593.23.628.345 1.328.345 2.103 0 .78-.115 1.485-.345 2.112a4.56 4.56 0 0 1-.98 1.603c-.423.442-.935.78-1.537 1.018-.596.237-1.262.355-1.998.355-.737 0-1.406-.118-2.008-.355a4.343 4.343 0 0 1-1.547-1.018 4.676 4.676 0 0 1-.99-1.603c-.23-.627-.345-1.331-.345-2.112 0-.775.115-1.475.346-2.103a4.573 4.573 0 0 1 .99-1.593 4.4 4.4 0 0 1 1.546-1.008c.602-.237 1.271-.355 2.008-.355Zm0 8.323c.82 0 1.424-.275 1.815-.826.397-.55.596-1.357.596-2.419s-.199-1.872-.596-2.429c-.39-.557-.996-.835-1.816-.835-.832 0-1.447.282-1.844.845-.397.557-.596 1.363-.596 2.42 0 1.055.199 1.861.596 2.418.397.55 1.012.826 1.844.826Zm6.328 1.679v-9.849H76.2c.244 0 .413.045.51.135.096.09.16.243.192.46l.144 1.19c.352-.607.765-1.087 1.239-1.44a2.609 2.609 0 0 1 1.595-.527c.486 0 .89.112 1.21.336l-.307 1.776c-.02.115-.061.198-.125.25a.445.445 0 0 1-.26.067 1.62 1.62 0 0 1-.394-.067 2.637 2.637 0 0 0-.662-.068c-.493 0-.916.138-1.268.413-.353.269-.65.666-.894 1.19v6.135h-2.373Zm9.984-14.265v14.266H82.42V9.595h2.372Zm9.242 14.265c-.308 0-.51-.143-.606-.431l-.192-.95a5.89 5.89 0 0 1-.643.623 3.996 3.996 0 0 1-.73.48 3.513 3.513 0 0 1-.836.308 3.8 3.8 0 0 1-.96.115 3.263 3.263 0 0 1-1.48-.336 3.359 3.359 0 0 1-1.163-.97c-.32-.429-.57-.957-.749-1.584-.173-.627-.26-1.344-.26-2.15 0-.73.1-1.408.298-2.035a4.953 4.953 0 0 1 .855-1.632c.372-.461.817-.82 1.336-1.075.519-.263 1.101-.394 1.748-.394.55 0 1.022.09 1.412.269.39.172.74.406 1.047.7V9.596h2.373v14.266h-1.45Zm-3.161-1.737c.493 0 .913-.102 1.258-.307a3.74 3.74 0 0 0 .98-.873v-4.417c-.269-.326-.563-.556-.883-.69a2.559 2.559 0 0 0-1.019-.202c-.358 0-.685.067-.98.201-.288.135-.534.34-.74.615-.198.268-.352.614-.46 1.037-.11.416-.164.908-.164 1.478 0 .576.045 1.066.135 1.469.096.396.23.723.403.979.173.25.384.432.634.547.25.109.529.163.836.163ZM26.148 33.211v9.85h-2.373v-9.85h2.373Zm.355-2.87c0 .205-.041.397-.125.576-.083.18-.195.336-.336.47a1.592 1.592 0 0 1-.48.327 1.543 1.543 0 0 1-.596.115c-.205 0-.4-.038-.586-.115a1.63 1.63 0 0 1-.797-.797 1.54 1.54 0 0 1 0-1.171 1.57 1.57 0 0 1 .327-.48c.134-.135.29-.24.47-.317.186-.083.381-.125.586-.125.212 0 .41.042.596.125.185.077.346.182.48.317a1.494 1.494 0 0 1 .461 1.075Zm1.95 12.719v-9.849h1.45c.308 0 .51.144.606.432l.163.778c.199-.205.407-.39.625-.557.224-.166.457-.31.7-.432.25-.122.516-.214.798-.278a4.17 4.17 0 0 1 .922-.096c.538 0 1.016.093 1.432.278.416.18.762.435 1.037.768.282.327.493.72.634 1.18.148.455.221.958.221 1.508v6.269h-2.373v-6.269c0-.602-.14-1.066-.422-1.392-.276-.333-.692-.5-1.25-.5a2.47 2.47 0 0 0-1.152.28 4.134 4.134 0 0 0-1.018.758v7.123h-2.373Zm26.335-6.94c0 1.018-.17 1.952-.509 2.803a6.44 6.44 0 0 1-1.431 2.199 6.404 6.404 0 0 1-2.22 1.43c-.864.34-1.821.509-2.871.509h-5.303V29.179h5.303c1.05 0 2.007.173 2.872.519a6.413 6.413 0 0 1 2.219 1.43 6.339 6.339 0 0 1 1.431 2.189c.34.851.51 1.785.51 2.803Zm-2.641 0c0-.761-.103-1.443-.308-2.045-.205-.608-.496-1.12-.874-1.536a3.734 3.734 0 0 0-1.383-.97c-.538-.223-1.147-.335-1.825-.335h-2.7v9.773h2.7c.678 0 1.287-.112 1.825-.337a3.786 3.786 0 0 0 1.383-.96c.378-.422.67-.934.874-1.535.205-.608.308-1.293.308-2.055Zm11.865 6.94h-1.066c-.224 0-.4-.031-.529-.095-.128-.07-.224-.208-.288-.413l-.211-.7c-.25.223-.496.422-.74.595a4.486 4.486 0 0 1-.74.422 3.798 3.798 0 0 1-.816.26 4.916 4.916 0 0 1-.96.086c-.417 0-.801-.055-1.154-.164a2.592 2.592 0 0 1-.912-.509 2.317 2.317 0 0 1-.586-.835 2.96 2.96 0 0 1-.212-1.161 2.3 2.3 0 0 1 .289-1.095c.198-.364.525-.69.98-.979.454-.294 1.06-.538 1.815-.73.756-.191 1.694-.3 2.815-.326v-.576c0-.66-.141-1.146-.423-1.46-.275-.32-.679-.48-1.21-.48-.385 0-.705.046-.96.135-.257.09-.481.192-.673.308a36.94 36.94 0 0 1-.52.297c-.16.09-.335.135-.527.135a.687.687 0 0 1-.413-.125.983.983 0 0 1-.28-.307l-.431-.759c1.133-1.037 2.5-1.555 4.102-1.555.576 0 1.088.096 1.537.288.454.185.839.448 1.152.787.314.333.551.733.711 1.2.167.467.25.98.25 1.536v6.22Zm-4.611-1.477c.243 0 .467-.023.672-.068a2.46 2.46 0 0 0 .577-.201 3.01 3.01 0 0 0 .528-.327c.173-.134.346-.29.519-.47v-1.66c-.692.031-1.271.092-1.739.181-.461.084-.832.193-1.114.327-.282.134-.484.291-.605.47a1.06 1.06 0 0 0-.173.586c0 .416.121.714.365.893.25.179.573.269.97.269Zm9.797 1.632c-.851 0-1.508-.24-1.969-.72-.461-.487-.692-1.156-.692-2.007v-5.5h-.999a.498.498 0 0 1-.336-.126c-.09-.083-.135-.208-.135-.374v-.94l1.586-.26.5-2.688a.484.484 0 0 1 .172-.298.585.585 0 0 1 .355-.105h1.23v3.1h2.594v1.69H68.91v5.338c0 .307.077.547.23.72.154.173.36.26.615.26.148 0 .27-.017.366-.049.102-.038.188-.077.259-.115.077-.038.144-.074.202-.106a.31.31 0 0 1 .172-.057c.071 0 .129.019.173.057a.677.677 0 0 1 .144.154l.711 1.152a3.592 3.592 0 0 1-1.19.653c-.45.147-.913.22-1.394.22Zm11.532-.155h-1.066c-.224 0-.4-.031-.529-.095-.128-.07-.224-.208-.288-.413l-.211-.7c-.25.223-.496.422-.74.595a4.49 4.49 0 0 1-.74.422 3.8 3.8 0 0 1-.816.26 4.916 4.916 0 0 1-.96.086 3.88 3.88 0 0 1-1.153-.164 2.592 2.592 0 0 1-.913-.509 2.317 2.317 0 0 1-.586-.835 2.963 2.963 0 0 1-.211-1.161c0-.371.096-.736.288-1.095.198-.364.525-.69.98-.979.455-.294 1.06-.538 1.815-.73.756-.191 1.694-.3 2.815-.326v-.576c0-.66-.14-1.146-.423-1.46-.275-.32-.678-.48-1.21-.48-.384 0-.704.046-.96.135a3.65 3.65 0 0 0-.673.308 30.79 30.79 0 0 1-.519.297c-.16.09-.336.135-.528.135a.687.687 0 0 1-.413-.125.982.982 0 0 1-.279-.307l-.432-.759c1.133-1.037 2.5-1.555 4.102-1.555.576 0 1.088.096 1.537.288a3.19 3.19 0 0 1 1.153.787c.313.333.55.733.71 1.2.167.467.25.98.25 1.536v6.22Zm-4.61-1.477c.242 0 .467-.023.672-.068a2.46 2.46 0 0 0 .576-.201 3.01 3.01 0 0 0 .528-.327c.173-.134.346-.29.52-.47v-1.66c-.693.031-1.272.092-1.74.181-.46.084-.832.193-1.114.327-.282.134-.484.291-.605.47-.115.18-.173.375-.173.586 0 .416.121.714.365.893.25.179.573.269.97.269Z"/></svg>