<svg xmlns="http://www.w3.org/2000/svg" width="104" height="57" fill="none"><path fill="#002147" d="M.576 0h102.848v54.522H.576z"/><path fill="#CE261E" d="M.576 54.522h102.848V57H.576z"/><path fill="#fff" d="M24.811 16.985c0 .93-.147 1.787-.442 2.567a5.878 5.878 0 0 1-1.25 2.004 5.623 5.623 0 0 1-1.942 1.31c-.752.306-1.585.46-2.498.46-.914 0-1.747-.154-2.498-.46a5.642 5.642 0 0 1-1.935-1.31 5.878 5.878 0 0 1-1.249-2.004c-.295-.78-.442-1.636-.442-2.567 0-.931.147-1.784.442-2.559a5.861 5.861 0 0 1 1.25-2.012 5.584 5.584 0 0 1 1.933-1.319c.752-.312 1.585-.468 2.499-.468.913 0 1.746.156 2.498.468a5.566 5.566 0 0 1 1.943 1.319 5.862 5.862 0 0 1 1.249 2.012c.295.775.442 1.628.442 2.559Zm-1.726 0c0-.764-.104-1.449-.312-2.056a4.302 4.302 0 0 0-.885-1.535 3.814 3.814 0 0 0-1.388-.972c-.544-.225-1.15-.338-1.821-.338-.665 0-1.27.113-1.813.338a3.898 3.898 0 0 0-1.397.972 4.304 4.304 0 0 0-.884 1.535c-.209.607-.313 1.292-.313 2.056 0 .763.104 1.448.313 2.056.208.6.503 1.113.884 1.535a3.95 3.95 0 0 0 1.397.963c.543.22 1.148.33 1.813.33.67 0 1.277-.11 1.821-.33a3.864 3.864 0 0 0 1.388-.963c.382-.422.676-.934.885-1.535.208-.608.312-1.293.312-2.056Zm10.86-2.576v8.786h-.92c-.22 0-.359-.107-.417-.32l-.121-.946c-.382.422-.81.763-1.284 1.023-.474.255-1.018.382-1.63.382-.48 0-.905-.078-1.276-.234a2.57 2.57 0 0 1-.919-.677 2.904 2.904 0 0 1-.564-1.05 4.788 4.788 0 0 1-.182-1.361v-5.603h1.544v5.603c0 .665.15 1.18.451 1.544.306.364.772.546 1.396.546.457 0 .882-.107 1.276-.32.399-.22.766-.521 1.101-.903v-6.47h1.544Zm3.913 1.76c.278-.6.619-1.07 1.024-1.405.404-.34.899-.511 1.483-.511.185 0 .361.02.529.06.173.04.327.104.46.191l-.113 1.154c-.035.144-.121.216-.26.216-.081 0-.2-.017-.356-.052a2.448 2.448 0 0 0-.529-.052c-.278 0-.526.04-.746.122-.214.08-.408.202-.581.364a2.576 2.576 0 0 0-.46.59 5.146 5.146 0 0 0-.364.798v5.551h-1.553V14.41h.885c.168 0 .283.031.347.095.063.064.107.174.13.33l.104 1.335Zm25.154-5.403-3.877 12.43h-1.51l-3.148-9.481a9.62 9.62 0 0 1-.087-.295c-.023-.104-.05-.214-.078-.33a13.113 13.113 0 0 1-.174.625l-3.166 9.48h-1.509l-3.877-12.43h1.396c.15 0 .275.038.373.113.104.075.17.17.2.287l2.567 8.639c.04.156.078.324.113.503.04.18.078.37.113.572.04-.202.08-.393.121-.572a5.98 5.98 0 0 1 .148-.503l2.923-8.64a.619.619 0 0 1 .2-.268.564.564 0 0 1 .372-.13h.486a.56.56 0 0 1 .364.112c.093.075.162.17.208.287l2.915 8.639c.052.15.098.312.139.486.046.173.09.355.13.546.029-.19.06-.373.095-.546a7.69 7.69 0 0 1 .113-.486l2.576-8.64a.55.55 0 0 1 .191-.277.59.59 0 0 1 .373-.121h1.31Zm4.207 3.504c.642 0 1.22.107 1.735.32.514.215.954.518 1.318.912.364.393.642.87.833 1.43.196.556.295 1.178.295 1.866 0 .694-.099 1.318-.295 1.873a3.953 3.953 0 0 1-.833 1.423 3.719 3.719 0 0 1-1.318.91c-.515.209-1.093.313-1.735.313-.648 0-1.232-.104-1.752-.313a3.718 3.718 0 0 1-1.319-.91 4.057 4.057 0 0 1-.841-1.423c-.19-.555-.286-1.18-.286-1.873 0-.688.095-1.31.286-1.865.197-.561.477-1.038.841-1.431a3.716 3.716 0 0 1 1.319-.911c.52-.214 1.104-.321 1.752-.321Zm0 7.841c.867 0 1.515-.29 1.943-.867.428-.584.642-1.397.642-2.438 0-1.046-.214-1.862-.642-2.446-.428-.584-1.076-.876-1.943-.876-.44 0-.824.075-1.154.226-.324.15-.595.367-.815.65a2.984 2.984 0 0 0-.486 1.05c-.104.41-.156.876-.156 1.396 0 1.041.214 1.854.642 2.438.434.578 1.09.867 1.969.867Zm7.605-5.942c.277-.6.619-1.07 1.023-1.405.405-.34.9-.511 1.484-.511.185 0 .361.02.529.06.173.04.326.104.46.191l-.113 1.154c-.035.144-.122.216-.26.216-.082 0-.2-.017-.356-.052a2.449 2.449 0 0 0-.53-.052c-.277 0-.526.04-.745.122-.214.08-.408.202-.581.364-.168.156-.321.353-.46.59a5.146 5.146 0 0 0-.364.798v5.551h-1.553V14.41h.885c.167 0 .283.031.347.095.063.064.107.174.13.33l.104 1.335Zm6.45-5.75v12.776h-1.545V10.42h1.544Zm8.228 6.08c-.29-.387-.602-.656-.937-.807a2.64 2.64 0 0 0-1.128-.234c-.815 0-1.442.292-1.882.876-.44.584-.66 1.417-.66 2.498 0 .573.05 1.064.148 1.475.098.405.243.74.434 1.006.19.26.425.451.703.573.277.121.592.182.945.182.509 0 .951-.116 1.327-.347a3.786 3.786 0 0 0 1.05-.98v-4.242Zm1.544-6.08v12.776h-.92c-.22 0-.358-.107-.416-.32l-.139-1.067a4.787 4.787 0 0 1-1.284 1.092c-.48.278-1.035.417-1.665.417-.503 0-.96-.096-1.37-.287a2.882 2.882 0 0 1-1.05-.858c-.29-.376-.512-.845-.668-1.405-.156-.561-.234-1.206-.234-1.935 0-.647.087-1.249.26-1.804a4.45 4.45 0 0 1 .746-1.457 3.43 3.43 0 0 1 1.188-.963 3.52 3.52 0 0 1 1.596-.356c.538 0 .998.093 1.38.278.387.18.73.43 1.032.755v-4.866h1.544Zm-63.493 23.99v8.786H26.01V34.41h1.544Zm.33-2.759c0 .15-.032.292-.096.425a1.178 1.178 0 0 1-.242.347 1.087 1.087 0 0 1-.356.235 1.055 1.055 0 0 1-.425.086 1.054 1.054 0 0 1-.763-.32 1.265 1.265 0 0 1-.235-.348 1.055 1.055 0 0 1-.086-.425c0-.15.029-.292.086-.425.058-.139.136-.257.235-.355a1.07 1.07 0 0 1 .338-.243c.133-.058.274-.087.425-.087.15 0 .292.029.425.087.139.058.257.139.355.243.105.098.186.216.243.355a.973.973 0 0 1 .096.425Zm3.664 4.034c.191-.214.393-.408.607-.581.214-.174.44-.321.677-.443a3.537 3.537 0 0 1 1.64-.39c.48 0 .901.08 1.266.243.37.156.676.381.92.676.248.29.436.64.563 1.05.127.41.19.864.19 1.362v5.594h-1.552v-5.594c0-.665-.153-1.18-.46-1.544-.3-.37-.76-.555-1.379-.555-.456 0-.884.11-1.283.33-.394.219-.758.517-1.093.893v6.47H30.09V34.41h.928c.22 0 .356.107.408.32l.121.955Zm23.792 1.3c0 .932-.147 1.779-.442 2.542a5.636 5.636 0 0 1-1.249 1.96 5.603 5.603 0 0 1-1.943 1.267c-.752.295-1.584.442-2.498.442h-4.64v-12.43h4.64c.914 0 1.746.15 2.498.452a5.445 5.445 0 0 1 1.943 1.266 5.636 5.636 0 0 1 1.249 1.96c.295.764.442 1.61.442 2.542Zm-1.726 0c0-.763-.104-1.445-.312-2.046a4.314 4.314 0 0 0-.885-1.527 3.773 3.773 0 0 0-1.387-.954 4.822 4.822 0 0 0-1.822-.33h-2.958v9.706h2.958c.67 0 1.278-.11 1.822-.33a3.822 3.822 0 0 0 1.387-.945c.382-.416.677-.925.885-1.526.208-.602.312-1.284.312-2.047Zm8.328 2.256c-.711.023-1.318.081-1.821.173-.498.087-.905.203-1.223.347-.313.145-.541.316-.686.512a1.116 1.116 0 0 0-.208.66c0 .23.038.43.113.598.075.168.176.306.303.416.134.104.287.182.46.235.18.046.37.069.573.069.271 0 .52-.026.746-.078.225-.058.436-.139.633-.243.202-.104.393-.229.572-.373.185-.145.365-.31.538-.494V39.24Zm-4.987-3.591a5.016 5.016 0 0 1 1.57-1.05 4.847 4.847 0 0 1 1.864-.346c.492 0 .929.08 1.31.242.382.162.703.388.963.677.26.29.457.639.59 1.05.133.41.2.861.2 1.353v5.62h-.686a.708.708 0 0 1-.347-.07c-.08-.051-.144-.15-.19-.294l-.174-.833a9.396 9.396 0 0 1-.677.573c-.22.162-.45.3-.694.416-.242.11-.503.194-.78.252a4.005 4.005 0 0 1-.911.095c-.341 0-.662-.046-.963-.139a2.327 2.327 0 0 1-.79-.433 2.1 2.1 0 0 1-.528-.72A2.613 2.613 0 0 1 56.52 41c0-.347.095-.68.286-.998.19-.324.5-.61.928-.858.428-.25.986-.451 1.674-.608.688-.161 1.533-.254 2.533-.277v-.685c0-.683-.147-1.197-.442-1.544-.295-.353-.726-.53-1.293-.53-.381 0-.702.05-.963.148-.254.093-.477.2-.667.32-.185.117-.347.224-.486.322a.695.695 0 0 1-.4.139.46.46 0 0 1-.268-.078.82.82 0 0 1-.19-.209l-.278-.494Zm11.427 7.685c-.694 0-1.229-.194-1.605-.581-.37-.388-.555-.946-.555-1.674V35.7h-1.058a.358.358 0 0 1-.234-.078c-.064-.058-.095-.145-.095-.26v-.616l1.44-.182.355-2.715a.367.367 0 0 1 .113-.208.347.347 0 0 1 .243-.087h.78v3.027h2.542v1.12h-2.542v5.273c0 .37.09.645.27.824.178.18.41.269.693.269.162 0 .3-.02.416-.061.122-.046.226-.095.313-.148.087-.052.159-.098.217-.138.063-.046.118-.07.164-.07.081 0 .154.05.217.148l.451.737a2.933 2.933 0 0 1-.963.59 3.33 3.33 0 0 1-1.162.208Zm8.282-4.094c-.711.023-1.318.081-1.822.173-.497.087-.904.203-1.222.347-.313.145-.541.316-.686.512a1.116 1.116 0 0 0-.208.66c0 .23.038.43.113.598.075.168.176.306.303.416.133.104.287.182.46.235.18.046.37.069.573.069.271 0 .52-.026.746-.078.225-.058.436-.139.633-.243.202-.104.393-.229.572-.373.185-.145.365-.31.538-.494V39.24Zm-4.987-3.591a5.018 5.018 0 0 1 1.57-1.05 4.847 4.847 0 0 1 1.864-.346c.492 0 .928.08 1.31.242.382.162.703.388.963.677.26.29.457.639.59 1.05.133.41.2.861.2 1.353v5.62h-.686a.707.707 0 0 1-.347-.07c-.08-.051-.144-.15-.19-.294l-.174-.833a9.396 9.396 0 0 1-.677.573c-.22.162-.45.3-.694.416-.243.11-.503.194-.78.252a4.004 4.004 0 0 1-.911.095c-.341 0-.662-.046-.963-.139a2.327 2.327 0 0 1-.79-.433 2.1 2.1 0 0 1-.528-.72A2.613 2.613 0 0 1 71.242 41c0-.347.095-.68.286-.998.19-.324.5-.61.928-.858.428-.25.986-.451 1.674-.608.688-.161 1.533-.254 2.533-.277v-.685c0-.683-.147-1.197-.442-1.544-.295-.353-.726-.53-1.293-.53-.381 0-.702.05-.963.148a3.42 3.42 0 0 0-.668.32c-.184.117-.346.224-.485.322a.695.695 0 0 1-.4.139.461.461 0 0 1-.268-.078.817.817 0 0 1-.19-.209l-.278-.494Z"/></svg>