<svg xmlns="http://www.w3.org/2000/svg" xml:space="preserve" fill-rule="evenodd" stroke-linejoin="round" stroke-miterlimit="2" clip-rule="evenodd" viewBox="0 0 96 103"><g transform="translate(-.00001795 .00001275) scale(.991693)"><path fill="none" d="M0 0h96.3v96.5H0z"/><path fill="#fff" d="M96.3 0v96.5H0V0h96.3Zm-1 1H1v94.5h94.3V1Z"/><path fill="#fff" fill-rule="nonzero" d="M21.7 79.4c0 3.6-2.8 6.3-6.3 6.3S9.1 83 9.1 79.6c0-3.6 2.8-6.3 6.3-6.3 3.6 0 6.3 2.7 6.3 6.1Zm-2 .1c0-3.3-1.6-5.6-4.3-5.6-2.9 0-4.3 2.8-4.3 5.6 0 3.3 1.6 5.6 4.3 5.6 3 0 4.3-2.8 4.3-5.6Zm40.3-.1c0 3.6-2.8 6.3-6.3 6.3s-6.3-2.7-6.3-6.1c0-3.6 2.8-6.3 6.3-6.3 3.6 0 6.3 2.7 6.3 6.1Zm-2 .1c0-3.3-1.6-5.6-4.3-5.6-2.9 0-4.3 2.8-4.3 5.6 0 3.3 1.6 5.6 4.3 5.6 3 0 4.3-2.8 4.3-5.6Zm6.8.1h1.5c2.3 0 2.8-1.4 2.8-2.8 0-1-.5-2-1.5-2.5-.6-.2-1.1-.2-1.8-.2h-.9v5.5h-.1Zm2.8 1.9c-.7-1-1-1.4-1.8-1.4h-.9v4.1c0 .3.1.5.5.6l1.4.3v.4h-5.3V85l1.2-.3c.4-.1.5-.2.5-.6v-9.4c0-.3-.1-.5-.5-.6l-1.2-.3v-.4h5.2c1.1 0 1.9.1 2.5.3 1.3.5 2 1.7 2 2.9 0 1.5-1.1 2.7-2.9 3.1v.1c.4.2.6.4 1.9 2.1l1.6 2.2c.2.3.5.5.9.6l1.2.3v.4H71c-.3 0-.5-.1-.8-.5l-2.6-3.4Zm-23.4-3.9h.5v4h-.5l-.3-1.2c-.1-.4-.4-.6-.8-.6h-2.9v4.4c0 .3.1.5.5.6l1.4.3v.4h-5.3V85l1.2-.3c.4-.1.5-.2.5-.6v-9.4c0-.3-.1-.5-.5-.6l-1.2-.3v-.4h9v3h-.5l-.6-1.8c-.1-.5-.3-.6-.7-.6h-3.7v5.2h2.9c.4 0 .6-.2.8-.6l.2-1Zm30.5 7.9V85l1.2-.3c.4-.1.5-.2.5-.6v-9.4c0-.3-.1-.5-.5-.6l-1.2-.3v-.4h5.6c1.5 0 2.6.2 3.5.6 2.3 1 3.3 3.3 3.3 5.5 0 2.1-.8 4.1-2.8 5.2-.9.5-2.2.7-3.9.7h-5.7v.1Zm3.5-11.4v10.3c0 .4.1.5.5.5h1.5c1.4 0 2.4-.2 3.2-.7 1.2-.9 1.8-2.5 1.8-4.6 0-2-.6-4-2.2-5-.7-.4-1.6-.5-3-.5h-1.8ZM26.4 85v.4h-4.2V85l1.1-.3c.4-.1.7-.2.9-.5l3.6-4.6-3.6-4.9c-.2-.3-.5-.5-.9-.6l-1-.3v-.4h5.2v.4l-1.1.2c-.4.1-.3.2-.1.5l2.7 3.9h.1l2.8-3.9c.2-.3.3-.4-.1-.5l-1.1-.3v-.4h4.2v.4l-1.1.3c-.4.1-.7.2-.9.5l-3.4 4.4 3.8 5.1c.2.3.5.5.9.6l1 .3v.4H30V85l1.1-.2c.4-.1.3-.2.1-.5l-2.9-4.1h-.1l-3 4.1c-.2.3-.3.4.1.5l1.1.2ZM13.8 67.9c-.3.3-.8.6-1.5.6-.6 0-1.2-.2-1.5-.6-.5-.5-.5-1.2-.5-1.9v-3.3h.7v3.6c0 .5 0 .9.3 1.2.2.2.6.4 1 .4s.8-.1 1-.4c.4-.4.4-.8.4-1.8v-3h.7v2.8c0 1 0 1.8-.6 2.4Zm6.1.4-2.7-4.7v4.7h-.6v-5.7h.7l2.7 4.7v-4.7h.6v5.7h-.7Zm3 0v-5.7h.7v5.7h-.7Zm4.9 0H27l-2-5.7h.7l1.6 5 1.7-5h.7l-1.9 5.7Zm3.6.1v-5.8h3.1v.6H32v1.9h2.3v.6H32v2.1h2.5v.6h-3.1Zm7.4-4.9c-.3-.3-.7-.3-1.2-.3H37v2.1h.2c.6 0 1.2 0 1.6-.4.2-.2.3-.5.3-.7 0-.3-.2-.6-.3-.7Zm.6 4.8-.7-1.5c-.4-.9-.6-1-1.4-1H37v2.5h-.7v-5.7h1.2c.8 0 1.3 0 1.8.4.3.3.4.7.4 1.1 0 .4-.1.7-.4 1-.2.2-.5.4-.9.4.2 0 .4.1.5.2.2.2.3.4.4.8l.8 1.7h-.7v.1Zm7.3 0v-5.7h.7v5.7h-.7Zm4.6-5.1v5.1h-.7v-5.1h-1.7v-.6h4v.6h-1.6Zm4.9 2.9v2.2h-.7v-2.2l-1.8-3.4h.8l1.4 2.7 1.4-2.7h.7l-1.8 3.4Zm8.2-3c-1.1 0-1.8.9-1.8 2.4 0 1.4.8 2.4 1.9 2.4 1.2 0 1.8-1 1.8-2.4-.1-1.5-.8-2.4-1.9-2.4Zm0 5.3c-1.5 0-2.5-1.2-2.5-2.9 0-1.8 1.1-3 2.6-3s2.5 1.2 2.5 2.9c-.1 1.8-1.1 3-2.6 3Zm5.1-5.2v1.9h2.2v.6h-2.2v2.7h-.7v-5.7h3v.6h-2.3v-.1Zm-28 .8c0-.9.7-1.5 1.7-1.5s1.5.5 1.6.6l-.3.4c-.1-.1-.6-.4-1.2-.4-.7 0-1.1.4-1.1.9 0 .2.1.4.3.6.2.2.5.3.8.4.4.2.9.4 1.2.7.2.3.4.6.4 1 0 .9-.7 1.7-1.8 1.7-1 0-1.6-.6-1.7-.6l.3-.5c.2.1.8.5 1.4.5.9 0 1.2-.5 1.2-1 0-.3-.1-.5-.3-.6-.3-.3-.7-.4-1-.6-.4-.2-.7-.4-1-.6-.3-.2-.5-.5-.5-1Zm33.4-41v8.5h-6.1l-.1.2c-.1.3-.3.5-1 .5s-.9-.2-1-.5l-.1-.2h-6.1V23h-.6v.3l-.5-.2c-.1-.2-.3-.4-.5-.4-.3 0-.5.2-.5.5s.2.5.5.5c.1 0 .2 0 .3-.1l.7.2v.7l-.5-.1c-.1-.2-.3-.3-.5-.3-.3 0-.5.2-.5.5s.2.5.5.5c.1 0 .3-.1.4-.2l.6.1v.7h-.5c-.1-.1-.2-.2-.4-.2-.3 0-.5.2-.5.5s.2.5.5.5c.2 0 .3-.1.4-.2h.6v.8h-.6c-.1-.1-.2-.2-.4-.2-.3 0-.5.2-.5.5s.2.5.5.5c.2 0 .3-.1.4-.2h.5v.7l-.6.1c-.1-.1-.2-.2-.4-.2-.3 0-.5.2-.5.5s.2.5.5.5c.2 0 .4-.1.5-.3l.5-.1v.7l-.7.2c-.1-.1-.2-.1-.3-.1-.3 0-.5.2-.5.5s.2.5.5.5c.2 0 .4-.2.5-.4l.5-.2v.7l-.7.3s-.1-.1-.2-.1c-.3 0-.5.2-.5.5s.2.5.5.5c.2 0 .5-.2.5-.4l.5-.2v.6h6.3c.3.4.7.7 1.4.7s1.1-.2 1.4-.7h6.3v-9h-.5Z"/><ellipse cx="63.6" cy="20.6" fill="#fff" rx="2.3" ry=".4"/><path fill="#fff" fill-rule="nonzero" d="m66.8 17.4-1.3.9v.1l.3.1c.1 0 .1.1 0 .1l-.8.7h-.1l-.6-.9v-.1l.4-.1v-.1l-1-1.5h-.2l-1 1.5v.1l.4.1c.1 0 .1.1 0 .1l-.6.9h-.1l-.8-.7v-.1l.3-.1v-.1l-1.4-.9h-.1l.8 2.5c.4-.2 1.4-.3 2.5-.3s2.1.1 2.5.3l.8-2.5Z"/><ellipse cx="67.8" cy="37.4" fill="#fff" rx="2.3" ry=".4"/><path fill="#fff" fill-rule="nonzero" d="m70.9 34.2-1.3.9v.1l.3.1c.1 0 .1.1 0 .1l-.8.7H69l-.6-.9v-.1l.4-.1-1-1.5h-.2l-1 1.5v.1l.4.1c.1 0 .1.1 0 .1l-.6.9h-.1l-.8-.7v-.1l.3-.1v-.1l-1.4-.9h-.1l.8 2.5c.4-.2 1.4-.3 2.5-.3s2.1.1 2.5.3l.8-2.5v-.1Z"/><ellipse cx="71.9" cy="20.6" fill="#fff" rx="2.3" ry=".4"/><path fill="#fff" fill-rule="nonzero" d="m75.1 17.4-1.3.9v.1l.3.1c.1 0 .1.1 0 .1l-.8.7h-.1l-.6-.9v-.1l.4-.1v-.1l-1-1.5h-.2l-1 1.5v.1l.4.1c.1 0 .1.1 0 .1l-.6.9h-.1l-.8-.7v-.1l.3-.1v-.1l-1.4-.9h-.1l.8 2.5c.4-.2 1.4-.3 2.5-.3s2.1.1 2.5.3l.8-2.5Zm-12.6 6.3c-.1 0-.1 0 0 0-.1 0-.1.1-.1.1v.7c0 .2 0 .2.1.2.2 0 .3-.2.3-.5 0-.4-.2-.5-.3-.5Z"/><path fill="#fff" fill-rule="nonzero" d="M66.7 22.6c-.3-.2-.8-.3-1.3-.3h-4v8h4.3c1 0 1.6.2 1.6 1.1h.1v-7.3c.1-.6-.2-1.2-.7-1.5Zm-2.1 2.1c.1 0 .1 0 .1-.1v-.7c0-.2 0-.2-.1-.3v-.1h.4l.3.7.3-.7h.4v.1c-.1 0-.1 0-.1.2v.6c0 .2 0 .2.1.2v.1h-.6v-.1c.1 0 .1 0 .1-.2v-.6l-.3.9h-.1l-.2-.7v.7c0 .1 0 .1.2.1v.1l-.5-.2Zm1 1.8c-.2-.1-.3-.2-.3-.4s.1-.4.4-.4h.3v.3h-.1c0-.1-.1-.2-.2-.2s-.2.1-.2.2.1.1.2.2c.2.1.3.2.3.4s-.2.4-.4.4h-.3c0-.1 0-.2-.1-.3h.1c0 .1.1.3.3.3.1 0 .2-.1.2-.2-.1-.2-.1-.3-.2-.3Zm-1.2-.6c0 .1.2.4.2.6.1-.2.2-.5.2-.6 0-.1 0-.1-.1-.1h-.1v-.1h.4v.1c-.1 0-.1 0-.2.2 0 0-.2.6-.4.9h-.1c-.1-.3-.3-.8-.4-.9-.1-.2-.1-.2-.2-.2v-.1h.6v.1l.1.1Zm-.5-2.3c.3 0 .6.2.6.6 0 .4-.3.6-.6.6-.4 0-.6-.3-.6-.6 0-.2.2-.6.6-.6Zm-2 1.2c.1-.1.1-.1.1-.3v-.6c0-.2 0-.2-.1-.2v-.1h.5c.2 0 .4 0 .5.2.1.1.2.2.2.4 0 .4-.3.6-.7.6h-.5Zm1.2 3.2c-.1 0-.1 0-.1.2v.6c0 .2 0 .2.1.2h-.6c.1 0 .1 0 .1-.2v-.6c0-.2 0-.2-.1-.2v-.1l.6.1Zm0-1.1h-.4v-.1c.1 0 .1 0 .1-.1v-.8s-.1 0-.1-.1v-.1h.4l.6.7v-.5c0-.1-.1-.1-.2-.1v-.1h.4v.1c-.1 0-.1 0-.1.1v1h-.2l-.6-.8v.6c0 .1 0 .1.1.2Zm1 2.1h-.9c.1 0 .1 0 .1-.2v-.6c0-.2 0-.2-.1-.2v-.1h.6v.1c-.1 0-.1 0-.1.2v.8h.1c.1 0 .1 0 .2-.1 0 0 .1-.1.1-.2h.1c0 .1-.1.3-.1.3Zm1 0h-.9c.1 0 .1 0 .1-.2v-.6c0-.2 0-.2-.1-.2v-.1h.6v.1c-.1 0-.1 0-.1.2v.8h.1c.1 0 .1 0 .2-.1 0 0 .1-.1.1-.2h.1c-.1.1-.1.3-.1.3Zm1.1-1c-.1 0-.1 0-.2.2 0 0-.2.6-.4.9h-.1c-.1-.3-.3-.8-.4-.9 0-.2 0-.2-.1-.2v-.1h.6v.1h-.1c-.1 0-.1 0 0 .1 0 .1.2.4.2.6.1-.2.2-.5.2-.6 0-.1 0-.1-.1-.1h-.1v-.1l.5.1Zm.5-4.3c-.1 0-.1 0-.1.2v.6c0 .2 0 .2.1.2v.1h-.6v-.1c.1 0 .1 0 .1-.2v-.6c0-.2 0-.2-.1-.2v-.1l.6.1Z"/><path fill="#fff" fill-rule="nonzero" d="M63.9 24.7c.2 0 .2-.1.2-.5s-.1-.6-.3-.6c-.1 0-.2.2-.2.5 0 .4.1.6.3.6Zm7.9 1.6c0 .3.1.6.3.6.2 0 .2-.1.2-.5s-.1-.6-.3-.6c-.1 0-.2.2-.2.5Z"/><path fill="#fff" fill-rule="nonzero" d="M70.1 22.4c-.5 0-1 .1-1.3.3-.5.3-.8.9-.8 1.6v7.3h.1c.1-.9.6-1.1 1.6-1.1H74v-8l-3.9-.1Zm.9 1.3h.4l.6.7v-.5c0-.1-.1-.1-.2-.1v-.1h.4v.1c-.1 0-.1 0-.1.1v1H72l-.7-.9v.6c0 .1.1.1.2.1v.1h-.4v-.1c.1 0 .1 0 .1-.1v-.8c-.1-.1-.1-.1-.2-.1Zm1.6 2.6c0 .4-.3.6-.6.6-.4 0-.6-.3-.6-.6s.2-.6.6-.6c.4 0 .6.3.6.6Zm-1.3.6-.6.1v-.1c.1 0 .1 0 .1-.2v-.6c0-.2 0-.2-.1-.2v-.1h.6v.1c-.1 0-.1 0-.1.2v.6c-.1.1 0 .1.1.2Zm-.9-2.2c.1 0 .1 0 .1-.2v-.6c0-.2 0-.2-.1-.2v-.1h.6v.1c-.1 0-.1 0-.1.2v.6c0 .2 0 .2.1.2v.1l-.6-.1Zm0 2.2-.6.1v-.1c.1 0 .2 0 .2-.2v-.8c-.1 0-.2 0-.2.1 0 0 0 .1-.1.2h-.1v-.4h1.1v.4h-.1c0-.1 0-.2-.1-.2h-.2v.8c-.1 0-.1 0 .1.1Zm-1.2-2.1h-.4v-.1c.1 0 .1 0 .1-.1v-.7c0-.2 0-.2-.1-.3v-.1h.4l.3.7.3-.7h.4v.1c-.1 0-.1 0-.1.2v.6c0 .2 0 .2.1.2v.1h-.6v-.1c.1 0 .1 0 .1-.2v-.6l-.3.9h-.1l-.2-.7v.7l.1.1Zm1.6 4.2h-.6c.1 0 .1 0 .1-.2v-.6l-.3.8h-.1l-.3-.8v.7c0 .1 0 .1.2.1h-.4c.1 0 .1 0 .1-.1v-.7c0-.2 0-.2-.1-.3v-.1h.4l.3.7.3-.7h.4v.2c-.1 0-.1 0-.1.2v.6c-.1.2-.1.2.1.2Zm1 0h-.9c.1 0 .2 0 .2-.2v-.6c0-.2 0-.2-.1-.2v-.1h.8v.3h-.1c0-.1 0-.1-.1-.2h-.2c-.1 0-.1 0-.1.1v.3h.1c.2 0 .2 0 .2-.1h.1v.4h-.1c0-.2 0-.2-.2-.2h-.1v.5h.1c.1 0 .1 0 .2-.1 0 0 .1-.1.1-.2h.1v.3Zm1.2 0h-.6.1c.1 0 .1 0 0-.1l-.1-.2h-.3l-.1.2c0 .1 0 .1.1.1h.1-.4c.1 0 .1 0 .2-.2l.4-.9h.1l.1.3c.1.2.2.4.2.6.1.2.1.2.2.2Zm.4-4.2h-.6v-.1h.1c.1 0 .1 0 0-.1l-.1-.2h-.3l-.1.2c0 .1 0 .1.1.1h.1v.1h-.4v-.1c.1 0 .1 0 .2-.2l.4-.9h.1l.1.4c.1.2.2.4.2.6l.2.2Z"/><path fill="#fff" fill-rule="nonzero" d="m72.3 28.3-.1.3h.2l-.1-.3Zm.4-4.3-.1.3h.3l-.2-.3Z"/><circle cx="65.7" cy="43.3" r=".5" fill="#fff"/><circle cx="70.4" cy="44" r=".5" fill="#fff"/><circle cx="67.7" cy="10.6" r=".5" fill="#fff"/><circle cx="78.7" cy="14.9" r=".5" fill="#fff"/><path fill="#fff" fill-rule="nonzero" d="M56 34.8c.2.3.3.5.3.8 0 .3-.1.6-.7 1L54 37.8l-.3-.4 1.7-1.2c.3-.2.4-.4.4-.6 0-.1-.1-.3-.2-.5-.2-.2-.4-.3-.6-.3-.2 0-.4.1-.7.3l-1.6 1.1-.3-.4 1.5-1c.4-.3.7-.5 1.1-.5.5-.1.8.2 1 .5Zm-5.3-3.3 3.2-1.1.2.5-1.8 2.2 2.3-.9.2.5-3.1 1.2-.2-.5 1.8-2.2-2.4.8-.2-.5Zm-.4-2.5 3.3-.5.1.5-3.3.5-.1-.5Zm-.1-4v-.6l3.3 1.3v.6l-3.4 1v-.6l2.8-.8-2.7-.9Zm3-7.5c-.5 0-.7.3-1 .8l-.4.7 3 1.6.3-.5-1.2-.7.1-.1c.2-.4.3-.4.8-.4l1 .1.3-.5-1.1-.1h-.5s-.1 0-.2.1V18c-.1-.2-.2-.4-.4-.5h-.7Zm-.6 1c.2-.4.3-.5.5-.5.1 0 .2 0 .3.1l.3.3v.1c0 .2-.1.4-.2.6l-.1.1-.9-.5.1-.2Zm4.2-5.8.4-.3 2 2.7-.4.3-2-2.7Zm1.9-1.3 2.2-1.1.2.4-.8.4 1.3 2.6-.5.3-1.3-2.6-.8.4-.3-.4Zm5.4-2.1.6-.2-.5 2.2.4 1.3-.5.1-.4-1.3-1.6-1.7.6-.2 1.1 1.2.3-1.4Zm10.2 4.6L76 11l1.6.9-.2.4-1.1-.7-.5.8 1.1.6-.2.4-1.1-.6-.8 1.3-.5-.2Zm8.6 7.4 1.2-1.5.2.6-.9 1 1.3.3.2.5-1.8-.4-1.3 1.6-.2-.6 1-1.2-1.5-.3-.2-.6 2 .6Zm-.9 3.4 3.3-.3.2 1.9H85l-.1-1.3H84l.1 1.2h-.4l-.1-1.2-1.6.2v-.5Zm1.4 2.9c-.4 0-.7.1-1 .3-.5.4-.6.9-.6 1.2 0 1.1 1.1 1.6 1.9 1.6.4 0 .7-.1 1-.3.6-.4.6-1 .6-1.2 0-1-.9-1.6-1.9-1.6Zm.3 2.6c-.7 0-1.4-.4-1.4-1 0-.2.1-.6.4-.8.2-.1.5-.2.7-.2.3 0 .9.1 1.2.5.1.1.2.3.2.5 0 .3-.1.6-.4.8-.1.1-.4.2-.7.2Zm-2.2-13.7c-.3 0-.7.1-1 .3-.6.4-.9 1-.9 1.4 0 .3.1.5.2.8.4.6.9.7 1.3.7.3 0 .7-.1 1.1-.3.4-.3.9-.8.9-1.4 0-.3-.1-.5-.2-.8-.4-.5-.9-.7-1.4-.7Zm-.5 2.7c-.3 0-.6-.1-.8-.4-.1-.2-.1-.3-.1-.5 0-.4.2-.8.7-1.1.3-.2.6-.3.8-.3.3 0 .6.1.8.4.1.2.2.3.2.5 0 .4-.2.7-.7 1-.4.3-.7.4-.9.4Zm-8.6-9.7c-.7 0-1.3.5-1.6 1.3-.1.2-.1.4-.1.5 0 .3.1.6.2.9.3.6.9.8 1.3.8.2 0 .5-.1.7-.2.6-.3.9-1 .9-1.7 0-.3-.1-.6-.2-.8-.2-.5-.7-.8-1.2-.8Zm-.2 3c-.2 0-.6-.1-.8-.5-.1-.2-.1-.4-.1-.6 0-.6.4-1.4 1.1-1.4.4 0 .9.3.9 1.1 0 .5-.3 1.4-1.1 1.4Zm-18.4 9.2.5.1-.5 1.8-3.2-.9.6-1.9.4.1-.4 1.3.9.2.3-1.2.4.1-.3 1.2 1 .3.3-1.1Zm.8-7c.5-.5.9-.5.9-.5l.1.4s-.4 0-.7.3c-.1.1-.2.3-.2.4 0 .1 0 .2.1.3.2.2.6 0 .9-.1.2-.1.5-.2.7-.2.2 0 .4.1.6.2.2.2.3.5.3.7 0 .3-.1.5-.3.8-.4.5-1 .5-1 .5l-.1-.4c.3-.1.6-.2.8-.4.1-.1.2-.3.2-.4 0-.1-.1-.2-.2-.3-.1-.1-.2-.1-.3-.1-.2 0-.5.1-.7.2-.4.2-.8.3-1.2 0-.2-.2-.3-.4-.3-.6.1-.3.2-.6.4-.8ZM81.1 32l1.3.6-.1.1c-.2.4-.2.5-.8.5h-1l-.2.5h1.1c.2 0 .4 0 .5-.1 0 0 .1 0 .1-.1v.1c0 .1 0 .2.1.4.2.4.6.5.9.5.5 0 .7-.3 1-.9l.3-.7-3-1.4-.2.5Zm2 2c-.2 0-.4-.1-.5-.3v-.2c0-.2.1-.4.2-.6l.1-.1 1 .4-.1.3c-.4.4-.5.5-.7.5Zm-3.8 1.2c-.3.4-.6.8-.6 1.3 0 .4.2.9.7 1.3.3.3.7.4 1.1.4.5 0 .8-.1 1.4-.9l.5-.7-2.6-2.1-.5.7Zm1.2 2.5c-.3 0-.5-.1-.8-.3-.3-.2-.5-.5-.5-1 0-.3.2-.6.4-.9l.2-.3 1.9 1.5-.1.3c-.4.5-.6.7-1.1.7Z"/><path fill="#fff" fill-rule="nonzero" d="M87 26.7c0-10.6-8.6-19.2-19.2-19.2s-19.2 8.6-19.2 19.2c0 6.4 3.1 12.3 8.4 15.9.5 1.9 2.3 3.4 4.4 3.4.6 0 1.1-.1 1.6-.3.7.2 1.4.4 2.2.6-.2.6-.5 1.1-.8 1.6l.4.4c.1-.1.2-.1.3-.1.4 0 .7.3.7.7 0 .4-.3.7-.7.7-.3 0-.6-.2-.8-.5 0 0-.1.3-.1.8 0 1.4 1.5 3 3.6 3.6 2.1-.7 3.6-2.2 3.6-3.6 0-.5-.1-.8-.1-.8-.2.2-.4.5-.8.5s-.7-.3-.7-.7c0-.4.3-.7.7-.7.1 0 .3 0 .4.1l.4-.4c-.2-.5-.4-1-.5-1.5 3.5-.5 6.4-1.9 8.7-4.4 4.7-3.7 7.5-9.3 7.5-15.3ZM61.3 45.4c-2.2 0-4-1.8-4-4 0-.7.2-1.3.5-1.9l.6.6c-.2.4-.3.9-.3 1.3 0 1.2.6 2.2 1.7 2.9.7.4 1.4.7 2.2 1-.2.1-.4.1-.7.1Zm6.5-5.8c-.8 0-1.6-.1-2.4-.2-.8-1.5-2.3-2.5-4-2.5-.4 0-.8.1-1.2.2-3.3-2.4-5.2-6.3-5.2-10.4 0-7.1 5.8-12.9 12.9-12.9 7.1 0 12.9 5.8 12.9 12.9-.2 7.1-6 12.9-13 12.9Zm2.8.2c-.4.6-.6 1.3-.7 2.1-1.2-.3-2.3-.7-3.3-1.2.2-.4.7-.6 1.1-.6 1 0 2-.1 2.9-.3Zm-4.1.3c-.2.1-.3.3-.4.4-.5-.2-1.1-.5-1.5-.8.6.2 1.4.3 1.9.4Zm-5.2-2.7c1.3 0 2.6.7 3.3 1.8-.6-.2-1.3-.4-1.9-.6-.4-.2-.9-.3-1.4-.3-1.1 0-2 .5-2.6 1.3-.2-.1-.5-.3-.7-.4.8-1.1 2-1.8 3.3-1.8Zm9.1 10.2c-.7 0-1.3.5-1.3 1.3s.6 1.3 1.3 1.3h.3c-.1 1.1-1.4 2.3-3 2.8-1.6-.5-2.8-1.7-3-2.8h.3c.8 0 1.3-.5 1.3-1.3 0-.7-.6-1.3-1.3-1.3.2-.4.4-.8.6-1.3.9.2 1.7.2 2.6.2.7 0 1.3 0 1.9-.1l.3 1.2c.1 0 0 0 0 0ZM68.2 46c-2.6 0-5.8-.9-8-2.2-.7-.4-1.5-1.1-1.5-2.4 0-.3.1-.7.2-1 .8.7 1.7 1.3 2.2 1.6.1.1.2.1.3.1.3 0 .6-.3.6-.6s-.1-.5-.4-.6c-.5-.2-1.4-.6-2.4-1.1.5-.6 1.2-1 2.1-1 .4 0 .8.1 1.1.2l.7.4c2.2 1.4 8 4.9 15 3-2.6 2.4-5.9 3.6-9.9 3.6ZM79 41.6c-3.1 1.1-6 1-8.5.5.1-1.1.5-2.3 1.2-2.5 5.5-1.7 9.5-6.8 9.5-12.9 0-7.4-6-13.5-13.4-13.5s-13.4 6-13.4 13.5c0 4.1 1.9 8 5.2 10.6-.8.3-1.4.9-1.9 1.6-.2-.2-.5-.3-.7-.5l-.1.1c.1.2.4.4.6.7-.4.7-.6 1.5-.6 2.3v.4c-4.8-3.5-7.7-9.1-7.7-15.1C49.1 16.4 57.5 8 67.8 8 78 8 86.4 16.4 86.4 26.7c0 5.9-2.7 11.3-7.4 14.9Z"/></g><path fill="none" d="M0 0h79.011v102.7H0z"/></svg>