<?xml version="1.0" encoding="utf-8"?>
<!-- Generator: Adobe Illustrator 23.0.2, SVG Export Plug-In . SVG Version: 6.00 Build 0)  -->
<svg version="1.1" id="Layer_1" xmlns="http://www.w3.org/2000/svg" xmlns:xlink="http://www.w3.org/1999/xlink" x="0px" y="0px"
	 viewBox="0 0 184 212.15" style="enable-background:new 0 0 184 212.15;" xml:space="preserve">
<style type="text/css">
	.st0{stroke:#FFFFFF;stroke-miterlimit:10;}
	.st1{fill:none;stroke:#FFFFFF;stroke-width:2;stroke-miterlimit:10;}
	.st2{fill:#FFFFFF;}
	.st3{stroke:#FFFFFF;stroke-width:3;stroke-miterlimit:10;}
	.st4{fill:none;stroke:#000000;stroke-width:0.5;stroke-linecap:round;stroke-linejoin:round;}
</style>
<ellipse transform="matrix(0.5358 -0.8444 0.8444 0.5358 -5.7245 44.2962)" cx="37.42" cy="27.35" rx="17.89" ry="11.62"/>
<ellipse class="st0" cx="36.32" cy="133.38" rx="22.4" ry="44.53"/>
<g>
	<path d="M48.49,47.83v-2c27.3,0,48.23-4.98,56.42-10.71c-5.79-13.64-16.94-23.5-30.77-25.3C51.45,6.87,30.17,26.71,26.6,54.13
		c-1.72,13.23,1,25.8,6.82,35.61C42.29,82.59,48.49,66.5,48.49,47.83z"/>
	<path d="M52.46,49.79c-0.42,19.47-7.12,35.75-16.84,43.33c6.24,8.7,15.15,14.66,25.59,16.02c22.68,2.95,43.97-16.89,47.54-44.31
		c1.2-9.19,0.24-18.06-2.39-25.91C95.91,45.64,74.07,49.38,52.46,49.79z"/>
</g>
<g id="XMLID_2_">
	<g>
		<path d="M113.47,93.36l-2.04,121.11c0.68-17.62,19.99-31.71,43.76-31.71l18.55-118.04C140.43,64.71,113.47,77.52,113.47,93.36z"/>
	</g>
	<g>
		<path class="st1" d="M113.47,93.36c0-15.84,26.96-28.64,60.27-28.64"/>
		<line class="st1" x1="113.47" y1="93.36" x2="111.43" y2="214.46"/>
		<path class="st1" d="M111.43,214.46c0.68-17.62,19.99-31.71,43.76-31.71"/>
		<path class="st1" d="M111.43,214.46c-0.01,0.32-0.02,0.63-0.02,0.95"/>
		<line class="st1" x1="155.2" y1="182.76" x2="173.74" y2="64.71"/>
	</g>
</g>
<g id="XMLID_1_">
	<g>
		<path d="M11.53,83.71l30.2,116.34c37.58,0,68,2.87,68,6.41l2.72-116.85C112.44,86.34,67.31,83.71,11.53,83.71z"/>
	</g>
	<g>
		<line class="st1" x1="112.44" y1="89.6" x2="109.73" y2="206.45"/>
		<path class="st1" d="M112.44,89.6c0-3.26-45.14-5.9-100.91-5.9"/>
		<path class="st1" d="M109.73,206.45c0-3.54-30.42-6.41-68-6.41"/>
		<line class="st1" x1="41.73" y1="200.05" x2="11.53" y2="83.71"/>
	</g>
</g>
<ellipse transform="matrix(0.1656 -0.9862 0.9862 0.1656 -5.0866 275.6764)" cx="160.37" cy="140.84" rx="17.33" ry="9.75"/>
<path class="st2" d="M170.61,129.39c-1.47-4.06-3.99-6.59-7.12-7.12c-3.12-0.52-6.34,1.04-9.05,4.4c-2.52,3.12-4.35,7.49-5.16,12.3
	c-1.75,10.41,1.75,19.39,7.97,20.43c0.4,0.07,0.79,0.1,1.19,0.1c2.74,0,5.49-1.56,7.86-4.5c2.52-3.12,4.35-7.49,5.16-12.3
	C172.27,137.89,171.97,133.16,170.61,129.39z M168.51,142.21c-0.72,4.31-2.33,8.19-4.53,10.92c-2,2.48-4.21,3.67-6.22,3.33
	c-4.41-0.74-6.93-8.51-5.51-16.98c0.72-4.31,2.33-8.19,4.53-10.92c1.78-2.2,3.72-3.38,5.54-3.38c0.23,0,0.46,0.02,0.68,0.06
	c2.01,0.34,3.71,2.18,4.79,5.18C168.98,133.7,169.23,137.9,168.51,142.21z"/>
<ellipse transform="matrix(0.9795 -0.2015 0.2015 0.9795 -32.5175 10.0378)" class="st3" cx="33.04" cy="164.72" rx="9.75" ry="17.33"/>
<path class="st4" d="M247.37,65"/>
<path class="st4" d="M188.33,93.06"/>
<line class="st1" x1="113.53" y1="90.04" x2="111.41" y2="215.41"/>
</svg>
