<svg xmlns="http://www.w3.org/2000/svg" fill="none" viewBox="0 0 123 30"><path fill="#fff" fill-rule="evenodd" d="M29.2273.4846H.5729v29.0308h28.6544V.4846ZM8.9801 7.5484l4.9656 9.3866.0046 6.0981h1.9099v-6l4.9655-9.4847h-2.1012l-2.8655 5.9031-.0045.0068c-.1898.2885-.3789.5759-.4738.8644-.0545.2227-.1411.3814-.223.5316-.0603.1105-.118.2163-.1585.3395-.0479-.0479-.0719-.1205-.0958-.1931-.0239-.0725-.0478-.145-.0956-.1934-.0478-.0969-.0717-.1696-.0956-.2423-.0239-.0727-.0479-.1454-.0957-.2423v-.097l-.0957-.0969c-.0366-.0738-.0592-.1336-.0786-.1847-.0311-.0823-.0537-.142-.1127-.2018-.0957-.0969-.1913-.1939-.1913-.2908l-2.8655-5.903H8.9801Z" clip-rule="evenodd"/><path fill="#fff" d="M40.6982 10.6904c1.2072 0 2.255.3265 3.0613.9808l-.8052.9807c-.7255-.4892-1.4498-.8157-2.3347-.8157-1.3701 0-2.4167.735-2.9805 2.123-.3223.8158-.4829 1.8774-.4829 3.2654 0 1.0616.1595 1.9593.4032 2.6123.6446 1.5508 1.6924 2.2847 3.3028 2.2847.886 0 1.6924-.2447 2.4167-.8158l.8052 1.0615c-1.0478.6531-2.1639.9808-3.3825.9808-1.4498 0-2.6582-.5712-3.6251-1.7954-.9681-1.1538-1.3701-2.6931-1.3701-4.5692 0-1.8762.4829-3.3462 1.4498-4.5693.8861-1.0615 2.0956-1.7146 3.5454-1.7146l-.0034-.0092Zm4.592 8.0804c0-1.4689.3223-2.6123 1.0477-3.4269.7255-.8147 1.6116-1.3062 2.7391-1.3062 1.2892 0 2.3347.4892 3.0613 1.5508.5638.8157.8052 1.9592.8052 3.3461 0 1.6327-.4829 2.9389-1.3701 3.7546-.6671.5938-1.5289.9139-2.4167.8977-1.2072 0-2.0956-.4084-2.8199-1.3061-.7255-.8158-1.0478-2.04-1.0478-3.51h.0012Zm5.6397-2.3654c-.4031-.735-.968-1.1538-1.8529-1.1538s-1.4498.3265-1.853.9807c-.3223.4893-.4032 1.3062-.4032 2.3654 0 1.3881.1595 2.3654.5638 2.9389.4043.5734.968.8976 1.7721.8976.9681 0 1.6115-.4892 1.9338-1.388.1595-.4893.2415-1.1539.2415-1.9593.0797-1.223-.0797-2.123-.4032-2.693l.0011.0115Zm4.5898.1615c0-.8977-.0798-1.6327-.3223-2.1923l1.37-.3265c.2415.4085.3224.8977.3224 1.3061v.0808c.3223-.3265.6446-.6531 1.1388-.8977.5638-.3265 1.0478-.4892 1.5307-.4892.7255 0 1.3701.3265 1.7721.8977.0797.1615.2415.4084.3223.5711.9681-.9807 1.853-1.4688 2.8199-1.4688.6446 0 1.2072.2446 1.6115.6531.4032.4892.6447 1.0615.6447 1.7146v6.7731h-1.4715v-6.6923c0-.8977-.4032-1.3062-1.1389-1.3062-.4031 0-.886.1615-1.2892.4892-.1594.1616-.4829.4085-.8861.735l-.1594.1616v6.6115H60.254v-6.3761c0-.5712-.0797-.9808-.2414-1.1539-.2415-.2446-.4829-.3265-.8861-.3265-.6446 0-1.3701.4084-2.255 1.223v6.6924h-1.3507l-.0011-6.6797Zm13.6974-6.203 1.4498-.3266c.1594.6531.2414 1.3881.2414 2.2846v3.0197c.8052-.8158 1.6924-1.2231 2.5785-1.2231 1.0478 0 1.9338.4084 2.4976 1.2231.6446.8157.968 1.9592.968 3.3461 0 1.4689-.3223 2.6123-.968 3.51-.6458.8977-1.5307 1.3062-2.5785 1.3062a2.8178 2.8178 0 0 1-1.3701-.3266c-.4829-.2446-.8052-.4892-1.0477-.8157l-.2415.9807h-1.3701c.1595-.4084.2415-1.1538.2415-2.2846v-8.5731c-.0798-.9807-.1595-1.7146-.4032-2.123l.0023.0023Zm2.3347 5.5384c-.2414.1616-.4829.4085-.6446.6531v4.6754c.5637.735 1.2892 1.0615 2.1639 1.0615.7255 0 1.2892-.2446 1.6115-.8157.4032-.6531.6446-1.5508.6446-2.857 0-1.1538-.1594-1.9592-.5637-2.4484-.3223-.4893-.8861-.735-1.6924-.735-.4829-.0808-1.0478.0807-1.5307.4892l.0114-.0231Zm7.4939-4.3846c0-.3265.0797-.5711.3223-.8158.2426-.2446.4829-.3265.8052-.3265.3223 0 .5637.0808.8052.3265.2414.2458.3223.4893.3223.8158 0 .3265-.0797.5712-.3223.8158-.2426.2446-.4829.3265-.8052.3265-.3223 0-.5638-.0808-.8052-.3265-.2414-.2458-.3223-.4893-.3223-.8158Zm.3348 11.7439v-8.977l1.4498-.2446v9.2239l-1.4498-.0023Zm4.5806-6.6947c0-.653 0-1.0615-.0797-1.223 0-.2447-.1594-.4893-.3223-.8977l1.3701-.4085a2.916 2.916 0 0 1 .3223 1.3881c.8861-.8977 1.853-1.3881 2.8199-1.3881.4829 0 .886.0808 1.2892.3265.4032.2458.7255.5712.8861.9808.1594.3266.2414.6531.2414 1.0616v6.8561H89.118v-6.1211c0-.735-.0797-1.2231-.3223-1.4689a1.3315 1.3315 0 0 0-.4422-.3045 1.3179 1.3179 0 0 0-.5247-.104c-.3223 0-.8052.1616-1.2892.4085a4.694 4.694 0 0 0-1.2084.8977v6.6923h-1.3701v-6.6958Zm9.7489-.3265-.7254-.9808c1.2072-.8157 2.4167-1.223 3.7059-1.223 1.2892 0 2.0956.4892 2.4976 1.388.1594.3266.1594.8158.1594 1.5508v.4892l-.0797 2.9389v.4084c0 .4893 0 .8158.0797 1.0616.0798.3265.3223.5711.6446.735l-.7254.9807c-.6446-.2446-1.0478-.653-1.2073-1.3061-.8052.8158-1.6923 1.2231-2.5784 1.2231-.8861 0-1.6115-.2446-2.1639-.735-.4829-.4085-.7255-1.0616-.7255-1.8773a2.6952 2.6952 0 0 1 .2914-1.3473 2.6534 2.6534 0 0 1 .917-1.0193c.8052-.5711 2.0136-.8157 3.4645-.8157h.6446v-.6531c0-.735-.0797-1.2231-.3223-1.3881a1.5142 1.5142 0 0 0-.5492-.3825 1.4967 1.4967 0 0 0-.658-.1067c-.4829 0-1.0478.1615-1.6924.4084l-.9681.6531-.0091-.0023Zm4.2709 4.8162.0797-2.3654h-.7255c-1.2892 0-2.0955.2446-2.5784.735-.3223.3265-.4829.8157-.4829 1.4688 0 1.0616.4829 1.6327 1.5306 1.6327a2.5401 2.5401 0 0 0 1.2799-.4351 2.5858 2.5858 0 0 0 .884-1.0337l.0126-.0023Zm5.9611-6.7754h2.255l-.403 1.1538h-1.853v5.7958c0 .4892.079.8158.241 1.0615.16.1616.483.3266.886.3266.322 0 .645-.0808.886-.1616l.16.8977c-.483.2446-.968.3266-1.531.3266-1.37 0-2.014-.6531-2.014-2.04v-6.2031h-1.208v-1.1539h1.139v-.1615c0-.1615.08-.8158.159-1.8773V12l1.45-.3265c-.159.9807-.159 1.8773-.159 2.6123l-.008-.0046Zm3.706 4.4884c0-1.4688.322-2.6123 1.048-3.4269.644-.8158 1.611-1.3061 2.739-1.3061 1.289 0 2.334.4892 3.061 1.5507.564.8158.805 1.9593.805 3.3462 0 1.6327-.483 2.9388-1.37 3.7546-.667.5937-1.529.9139-2.417.8977-1.207 0-2.095-.4085-2.82-1.3062-.644-.8157-1.047-2.04-1.047-3.51h.001Zm5.72-2.3654c-.403-.735-.968-1.1538-1.853-1.1538s-1.449.3265-1.853.9808c-.322.4892-.403 1.3061-.403 2.3654 0 1.388.16 2.3653.564 2.9388.404.5735.968.8977 1.772.8977.968 0 1.612-.4892 1.934-1.3881.159-.4892.241-1.1538.241-1.9592 0-1.2231-.159-2.1231-.403-2.6931l.001.0115Zm4.59-.0023c0-.8157-.08-1.4688-.322-1.9592l1.37-.4085c.22.4281.331.9054.322 1.3881v.1616c.726-.9808 1.531-1.4689 2.498-1.4689.159 0 .322 0 .483.0808l-.564 1.5508c-.16-.0808-.322-.0808-.403-.0808-.323 0-.726.0808-1.048.3265-.322.2458-.645.4893-.805.8158a3.0766 3.0766 0 0 0-.161.9796v5.6308h-1.37v-7.0166Z"/></svg>