<?xml version="1.0" encoding="UTF-8" standalone="no"?>
<!DOCTYPE svg PUBLIC "-//W3C//DTD SVG 1.1//EN"
 "http://www.w3.org/Graphics/SVG/1.1/DTD/svg11.dtd">
<!-- Generated by graphviz version 2.43.0 (0)
 -->
<!-- Title: G Pages: 1 -->
<svg width="932pt" height="531pt"
 viewBox="0.00 0.00 932.00 531.00" xmlns="http://www.w3.org/2000/svg" xmlns:xlink="http://www.w3.org/1999/xlink">
<g id="graph0" class="graph" transform="scale(1 1) rotate(0) translate(4 527)">
<title>G</title>
<polygon fill="white" stroke="transparent" points="-4,4 -4,-527 928,-527 928,4 -4,4"/>
<g id="clust1" class="cluster">
<title>clusterGrapherTables</title>
<polygon fill="none" stroke="black" points="8,-8 8,-515 916,-515 916,-8 8,-8"/>
<text text-anchor="middle" x="462" y="-499.8" font-family="Times,serif" font-size="14.00">Tables that are properties on grapher</text>
</g>
<!-- propsTable -->
<g id="node1" class="node">
<title>propsTable</title>
<ellipse fill="none" stroke="black" cx="769" cy="-466" rx="106.68" ry="18"/>
<text text-anchor="middle" x="769" y="-462.3" font-family="Times,serif" font-size="14.00">Table set from props</text>
</g>
<!-- inputTable -->
<g id="node3" class="node">
<title>inputTable</title>
<ellipse fill="none" stroke="black" cx="556" cy="-394" rx="59.59" ry="18"/>
<text text-anchor="middle" x="556" y="-390.3" font-family="Times,serif" font-size="14.00">inputTable</text>
</g>
<!-- propsTable&#45;&gt;inputTable -->
<g id="edge3" class="edge">
<title>propsTable&#45;&gt;inputTable</title>
<path fill="none" stroke="black" d="M722.52,-449.72C687.61,-438.25 639.93,-422.58 604.53,-410.95"/>
<polygon fill="black" stroke="black" points="605.49,-407.58 594.89,-407.78 603.3,-414.23 605.49,-407.58"/>
</g>
<!-- explorerSetTable -->
<g id="node2" class="node">
<title>explorerSetTable</title>
<ellipse fill="none" stroke="black" cx="536" cy="-466" rx="108.58" ry="18"/>
<text text-anchor="middle" x="536" y="-462.3" font-family="Times,serif" font-size="14.00">Table set by explorer</text>
</g>
<!-- explorerSetTable&#45;&gt;inputTable -->
<g id="edge1" class="edge">
<title>explorerSetTable&#45;&gt;inputTable</title>
<path fill="none" stroke="black" d="M540.94,-447.7C543.17,-439.9 545.85,-430.51 548.33,-421.83"/>
<polygon fill="black" stroke="black" points="551.73,-422.68 551.11,-412.1 545,-420.76 551.73,-422.68"/>
</g>
<!-- tableAfterAuthorTimelineFilter -->
<g id="node5" class="node">
<title>tableAfterAuthorTimelineFilter</title>
<ellipse fill="none" stroke="black" cx="545" cy="-322" rx="155.17" ry="18"/>
<text text-anchor="middle" x="545" y="-318.3" font-family="Times,serif" font-size="14.00">tableAfterAuthorTimelineFilter</text>
</g>
<!-- inputTable&#45;&gt;tableAfterAuthorTimelineFilter -->
<g id="edge4" class="edge">
<title>inputTable&#45;&gt;tableAfterAuthorTimelineFilter</title>
<path fill="none" stroke="black" d="M553.28,-375.7C552.07,-367.98 550.61,-358.71 549.26,-350.11"/>
<polygon fill="black" stroke="black" points="552.7,-349.44 547.69,-340.1 545.78,-350.53 552.7,-349.44"/>
</g>
<!-- tableForSelection -->
<g id="node7" class="node">
<title>tableForSelection</title>
<ellipse fill="none" stroke="black" cx="815" cy="-178" rx="92.88" ry="18"/>
<text text-anchor="middle" x="815" y="-174.3" font-family="Times,serif" font-size="14.00">tableForSelection</text>
</g>
<!-- inputTable&#45;&gt;tableForSelection -->
<g id="edge7" class="edge">
<title>inputTable&#45;&gt;tableForSelection</title>
<path fill="none" stroke="black" d="M606.8,-384.5C666.91,-371.36 763.99,-339.69 805,-268 815.65,-249.38 817.73,-224.99 817.38,-206.45"/>
<polygon fill="black" stroke="black" points="820.87,-206.14 816.94,-196.3 813.87,-206.44 820.87,-206.14"/>
</g>
<!-- legacyToOwidTableAndDimensions -->
<g id="node4" class="node">
<title>legacyToOwidTableAndDimensions</title>
<ellipse fill="none" stroke="black" cx="208" cy="-466" rx="172.47" ry="18"/>
<text text-anchor="middle" x="208" y="-462.3" font-family="Times,serif" font-size="14.00">legacyToOwidTableAndDimensions</text>
</g>
<!-- legacyToOwidTableAndDimensions&#45;&gt;inputTable -->
<g id="edge2" class="edge">
<title>legacyToOwidTableAndDimensions&#45;&gt;inputTable</title>
<path fill="none" stroke="black" d="M283.51,-449.81C347.85,-436.87 438.99,-418.54 497.8,-406.71"/>
<polygon fill="black" stroke="black" points="498.56,-410.12 507.67,-404.72 497.18,-403.26 498.56,-410.12"/>
</g>
<!-- tableAfterAuthorTimelineAndActiveChartTransform -->
<g id="node6" class="node">
<title>tableAfterAuthorTimelineAndActiveChartTransform</title>
<ellipse fill="none" stroke="black" cx="545" cy="-250" rx="250.76" ry="18"/>
<text text-anchor="middle" x="545" y="-246.3" font-family="Times,serif" font-size="14.00">tableAfterAuthorTimelineAndActiveChartTransform</text>
</g>
<!-- tableAfterAuthorTimelineFilter&#45;&gt;tableAfterAuthorTimelineAndActiveChartTransform -->
<g id="edge5" class="edge">
<title>tableAfterAuthorTimelineFilter&#45;&gt;tableAfterAuthorTimelineAndActiveChartTransform</title>
<path fill="none" stroke="black" d="M545,-303.7C545,-295.98 545,-286.71 545,-278.11"/>
<polygon fill="black" stroke="black" points="548.5,-278.1 545,-268.1 541.5,-278.1 548.5,-278.1"/>
</g>
<!-- table -->
<g id="node11" class="node">
<title>table</title>
<ellipse fill="none" stroke="black" cx="242" cy="-250" rx="34.39" ry="18"/>
<text text-anchor="middle" x="242" y="-246.3" font-family="Times,serif" font-size="14.00">table</text>
</g>
<!-- tableAfterAuthorTimelineFilter&#45;&gt;table -->
<g id="edge11" class="edge">
<title>tableAfterAuthorTimelineFilter&#45;&gt;table</title>
<path fill="none" stroke="black" d="M457.39,-307.09C406.52,-298.04 341.52,-284.79 285,-268 282.58,-267.28 280.1,-266.48 277.61,-265.63"/>
<polygon fill="black" stroke="black" points="278.72,-262.31 268.12,-262.17 276.32,-268.88 278.72,-262.31"/>
</g>
<!-- tableAfterAuthorTimelineAndActiveChartTransform&#45;&gt;tableForSelection -->
<g id="edge6" class="edge">
<title>tableAfterAuthorTimelineAndActiveChartTransform&#45;&gt;tableForSelection</title>
<path fill="none" stroke="black" d="M608.64,-232.5C651.89,-221.29 708.85,-206.52 751.97,-195.34"/>
<polygon fill="black" stroke="black" points="752.98,-198.7 761.78,-192.8 751.22,-191.92 752.98,-198.7"/>
</g>
<!-- tableAfterAuthorTimelineAndActiveChartTransformAndPopulationFilter -->
<g id="node8" class="node">
<title>tableAfterAuthorTimelineAndActiveChartTransformAndPopulationFilter</title>
<ellipse fill="none" stroke="black" cx="360" cy="-178" rx="343.64" ry="18"/>
<text text-anchor="middle" x="360" y="-174.3" font-family="Times,serif" font-size="14.00">tableAfterAuthorTimelineAndActiveChartTransformAndPopulationFilter</text>
</g>
<!-- tableAfterAuthorTimelineAndActiveChartTransform&#45;&gt;tableAfterAuthorTimelineAndActiveChartTransformAndPopulationFilter -->
<g id="edge8" class="edge">
<title>tableAfterAuthorTimelineAndActiveChartTransform&#45;&gt;tableAfterAuthorTimelineAndActiveChartTransformAndPopulationFilter</title>
<path fill="none" stroke="black" d="M500.69,-232.23C474.68,-222.39 441.62,-209.88 414.08,-199.46"/>
<polygon fill="black" stroke="black" points="415.18,-196.14 404.59,-195.87 412.71,-202.69 415.18,-196.14"/>
</g>
<!-- tableAfterAllTransformsAndFilters -->
<g id="node9" class="node">
<title>tableAfterAllTransformsAndFilters</title>
<ellipse fill="none" stroke="black" cx="360" cy="-106" rx="171.67" ry="18"/>
<text text-anchor="middle" x="360" y="-102.3" font-family="Times,serif" font-size="14.00">tableAfterAllTransformsAndFilters</text>
</g>
<!-- tableAfterAuthorTimelineAndActiveChartTransformAndPopulationFilter&#45;&gt;tableAfterAllTransformsAndFilters -->
<g id="edge9" class="edge">
<title>tableAfterAuthorTimelineAndActiveChartTransformAndPopulationFilter&#45;&gt;tableAfterAllTransformsAndFilters</title>
<path fill="none" stroke="black" d="M360,-159.7C360,-151.98 360,-142.71 360,-134.11"/>
<polygon fill="black" stroke="black" points="363.5,-134.1 360,-124.1 356.5,-134.1 363.5,-134.1"/>
</g>
<!-- transformedTable -->
<g id="node10" class="node">
<title>transformedTable</title>
<ellipse fill="none" stroke="black" cx="360" cy="-34" rx="92.88" ry="18"/>
<text text-anchor="middle" x="360" y="-30.3" font-family="Times,serif" font-size="14.00">transformedTable</text>
</g>
<!-- tableAfterAllTransformsAndFilters&#45;&gt;transformedTable -->
<g id="edge10" class="edge">
<title>tableAfterAllTransformsAndFilters&#45;&gt;transformedTable</title>
<path fill="none" stroke="black" d="M360,-87.7C360,-79.98 360,-70.71 360,-62.11"/>
<polygon fill="black" stroke="black" points="363.5,-62.1 360,-52.1 356.5,-62.1 363.5,-62.1"/>
</g>
</g>
</svg>
