<?xml version="1.0" encoding="UTF-8" standalone="no"?>
<!DOCTYPE svg PUBLIC "-//W3C//DTD SVG 1.1//EN"
 "http://www.w3.org/Graphics/SVG/1.1/DTD/svg11.dtd">
<!-- Generated by graphviz version 2.43.0 (0)
 -->
<!-- Title: G Pages: 1 -->
<svg width="3800pt" height="948pt"
 viewBox="0.00 0.00 3800.00 947.69" xmlns="http://www.w3.org/2000/svg" xmlns:xlink="http://www.w3.org/1999/xlink">
<g id="graph0" class="graph" transform="scale(1 1) rotate(0) translate(4 943.69)">
<title>G</title>
<polygon fill="white" stroke="transparent" points="-4,4 -4,-943.69 3796,-943.69 3796,4 -4,4"/>
<g id="clust1" class="cluster">
<title>clusterLineChart</title>
<polygon fill="none" stroke="black" points="8,-568.69 8,-931.69 460,-931.69 460,-568.69 8,-568.69"/>
<text text-anchor="middle" x="234" y="-916.49" font-family="Times,serif" font-size="14.00">LineChart transformations</text>
</g>
<g id="clust2" class="cluster">
<title>clusterScatterPlot</title>
<polygon fill="none" stroke="black" points="468,-8 468,-931.69 1128,-931.69 1128,-8 468,-8"/>
<text text-anchor="middle" x="798" y="-916.49" font-family="Times,serif" font-size="14.00">ScatterChart transformations</text>
</g>
<g id="clust4" class="cluster">
<title>clusterAbstractStacked</title>
<polygon fill="none" stroke="black" points="1136,-352.69 1136,-931.69 1602,-931.69 1602,-352.69 1136,-352.69"/>
<text text-anchor="middle" x="1369" y="-916.49" font-family="Times,serif" font-size="14.00">AbstractStacked transformations</text>
</g>
<g id="clust5" class="cluster">
<title>clusterDiscreteBar</title>
<polygon fill="none" stroke="black" points="1610,-424.69 1610,-931.69 2046,-931.69 2046,-424.69 1610,-424.69"/>
<text text-anchor="middle" x="1828" y="-916.49" font-family="Times,serif" font-size="14.00">DiscreteBarChart transformations</text>
</g>
<g id="clust6" class="cluster">
<title>clusterStackedDiscreteBar</title>
<polygon fill="none" stroke="black" points="2054,-352.69 2054,-931.69 2520,-931.69 2520,-352.69 2054,-352.69"/>
<text text-anchor="middle" x="2287" y="-916.49" font-family="Times,serif" font-size="14.00">StackedDiscreteBar transformations</text>
</g>
<g id="clust7" class="cluster">
<title>clusterSlope</title>
<polygon fill="none" stroke="black" points="2528,-568.69 2528,-931.69 2964,-931.69 2964,-568.69 2528,-568.69"/>
<text text-anchor="middle" x="2746" y="-916.49" font-family="Times,serif" font-size="14.00">SlopeChart transformations</text>
</g>
<g id="clust9" class="cluster">
<title>clusterWorldMap</title>
<polygon fill="none" stroke="black" points="2972,-568.69 2972,-931.69 3340,-931.69 3340,-568.69 2972,-568.69"/>
<text text-anchor="middle" x="3156" y="-916.49" font-family="Times,serif" font-size="14.00">MapChart transformations</text>
</g>
<g id="clust10" class="cluster">
<title>clusterMarimekko</title>
<polygon fill="none" stroke="black" points="3348,-171.48 3348,-931.69 3784,-931.69 3784,-171.48 3348,-171.48"/>
<text text-anchor="middle" x="3566" y="-916.49" font-family="Times,serif" font-size="14.00">Marimekko tranformations</text>
</g>
<!-- LCfilterByEntityNames -->
<g id="node1" class="node">
<title>LCfilterByEntityNames</title>
<ellipse fill="none" stroke="black" cx="234" cy="-810.69" rx="200.36" ry="18"/>
<text text-anchor="middle" x="234" y="-806.99" font-family="Times,serif" font-size="14.00">filterByEntityNames on selected entities</text>
</g>
<!-- LCreplaceNonNumericCellsWithErrorValues -->
<g id="node2" class="node">
<title>LCreplaceNonNumericCellsWithErrorValues</title>
<ellipse fill="none" stroke="black" cx="234" cy="-738.69" rx="211.76" ry="18"/>
<text text-anchor="middle" x="234" y="-734.99" font-family="Times,serif" font-size="14.00">replace nonNumeric cells with error values</text>
</g>
<!-- LCfilterByEntityNames&#45;&gt;LCreplaceNonNumericCellsWithErrorValues -->
<g id="edge2" class="edge">
<title>LCfilterByEntityNames&#45;&gt;LCreplaceNonNumericCellsWithErrorValues</title>
<path fill="none" stroke="black" d="M234,-792.39C234,-784.68 234,-775.41 234,-766.81"/>
<polygon fill="black" stroke="black" points="237.5,-766.8 234,-756.8 230.5,-766.8 237.5,-766.8"/>
</g>
<!-- LCreplaceNonPositiveCellsForLogScale -->
<g id="node3" class="node">
<title>LCreplaceNonPositiveCellsForLogScale</title>
<ellipse fill="none" stroke="black" cx="234" cy="-666.69" rx="217.96" ry="18"/>
<text text-anchor="middle" x="234" y="-662.99" font-family="Times,serif" font-size="14.00">replace nonpositive cells if in log scale mode</text>
</g>
<!-- LCreplaceNonNumericCellsWithErrorValues&#45;&gt;LCreplaceNonPositiveCellsForLogScale -->
<g id="edge3" class="edge">
<title>LCreplaceNonNumericCellsWithErrorValues&#45;&gt;LCreplaceNonPositiveCellsForLogScale</title>
<path fill="none" stroke="black" d="M234,-720.39C234,-712.68 234,-703.41 234,-694.81"/>
<polygon fill="black" stroke="black" points="237.5,-694.8 234,-684.8 230.5,-694.8 237.5,-694.8"/>
</g>
<!-- tableLineChart -->
<g id="node5" class="node">
<title>tableLineChart</title>
<ellipse fill="none" stroke="black" cx="234" cy="-594.69" rx="80.69" ry="18"/>
<text text-anchor="middle" x="234" y="-590.99" font-family="Times,serif" font-size="14.00">tableLineChart</text>
</g>
<!-- LCreplaceNonPositiveCellsForLogScale&#45;&gt;tableLineChart -->
<g id="edge4" class="edge">
<title>LCreplaceNonPositiveCellsForLogScale&#45;&gt;tableLineChart</title>
<path fill="none" stroke="black" d="M234,-648.39C234,-640.68 234,-631.41 234,-622.81"/>
<polygon fill="black" stroke="black" points="237.5,-622.8 234,-612.8 230.5,-622.8 237.5,-622.8"/>
</g>
<!-- transformLineChart -->
<g id="node4" class="node">
<title>transformLineChart</title>
<ellipse fill="none" stroke="black" cx="234" cy="-882.69" rx="103.18" ry="18"/>
<text text-anchor="middle" x="234" y="-878.99" font-family="Times,serif" font-size="14.00">transformLineChart</text>
</g>
<!-- transformLineChart&#45;&gt;LCfilterByEntityNames -->
<g id="edge1" class="edge">
<title>transformLineChart&#45;&gt;LCfilterByEntityNames</title>
<path fill="none" stroke="black" d="M234,-864.39C234,-856.68 234,-847.41 234,-838.81"/>
<polygon fill="black" stroke="black" points="237.5,-838.8 234,-828.8 230.5,-838.8 237.5,-838.8"/>
</g>
<!-- SPfilterByEntityNames -->
<g id="node6" class="node">
<title>SPfilterByEntityNames</title>
<ellipse fill="none" stroke="black" cx="798" cy="-810.69" rx="200.36" ry="18"/>
<text text-anchor="middle" x="798" y="-806.99" font-family="Times,serif" font-size="14.00">filterByEntityNames on selected entities</text>
</g>
<!-- SPfilterExcludedEntities -->
<g id="node7" class="node">
<title>SPfilterExcludedEntities</title>
<ellipse fill="none" stroke="black" cx="798" cy="-738.69" rx="167.07" ry="18"/>
<text text-anchor="middle" x="798" y="-734.99" font-family="Times,serif" font-size="14.00">columnFilter on excluded entities</text>
</g>
<!-- SPfilterByEntityNames&#45;&gt;SPfilterExcludedEntities -->
<g id="edge6" class="edge">
<title>SPfilterByEntityNames&#45;&gt;SPfilterExcludedEntities</title>
<path fill="none" stroke="black" d="M798,-792.39C798,-784.68 798,-775.41 798,-766.81"/>
<polygon fill="black" stroke="black" points="801.5,-766.8 798,-756.8 794.5,-766.8 801.5,-766.8"/>
</g>
<!-- SPfilterBackgroundSeries -->
<g id="node8" class="node">
<title>SPfilterBackgroundSeries</title>
<ellipse fill="none" stroke="black" cx="798" cy="-666.69" rx="233.96" ry="18"/>
<text text-anchor="middle" x="798" y="-662.99" font-family="Times,serif" font-size="14.00">columnFilter on selected and background series</text>
</g>
<!-- SPfilterExcludedEntities&#45;&gt;SPfilterBackgroundSeries -->
<g id="edge7" class="edge">
<title>SPfilterExcludedEntities&#45;&gt;SPfilterBackgroundSeries</title>
<path fill="none" stroke="black" d="M798,-720.39C798,-712.68 798,-703.41 798,-694.81"/>
<polygon fill="black" stroke="black" points="801.5,-694.8 798,-684.8 794.5,-694.8 801.5,-694.8"/>
</g>
<!-- SPreplaceNonPositivieCellsForLogScale -->
<g id="node9" class="node">
<title>SPreplaceNonPositivieCellsForLogScale</title>
<ellipse fill="none" stroke="black" cx="798" cy="-594.69" rx="191.97" ry="18"/>
<text text-anchor="middle" x="798" y="-590.99" font-family="Times,serif" font-size="14.00">replace nonpositive cells if in log mode</text>
</g>
<!-- SPfilterBackgroundSeries&#45;&gt;SPreplaceNonPositivieCellsForLogScale -->
<g id="edge8" class="edge">
<title>SPfilterBackgroundSeries&#45;&gt;SPreplaceNonPositivieCellsForLogScale</title>
<path fill="none" stroke="black" d="M798,-648.39C798,-640.68 798,-631.41 798,-622.81"/>
<polygon fill="black" stroke="black" points="801.5,-622.8 798,-612.8 794.5,-622.8 801.5,-622.8"/>
</g>
<!-- SPinterpolateColumnSize -->
<g id="node10" class="node">
<title>SPinterpolateColumnSize</title>
<ellipse fill="none" stroke="black" cx="798" cy="-522.69" rx="119.68" ry="18"/>
<text text-anchor="middle" x="798" y="-518.99" font-family="Times,serif" font-size="14.00">interpolate column size</text>
</g>
<!-- SPreplaceNonPositivieCellsForLogScale&#45;&gt;SPinterpolateColumnSize -->
<g id="edge9" class="edge">
<title>SPreplaceNonPositivieCellsForLogScale&#45;&gt;SPinterpolateColumnSize</title>
<path fill="none" stroke="black" d="M798,-576.39C798,-568.68 798,-559.41 798,-550.81"/>
<polygon fill="black" stroke="black" points="801.5,-550.8 798,-540.8 794.5,-550.8 801.5,-550.8"/>
</g>
<!-- SPinterpolateColumnColor -->
<g id="node11" class="node">
<title>SPinterpolateColumnColor</title>
<ellipse fill="none" stroke="black" cx="798" cy="-450.69" rx="124.28" ry="18"/>
<text text-anchor="middle" x="798" y="-446.99" font-family="Times,serif" font-size="14.00">interpolate column color</text>
</g>
<!-- SPinterpolateColumnSize&#45;&gt;SPinterpolateColumnColor -->
<g id="edge10" class="edge">
<title>SPinterpolateColumnSize&#45;&gt;SPinterpolateColumnColor</title>
<path fill="none" stroke="black" d="M798,-504.39C798,-496.68 798,-487.41 798,-478.81"/>
<polygon fill="black" stroke="black" points="801.5,-478.8 798,-468.8 794.5,-478.8 801.5,-478.8"/>
</g>
<!-- SPdropErrorValuesColor -->
<g id="node12" class="node">
<title>SPdropErrorValuesColor</title>
<ellipse fill="none" stroke="black" cx="798" cy="-378.69" rx="170.07" ry="18"/>
<text text-anchor="middle" x="798" y="-374.99" font-family="Times,serif" font-size="14.00">drop error values for column color</text>
</g>
<!-- SPinterpolateColumnColor&#45;&gt;SPdropErrorValuesColor -->
<g id="edge11" class="edge">
<title>SPinterpolateColumnColor&#45;&gt;SPdropErrorValuesColor</title>
<path fill="none" stroke="black" d="M798,-432.39C798,-424.68 798,-415.41 798,-406.81"/>
<polygon fill="black" stroke="black" points="801.5,-406.8 798,-396.8 794.5,-406.8 801.5,-406.8"/>
</g>
<!-- SPfilterByTimeRange -->
<g id="node13" class="node">
<title>SPfilterByTimeRange</title>
<ellipse fill="none" stroke="black" cx="798" cy="-297.82" rx="231.86" ry="26.74"/>
<text text-anchor="middle" x="798" y="-301.62" font-family="Times,serif" font-size="14.00">filter by X and Y time range</text>
<text text-anchor="middle" x="798" y="-286.62" font-family="Times,serif" font-size="14.00">(avoids time handles exceeding data range)</text>
</g>
<!-- SPdropErrorValuesColor&#45;&gt;SPfilterByTimeRange -->
<g id="edge12" class="edge">
<title>SPdropErrorValuesColor&#45;&gt;SPfilterByTimeRange</title>
<path fill="none" stroke="black" d="M798,-360.58C798,-353.09 798,-344 798,-335.12"/>
<polygon fill="black" stroke="black" points="801.5,-334.91 798,-324.91 794.5,-334.91 801.5,-334.91"/>
</g>
<!-- SPinterpolateColumn -->
<g id="node14" class="node">
<title>SPinterpolateColumn</title>
<ellipse fill="none" stroke="black" cx="798" cy="-197.48" rx="321.97" ry="37.45"/>
<text text-anchor="middle" x="798" y="-208.78" font-family="Times,serif" font-size="14.00">interpolateColumn</text>
<text text-anchor="middle" x="798" y="-193.78" font-family="Times,serif" font-size="14.00">if xOverrideTime is set then interpolatecolumnWithTolerance</text>
<text text-anchor="middle" x="798" y="-178.78" font-family="Times,serif" font-size="14.00">else interpolatecolumnsByClosestMatch</text>
</g>
<!-- SPfilterByTimeRange&#45;&gt;SPinterpolateColumn -->
<g id="edge13" class="edge">
<title>SPfilterByTimeRange&#45;&gt;SPinterpolateColumn</title>
<path fill="none" stroke="black" d="M798,-270.73C798,-262.87 798,-254.01 798,-245.24"/>
<polygon fill="black" stroke="black" points="801.5,-245.06 798,-235.06 794.5,-245.06 801.5,-245.06"/>
</g>
<!-- SPfilterNonNumeric -->
<g id="node15" class="node">
<title>SPfilterNonNumeric</title>
<ellipse fill="none" stroke="black" cx="798" cy="-106" rx="230.16" ry="18"/>
<text text-anchor="middle" x="798" y="-102.3" font-family="Times,serif" font-size="14.00">columnFilter on X and Y to remove nonnumeric</text>
</g>
<!-- SPinterpolateColumn&#45;&gt;SPfilterNonNumeric -->
<g id="edge14" class="edge">
<title>SPinterpolateColumn&#45;&gt;SPfilterNonNumeric</title>
<path fill="none" stroke="black" d="M798,-159.82C798,-151.33 798,-142.43 798,-134.42"/>
<polygon fill="black" stroke="black" points="801.5,-134.15 798,-124.15 794.5,-134.15 801.5,-134.15"/>
</g>
<!-- tableScatterPlot -->
<g id="node17" class="node">
<title>tableScatterPlot</title>
<ellipse fill="none" stroke="black" cx="798" cy="-34" rx="87.18" ry="18"/>
<text text-anchor="middle" x="798" y="-30.3" font-family="Times,serif" font-size="14.00">tableScatterPlot</text>
</g>
<!-- SPfilterNonNumeric&#45;&gt;tableScatterPlot -->
<g id="edge15" class="edge">
<title>SPfilterNonNumeric&#45;&gt;tableScatterPlot</title>
<path fill="none" stroke="black" d="M798,-87.7C798,-79.98 798,-70.71 798,-62.11"/>
<polygon fill="black" stroke="black" points="801.5,-62.1 798,-52.1 794.5,-62.1 801.5,-62.1"/>
</g>
<!-- transformScatterPlot -->
<g id="node16" class="node">
<title>transformScatterPlot</title>
<ellipse fill="none" stroke="black" cx="798" cy="-882.69" rx="109.68" ry="18"/>
<text text-anchor="middle" x="798" y="-878.99" font-family="Times,serif" font-size="14.00">transformScatterPlot</text>
</g>
<!-- transformScatterPlot&#45;&gt;SPfilterByEntityNames -->
<g id="edge5" class="edge">
<title>transformScatterPlot&#45;&gt;SPfilterByEntityNames</title>
<path fill="none" stroke="black" d="M798,-864.39C798,-856.68 798,-847.41 798,-838.81"/>
<polygon fill="black" stroke="black" points="801.5,-838.8 798,-828.8 794.5,-838.8 801.5,-838.8"/>
</g>
<!-- ASfilterByEntityNames -->
<g id="node18" class="node">
<title>ASfilterByEntityNames</title>
<ellipse fill="none" stroke="black" cx="1369" cy="-810.69" rx="200.36" ry="18"/>
<text text-anchor="middle" x="1369" y="-806.99" font-family="Times,serif" font-size="14.00">filterByEntityNames on selected entities</text>
</g>
<!-- ASreplaceNonNumericCellsWithErrorValues -->
<g id="node19" class="node">
<title>ASreplaceNonNumericCellsWithErrorValues</title>
<ellipse fill="none" stroke="black" cx="1369" cy="-738.69" rx="209.86" ry="18"/>
<text text-anchor="middle" x="1369" y="-734.99" font-family="Times,serif" font-size="14.00">replace nonnumeric cells with error values</text>
</g>
<!-- ASfilterByEntityNames&#45;&gt;ASreplaceNonNumericCellsWithErrorValues -->
<g id="edge17" class="edge">
<title>ASfilterByEntityNames&#45;&gt;ASreplaceNonNumericCellsWithErrorValues</title>
<path fill="none" stroke="black" d="M1369,-792.39C1369,-784.68 1369,-775.41 1369,-766.81"/>
<polygon fill="black" stroke="black" points="1372.5,-766.8 1369,-756.8 1365.5,-766.8 1372.5,-766.8"/>
</g>
<!-- ASdropErrorValuesAllColumnsValues -->
<g id="node20" class="node">
<title>ASdropErrorValuesAllColumnsValues</title>
<ellipse fill="none" stroke="black" cx="1369" cy="-666.69" rx="183.07" ry="18"/>
<text text-anchor="middle" x="1369" y="-662.99" font-family="Times,serif" font-size="14.00">drop error values if all columns error</text>
</g>
<!-- ASreplaceNonNumericCellsWithErrorValues&#45;&gt;ASdropErrorValuesAllColumnsValues -->
<g id="edge18" class="edge">
<title>ASreplaceNonNumericCellsWithErrorValues&#45;&gt;ASdropErrorValuesAllColumnsValues</title>
<path fill="none" stroke="black" d="M1369,-720.39C1369,-712.68 1369,-703.41 1369,-694.81"/>
<polygon fill="black" stroke="black" points="1372.5,-694.8 1369,-684.8 1365.5,-694.8 1372.5,-694.8"/>
</g>
<!-- ASinterpolateColumn -->
<g id="node21" class="node">
<title>ASinterpolateColumn</title>
<ellipse fill="none" stroke="black" cx="1369" cy="-594.69" rx="224.76" ry="18"/>
<text text-anchor="middle" x="1369" y="-590.99" font-family="Times,serif" font-size="14.00">interpolate Y columns linearly unless disabled</text>
</g>
<!-- ASdropErrorValuesAllColumnsValues&#45;&gt;ASinterpolateColumn -->
<g id="edge19" class="edge">
<title>ASdropErrorValuesAllColumnsValues&#45;&gt;ASinterpolateColumn</title>
<path fill="none" stroke="black" d="M1369,-648.39C1369,-640.68 1369,-631.41 1369,-622.81"/>
<polygon fill="black" stroke="black" points="1372.5,-622.8 1369,-612.8 1365.5,-622.8 1372.5,-622.8"/>
</g>
<!-- ASdropErrorValuesAnyColumnError -->
<g id="node22" class="node">
<title>ASdropErrorValuesAnyColumnError</title>
<ellipse fill="none" stroke="black" cx="1369" cy="-522.69" rx="207.96" ry="18"/>
<text text-anchor="middle" x="1369" y="-518.99" font-family="Times,serif" font-size="14.00">drop error values if any column has errors</text>
</g>
<!-- ASinterpolateColumn&#45;&gt;ASdropErrorValuesAnyColumnError -->
<g id="edge20" class="edge">
<title>ASinterpolateColumn&#45;&gt;ASdropErrorValuesAnyColumnError</title>
<path fill="none" stroke="black" d="M1369,-576.39C1369,-568.68 1369,-559.41 1369,-550.81"/>
<polygon fill="black" stroke="black" points="1372.5,-550.8 1369,-540.8 1365.5,-550.8 1372.5,-550.8"/>
</g>
<!-- ASconvertToPercentages -->
<g id="node23" class="node">
<title>ASconvertToPercentages</title>
<ellipse fill="none" stroke="black" cx="1369" cy="-450.69" rx="204.16" ry="18"/>
<text text-anchor="middle" x="1369" y="-446.99" font-family="Times,serif" font-size="14.00">convert Y series to percentages if desired</text>
</g>
<!-- ASdropErrorValuesAnyColumnError&#45;&gt;ASconvertToPercentages -->
<g id="edge21" class="edge">
<title>ASdropErrorValuesAnyColumnError&#45;&gt;ASconvertToPercentages</title>
<path fill="none" stroke="black" d="M1369,-504.39C1369,-496.68 1369,-487.41 1369,-478.81"/>
<polygon fill="black" stroke="black" points="1372.5,-478.8 1369,-468.8 1365.5,-478.8 1372.5,-478.8"/>
</g>
<!-- tableAbstractStacked -->
<g id="node25" class="node">
<title>tableAbstractStacked</title>
<ellipse fill="none" stroke="black" cx="1369" cy="-378.69" rx="110.48" ry="18"/>
<text text-anchor="middle" x="1369" y="-374.99" font-family="Times,serif" font-size="14.00">tableAbstractStacked</text>
</g>
<!-- ASconvertToPercentages&#45;&gt;tableAbstractStacked -->
<g id="edge22" class="edge">
<title>ASconvertToPercentages&#45;&gt;tableAbstractStacked</title>
<path fill="none" stroke="black" d="M1369,-432.39C1369,-424.68 1369,-415.41 1369,-406.81"/>
<polygon fill="black" stroke="black" points="1372.5,-406.8 1369,-396.8 1365.5,-406.8 1372.5,-406.8"/>
</g>
<!-- transformAbstractStacked -->
<g id="node24" class="node">
<title>transformAbstractStacked</title>
<ellipse fill="none" stroke="black" cx="1369" cy="-882.69" rx="133.78" ry="18"/>
<text text-anchor="middle" x="1369" y="-878.99" font-family="Times,serif" font-size="14.00">transformAbstractStacked</text>
</g>
<!-- transformAbstractStacked&#45;&gt;ASfilterByEntityNames -->
<g id="edge16" class="edge">
<title>transformAbstractStacked&#45;&gt;ASfilterByEntityNames</title>
<path fill="none" stroke="black" d="M1369,-864.39C1369,-856.68 1369,-847.41 1369,-838.81"/>
<polygon fill="black" stroke="black" points="1372.5,-838.8 1369,-828.8 1365.5,-838.8 1372.5,-838.8"/>
</g>
<!-- DBfilterByEntityNames -->
<g id="node26" class="node">
<title>DBfilterByEntityNames</title>
<ellipse fill="none" stroke="black" cx="1828" cy="-810.69" rx="200.36" ry="18"/>
<text text-anchor="middle" x="1828" y="-806.99" font-family="Times,serif" font-size="14.00">filterByEntityNames on selected entities</text>
</g>
<!-- DBreplaceNonNumericCellsWithErrorValues -->
<g id="node27" class="node">
<title>DBreplaceNonNumericCellsWithErrorValues</title>
<ellipse fill="none" stroke="black" cx="1828" cy="-738.69" rx="209.86" ry="18"/>
<text text-anchor="middle" x="1828" y="-734.99" font-family="Times,serif" font-size="14.00">replace nonnumeric cells with error values</text>
</g>
<!-- DBfilterByEntityNames&#45;&gt;DBreplaceNonNumericCellsWithErrorValues -->
<g id="edge24" class="edge">
<title>DBfilterByEntityNames&#45;&gt;DBreplaceNonNumericCellsWithErrorValues</title>
<path fill="none" stroke="black" d="M1828,-792.39C1828,-784.68 1828,-775.41 1828,-766.81"/>
<polygon fill="black" stroke="black" points="1831.5,-766.8 1828,-756.8 1824.5,-766.8 1831.5,-766.8"/>
</g>
<!-- DBreplaceNonPositivieCellsForLogScale -->
<g id="node28" class="node">
<title>DBreplaceNonPositivieCellsForLogScale</title>
<ellipse fill="none" stroke="black" cx="1828" cy="-666.69" rx="191.97" ry="18"/>
<text text-anchor="middle" x="1828" y="-662.99" font-family="Times,serif" font-size="14.00">replace nonpositive cells if in log mode</text>
</g>
<!-- DBreplaceNonNumericCellsWithErrorValues&#45;&gt;DBreplaceNonPositivieCellsForLogScale -->
<g id="edge25" class="edge">
<title>DBreplaceNonNumericCellsWithErrorValues&#45;&gt;DBreplaceNonPositivieCellsForLogScale</title>
<path fill="none" stroke="black" d="M1828,-720.39C1828,-712.68 1828,-703.41 1828,-694.81"/>
<polygon fill="black" stroke="black" points="1831.5,-694.8 1828,-684.8 1824.5,-694.8 1831.5,-694.8"/>
</g>
<!-- DBdropErrorValuesAllColumnsValues -->
<g id="node29" class="node">
<title>DBdropErrorValuesAllColumnsValues</title>
<ellipse fill="none" stroke="black" cx="1828" cy="-594.69" rx="183.07" ry="18"/>
<text text-anchor="middle" x="1828" y="-590.99" font-family="Times,serif" font-size="14.00">drop error values if all columns error</text>
</g>
<!-- DBreplaceNonPositivieCellsForLogScale&#45;&gt;DBdropErrorValuesAllColumnsValues -->
<g id="edge26" class="edge">
<title>DBreplaceNonPositivieCellsForLogScale&#45;&gt;DBdropErrorValuesAllColumnsValues</title>
<path fill="none" stroke="black" d="M1828,-648.39C1828,-640.68 1828,-631.41 1828,-622.81"/>
<polygon fill="black" stroke="black" points="1831.5,-622.8 1828,-612.8 1824.5,-622.8 1831.5,-622.8"/>
</g>
<!-- DBinterpolateColumn -->
<g id="node30" class="node">
<title>DBinterpolateColumn</title>
<ellipse fill="none" stroke="black" cx="1828" cy="-522.69" rx="112.38" ry="18"/>
<text text-anchor="middle" x="1828" y="-518.99" font-family="Times,serif" font-size="14.00">interpolate Y columns</text>
</g>
<!-- DBdropErrorValuesAllColumnsValues&#45;&gt;DBinterpolateColumn -->
<g id="edge27" class="edge">
<title>DBdropErrorValuesAllColumnsValues&#45;&gt;DBinterpolateColumn</title>
<path fill="none" stroke="black" d="M1828,-576.39C1828,-568.68 1828,-559.41 1828,-550.81"/>
<polygon fill="black" stroke="black" points="1831.5,-550.8 1828,-540.8 1824.5,-550.8 1831.5,-550.8"/>
</g>
<!-- tableDiscreteBar -->
<g id="node32" class="node">
<title>tableDiscreteBar</title>
<ellipse fill="none" stroke="black" cx="1828" cy="-450.69" rx="89.88" ry="18"/>
<text text-anchor="middle" x="1828" y="-446.99" font-family="Times,serif" font-size="14.00">tableDiscreteBar</text>
</g>
<!-- DBinterpolateColumn&#45;&gt;tableDiscreteBar -->
<g id="edge28" class="edge">
<title>DBinterpolateColumn&#45;&gt;tableDiscreteBar</title>
<path fill="none" stroke="black" d="M1828,-504.39C1828,-496.68 1828,-487.41 1828,-478.81"/>
<polygon fill="black" stroke="black" points="1831.5,-478.8 1828,-468.8 1824.5,-478.8 1831.5,-478.8"/>
</g>
<!-- transformDiscreteBar -->
<g id="node31" class="node">
<title>transformDiscreteBar</title>
<ellipse fill="none" stroke="black" cx="1828" cy="-882.69" rx="112.38" ry="18"/>
<text text-anchor="middle" x="1828" y="-878.99" font-family="Times,serif" font-size="14.00">transformDiscreteBar</text>
</g>
<!-- transformDiscreteBar&#45;&gt;DBfilterByEntityNames -->
<g id="edge23" class="edge">
<title>transformDiscreteBar&#45;&gt;DBfilterByEntityNames</title>
<path fill="none" stroke="black" d="M1828,-864.39C1828,-856.68 1828,-847.41 1828,-838.81"/>
<polygon fill="black" stroke="black" points="1831.5,-838.8 1828,-828.8 1824.5,-838.8 1831.5,-838.8"/>
</g>
<!-- SDfilterByEntityNames -->
<g id="node33" class="node">
<title>SDfilterByEntityNames</title>
<ellipse fill="none" stroke="black" cx="2287" cy="-810.69" rx="200.36" ry="18"/>
<text text-anchor="middle" x="2287" y="-806.99" font-family="Times,serif" font-size="14.00">filterByEntityNames on selected entities</text>
</g>
<!-- SDreplaceNonNumericCellsWithErrorValues -->
<g id="node34" class="node">
<title>SDreplaceNonNumericCellsWithErrorValues</title>
<ellipse fill="none" stroke="black" cx="2287" cy="-738.69" rx="209.86" ry="18"/>
<text text-anchor="middle" x="2287" y="-734.99" font-family="Times,serif" font-size="14.00">replace nonnumeric cells with error values</text>
</g>
<!-- SDfilterByEntityNames&#45;&gt;SDreplaceNonNumericCellsWithErrorValues -->
<g id="edge30" class="edge">
<title>SDfilterByEntityNames&#45;&gt;SDreplaceNonNumericCellsWithErrorValues</title>
<path fill="none" stroke="black" d="M2287,-792.39C2287,-784.68 2287,-775.41 2287,-766.81"/>
<polygon fill="black" stroke="black" points="2290.5,-766.8 2287,-756.8 2283.5,-766.8 2290.5,-766.8"/>
</g>
<!-- SDdropErrorValuesAllColumnsValues -->
<g id="node35" class="node">
<title>SDdropErrorValuesAllColumnsValues</title>
<ellipse fill="none" stroke="black" cx="2287" cy="-666.69" rx="183.07" ry="18"/>
<text text-anchor="middle" x="2287" y="-662.99" font-family="Times,serif" font-size="14.00">drop error values if all columns error</text>
</g>
<!-- SDreplaceNonNumericCellsWithErrorValues&#45;&gt;SDdropErrorValuesAllColumnsValues -->
<g id="edge31" class="edge">
<title>SDreplaceNonNumericCellsWithErrorValues&#45;&gt;SDdropErrorValuesAllColumnsValues</title>
<path fill="none" stroke="black" d="M2287,-720.39C2287,-712.68 2287,-703.41 2287,-694.81"/>
<polygon fill="black" stroke="black" points="2290.5,-694.8 2287,-684.8 2283.5,-694.8 2290.5,-694.8"/>
</g>
<!-- SDinterpolateColumn -->
<g id="node36" class="node">
<title>SDinterpolateColumn</title>
<ellipse fill="none" stroke="black" cx="2287" cy="-594.69" rx="224.76" ry="18"/>
<text text-anchor="middle" x="2287" y="-590.99" font-family="Times,serif" font-size="14.00">interpolate Y columns linearly unless disabled</text>
</g>
<!-- SDdropErrorValuesAllColumnsValues&#45;&gt;SDinterpolateColumn -->
<g id="edge32" class="edge">
<title>SDdropErrorValuesAllColumnsValues&#45;&gt;SDinterpolateColumn</title>
<path fill="none" stroke="black" d="M2287,-648.39C2287,-640.68 2287,-631.41 2287,-622.81"/>
<polygon fill="black" stroke="black" points="2290.5,-622.8 2287,-612.8 2283.5,-622.8 2290.5,-622.8"/>
</g>
<!-- SDdropErrorValuesAnyColumnError -->
<g id="node37" class="node">
<title>SDdropErrorValuesAnyColumnError</title>
<ellipse fill="none" stroke="black" cx="2287" cy="-522.69" rx="207.96" ry="18"/>
<text text-anchor="middle" x="2287" y="-518.99" font-family="Times,serif" font-size="14.00">drop error values if any column has errors</text>
</g>
<!-- SDinterpolateColumn&#45;&gt;SDdropErrorValuesAnyColumnError -->
<g id="edge33" class="edge">
<title>SDinterpolateColumn&#45;&gt;SDdropErrorValuesAnyColumnError</title>
<path fill="none" stroke="black" d="M2287,-576.39C2287,-568.68 2287,-559.41 2287,-550.81"/>
<polygon fill="black" stroke="black" points="2290.5,-550.8 2287,-540.8 2283.5,-550.8 2290.5,-550.8"/>
</g>
<!-- SDconvertToPercentages -->
<g id="node38" class="node">
<title>SDconvertToPercentages</title>
<ellipse fill="none" stroke="black" cx="2287" cy="-450.69" rx="204.16" ry="18"/>
<text text-anchor="middle" x="2287" y="-446.99" font-family="Times,serif" font-size="14.00">convert Y series to percentages if desired</text>
</g>
<!-- SDdropErrorValuesAnyColumnError&#45;&gt;SDconvertToPercentages -->
<g id="edge34" class="edge">
<title>SDdropErrorValuesAnyColumnError&#45;&gt;SDconvertToPercentages</title>
<path fill="none" stroke="black" d="M2287,-504.39C2287,-496.68 2287,-487.41 2287,-478.81"/>
<polygon fill="black" stroke="black" points="2290.5,-478.8 2287,-468.8 2283.5,-478.8 2290.5,-478.8"/>
</g>
<!-- tableStackedDiscreteBar -->
<g id="node40" class="node">
<title>tableStackedDiscreteBar</title>
<ellipse fill="none" stroke="black" cx="2287" cy="-378.69" rx="126.98" ry="18"/>
<text text-anchor="middle" x="2287" y="-374.99" font-family="Times,serif" font-size="14.00">tableStackedDiscreteBar</text>
</g>
<!-- SDconvertToPercentages&#45;&gt;tableStackedDiscreteBar -->
<g id="edge35" class="edge">
<title>SDconvertToPercentages&#45;&gt;tableStackedDiscreteBar</title>
<path fill="none" stroke="black" d="M2287,-432.39C2287,-424.68 2287,-415.41 2287,-406.81"/>
<polygon fill="black" stroke="black" points="2290.5,-406.8 2287,-396.8 2283.5,-406.8 2290.5,-406.8"/>
</g>
<!-- transformStackedDiscreteBar -->
<g id="node39" class="node">
<title>transformStackedDiscreteBar</title>
<ellipse fill="none" stroke="black" cx="2287" cy="-882.69" rx="149.47" ry="18"/>
<text text-anchor="middle" x="2287" y="-878.99" font-family="Times,serif" font-size="14.00">transformStackedDiscreteBar</text>
</g>
<!-- transformStackedDiscreteBar&#45;&gt;SDfilterByEntityNames -->
<g id="edge29" class="edge">
<title>transformStackedDiscreteBar&#45;&gt;SDfilterByEntityNames</title>
<path fill="none" stroke="black" d="M2287,-864.39C2287,-856.68 2287,-847.41 2287,-838.81"/>
<polygon fill="black" stroke="black" points="2290.5,-838.8 2287,-828.8 2283.5,-838.8 2290.5,-838.8"/>
</g>
<!-- SreplaceNonNumericCellsWithErrorValues -->
<g id="node41" class="node">
<title>SreplaceNonNumericCellsWithErrorValues</title>
<ellipse fill="none" stroke="black" cx="2746" cy="-810.69" rx="209.86" ry="18"/>
<text text-anchor="middle" x="2746" y="-806.99" font-family="Times,serif" font-size="14.00">replace nonnumeric cells with error values</text>
</g>
<!-- SdropErrorValuesAllColumnsValues -->
<g id="node42" class="node">
<title>SdropErrorValuesAllColumnsValues</title>
<ellipse fill="none" stroke="black" cx="2746" cy="-738.69" rx="176.27" ry="18"/>
<text text-anchor="middle" x="2746" y="-734.99" font-family="Times,serif" font-size="14.00">drop error values for column errors</text>
</g>
<!-- SreplaceNonNumericCellsWithErrorValues&#45;&gt;SdropErrorValuesAllColumnsValues -->
<g id="edge37" class="edge">
<title>SreplaceNonNumericCellsWithErrorValues&#45;&gt;SdropErrorValuesAllColumnsValues</title>
<path fill="none" stroke="black" d="M2746,-792.39C2746,-784.68 2746,-775.41 2746,-766.81"/>
<polygon fill="black" stroke="black" points="2749.5,-766.8 2746,-756.8 2742.5,-766.8 2749.5,-766.8"/>
</g>
<!-- SinterpolateColumn -->
<g id="node43" class="node">
<title>SinterpolateColumn</title>
<ellipse fill="none" stroke="black" cx="2746" cy="-666.69" rx="145.67" ry="18"/>
<text text-anchor="middle" x="2746" y="-662.99" font-family="Times,serif" font-size="14.00">interpolate Y column linearly</text>
</g>
<!-- SdropErrorValuesAllColumnsValues&#45;&gt;SinterpolateColumn -->
<g id="edge38" class="edge">
<title>SdropErrorValuesAllColumnsValues&#45;&gt;SinterpolateColumn</title>
<path fill="none" stroke="black" d="M2746,-720.39C2746,-712.68 2746,-703.41 2746,-694.81"/>
<polygon fill="black" stroke="black" points="2749.5,-694.8 2746,-684.8 2742.5,-694.8 2749.5,-694.8"/>
</g>
<!-- slopeTable -->
<g id="node45" class="node">
<title>slopeTable</title>
<ellipse fill="none" stroke="black" cx="2746" cy="-594.69" rx="59.59" ry="18"/>
<text text-anchor="middle" x="2746" y="-590.99" font-family="Times,serif" font-size="14.00">slopeTable</text>
</g>
<!-- SinterpolateColumn&#45;&gt;slopeTable -->
<g id="edge39" class="edge">
<title>SinterpolateColumn&#45;&gt;slopeTable</title>
<path fill="none" stroke="black" d="M2746,-648.39C2746,-640.68 2746,-631.41 2746,-622.81"/>
<polygon fill="black" stroke="black" points="2749.5,-622.8 2746,-612.8 2742.5,-622.8 2749.5,-622.8"/>
</g>
<!-- transformSlope -->
<g id="node44" class="node">
<title>transformSlope</title>
<ellipse fill="none" stroke="black" cx="2746" cy="-882.69" rx="83.39" ry="18"/>
<text text-anchor="middle" x="2746" y="-878.99" font-family="Times,serif" font-size="14.00">transformSlope</text>
</g>
<!-- transformSlope&#45;&gt;SreplaceNonNumericCellsWithErrorValues -->
<g id="edge36" class="edge">
<title>transformSlope&#45;&gt;SreplaceNonNumericCellsWithErrorValues</title>
<path fill="none" stroke="black" d="M2746,-864.39C2746,-856.68 2746,-847.41 2746,-838.81"/>
<polygon fill="black" stroke="black" points="2749.5,-838.8 2746,-828.8 2742.5,-838.8 2749.5,-838.8"/>
</g>
<!-- WMdropNonMapEntities -->
<g id="node46" class="node">
<title>WMdropNonMapEntities</title>
<ellipse fill="none" stroke="black" cx="3156" cy="-810.69" rx="114.28" ry="18"/>
<text text-anchor="middle" x="3156" y="-806.99" font-family="Times,serif" font-size="14.00">Drop non&#45;map entities</text>
</g>
<!-- WMdropErrorValuesAllColumnsValues -->
<g id="node47" class="node">
<title>WMdropErrorValuesAllColumnsValues</title>
<ellipse fill="none" stroke="black" cx="3156" cy="-738.69" rx="176.27" ry="18"/>
<text text-anchor="middle" x="3156" y="-734.99" font-family="Times,serif" font-size="14.00">drop error values for column errors</text>
</g>
<!-- WMdropNonMapEntities&#45;&gt;WMdropErrorValuesAllColumnsValues -->
<g id="edge41" class="edge">
<title>WMdropNonMapEntities&#45;&gt;WMdropErrorValuesAllColumnsValues</title>
<path fill="none" stroke="black" d="M3156,-792.39C3156,-784.68 3156,-775.41 3156,-766.81"/>
<polygon fill="black" stroke="black" points="3159.5,-766.8 3156,-756.8 3152.5,-766.8 3159.5,-766.8"/>
</g>
<!-- WMinterpolateColumn -->
<g id="node48" class="node">
<title>WMinterpolateColumn</title>
<ellipse fill="none" stroke="black" cx="3156" cy="-666.69" rx="145.67" ry="18"/>
<text text-anchor="middle" x="3156" y="-662.99" font-family="Times,serif" font-size="14.00">interpolate Y column linearly</text>
</g>
<!-- WMdropErrorValuesAllColumnsValues&#45;&gt;WMinterpolateColumn -->
<g id="edge42" class="edge">
<title>WMdropErrorValuesAllColumnsValues&#45;&gt;WMinterpolateColumn</title>
<path fill="none" stroke="black" d="M3156,-720.39C3156,-712.68 3156,-703.41 3156,-694.81"/>
<polygon fill="black" stroke="black" points="3159.5,-694.8 3156,-684.8 3152.5,-694.8 3159.5,-694.8"/>
</g>
<!-- tableWorldMap -->
<g id="node50" class="node">
<title>tableWorldMap</title>
<ellipse fill="none" stroke="black" cx="3156" cy="-594.69" rx="81.79" ry="18"/>
<text text-anchor="middle" x="3156" y="-590.99" font-family="Times,serif" font-size="14.00">tableWorldMap</text>
</g>
<!-- WMinterpolateColumn&#45;&gt;tableWorldMap -->
<g id="edge43" class="edge">
<title>WMinterpolateColumn&#45;&gt;tableWorldMap</title>
<path fill="none" stroke="black" d="M3156,-648.39C3156,-640.68 3156,-631.41 3156,-622.81"/>
<polygon fill="black" stroke="black" points="3159.5,-622.8 3156,-612.8 3152.5,-622.8 3159.5,-622.8"/>
</g>
<!-- transformWorldMap -->
<g id="node49" class="node">
<title>transformWorldMap</title>
<ellipse fill="none" stroke="black" cx="3156" cy="-882.69" rx="104.78" ry="18"/>
<text text-anchor="middle" x="3156" y="-878.99" font-family="Times,serif" font-size="14.00">transformWorldMap</text>
</g>
<!-- transformWorldMap&#45;&gt;WMdropNonMapEntities -->
<g id="edge40" class="edge">
<title>transformWorldMap&#45;&gt;WMdropNonMapEntities</title>
<path fill="none" stroke="black" d="M3156,-864.39C3156,-856.68 3156,-847.41 3156,-838.81"/>
<polygon fill="black" stroke="black" points="3159.5,-838.8 3156,-828.8 3152.5,-838.8 3159.5,-838.8"/>
</g>
<!-- MexcludeEntities -->
<g id="node51" class="node">
<title>MexcludeEntities</title>
<ellipse fill="none" stroke="black" cx="3566" cy="-810.69" rx="128.88" ry="18"/>
<text text-anchor="middle" x="3566" y="-806.99" font-family="Times,serif" font-size="14.00">exclude excluded entities</text>
</g>
<!-- MreplaceNonNumericCellsWithErrorValues -->
<g id="node52" class="node">
<title>MreplaceNonNumericCellsWithErrorValues</title>
<ellipse fill="none" stroke="black" cx="3566" cy="-738.69" rx="209.86" ry="18"/>
<text text-anchor="middle" x="3566" y="-734.99" font-family="Times,serif" font-size="14.00">replace nonnumeric cells with error values</text>
</g>
<!-- MexcludeEntities&#45;&gt;MreplaceNonNumericCellsWithErrorValues -->
<g id="edge45" class="edge">
<title>MexcludeEntities&#45;&gt;MreplaceNonNumericCellsWithErrorValues</title>
<path fill="none" stroke="black" d="M3566,-792.39C3566,-784.68 3566,-775.41 3566,-766.81"/>
<polygon fill="black" stroke="black" points="3569.5,-766.8 3566,-756.8 3562.5,-766.8 3569.5,-766.8"/>
</g>
<!-- MinterpolateYColumns -->
<g id="node53" class="node">
<title>MinterpolateYColumns</title>
<ellipse fill="none" stroke="black" cx="3566" cy="-666.69" rx="112.38" ry="18"/>
<text text-anchor="middle" x="3566" y="-662.99" font-family="Times,serif" font-size="14.00">interpolate Y columns</text>
</g>
<!-- MreplaceNonNumericCellsWithErrorValues&#45;&gt;MinterpolateYColumns -->
<g id="edge46" class="edge">
<title>MreplaceNonNumericCellsWithErrorValues&#45;&gt;MinterpolateYColumns</title>
<path fill="none" stroke="black" d="M3566,-720.39C3566,-712.68 3566,-703.41 3566,-694.81"/>
<polygon fill="black" stroke="black" points="3569.5,-694.8 3566,-684.8 3562.5,-694.8 3569.5,-694.8"/>
</g>
<!-- MinterpolateXColumn -->
<g id="node54" class="node">
<title>MinterpolateXColumn</title>
<ellipse fill="none" stroke="black" cx="3566" cy="-594.69" rx="107.78" ry="18"/>
<text text-anchor="middle" x="3566" y="-590.99" font-family="Times,serif" font-size="14.00">interpolate X column</text>
</g>
<!-- MinterpolateYColumns&#45;&gt;MinterpolateXColumn -->
<g id="edge47" class="edge">
<title>MinterpolateYColumns&#45;&gt;MinterpolateXColumn</title>
<path fill="none" stroke="black" d="M3566,-648.39C3566,-640.68 3566,-631.41 3566,-622.81"/>
<polygon fill="black" stroke="black" points="3569.5,-622.8 3566,-612.8 3562.5,-622.8 3569.5,-622.8"/>
</g>
<!-- MdropErrorValuesAnyColumnError -->
<g id="node55" class="node">
<title>MdropErrorValuesAnyColumnError</title>
<ellipse fill="none" stroke="black" cx="3566" cy="-522.69" rx="207.96" ry="18"/>
<text text-anchor="middle" x="3566" y="-518.99" font-family="Times,serif" font-size="14.00">drop error values if any column has errors</text>
</g>
<!-- MinterpolateXColumn&#45;&gt;MdropErrorValuesAnyColumnError -->
<g id="edge48" class="edge">
<title>MinterpolateXColumn&#45;&gt;MdropErrorValuesAnyColumnError</title>
<path fill="none" stroke="black" d="M3566,-576.39C3566,-568.68 3566,-559.41 3566,-550.81"/>
<polygon fill="black" stroke="black" points="3569.5,-550.8 3566,-540.8 3562.5,-550.8 3569.5,-550.8"/>
</g>
<!-- MconvertToPercentages -->
<g id="node56" class="node">
<title>MconvertToPercentages</title>
<ellipse fill="none" stroke="black" cx="3566" cy="-450.69" rx="204.16" ry="18"/>
<text text-anchor="middle" x="3566" y="-446.99" font-family="Times,serif" font-size="14.00">convert Y series to percentages if desired</text>
</g>
<!-- MdropErrorValuesAnyColumnError&#45;&gt;MconvertToPercentages -->
<g id="edge49" class="edge">
<title>MdropErrorValuesAnyColumnError&#45;&gt;MconvertToPercentages</title>
<path fill="none" stroke="black" d="M3566,-504.39C3566,-496.68 3566,-487.41 3566,-478.81"/>
<polygon fill="black" stroke="black" points="3569.5,-478.8 3566,-468.8 3562.5,-478.8 3569.5,-478.8"/>
</g>
<!-- MinterplateColorColumn -->
<g id="node57" class="node">
<title>MinterplateColorColumn</title>
<ellipse fill="none" stroke="black" cx="3566" cy="-378.69" rx="124.28" ry="18"/>
<text text-anchor="middle" x="3566" y="-374.99" font-family="Times,serif" font-size="14.00">interpolate color column</text>
</g>
<!-- MconvertToPercentages&#45;&gt;MinterplateColorColumn -->
<g id="edge50" class="edge">
<title>MconvertToPercentages&#45;&gt;MinterplateColorColumn</title>
<path fill="none" stroke="black" d="M3566,-432.39C3566,-424.68 3566,-415.41 3566,-406.81"/>
<polygon fill="black" stroke="black" points="3569.5,-406.8 3566,-396.8 3562.5,-406.8 3569.5,-406.8"/>
</g>
<!-- MdropNonColoredEntities -->
<g id="node58" class="node">
<title>MdropNonColoredEntities</title>
<ellipse fill="none" stroke="black" cx="3566" cy="-297.82" rx="187.67" ry="18"/>
<text text-anchor="middle" x="3566" y="-294.12" font-family="Times,serif" font-size="14.00">drop entities without color if specified</text>
</g>
<!-- MinterplateColorColumn&#45;&gt;MdropNonColoredEntities -->
<g id="edge51" class="edge">
<title>MinterplateColorColumn&#45;&gt;MdropNonColoredEntities</title>
<path fill="none" stroke="black" d="M3566,-360.58C3566,-350.55 3566,-337.66 3566,-326.25"/>
<polygon fill="black" stroke="black" points="3569.5,-325.9 3566,-315.9 3562.5,-325.9 3569.5,-325.9"/>
</g>
<!-- tableMarimekko -->
<g id="node60" class="node">
<title>tableMarimekko</title>
<ellipse fill="none" stroke="black" cx="3566" cy="-197.48" rx="86.38" ry="18"/>
<text text-anchor="middle" x="3566" y="-193.78" font-family="Times,serif" font-size="14.00">tableMarimekko</text>
</g>
<!-- MdropNonColoredEntities&#45;&gt;tableMarimekko -->
<g id="edge52" class="edge">
<title>MdropNonColoredEntities&#45;&gt;tableMarimekko</title>
<path fill="none" stroke="black" d="M3566,-279.69C3566,-264.84 3566,-243.07 3566,-225.8"/>
<polygon fill="black" stroke="black" points="3569.5,-225.74 3566,-215.74 3562.5,-225.74 3569.5,-225.74"/>
</g>
<!-- transformMarimekko -->
<g id="node59" class="node">
<title>transformMarimekko</title>
<ellipse fill="none" stroke="black" cx="3566" cy="-882.69" rx="109.38" ry="18"/>
<text text-anchor="middle" x="3566" y="-878.99" font-family="Times,serif" font-size="14.00">transformMarimekko</text>
</g>
<!-- transformMarimekko&#45;&gt;MexcludeEntities -->
<g id="edge44" class="edge">
<title>transformMarimekko&#45;&gt;MexcludeEntities</title>
<path fill="none" stroke="black" d="M3566,-864.39C3566,-856.68 3566,-847.41 3566,-838.81"/>
<polygon fill="black" stroke="black" points="3569.5,-838.8 3566,-828.8 3562.5,-838.8 3569.5,-838.8"/>
</g>
</g>
</svg>
