<?xml version="1.0" encoding="UTF-8" standalone="no"?>
<!DOCTYPE svg PUBLIC "-//W3C//DTD SVG 1.1//EN" "http://www.w3.org/Graphics/SVG/1.1/DTD/svg11.dtd">
<svg width="100%" height="100%" viewBox="0 0 640 480" version="1.1" xmlns="http://www.w3.org/2000/svg" xmlns:xlink="http://www.w3.org/1999/xlink" xml:space="preserve" xmlns:serif="http://www.serif.com/" style="fill-rule:evenodd;clip-rule:evenodd;stroke-linejoin:round;stroke-miterlimit:2;">
    <g>
        <rect x="0" y="0" width="640" height="480" style="fill:rgb(228,0,43);"/>
        <path d="M0,480L640,479.7L640,240L0,480Z" style="fill:rgb(65,143,222);"/>
        <path d="M0,0L640,0.3L640,240L0,0Z" style="fill:rgb(67,176,42);"/>
        <path d="M186.2,360.4C175.5,363.4 169.4,371.7 169.5,379.5L222.3,379.3C222.7,370.9 215.8,363.1 205.3,360C256.9,359 301.7,339.6 309.9,327.2C301.9,323.7 292.5,329.3 285.9,328C301.6,320.7 348.9,290.1 341.2,257.3C335.2,275.5 317.2,290.6 309.4,294.7C327.1,267.9 351.2,239.9 330.3,218.3C331.3,230.8 322.3,244.6 318.3,245.7C328.6,217.3 338.3,181.7 316.2,158.3C319.1,166.8 317.9,190.7 313.9,191.8C312.7,172.5 309.4,132 289.1,132.5C295.5,138.3 298.3,153.9 298.5,169.7C294.375,158.766 287.013,149.346 277.4,142.7C267.366,125.345 253.084,110.822 235.9,100.5C237.7,113.2 239.2,123.2 256.9,136.4C247.7,135.8 238.5,118.3 228.6,117.8C220.7,117.4 214.6,124.9 201.7,120.6C203.1,124.8 209.1,126.7 210.4,129.8C207.6,131.8 201.1,129.5 195.7,126.8C203.2,136.8 214.7,142.8 224.5,140.8C236.2,138.6 248.7,139.8 260.7,146.6C253.297,148.149 245.675,148.352 238.2,147.2C245.1,154.2 249.7,158.9 261.8,158.8C272.5,158.8 278.2,153 280.9,156.6C287.7,164.6 292.2,172.6 297.9,182C285.4,183.3 289.2,167.9 275.3,160C267.4,176 284.3,195.2 295.6,203.2C295.279,214.129 297.722,224.965 302.7,234.7C306.2,241.2 310.7,247.9 309,262.6C302.1,257.6 295.5,240.8 298,227.5C289.4,229.8 286,244.9 290,252.5C293,258.2 295,269.3 291.6,274.2C288.2,278.8 287.9,278.2 287.9,288.2C288,294 284.7,301 279.4,305.9C280.952,300.784 281.328,295.382 280.5,290.1C276.3,297.3 265.6,304.7 262.3,312.5C259,320.2 258.2,333.7 242.3,336.8C221.7,340.8 214.6,344.4 201.5,349.8C200,339.8 204.4,318.8 212.8,320.1C220.9,321.5 245.8,311.5 236.8,290.6C235.1,297.2 229.3,303.6 222.9,303.9C229.8,295.1 241.9,285.9 236,271.1C232.428,278.553 226.764,284.809 219.7,289.1C228.1,273.1 220.7,268.1 210.7,281.5C206.9,286.6 204.6,296.9 202.2,310C198.2,299.4 198.5,285.4 193.8,274C189,261.7 200.3,258.5 205.6,259.5C218.6,263 240.5,263 238.9,241.4C233.2,248.7 223.4,250.9 212.7,248.4C224.7,239.6 234.1,223.1 220.7,214.4C219.484,224.756 213.122,233.829 203.8,238.5C201.653,230.386 201.55,221.864 203.5,213.7C198.3,219.3 194.5,230.7 191.4,243.9C191.1,230.9 193.6,221.6 195.4,214.6C198.2,204.5 205,211.1 215.4,211.8C225.6,212.4 239.4,206.8 236.8,193.1C233.4,198.6 226.3,200.7 219.1,200.1C227.8,194.8 242.9,185.5 234.6,171.1C231.1,176.5 230,181.1 219.9,182.8C222.5,176.8 222.9,168.1 230.9,164.8C216.9,161.9 208.9,171.1 204.7,185.5C203.1,175.5 201.1,171.9 200.7,164.5C208.3,156.2 209.1,139.7 192.7,136.1C191.625,141.908 192.038,147.895 193.9,153.5C186.2,148.9 175.4,146.4 168.1,152.8C173.1,158.1 180.6,162.8 192.3,157C189.5,166 182.3,164.5 172.5,161C178.5,172.3 186.1,174.3 194.5,173C198.9,184.6 199.1,193.4 186.2,210.2C186.8,199.8 186.1,192 177.8,183.5C170.6,176.5 164.8,183.8 176,199.3C169.2,194.3 161.6,184.3 159.3,174.2C157.1,186.6 159.1,201.3 166,209.6C162.7,213.1 159,209.2 153.5,200.6C155.5,228 167.2,233.3 182.9,227.2C183.3,242.2 183.3,256.1 184.2,274.2C175.1,261 163.5,251.2 157.1,248.8C155.1,256.1 162.6,265.8 166.9,271.1C160.4,269.7 146.4,259.1 146.4,259.1C145,271.2 160.7,282.5 170.9,287.5C158.9,287 153.6,282.5 145.9,275.1C146.1,308.9 182.5,303 189.4,297.8L192.4,350.3C182.1,348.5 182.9,345.3 174.1,344.6C149.6,343.6 130.2,315.2 123.8,294.3C121.9,297.7 123.4,301.3 121.7,305.6C117.7,295.3 112.7,282 105.8,275.8C107.6,281.8 107.8,287.9 107.2,299.1C104.8,291.9 102.7,289.6 102.5,281.1C102.6,274.6 108.8,269.8 108.5,260.6C108.2,253.9 102.1,239.3 101.2,228.1C98.2,239.7 96.4,251.9 91.8,259.1C94.1,246.7 93.4,238.1 97.2,229.8C101.6,221.1 105.3,213.2 102.4,204.4C99.6,207.8 100.5,210.9 93.4,219.2C91.9,210.2 102.6,195.7 113,189.9C120.3,186.1 129.5,172.3 123.5,162.9C116.6,167.9 113.5,174.5 103.8,185.9C110.8,158.9 128.8,151.7 150.3,151.6C155,151.6 164.6,149.9 167.3,143.6C161.3,145.9 154.1,146.2 147.7,145C152.4,138.1 162.1,139 171.3,139C178.4,139 189.6,138 194.1,127.8C184.22,131.653 173.377,132.318 163.1,129.7C176.8,122.7 198.1,121.9 209.1,112.6C196.6,103.3 165.4,114.8 145.7,128.3C151.2,123.3 159.9,114.3 164.7,107.1C153.9,101.9 126.7,132.1 117.3,150.1C108.3,155.1 104.8,163.1 101.3,168.6C106,152.5 106.5,140.8 110.5,127.6C80,138 92.6,194.6 86,208.2C86.8,193.2 86.1,174.1 80,164.2C70.6,171.4 69.8,213.7 78.6,248.9C75.4,239.5 69.4,230.7 67.5,219.2C53.5,244.6 75.7,274.7 94.2,298.4C80.2,291.1 66.5,275.5 57.4,262.4C59.9,308 107.4,317.4 114.8,328.6C104.8,323.9 85.7,314.7 77.5,324.4C88.892,326.512 99.824,330.608 109.8,336.5C122.2,351.9 145.5,358.7 186.2,360.4" style="fill:rgb(255,199,44);"/>
    </g>
</svg>
