<?xml version="1.0" encoding="UTF-8" standalone="no"?>
<!DOCTYPE svg PUBLIC "-//W3C//DTD SVG 1.1//EN" "http://www.w3.org/Graphics/SVG/1.1/DTD/svg11.dtd">
<svg width="100%" height="100%" viewBox="0 0 640 480" version="1.1" xmlns="http://www.w3.org/2000/svg" xmlns:xlink="http://www.w3.org/1999/xlink" xml:space="preserve" xmlns:serif="http://www.serif.com/" style="fill-rule:evenodd;clip-rule:evenodd;stroke-linejoin:round;stroke-miterlimit:2;">
    <g transform="matrix(0.9375,0,0,0.9375,79.6,0)">
        <rect x="-128" y="0" width="768.8" height="512" style="fill:rgb(255,0,0);"/>
        <g transform="matrix(1.06667,0,0,1.06667,-276.907,-64)">
            <path d="M526.465,180.758L529.912,114.336C529.93,114.04 529.717,113.769 529.413,113.722C529.103,113.672 528.813,113.874 528.745,114.175L511.713,178.195C511.661,178.409 511.619,178.616 511.587,178.823C510.943,182.918 513.741,186.758 517.835,187.402C521.929,188.045 525.77,185.248 526.413,181.153C526.435,181.02 526.452,180.886 526.465,180.758ZM544.801,186.363L558.661,121.311C558.726,121.019 558.559,120.719 558.266,120.624C557.968,120.528 557.649,120.681 557.535,120.967L530.637,181.507C530.551,181.712 530.478,181.908 530.412,182.109C529.133,186.05 531.291,190.284 535.232,191.564C539.174,192.844 543.408,190.686 544.687,186.744C544.729,186.615 544.767,186.486 544.801,186.363ZM562.025,194.785L585.953,132.727C586.063,132.45 585.945,132.127 585.671,131.986C585.391,131.844 585.053,131.945 584.895,132.21L548.802,187.761C548.685,187.949 548.582,188.132 548.486,188.32C546.602,192.011 548.066,196.53 551.757,198.415C555.449,200.301 559.969,198.836 561.854,195.144C561.915,195.024 561.973,194.902 562.025,194.785ZM577.712,205.797L611.053,148.247C611.205,147.99 611.139,147.651 610.89,147.471C610.637,147.286 610.287,147.333 610.088,147.571L565.749,196.79C565.604,196.958 565.474,197.123 565.351,197.293C562.911,200.644 563.651,205.338 567.002,207.777C570.353,210.215 575.047,209.475 577.486,206.125C577.565,206.014 577.642,205.904 577.712,205.797ZM591.486,219.112L633.379,167.453C633.57,167.222 633.557,166.879 633.338,166.661C633.117,166.438 632.763,166.43 632.532,166.634L581.072,208.353C580.903,208.496 580.749,208.638 580.6,208.787C577.669,211.718 577.669,216.47 580.6,219.399C583.53,222.331 588.282,222.331 591.212,219.399C591.308,219.303 591.401,219.206 591.486,219.112ZM603.023,234.406L652.445,189.897C652.669,189.699 652.709,189.359 652.529,189.11C652.344,188.856 651.996,188.792 651.736,188.957L594.409,222.159C594.219,222.274 594.045,222.39 593.875,222.514C590.524,224.952 589.784,229.647 592.223,232.998C594.662,236.348 599.356,237.089 602.707,234.65C602.816,234.569 602.923,234.488 603.023,234.406ZM612.03,251.324L667.806,215.094C668.059,214.933 668.153,214.602 668.013,214.329C667.87,214.049 667.536,213.932 667.252,214.056L605.439,237.88C605.234,237.963 605.043,238.05 604.855,238.146C601.164,240.03 599.699,244.551 601.584,248.243C603.469,251.934 607.989,253.398 611.679,251.513C611.8,251.452 611.919,251.387 612.03,251.324ZM618.266,269.454L679.051,242.457C679.324,242.338 679.47,242.026 679.374,241.734C679.277,241.436 678.967,241.268 678.667,241.343L613.873,255.139C613.658,255.191 613.456,255.246 613.255,255.312C609.314,256.592 607.155,260.825 608.436,264.768C609.715,268.709 613.949,270.867 617.89,269.587C618.02,269.546 618.146,269.501 618.266,269.454ZM621.568,288.34L685.845,271.249C686.134,271.175 686.326,270.891 686.278,270.587C686.23,270.277 685.948,270.062 685.641,270.088L619.484,273.513C619.262,273.53 619.055,273.554 618.846,273.586C614.752,274.23 611.954,278.071 612.598,282.165C613.241,286.259 617.081,289.057 621.176,288.413C621.31,288.392 621.442,288.367 621.568,288.34ZM621.888,307.493L688.038,300.587C688.336,300.56 688.57,300.308 688.57,300.001C688.57,299.686 688.326,299.43 688.018,299.411L622.131,292.523C621.91,292.504 621.7,292.495 621.489,292.495C617.345,292.495 613.985,295.856 613.985,300.001C613.985,304.144 617.345,307.504 621.489,307.504C621.625,307.504 621.759,307.5 621.888,307.493ZM619.242,326.466L685.662,329.911C685.96,329.93 686.23,329.717 686.278,329.413C686.327,329.104 686.126,328.813 685.824,328.744L621.806,311.712C621.59,311.661 621.384,311.619 621.176,311.586C617.081,310.943 613.241,313.741 612.598,317.836C611.954,321.93 614.752,325.77 618.846,326.414C618.98,326.435 619.113,326.453 619.242,326.466ZM613.637,344.801L678.688,358.661C678.98,358.726 679.279,358.558 679.374,358.265C679.472,357.967 679.318,357.649 679.032,357.535L618.492,330.636C618.287,330.552 618.091,330.478 617.89,330.412C613.949,329.133 609.715,331.29 608.436,335.233C607.155,339.174 609.314,343.407 613.255,344.688C613.385,344.729 613.514,344.767 613.637,344.801ZM605.215,362.025L667.272,385.952C667.55,386.063 667.873,385.944 668.013,385.671C668.156,385.39 668.055,385.052 667.789,384.894L612.239,348.801C612.05,348.684 611.868,348.581 611.679,348.486C607.989,346.602 603.469,348.066 601.584,351.757C599.699,355.449 601.164,359.968 604.855,361.853C604.976,361.915 605.098,361.972 605.215,362.025ZM594.203,377.711L651.753,411.053C652.01,411.205 652.348,411.139 652.529,410.89C652.713,410.638 652.667,410.287 652.429,410.089L603.209,365.75C603.042,365.605 602.877,365.474 602.707,365.35C599.356,362.911 594.662,363.651 592.224,367.002C589.784,370.353 590.525,375.048 593.875,377.486C593.984,377.565 594.095,377.641 594.203,377.711ZM580.888,391.486L632.548,433.379C632.778,433.569 633.122,433.556 633.338,433.338C633.561,433.118 633.569,432.763 633.365,432.532L591.647,381.071C591.503,380.902 591.362,380.748 591.212,380.6C588.282,377.669 583.53,377.669 580.6,380.6C577.669,383.53 577.669,388.281 580.6,391.212C580.695,391.308 580.793,391.399 580.888,391.486ZM565.593,403.023L610.103,452.444C610.3,452.669 610.642,452.709 610.89,452.529C611.144,452.344 611.207,451.996 611.042,451.736L577.84,394.408C577.726,394.22 577.61,394.045 577.486,393.876C575.047,390.524 570.353,389.785 567.002,392.223C563.651,394.662 562.911,399.355 565.351,402.707C565.431,402.817 565.512,402.923 565.593,403.023ZM548.676,412.029L584.906,467.808C585.066,468.06 585.397,468.153 585.671,468.013C585.95,467.871 586.067,467.537 585.945,467.253L562.12,405.439C562.037,405.234 561.949,405.043 561.854,404.856C559.969,401.165 555.449,399.699 551.757,401.583C548.066,403.47 546.602,407.989 548.486,411.68C548.548,411.801 548.612,411.918 548.676,412.029ZM530.546,418.266L557.543,479.052C557.661,479.324 557.974,479.47 558.266,479.376C558.564,479.278 558.732,478.966 558.656,478.668L544.86,413.873C544.809,413.658 544.753,413.455 544.687,413.255C543.408,409.314 539.174,407.155 535.232,408.434C531.291,409.715 529.133,413.948 530.412,417.89C530.455,418.02 530.5,418.146 530.546,418.266ZM511.659,421.567L528.751,485.845C528.824,486.134 529.11,486.327 529.413,486.278C529.723,486.23 529.938,485.949 529.91,485.64L526.486,419.484C526.47,419.263 526.446,419.054 526.414,418.846C525.77,414.751 521.93,411.954 517.835,412.598C513.741,413.241 510.944,417.081 511.587,421.177C511.608,421.31 511.632,421.443 511.659,421.567ZM492.506,421.888L499.412,488.038C499.44,488.335 499.692,488.57 500,488.57C500.314,488.57 500.569,488.327 500.59,488.018L507.477,422.13C507.496,421.909 507.504,421.699 507.504,421.489C507.504,417.345 504.144,413.985 500,413.985C495.856,413.985 492.496,417.345 492.496,421.489C492.496,421.624 492.5,421.758 492.506,421.888ZM473.535,419.241L470.088,485.662C470.07,485.96 470.283,486.23 470.587,486.278C470.897,486.328 471.187,486.126 471.255,485.824L488.286,421.805C488.339,421.59 488.381,421.384 488.413,421.177C489.056,417.081 486.259,413.241 482.165,412.598C478.071,411.954 474.23,414.751 473.587,418.846C473.565,418.98 473.548,419.114 473.535,419.241ZM455.199,413.636L441.339,478.689C441.274,478.98 441.441,479.279 441.734,479.376C442.032,479.471 442.351,479.318 442.465,479.032L469.363,418.493C469.449,418.287 469.522,418.091 469.588,417.89C470.867,413.948 468.709,409.715 464.768,408.434C460.826,407.155 456.592,409.314 455.313,413.255C455.27,413.385 455.233,413.513 455.199,413.636ZM437.975,405.214L414.048,467.273C413.937,467.55 414.056,467.873 414.33,468.013C414.609,468.156 414.948,468.055 415.106,467.789L451.198,412.239C451.316,412.05 451.419,411.867 451.514,411.68C453.399,407.989 451.934,403.47 448.243,401.583C444.552,399.699 440.031,401.165 438.147,404.856C438.085,404.976 438.027,405.098 437.975,405.214ZM422.289,394.203L388.948,451.753C388.795,452.009 388.861,452.347 389.11,452.529C389.363,452.712 389.713,452.667 389.911,452.429L434.251,403.21C434.396,403.042 434.526,402.877 434.65,402.707C437.089,399.355 436.349,394.662 432.998,392.223C429.647,389.785 424.954,390.524 422.515,393.876C422.435,393.986 422.359,394.095 422.289,394.203ZM408.514,380.888L366.621,432.548C366.43,432.777 366.444,433.121 366.662,433.338C366.883,433.561 367.237,433.569 367.468,433.366L418.928,391.647C419.097,391.503 419.251,391.361 419.4,391.212C422.331,388.281 422.331,383.53 419.4,380.6C416.47,377.669 411.718,377.669 408.788,380.6C408.692,380.695 408.599,380.794 408.514,380.888ZM396.977,365.592L347.554,410.102C347.331,410.3 347.29,410.641 347.471,410.89C347.657,411.143 348.004,411.208 348.265,411.042L405.591,377.841C405.781,377.725 405.954,377.61 406.126,377.486C409.476,375.048 410.216,370.353 407.777,367.002C405.338,363.651 400.644,362.911 397.293,365.35C397.184,365.43 397.077,365.512 396.977,365.592ZM387.97,348.676L332.193,384.906C331.941,385.066 331.847,385.397 331.987,385.671C332.13,385.95 332.464,386.066 332.748,385.944L394.561,362.12C394.767,362.036 394.957,361.949 395.144,361.853C398.836,359.968 400.301,355.449 398.416,351.757C396.531,348.066 392.011,346.602 388.321,348.486C388.2,348.546 388.081,348.612 387.97,348.676ZM381.734,330.545L320.949,357.543C320.676,357.66 320.53,357.974 320.625,358.265C320.723,358.564 321.033,358.732 321.333,358.657L386.127,344.86C386.341,344.809 386.544,344.753 386.745,344.688C390.686,343.407 392.845,339.174 391.564,335.233C390.285,331.29 386.051,329.133 382.109,330.412C381.98,330.454 381.854,330.499 381.734,330.545ZM378.432,311.66L314.155,328.751C313.866,328.824 313.673,329.11 313.722,329.413C313.77,329.724 314.051,329.938 314.359,329.91L380.516,326.486C380.738,326.47 380.945,326.446 381.154,326.414C385.248,325.77 388.046,321.93 387.402,317.836C386.759,313.741 382.919,310.943 378.824,311.586C378.69,311.608 378.558,311.633 378.432,311.66ZM378.112,292.506L311.962,299.411C311.664,299.439 311.43,299.692 311.43,300.001C311.43,300.313 311.674,300.569 311.982,300.59L377.869,307.477C378.09,307.494 378.3,307.504 378.511,307.504C382.655,307.504 386.015,304.144 386.015,300.001C386.015,295.856 382.655,292.495 378.511,292.495C378.375,292.495 378.241,292.5 378.112,292.506ZM380.758,273.534L314.338,270.088C314.04,270.069 313.77,270.283 313.722,270.587C313.673,270.895 313.874,271.187 314.176,271.255L378.195,288.287C378.41,288.339 378.616,288.381 378.824,288.413C382.919,289.057 386.759,286.259 387.402,282.165C388.046,278.071 385.248,274.23 381.154,273.586C381.02,273.565 380.887,273.548 380.758,273.534ZM386.363,255.198L321.312,241.339C321.02,241.272 320.72,241.44 320.625,241.734C320.528,242.033 320.682,242.351 320.968,242.464L381.508,269.363C381.713,269.448 381.909,269.521 382.109,269.587C386.051,270.867 390.285,268.709 391.564,264.768C392.845,260.825 390.686,256.592 386.745,255.312C386.615,255.271 386.487,255.233 386.363,255.198ZM394.785,237.975L332.728,214.046C332.451,213.936 332.127,214.055 331.987,214.329C331.844,214.608 331.946,214.947 332.211,215.105L387.762,251.198C387.95,251.316 388.132,251.418 388.321,251.513C392.011,253.398 396.531,251.934 398.416,248.243C400.301,244.551 398.836,240.03 395.144,238.146C395.024,238.084 394.902,238.028 394.785,237.975ZM405.797,222.289L348.247,188.946C347.99,188.794 347.652,188.861 347.471,189.11C347.287,189.362 347.333,189.713 347.571,189.91L396.791,234.251C396.959,234.395 397.123,234.525 397.293,234.65C400.644,237.089 405.338,236.349 407.777,232.998C410.216,229.647 409.476,224.953 406.126,222.514C406.015,222.434 405.905,222.359 405.797,222.289ZM419.112,208.513L367.452,166.621C367.222,166.43 366.878,166.444 366.662,166.661C366.439,166.883 366.431,167.236 366.635,167.468L408.353,218.928C408.497,219.097 408.638,219.251 408.788,219.399C411.718,222.331 416.47,222.331 419.4,219.399C422.331,216.47 422.331,211.718 419.4,208.787C419.305,208.691 419.207,208.599 419.112,208.513ZM434.408,196.976L389.897,147.554C389.7,147.331 389.358,147.29 389.11,147.471C388.856,147.656 388.793,148.003 388.958,148.265L422.16,205.59C422.274,205.78 422.391,205.953 422.515,206.125C424.954,209.475 429.647,210.215 432.998,207.777C436.349,205.338 437.089,200.644 434.65,197.293C434.57,197.183 434.488,197.076 434.408,196.976ZM451.325,187.969L415.095,132.192C414.935,131.94 414.603,131.847 414.329,131.986C414.05,132.13 413.933,132.464 414.055,132.747L437.88,194.561C437.963,194.765 438.051,194.957 438.147,195.144C440.031,198.836 444.552,200.301 448.243,198.415C451.934,196.53 453.399,192.011 451.514,188.32C451.453,188.199 451.388,188.081 451.325,187.969ZM469.454,181.734L442.457,120.948C442.338,120.674 442.026,120.529 441.734,120.624C441.436,120.722 441.268,121.033 441.344,121.332L455.14,186.126C455.191,186.342 455.247,186.544 455.313,186.744C456.592,190.686 460.826,192.844 464.768,191.564C468.709,190.284 470.867,186.05 469.588,182.109C469.545,181.98 469.5,181.853 469.454,181.734ZM488.342,178.431L471.249,114.154C471.176,113.865 470.89,113.673 470.587,113.722C470.277,113.77 470.062,114.05 470.09,114.359L473.513,180.515C473.53,180.737 473.554,180.945 473.587,181.153C474.23,185.248 478.071,188.045 482.165,187.402C486.259,186.758 489.056,182.918 488.413,178.823C488.392,178.69 488.367,178.557 488.342,178.431ZM507.494,178.112L500.588,111.96C500.56,111.664 500.307,111.43 500,111.43C499.686,111.43 499.431,111.673 499.41,111.982L492.523,177.87C492.504,178.091 492.496,178.3 492.496,178.51C492.496,182.655 495.856,186.015 500,186.015C504.144,186.015 507.504,182.655 507.504,178.51C507.504,178.375 507.5,178.24 507.494,178.112ZM500,186.068C562.922,186.068 613.932,237.077 613.932,300.001C613.932,362.922 562.922,413.932 500,413.932C437.078,413.932 386.069,362.922 386.069,300.001C386.069,237.077 437.078,186.068 500,186.068ZM500,199.726C555.379,199.726 600.274,244.62 600.274,300.001C600.274,355.38 555.379,400.274 500,400.274C444.62,400.274 399.726,355.38 399.726,300.001C399.726,244.62 444.62,199.726 500,199.726ZM416.273,330.096C426.525,308.653 440.694,289.705 457.077,273.767C459.638,275.448 462.175,277.193 464.684,278.999C447.479,295.446 432.485,315.797 421.173,340.733C419.316,337.317 417.681,333.763 416.273,330.096ZM507.073,278.339C509.399,280.288 511.691,282.303 513.947,284.38C516.353,282.407 518.792,280.499 521.262,278.659C519.011,276.621 516.723,274.64 514.402,272.714C511.929,274.528 509.485,276.404 507.073,278.339ZM492.504,267.22C495.032,268.975 497.532,270.794 500,272.678C502.468,270.794 504.968,268.975 507.496,267.22C505.026,265.334 502.526,263.51 500,261.75C497.474,263.51 494.974,265.334 492.504,267.22ZM493.176,290.511C495.489,292.598 497.764,294.753 500,296.976C502.235,294.753 504.512,292.598 506.824,290.511C504.588,288.375 502.312,286.291 500,284.269C497.688,286.291 495.413,288.375 493.176,290.511ZM478.739,278.659C481.209,280.499 483.648,282.407 486.053,284.38C488.31,282.303 490.603,280.288 492.928,278.34C490.515,276.404 488.071,274.528 485.598,272.714C483.279,274.64 480.99,276.621 478.739,278.659ZM523.595,257.095C521.111,255.2 518.598,253.366 516.059,251.597C513.169,253.247 510.299,254.977 507.456,256.786C510.051,258.506 512.621,260.294 515.16,262.147C517.945,260.39 520.757,258.707 523.595,257.095ZM536.867,268.1C534.638,266.095 532.375,264.141 530.079,262.244C527.368,263.885 524.677,265.598 522.013,267.379C524.362,269.252 526.678,271.188 528.961,273.188C531.569,271.424 534.207,269.731 536.867,268.1ZM490.966,246.907C493.951,244.999 496.964,243.174 500,241.44C503.037,243.174 506.05,244.999 509.035,246.907C505.998,248.547 502.983,250.268 500,252.069C497.017,250.268 494.002,248.547 490.966,246.907ZM476.407,257.095C478.89,255.2 481.402,253.366 483.941,251.597C486.832,253.247 489.701,254.977 492.544,256.786C489.948,258.506 487.379,260.294 484.841,262.147C482.056,260.39 479.243,258.707 476.407,257.095ZM463.132,268.1C465.362,266.095 467.625,264.141 469.921,262.244C472.632,263.885 475.323,265.598 477.987,267.379C475.639,269.252 473.322,271.188 471.04,273.188C468.431,271.424 465.794,269.731 463.132,268.1ZM421.3,254.997C430.575,258.714 439.823,263.277 448.853,268.629C434.952,281.877 422.488,297.669 412.231,316.359C410.993,310.426 410.342,304.278 410.342,297.979C410.342,282.404 414.314,267.758 421.3,254.997ZM428.921,243.334C439.853,246.867 450.855,251.614 461.62,257.474C459.302,259.33 457.015,261.248 454.761,263.229C444.931,257.799 434.832,253.21 424.646,249.382C425.989,247.303 427.416,245.287 428.921,243.334ZM438.48,232.761C450.839,236.002 463.402,240.844 475.713,247.146C473.117,248.884 470.547,250.685 468.009,252.556C456.619,246.724 444.921,241.977 433.195,238.189C434.88,236.307 436.642,234.496 438.48,232.761ZM452.423,221.976C452.686,222.073 452.963,222.17 453.256,222.269C453.584,222.352 453.912,222.438 454.241,222.521C466.826,225.798 479.627,230.736 492.162,237.187C488.978,238.924 485.822,240.751 482.701,242.666C470.571,236.759 458.137,232.047 445.722,228.386C445.615,228.357 444.923,228.117 444.143,227.846C446.787,225.74 449.55,223.778 452.423,221.976ZM539.935,217.688C539.452,217.843 539.1,217.958 538.995,218C525.899,221.816 512.772,226.795 500,233.115C487.47,226.915 474.599,222.005 461.751,218.217C461.503,218.145 461.254,218.073 461.005,218C460.655,217.909 460.335,217.809 460.039,217.702C472.072,211.7 485.64,208.318 500.001,208.318C514.35,208.318 527.91,211.693 539.935,217.688ZM555.941,227.915C555.608,228.015 555.299,228.102 555.039,228.165C542.372,231.854 529.677,236.638 517.3,242.666C514.178,240.751 511.022,238.924 507.838,237.187C520.7,230.567 533.843,225.54 546.744,222.269C547.062,222.218 547.38,222.143 547.694,222.049C550.556,223.852 553.31,225.809 555.941,227.915ZM566.806,238.189C555.079,241.977 543.382,246.724 531.991,252.556C529.454,250.685 526.883,248.884 524.288,247.146C536.599,240.844 549.161,236.002 561.52,232.761C563.357,234.496 565.121,236.307 566.806,238.189ZM575.355,249.382C565.169,253.21 555.069,257.798 545.24,263.229C542.985,261.248 540.698,259.33 538.381,257.474C549.144,251.614 560.149,246.867 571.08,243.334C572.585,245.287 574.013,247.303 575.355,249.382ZM587.768,316.359C577.514,297.669 565.048,281.877 551.147,268.629C560.177,263.277 569.425,258.714 578.7,254.997C585.683,267.759 589.658,282.404 589.658,297.979C589.658,304.278 589.007,310.427 587.768,316.359ZM578.827,340.733C567.515,315.797 552.521,295.446 535.317,278.999C537.826,277.193 540.363,275.448 542.921,273.767C559.307,289.705 573.476,308.652 583.729,330.096C582.321,333.761 580.685,337.317 578.827,340.733ZM564.861,359.878C553.94,331.726 538.55,308.942 520.497,290.697C522.866,288.65 525.271,286.666 527.709,284.741C546.393,303.114 562.13,325.43 572.364,350.912C570.056,354.062 567.553,357.06 564.861,359.878ZM547.937,373.755L546.744,370.553C536.843,343.809 522.956,321.803 506.581,303.847C508.813,301.538 511.094,299.285 513.415,297.092C532.166,316.664 547.574,340.356 556.842,367.316C554.013,369.638 551.038,371.789 547.937,373.755ZM461.188,378.824L462.335,375.241C470.595,350.979 483.827,329.354 500,310.98C516.173,329.354 529.406,350.979 537.665,375.241L538.84,378.811C527.089,384.468 513.915,387.637 500.001,387.637C486.097,387.637 472.932,384.473 461.188,378.824ZM443.159,367.316C452.428,340.356 467.834,316.664 486.585,297.092C488.907,299.285 491.187,301.538 493.419,303.847C477.044,321.803 463.158,343.809 453.256,370.553L452.067,373.757C448.964,371.79 445.989,369.638 443.159,367.316ZM427.636,350.912C437.871,325.43 453.608,303.114 472.292,284.741C474.729,286.666 477.135,288.65 479.504,290.697C461.451,308.942 446.061,331.726 435.139,359.878C432.448,357.06 429.944,354.062 427.636,350.912" style="fill:rgb(255,237,0);"/>
        </g>
    </g>
</svg>
