<svg xmlns="http://www.w3.org/2000/svg" xml:space="preserve" fill-rule="evenodd" stroke-linejoin="round" stroke-miterlimit="2" clip-rule="evenodd" viewBox="0 0 640 480">
  <path fill="red" d="M-40.4 0h720.75v480H-40.4z"/>
  <path fill="#ffed00" d="m346.465 120.758 3.447-66.422a.59.59 0 0 0-.499-.614.59.59 0 0 0-.668.453l-17.032 64.02a7.504 7.504 0 1 0 14.752 2.563Zm18.336 5.605 13.86-65.052a.589.589 0 0 0-.395-.687.592.592 0 0 0-.731.343l-26.898 60.54a7.506 7.506 0 0 0 4.595 10.057 7.504 7.504 0 0 0 9.569-5.201Zm17.224 8.422 23.928-62.058a.59.59 0 0 0-1.058-.517l-36.093 55.551a7.504 7.504 0 0 0 2.955 10.654 7.503 7.503 0 0 0 10.268-3.63Zm15.687 11.012 33.341-57.55a.59.59 0 0 0-.965-.676l-44.339 49.219a7.504 7.504 0 1 0 11.963 9.007Zm13.774 13.315 41.893-51.659a.588.588 0 0 0-.041-.792.588.588 0 0 0-.806-.027l-51.46 41.719a7.503 7.503 0 0 0-.472 11.046 7.501 7.501 0 0 0 10.886-.287Zm11.537 15.294 49.422-44.509a.59.59 0 0 0-.709-.94l-57.327 33.202a7.505 7.505 0 1 0 8.614 12.247Zm9.007 16.918 55.776-36.23a.589.589 0 0 0-.554-1.038l-61.813 23.824a7.505 7.505 0 1 0 6.591 13.444Zm6.236 18.13 60.785-26.997a.592.592 0 0 0-.384-1.114l-64.794 13.796a7.504 7.504 0 1 0 4.393 14.315Zm3.302 18.886 64.277-17.091a.588.588 0 0 0 .433-.662.594.594 0 0 0-.637-.499l-66.157 3.425a7.505 7.505 0 1 0 2.084 14.827Zm.32 19.153 66.15-6.906a.59.59 0 0 0-.02-1.176l-65.887-6.888a7.506 7.506 0 1 0-.243 14.97Zm-2.646 18.973 66.42 3.445a.592.592 0 0 0 .162-1.167l-64.018-17.032a7.504 7.504 0 0 0-9.208 6.124 7.504 7.504 0 0 0 6.644 8.63Zm-5.605 18.335 65.051 13.86a.588.588 0 0 0 .686-.396.589.589 0 0 0-.342-.73l-60.54-26.899a7.504 7.504 0 0 0-10.056 4.597 7.504 7.504 0 0 0 5.201 9.568Zm-8.422 17.224 62.057 23.927a.59.59 0 0 0 .517-1.058l-55.55-36.093a7.504 7.504 0 1 0-7.024 13.224Zm-11.012 15.686 57.55 33.342a.59.59 0 0 0 .676-.964l-49.22-44.339a7.504 7.504 0 0 0-10.985 1.252 7.505 7.505 0 0 0 1.979 10.709Zm-13.315 13.775 51.66 41.893c.23.19.574.177.79-.041a.588.588 0 0 0 .027-.806l-41.718-51.461a7.503 7.503 0 0 0-11.047-.471 7.503 7.503 0 0 0 .288 10.886Zm-15.295 11.537 44.51 49.421a.59.59 0 0 0 .939-.708l-33.202-57.328a7.505 7.505 0 1 0-12.247 8.615Zm-16.917 9.006 36.23 55.779a.591.591 0 0 0 1.039-.555l-23.825-61.814a7.507 7.507 0 0 0-10.363-3.856 7.507 7.507 0 0 0-3.081 10.446Zm-18.13 6.237 26.997 60.786a.592.592 0 0 0 .723.324.593.593 0 0 0 .39-.708l-13.796-64.795a7.506 7.506 0 0 0-9.628-5.439 7.507 7.507 0 0 0-4.686 9.832Zm-18.887 3.301 17.092 64.278a.59.59 0 0 0 1.159-.205l-3.424-66.156a7.504 7.504 0 0 0-8.651-6.886 7.504 7.504 0 0 0-6.176 8.969Zm-19.153.321 6.906 66.15a.59.59 0 0 0 1.178-.02l6.887-65.888a7.504 7.504 0 1 0-14.971-.242Zm-18.971-2.647-3.447 66.421a.59.59 0 0 0 1.167.162l17.031-64.019a7.504 7.504 0 1 0-14.751-2.564Zm-18.336-5.605-13.86 65.053a.59.59 0 0 0 1.126.343l26.898-60.539a7.507 7.507 0 0 0-4.595-10.059 7.506 7.506 0 0 0-9.569 5.202Zm-17.224-8.422-23.927 62.059a.59.59 0 0 0 1.058.516l36.092-55.55a7.506 7.506 0 0 0-2.955-10.656 7.506 7.506 0 0 0-10.268 3.631Zm-15.686-11.011-33.341 57.55a.59.59 0 0 0 .963.676l44.34-49.219a7.505 7.505 0 1 0-11.962-9.007Zm-13.775-13.315-41.893 51.66a.587.587 0 0 0 .041.79.589.589 0 0 0 .806.028l51.46-41.719a7.503 7.503 0 0 0 .472-11.047 7.503 7.503 0 0 0-10.886.288Zm-11.537-15.296-49.423 44.51a.59.59 0 0 0 .711.94l57.326-33.201a7.506 7.506 0 1 0-8.614-12.249Zm-9.007-16.916-55.777 36.23a.59.59 0 0 0-.206.765.592.592 0 0 0 .761.273l61.813-23.824a7.504 7.504 0 1 0-6.591-13.444Zm-6.236-18.131-60.785 26.998a.59.59 0 0 0-.324.722.593.593 0 0 0 .708.392l64.794-13.797a7.504 7.504 0 0 0 5.437-9.627 7.504 7.504 0 0 0-9.83-4.688Zm-3.302-18.885-64.277 17.091a.587.587 0 0 0-.433.662.59.59 0 0 0 .637.497l66.157-3.424a7.504 7.504 0 0 0 6.886-8.65 7.504 7.504 0 0 0-8.97-6.176Zm-.32-19.154-66.15 6.905a.59.59 0 0 0 .02 1.179l65.887 6.887a7.504 7.504 0 1 0 .243-14.971Zm2.646-18.972-66.42-3.446a.591.591 0 0 0-.162 1.167l64.019 17.032a7.503 7.503 0 0 0 9.207-6.122 7.505 7.505 0 0 0-6.644-8.631Zm5.605-18.336-65.051-13.859a.586.586 0 0 0-.687.395.59.59 0 0 0 .343.73l60.54 26.899a7.504 7.504 0 0 0 10.056-4.595 7.504 7.504 0 0 0-5.201-9.57Zm8.422-17.223-62.057-23.929a.59.59 0 0 0-.517 1.059l55.551 36.093a7.503 7.503 0 0 0 10.654-2.955 7.504 7.504 0 0 0-3.631-10.268Zm11.012-15.686-57.55-33.343a.59.59 0 0 0-.676.964l49.22 44.341a7.505 7.505 0 1 0 9.006-11.962Zm13.315-13.776-51.66-41.892a.587.587 0 0 0-.79.04.589.589 0 0 0-.027.807l41.718 51.46a7.501 7.501 0 0 0 11.047.471 7.503 7.503 0 0 0-.288-10.886Zm15.296-11.537-44.511-49.422a.591.591 0 0 0-.939.711l33.202 57.325a7.506 7.506 0 1 0 12.248-8.614Zm16.917-9.007-36.23-55.777a.591.591 0 0 0-1.04.555l23.825 61.814a7.502 7.502 0 0 0 10.363 3.854 7.503 7.503 0 0 0 3.082-10.446Zm18.129-6.235-26.997-60.786a.59.59 0 0 0-1.113.384l13.796 64.794a7.504 7.504 0 1 0 14.314-4.392Zm18.888-3.303-17.093-64.277a.586.586 0 0 0-.662-.432.59.59 0 0 0-.497.637l3.423 66.156a7.504 7.504 0 1 0 14.829-2.084Zm19.152-.319-6.906-66.152a.59.59 0 0 0-1.178.022l-6.887 65.888a7.505 7.505 0 1 0 14.971.242ZM320 126.068c62.922 0 113.932 51.009 113.932 113.933 0 62.921-51.01 113.931-113.932 113.931-62.922 0-113.931-51.01-113.931-113.931 0-62.924 51.009-113.933 113.931-113.933Zm0 13.658c55.379 0 100.274 44.894 100.274 100.275 0 55.379-44.895 100.273-100.274 100.273-55.38 0-100.274-44.894-100.274-100.273 0-55.381 44.894-100.275 100.274-100.275Zm-83.727 130.37c10.252-21.443 24.421-40.391 40.804-56.329a214.53 214.53 0 0 1 7.607 5.232c-17.205 16.447-32.199 36.798-43.511 61.734a89.245 89.245 0 0 1-4.9-10.637Zm90.8-51.757a196.119 196.119 0 0 1 6.874 6.041 199.387 199.387 0 0 1 7.315-5.721 210.53 210.53 0 0 0-6.86-5.945 213.741 213.741 0 0 0-7.329 5.625Zm-14.569-11.119a205.322 205.322 0 0 1 7.496 5.458 205.322 205.322 0 0 1 7.496-5.458c-2.47-1.886-4.97-3.71-7.496-5.47a212.972 212.972 0 0 0-7.496 5.47Zm.672 23.291a194.207 194.207 0 0 1 6.824 6.465 194.207 194.207 0 0 1 6.824-6.465 210.565 210.565 0 0 0-6.824-6.242 211.62 211.62 0 0 0-6.824 6.242Zm-14.437-11.852c2.47 1.84 4.909 3.748 7.314 5.721a196.902 196.902 0 0 1 6.875-6.04 213.511 213.511 0 0 0-7.33-5.626 212.632 212.632 0 0 0-6.859 5.945Zm44.856-21.564a216.158 216.158 0 0 0-7.536-5.498c-2.89 1.65-5.76 3.38-8.603 5.189a208.05 208.05 0 0 1 7.704 5.361 212.548 212.548 0 0 1 8.435-5.052Zm13.272 11.005a213.42 213.42 0 0 0-6.788-5.856 212.641 212.641 0 0 0-8.066 5.135 195.635 195.635 0 0 1 6.948 5.809 210.51 210.51 0 0 1 7.906-5.088Zm-45.901-21.193A212.089 212.089 0 0 1 320 181.44a211.496 211.496 0 0 1 9.035 5.467 216.696 216.696 0 0 0-9.035 5.162 217.31 217.31 0 0 0-9.034-5.162Zm-14.559 10.188a215.145 215.145 0 0 1 7.534-5.498c2.891 1.65 5.76 3.38 8.603 5.189a206.348 206.348 0 0 0-7.703 5.361 213.963 213.963 0 0 0-8.434-5.052ZM283.132 208.1a214.57 214.57 0 0 1 6.789-5.856 212.641 212.641 0 0 1 8.066 5.135 195.604 195.604 0 0 0-6.947 5.809 209.77 209.77 0 0 0-7.908-5.088ZM241.3 194.997c9.275 3.717 18.523 8.28 27.553 13.632-13.901 13.248-26.365 29.04-36.622 47.73a89.91 89.91 0 0 1-1.889-18.38c0-15.575 3.972-30.221 10.958-42.982Zm7.621-11.663c10.932 3.533 21.934 8.28 32.699 14.14a195.225 195.225 0 0 0-6.859 5.755c-9.83-5.43-19.929-10.019-30.115-13.847a89.224 89.224 0 0 1 4.275-6.048Zm9.559-10.573c12.359 3.241 24.922 8.083 37.233 14.385a207.796 207.796 0 0 0-7.704 5.41c-11.39-5.832-23.088-10.579-34.814-14.367a90.21 90.21 0 0 1 5.285-5.428Zm13.943-10.785c.263.097.54.194.833.293.328.083.656.169.985.252 12.585 3.277 25.386 8.215 37.921 14.666a214.699 214.699 0 0 0-9.461 5.479c-12.13-5.907-24.564-10.619-36.979-14.28a74.294 74.294 0 0 1-1.579-.54 90.33 90.33 0 0 1 8.28-5.87Zm87.512-4.288c-.483.155-.835.27-.94.312-13.096 3.816-26.223 8.795-38.995 15.115-12.53-6.2-25.401-11.11-38.249-14.898l-.746-.217c-.35-.091-.67-.191-.966-.298 12.033-6.002 25.601-9.384 39.962-9.384 14.349 0 27.909 3.375 39.934 9.37Zm16.006 10.227c-.333.1-.642.187-.902.25-12.667 3.689-25.362 8.473-37.739 14.501a215.312 215.312 0 0 0-9.462-5.479c12.862-6.62 26.005-11.647 38.906-14.918.318-.051.636-.126.95-.22a89.727 89.727 0 0 1 8.247 5.866Zm10.865 10.274c-11.727 3.788-23.424 8.535-34.815 14.367a207.763 207.763 0 0 0-7.703-5.41c12.311-6.302 24.873-11.144 37.232-14.385a90.532 90.532 0 0 1 5.286 5.428Zm8.549 11.193c-10.186 3.828-20.286 8.416-30.115 13.847a197.075 197.075 0 0 0-6.859-5.755c10.763-5.86 21.768-10.607 32.699-14.14a88.87 88.87 0 0 1 4.275 6.048Zm12.413 66.977c-10.254-18.69-22.72-34.482-36.621-47.73 9.03-5.352 18.278-9.915 27.553-13.632 6.983 12.762 10.958 27.407 10.958 42.982 0 6.299-.651 12.448-1.89 18.38Zm-8.941 24.374c-11.312-24.936-26.306-45.287-43.51-61.734a217.212 217.212 0 0 1 7.604-5.232c16.386 15.938 30.555 34.885 40.808 56.329a89.245 89.245 0 0 1-4.902 10.637Zm-13.966 19.145c-10.921-28.152-26.311-50.936-44.364-69.181a211.337 211.337 0 0 1 7.212-5.956c18.684 18.373 34.421 40.689 44.655 66.171a89.861 89.861 0 0 1-7.503 8.966Zm-16.924 13.877-1.193-3.202c-9.901-26.744-23.788-48.75-40.163-66.706a212.192 212.192 0 0 1 6.834-6.755c18.751 19.572 34.159 43.264 43.427 70.224a89.963 89.963 0 0 1-8.905 6.439Zm-86.749 5.069 1.147-3.583c8.26-24.262 21.492-45.887 37.665-64.261 16.173 18.374 29.406 39.999 37.665 64.261l1.175 3.57c-11.751 5.657-24.925 8.826-38.839 8.826-13.904 0-27.069-3.164-38.813-8.813Zm-18.029-11.508c9.269-26.96 24.675-50.652 43.426-70.224a211.17 211.17 0 0 1 6.834 6.755c-16.375 17.956-30.261 39.962-40.163 66.706l-1.189 3.204a90.067 90.067 0 0 1-8.908-6.441Zm-15.523-16.404c10.235-25.482 25.972-47.798 44.656-66.171a212.317 212.317 0 0 1 7.212 5.956c-18.053 18.245-33.443 41.029-44.365 69.181a89.997 89.997 0 0 1-7.503-8.966"/>
</svg>
