<svg xmlns="http://www.w3.org/2000/svg" viewBox="0 0 1000 600">
    <path fill="red" d="M0 0h1000v600H0z" />
    <path
        fill="#ffed00"
        fill-rule="evenodd"
        d="m526.47 180.76 3.44-66.42a.59.59 0 0 0-.5-.62.59.59 0 0 0-.66.45L511.7 178.2c-.05.22-.1.43-.12.63a7.5 7.5 0 1 0 14.88 1.94zm18.33 5.6 13.86-65.05c.07-.3-.1-.6-.4-.69a.6.6 0 0 0-.72.35l-26.9 60.54c-.09.2-.16.4-.23.6a7.5 7.5 0 1 0 14.4 4.25zm17.23 8.43 23.92-62.06a.6.6 0 0 0-1.06-.52l-36.09 55.55a7.54 7.54 0 0 0 2.96 10.65 7.5 7.5 0 0 0 10.27-3.62zm15.68 11 33.34-57.54a.59.59 0 0 0-.96-.68l-44.34 49.22a7.5 7.5 0 1 0 11.96 9zm13.78 13.32 41.89-51.66a.59.59 0 0 0-.04-.79.59.59 0 0 0-.8-.03l-51.47 41.72a7.5 7.5 0 1 0 10.42 10.76zm11.53 15.3 49.42-44.51a.59.59 0 0 0-.7-.94l-57.33 33.2c-.2.11-.36.23-.54.35a7.5 7.5 0 1 0 9.15 11.9zm9.01 16.91 55.78-36.23a.59.59 0 0 0-.56-1.03l-61.81 23.82a7.5 7.5 0 1 0 6.6 13.44zm6.24 18.13 60.78-27a.6.6 0 0 0-.38-1.11l-64.8 13.8a7.5 7.5 0 1 0 4.4 14.31zm3.3 18.89 64.28-17.1a.6.6 0 0 0-.2-1.16l-66.17 3.43a7.5 7.5 0 1 0 2.08 14.83zm.32 19.15 66.15-6.9a.59.59 0 0 0-.02-1.18l-65.89-6.89a7.5 7.5 0 1 0-.24 14.97zm-2.65 18.98 66.42 3.44a.6.6 0 0 0 .16-1.17l-64.01-17.03c-.22-.05-.43-.1-.63-.12a7.5 7.5 0 1 0-1.94 14.88zm-5.6 18.33 65.05 13.86c.29.07.59-.1.68-.4a.59.59 0 0 0-.34-.73l-60.54-26.9-.6-.22a7.5 7.5 0 1 0-4.25 14.4zm-8.43 17.22 62.06 23.93c.28.11.6 0 .74-.28a.6.6 0 0 0-.22-.78l-55.55-36.09a7.5 7.5 0 1 0-7.02 13.22zm-11 15.7 57.54 33.33a.59.59 0 0 0 .68-.96l-49.22-44.34a7.5 7.5 0 1 0-9 11.96zm-13.32 13.77 51.66 41.89c.23.19.57.18.79-.04a.59.59 0 0 0 .03-.8l-41.72-51.47a7.5 7.5 0 1 0-10.76 10.41zm-15.3 11.53 44.51 49.42c.2.23.54.27.79.09a.6.6 0 0 0 .15-.8l-33.2-57.32a7.5 7.5 0 1 0-12.25 8.61zm-16.91 9 36.23 55.79a.6.6 0 0 0 1.04-.55l-23.83-61.82a7.5 7.5 0 1 0-13.44 6.6zm-18.13 6.25 27 60.78a.6.6 0 0 0 1.1-.38l-13.79-64.8a7.5 7.5 0 1 0-14.31 4.4zm-18.9 3.3 17.1 64.27c.07.3.36.49.66.44a.6.6 0 0 0 .5-.64l-3.42-66.16a7.5 7.5 0 1 0-14.83 2.08zm-19.14.32 6.9 66.15a.59.59 0 0 0 1.18-.02l6.89-65.89c.02-.22.02-.43.02-.64a7.5 7.5 0 1 0-15 .4zm-18.98-2.65-3.44 66.42a.59.59 0 0 0 1.16.16l17.04-64.01c.05-.22.1-.43.12-.63a7.5 7.5 0 1 0-14.88-1.94zm-18.33-5.6-13.86 65.05a.59.59 0 0 0 1.13.34l26.9-60.54.22-.6a7.5 7.5 0 1 0-14.4-4.25zm-17.22-8.43-23.93 62.06a.59.59 0 0 0 1.06.52l36.09-55.55a7.5 7.5 0 1 0-13.22-7.03zm-15.7-11-33.33 57.54a.59.59 0 0 0 .96.68l44.34-49.22a7.5 7.5 0 1 0-11.96-9zm-13.77-13.32-41.89 51.66a.59.59 0 0 0 .04.79c.22.22.58.23.8.03l51.47-41.72.47-.44a7.5 7.5 0 1 0-10.89-10.32zm-11.53-15.3-49.43 44.51a.59.59 0 0 0 .71.94l57.33-33.2.54-.35a7.5 7.5 0 1 0-9.15-11.9zm-9.01-16.91-55.78 36.23a.59.59 0 0 0 .56 1.03l61.81-23.82a7.5 7.5 0 1 0-6.6-13.44zm-6.24-18.13-60.78 27a.6.6 0 0 0 .38 1.11l64.8-13.8a7.5 7.5 0 1 0-4.4-14.32zm-3.3-18.89-64.28 17.1a.6.6 0 0 0 .2 1.16l66.17-3.43a7.5 7.5 0 1 0-2.08-14.83zm-.32-19.15-66.15 6.9a.59.59 0 0 0 .02 1.18l65.89 6.89.64.02a7.5 7.5 0 1 0-.4-15zm2.65-18.98-66.42-3.44a.59.59 0 0 0-.16 1.16l64.01 17.04c.22.05.43.1.63.12a7.5 7.5 0 1 0 1.94-14.88zm5.6-18.33-65.05-13.86a.57.57 0 0 0-.68.4c-.1.3.05.61.34.72l60.54 26.9a7.5 7.5 0 1 0 4.86-14.16zm8.43-17.23-62.06-23.92a.6.6 0 0 0-.52 1.05l55.55 36.1a7.5 7.5 0 1 0 7.02-13.22zm11-15.68-57.54-33.34a.59.59 0 0 0-.68.96l49.22 44.34.5.4a7.5 7.5 0 1 0 8.5-12.36zm13.32-13.78-51.66-41.89a.59.59 0 0 0-.79.04.59.59 0 0 0-.02.8l41.71 51.47.44.47a7.5 7.5 0 1 0 10.32-10.89zm15.3-11.53-44.51-49.43a.6.6 0 0 0-.94.71l33.2 57.33a7.5 7.5 0 1 0 12.25-8.61zm16.91-9.01-36.23-55.78a.6.6 0 0 0-1.03.56l23.82 61.81a7.5 7.5 0 1 0 13.45-6.6zm18.13-6.24-27-60.78a.59.59 0 0 0-1.1.38l13.79 64.8a7.5 7.5 0 1 0 14.31-4.4zm18.9-3.3-17.1-64.28a.59.59 0 0 0-.66-.43.59.59 0 0 0-.5.64l3.42 66.16a7.5 7.5 0 1 0 14.83-2.08zm19.14-.32-6.9-66.15a.59.59 0 0 0-1.18.02l-6.89 65.89c-.02.22-.02.43-.02.64a7.5 7.5 0 1 0 15-.4zm-7.49 7.96c62.92 0 113.93 51 113.93 113.93 0 62.92-51 113.93-113.93 113.93s-113.93-51-113.93-113.93c0-62.92 51-113.93 113.93-113.93zm0 13.66c55.38 0 100.27 44.89 100.27 100.27 0 55.38-44.9 100.27-100.27 100.27-55.38 0-100.27-44.89-100.27-100.27 0-55.38 44.89-100.27 100.27-100.27zM416.27 330.1c10.25-21.45 24.42-40.4 40.8-56.33 2.57 1.68 5.1 3.42 7.61 5.23-17.2 16.45-32.2 36.8-43.5 61.73a89.28 89.28 0 0 1-4.9-10.63zm90.8-51.76c2.33 1.95 4.62 3.96 6.88 6.04 2.4-1.97 4.84-3.88 7.31-5.72a209.83 209.83 0 0 0-6.86-5.95 213.2 213.2 0 0 0-7.33 5.63zm-14.57-11.12c2.53 1.75 5.03 3.57 7.5 5.46 2.47-1.89 4.97-3.7 7.5-5.46a204.63 204.63 0 0 0-7.5-5.47 213.06 213.06 0 0 0-7.5 5.47zm.68 23.3a195.9 195.9 0 0 1 6.82 6.46c2.24-2.23 4.51-4.38 6.82-6.47a211.2 211.2 0 0 0-6.82-6.24c-2.31 2.02-4.59 4.1-6.82 6.24zm-14.44-11.86a206.1 206.1 0 0 1 7.31 5.72c2.26-2.08 4.55-4.1 6.88-6.04a213.69 213.69 0 0 0-7.33-5.63 213.16 213.16 0 0 0-6.86 5.95zm44.85-21.56c-2.48-1.9-5-3.73-7.53-5.5a209.98 209.98 0 0 0-8.6 5.19c2.6 1.72 5.16 3.5 7.7 5.36 2.78-1.76 5.6-3.44 8.43-5.05zm13.28 11c-2.23-2-4.5-3.96-6.8-5.86a211.9 211.9 0 0 0-8.06 5.14c2.35 1.87 4.67 3.8 6.95 5.8 2.6-1.76 5.25-3.45 7.9-5.08zm-45.9-21.2c2.98-1.9 6-3.73 9.03-5.46a206.9 206.9 0 0 1 9.04 5.47 216.54 216.54 0 0 0-9.04 5.16c-2.98-1.8-6-3.52-9.03-5.16zm-14.56 10.2c2.48-1.9 5-3.73 7.53-5.5 2.9 1.65 5.76 3.38 8.6 5.19a196.7 196.7 0 0 0-7.7 5.36c-2.78-1.76-5.6-3.44-8.43-5.05zm-13.28 11c2.23-2 4.5-3.96 6.8-5.86 2.7 1.64 5.4 3.36 8.06 5.14-2.35 1.87-4.67 3.8-6.95 5.8-2.6-1.76-5.25-3.45-7.9-5.08zM421.3 255a200.38 200.38 0 0 1 27.55 13.63 195.52 195.52 0 0 0-36.62 47.73A89.97 89.97 0 0 1 421.3 255zm7.62-11.67a192.47 192.47 0 0 1 32.7 14.14 205 205 0 0 0-6.86 5.76 228.6 228.6 0 0 0-30.11-13.85 89.4 89.4 0 0 1 4.27-6.05zm9.56-10.57a185.36 185.36 0 0 1 37.23 14.39 209.3 209.3 0 0 0-7.7 5.4 234.69 234.69 0 0 0-34.82-14.36 90.43 90.43 0 0 1 5.29-5.43zm13.94-10.78.84.29.98.25a185.46 185.46 0 0 1 37.92 14.67 215.49 215.49 0 0 0-9.46 5.48 238.62 238.62 0 0 0-36.98-14.28l-1.58-.54a90.4 90.4 0 0 1 8.28-5.87zm87.51-4.3-.94.32A238.22 238.22 0 0 0 500 233.12a238.08 238.08 0 0 0-38.25-14.9l-.74-.22-.97-.3c12.03-6 25.6-9.38 39.96-9.38a89.24 89.24 0 0 1 39.93 9.37zm16.01 10.23c-.33.1-.64.2-.9.26a238.54 238.54 0 0 0-37.74 14.5 215.59 215.59 0 0 0-9.46-5.48c12.86-6.62 26-11.65 38.9-14.92.32-.05.64-.13.95-.22a89.8 89.8 0 0 1 8.25 5.86zm10.87 10.28a234.73 234.73 0 0 0-34.82 14.37c-2.54-1.87-5.1-3.68-7.7-5.41a185.34 185.34 0 0 1 37.23-14.39 90.59 90.59 0 0 1 5.29 5.43zm8.54 11.2a228.46 228.46 0 0 0-30.11 13.84c-2.25-1.98-4.54-3.9-6.86-5.76a192.45 192.45 0 0 1 32.7-14.14 89.08 89.08 0 0 1 4.27 6.05zm12.42 66.97a195.43 195.43 0 0 0-36.62-47.73A200.34 200.34 0 0 1 578.7 255a89.89 89.89 0 0 1 9.07 61.36zm-8.94 24.37c-11.32-24.93-26.3-45.28-43.51-61.73 2.5-1.8 5.04-3.55 7.6-5.23 16.39 15.94 30.56 34.88 40.8 56.33a89.24 89.24 0 0 1-4.9 10.63zm-13.97 19.15c-10.92-28.15-26.31-50.94-44.36-69.18 2.37-2.05 4.77-4.03 7.2-5.96 18.7 18.37 34.43 40.69 44.66 66.17a90.07 90.07 0 0 1-7.5 8.97zm-16.92 13.87-1.2-3.2c-9.9-26.74-23.78-48.75-40.16-66.7a212.9 212.9 0 0 1 6.83-6.76c18.76 19.57 34.16 43.27 43.43 70.23a90.07 90.07 0 0 1-8.9 6.43zm-86.75 5.07 1.14-3.58c8.27-24.26 21.5-45.89 37.67-64.26 16.17 18.37 29.4 40 37.67 64.26l1.17 3.57a89.3 89.3 0 0 1-38.84 8.83 89.3 89.3 0 0 1-38.81-8.82zm-18.03-11.5c9.27-26.96 24.67-50.66 43.43-70.23 2.32 2.2 4.6 4.45 6.83 6.76-16.38 17.95-30.26 39.96-40.16 66.7l-1.2 3.2a89.9 89.9 0 0 1-8.9-6.43zm-15.52-16.4c10.23-25.49 25.97-47.8 44.65-66.18a212.8 212.8 0 0 1 7.21 5.96c-18.05 18.24-33.44 41.03-44.36 69.18a90.28 90.28 0 0 1-7.5-8.97"
    />
</svg>
