<?xml version="1.0" encoding="UTF-8" standalone="no"?>
<!DOCTYPE svg PUBLIC "-//W3C//DTD SVG 1.1//EN" "http://www.w3.org/Graphics/SVG/1.1/DTD/svg11.dtd">
<svg width="100%" height="100%" viewBox="0 0 640 480" version="1.1" xmlns="http://www.w3.org/2000/svg" xmlns:xlink="http://www.w3.org/1999/xlink" xml:space="preserve" xmlns:serif="http://www.serif.com/" style="fill-rule:evenodd;clip-rule:evenodd;stroke-linejoin:round;stroke-miterlimit:2;">
    <g transform="matrix(0.355556,0,0,0.533333,5.68434e-14,5.49486e-14)">
        <rect x="0" y="0" width="1800" height="900" style="fill:rgb(204,9,47);fill-rule:nonzero;"/>
    </g>
    <g transform="matrix(0.355556,0,0,0.533333,5.68434e-14,5.49486e-14)">
        <rect x="0" y="0" width="1200" height="900" style="fill:rgb(255,210,0);fill-rule:nonzero;"/>
    </g>
    <g transform="matrix(0.355556,0,0,0.533333,5.68434e-14,5.49486e-14)">
        <rect x="0" y="0" width="600" height="900" style="fill:rgb(0,70,174);fill-rule:nonzero;"/>
    </g>
    <g transform="matrix(0.533333,0,0,0.533333,-160,4.26326e-14)">
        <path d="M851.49,183.24C848.773,183.117 846.086,183.852 843.81,185.34C846.505,186.136 848.344,188.623 848.316,191.432L848.316,198.855L840.894,198.855C838.101,198.884 835.621,197.071 834.801,194.401C832.002,199.138 832.002,205.022 834.801,209.759C835.597,207.064 838.084,205.224 840.894,205.253L848.316,205.253L848.316,240.934C848.337,243.615 846.645,246.029 844.118,246.923C847.659,247.405 850.706,252.157 851.541,254.756C852.378,252.163 855.425,247.405 858.965,246.923C856.413,246.052 854.694,243.63 854.714,240.934L854.714,205.251L862.138,205.251C864.932,205.222 867.412,207.035 868.231,209.707C871.028,204.969 871.028,199.086 868.231,194.348C867.435,197.042 864.947,198.881 862.138,198.852L854.714,198.852L854.714,191.43C854.684,188.636 856.498,186.156 859.169,185.337C856.892,183.85 854.206,183.116 851.49,183.239L851.49,183.24Z" style="fill-rule:nonzero;"/>
    </g>
    <g transform="matrix(0.533333,0,0,0.533333,-160,4.26326e-14)">
        <path d="M851.49,184.78C849.994,184.786 848.509,185.028 847.088,185.496C848.83,186.977 849.841,189.148 849.853,191.435L849.853,198.858C849.846,198.962 849.829,199.065 849.801,199.166L849.801,200.343L848.623,200.343C848.523,200.37 848.42,200.388 848.316,200.395L840.892,200.395C838.631,200.38 836.486,199.391 835.006,197.682C834.511,199.098 834.252,200.585 834.238,202.085C834.244,203.581 834.486,205.066 834.954,206.487C836.436,204.745 838.605,203.735 840.892,203.724L849.851,203.724C849.841,203.878 849.799,204.027 849.799,204.183L849.799,204.951C849.827,205.051 849.844,205.154 849.851,205.258L849.851,240.939C849.777,243.111 848.769,245.145 847.086,246.519C848.191,247.208 849.177,248.073 850.004,249.08C850.607,249.911 851.121,250.803 851.54,251.741C851.959,250.804 852.474,249.912 853.076,249.08C853.892,248.097 854.86,247.25 855.943,246.571C854.251,245.183 853.242,243.127 853.178,240.94L853.178,203.772L854.407,203.772C854.507,203.745 854.61,203.728 854.714,203.722L862.137,203.722C864.397,203.737 866.543,204.726 868.023,206.434C868.518,205.018 868.778,203.531 868.792,202.032C868.785,200.536 868.543,199.051 868.075,197.63C866.593,199.372 864.424,200.382 862.137,200.393L854.714,200.393C854.61,200.386 854.507,200.369 854.407,200.341L853.229,200.341L853.229,199.164C853.201,199.063 853.184,198.96 853.177,198.856L853.177,191.434C853.192,189.174 854.182,187.027 855.89,185.547C854.474,185.053 852.987,184.794 851.488,184.779" style="fill:rgb(255,210,0);fill-rule:nonzero;"/>
    </g>
    <g transform="matrix(0.533333,0,0,0.533333,-160,4.26326e-14)">
        <path d="M944.409,313.987C940.072,311.045 936.365,307.268 933.505,302.877C927.133,292.654 924.444,280.104 924.444,267.35C924.444,261.959 930.484,255.89 930.484,251.53C930.524,248.005 930.319,244.482 929.87,240.986C932.013,241.278 935.757,245.081 935.757,245.081C935.757,245.081 935.628,234.143 932.172,232.232C932.172,232.232 933.57,230.794 938.623,230.645C937.203,227.049 930.177,222.659 930.177,222.659C930.629,221.955 931.267,221.388 932.019,221.021C933.962,220.068 936.03,219.396 938.161,219.024C935.825,218.518 933.518,217.885 931.251,217.129C924.711,214.943 918.316,212.345 912.105,209.349C904.163,205.366 895.393,203.314 886.509,203.359C882.934,203.36 877.669,203.457 874.582,205.511C871.757,207.386 871.987,209.825 870.998,210.681C868.668,212.697 864.677,212.626 862.755,212.626C850.315,212.626 849.854,225.937 849.854,225.937C849.854,225.937 853.035,221.124 858.659,221.124C868.01,221.124 875.092,226.218 875.092,228.137C875.092,228.914 874.128,229.058 874.069,229.058C867.961,229.058 858.743,225.542 853.846,225.372L853.846,227.778C864.777,231.581 875.859,236.965 875.859,260.695C875.859,275.638 874.07,290.885 866.594,302.878C863.712,307.269 859.989,311.045 855.639,313.988L900.024,321.988L944.409,313.988L944.409,313.987Z" style="fill-rule:nonzero;"/>
    </g>
    <g transform="matrix(0.533333,0,0,0.533333,-160,4.26326e-14)">
        <path d="M900.022,303.988L855.639,313.988C853.62,313.378 844.126,310.428 837.465,306.719C825.739,300.187 819.659,293.688 805.725,293.05L805.725,282.452C805.725,276.79 807.774,271.689 807.774,266.275C801.9,264.7 785.596,244.765 770.556,235.917C748.426,250.251 731.291,273.782 731.291,284.603L731.291,598.113C731.291,602.781 728.476,609.376 728.476,609.376C736.555,605.958 751.364,585.696 754.482,577.994L754.482,581.681C766.683,576.117 775.617,561.497 779.618,553.934L779.875,557.772C790.775,548.217 804.651,491.734 804.651,491.734L827.775,514.459C827.775,514.459 819.412,531.435 816.154,534.475C817.7,534.653 819.256,534.739 820.812,534.731C819.29,536.919 807.665,553.656 804.021,559.969C800.611,565.875 798.205,563.246 792.963,563.246C788.616,563.246 778.763,570.171 777.145,572.973C775.395,575.839 774.375,579.092 774.177,582.444C774.177,585.684 777.607,590.123 777.607,590.123C777.733,589.338 778.089,588.607 778.63,588.024L788.971,600.719C790.005,601.862 794.616,602.605 796.241,601.13C800.307,597.433 804.243,594.848 807.862,589.509C809.725,586.758 809.867,583.605 812.008,580.651L836.683,547.53L837.295,550.96C840.989,543.503 858.746,529.254 858.746,529.254L877.324,537.804C877.324,537.804 842.637,617.539 811.848,629.799C811.848,629.799 825.243,635.49 841.693,644.031L849.065,647.974C851.136,645.48 853.316,642.709 855.464,639.833C865.3,626.673 874.919,611.421 874.919,611.421C875.589,615.382 870.395,627.615 861.609,642.702L856.08,651.915L862.735,655.807C879.03,665.612 894.333,676.884 900.002,687.239L904.002,677.23L900.002,667.221L900.002,317.265L902.002,312.265L900.022,303.988Z" style="fill-rule:nonzero;"/>
    </g>
    <g transform="matrix(0.533333,0,0,0.533333,-160,4.26326e-14)">
        <path d="M900.002,667.221C894.253,660.985 882.233,653.366 868.724,646.335C885.058,617.019 893.152,570.68 889.354,561.455C889.354,561.455 882.649,585.488 874.456,599.184C866.87,611.868 857.531,626.134 848.502,636.71C841.717,633.778 834.778,631.215 827.717,629.03C854.775,608.187 882.443,539.288 882.443,539.288L853.831,526.028C853.831,526.028 843.127,538.507 839.651,540.824C839.651,540.824 838.166,534.618 837.296,532.428C837.296,532.428 833.195,535.53 830.95,535.604L829.772,528.64C826.947,530.523 822.247,530.125 822.247,530.125C826.374,528.171 831.257,516.2 831.257,516.2L803.935,479.857C803.935,479.857 794.338,525.973 783.407,535.453L783.407,336.873L792.059,344.909L805.164,332.674L805.164,323.357L793.543,334.209L793.543,306.104C794.885,304.089 796.148,302.022 797.331,299.91C799.212,303.189 805.291,313.239 812.432,319.415C813.607,314.637 821.34,310.097 821.34,310.097C821.34,310.097 824.111,317.605 828.352,319.465C829.844,316.837 838.746,311.019 838.746,311.019C838.746,311.019 831.13,312.176 828.046,315.064C825.397,314.471 824.718,304.006 824.718,304.006C824.718,304.006 813.511,309.465 811.562,313.374C809.425,312.796 806.098,304.386 804.803,300.934C807.574,300.625 810.36,300.472 813.148,300.474C816.344,300.474 820.433,301.988 824.717,304.006C829.424,306.222 834.348,309.028 838.745,311.02C844.377,313.57 852.898,314.088 855.382,314.194C852.4,316.265 849.269,318.113 846.015,319.723C842.761,321.333 859.426,319.599 868.847,314.91C872.272,312.844 875.555,310.552 878.676,308.05C877.241,312.233 875.055,316.119 872.224,319.517C886.06,318.346 892.95,310.445 894.903,307.794C896.147,311.179 897.871,314.369 900.022,317.264L905.022,317.264L905.022,657.264L900.002,667.221ZM798.047,267.298L798.302,273.646L798.302,292.333C793.283,290.606 786.976,282.36 783.918,277.999L783.918,275.439C783.986,273.465 784.877,271.607 786.375,270.32L783.355,269.246C781.871,270.813 781.014,272.873 780.949,275.03L780.949,276.515L771.94,286.191L763.084,272.778L763.084,269.502C763.084,267.294 764.782,264.832 766.207,263.154L763.237,262.079C761.738,264.021 760.165,266.638 760.165,269.092L760.165,271.753L749.978,282.249L744.808,271.14C751.013,262.545 761.074,252.921 770.557,246.016C770.557,246.016 791.121,264.897 798.047,267.298ZM745.927,285.421L745.927,300.832L738.76,307.486L738.76,284.603C738.964,281.87 739.806,279.222 741.216,276.872L745.927,285.421ZM768.247,291.359L768.247,300.881L760.006,308.612L760.006,278.818L768.247,291.359ZM757.086,308.561L748.843,300.882L748.843,289.723L757.086,281.071L757.086,308.561ZM794.713,296.991C792.799,299.696 787.786,306.312 782.376,309.227L782.376,283.067C783.617,285.132 789.31,294.342 794.713,296.991ZM779.456,284.397L779.456,308.56L771.213,300.881L771.213,292.332L779.456,284.397ZM745.926,310.147L745.926,334.26L738.759,327.553L738.759,316.853L745.926,310.147ZM757.08,317.878L757.08,326.529L748.836,334.207L748.836,310.198L757.08,317.878ZM768.238,310.2L768.238,334.21L759.997,326.479L759.997,317.93L768.238,310.2ZM779.451,317.93L779.451,326.479L771.208,334.209L771.208,310.2L779.451,317.93ZM790.61,334.26L782.366,326.529L782.366,318.493C785.209,316.758 788.068,313.569 790.609,310.2L790.61,334.26ZM769.725,344.908L778.428,336.819L778.428,535.449L779.452,551.728L761.023,570.362L761.023,336.766L769.725,344.908ZM756.053,562.94C756.053,569.325 744.394,584.213 738.75,587.615L738.75,336.875L747.35,344.911L756.053,336.821L756.053,562.94Z" style="fill:rgb(176,126,91);fill-rule:nonzero;"/>
    </g>
    <g transform="matrix(0.533333,0,0,0.533333,-160,4.26326e-14)">
        <path d="M828.335,541.388L834.683,537.036L835.655,542.003L809.598,577.428C807.677,580.012 806.064,586.591 806.064,586.591C806.064,586.591 803.25,585.26 803.25,582.855C803.25,580.493 803.558,577.684 803.558,577.684C802.047,579.222 799.979,580.09 797.823,580.09C797.823,577.187 803.437,574.038 803.659,569.904C799.378,573.078 795.66,571.449 790.708,572.976C785.315,574.637 783.813,576.903 782.159,576.816C781.185,576.763 780.303,575.083 780.675,574.051C781.319,572.264 787.989,567.318 792.652,566.424C793.769,566.21 802.555,568.336 804.325,565.605L824.597,534.327C825.296,534.195 825.97,533.953 826.592,533.608C827.214,533.263 826.524,539.359 828.334,541.388L828.335,541.388ZM787.52,576.452C787.871,576.835 787.847,577.429 787.467,577.782L784.601,580.29C784.19,580.611 783.598,580.542 783.271,580.136C782.919,579.754 782.942,579.159 783.323,578.805L786.189,576.297C786.372,576.137 786.614,576.063 786.855,576.093C787.113,576.127 787.35,576.255 787.521,576.452L787.52,576.452ZM791.871,579.472C792.72,580.367 792.682,581.78 791.788,582.629L791.768,582.647L784.806,588.738C783.749,589.523 782.256,589.302 781.472,588.245C780.773,587.303 780.863,585.993 781.683,585.156L788.645,579.115C788.992,578.822 789.421,578.643 789.874,578.602C790.64,578.56 791.38,578.882 791.871,579.472ZM795.861,584.182C796.255,584.596 796.475,585.147 796.475,585.719C796.475,586.33 796.223,586.915 795.78,587.336L795.758,587.356L788.746,593.448C787.775,594.226 786.357,594.07 785.578,593.099L785.571,593.09C784.72,592.175 784.767,590.724 785.675,589.866L792.636,583.825C792.964,583.533 793.377,583.354 793.814,583.312C794.594,583.268 795.351,583.589 795.861,584.182ZM798.264,587.919C799.022,587.856 799.766,588.161 800.261,588.738C801.117,589.659 801.072,591.098 800.159,591.963L793.196,598.005C792.793,598.295 792.309,598.451 791.812,598.451C790.512,598.451 789.442,597.381 789.442,596.081C789.442,595.484 789.668,594.909 790.073,594.471L797.087,588.38C797.418,588.102 797.832,587.94 798.264,587.919Z" style="fill:rgb(204,9,47);fill-rule:nonzero;"/>
    </g>
    <g transform="matrix(0.533333,0,0,0.533333,-160,4.26326e-14)">
        <path d="M899.978,303.988L944.361,313.988C946.38,313.378 955.874,310.428 962.535,306.719C974.261,300.187 980.341,293.688 994.275,293.05L994.275,282.452C994.275,276.79 992.226,271.689 992.226,266.275C998.1,264.7 1014.4,244.765 1029.44,235.917C1051.57,250.251 1068.71,273.782 1068.71,284.603L1068.71,598.113C1068.71,602.781 1071.52,609.376 1071.52,609.376C1063.44,605.958 1048.64,585.696 1045.52,577.994L1045.52,581.681C1033.32,576.117 1024.38,561.497 1020.38,553.934L1020.12,557.772C1009.23,548.217 995.349,491.734 995.349,491.734L972.225,514.459C972.225,514.459 980.588,531.435 983.846,534.475C982.3,534.653 980.744,534.739 979.188,534.731C980.71,536.919 992.335,553.656 995.979,559.969C999.389,565.875 1001.8,563.246 1007.04,563.246C1011.38,563.246 1021.24,570.171 1022.86,572.973C1024.61,575.839 1025.62,579.092 1025.82,582.444C1025.82,585.684 1022.39,590.123 1022.39,590.123C1022.27,589.338 1021.91,588.607 1021.37,588.024L1011.03,600.719C1010,601.862 1005.38,602.605 1003.76,601.13C999.693,597.433 995.757,594.848 992.138,589.509C990.275,586.758 990.133,583.605 987.992,580.651L963.317,547.53L962.705,550.96C959.011,543.503 941.254,529.254 941.254,529.254L922.676,537.804C922.676,537.804 957.363,617.539 988.152,629.799C988.152,629.799 974.757,635.49 958.307,644.031L950.935,647.974C948.864,645.48 946.684,642.709 944.536,639.833C934.7,626.673 925.081,611.421 925.081,611.421C924.411,615.382 929.605,627.615 938.391,642.702L943.92,651.915L937.265,655.807C920.97,665.612 905.667,676.884 899.998,687.239L895.998,677.23L899.998,667.221L899.998,317.265L897.998,312.265L899.978,303.988Z" style="fill-rule:nonzero;"/>
    </g>
    <g transform="matrix(0.533333,0,0,0.533333,-160,4.26326e-14)">
        <path d="M899.998,667.221C905.747,660.985 917.767,653.366 931.276,646.335C914.942,617.019 906.848,570.68 910.646,561.455C910.646,561.455 917.351,585.488 925.544,599.184C933.13,611.868 942.469,626.134 951.498,636.71C958.283,633.778 965.222,631.215 972.283,629.03C945.225,608.187 917.557,539.288 917.557,539.288L946.169,526.028C946.169,526.028 956.873,538.507 960.349,540.824C960.349,540.824 961.834,534.618 962.704,532.428C962.704,532.428 966.805,535.53 969.05,535.604L970.228,528.64C973.053,530.523 977.753,530.125 977.753,530.125C973.626,528.171 968.743,516.2 968.743,516.2L996.065,479.857C996.065,479.857 1005.66,525.973 1016.59,535.453L1016.59,336.873L1007.94,344.909L994.836,332.674L994.836,323.357L1006.46,334.209L1006.46,306.104C1005.12,304.089 1003.85,302.022 1002.67,299.91C1000.79,303.189 994.709,313.239 987.568,319.415C986.393,314.637 978.66,310.097 978.66,310.097C978.66,310.097 975.889,317.605 971.648,319.465C970.156,316.837 961.254,311.019 961.254,311.019C961.254,311.019 968.87,312.176 971.954,315.064C974.603,314.471 975.282,304.006 975.282,304.006C975.282,304.006 986.489,309.465 988.438,313.374C990.575,312.796 993.902,304.386 995.197,300.934C992.426,300.625 989.64,300.472 986.852,300.474C983.656,300.474 979.567,301.988 975.283,304.006C970.576,306.222 965.652,309.028 961.255,311.02C955.623,313.57 947.102,314.088 944.618,314.194C947.6,316.265 950.731,318.113 953.985,319.723C957.239,321.333 940.574,319.599 931.153,314.91C927.728,312.844 924.445,310.552 921.324,308.05C922.759,312.233 924.945,316.119 927.776,319.517C913.94,318.346 907.05,310.445 905.097,307.794C903.853,311.179 902.129,314.369 899.978,317.264L894.978,317.264L894.978,657.264L899.998,667.221ZM1001.95,267.298L1001.7,273.646L1001.7,292.333C1006.72,290.606 1013.02,282.36 1016.08,277.999L1016.08,275.439C1016.01,273.465 1015.12,271.607 1013.62,270.32L1016.64,269.246C1018.13,270.813 1018.99,272.873 1019.05,275.03L1019.05,276.515L1028.06,286.191L1036.92,272.778L1036.92,269.502C1036.92,267.294 1035.22,264.832 1033.79,263.154L1036.76,262.079C1038.26,264.021 1039.84,266.638 1039.84,269.092L1039.84,271.753L1050.02,282.249L1055.19,271.14C1048.99,262.545 1038.93,252.921 1029.44,246.016C1029.44,246.016 1008.88,264.897 1001.95,267.298ZM1054.07,285.421L1054.07,300.832L1061.24,307.486L1061.24,284.603C1061.04,281.87 1060.19,279.222 1058.78,276.872L1054.07,285.421ZM1031.75,291.359L1031.75,300.881L1039.99,308.612L1039.99,278.818L1031.75,291.359ZM1042.91,308.561L1051.16,300.882L1051.16,289.723L1042.91,281.071L1042.91,308.561ZM1005.29,296.991C1007.2,299.696 1012.21,306.312 1017.62,309.227L1017.62,283.067C1016.38,285.132 1010.69,294.342 1005.29,296.991ZM1020.54,284.397L1020.54,308.56L1028.79,300.881L1028.79,292.332L1020.54,284.397ZM1054.07,310.147L1054.07,334.26L1061.24,327.553L1061.24,316.853L1054.07,310.147ZM1042.92,317.878L1042.92,326.529L1051.16,334.207L1051.16,310.198L1042.92,317.878ZM1031.76,310.2L1031.76,334.21L1040,326.479L1040,317.93L1031.76,310.2ZM1020.55,317.93L1020.55,326.479L1028.79,334.209L1028.79,310.2L1020.55,317.93ZM1009.39,334.26L1017.63,326.529L1017.63,318.493C1014.79,316.758 1011.93,313.569 1009.39,310.2L1009.39,334.26ZM1030.28,344.908L1021.57,336.819L1021.57,535.449L1020.55,551.728L1038.98,570.362L1038.98,336.766L1030.28,344.908ZM1043.95,562.94C1043.95,569.325 1055.61,584.213 1061.25,587.615L1061.25,336.875L1052.65,344.911L1043.95,336.821L1043.95,562.94Z" style="fill:rgb(176,126,91);fill-rule:nonzero;"/>
    </g>
    <g transform="matrix(0.533333,0,0,0.533333,-160,4.26326e-14)">
        <path d="M971.665,541.388L965.317,537.036L964.345,542.003L990.402,577.428C992.323,580.012 993.936,586.591 993.936,586.591C993.936,586.591 996.75,585.26 996.75,582.855C996.75,580.493 996.442,577.684 996.442,577.684C997.953,579.222 1000.02,580.09 1002.18,580.09C1002.18,577.187 996.563,574.038 996.341,569.904C1000.62,573.078 1004.34,571.449 1009.29,572.976C1014.69,574.637 1016.19,576.903 1017.84,576.816C1018.82,576.763 1019.7,575.083 1019.33,574.051C1018.68,572.264 1012.01,567.318 1007.35,566.424C1006.23,566.21 997.445,568.336 995.675,565.605L975.403,534.327C974.704,534.195 974.03,533.953 973.408,533.608C972.786,533.263 973.476,539.359 971.666,541.388L971.665,541.388ZM1012.48,576.452C1012.13,576.835 1012.15,577.429 1012.53,577.782L1015.4,580.29C1015.81,580.611 1016.4,580.542 1016.73,580.136C1017.08,579.754 1017.06,579.159 1016.68,578.805L1013.81,576.297C1013.63,576.137 1013.39,576.063 1013.14,576.093C1012.89,576.127 1012.65,576.255 1012.48,576.452L1012.48,576.452ZM1008.13,579.472C1007.28,580.367 1007.32,581.78 1008.21,582.629L1008.23,582.647L1015.19,588.738C1016.25,589.523 1017.74,589.302 1018.53,588.245C1019.23,587.303 1019.14,585.993 1018.32,585.156L1011.36,579.115C1011.01,578.822 1010.58,578.643 1010.13,578.602C1009.36,578.56 1008.62,578.882 1008.13,579.472ZM1004.14,584.182C1003.75,584.596 1003.52,585.147 1003.52,585.719C1003.52,586.33 1003.78,586.915 1004.22,587.336L1004.24,587.356L1011.25,593.448C1012.23,594.226 1013.64,594.07 1014.42,593.099L1014.43,593.09C1015.28,592.175 1015.23,590.724 1014.33,589.866L1007.36,583.825C1007.04,583.533 1006.62,583.354 1006.19,583.312C1005.41,583.268 1004.65,583.589 1004.14,584.182ZM1001.74,587.919C1000.98,587.856 1000.23,588.161 999.739,588.738C998.883,589.659 998.928,591.098 999.841,591.963L1006.8,598.005C1007.21,598.295 1007.69,598.451 1008.19,598.451C1009.49,598.451 1010.56,597.381 1010.56,596.081C1010.56,595.484 1010.33,594.909 1009.93,594.471L1002.91,588.38C1002.58,588.102 1002.17,587.94 1001.74,587.919Z" style="fill:rgb(204,9,47);fill-rule:nonzero;"/>
    </g>
    <g transform="matrix(0.533333,0,0,0.533333,-160,4.26326e-14)">
        <path d="M889.734,206.637C901.192,206.637 909.251,211.861 920.093,216.67C922.934,217.93 925.543,218.951 927.872,219.741C926.608,220.708 925.605,221.976 924.954,223.428C924.954,223.428 929.813,224.328 932.018,228.395C932.018,228.395 927.398,228.919 926.643,231.619C929.231,231.814 931.802,235.076 931.814,238.224L925.261,236.175C926.269,241.233 926.801,246.375 926.848,251.533C926.848,255.619 920.962,260.427 920.962,267.352C920.962,289.086 926.437,297.44 930.331,304.159C931.854,306.788 933.092,309.813 935.655,312.094C924.437,306.121 916.099,298.655 916.099,291.72L916.099,265.458L913.181,265.458L913.181,291.72C913.181,296.749 914.409,299.092 914.409,299.092C916.17,304.656 919.73,313.244 921.935,316.702C911.614,311.124 906.371,304.139 906.371,301.549L906.371,265.457L903.453,265.457L903.453,302.06L904.016,304.568C902.765,306.448 901.139,308.674 900.023,309.431C898.91,308.675 897.333,306.445 896.08,304.568L896.644,302.06L896.644,265.457L893.726,265.457L893.726,301.549C893.726,304.138 888.483,311.124 878.163,316.702C880.368,313.243 883.927,304.656 885.687,299.092C885.687,299.092 886.916,296.75 886.916,291.72L886.916,265.458L883.998,265.458L883.998,291.72C883.998,298.647 875.691,306.125 864.493,312.094C867.03,309.811 868.25,306.773 869.765,304.159C874.023,296.811 879.287,287.476 879.287,260.901C879.287,250.927 877.812,244.146 875.243,239.4C874.462,237.834 873.41,233.666 879.389,233.666C882.486,233.666 889.577,239.144 889.577,239.144C889.294,236.415 887.883,233.928 885.686,232.284C884.78,231.57 884.206,230.514 884.1,229.365C884.511,227.827 885.502,226.505 886.863,225.679C887.696,225.301 874.68,223.033 874.68,217.13C874.68,215.901 875.453,215.082 878.159,215.082C881.704,215.082 887.471,219.331 892.597,219.331C896.386,219.331 897.88,218.409 901.76,218.409C906.502,218.409 916.395,227.388 919.779,227.06C915.996,224.685 909.885,215.695 900.634,215.695C897.423,215.695 894.517,216.412 891.52,216.412C887.679,216.412 883.897,212.879 879.746,212.879C876.964,212.879 873.857,213.034 873.397,212.315C872.592,211.06 873.317,210.332 874.063,209.295C875.472,207.338 879.429,206.77 883.33,206.634C884.5,206.593 885.668,206.573 886.762,206.583L889.733,206.636L889.734,206.637Z" style="fill:rgb(176,126,91);fill-rule:nonzero;"/>
    </g>
    <g transform="matrix(0.533333,0,0,0.533333,-160,4.26326e-14)">
        <path d="M852.53,220.69C854.352,217.748 857.605,216.002 861.064,216.109C863.62,216.109 872.056,215.932 872.056,215.932C873.18,218.853 878.305,223.734 878.305,228.81C878.305,228.81 873.103,219.433 858.582,219.433C856.496,219.401 854.429,219.83 852.528,220.689L852.53,220.69ZM876.14,230.6C876.14,230.6 873.047,233.858 872.375,235.597C869.314,234.437 863.976,228.936 863.976,228.936C863.976,228.936 868.501,231.578 876.139,230.6L876.14,230.6Z" style="fill:rgb(204,9,47);fill-rule:nonzero;"/>
    </g>
    <g transform="matrix(0.533333,0,0,0.533333,-160,4.26326e-14)">
        <path d="M871.24,221.97C871.24,221.97 867.672,220.826 867.672,219.628C867.672,218.102 869.405,218.102 870.441,219.291C870.934,220.1 871.209,221.024 871.239,221.971L871.24,221.97Z" style="fill-rule:nonzero;"/>
    </g>
    <g transform="matrix(0.533333,0,0,0.533333,-160,4.26326e-14)">
        <ellipse cx="887.881" cy="223.927" rx="7.373" ry="5.596"/>
    </g>
    <g transform="matrix(0.533333,0,0,0.533333,-160,4.26326e-14)">
        <circle cx="887.873" cy="223.927" r="5.121" style="fill:rgb(255,210,0);"/>
    </g>
    <g transform="matrix(0.533333,0,0,0.533333,-160,4.26326e-14)">
        <circle cx="887.875" cy="223.928" r="2.346"/>
    </g>
    <g transform="matrix(0.533333,0,0,0.533333,-160,4.26326e-14)">
        <path d="M805.152,591.952L821.354,600.791L817.423,618.819L801.222,609.98L805.152,591.952Z" style="fill-rule:nonzero;"/>
    </g>
    <g transform="matrix(0.533333,0,0,0.533333,-160,4.26326e-14)">
        <path d="M729.677,418.73L723.841,421.393L789.777,565.813L796.791,565.813L729.677,418.73ZM807.439,589.05L802.679,593.965L805.648,600.518L811.432,597.856L807.439,589.05Z" style="fill-rule:nonzero;"/>
    </g>
    <g transform="matrix(0.533333,0,0,0.533333,-160,4.26326e-14)">
        <path d="M750.167,532.6C750.167,532.6 755.721,544.072 759.942,545.645C757.759,545.05 750.671,547.651 750.671,547.651C750.671,547.651 763.17,558.816 773.771,559.549C782.761,560.168 787.126,555.681 787.126,555.681L785.325,546.157C781.426,541.798 776.514,538.464 771.023,536.45C762.129,533.352 750.166,532.602 750.166,532.602L750.167,532.6ZM792.037,512.05C792.037,512.05 784.368,518.615 782.269,526.219C780.17,533.823 783.637,542.466 783.637,542.466L790.081,554.487C790.081,554.487 799.012,549.734 802.811,542.627C806.61,535.52 805.217,525.929 805.217,525.929C805.217,525.929 798.142,528.563 797.242,529.729C798.735,521.845 792.036,512.05 792.036,512.05L792.037,512.05ZM767.387,508.98C767.387,508.98 758.665,511.928 750.195,511.418C742.127,510.931 735.418,504.156 735.418,504.156C735.418,504.156 742.106,499.63 745.407,500.233C741.776,498.906 736.511,489.81 736.511,489.81C736.511,489.81 743.993,487.549 750.627,490.05C757.261,492.551 763.046,499.82 763.046,499.82L767.388,508.98L767.387,508.98ZM770.387,466.38C770.387,466.38 774.749,475.412 773.715,478.551C775.068,476.461 780.189,473.206 780.189,473.206C780.189,473.206 783.285,487.83 780.324,496.862C777.363,505.894 768.35,509.332 768.35,509.332L758.407,489.995C758.407,489.995 756.927,482.831 760.027,477.158C763.127,471.485 770.387,466.379 770.387,466.379L770.387,466.38ZM713.637,442.47C713.637,442.47 723.064,441.48 731.688,445.053C738.898,448.046 741.108,453.486 741.108,453.486L744.659,463.006C744.659,463.006 734.398,466.854 726.291,463.912C718.184,460.97 712.226,451.232 712.226,451.232C712.226,451.232 717.892,449.083 720.049,449.889C716.907,448.499 713.639,442.47 713.639,442.47L713.639,442.471L713.637,442.47ZM743.287,424.8C743.287,424.8 747.424,430.113 747.548,436.224C748.651,432.975 753.816,429.384 753.816,429.384C753.816,429.384 759.128,442.239 757.962,451.366C756.796,460.493 749.153,465.893 749.153,465.893L739.622,447.801C739.622,447.801 736.516,440.386 737.431,434.634C738.346,428.882 743.287,424.798 743.287,424.798L743.287,424.8ZM710.637,390.2C710.637,390.2 708.928,400.054 711.836,405.73C714.434,410.795 716.088,411.906 716.088,411.906C711.134,408.637 703.644,408.355 703.644,408.355C703.644,408.355 706.31,419.076 712.681,423.967C719.052,428.858 728.876,427.715 728.876,427.715C728.876,427.715 735.336,419.115 734.886,409.85C734.436,400.585 727.078,390.653 727.078,390.653C727.078,390.653 724.176,396.673 723.92,401.167C722.042,396.534 710.635,390.201 710.635,390.201L710.637,390.2ZM787.637,555.27L787.902,558.807C793.777,558.862 794.652,558.277 796.158,560.129C797.611,561.761 799.958,562.254 801.945,561.344C804.335,560.237 805.405,557.371 804.325,554.968C803.23,552.569 800.999,552.048 798.85,552.472C797.531,552.732 796.663,553.785 795.544,554.363C793.416,555.465 787.635,555.271 787.635,555.271L787.637,555.27Z" style="fill-rule:nonzero;"/>
    </g>
    <g transform="matrix(0.533333,0,0,0.533333,-160,4.26326e-14)">
        <path d="M787.127,552.57L789.986,554.665C786.919,559.679 785.962,560.111 786.735,562.37C787.347,564.461 786.518,566.722 784.7,567.923C782.495,569.364 779.497,568.754 778.031,566.565C776.577,564.365 777.316,562.199 778.814,560.6C779.734,559.618 781.084,559.44 782.167,558.797C784.229,557.574 787.126,552.569 787.126,552.569L787.127,552.57ZM767.227,510.57L767.491,514.107C773.367,514.161 774.241,513.577 775.747,515.428C777.2,517.059 779.547,517.552 781.534,516.643C783.942,515.53 785.003,512.686 783.913,510.268C782.818,507.868 780.588,507.348 778.439,507.772C777.119,508.033 776.252,509.085 775.134,509.663C773.005,510.764 767.225,510.571 767.225,510.571L767.227,510.57Z" style="fill-rule:nonzero;"/>
    </g>
    <g transform="matrix(0.533333,0,0,0.533333,-160,4.26326e-14)">
        <path d="M768.417,511.82L770.917,514.337C767.108,518.811 766.093,519.09 766.506,521.441C766.788,523.609 765.622,525.706 763.632,526.611C761.23,527.691 758.364,526.622 757.256,524.232C756.161,521.833 757.228,519.807 758.957,518.461C760.018,517.636 761.382,517.668 762.55,517.203C764.777,516.316 768.417,511.821 768.417,511.821L768.417,511.82ZM747.447,468.72L747.712,472.257C753.588,472.311 754.462,471.727 755.969,473.58C757.419,475.206 759.776,475.699 761.757,474.793C764.147,473.685 765.217,470.819 764.136,468.416C763.039,466.017 760.81,465.497 758.66,465.921C757.34,466.182 756.473,467.234 755.354,467.812C753.226,468.914 747.446,468.719 747.446,468.719L747.447,468.72Z" style="fill-rule:nonzero;"/>
    </g>
    <g transform="matrix(0.533333,0,0,0.533333,-160,4.26326e-14)">
        <path d="M749.077,467.98L751.576,470.496C747.767,474.971 746.754,475.25 747.165,477.601C747.446,479.768 746.281,481.865 744.292,482.77C741.89,483.85 739.024,482.781 737.916,480.391C736.822,477.991 737.889,475.965 739.617,474.62C740.678,473.793 742.041,473.827 743.211,473.36C745.438,472.473 749.077,467.98 749.077,467.98ZM726.377,424.54L726.641,428.076C732.517,428.131 733.392,427.546 734.897,429.397C736.346,431.024 738.703,431.52 740.685,430.614C743.076,429.507 744.146,426.64 743.065,424.237C741.97,421.837 739.739,421.316 737.589,421.741C736.271,422.002 735.403,423.055 734.284,423.632C732.156,424.733 726.375,424.54 726.375,424.54L726.377,424.54Z" style="fill-rule:nonzero;"/>
    </g>
    <g transform="matrix(0.533333,0,0,0.533333,-160,4.26326e-14)">
        <path d="M728.007,423.8L730.505,426.317C726.697,430.792 725.682,431.07 726.095,433.422C726.376,435.589 725.211,437.686 723.222,438.591C720.82,439.671 717.955,438.601 716.847,436.212C715.751,433.813 716.819,431.785 718.546,430.441C719.608,429.616 720.971,429.648 722.14,429.181C724.366,428.295 728.006,423.801 728.006,423.801L728.007,423.8Z" style="fill-rule:nonzero;"/>
    </g>
    <g transform="matrix(0.533333,0,0,0.533333,-160,4.26326e-14)">
        <path d="M807.486,597.062L817.535,602.544L815.097,613.727L805.048,608.245L807.486,597.062ZM763.497,500.09C761.391,500.964 758.267,491.795 755.973,486.772C753.62,481.617 748.842,473.672 750.199,473.052C751.688,472.372 753.65,476.544 756.058,481.819C758.466,487.094 765.47,499.268 763.497,500.088L763.497,500.09ZM741.867,451.8C739.762,452.677 737.457,446.673 735.164,441.649C732.811,436.495 730.519,432.854 731.876,432.234C733.366,431.554 735.566,436.071 737.492,440.289C739.358,444.377 743.84,450.979 741.866,451.801L741.867,451.8ZM791.907,561.29C790.254,561.732 783.038,546.628 777.204,533.848C771.37,521.068 767.027,510.729 768.384,510.112C769.874,509.431 774.597,521.503 780.433,534.284C786.269,547.065 793.146,560.957 791.908,561.29L791.907,561.29Z" style="fill:rgb(255,210,0);fill-rule:nonzero;"/>
        <circle cx="799.972" cy="556.984" r="2.606" style="fill:rgb(255,210,0);"/>
        <circle cx="782.047" cy="563.933" r="2.606" style="fill:rgb(255,210,0);"/>
        <circle cx="779.554" cy="512.25" r="2.606" style="fill:rgb(255,210,0);"/>
        <circle cx="761.621" cy="522.24" r="2.606" style="fill:rgb(255,210,0);"/>
        <circle cx="759.778" cy="470.414" r="2.606" style="fill:rgb(255,210,0);"/>
        <circle cx="742.279" cy="478.402" r="2.606" style="fill:rgb(255,210,0);"/>
        <circle cx="738.708" cy="426.239" r="2.606" style="fill:rgb(255,210,0);"/>
        <circle cx="721.212" cy="434.223" r="2.606" style="fill:rgb(255,210,0);"/>
    </g>
    <g transform="matrix(0.533333,0,0,0.533333,-160,4.26326e-14)">
        <path d="M713.537,396.19C713.537,396.19 713.282,403.391 715.664,407.475C718.046,411.559 723.368,413.19 723.368,413.19C723.368,413.19 723.622,405.991 721.24,401.907C718.858,397.823 713.537,396.19 713.537,396.19ZM708.557,412.48C708.557,412.48 714.812,412.848 718.425,415.616C722.038,418.384 723.434,424.151 723.434,424.151C720.654,424.297 717.911,423.467 715.678,421.804C712.067,419.035 708.557,412.48 708.557,412.48ZM728.187,397.94C726.91,401.086 726.284,404.458 726.347,407.852C726.586,412.995 729.587,418.789 729.587,418.789C729.587,418.789 732.3,412.615 732.061,407.471C731.822,402.327 728.914,399.396 728.187,397.94ZM717.657,444.3C719.745,447.049 722.406,449.31 725.456,450.926C730.184,453.263 737.229,453.35 737.229,453.35C734.964,450.527 732.162,448.182 728.984,446.45C724.256,444.113 717.657,444.298 717.657,444.298L717.657,444.3ZM719.177,454.26C719.177,454.26 721.434,458.681 725.561,460.576C729.688,462.471 738.135,462.316 738.135,462.316C736.117,459.825 733.609,457.774 730.767,456.289C726.639,454.392 719.176,454.26 719.176,454.26L719.177,454.26ZM742.947,430.68C741.444,433.319 740.667,436.309 740.696,439.346C740.941,443.891 743.923,448.857 743.923,448.857C743.923,448.857 746.02,443.164 745.775,438.62C745.566,435.767 744.588,433.023 742.946,430.68L742.947,430.68ZM752.137,436.51C752.137,436.51 747.868,442.24 747.255,448.131C746.642,454.022 749.683,460.073 749.683,460.073C749.683,460.073 754.84,454.895 755.453,449.005C756.066,443.115 752.137,436.512 752.137,436.512L752.137,436.51ZM740.367,490.91C740.837,492.503 741.618,493.987 742.664,495.277C744.121,496.975 745.741,498.526 747.5,499.909C749.661,499.33 751.929,499.277 754.115,499.754C757.78,500.549 762.655,503.814 762.655,503.814C762.655,503.814 757.408,495.983 751.96,492.938C748.392,491.101 744.349,490.393 740.369,490.909L740.367,490.91ZM739.827,504.37C739.827,504.37 746.62,501.468 752.214,502.217C757.808,502.966 762.853,507.388 762.853,507.388C762.853,507.388 755.292,510.004 749.698,509.256C746.012,508.593 742.589,506.899 739.826,504.37L739.827,504.37ZM768.537,472.79C768.537,472.79 762.53,479.154 762.026,484.677C761.522,490.2 766.897,495.346 766.897,495.346C766.755,493.364 766.979,491.373 767.558,489.472C768.324,487.753 769.295,486.134 770.451,484.65C770.927,482.987 771.101,481.252 770.965,479.527C770.506,477.17 769.687,474.898 768.537,472.79ZM777.157,480.16C777.157,480.16 771.495,485.889 769.999,492.024C768.503,498.159 771.169,504.7 771.169,504.7C771.169,504.7 776.318,500.638 777.815,494.504C779.312,488.37 777.156,480.16 777.156,480.16L777.157,480.16ZM791.337,517.14C792.815,520.271 793.895,523.574 794.552,526.973C795.204,531.45 794.6,533 794.6,533C794.6,533 791.948,535.607 790.759,537.14C789.231,539.11 789.007,542.716 789.007,542.716C789.007,542.716 783.682,534.8 784.503,529.013C785.324,523.226 791.337,517.139 791.337,517.139L791.337,517.14ZM802.557,529.53C802.557,529.53 795.739,534.033 793.034,538.653C791.425,541.488 790.958,544.834 791.73,548.002C794.884,547.554 797.67,545.696 799.296,542.956C802.002,538.338 802.556,529.529 802.556,529.529L802.557,529.53ZM757.757,548.55C757.757,548.55 767.583,548.282 773.589,549.759C779.595,551.236 781.781,554.454 781.781,554.454C781.781,554.454 775.028,557.616 769.022,556.14C763.016,554.664 757.756,548.549 757.756,548.549L757.757,548.55ZM756.097,536.89C756.097,536.89 760.53,543.763 766.261,546.257C774.159,549.692 783.304,548.027 783.304,548.027C783.304,548.027 778.336,541.938 771.5,539.25C764.664,536.562 756.097,536.891 756.097,536.891L756.097,536.89Z" style="fill:rgb(0,122,80);fill-rule:nonzero;"/>
    </g>
    <g transform="matrix(0.533333,0,0,0.533333,-160,4.26326e-14)">
        <path d="M1092.52,401.944L1093.8,404.656C1092.53,405.134 1091.46,406.038 1090.78,407.215C1089.84,409.062 1091.39,411.67 1091.39,411.67C1091.39,411.67 1080.59,410.727 1078.9,411.824C1077.37,412.814 1079.55,420.298 1078.54,426.619C1077.14,435.429 1073.67,434.689 1073.52,436.396C1073.39,438.055 1074.86,440.645 1074.86,440.645C1074.86,440.645 1072.83,441.283 1072.4,442.13C1071.7,443.492 1072.88,446.005 1072.04,447.658L1055.81,479.501C1055.17,480.758 1053.45,481.238 1052.59,482.931C1052.13,484.162 1052.08,485.506 1052.43,486.77C1052.79,488.034 1049.39,486.952 1048.34,489.023C1047.67,490.662 1047.51,492.462 1047.88,494.193C1046.65,494.412 1045.59,495.188 1045.01,496.292C1044,498.273 1045.71,499.312 1045.27,500.183L1027.4,535.251C1025.77,538.45 1020.06,539.091 1016.75,545.592C1014.86,549.161 1015.41,553.559 1018.13,556.547C1020.85,559.535 1013.36,556.979 1012.09,559.466C1010.8,562.001 1011.82,565.85 1015.26,567.605C1018.71,569.36 1022.47,567.939 1023.76,565.404C1025.03,562.917 1022.48,558.8 1022.48,558.8C1026.51,559.206 1030.38,557.054 1032.16,553.424C1035.47,546.923 1032.68,541.983 1034.31,538.783L1052.18,503.715C1052.62,502.844 1054.44,503.598 1055.45,501.617C1056.01,500.506 1056.01,499.196 1055.45,498.085C1057.08,497.357 1058.45,496.162 1059.39,494.654C1060.45,492.583 1058.83,489.996 1058.83,489.996C1060.07,489.555 1061.12,488.73 1061.85,487.642C1062.71,485.949 1062.08,484.292 1062.72,483.033L1078.95,451.192C1079.79,449.537 1082.51,448.971 1083.2,447.607C1083.63,446.761 1082.94,444.741 1082.94,444.741C1082.94,444.741 1085.93,444.445 1087.19,443.358C1088.49,442.24 1085.86,439.842 1092.16,433.529C1096.68,429.001 1103.98,426.337 1103.88,424.519C1103.78,422.509 1096.66,414.332 1096.66,414.332C1096.66,414.332 1099.66,414.079 1100.61,412.234C1101.16,410.977 1101.27,409.567 1100.91,408.24L1103.88,407.728L1103.88,393.65L1092.52,401.944L1092.52,401.944ZM994.381,598.018C993.892,599 993.892,600.157 994.381,601.139C994.87,602.121 990.798,600.019 989.569,600.627C988.411,601.2 989.569,618.085 989.569,618.085C989.569,618.085 1003.86,609.067 1003.65,607.795C1003.42,606.443 1000.42,604.16 1000.42,604.16C1001.49,603.995 1002.43,603.33 1002.93,602.369C1003.4,601.444 1003.46,598.801 1000.22,597.146C999.248,596.608 998.147,596.36 997.042,596.43C995.951,596.5 994.961,597.091 994.381,598.018Z" style="fill-rule:nonzero;"/>
    </g>
    <g transform="matrix(0.533333,0,0,0.533333,-160,4.26326e-14)">
        <path d="M1095.12,402.51L1101.87,405.941L1101.77,397.8L1095.12,402.51ZM1092.51,407.425C1091.32,409.224 1091.81,411.647 1093.61,412.838C1095.41,414.029 1097.83,413.537 1099.02,411.738C1100.21,409.939 1099.72,407.516 1097.92,406.325C1097.79,406.241 1097.66,406.164 1097.52,406.095C1096.85,405.744 1096.08,405.585 1095.32,405.634C1094.13,405.689 1093.06,406.371 1092.51,407.426L1092.51,407.425ZM1080.89,413.62C1080.18,414.08 1081.14,420.165 1080.94,425.342C1080.74,430.224 1079.18,431.599 1078.33,433.277C1077.54,434.826 1074.69,436.656 1074.69,436.656L1077.05,439.011C1077.05,439.011 1078.58,436.625 1080.99,431.893C1083.83,426.314 1083.74,416.205 1084.57,415.666C1086.76,414.899 1088.98,414.249 1091.23,413.72C1091.23,413.72 1085.79,413.426 1082.78,413.466C1082.15,413.427 1081.51,413.479 1080.89,413.621L1080.89,413.62ZM1081.51,441.725C1082.55,439.138 1083.73,436.609 1085.04,434.148C1088.35,427.649 1095.42,422.935 1095.58,421.759C1095.76,420.547 1093.13,414.849 1093.13,414.849C1093.13,414.849 1086.89,416.044 1086.01,416.897C1085.16,417.72 1085.53,426.164 1082.22,432.664C1080.99,435.194 1079.62,437.655 1078.13,440.036L1081.51,441.725L1081.51,441.725ZM1097.43,422.22C1097.48,423.209 1089.26,429.081 1086.42,434.659C1084.01,439.39 1082.99,442.032 1082.99,442.032L1086.27,442.544C1086.27,442.544 1086.04,439.177 1086.83,437.629C1087.68,435.952 1087.91,433.898 1091.75,430.872C1095.81,427.663 1101.31,424.858 1101.27,424.011C1101.23,423.229 1095.12,415.667 1095.12,415.667C1096.01,417.81 1096.77,419.997 1097.43,422.22L1097.43,422.22ZM1073.37,458.72C1078.3,449.032 1079.81,448.372 1080.43,447.151C1081.1,445.839 1080.94,444.073 1078.74,442.952C1078.09,442.589 1077.34,442.429 1076.59,442.493C1075.64,442.607 1074.8,443.207 1074.39,444.079C1073.77,445.301 1074.11,446.934 1069.17,456.623L1057.96,478.584C1057.75,478.939 1057.64,479.342 1057.64,479.751C1057.64,480.583 1058.09,481.353 1058.81,481.769C1058.86,481.802 1058.92,481.832 1058.98,481.86C1060.05,482.459 1061.43,482.071 1062.03,481C1062.08,480.914 1062.12,480.825 1062.15,480.733L1073.37,458.72L1073.37,458.72ZM1053.56,483.908C1052.95,485.109 1053.99,486.872 1055.91,487.851C1057.83,488.83 1059.91,488.642 1060.52,487.441C1061.13,486.24 1060.03,484.477 1058.11,483.498C1057.27,483.042 1056.31,482.83 1055.35,482.885C1054.61,482.89 1053.93,483.278 1053.56,483.908L1053.56,483.908ZM1049.41,490.153C1048.62,491.706 1049.85,493.936 1052.17,495.121C1054.49,496.306 1057.01,496.007 1057.8,494.454C1058.59,492.901 1057.36,490.672 1055.04,489.487C1054.25,489.07 1053.37,488.826 1052.48,488.771C1051.27,488.593 1050.07,489.133 1049.41,490.153ZM1046.8,497.117C1046.19,498.316 1047.23,500.08 1049.15,501.058C1051.07,502.036 1053.15,501.849 1053.76,500.649C1054.37,499.449 1053.32,497.685 1051.4,496.707C1050.54,496.25 1049.57,496.037 1048.59,496.092C1047.86,496.098 1047.17,496.487 1046.8,497.117ZM1045.11,503.772L1028.27,536.893C1026.86,539.647 1020.96,541.363 1018.64,545.904C1016.31,550.472 1017.96,554.748 1021,556.296C1024.04,557.844 1028.5,556.719 1030.83,552.15C1033.14,547.61 1031.06,541.797 1032.46,539.044L1049.31,505.922C1049.96,504.846 1049.62,503.42 1048.55,502.761C1048.48,502.719 1048.41,502.68 1048.33,502.646C1047.89,502.413 1047.39,502.324 1046.9,502.391C1046.12,502.55 1045.46,503.06 1045.11,503.773L1045.11,503.772ZM1013.62,560.646C1012.68,562.476 1013.75,564.915 1016.02,566.072C1018.29,567.229 1020.93,566.673 1021.86,564.844C1022.79,563.015 1021.67,560.574 1019.4,559.417C1018.61,559 1017.73,558.789 1016.84,558.803C1015.51,558.778 1014.27,559.485 1013.62,560.646ZM997.034,598.069C996.432,598.016 995.845,598.29 995.499,598.786C995.022,599.721 996.007,601.199 997.7,602.062C999.393,602.925 1001.16,602.844 1001.64,601.908C1002.12,600.972 1001.13,599.494 999.441,598.632C998.699,598.245 997.871,598.051 997.034,598.068L997.034,598.069ZM991.198,602.674L991.198,614.757L1001.03,607.692C998.894,604.379 995.133,602.459 991.198,602.674ZM997.42,333.597C997.42,326.971 1006.12,320.44 1006.12,320.44L793.877,320.44C793.877,320.44 802.58,326.97 802.58,333.597L802.58,491.583C802.504,495.054 803.686,498.436 805.908,501.104C807.949,503.957 812.298,507.899 816.811,510.831C830.751,519.884 854.057,529.43 871.691,537.452C886.385,544.136 892.362,546.833 900,556.291C907.639,546.833 913.667,544.137 928.361,537.452C945.992,529.431 969.299,519.884 983.24,510.831C987.755,507.899 992.104,503.958 994.144,501.104C996.349,498.43 997.513,495.047 997.42,491.583L997.42,333.597Z" style="fill:rgb(255,210,0);fill-rule:nonzero;"/>
    </g>
    <g transform="matrix(0.533333,0,0,0.533333,-160,4.26326e-14)">
        <path d="M807.597,422.981L807.597,333.596C807.645,330.678 806.747,327.822 805.037,325.457L994.965,325.457C993.256,327.822 992.357,330.678 992.405,333.596L992.459,422.981L900.029,450.981L807.598,422.981L807.597,422.981Z" style="fill:rgb(204,9,47);fill-rule:nonzero;"/>
    </g>
    <g transform="matrix(0.533333,0,0,0.533333,-160,4.26326e-14)">
        <path d="M992.458,422.981L935.224,421.906L864.831,421.906L807.597,422.981L807.597,491.582C807.597,495.03 811.175,503.107 831.812,513.389C865.923,530.387 892.142,538.323 900.001,547.996C907.859,538.323 934.078,530.386 968.19,513.389C988.826,503.107 992.404,495.03 992.404,491.582L992.458,422.981Z" style="fill:rgb(0,70,174);fill-rule:nonzero;"/>
    </g>
    <g transform="matrix(0.533333,0,0,0.533333,-160,4.26326e-14)">
        <path d="M933.84,419.401C933.84,419.401 966.859,411.075 966.859,375.784C966.859,348.221 933.756,334.547 932.815,327.97C929.58,339.351 943.873,355.07 943.873,373.685C943.873,397.771 926.109,398.924 926.109,398.924C921.952,398.924 920.268,401.892 918.634,401.892C915.137,401.527 913.491,397.079 910.033,397.079C906.786,397.079 904.293,402.096 900,402.096C895.707,402.096 893.265,397.079 890.017,397.079C886.561,397.079 884.914,401.527 881.417,401.892C879.783,401.892 878.098,398.924 873.941,398.924C873.941,398.924 856.178,397.771 856.178,373.685C856.178,355.07 870.473,339.349 867.236,327.97C866.298,334.547 833.195,348.22 833.195,375.784C833.195,411.075 866.214,419.401 866.214,419.401L856.794,436.55C856.794,436.55 870.439,437.233 877.681,443.411C886.414,450.859 885.564,466.64 885.564,478.12C885.564,487.165 884.421,496.71 879.78,500.644C873.548,505.928 869.335,506.319 869.335,512.522C869.335,517.696 873.312,518.733 879.78,522.147C888.067,526.52 887.681,532.385 900,532.385C912.319,532.385 911.985,526.521 920.273,522.147C926.741,518.733 930.717,517.696 930.717,512.522C930.717,506.319 926.503,505.928 920.273,500.644C915.632,496.708 914.489,487.164 914.489,478.12C914.489,466.64 913.64,450.859 922.372,443.411C929.615,437.234 943.258,436.55 943.259,436.55L933.84,419.401ZM899.997,330.42L894.262,346.701L878.648,339.277L886.071,354.892L869.792,360.676L886.071,366.461L878.648,382.024L894.262,374.601L899.997,390.88L905.782,374.601L921.396,382.024L913.974,366.461L930.253,360.676L913.974,354.892L921.396,339.277L905.782,346.701L899.997,330.42ZM864.827,421.91C864.827,421.91 844.44,416.926 836.825,406.859C828.349,414.266 818.38,419.766 807.593,422.985C807.593,422.985 824.2,430.483 836.825,440.033C842.642,431.697 864.827,421.91 864.827,421.91Z" style="fill-rule:nonzero;"/>
    </g>
    <g transform="matrix(0.533333,0,0,0.533333,-160,4.26326e-14)">
        <path d="M935.217,421.91C935.217,421.91 957.403,431.696 963.221,440.033C975.844,430.483 992.45,422.985 992.45,422.985C981.665,419.765 971.697,414.266 963.221,406.859C955.606,416.925 935.217,421.91 935.217,421.91ZM873.177,443.61L865.242,451.544L873.177,459.479L881.112,451.544L873.177,443.61ZM926.877,443.61L918.943,451.544L926.877,459.479L934.812,451.544L926.877,443.61ZM871.18,489.94C871.273,495.06 870.948,500.18 870.208,505.247C870.208,505.247 881.394,501.954 883.622,490.606C884.666,485.286 885.829,465.688 880.447,462.347L865.858,459.48C869.387,469.247 871.188,479.555 871.181,489.94L871.18,489.94ZM919.606,462.348C914.225,465.688 915.388,485.286 916.432,490.607C918.659,501.955 929.845,505.248 929.845,505.248C929.105,500.181 928.78,495.061 928.873,489.941C928.865,479.555 930.667,469.248 934.198,459.48L919.606,462.348ZM836.782,462.915C831.793,464.115 828.721,469.131 829.921,474.12C830.119,474.945 830.43,475.74 830.844,476.481C830.099,476.23 829.324,476.075 828.54,476.02C828.216,476.003 827.892,476.003 827.568,476.02C822.546,476.199 818.513,480.379 818.513,485.404C818.513,490.555 822.752,494.794 827.903,494.794C828.443,494.794 828.981,494.748 829.513,494.655C829.056,495.271 828.679,495.941 828.388,496.651C826.442,501.429 828.769,506.963 833.546,508.913C838.324,510.859 843.858,508.532 845.808,503.755L845.844,503.666C846.124,502.959 846.313,502.219 846.408,501.464C846.864,502.091 847.397,502.658 847.994,503.153C851.924,506.539 857.855,506.098 861.242,502.168C864.629,498.238 864.187,492.307 860.257,488.92C859.614,488.366 858.898,487.901 858.13,487.539C858.867,487.303 859.572,486.977 860.228,486.567C864.596,483.805 865.933,477.948 863.197,473.563C861.369,470.646 858.082,468.973 854.648,469.212C853.084,469.318 851.571,469.811 850.245,470.646C849.591,471.048 848.99,471.529 848.454,472.079C848.429,466.885 844.137,462.631 838.943,462.654C838.215,462.657 837.49,462.745 836.782,462.914L836.782,462.915ZM936.602,490.25C937.619,499.837 945.41,507.869 955.031,510.164C953.362,507.477 952.312,504.452 951.959,501.308C950.754,489.938 959.547,480.727 971.566,480.727C973.429,480.73 975.284,480.953 977.094,481.394C972.614,474.144 964.729,469.699 956.207,469.619C944.189,469.619 935.394,478.881 936.602,490.249L936.602,490.25Z" style="fill-rule:nonzero;"/>
    </g>
    <g transform="matrix(0.533333,0,0,0.533333,-160,4.26326e-14)">
        <path d="M851.369,373.684C851.369,391.812 861.036,402.505 873.945,402.505C876.407,402.505 879.1,405.833 881.42,405.833C885.202,405.833 887.718,401.635 890.021,401.635C892.948,401.635 894.921,406.242 900.003,406.242C905.085,406.242 907.11,401.635 910.037,401.635C912.339,401.635 914.855,405.833 918.637,405.833C920.958,405.833 923.649,402.505 926.112,402.505C939.021,402.505 948.689,391.812 948.689,373.684C948.689,358.9 936.273,340.874 937.631,337.95C937.631,337.95 961.845,355.319 961.845,375.782C961.845,408.745 928.416,416.891 928.416,416.891L935.941,433.835C935.941,433.835 925.579,435.389 919.252,440.491C910.813,447.296 910.702,465.682 910.702,478.117C910.702,492.765 911.247,498.972 916.539,502.946C922.119,507.139 926.316,508.042 926.316,512.315C926.316,516.038 921.971,517.561 916.333,520.045C909.92,522.872 909.281,527.776 900.003,527.776C890.725,527.776 890.136,522.872 883.723,520.045C878.086,517.561 873.74,516.039 873.74,512.315C873.74,508.042 877.937,507.139 883.517,502.946C888.809,498.972 889.353,492.765 889.353,478.117C889.353,465.682 889.243,447.296 880.804,440.491C874.476,435.387 864.115,433.835 864.115,433.835L871.639,416.891C871.639,416.891 838.211,408.746 838.211,375.782C838.211,355.319 862.426,337.95 862.426,337.95C863.784,340.874 851.369,358.9 851.369,373.684ZM887.357,509.81C880.79,509.81 876.607,511.196 876.607,513.189C876.607,515.182 880.791,516.517 887.357,516.517C889.107,516.517 891.094,515.498 891.094,513.189C891.05,511.286 889.447,509.757 887.544,509.801C887.482,509.803 887.419,509.806 887.357,509.81ZM912.697,509.81C912.608,509.803 912.518,509.8 912.429,509.8C910.626,509.8 909.108,511.205 908.969,513.002C908.964,513.064 908.961,513.127 908.96,513.189C908.959,515.498 910.947,516.517 912.697,516.517C919.265,516.517 923.447,515.184 923.447,513.189C923.447,511.194 919.264,509.81 912.697,509.81ZM900.057,341.38L903.743,351.774L913.674,347.013L908.964,356.995L919.306,360.682L908.964,364.368L913.674,374.299L903.743,369.589L900.006,379.93L896.32,369.589L886.389,374.299L891.099,364.368L880.758,360.682L891.099,356.995L886.389,347.013L896.32,351.774L900.057,341.38ZM817.314,423.279C817.314,423.279 829.923,429.559 836.257,435.156L836.614,435.463L836.818,435.208C842.804,428.337 853.916,422.512 853.916,422.512C853.916,422.512 843.24,419.567 836.512,411.864C829.4,419.112 817.314,423.279 817.314,423.279ZM982.725,423.295C982.725,423.295 970.116,429.575 963.782,435.172L963.425,435.479L963.221,435.224C957.235,428.353 946.123,422.528 946.123,422.528C946.123,422.528 956.799,419.583 963.527,411.88C970.639,419.128 982.725,423.295 982.725,423.295ZM873.177,447.4L877.324,451.545L873.177,455.744L868.979,451.545L873.177,447.4ZM926.877,447.4L931.076,451.545L926.877,455.744L922.731,451.545L926.877,447.4ZM878.81,465.519C881.707,469.517 881.215,475.981 881.215,484.974C881.391,490.074 878.779,494.884 874.407,497.515C874.407,475.721 872.16,470.481 870.977,463.881L878.81,465.519ZM929.077,463.88C927.892,470.482 925.648,475.721 925.648,497.514C921.275,494.884 918.663,490.073 918.839,484.973C918.839,475.98 918.347,469.518 921.245,465.519L929.077,463.88ZM846.609,472.128C846.797,472.916 846.848,473.73 846.762,474.535C846.695,475.167 846.54,475.787 846.302,476.377C842.2,474.923 837.626,476.097 834.732,479.347C834.22,478.899 833.772,478.382 833.402,477.811C832.961,477.153 832.632,476.427 832.429,475.661C831.465,471.771 833.871,467.776 837.76,466.809C841.646,465.846 845.636,468.245 846.609,472.128ZM857.523,485.786C856.832,486.208 856.073,486.509 855.281,486.675C854.659,486.806 854.021,486.851 853.387,486.807C853.502,482.457 850.972,478.469 846.987,476.721C847.254,476.095 847.608,475.509 848.037,474.981C848.527,474.358 849.116,473.821 849.781,473.391C853.181,471.269 857.724,472.319 859.849,475.717C861.971,479.117 860.921,483.66 857.523,485.785L857.523,485.786ZM847.907,500.386C847.292,499.859 846.771,499.231 846.368,498.529C846.051,497.978 845.812,497.385 845.657,496.768C849.83,495.533 852.84,491.895 853.272,487.565C853.95,487.626 854.616,487.781 855.251,488.026C855.994,488.299 856.687,488.694 857.302,489.193C860.363,491.779 860.757,496.425 858.174,499.489C855.597,502.54 850.974,502.944 847.907,500.386ZM831.049,495.752C831.36,495.004 831.797,494.316 832.34,493.715C832.766,493.243 833.256,492.833 833.795,492.495C836.259,496.082 840.649,497.821 844.901,496.893C845.053,497.556 845.111,498.238 845.074,498.917C845.044,499.708 844.883,500.489 844.597,501.228C843.091,504.942 838.797,506.761 835.082,505.258C831.371,503.753 829.552,499.465 831.049,495.751L831.049,495.752ZM830.247,478.288C831.054,478.353 831.844,478.555 832.583,478.886C833.164,479.146 833.705,479.484 834.193,479.893C831.543,483.345 831.246,488.058 833.442,491.815C832.858,492.164 832.228,492.43 831.57,492.605C830.808,492.821 830.016,492.909 829.225,492.866C825.228,492.58 822.172,489.058 822.454,485.061C822.739,481.068 826.254,478.014 830.247,478.289L830.247,478.288Z" style="fill:rgb(255,210,0);fill-rule:nonzero;"/>
        <circle cx="842.667" cy="486.468" r="7.065" style="fill:rgb(255,210,0);"/>
        <path d="M966.702,476.942C954.973,479.21 946.532,489.57 947.76,501.669C944.022,498.573 941.287,494.403 940.798,489.792C939.847,480.813 946.369,473.87 956.207,473.87C959.922,473.903 963.556,474.967 966.702,476.942Z" style="fill:rgb(255,210,0);fill-rule:nonzero;"/>
    </g>
    <g transform="matrix(0.533333,0,0,0.533333,-160,4.26326e-14)">
        <path d="M1001.97,322.017L798.026,322.017C800.731,324.74 804.164,329.084 804.164,333.586L804.164,470.787L804.158,470.787L804.158,491.573L804.164,491.573C804.133,493.201 804.395,494.821 804.937,496.356C805.462,497.717 806.193,498.989 807.105,500.128L807.142,500.177C809.13,502.711 811.44,504.975 814.013,506.913C814.596,507.37 815.188,507.814 815.789,508.246C816.385,508.674 816.992,509.087 817.607,509.487L817.621,509.497C828.474,516.543 845.195,523.952 860.387,530.681L872.283,535.993L872.289,535.999L872.289,535.998L872.627,536.151L872.632,536.151C886.537,542.476 892.738,545.299 899.999,553.802C907.28,545.267 913.461,542.455 927.494,536.072L927.493,536.07L927.653,535.997L939.549,530.686C954.741,523.957 971.464,516.548 982.32,509.5L982.329,509.494C985.374,507.513 988.194,505.205 990.737,502.611C991.135,502.198 991.521,501.773 991.893,501.336C992.224,500.946 992.53,500.557 992.801,500.178L992.825,500.154L992.83,500.147L992.843,500.128C993.762,498.983 994.503,497.708 995.043,496.343C995.597,494.815 995.866,493.198 995.836,491.573L995.842,491.573L995.842,470.787L995.836,470.787L995.836,333.586C995.836,329.084 999.27,324.741 1001.97,322.017ZM999.011,333.586L999.011,470.787L999.005,470.787L999.005,491.573L999.011,491.573C999.04,493.58 998.7,495.575 998.007,497.459C997.363,499.103 996.476,500.642 995.376,502.024L995.38,502.027C995.042,502.493 994.686,502.946 994.312,503.383C993.896,503.871 993.465,504.346 993.02,504.808C990.308,507.575 987.301,510.037 984.054,512.15L984.045,512.156C972.952,519.357 956.12,526.815 940.828,533.588L928.968,538.888L928.808,538.961L928.803,538.961C914.468,545.482 908.605,548.148 901.235,557.275L900,558.804L898.766,557.277C891.428,548.192 885.531,545.509 871.318,539.043L871.319,539.041L870.986,538.89L870.974,538.884L870.969,538.882L870.968,538.885L859.108,533.584C843.816,526.81 826.983,519.353 815.893,512.152L815.856,512.127L815.844,512.119L815.845,512.119C815.22,511.713 814.58,511.277 813.939,510.816C813.298,510.355 812.673,509.886 812.064,509.409C809.251,507.283 806.729,504.797 804.561,502.016L804.562,502.016C803.465,500.636 802.587,499.096 801.958,497.449C801.285,495.565 800.956,493.576 800.987,491.575L800.993,491.575L800.993,470.789L800.987,470.789L800.987,333.586C800.987,327.745 792.945,321.712 792.923,321.695L792.923,318.842L1007.07,318.842L1007.07,321.695C1007.05,321.712 999.009,327.745 999.009,333.586L999.011,333.586ZM994.208,323.865L994.213,323.859L994.967,323.859L998.254,323.858L996.2,326.434C994.709,328.516 993.934,331.027 993.994,333.587L993.994,470.788L993.988,470.788L993.988,491.574L993.994,491.574C993.994,494.385 992.026,499.813 982.762,506.578L982.764,506.581C981.032,507.846 979.032,509.17 976.73,510.544C974.413,511.926 971.821,513.346 968.931,514.787L968.928,514.782L968.898,514.797L968.898,514.803C956.52,520.971 945.089,525.985 935.219,530.313C918.269,537.746 905.991,543.131 901.232,548.982L901.208,549.013L901.203,549.019L899.967,550.459L898.772,548.987C894.015,543.132 881.734,537.745 864.775,530.309C854.913,525.984 843.491,520.974 831.124,514.813L831.124,514.807L831.103,514.796L831.1,514.801C822.325,510.43 816.553,506.42 812.803,502.976C812.113,502.342 811.447,501.682 810.806,500.998C806.997,496.905 806.012,493.598 806.011,491.577L806.005,491.577L806.005,491.572L806.011,491.572L806.011,470.786L806.005,470.786L806.005,333.586C806.065,331.026 805.29,328.515 803.799,326.433L801.745,323.865L808.565,323.865L808.565,323.859L991.432,323.859L991.432,323.865L994.208,323.865ZM991.435,327.028L991.435,327.034L808.566,327.034L808.566,327.028L807.776,327.028C808.705,329.089 809.184,331.325 809.181,333.586L809.181,470.787L809.175,470.787L809.175,491.573L809.181,491.573L809.181,491.578L809.175,491.578C809.176,493.005 809.988,495.466 813.128,498.84C813.668,499.42 814.275,500.024 814.951,500.645C818.499,503.905 824.026,507.731 832.517,511.96L832.517,511.966L832.538,511.977L832.541,511.972C844.981,518.17 856.283,523.127 866.043,527.406C882.178,534.481 894.177,539.744 900.001,545.627C905.826,539.744 917.826,534.483 933.956,527.409C943.723,523.126 955.035,518.164 967.485,511.96L967.488,511.965L967.518,511.95L967.518,511.944C970.398,510.509 972.915,509.133 975.106,507.826C977.313,506.509 979.233,505.238 980.893,504.025L980.898,504.025C989.082,498.051 990.82,493.723 990.82,491.572L990.826,491.572L990.826,470.786L990.82,470.786L990.82,333.586C990.817,331.325 991.296,329.089 992.225,327.028L991.435,327.028Z" style="fill-rule:nonzero;"/>
    </g>
</svg>
