<svg xmlns="http://www.w3.org/2000/svg" xml:space="preserve" fill-rule="evenodd" stroke-linejoin="round" stroke-miterlimit="2" clip-rule="evenodd" viewBox="0 0 640 480">
  <path fill="#cc092f" fill-rule="nonzero" d="M0 0h640.008v479.997H0z"/>
  <path fill="#ffd200" fill-rule="nonzero" d="M0 0h426.672v479.997H0z"/>
  <path fill="#0046ae" fill-rule="nonzero" d="M0 0h213.336v479.997H0z"/>
  <path fill-rule="nonzero" d="M294.125 97.727a6.914 6.914 0 0 0-4.096 1.12 3.353 3.353 0 0 1 2.403 3.25v3.958h-3.958a3.363 3.363 0 0 1-3.25-2.375 8.05 8.05 0 0 0 0 8.19 3.353 3.353 0 0 1 3.25-2.402h3.958v19.03a3.367 3.367 0 0 1-2.239 3.193c1.889.258 3.514 2.792 3.96 4.178.446-1.383 2.07-3.92 3.959-4.178a3.356 3.356 0 0 1-2.267-3.194v-19.03h3.96a3.362 3.362 0 0 1 3.249 2.376 8.056 8.056 0 0 0 0-8.191 3.353 3.353 0 0 1-3.25 2.402h-3.96v-3.959a3.362 3.362 0 0 1 2.377-3.25 6.917 6.917 0 0 0-4.096-1.118Z"/>
  <path fill="#ffd200" fill-rule="nonzero" d="M294.125 98.549a7.602 7.602 0 0 0-2.348.382 4.188 4.188 0 0 1 1.475 3.167v3.959a.82.82 0 0 1-.028.164v.628h-.628a.847.847 0 0 1-.164.028h-3.96a4.19 4.19 0 0 1-3.138-1.447 7.322 7.322 0 0 0-.41 2.348c.003.798.132 1.59.382 2.348a4.186 4.186 0 0 1 3.167-1.474h4.778c-.005.082-.028.162-.028.245v.41a.809.809 0 0 1 .028.163v19.03a4.018 4.018 0 0 1-1.475 2.976 6.387 6.387 0 0 1 1.557 1.366 7.906 7.906 0 0 1 .819 1.419c.223-.5.498-.975.819-1.42a6.418 6.418 0 0 1 1.53-1.337 4.039 4.039 0 0 1-1.476-3.003v-19.823h.656a.807.807 0 0 1 .164-.027h3.959a4.192 4.192 0 0 1 3.139 1.446 7.322 7.322 0 0 0 .41-2.347 7.618 7.618 0 0 0-.383-2.348 4.186 4.186 0 0 1-3.166 1.474h-3.96a.809.809 0 0 1-.163-.028h-.628v-.628a.82.82 0 0 1-.028-.164v-3.959a4.194 4.194 0 0 1 1.447-3.14 7.35 7.35 0 0 0-2.348-.409"/>
  <path fill-rule="nonzero" d="M343.682 167.459a21.028 21.028 0 0 1-5.816-5.926c-3.398-5.452-4.832-12.145-4.832-18.947 0-2.875 3.221-6.112 3.221-8.438a40.533 40.533 0 0 0-.327-5.623c1.142.156 3.14 2.184 3.14 2.184s-.07-5.834-1.913-6.853c0 0 .746-.767 3.44-.846-.757-1.918-4.504-4.26-4.504-4.26a2.44 2.44 0 0 1 .983-.873 12.204 12.204 0 0 1 3.275-1.065 35.218 35.218 0 0 1-3.685-1.01 86.935 86.935 0 0 1-10.211-4.15 30.112 30.112 0 0 0-13.651-3.195c-1.907.001-4.715.053-6.361 1.148-1.507 1-1.384 2.301-1.912 2.757-1.242 1.076-3.37 1.038-4.396 1.038-6.635 0-6.88 7.099-6.88 7.099s1.696-2.567 4.696-2.567c4.987 0 8.764 2.717 8.764 3.74 0 .415-.514.492-.546.492-3.257 0-8.174-1.876-10.785-1.966v1.283c5.83 2.028 11.74 4.9 11.74 17.555 0 7.97-.954 16.102-4.941 22.498a21.195 21.195 0 0 1-5.843 5.925l23.672 4.267 23.672-4.267Z"/>
  <path fill-rule="nonzero" d="m320.009 162.126-23.671 5.333c-1.077-.325-6.14-1.898-9.693-3.877-6.254-3.483-9.496-6.95-16.928-7.29v-5.652c0-3.02 1.093-5.74 1.093-8.628-3.133-.84-11.828-11.471-19.85-16.19-11.802 7.644-20.94 20.194-20.94 25.965v167.205c0 2.49-1.502 6.007-1.502 6.007 4.309-1.823 12.207-12.63 13.87-16.737v1.966c6.507-2.968 11.272-10.765 13.406-14.798l.137 2.047c5.813-5.096 13.214-35.22 13.214-35.22l12.332 12.12s-4.46 9.053-6.198 10.675a20.79 20.79 0 0 0 2.485.136c-.812 1.167-7.012 10.093-8.955 13.46-1.82 3.15-3.102 1.748-5.898 1.748-2.318 0-7.573 3.693-8.436 5.188a10.931 10.931 0 0 0-1.583 5.05c0 1.729 1.83 4.096 1.83 4.096a2.146 2.146 0 0 1 .545-1.12l5.515 6.771c.551.61 3.01 1.006 3.877.22 2.169-1.972 4.268-3.35 6.198-6.198.994-1.467 1.07-3.149 2.211-4.724l13.16-17.665.327 1.83c1.97-3.978 11.44-11.577 11.44-11.577l9.908 4.56s-18.5 42.525-34.92 49.064c0 0 7.144 3.035 15.917 7.59l3.932 2.103a108.545 108.545 0 0 0 3.413-4.342c5.245-7.018 10.376-15.153 10.376-15.153.357 2.113-2.413 8.637-7.1 16.683l-2.948 4.914 3.55 2.076c8.69 5.229 16.852 11.24 19.875 16.763l2.133-5.338-2.133-5.338V169.207l1.067-2.667-1.056-4.414Z"/>
  <path fill="#b07e5b" fill-rule="nonzero" d="M319.998 355.849c-3.066-3.326-9.477-7.39-16.681-11.14 8.711-15.634 13.028-40.348 11.002-45.268 0 0-3.576 12.817-7.945 20.122-4.046 6.765-9.027 14.373-13.842 20.014a109.689 109.689 0 0 0-11.086-4.096c14.431-11.117 29.187-47.863 29.187-47.863l-15.26-7.071s-5.708 6.655-7.562 7.89c0 0-.792-3.31-1.256-4.477 0 0-2.187 1.654-3.384 1.694l-.629-3.714c-1.506 1.004-4.013.792-4.013.792 2.201-1.043 4.805-7.427 4.805-7.427l-14.571-19.383s-5.119 24.595-10.949 29.651V179.664l4.615 4.286 6.99-6.525v-4.969l-6.199 5.788v-14.99a50.334 50.334 0 0 0 2.02-3.303c1.004 1.749 4.246 7.109 8.054 10.403.627-2.549 4.751-4.97 4.751-4.97s1.478 4.004 3.74 4.996c.796-1.401 5.543-4.504 5.543-4.504s-4.061.617-5.706 2.157c-1.413-.316-1.775-5.897-1.775-5.897s-5.977 2.911-7.017 4.996c-1.14-.309-2.914-4.794-3.604-6.635a39.9 39.9 0 0 1 4.45-.245c1.705 0 3.886.807 6.17 1.884 2.51 1.181 5.137 2.678 7.482 3.74 3.004 1.36 7.548 1.637 8.873 1.693a39.348 39.348 0 0 1-4.996 2.949c-1.735.859 7.153-.066 12.177-2.567a48.106 48.106 0 0 0 5.242-3.659 19.377 19.377 0 0 1-3.44 6.116c7.378-.625 11.053-4.838 12.095-6.252a20.087 20.087 0 0 0 2.73 5.05h2.666V350.54l-2.677 5.31Zm-54.376-213.291.136 3.386v9.966c-2.676-.921-6.04-5.319-7.671-7.645V146.9a3.772 3.772 0 0 1 1.31-2.73l-1.61-.573a4.693 4.693 0 0 0-1.283 3.085v.792l-4.805 5.16-4.723-7.153v-1.747c0-1.178.905-2.491 1.665-3.386l-1.584-.573c-.8 1.035-1.638 2.431-1.638 3.74v1.419l-5.433 5.598-2.758-5.925c3.31-4.584 8.676-9.717 13.733-13.4 0 0 10.968 10.07 14.661 11.351Zm-27.797 9.666v8.219l-3.822 3.549v-12.205a9.371 9.371 0 0 1 1.31-4.123l2.512 4.56Zm11.904 3.166v5.079l-4.395 4.123v-15.89l4.395 6.688Zm-5.952 9.175-4.397-4.096v-5.951l4.397-4.614v14.66Zm20.067-6.17c-1.02 1.442-3.694 4.97-6.58 6.525v-13.952c.662 1.101 3.699 6.013 6.58 7.426Zm-8.137-6.718v12.887l-4.396-4.095v-4.56l4.396-4.232Zm-17.882 13.734v12.86l-3.823-3.577v-5.707l3.823-3.576Zm5.948 4.123v4.614l-4.396 4.095v-12.805l4.396 4.096Zm5.951-4.095v12.805l-4.395-4.123v-4.56l4.395-4.122Zm5.98 4.123v4.559l-4.396 4.123v-12.805l4.397 4.123Zm5.952 8.709-4.397-4.123v-4.286c1.517-.925 3.041-2.626 4.396-4.423l.001 12.832Zm-11.139 5.679 4.642-4.314V285.57l.546 8.682-9.829 9.938V179.607l4.641 4.343Zm-7.291 116.283c0 3.405-6.218 11.345-9.228 13.16V179.666l4.586 4.285 4.642-4.314v120.596Z"/>
  <path fill="#cc092f" fill-rule="nonzero" d="m281.776 288.738 3.385-2.32.519 2.648-13.897 18.894c-1.025 1.378-1.885 4.887-1.885 4.887s-1.5-.71-1.5-1.993c0-1.26.164-2.758.164-2.758a4.29 4.29 0 0 1-3.06 1.283c0-1.548 2.995-3.227 3.113-5.432-2.283 1.693-4.266.824-6.907 1.638-2.876.886-3.677 2.095-4.56 2.048-.519-.028-.989-.924-.79-1.474.343-.953 3.9-3.591 6.387-4.068.596-.114 5.282 1.02 6.226-.437l10.811-16.681a3.552 3.552 0 0 0 1.064-.384c.332-.184-.036 3.067.93 4.15Zm-21.768 18.701a.503.503 0 0 1-.028.71l-1.529 1.337a.509.509 0 0 1-.71-.082.503.503 0 0 1 .029-.71l1.528-1.338a.454.454 0 0 1 .355-.108.57.57 0 0 1 .356.191h-.001Zm2.32 1.61a1.191 1.191 0 0 1-.044 1.685l-.01.01-3.713 3.248a1.27 1.27 0 0 1-1.666-1.91l3.713-3.223a1.18 1.18 0 0 1 .656-.273 1.293 1.293 0 0 1 1.065.464Zm2.129 2.513a1.19 1.19 0 0 1-.044 1.682l-.011.01-3.74 3.25a1.202 1.202 0 0 1-1.69-.187l-.003-.004a1.227 1.227 0 0 1 .055-1.72l3.713-3.222a1.103 1.103 0 0 1 .628-.273 1.34 1.34 0 0 1 1.092.464Zm1.281 1.993a1.266 1.266 0 0 1 1.065.437 1.223 1.223 0 0 1-.054 1.72l-3.714 3.222a1.264 1.264 0 0 1-.738.238 1.27 1.27 0 0 1-1.264-1.264c0-.319.12-.625.337-.859l3.74-3.248a1.056 1.056 0 0 1 .628-.246Z"/>
  <path fill-rule="nonzero" d="m319.985 162.126 23.671 5.333c1.077-.325 6.14-1.898 9.693-3.877 6.254-3.483 9.496-6.95 16.928-7.29v-5.652c0-3.02-1.093-5.74-1.093-8.628 3.133-.84 11.826-11.471 19.847-16.19 11.803 7.644 20.944 20.194 20.944 25.965v167.205c0 2.49 1.499 6.007 1.499 6.007-4.31-1.823-12.203-12.63-13.867-16.737v1.966c-6.506-2.968-11.274-10.765-13.408-14.798l-.138 2.047c-5.808-5.096-13.212-35.22-13.212-35.22l-12.332 12.12s4.46 9.053 6.198 10.675a20.79 20.79 0 0 1-2.485.136c.812 1.167 7.012 10.093 8.955 13.46 1.82 3.15 3.105 1.748 5.9 1.748 2.314 0 7.573 3.693 8.437 5.188a10.939 10.939 0 0 1 1.579 5.05c0 1.729-1.83 4.096-1.83 4.096a2.124 2.124 0 0 0-.544-1.12l-5.514 6.771c-.55.61-3.014 1.006-3.878.22-2.169-1.972-4.268-3.35-6.198-6.198-.994-1.467-1.07-3.149-2.211-4.724l-13.16-17.665-.327 1.83c-1.97-3.978-11.44-11.577-11.44-11.577l-9.908 4.56s18.5 42.525 34.92 49.064c0 0-7.144 3.035-15.917 7.59l-3.932 2.103a108.545 108.545 0 0 1-3.413-4.342c-5.245-7.018-10.376-15.153-10.376-15.153-.357 2.113 2.413 8.637 7.1 16.683l2.948 4.914-3.55 2.076c-8.69 5.229-16.852 11.24-19.875 16.763l-2.133-5.338 2.133-5.338V169.207l-1.067-2.667 1.056-4.414Z"/>
  <path fill="#b07e5b" fill-rule="nonzero" d="M319.996 355.849c3.066-3.326 9.477-7.39 16.681-11.14-8.711-15.634-13.028-40.348-11.002-45.268 0 0 3.576 12.817 7.945 20.122 4.046 6.765 9.027 14.373 13.842 20.014a109.689 109.689 0 0 1 11.086-4.096c-14.431-11.117-29.187-47.863-29.187-47.863l15.26-7.071s5.708 6.655 7.562 7.89c0 0 .792-3.31 1.256-4.477 0 0 2.187 1.654 3.384 1.694l.629-3.714c1.506 1.004 4.013.792 4.013.792-2.201-1.043-4.805-7.427-4.805-7.427l14.571-19.383s5.118 24.595 10.947 29.651V179.664l-4.613 4.286-6.99-6.525v-4.969l6.2 5.788v-14.99a50.12 50.12 0 0 1-2.021-3.303c-1.003 1.749-4.246 7.109-8.054 10.403-.627-2.549-4.751-4.97-4.751-4.97s-1.478 4.004-3.74 4.996c-.796-1.401-5.543-4.504-5.543-4.504s4.061.617 5.706 2.157c1.413-.316 1.775-5.897 1.775-5.897s5.977 2.911 7.017 4.996c1.14-.309 2.914-4.794 3.604-6.635a39.9 39.9 0 0 0-4.45-.245c-1.705 0-3.886.807-6.17 1.884-2.51 1.181-5.137 2.678-7.482 3.74-3.004 1.36-7.548 1.637-8.873 1.693a39.348 39.348 0 0 0 4.996 2.949c1.735.859-7.153-.066-12.177-2.567a48.106 48.106 0 0 1-5.242-3.659 19.377 19.377 0 0 0 3.44 6.116c-7.378-.625-11.053-4.838-12.095-6.252a20.087 20.087 0 0 1-2.73 5.05h-2.666V350.54l2.677 5.31Zm54.374-213.291-.133 3.386v9.966c2.677-.921 6.037-5.319 7.669-7.645V146.9a3.773 3.773 0 0 0-1.312-2.73l1.61-.573a4.667 4.667 0 0 1 1.286 3.085v.792l4.805 5.16 4.726-7.153v-1.747c0-1.178-.907-2.491-1.67-3.386l1.584-.573c.8 1.035 1.643 2.431 1.643 3.74v1.419l5.43 5.598 2.756-5.925c-3.306-4.584-8.671-9.717-13.733-13.4 0 0-10.965 10.07-14.661 11.351Zm27.797 9.666v8.219l3.824 3.549v-12.205a9.347 9.347 0 0 0-1.312-4.123l-2.512 4.56Zm-11.904 3.166v5.079l4.395 4.123v-15.89l-4.395 6.688Zm5.952 9.175 4.4-4.096v-5.951l-4.4-4.614v14.66Zm-20.064-6.17c1.019 1.442 3.691 4.97 6.576 6.525v-13.952c-.661 1.101-3.696 6.013-6.576 7.426Zm8.134-6.718v12.887l4.4-4.095v-4.56l-4.4-4.232Zm17.882 13.734v12.86l3.824-3.577v-5.707l-3.824-3.576Zm-5.946 4.123v4.614l4.394 4.095v-12.805l-4.394 4.096Zm-5.952-4.095v12.805l4.394-4.123v-4.56l-4.394-4.122Zm-5.98 4.123v4.559l4.396 4.123v-12.805l-4.395 4.123Zm-5.951 8.709 4.395-4.123v-4.286c-1.515-.925-3.04-2.626-4.395-4.423v12.832Zm11.141 5.679-4.645-4.314V285.57l-.544 8.682 9.83 9.938V179.607l-4.64 4.343Zm7.29 116.283c0 3.405 6.22 11.345 9.227 13.16V179.666l-4.586 4.285-4.64-4.314v120.596Z"/>
  <path fill="#cc092f" fill-rule="nonzero" d="m358.218 288.738-3.385-2.32-.519 2.648 13.897 18.894c1.025 1.378 1.885 4.887 1.885 4.887s1.5-.71 1.5-1.993c0-1.26-.164-2.758-.164-2.758a4.29 4.29 0 0 0 3.06 1.283c0-1.548-2.995-3.227-3.113-5.432 2.282 1.693 4.266.824 6.906 1.638 2.88.886 3.68 2.095 4.56 2.048.522-.028.992-.924.794-1.474-.346-.953-3.904-3.591-6.389-4.068-.597-.114-5.283 1.02-6.227-.437l-10.811-16.681a3.552 3.552 0 0 1-1.064-.384c-.332-.184.036 3.067-.93 4.15Zm21.768 18.701a.504.504 0 0 0 .027.71l1.53 1.337a.509.509 0 0 0 .71-.082.505.505 0 0 0-.027-.71l-1.53-1.338a.452.452 0 0 0-.358-.108.571.571 0 0 0-.352.191Zm-2.32 1.61a1.193 1.193 0 0 0 .043 1.685l.01.01 3.712 3.248a1.275 1.275 0 0 0 1.782-.263 1.27 1.27 0 0 0-.112-1.648l-3.712-3.222a1.192 1.192 0 0 0-.656-.273c-.411-.023-.806.15-1.067.464Zm-2.128 2.513c-.208.22-.33.514-.33.82 0 .325.138.637.373.862l.01.01 3.739 3.25a1.203 1.203 0 0 0 1.69-.187l.006-.004a1.231 1.231 0 0 0-.053-1.72l-3.718-3.222a1.09 1.09 0 0 0-.624-.273 1.344 1.344 0 0 0-1.093.464Zm-1.28 1.993a1.267 1.267 0 0 0-1.067.437 1.223 1.223 0 0 0 .054 1.72l3.712 3.222c.218.155.474.238.741.238a1.27 1.27 0 0 0 1.264-1.264c0-.319-.123-.625-.336-.859l-3.744-3.248a1.047 1.047 0 0 0-.624-.246Z"/>
  <path fill="#b07e5b" fill-rule="nonzero" d="M314.522 110.206c6.11 0 10.409 2.786 16.191 5.35a49.762 49.762 0 0 0 4.149 1.638 5.107 5.107 0 0 0-1.556 1.967s2.591.48 3.767 2.649c0 0-2.464.28-2.866 1.72 1.38.103 2.751 1.843 2.757 3.522l-3.495-1.093a43.96 43.96 0 0 1 .847 8.191c0 2.18-3.14 4.744-3.14 8.437 0 11.591 2.92 16.047 4.997 19.63.813 1.402 1.473 3.016 2.84 4.232-5.983-3.185-10.43-7.167-10.43-10.866v-14.006h-1.556v14.006c0 2.682.655 3.932.655 3.932.939 2.967 2.838 7.547 4.014 9.392-5.505-2.975-8.301-6.7-8.301-8.082v-19.249h-1.556v19.522l.3 1.337c-.667 1.003-1.535 2.19-2.13 2.594-.593-.403-1.434-1.593-2.103-2.594l.301-1.337v-19.522h-1.556v19.25c0 1.38-2.796 5.106-8.3 8.08 1.176-1.844 3.074-6.424 4.012-9.391 0 0 .656-1.25.656-3.932v-14.006h-1.556v14.006c0 3.694-4.43 7.683-10.403 10.866 1.353-1.217 2.004-2.838 2.812-4.232 2.27-3.919 5.078-8.897 5.078-23.07 0-5.32-.787-8.937-2.157-11.468-.416-.835-.977-3.058 2.212-3.058 1.651 0 5.433 2.922 5.433 2.922a5.246 5.246 0 0 0-2.075-3.659 2.245 2.245 0 0 1-.846-1.557 3.296 3.296 0 0 1 1.474-1.966c.444-.201-6.498-1.41-6.498-4.56 0-.655.412-1.091 1.856-1.091 1.89 0 4.966 2.266 7.7 2.266 2.02 0 2.817-.492 4.887-.492 2.529 0 7.805 4.789 9.61 4.614-2.018-1.267-5.277-6.061-10.21-6.061-1.713 0-3.263.382-4.862.382-2.048 0-4.065-1.884-6.28-1.884-1.483 0-3.14.082-3.385-.301-.43-.67-.043-1.058.355-1.61.751-1.044 2.862-1.347 4.942-1.42a41.995 41.995 0 0 1 1.83-.027l1.585.028Z"/>
  <path fill="#cc092f" fill-rule="nonzero" d="M294.68 117.7a5.165 5.165 0 0 1 4.551-2.443c1.363 0 5.863-.094 5.863-.094.6 1.558 3.332 4.161 3.332 6.868 0 0-2.774-5-10.518-5a7.56 7.56 0 0 0-3.23.67h.002Zm12.592 5.286s-1.65 1.737-2.008 2.665c-1.633-.619-4.48-3.553-4.48-3.553s2.414 1.41 6.487.888Z"/>
  <path fill-rule="nonzero" d="M304.658 118.383s-1.902-.61-1.902-1.249c0-.814.924-.814 1.476-.18.263.432.41.925.426 1.43Z"/>
  <ellipse cx="887.881" cy="223.927" rx="7.373" ry="5.596" transform="translate(-160) scale(.53333)"/>
  <circle cx="887.873" cy="223.927" r="5.121" fill="#ffd200" transform="translate(-160) scale(.53333)"/>
  <circle cx="887.875" cy="223.928" r="2.346" transform="translate(-160) scale(.53333)"/>
  <path fill-rule="nonzero" d="m269.412 315.706 8.64 4.714-2.096 9.615-8.64-4.714 2.096-9.615Z"/>
  <path fill-rule="nonzero" d="m229.159 223.321-3.113 1.42 35.166 77.024h3.74l-35.793-78.444Zm41.472 90.837-2.538 2.621 1.583 3.495 3.085-1.42-2.13-4.696Z"/>
  <path fill-rule="nonzero" d="M240.087 284.052s2.962 6.118 5.213 6.957c-1.164-.317-4.945 1.07-4.945 1.07s6.666 5.954 12.32 6.345c4.795.33 7.123-2.063 7.123-2.063l-.96-5.08a19.023 19.023 0 0 0-7.628-5.176c-4.744-1.652-11.124-2.052-11.124-2.052v-.001Zm22.33-10.96s-4.09 3.5-5.21 7.556c-1.119 4.056.73 8.665.73 8.665l3.437 6.412s4.763-2.535 6.79-6.326c2.025-3.79 1.282-8.905 1.282-8.905s-3.773 1.405-4.253 2.026c.796-4.204-2.776-9.428-2.776-9.428Zm-13.146-1.638s-4.652 1.573-9.17 1.3c-4.302-.26-7.88-3.872-7.88-3.872s3.566-2.414 5.327-2.093c-1.937-.707-4.745-5.559-4.745-5.559s3.99-1.205 7.529.128c3.538 1.334 6.623 5.211 6.623 5.211l2.316 4.885Zm1.6-22.72s2.326 4.817 1.774 6.492c.722-1.115 3.453-2.851 3.453-2.851s1.651 7.8.072 12.616c-1.579 4.817-6.386 6.651-6.386 6.651l-5.303-10.313s-.79-3.82.864-6.846 5.525-5.75 5.525-5.75v.001Zm-30.267-12.751s5.028-.528 9.627 1.377c3.845 1.596 5.024 4.498 5.024 4.498l1.894 5.077s-5.473 2.052-9.796.483c-4.324-1.569-7.502-6.762-7.502-6.762s3.022-1.147 4.173-.717c-1.676-.741-3.419-3.956-3.419-3.956h-.001Zm15.813-9.424s2.207 2.833 2.273 6.092c.588-1.732 3.343-3.648 3.343-3.648s2.833 6.856 2.21 11.724c-.621 4.868-4.697 7.748-4.697 7.748l-5.083-9.65s-1.657-3.954-1.169-7.022 3.123-5.245 3.123-5.245Zm-17.413-18.454s-.911 5.256.64 8.283c1.385 2.701 2.267 3.294 2.267 3.294-2.642-1.744-6.637-1.894-6.637-1.894s1.422 5.718 4.82 8.326 8.637 2 8.637 2 3.446-4.587 3.206-9.529c-.24-4.941-4.164-10.238-4.164-10.238s-1.548 3.21-1.685 5.607c-1.001-2.47-7.085-5.848-7.085-5.848h.001Zm41.066 88.037.142 1.887c3.133.029 3.6-.283 4.403.705a2.653 2.653 0 0 0 3.086.648 2.593 2.593 0 0 0 1.27-3.4c-.584-1.28-1.774-1.558-2.92-1.332-.704.139-1.167.7-1.764 1.008-1.134.588-4.218.485-4.218.485h.001Z"/>
  <path fill-rule="nonzero" d="m259.798 294.702 1.525 1.117c-1.635 2.675-2.146 2.905-1.734 4.11a2.661 2.661 0 0 1-1.085 2.961 2.593 2.593 0 0 1-3.557-.724c-.775-1.173-.381-2.328.418-3.181.49-.524 1.21-.619 1.788-.962 1.1-.652 2.645-3.321 2.645-3.321Zm-10.613-22.4.141 1.887c3.134.028 3.6-.283 4.403.704a2.654 2.654 0 0 0 3.087.648 2.578 2.578 0 0 0 1.268-3.4c-.584-1.28-1.773-1.557-2.92-1.331-.703.14-1.166.7-1.762 1.009-1.135.587-4.218.484-4.218.484h.001Z"/>
  <path fill-rule="nonzero" d="m249.82 272.969 1.333 1.342c-2.031 2.386-2.573 2.535-2.352 3.79a2.653 2.653 0 0 1-1.533 2.756 2.594 2.594 0 0 1-3.4-1.268c-.585-1.28-.016-2.36.907-3.078.565-.44 1.293-.423 1.916-.671 1.188-.473 3.129-2.87 3.129-2.87v-.001Zm-11.184-22.987.141 1.887c3.134.029 3.6-.283 4.404.705a2.662 2.662 0 0 0 3.087.647 2.593 2.593 0 0 0 1.269-3.4c-.585-1.28-1.774-1.557-2.92-1.331-.705.139-1.167.7-1.764 1.008-1.135.588-4.218.484-4.218.484Z"/>
  <path fill-rule="nonzero" d="m239.505 249.588 1.333 1.342c-2.031 2.386-2.572 2.535-2.352 3.789a2.653 2.653 0 0 1-1.533 2.757 2.594 2.594 0 0 1-3.4-1.27c-.584-1.28-.015-2.36.907-3.077.566-.441 1.293-.423 1.917-.672 1.187-.473 3.128-2.87 3.128-2.87ZM227.4 226.42l.14 1.886c3.134.03 3.601-.283 4.404.704a2.661 2.661 0 0 0 3.087.65 2.593 2.593 0 0 0 1.269-3.402c-.584-1.28-1.774-1.558-2.92-1.33-.704.138-1.167.7-1.763 1.008-1.135.587-4.218.484-4.218.484Z"/>
  <path fill-rule="nonzero" d="m228.268 226.025 1.332 1.343c-2.03 2.386-2.572 2.535-2.352 3.789a2.653 2.653 0 0 1-1.532 2.757 2.593 2.593 0 0 1-3.4-1.27c-.585-1.279-.015-2.36.906-3.077.567-.44 1.293-.423 1.917-.672 1.187-.472 3.128-2.87 3.128-2.87h.001Z"/>
  <g fill="#ffd200" transform="translate(-160) scale(.53333)">
    <path fill-rule="nonzero" d="m807.486 597.062 10.049 5.482-2.438 11.183-10.049-5.482 2.438-11.183Zm-43.989-96.972c-2.106.874-5.23-8.295-7.524-13.318-2.353-5.155-7.131-13.1-5.774-13.72 1.489-.68 3.451 3.492 5.859 8.767 2.408 5.275 9.412 17.449 7.439 18.269v.002Zm-21.63-48.29c-2.105.877-4.41-5.127-6.703-10.151-2.353-5.154-4.645-8.795-3.288-9.415 1.49-.68 3.69 3.837 5.616 8.055 1.866 4.088 6.348 10.69 4.374 11.512l.001-.001Zm50.04 109.49c-1.653.442-8.869-14.662-14.703-27.442s-10.177-23.119-8.82-23.736c1.49-.681 6.213 11.391 12.049 24.172 5.836 12.781 12.713 26.673 11.475 27.006h-.001Z"/>
    <circle cx="799.972" cy="556.984" r="2.606"/>
    <circle cx="782.047" cy="563.933" r="2.606"/>
    <circle cx="779.554" cy="512.25" r="2.606"/>
    <circle cx="761.621" cy="522.24" r="2.606"/>
    <circle cx="759.778" cy="470.414" r="2.606"/>
    <circle cx="742.279" cy="478.402" r="2.606"/>
    <circle cx="738.708" cy="426.239" r="2.606"/>
    <circle cx="721.212" cy="434.223" r="2.606"/>
  </g>
  <path fill="#007a50" fill-rule="nonzero" d="M220.55 211.3s-.135 3.84 1.135 6.019c1.27 2.178 4.109 3.048 4.109 3.048s.135-3.84-1.135-6.018-4.108-3.049-4.108-3.049Zm-2.655 8.688s3.336.196 5.263 1.672c1.927 1.477 2.671 4.552 2.671 4.552a6.366 6.366 0 0 1-4.136-1.251c-1.926-1.477-3.798-4.973-3.798-4.973Zm10.469-7.755a13.395 13.395 0 0 0-.981 5.287c.127 2.743 1.728 5.833 1.728 5.833s1.447-3.293 1.32-6.036c-.128-2.744-1.68-4.307-2.067-5.084Zm-5.616 24.726a12.675 12.675 0 0 0 4.16 3.533c2.521 1.247 6.278 1.293 6.278 1.293a14.587 14.587 0 0 0-4.397-3.68c-2.522-1.246-6.041-1.148-6.041-1.148v.002Zm.81 5.311s1.204 2.358 3.405 3.369c2.202 1.01 6.707.928 6.707.928a12.517 12.517 0 0 0-3.93-3.214c-2.202-1.012-6.182-1.083-6.182-1.083Zm12.678-12.575a9.163 9.163 0 0 0-1.2 4.621c.13 2.424 1.72 5.073 1.72 5.073s1.119-3.036.988-5.46a8.456 8.456 0 0 0-1.509-4.234Zm4.901 3.109s-2.277 3.056-2.603 6.198c-.327 3.142 1.294 6.369 1.294 6.369s2.75-2.762 3.078-5.903c.327-3.141-1.769-6.663-1.769-6.663v-.001Zm-6.277 29.013a6.716 6.716 0 0 0 1.225 2.33 18.312 18.312 0 0 0 2.58 2.47 7.474 7.474 0 0 1 3.527-.083c1.955.424 4.555 2.165 4.555 2.165s-2.799-4.176-5.704-5.8a10.544 10.544 0 0 0-6.182-1.083l-.001.001Zm-.288 7.179s3.623-1.548 6.606-1.149c2.984.4 5.674 2.758 5.674 2.758s-4.032 1.395-7.016.997a10.569 10.569 0 0 1-5.265-2.606Zm15.312-16.843s-3.204 3.394-3.473 6.34c-.268 2.945 2.598 5.69 2.598 5.69a8.634 8.634 0 0 1 .353-3.133 12.391 12.391 0 0 1 1.543-2.572 7.723 7.723 0 0 0 .274-2.732 12.486 12.486 0 0 0-1.295-3.593Zm4.597 3.93s-3.02 3.056-3.817 6.328c-.798 3.272.624 6.76.624 6.76s2.746-2.166 3.544-5.437c.798-3.272-.351-7.65-.351-7.65Zm7.563 19.723a22.117 22.117 0 0 1 1.714 5.245c.348 2.387.026 3.214.026 3.214s-1.414 1.39-2.049 2.208c-.814 1.05-.934 2.974-.934 2.974s-2.84-4.222-2.402-7.308c.438-3.087 3.645-6.333 3.645-6.333Zm5.984 6.608s-3.637 2.402-5.08 4.866a6.83 6.83 0 0 0-.695 4.986 5.613 5.613 0 0 0 4.036-2.691c1.443-2.463 1.738-7.161 1.738-7.161Zm-23.893 10.144s5.24-.143 8.443.645 4.37 2.504 4.37 2.504-3.602 1.686-6.805.9-6.009-4.05-6.009-4.05v.001Zm-.886-6.218s2.364 3.665 5.421 4.995c4.212 1.832 9.09.944 9.09.944s-2.65-3.247-6.296-4.68c-3.646-1.434-8.215-1.259-8.215-1.259Z"/>
  <path fill-rule="nonzero" d="m422.674 214.369.682 1.446a3.137 3.137 0 0 0-1.61 1.365c-.502.985.325 2.376.325 2.376s-5.76-.503-6.661.082c-.816.528.346 4.52-.192 7.89-.747 4.7-2.598 4.305-2.678 5.215-.069.885.715 2.266.715 2.266s-1.083.34-1.312.792c-.373.727.256 2.067-.192 2.948l-8.656 16.983c-.341.67-1.259.927-1.717 1.83a3.318 3.318 0 0 0-.086 2.047c.192.674-1.62.097-2.18 1.202a4.692 4.692 0 0 0-.246 2.757 2.157 2.157 0 0 0-1.53 1.12c-.54 1.056.373 1.61.138 2.075l-9.53 18.702c-.87 1.707-3.915 2.048-5.68 5.516a5.129 5.129 0 0 0 .735 5.842c1.45 1.594-2.544.23-3.221 1.557-.688 1.352-.144 3.405 1.69 4.34 1.84.937 3.846.179 4.534-1.173.677-1.326-.683-3.522-.683-3.522a5.179 5.179 0 0 0 5.163-2.867c1.765-3.468.277-6.102 1.147-7.809l9.53-18.703c.235-.464 1.205-.062 1.744-1.119a2.092 2.092 0 0 0 0-1.883 4.764 4.764 0 0 0 2.101-1.83c.566-1.105-.298-2.484-.298-2.484a3.246 3.246 0 0 0 1.61-1.256c.46-.903.123-1.787.464-2.458l8.656-16.982c.448-.882 1.9-1.184 2.267-1.912.23-.451-.139-1.528-.139-1.528s1.595-.158 2.267-.738c.693-.596-.71-1.875 2.65-5.242 2.411-2.415 6.305-3.836 6.251-4.805-.053-1.072-3.85-5.433-3.85-5.433s1.6-.135 2.106-1.12a3.216 3.216 0 0 0 .16-2.13l1.584-.272v-7.509l-6.058 4.424Zm-52.34 104.572a1.868 1.868 0 0 0 0 1.664c.26.524-1.912-.597-2.567-.273-.618.306 0 9.311 0 9.311s7.622-4.81 7.51-5.488c-.123-.72-1.723-1.938-1.723-1.938a1.824 1.824 0 0 0 1.339-.956c.25-.493.282-1.902-1.446-2.785a3.093 3.093 0 0 0-1.695-.382 1.81 1.81 0 0 0-1.419.847Z"/>
  <path fill="#ffd200" fill-rule="nonzero" d="m424.06 214.67 3.6 1.83-.053-4.341-3.547 2.512Zm-1.392 2.622a2.083 2.083 0 1 0 2.672-.71 2.232 2.232 0 0 0-1.173-.245 1.782 1.782 0 0 0-1.499.956v-.001Zm-6.197 3.304c-.379.245.133 3.49.027 6.252-.107 2.603-.939 3.337-1.392 4.232-.422.826-1.942 1.802-1.942 1.802l1.26 1.256s.815-1.273 2.1-3.797c1.515-2.975 1.467-8.366 1.91-8.654a34.918 34.918 0 0 1 3.552-1.038s-2.902-.157-4.507-.135a3.546 3.546 0 0 0-1.008.082Zm.33 14.99a41.72 41.72 0 0 1 1.883-4.042c1.766-3.466 5.536-5.98 5.622-6.607.096-.647-1.307-3.686-1.307-3.686s-3.328.638-3.797 1.093c-.454.439-.256 4.942-2.022 8.409a42.199 42.199 0 0 1-2.18 3.931l1.802.901Zm8.491-10.403c.027.527-4.357 3.659-5.872 6.634-1.285 2.523-1.829 3.932-1.829 3.932l1.75.273s-.123-1.796.298-2.621c.453-.895.576-1.99 2.624-3.604 2.165-1.711 5.099-3.207 5.077-3.66-.021-.416-3.28-4.45-3.28-4.45a35.27 35.27 0 0 1 1.232 3.496Zm-12.832 19.466c2.63-5.167 3.435-5.519 3.766-6.17.357-.7.272-1.642-.902-2.24a2.003 2.003 0 0 0-1.146-.244c-.507.06-.955.38-1.174.846-.33.651-.149 1.522-2.784 6.69l-5.978 11.712c-.112.19-.17.404-.17.623a1.246 1.246 0 0 0 .714 1.124c.57.32 1.306.113 1.626-.458a.738.738 0 0 0 .064-.143l5.984-11.74Zm-10.565 13.434c-.325.64.23 1.58 1.253 2.103 1.024.522 2.134.421 2.46-.22.324-.64-.262-1.58-1.286-2.102a2.76 2.76 0 0 0-1.472-.327c-.395.003-.758.21-.955.546Zm-2.213 3.33c-.421.829.235 2.018 1.472 2.65s2.581.472 3.002-.356-.234-2.017-1.472-2.649a3.382 3.382 0 0 0-1.365-.382 1.66 1.66 0 0 0-1.637.737Zm-1.392 3.714c-.325.64.23 1.58 1.253 2.102 1.024.522 2.133.422 2.459-.218.325-.64-.235-1.58-1.259-2.102a2.85 2.85 0 0 0-1.498-.328c-.39.003-.758.21-.955.546Zm-.901 3.55-8.982 17.664c-.752 1.469-3.898 2.384-5.136 4.806-1.242 2.436-.362 4.717 1.259 5.542s4 .226 5.243-2.21c1.232-2.422.122-5.522.869-6.99l8.987-17.666a1.239 1.239 0 0 0-.406-1.685.935.935 0 0 0-.117-.062 1.264 1.264 0 0 0-.763-.136 1.367 1.367 0 0 0-.954.737Zm-16.795 30.332c-.501.976.07 2.277 1.28 2.894s2.619.32 3.115-.655c.496-.975-.102-2.277-1.312-2.894a2.829 2.829 0 0 0-1.366-.328 1.927 1.927 0 0 0-1.717.983Zm-8.846 19.96a.903.903 0 0 0-.819.382c-.254.498.271 1.286 1.174 1.747s1.846.417 2.102-.082-.272-1.288-1.173-1.748a2.66 2.66 0 0 0-1.284-.3Zm-3.112 2.455v6.444l5.243-3.768a5.866 5.866 0 0 0-5.243-2.676Zm3.318-143.507c0-3.534 4.64-7.017 4.64-7.017H263.398s4.642 3.483 4.642 7.017v84.259a7.672 7.672 0 0 0 1.775 5.078c1.088 1.521 3.408 3.624 5.815 5.187 7.434 4.829 19.864 9.92 29.269 14.198 7.837 3.565 11.024 5.003 15.098 10.048 4.074-5.045 7.289-6.482 15.126-10.048 9.403-4.278 21.833-9.37 29.268-14.198 2.408-1.563 4.728-3.665 5.816-5.187a7.66 7.66 0 0 0 1.747-5.078v-84.259Z"/>
  <path fill="#cc092f" fill-rule="nonzero" d="M270.716 225.588v-47.671a7.206 7.206 0 0 0-1.366-4.341h101.295a7.21 7.21 0 0 0-1.366 4.34l.03 47.672-49.297 14.934-49.296-14.934Z"/>
  <path fill="#0046ae" fill-rule="nonzero" d="m369.308 225.588-30.525-.573H301.24l-30.524.573v36.587c0 1.84 1.908 6.147 12.914 11.63 18.193 9.066 32.176 13.299 36.368 18.458 4.19-5.16 18.174-9.392 36.367-18.457 11.006-5.484 12.914-9.792 12.914-11.63l.029-36.588Z"/>
  <path fill-rule="nonzero" d="M338.045 223.68s17.61-4.441 17.61-23.263c0-14.7-17.655-21.993-18.157-25.5-1.725 6.07 5.898 14.452 5.898 24.38 0 12.846-9.474 13.461-9.474 13.461-2.217 0-3.115 1.583-3.987 1.583-1.865-.195-2.743-2.567-4.587-2.567-1.732 0-3.061 2.676-5.351 2.676s-3.592-2.676-5.324-2.676c-1.843 0-2.722 2.372-4.587 2.567-.871 0-1.77-1.583-3.987-1.583 0 0-9.474-.615-9.474-13.46 0-9.929 7.624-18.313 5.898-24.382-.5 3.508-18.155 10.8-18.155 25.5 0 18.823 17.61 23.263 17.61 23.263l-5.024 9.146s7.277.364 11.14 3.66c4.657 3.972 4.204 12.388 4.204 18.51 0 4.825-.61 9.915-3.085 12.013-3.324 2.819-5.57 3.027-5.57 6.335 0 2.76 2.12 3.313 5.57 5.134 4.42 2.332 4.214 5.46 10.784 5.46s6.392-3.128 10.812-5.46c3.45-1.821 5.57-2.374 5.57-5.134 0-3.308-2.247-3.516-5.57-6.335-2.475-2.099-3.085-7.189-3.085-12.012 0-6.123-.452-14.54 4.205-18.512 3.863-3.294 11.139-3.659 11.14-3.659l-5.024-9.146Zm-18.05-47.457-3.058 8.683-8.328-3.96 3.96 8.329-8.683 3.084 8.682 3.086-3.959 8.3 8.328-3.959 3.058 8.682 3.086-8.682 8.327 3.959-3.958-8.3 8.682-3.086-8.682-3.084 3.958-8.328-8.327 3.959-3.086-8.683Zm-18.757 48.794s-10.873-2.658-14.934-8.027a41.902 41.902 0 0 1-15.59 8.6s8.857 4 15.59 9.093c3.102-4.446 14.934-9.666 14.934-9.666Z"/>
  <path fill-rule="nonzero" d="M338.78 225.017s11.832 5.22 14.935 9.666c6.732-5.094 15.588-9.092 15.588-9.092a41.911 41.911 0 0 1-15.588-8.6c-4.062 5.368-14.936 8.026-14.936 8.026Zm-33.089 11.574-4.231 4.231 4.231 4.232 4.232-4.232-4.232-4.231Zm28.64 0-4.231 4.231 4.231 4.232 4.232-4.232-4.232-4.231ZM304.626 261.3a50.188 50.188 0 0 1-.518 8.163s5.966-1.756 7.154-7.808c.557-2.837 1.177-13.29-1.693-15.071l-7.781-1.53a47.713 47.713 0 0 1 2.839 16.246Zm25.827-14.716c-2.87 1.781-2.25 12.234-1.692 15.071 1.187 6.053 7.153 7.809 7.153 7.809a50.188 50.188 0 0 1-.518-8.164 47.678 47.678 0 0 1 2.84-16.246l-7.783 1.53Zm-44.172.302a4.955 4.955 0 0 0-3.167 7.236 4.931 4.931 0 0 0-1.229-.246 4.943 4.943 0 0 0-.518 0c-2.679.095-4.83 2.325-4.83 5.005 0 2.747 2.261 5.007 5.009 5.007.288 0 .574-.024.858-.074a4.911 4.911 0 0 0-.6 1.065c-1.038 2.548.203 5.5 2.751 6.54 2.548 1.037 5.5-.204 6.54-2.751l.019-.048c.15-.377.25-.772.3-1.174a4.96 4.96 0 0 0 .847.9 5.01 5.01 0 0 0 6.54-7.59 5.013 5.013 0 0 0-1.135-.737 4.971 4.971 0 0 0 1.12-.518c2.329-1.473 3.042-4.597 1.583-6.936a4.974 4.974 0 0 0-4.56-2.32 5.047 5.047 0 0 0-2.348.765 4.96 4.96 0 0 0-.955.764c-.013-2.77-2.302-5.039-5.073-5.027a5.054 5.054 0 0 0-1.152.139Zm53.237 14.579c.542 5.113 4.698 9.397 9.829 10.62a11.352 11.352 0 0 1-1.639-4.722c-.642-6.064 4.047-10.977 10.457-10.977.994.002 1.983.12 2.949.356a13.24 13.24 0 0 0-11.14-6.28c-6.41 0-11.1 4.94-10.456 11.002v.001Z"/>
  <g fill="#ffd200" transform="translate(-160) scale(.53333)">
    <path fill-rule="nonzero" d="M851.369 373.684c0 18.128 9.667 28.821 22.576 28.821 2.462 0 5.155 3.328 7.475 3.328 3.782 0 6.298-4.198 8.601-4.198 2.927 0 4.9 4.607 9.982 4.607 5.082 0 7.107-4.607 10.034-4.607 2.302 0 4.818 4.198 8.6 4.198 2.321 0 5.012-3.328 7.475-3.328 12.909 0 22.577-10.693 22.577-28.821 0-14.784-12.416-32.81-11.058-35.734 0 0 24.214 17.369 24.214 37.832 0 32.963-33.429 41.109-33.429 41.109l7.525 16.944s-10.362 1.554-16.689 6.656c-8.439 6.805-8.55 25.191-8.55 37.626 0 14.648.545 20.855 5.837 24.829 5.58 4.193 9.777 5.096 9.777 9.369 0 3.723-4.345 5.246-9.983 7.73-6.413 2.827-7.052 7.731-16.33 7.731-9.278 0-9.867-4.904-16.28-7.731-5.637-2.484-9.983-4.006-9.983-7.73 0-4.273 4.197-5.176 9.777-9.369 5.292-3.974 5.836-10.181 5.836-24.829 0-12.435-.11-30.821-8.549-37.626-6.328-5.104-16.689-6.656-16.689-6.656l7.524-16.944s-33.428-8.145-33.428-41.109c0-20.463 24.215-37.832 24.215-37.832 1.358 2.924-11.057 20.95-11.057 35.734Zm35.988 136.126c-6.567 0-10.75 1.386-10.75 3.379s4.184 3.328 10.75 3.328c1.75 0 3.737-1.019 3.737-3.328a3.487 3.487 0 0 0-3.737-3.379Zm25.34 0a3.484 3.484 0 0 0-3.737 3.379c-.001 2.309 1.987 3.328 3.737 3.328 6.568 0 10.75-1.333 10.75-3.328 0-1.995-4.183-3.379-10.75-3.379Zm-12.64-168.43 3.686 10.394 9.931-4.761-4.71 9.982 10.342 3.687-10.342 3.686 4.71 9.931-9.931-4.71-3.737 10.341-3.686-10.341-9.931 4.71 4.71-9.931-10.341-3.686 10.341-3.687-4.71-9.982 9.931 4.761 3.737-10.394Zm-82.743 81.899s12.609 6.28 18.943 11.877l.357.307.204-.255c5.986-6.871 17.098-12.696 17.098-12.696s-10.676-2.945-17.404-10.648c-7.112 7.248-19.198 11.415-19.198 11.415Zm165.411.016s-12.609 6.28-18.943 11.877l-.357.307-.204-.255c-5.986-6.871-17.098-12.696-17.098-12.696s10.676-2.945 17.404-10.648c7.112 7.248 19.198 11.415 19.198 11.415ZM873.177 447.4l4.147 4.145-4.147 4.199-4.198-4.199 4.198-4.145Zm53.7 0 4.199 4.145-4.199 4.199-4.146-4.199 4.146-4.145Zm-48.067 18.119c2.897 3.998 2.405 10.462 2.405 19.455.176 5.1-2.436 9.91-6.808 12.541 0-21.794-2.247-27.034-3.43-33.634l7.833 1.638Zm50.267-1.639c-1.185 6.602-3.429 11.841-3.429 33.634a14.084 14.084 0 0 1-6.809-12.541c0-8.993-.492-15.455 2.406-19.454l7.832-1.639Zm-82.468 8.248c.188.788.239 1.602.153 2.407a6.857 6.857 0 0 1-.46 1.842 10.704 10.704 0 0 0-11.57 2.97 7.36 7.36 0 0 1-1.33-1.536 7.152 7.152 0 0 1-.973-2.15c-.964-3.89 1.442-7.885 5.331-8.852 3.886-.963 7.876 1.436 8.849 5.319Zm10.914 13.658a7.097 7.097 0 0 1-2.242.889 6.883 6.883 0 0 1-1.894.132 10.705 10.705 0 0 0-6.4-10.086 7.307 7.307 0 0 1 1.05-1.74 7.175 7.175 0 0 1 1.744-1.59c3.4-2.122 7.943-1.072 10.068 2.326 2.122 3.4 1.072 7.943-2.326 10.068v.001Zm-9.616 14.6a7.105 7.105 0 0 1-1.539-1.857 6.905 6.905 0 0 1-.711-1.761 10.706 10.706 0 0 0 7.615-9.203 7.32 7.32 0 0 1 1.979.461 7.195 7.195 0 0 1 2.051 1.167c3.061 2.586 3.455 7.232.872 10.296-2.577 3.051-7.2 3.455-10.267.897Zm-16.858-4.634a7.11 7.11 0 0 1 1.291-2.037 6.89 6.89 0 0 1 1.455-1.22 10.705 10.705 0 0 0 11.106 4.398c.152.663.21 1.345.173 2.024a7.154 7.154 0 0 1-.477 2.311c-1.506 3.714-5.8 5.533-9.515 4.03-3.711-1.505-5.53-5.793-4.033-9.507v.001Zm-.802-17.464a7.11 7.11 0 0 1 2.336.598c.581.26 1.122.598 1.61 1.007a10.707 10.707 0 0 0-.751 11.922 7.314 7.314 0 0 1-1.872.79 7.17 7.17 0 0 1-2.345.261c-3.997-.286-7.053-3.808-6.771-7.805.285-3.993 3.8-7.047 7.793-6.772v-.001Z"/>
    <circle cx="842.667" cy="486.468" r="7.065"/>
    <path fill-rule="nonzero" d="M966.702 476.942c-11.729 2.268-20.17 12.628-18.942 24.727-3.738-3.096-6.473-7.266-6.962-11.877-.951-8.979 5.571-15.922 15.409-15.922a20.077 20.077 0 0 1 10.495 3.072Z"/>
  </g>
  <path fill-rule="nonzero" d="M374.38 171.741H265.612c1.443 1.453 3.274 3.77 3.274 6.17v73.174h-.003v11.086h.003a7.247 7.247 0 0 0 .412 2.55 7.587 7.587 0 0 0 1.156 2.012l.02.026a19.792 19.792 0 0 0 3.665 3.593 25.46 25.46 0 0 0 1.917 1.373l.007.005c5.788 3.758 14.706 7.71 22.808 11.298l6.345 2.833.003.003.18.081h.003c7.416 3.374 10.723 4.88 14.595 9.414 3.884-4.552 7.18-6.051 14.664-9.456l.085-.04 6.345-2.832c8.102-3.589 17.02-7.54 22.81-11.3l.006-.003a26.571 26.571 0 0 0 4.484-3.67c.212-.22.418-.447.616-.68.177-.208.34-.416.485-.618l.012-.013.003-.004.007-.01a7.819 7.819 0 0 0 1.173-2.018 7.08 7.08 0 0 0 .423-2.544h.003v-11.086h-.003V177.91c0-2.4 1.832-4.717 3.272-6.17Zm-1.577 6.17v73.174h-.004v11.086h.004a8.727 8.727 0 0 1-.536 3.139 9.437 9.437 0 0 1-1.403 2.434l.002.002c-.18.249-.37.49-.57.723-.221.26-.451.514-.689.76a28.34 28.34 0 0 1-4.781 3.916l-.005.003c-5.917 3.84-14.894 7.818-23.05 11.43l-6.324 2.827-.086.04h-.002c-7.646 3.477-10.773 4.899-14.703 9.766l-.659.816-.658-.814c-3.914-4.846-7.059-6.277-14.639-9.725v-.001l-.177-.08-.006-.004-.003-.001v.002l-6.326-2.828c-8.156-3.612-17.133-7.59-23.048-11.43l-.02-.013-.006-.005a26.051 26.051 0 0 1-1.016-.695 30.528 30.528 0 0 1-1-.75 21.549 21.549 0 0 1-4.001-3.943 9.173 9.173 0 0 1-1.389-2.436 8.901 8.901 0 0 1-.518-3.132h.004v-11.086h-.004V177.91c0-3.115-4.289-6.332-4.3-6.341v-1.522H377.1v1.522c-.01.009-4.299 3.226-4.299 6.341h.002Zm-2.562-5.184.003-.003h2.155l-1.096 1.373a6.3 6.3 0 0 0-1.176 3.815v73.173h-.003v11.086h.003c0 1.5-1.05 4.394-5.99 8.002v.002a41.663 41.663 0 0 1-3.218 2.113 63.017 63.017 0 0 1-4.159 2.263l-.002-.002-.016.008v.003c-6.601 3.29-12.698 5.964-17.962 8.272-9.04 3.964-15.588 6.836-18.126 9.957l-.013.016-.002.003-.66.768-.637-.785c-2.537-3.122-9.087-5.995-18.132-9.961-5.26-2.307-11.35-4.979-17.947-8.265v-.003l-.01-.006-.002.003c-4.68-2.331-7.759-4.47-9.759-6.307a20.07 20.07 0 0 1-1.065-1.055c-2.031-2.183-2.557-3.946-2.557-5.024h-.003v-.003h.003v-11.086h-.003v-73.173a6.3 6.3 0 0 0-1.177-3.814l-1.095-1.37h3.637v-.003h97.528v.003h1.481Zm-1.479 1.687v.003h-97.53v-.003h-.42a8.484 8.484 0 0 1 .749 3.497v73.174h-.004v11.086h.004v.002h-.004c0 .761.434 2.074 2.109 3.873a17.563 17.563 0 0 0 .972.963c1.892 1.739 4.84 3.78 9.368 6.035v.003l.011.006.002-.003c6.635 3.306 12.662 5.95 17.868 8.231 8.605 3.774 15.004 6.58 18.11 9.718 3.107-3.137 9.507-5.943 18.11-9.716 5.209-2.284 11.242-4.93 17.882-8.24l.001.003.016-.008v-.003a61.122 61.122 0 0 0 4.047-2.196 39.838 39.838 0 0 0 3.087-2.027h.002c4.365-3.186 5.292-5.495 5.292-6.642h.003v-11.086h-.003v-73.173a8.484 8.484 0 0 1 .75-3.497h-.422Z"/>
</svg>
