<svg xmlns="http://www.w3.org/2000/svg" viewBox="0 0 840 600"><path fill="#244aa5" d="M0 0h840v600H0z"/><path fill="#d0a650" d="M425 190c3 4 5 8 5 13-3 2-7 2-9 5 15-2 18 15 34 8 1 3 3 5 6 4l2-5c6-1 4 9 11 7 4 3 2 8 4 12 0 4 2 7 3 11 2-2 3-5 7-4 3 3 6 6 6 9-1 7-3 13 4 16v2c5 2 16-2 16 7-1 2 3 0 4 2 3-2 7-1 10-1 3 6-3 11-5 16 3 3 2 8 1 12l-2 1c5 1 11-1 15 2l8 3c3-2 7-3 12-2 3 2-1 7 2 9 4 0 7 0 8 4l1 1c2-5 11-2 14-6 6 0 7 7 10 10 1 9-10 14-6 23l-11 12 1 3c-4 2-1 8-6 8 0 4-7 3-5 7 5 6-2 10-2 15-3 4-9-3-9 4-3 0-7-4-9 0s2 5 1 10c6-1 8 5 10 8l6 6c-6 5-13 0-20 2-2-1 0-3-2-4-2-2-5-2-8-3 0 3-5 4-3 7 0 1 2 4-1 4-4 1-4-4-8-2-5 2-1 10-9 9 1 7-11 11-3 18l1 5c-5 5-15 3-21 1-4-1-1-7-3-10s-7-5-7-9c-4-2-7-3-9-6-8 8-18 16-30 16-5 3-8 13-16 9-3 5-13 0-14 8-4 1-2 6-4 8-1 6 0 11 5 15 2 4-5 4-2 8 1 2 0 4-1 4-2 1-2 2-2 4l-3 2c-1 3-6 4-9 6-3 1-6-1-8-3 0 3-3 5-6 5-5 0-4-4-7-6 1-5-4-8-2-12 4-3 10-5 8-11-4-5-2-13-6-19-3-2-8-5-6-11 4-4 0-10-2-14l-3-12c-7-4-7-14-16-15-7 0-8-8-14-7l-3-4c-5 4-11 0-17 1-4-6 3-15-7-19v-4l2-1c1-5-7-5-4-10-2-2-4-2-3-5-4-9-17-8-20-17l3-6c-2-4-2-8-2-11l5-6c-3-2-6-4-9-3-6-1-9-5-14-8l-1-4c7-2-1-11 7-10 2-3 7-4 10-6l9 2c3 3 7 2 10 5 3-1 6-2 9-1 0-5 3-8 6-11l6-5c5 1 11 1 15-2 2 1 4-2 7-2s6 0 8 2c0-6 11-1 13-8 2-5-7-6-6-11-2-4 2-7 4-10 2-1 4-2 7-1 6-3 1-16 12-11v3c4 0 5-4 7-6 1-4-1-9 2-12l5-2c0-4-2-5-5-7h-4l-3-9c-2-1-3-2-2-4 3-3 0-9 6-8 2-2 7 0 9-4 6-3 14-3 19-10h6c1 4 7 3 7 6"/><path fill="#fff" d="m470 111-8-25-8 25h-26l21 15-8 25 21-15 21 15-8-25 21-15zm82 14-8-25-8 25h-26l21 16-8 24 21-15 21 15-8-24 22-16zm79 29-8-25-8 25h-26l21 15-8 25 21-15 21 15-8-25 21-15zm-245-43-8-25-8 25h-26l21 15-8 25 21-15 21 15-8-25 21-15zm-82 14-8-25-8 25h-27l22 16-8 24 21-15 21 15-8-24 21-16zm-79 29-8-25-8 25h-26l21 15-8 25 21-15 21 15-8-25 21-15z"/></svg>