<svg xmlns="http://www.w3.org/2000/svg" xml:space="preserve" fill-rule="evenodd" stroke-linejoin="round" stroke-miterlimit="2" clip-rule="evenodd" viewBox="0 0 640 480">
  <path fill="red" fill-rule="nonzero" d="M0 0h639.996v480H0z"/>
  <path fill="#00f" fill-rule="nonzero" d="M0 0h639.996v320H0z"/>
  <path fill="#fff" fill-rule="nonzero" d="M0 0h639.996v160H0z"/>
  <g fill-rule="nonzero" transform="translate(158.628 240) scale(.31313)">
    <path fill="#00f" d="M-185.877-471.841c118.368-52.157 253.386-52.157 371.754 0C205.292-197.28 143.333-41.667 0-5c-143.333-36.667-205.292-192.28-185.877-466.841Z"/>
    <path id="a" fill="#ff0" d="m0-422.5 5.625 12.757 13.861-1.507L11.25-400l8.236 11.25-13.861-1.507L0-377.5l-5.625-12.757-13.861 1.507L-11.25-400l-8.236-11.25 13.861 1.507"/>
    <path id="a1" fill="#ff0" d="m0-422.5 5.625 12.757 13.861-1.507L11.25-400l8.236 11.25-13.861-1.507L0-377.5l-5.625-12.757-13.861 1.507L-11.25-400l-8.236-11.25 13.861 1.507" transform="translate(-52.5 -70)"/>
    <path id="a2" fill="#ff0" d="m0-422.5 5.625 12.757 13.861-1.507L11.25-400l8.236 11.25-13.861-1.507L0-377.5l-5.625-12.757-13.861 1.507L-11.25-400l-8.236-11.25 13.861 1.507" transform="translate(52.5 -70)"/>
    <path fill="#fff" d="m0-350 45 90 30-40 75 100a50.01 50.01 0 0 1-1.924 13.736C127.224-113.28 71.829-54.992 0-30.454c-71.829-24.538-127.224-82.826-148.076-155.81A50.01 50.01 0 0 1-150-200l75-100 30 40 45-90Z"/>
    <path id="b" fill="#00f" d="M-148.076-186.264C-141.961-164.862-122.258-150-100-150c8.776 0 17.4-2.311 25-6.699 15.451-8.92 34.549-8.92 50 0 15.451 8.921 34.549 8.921 50 0 15.451-8.92 34.549-8.92 50 0A50.004 50.004 0 0 0 100-150c22.258 0 41.961-14.862 48.076-36.264l1.924.698v36.602c-8.776 0-17.4 2.311-25 6.699-15.451 8.921-34.549 8.921-50 0s-34.549-8.921-50 0-34.549 8.921-50 0-34.549-8.921-50 0-34.549 8.921-50 0a50.004 50.004 0 0 0-25-6.699v-36.602"/>
    <path id="b1" fill="#00f" d="M-148.076-186.264C-141.961-164.862-122.258-150-100-150c8.776 0 17.4-2.311 25-6.699 15.451-8.92 34.549-8.92 50 0 15.451 8.921 34.549 8.921 50 0 15.451-8.92 34.549-8.92 50 0A50.004 50.004 0 0 0 100-150c22.258 0 41.961-14.862 48.076-36.264l1.924.698v36.602c-8.776 0-17.4 2.311-25 6.699-15.451 8.921-34.549 8.921-50 0s-34.549-8.921-50 0-34.549 8.921-50 0-34.549-8.921-50 0-34.549 8.921-50 0a50.004 50.004 0 0 0-25-6.699v-36.602" transform="translate(0 28.867)"/>
    <path fill="red" d="M-200-465.331a460.792 460.792 0 0 1 14.123-6.51l14.853 237.244C-164.689-133.425-96.565-46.024 0-15.181c96.565-30.843 164.689-118.244 171.024-219.416l14.853-237.244a460.792 460.792 0 0 1 14.123 6.51l-14.502 231.64C178.686-124.899 104.408-31.322 0 0c-104.408-31.322-178.686-124.899-185.498-233.691L-200-465.331Z"/>
  </g>
</svg>
