<?xml version="1.0" encoding="UTF-8" standalone="no"?>
<!DOCTYPE svg PUBLIC "-//W3C//DTD SVG 1.1//EN" "http://www.w3.org/Graphics/SVG/1.1/DTD/svg11.dtd">
<svg width="100%" height="100%" viewBox="0 0 640 480" version="1.1" xmlns="http://www.w3.org/2000/svg" xmlns:xlink="http://www.w3.org/1999/xlink" xml:space="preserve" xmlns:serif="http://www.serif.com/" style="fill-rule:evenodd;clip-rule:evenodd;stroke-linejoin:round;stroke-miterlimit:2;">
    <g>
        <g transform="matrix(0.533333,0,0,0.8,-1.56319e-13,3.97904e-14)">
            <rect x="0" y="0" width="1200" height="600" style="fill:rgb(255,0,0);fill-rule:nonzero;"/>
        </g>
        <g transform="matrix(0.533333,0,0,0.8,-1.56319e-13,3.97904e-14)">
            <rect x="0" y="0" width="1200" height="400" style="fill:rgb(0,0,255);fill-rule:nonzero;"/>
        </g>
        <g transform="matrix(0.533333,0,0,0.8,-1.56319e-13,3.97904e-14)">
            <rect x="0" y="0" width="1200" height="200" style="fill:white;fill-rule:nonzero;"/>
        </g>
        <g transform="matrix(0.313126,0,0,0.313126,158.628,240)">
            <path d="M-185.877,-471.841C-67.509,-523.998 67.509,-523.998 185.877,-471.841C205.292,-197.28 143.333,-41.667 0,-5C-143.333,-41.667 -205.292,-197.28 -185.877,-471.841Z" style="fill:rgb(0,0,255);fill-rule:nonzero;"/>
            <path id="a" d="M0,-422.5L5.625,-409.743L19.486,-411.25L11.25,-400L19.486,-388.75L5.625,-390.257L0,-377.5L-5.625,-390.257L-19.486,-388.75L-11.25,-400L-19.486,-411.25L-5.625,-409.743" style="fill:rgb(255,255,0);fill-rule:nonzero;"/>
            <g id="a1" serif:id="a" transform="matrix(1,0,0,1,-52.5,-70)">
                <path d="M0,-422.5L5.625,-409.743L19.486,-411.25L11.25,-400L19.486,-388.75L5.625,-390.257L0,-377.5L-5.625,-390.257L-19.486,-388.75L-11.25,-400L-19.486,-411.25L-5.625,-409.743" style="fill:rgb(255,255,0);fill-rule:nonzero;"/>
            </g>
            <g id="a2" serif:id="a" transform="matrix(1,0,0,1,52.5,-70)">
                <path d="M0,-422.5L5.625,-409.743L19.486,-411.25L11.25,-400L19.486,-388.75L5.625,-390.257L0,-377.5L-5.625,-390.257L-19.486,-388.75L-11.25,-400L-19.486,-411.25L-5.625,-409.743" style="fill:rgb(255,255,0);fill-rule:nonzero;"/>
            </g>
            <path d="M0,-350L45,-260L75,-300L150,-200C150,-195.354 149.352,-190.731 148.076,-186.264C127.224,-113.28 71.829,-54.992 -0,-30.454C-71.829,-54.992 -127.224,-113.28 -148.076,-186.264C-149.352,-190.731 -150,-195.354 -150,-200L-75,-300L-45,-260L0,-350Z" style="fill:white;fill-rule:nonzero;"/>
            <path id="b" d="M-148.076,-186.264C-141.961,-164.862 -122.258,-150 -100,-150C-91.224,-150 -82.6,-152.311 -75,-156.699C-59.549,-165.619 -40.451,-165.619 -25,-156.699C-9.549,-147.778 9.549,-147.778 25,-156.699C40.451,-165.619 59.549,-165.619 75,-156.699C82.6,-152.311 91.224,-150 100,-150C122.258,-150 141.961,-164.862 148.076,-186.264L150,-185.566L150,-148.964C141.224,-148.964 132.6,-146.653 125,-142.265C109.549,-133.344 90.451,-133.344 75,-142.265C59.549,-151.186 40.451,-151.186 25,-142.265C9.549,-133.344 -9.549,-133.344 -25,-142.265C-40.451,-151.186 -59.549,-151.186 -75,-142.265C-90.451,-133.344 -109.549,-133.344 -125,-142.265C-132.6,-146.653 -141.224,-148.964 -150,-148.964L-150,-185.566" style="fill:rgb(0,0,255);fill-rule:nonzero;"/>
            <g id="b1" serif:id="b" transform="matrix(1,0,0,1,0,28.8675)">
                <path d="M-148.076,-186.264C-141.961,-164.862 -122.258,-150 -100,-150C-91.224,-150 -82.6,-152.311 -75,-156.699C-59.549,-165.619 -40.451,-165.619 -25,-156.699C-9.549,-147.778 9.549,-147.778 25,-156.699C40.451,-165.619 59.549,-165.619 75,-156.699C82.6,-152.311 91.224,-150 100,-150C122.258,-150 141.961,-164.862 148.076,-186.264L150,-185.566L150,-148.964C141.224,-148.964 132.6,-146.653 125,-142.265C109.549,-133.344 90.451,-133.344 75,-142.265C59.549,-151.186 40.451,-151.186 25,-142.265C9.549,-133.344 -9.549,-133.344 -25,-142.265C-40.451,-151.186 -59.549,-151.186 -75,-142.265C-90.451,-133.344 -109.549,-133.344 -125,-142.265C-132.6,-146.653 -141.224,-148.964 -150,-148.964L-150,-185.566" style="fill:rgb(0,0,255);fill-rule:nonzero;"/>
            </g>
            <path d="M-200,-465.331C-195.329,-467.58 -190.621,-469.751 -185.877,-471.841L-171.024,-234.597C-164.689,-133.425 -96.565,-46.024 0,-15.181C96.565,-46.024 164.689,-133.425 171.024,-234.597L185.877,-471.841C190.621,-469.751 195.329,-467.58 200,-465.331L185.498,-233.691C178.686,-124.899 104.408,-31.322 0,0C-104.408,-31.322 -178.686,-124.899 -185.498,-233.691L-200,-465.331Z" style="fill:rgb(255,0,0);fill-rule:nonzero;"/>
        </g>
    </g>
</svg>
