<?xml version="1.0" encoding="UTF-8" standalone="no"?><!DOCTYPE svg PUBLIC "-//W3C//DTD SVG 1.1//EN" "http://www.w3.org/Graphics/SVG/1.1/DTD/svg11.dtd"><svg width="100%" height="100%" viewBox="0 0 64 64" version="1.1" xmlns="http://www.w3.org/2000/svg" xmlns:xlink="http://www.w3.org/1999/xlink" xml:space="preserve" xmlns:serif="http://www.serif.com/" style="fill-rule:evenodd;clip-rule:evenodd;stroke-linejoin:round;stroke-miterlimit:2;"><path d="M51.904,34.288l-9.568,-5.522l0,-11.046c0,-0.114 -0.029,-0.226 -0.086,-0.324c-0.056,-0.099 -0.138,-0.182 -0.236,-0.239l-9.891,-5.715c-0.099,-0.057 -0.212,-0.087 -0.327,-0.087c-0.114,-0 -0.227,0.03 -0.326,0.087l-9.899,5.713c-0.098,0.058 -0.179,0.14 -0.236,0.239c-0.056,0.099 -0.086,0.211 -0.086,0.325l0,11.047l-9.567,5.522c-0.099,0.057 -0.182,0.14 -0.239,0.238c-0.057,0.099 -0.088,0.212 -0.088,0.326l-0,11.428c0,0.115 0.031,0.227 0.088,0.326c0.057,0.099 0.14,0.181 0.239,0.238l9.892,5.714c0.099,0.057 0.212,0.087 0.326,0.087c0.115,0 0.227,-0.03 0.327,-0.087l9.566,-5.527l9.565,5.522c0.099,0.057 0.211,0.087 0.326,0.087c0.114,0 0.227,-0.03 0.326,-0.087l9.894,-5.714c0.099,-0.057 0.181,-0.139 0.239,-0.238c0.057,-0.099 0.087,-0.211 0.088,-0.325l-0,-11.429c-0.001,-0.113 -0.032,-0.225 -0.089,-0.323c-0.058,-0.098 -0.14,-0.179 -0.238,-0.236Zm-20.765,10.859l-7.934,-4.582l7.935,-4.581l-0.001,9.163Zm9.24,-16.003l-7.934,4.579l-0,-9.161l7.934,4.582Zm-9.239,4.579l-7.934,-4.58l7.934,-4.581l0,9.161Zm1.958,1.127l8.586,-4.953l8.589,4.956l-8.589,4.959l-8.586,-4.962Zm7.934,-6.841l-7.934,-4.582l7.934,-4.58l-0,9.162Zm-10.544,-4.582l-7.935,4.582l0,-9.158l7.935,4.576Zm-9.239,27.431l-8.587,-4.957l-0,-9.917l8.587,4.962l0,9.912Zm1.305,-0l0,-9.162l7.935,4.582l-7.935,4.58Zm28.373,-4.957l-8.591,4.957l0,-9.912l8.589,-4.958l0.002,9.913Z" style="fill:#a4b6ca;fill-rule:nonzero;"/><g id="sdg-icon-9.svg"></g></svg>