<svg
    xmlns="http://www.w3.org/2000/svg"
    xml:space="preserve"
    style="
        fill-rule: evenodd;
        clip-rule: evenodd;
        stroke-linejoin: round;
        stroke-miterlimit: 2;
    "
    viewBox="0 0 64 64"
>
    <path
        d="M39.306 34.461H23.664a.186.186 0 0 0-.124.06.182.182 0 0 0-.045.13v4.701a.18.18 0 0 0 .169.191h15.642a.18.18 0 0 0 .124-.061.181.181 0 0 0 .046-.13v-4.701a.187.187 0 0 0-.046-.13.184.184 0 0 0-.124-.06ZM39.306 24.457H23.664a.18.18 0 0 0-.169.19v4.702a.179.179 0 0 0 .169.19h15.642a.18.18 0 0 0 .169-.19v-4.702a.182.182 0 0 0-.169-.19ZM39.086 17.351l-7.509-7.507a.13.13 0 0 0-.183 0l-7.508 7.507a.136.136 0 0 0-.035.067.129.129 0 0 0 .127.155h15.016a.13.13 0 0 0 .092-.222ZM46.135 39.6l7.508-7.508a.122.122 0 0 0 .029-.042.144.144 0 0 0 .01-.05.144.144 0 0 0-.01-.05.132.132 0 0 0-.029-.042L46.135 24.4a.13.13 0 0 0-.066-.036.13.13 0 0 0-.075.008.128.128 0 0 0-.08.119v15.018c0 .025.008.05.022.072a.122.122 0 0 0 .058.047.13.13 0 0 0 .075.008.13.13 0 0 0 .066-.036ZM23.886 46.65l7.508 7.505a.132.132 0 0 0 .042.029c.016.006.033.01.05.01a.144.144 0 0 0 .05-.01.118.118 0 0 0 .041-.029l7.509-7.508a.13.13 0 0 0 .029-.142.13.13 0 0 0-.121-.08H23.978a.131.131 0 0 0-.075.021.131.131 0 0 0-.055.137.137.137 0 0 0 .038.067ZM16.837 24.4l-7.508 7.508a.132.132 0 0 0-.029.042.144.144 0 0 0-.01.05c0 .017.004.034.01.05.007.016.016.03.029.042l7.508 7.508a.13.13 0 0 0 .066.036.13.13 0 0 0 .075-.008.122.122 0 0 0 .058-.047.135.135 0 0 0 .022-.072V24.491a.128.128 0 0 0-.08-.119.13.13 0 0 0-.075-.008.13.13 0 0 0-.066.036Z"
        style="fill-rule: nonzero"
    />
</svg>
