<?xml version="1.0" encoding="UTF-8" standalone="no"?><!DOCTYPE svg PUBLIC "-//W3C//DTD SVG 1.1//EN" "http://www.w3.org/Graphics/SVG/1.1/DTD/svg11.dtd"><svg width="100%" height="100%" viewBox="0 0 64 64" version="1.1" xmlns="http://www.w3.org/2000/svg" xmlns:xlink="http://www.w3.org/1999/xlink" xml:space="preserve" xmlns:serif="http://www.serif.com/" style="fill-rule:evenodd;clip-rule:evenodd;stroke-linejoin:round;stroke-miterlimit:2;"><path d="M52.038,22.18c-2.934,-2.317 -6.452,-2.567 -7.828,-2.567c-0.726,-0 -1.398,0.065 -1.89,0.182l-0.193,0.045c-1.858,0.438 -4.968,1.173 -8.59,5.667l-0.106,0.131c-0.058,0.079 -0.089,0.174 -0.091,0.272c0.001,0.084 0.023,0.166 0.064,0.238l0.082,0.135c0.598,1 1.094,1.868 1.49,2.605c0.035,0.068 0.086,0.127 0.148,0.171c0.063,0.045 0.135,0.073 0.211,0.084c0.075,0.011 0.153,0.003 0.225,-0.022c0.072,-0.026 0.137,-0.068 0.19,-0.124c0.025,-0.033 0.051,-0.069 0.072,-0.095c3.124,-4.325 5.574,-4.9 7.196,-5.284l0.203,-0.048c0.327,-0.063 0.66,-0.091 0.993,-0.084c0.754,-0 3.375,0.125 5.42,1.739c1.82,1.439 2.742,3.73 2.742,6.817c-0,5.175 -2.503,7.195 -4.605,7.975c-0.821,0.303 -1.691,0.456 -2.567,0.452c-1.333,-0.007 -2.648,-0.307 -3.853,-0.877l-0.151,-0.072c-1.806,-0.785 -4.503,-2.42 -7.054,-7.541c-5.227,-10.504 -9.619,-11.496 -12.527,-12.154l-0.153,-0.034c-0.223,-0.051 -0.851,-0.168 -1.87,-0.168c-1.684,-0 -4.923,0.331 -7.698,2.547c-1.896,1.511 -4.156,4.448 -4.156,9.857c-0,3.292 0.678,5.467 2.417,7.755c0.327,0.446 3.357,4.358 9.173,4.358c0.892,-0.003 1.781,-0.09 2.657,-0.26c1.062,-0.203 2.701,-0.729 4.532,-2.071l1.529,1.38c0.088,0.074 0.201,0.112 0.316,0.107c0.115,-0.005 0.224,-0.054 0.305,-0.136c0.073,-0.077 0.113,-0.181 0.11,-0.288l1.183,-7.286l-0,-0.085c-0.001,-0.06 -0.014,-0.12 -0.038,-0.174c-0.025,-0.055 -0.061,-0.104 -0.106,-0.144c-0.041,-0.038 -0.089,-0.068 -0.142,-0.087c-0.053,-0.02 -0.108,-0.028 -0.165,-0.026l-7.098,1.954l-0.135,0.022c-0.087,0.018 -0.166,0.064 -0.225,0.13c-0.039,0.043 -0.07,0.093 -0.09,0.148c-0.019,0.055 -0.028,0.113 -0.025,0.171c0.003,0.058 0.017,0.114 0.042,0.167c0.025,0.052 0.06,0.099 0.103,0.138l1.47,1.33c-0.773,0.474 -1.545,0.791 -2.297,0.935c-0.62,0.12 -1.25,0.182 -1.882,0.184c-4.019,0 -5.997,-2.638 -6.078,-2.75l-0.04,-0.054c-1.223,-1.607 -1.636,-2.974 -1.636,-5.421c-0,-3.098 0.907,-5.396 2.694,-6.82c1.99,-1.587 4.55,-1.711 5.288,-1.711c0.337,-0.006 0.675,0.022 1.007,0.084l0.157,0.035c2.321,0.526 5.499,1.246 9.907,10.098c2.327,4.676 5.246,7.73 8.915,9.341c0.426,0.216 2.702,1.303 5.619,1.303c1.338,0.005 2.666,-0.231 3.921,-0.695c2.142,-0.8 7.128,-3.533 7.128,-11.614c-0.002,-5.402 -2.296,-8.346 -4.22,-9.865Z" style="fill:#a4b6ca;fill-rule:nonzero;"/><g id="sdg-icon-12.svg"></g></svg>