<svg xmlns="http://www.w3.org/2000/svg" xml:space="preserve" style="fill-rule:evenodd;clip-rule:evenodd;stroke-linejoin:round;stroke-miterlimit:2" viewBox="0 0 64 64"><clipPath id="a"><path d="M16.516 10.839h30.968v42.323H16.516z"/></clipPath><g clip-path="url(#a)"><path d="M47.403 10.956a.354.354 0 0 0-.268-.117H17.443a.34.34 0 0 0-.267.116.353.353 0 0 0-.069.133.326.326 0 0 0-.005.149l4.992 30.169a.348.348 0 0 0 .342.29h6.123l.419 4.91h-2.577l5.995 5.994 6.009-6.007h-2.576l.414-4.895h6.231a.338.338 0 0 0 .34-.296l4.665-30.163a.361.361 0 0 0-.007-.15.36.36 0 0 0-.069-.133ZM35.928 35.108a4.767 4.767 0 0 1-3.543 1.236 4.778 4.778 0 0 1-3.547-1.236c-2.225-2.222-1.431-4.987-.655-6.416.478-.894 3.896-6.026 4.19-6.465v-.034l.013.016.012-.016v.034c.286.437 3.71 5.565 4.187 6.465.774 1.429 1.565 4.194-.657 6.416Zm9.418-17.804c-.804-.355-1.825-.227-2.803.169-3.683 1.494-6.192 2.03-10.067.818-2.44-.764-4.724-2.363-7.422-1.391-1.791.644-3.46 1.259-5.483 1.243l-1.17-5.995h27.786l-.841 5.156Z" style="fill:#a4b6ca;fill-rule:nonzero"/></g></svg>