<?xml version="1.0" encoding="UTF-8" standalone="no"?><!DOCTYPE svg PUBLIC "-//W3C//DTD SVG 1.1//EN" "http://www.w3.org/Graphics/SVG/1.1/DTD/svg11.dtd"><svg width="100%" height="100%" viewBox="0 0 64 64" version="1.1" xmlns="http://www.w3.org/2000/svg" xmlns:xlink="http://www.w3.org/1999/xlink" xml:space="preserve" xmlns:serif="http://www.serif.com/" style="fill-rule:evenodd;clip-rule:evenodd;stroke-linejoin:round;stroke-miterlimit:2;"><clipPath id="_clip1"><rect id="sdg-icon-6.svg" x="16.516" y="10.839" width="30.968" height="42.323"/></clipPath><g clip-path="url(#_clip1)"><path d="M47.403,10.956c-0.034,-0.037 -0.075,-0.067 -0.122,-0.087c-0.046,-0.02 -0.096,-0.031 -0.146,-0.03l-29.692,-0c-0.05,-0.002 -0.1,0.008 -0.147,0.028c-0.046,0.02 -0.087,0.05 -0.12,0.088c-0.032,0.039 -0.056,0.084 -0.069,0.133c-0.013,0.048 -0.015,0.099 -0.005,0.149l4.992,30.169c0.014,0.08 0.056,0.154 0.118,0.207c0.063,0.053 0.142,0.083 0.224,0.083l6.123,0l0.419,4.91l-2.577,0l5.995,5.994l6.009,-6.007l-2.576,-0l0.414,-4.895l6.231,0c0.083,0.001 0.163,-0.029 0.226,-0.084c0.063,-0.054 0.103,-0.13 0.114,-0.212l4.665,-30.163c0.008,-0.05 0.006,-0.101 -0.007,-0.15c-0.013,-0.048 -0.037,-0.094 -0.069,-0.133Zm-11.475,24.152c-0.477,0.435 -1.036,0.769 -1.645,0.981c-0.609,0.213 -1.255,0.299 -1.898,0.255c-0.644,0.045 -1.291,-0.042 -1.901,-0.254c-0.609,-0.213 -1.17,-0.547 -1.646,-0.982c-2.225,-2.222 -1.431,-4.987 -0.655,-6.416c0.478,-0.894 3.896,-6.026 4.19,-6.465l0,-0.034l0.013,0.016l0.012,-0.016l-0,0.034c0.286,0.437 3.71,5.565 4.187,6.465c0.774,1.429 1.565,4.194 -0.657,6.416Zm9.418,-17.804c-0.804,-0.355 -1.825,-0.227 -2.803,0.169c-3.683,1.494 -6.192,2.03 -10.067,0.818c-2.44,-0.764 -4.724,-2.363 -7.422,-1.391c-1.791,0.644 -3.46,1.259 -5.483,1.243l-1.17,-5.995l27.786,-0l-0.841,5.156Z" style="fill:#a4b6ca;fill-rule:nonzero;"/></g><g id="sdg-icon-6.svg1" serif:id="sdg-icon-6.svg"></g></svg>