<?xml version="1.0" encoding="UTF-8" standalone="no"?><!DOCTYPE svg PUBLIC "-//W3C//DTD SVG 1.1//EN" "http://www.w3.org/Graphics/SVG/1.1/DTD/svg11.dtd"><svg width="100%" height="100%" viewBox="0 0 64 64" version="1.1" xmlns="http://www.w3.org/2000/svg" xmlns:xlink="http://www.w3.org/1999/xlink" xml:space="preserve" xmlns:serif="http://www.serif.com/" style="fill-rule:evenodd;clip-rule:evenodd;stroke-linejoin:round;stroke-miterlimit:2;"><path d="M53.267,40.174c-0.992,-1.341 -7.404,-9.514 -16.395,-9.514c-7.808,-0 -16.157,7.079 -16.157,7.079c-0,0 -3.137,-6.42 -9.555,-7.037c-0.037,0 -0.078,-0.009 -0.12,-0.009l-0.04,0c-0.134,0.008 -0.259,0.138 -0.244,0.254c0.018,0.085 0.052,0.165 0.1,0.237c0.827,1.369 2.938,5.277 2.938,9.177c0,3.916 -2.123,7.833 -2.943,9.2l-0.056,0.086c-0.025,0.041 -0.039,0.088 -0.039,0.136c0,0.064 0.025,0.126 0.069,0.173c0.044,0.046 0.103,0.075 0.167,0.079l0.07,-0.005c0.022,0.001 0.045,-0.001 0.067,-0.006c6.437,-0.6 9.586,-7.04 9.586,-7.04c-0,-0 8.351,7.081 16.157,7.081c8.992,-0 15.402,-8.175 16.395,-9.514c0.027,-0.036 0.049,-0.067 0.069,-0.091c0.013,-0.031 0.021,-0.065 0.021,-0.099c-0,-0.033 -0.007,-0.067 -0.021,-0.098c-0.02,-0.027 -0.042,-0.059 -0.069,-0.092m-11.396,1.225c-0.518,-0 -1.025,-0.155 -1.456,-0.444c-0.431,-0.288 -0.767,-0.698 -0.965,-1.177c-0.198,-0.48 -0.25,-1.007 -0.148,-1.516c0.101,-0.508 0.351,-0.976 0.718,-1.342c0.367,-0.367 0.835,-0.616 1.344,-0.717c0.508,-0.102 1.036,-0.049 1.515,0.149c0.479,0.199 0.889,0.535 1.177,0.966c0.288,0.431 0.442,0.938 0.442,1.457c-0,0.345 -0.068,0.686 -0.2,1.005c-0.132,0.318 -0.326,0.607 -0.57,0.851c-0.244,0.244 -0.533,0.437 -0.852,0.569c-0.318,0.132 -0.66,0.199 -1.005,0.199Z" style="fill:#a4b6ca;fill-rule:nonzero;"/><path d="M10.958,15.292c-0.016,-0.005 -0.032,-0.009 -0.049,-0.011c-0.034,0 -0.068,0.007 -0.1,0.02c-0.031,0.014 -0.059,0.033 -0.083,0.057c-0.024,0.024 -0.043,0.053 -0.056,0.085c-0.013,0.031 -0.019,0.065 -0.019,0.099l-0,1.788c-0.001,0.034 0.005,0.068 0.018,0.1c0.013,0.032 0.032,0.061 0.057,0.085c4.338,3.77 8.448,0.236 9.399,-0.697c0.018,-0.028 0.041,-0.053 0.068,-0.072c0.042,-0.029 0.092,-0.045 0.143,-0.047c0.065,-0 0.127,0.025 0.174,0.07c0.004,0.004 0.008,0.008 0.013,0.011c4.902,4.677 10.042,0.889 11.111,-0l0.105,-0.096c0.031,-0.014 0.064,-0.021 0.098,-0.02c0.035,-0.001 0.069,0.006 0.102,0.02l0.106,0.096c1.069,0.889 6.208,4.677 11.11,-0c0.003,-0.004 0.006,-0.007 0.009,-0.011c0.047,-0.045 0.11,-0.07 0.174,-0.07c0.052,0.001 0.101,0.018 0.143,0.047c0.028,0.02 0.053,0.044 0.072,0.072c0.95,0.934 5.055,4.467 9.398,0.697c0.024,-0.025 0.043,-0.054 0.056,-0.085c0.013,-0.032 0.019,-0.066 0.019,-0.1l-0,-1.788c0.001,-0.034 -0.006,-0.067 -0.018,-0.099c-0.012,-0.032 -0.031,-0.06 -0.055,-0.085c-0.024,-0.024 -0.052,-0.043 -0.083,-0.056c-0.031,-0.014 -0.065,-0.021 -0.099,-0.021c-0.018,0.002 -0.037,0.006 -0.055,0.011c-0.04,0.023 -0.079,0.045 -0.13,0.068c-1.335,0.668 -5.474,2.258 -9.229,-1.297c-0.035,-0.032 -0.072,-0.065 -0.109,-0.104c-0.035,-0.015 -0.072,-0.023 -0.11,-0.024c-0.026,0.002 -0.053,0.006 -0.079,0.012c-0.052,0.021 -0.098,0.056 -0.131,0.102c-1.12,0.854 -6.259,4.334 -10.836,0.064l-0.067,-0.066c-0.051,-0.048 -0.117,-0.076 -0.187,-0.078c-0.067,0.003 -0.131,0.031 -0.179,0.078l-0.071,0.066c-4.574,4.27 -9.72,0.789 -10.839,-0.064c-0.031,-0.046 -0.075,-0.081 -0.127,-0.102c-0.026,-0.006 -0.052,-0.01 -0.079,-0.012c-0.037,0.001 -0.074,0.009 -0.108,0.024c-0.034,0.037 -0.07,0.072 -0.109,0.104c-3.757,3.555 -7.896,1.965 -9.229,1.297c-0.046,-0.023 -0.091,-0.045 -0.132,-0.068" style="fill:#a4b6ca;fill-rule:nonzero;"/><path d="M20.125,23.33c0.019,-0.027 0.042,-0.051 0.069,-0.071c0.042,-0.029 0.091,-0.046 0.142,-0.049c0.066,0.001 0.128,0.026 0.175,0.072c0.003,0.005 0.007,0.008 0.012,0.011c4.9,4.672 10.042,0.885 11.111,0l0.105,-0.099c0.031,-0.012 0.065,-0.018 0.098,-0.017c0.035,-0.001 0.07,0.005 0.103,0.017l0.105,0.099c1.069,0.885 6.208,4.672 11.111,0c-0,0 0.005,-0.006 0.008,-0.011c0.047,-0.045 0.109,-0.071 0.175,-0.072c0.051,0.002 0.1,0.019 0.142,0.049c0.028,0.019 0.052,0.044 0.072,0.071c0.947,0.935 5.054,4.469 9.398,0.694c0.025,-0.023 0.045,-0.051 0.058,-0.082c0.014,-0.031 0.021,-0.064 0.021,-0.098l0,-1.795c0,-0.033 -0.006,-0.067 -0.019,-0.098c-0.013,-0.031 -0.032,-0.059 -0.056,-0.083c-0.024,-0.024 -0.052,-0.043 -0.083,-0.056c-0.031,-0.012 -0.065,-0.019 -0.098,-0.019c-0.019,0.002 -0.037,0.005 -0.056,0.01l-0.13,0.066c-1.333,0.669 -5.475,2.255 -9.228,-1.295l-0.109,-0.103c-0.034,-0.019 -0.072,-0.028 -0.11,-0.026c-0.028,-0 -0.055,0.006 -0.079,0.02c-0.055,0.014 -0.101,0.048 -0.131,0.096c-1.119,0.852 -6.26,4.333 -10.838,0.063l-0.067,-0.067c-0.05,-0.047 -0.116,-0.073 -0.185,-0.072c-0.067,-0 -0.131,0.026 -0.179,0.072l-0.071,0.067c-4.575,4.27 -9.721,0.789 -10.839,-0.063c-0.029,-0.047 -0.074,-0.082 -0.127,-0.096c-0.025,-0.013 -0.052,-0.02 -0.079,-0.02c-0.037,-0.001 -0.074,0.008 -0.107,0.026c-0.035,0.036 -0.073,0.07 -0.112,0.103c-3.757,3.549 -7.894,1.964 -9.228,1.295l-0.132,-0.066c-0.016,-0.004 -0.032,-0.008 -0.049,-0.01c-0.034,-0 -0.067,0.006 -0.098,0.019c-0.032,0.013 -0.06,0.032 -0.084,0.056c-0.024,0.023 -0.043,0.052 -0.056,0.083c-0.014,0.031 -0.02,0.065 -0.02,0.098l-0,1.795c-0.001,0.033 0.005,0.067 0.018,0.098c0.013,0.031 0.032,0.059 0.056,0.082c4.339,3.775 8.45,0.237 9.4,-0.694" style="fill:#a4b6ca;fill-rule:nonzero;"/><g id="sdg-icon-14.svg"></g></svg>