<?xml version="1.0" encoding="UTF-8" standalone="no"?><!DOCTYPE svg PUBLIC "-//W3C//DTD SVG 1.1//EN" "http://www.w3.org/Graphics/SVG/1.1/DTD/svg11.dtd"><svg width="100%" height="100%" viewBox="0 0 64 64" version="1.1" xmlns="http://www.w3.org/2000/svg" xmlns:xlink="http://www.w3.org/1999/xlink" xml:space="preserve" xmlns:serif="http://www.serif.com/" style="fill-rule:evenodd;clip-rule:evenodd;stroke-linejoin:round;stroke-miterlimit:2;"><clipPath id="_clip1"><rect id="sdg-icon-2.svg" x="11.355" y="14.452" width="41.29" height="35.097"/></clipPath><g clip-path="url(#_clip1)"><path d="M25.31,47.942l0,1.075c-0.002,0.007 -0.003,0.015 -0.003,0.023c-0,0.009 0.001,0.017 0.003,0.026c0.006,0.128 0.06,0.25 0.152,0.339c0.092,0.09 0.215,0.141 0.343,0.143l12.65,0c0.133,-0.002 0.258,-0.056 0.351,-0.151c0.093,-0.094 0.145,-0.221 0.146,-0.353c-0.001,-0.001 -0.001,-0.002 -0,-0.004l-0,-1.219c7.094,-2.325 12.409,-8.075 13.578,-15.082c0,-0.016 0.005,-0.029 0.007,-0.042c0.004,-0.024 0.006,-0.047 0.007,-0.071c-0,-0.067 -0.013,-0.133 -0.039,-0.195c-0.025,-0.062 -0.063,-0.118 -0.11,-0.165c-0.048,-0.048 -0.104,-0.085 -0.166,-0.111c-0.061,-0.025 -0.128,-0.038 -0.195,-0.038l-40.168,-0c-0.067,-0 -0.134,0.013 -0.196,0.038c-0.062,0.026 -0.118,0.063 -0.165,0.11c-0.048,0.048 -0.086,0.104 -0.111,0.166c-0.026,0.062 -0.039,0.128 -0.039,0.195l0.027,0.23c1.227,7.073 6.687,12.855 13.928,15.086Z" style="fill:#a4b6ca;fill-rule:nonzero;"/><path d="M38.937,14.975c-0.165,0.235 -4.049,5.822 0.087,10.339c1.895,2.074 1.731,3.903 1.19,5.138l2.651,0c0.535,-1.824 0.315,-4.112 -1.834,-6.463c-3.045,-3.33 0.039,-7.829 0.086,-7.898c0.364,-0.514 0.169,-1.175 -0.43,-1.484c-0.599,-0.308 -1.381,-0.143 -1.746,0.368" style="fill:#a4b6ca;fill-rule:nonzero;"/><path d="M22.955,14.975c-0.168,0.235 -4.049,5.822 0.086,10.339c1.896,2.074 1.731,3.903 1.191,5.138l2.651,0c0.535,-1.823 0.315,-4.111 -1.839,-6.463c-3.046,-3.33 0.038,-7.829 0.087,-7.9c0.36,-0.512 0.168,-1.173 -0.433,-1.482c-0.602,-0.308 -1.379,-0.143 -1.743,0.368Z" style="fill:#a4b6ca;fill-rule:nonzero;"/><path d="M30.862,14.975c-0.169,0.235 -4.05,5.822 0.085,10.339c1.896,2.074 1.732,3.903 1.192,5.138l2.651,0c0.535,-1.823 0.315,-4.111 -1.84,-6.463c-3.046,-3.33 0.038,-7.829 0.087,-7.9c0.36,-0.512 0.168,-1.173 -0.433,-1.482c-0.601,-0.308 -1.379,-0.143 -1.742,0.368Z" style="fill:#a4b6ca;fill-rule:nonzero;"/></g><g id="sdg-icon-2.svg1" serif:id="sdg-icon-2.svg"></g></svg>