<svg xmlns="http://www.w3.org/2000/svg" xml:space="preserve" style="fill-rule:evenodd;clip-rule:evenodd;stroke-linejoin:round;stroke-miterlimit:2" viewBox="0 0 64 64"><path d="M55.56 31.358c-1.677-2.35-9.266-11.745-23.374-11.745-14.108 0-21.693 9.395-23.373 11.745-.072.1-.133.191-.183.262.05.075.111.162.183.264 1.68 2.354 9.266 11.749 23.373 11.749 14.107 0 21.697-9.395 23.374-11.747.074-.102.134-.191.182-.264a5.66 5.66 0 0 0-.182-.262m-31.241-5.807c.127-.186.549-.719.6-.786.109-.14.325-.169.476-.196.151-.026.35.056.374.168.024.113-.058.55-.132.625-.207.215-.746.518-1.042.47-.23-.035-.319-.213-.276-.281Zm-.504 1.002.051-.059c.177-.202.531-.246.775-.284.243-.038.573.082.609.244.037.162-.613.459-.732.573-.34.313-.871.95-1.182 1.019a.372.372 0 0 1-.254-.026c.202-.508.447-.998.732-1.465m5.279 10.83c-.191.752-.414 1.022-.603 1.259-.19.237-.892.546-1.337.513-.446-.034-.51-1.226-.51-1.84 0-.211-.3.416-.456-.86-.1-.817-.625.085-.662-.46-.037-.545-.299-.435-.573-.775-.274-.34-.617.033-1 .205-.383.171-.224.258-.764.087-.014-.004-.021-.008-.034-.013a9.77 9.77 0 0 1-.729-4.807.52.52 0 0 1 .06-.092c.52-.615.509-.759.509-.759l.574-.199s.918.142 1.609.402c.57.213 1.465.697 1.989.484.377-.155.672-.362.637-.676-.042-.394-.353-.487-.729-.222-.138.098-.433-.594-.665-.558-.232.035.286.812.09.845-.196.033-.593-.811-.66-.948-.068-.137-.373-.475-.647-.216-.579.55-1.521.517-1.71.659-.573.43-.727-.142-.714-.491.023-.079.046-.159.072-.238.188-.207.862-.276 1.094-.122.254.17.436-.043.536-.146.099-.104.064-.265 0-.4s.127-.237.258-.272c.132-.035.57-.342.745-.445.176-.104 1.083-.212 1.492-.009a.787.787 0 0 0 .982-.198c.2-.238.441-.44.712-.594.143-.063-.351-.526-.756-.025-.405.502-.613.546-.804.546-.191 0-1.326-.283-1.465-.642-.138-.358.356-.626.774-.827.418-.202 1.565-.197 1.857-.263.596-.131 1.357-.43 1.741-.169.383.261-1.602.708-.95 1.06.232.127 1.28-.603 1.64-.79.845-.436-.819-.58-.604-1.465.244-1.001-2.042-.614-3.183-.528a9.814 9.814 0 0 1 8.965-.837 9.819 9.819 0 0 1 5.882 6.818c.006.153-.01.306-.047.455-.089.354-.764.658-1.151.089-.099-.144-.521-.542-.509.138.011.681.662.751.033 1.16-.628.409-.742.31-1.032.413-.291.103-.574.804-.502 1.179.072.375.966 1.401.302 1.358-.156-.012-1.331-.814-1.524-1.33-.205-.543-.428-1.074-.587-1.483-.158-.41-.573-.51-.925-.272-.353.237.097.478-.155.99-.251.512-.43.967-.799.545-.959-1.099-2.356-.557-2.571-1.783-.118-.663-.689-.599-1.167-.975-.478-.375-.747-.573-.828-.306-.07.238 1.502 1.485 1.614 1.804.168.475-.47.891-.938 1.006-.467.115-.669-.262-1.128-.739-.458-.478-.658-.817-.689-.442-.046.54.434 1.337.901 1.631.398.252.843.366.714.775-.129.408 0 .178-.446.618-.445.441-.531.586-.498 1.197.032.612-.128.649-.224 1.159s-.318.069-.509.817m10.545-3.916c.33-.027.828.431.632.606-.195.176-.688.111-.937-.084-.249-.194.156-.509.305-.522Zm-.418-.302c-.106-.04-.2-.14-.28-.382-.08-.242.123-.382.318-.282.196.1.464.403.464.563 0 .161-.397.142-.505.1m-4.337-.018c-.194.174-.691.11-.939-.084-.248-.193.157-.509.304-.522.331-.03.828.432.637.606m-4.011 1.952c-.135.221-.505 1.873-.753 1.681-.248-.192.101-1.917.172-2.048.388-.712 1.228-.677.581.367Zm1.337 6.404a9.779 9.779 0 0 1-2.762-.395.4.4 0 0 1-.141-.22.4.4 0 0 1 .022-.26c.304-.793 1.21-1.103 1.924-1.172 1.592-.156 3.688 1.034 4.021.842.333-.192 1.008-1.068 1.997-1.031.675.026.67.14.896.225a9.788 9.788 0 0 1-5.957 2.011Zm6.931-2.86a1.604 1.604 0 0 1-.308-.114c-.537-.273-.473.163-.737.064-.263-.099.298-.71-.494-.191-.792.519-.576-.08-.92-.955-.344-.875.396-1.874 1.018-2.101.854-.309 1.384-.372 1.783-.471 1.181-.295 1.431-.995 1.644-.569l.116.227c.095.202.146.423.149.646a9.842 9.842 0 0 1-2.253 3.467m2.692-4.961c-.264-.072-1.367-1.598-.495-2.601.145-.165-.293-.651-.173-.661.478-.037.731.26.856.686a9.869 9.869 0 0 1-.188 2.579" style="fill:#a4b6ca;fill-rule:nonzero"/></svg>