<svg xmlns="http://www.w3.org/2000/svg" xml:space="preserve" style="fill-rule:evenodd;clip-rule:evenodd;stroke-linejoin:round;stroke-miterlimit:2" viewBox="0 0 64 64"><path d="m45.477 22.01-7.257 6.902c-.273.272-.414.473-.414 1.037v19.35a.414.414 0 0 0 .414.412h7.497a.412.412 0 0 0 .414-.412V22.182c0-.228-.179-.642-.653-.174M24.57 31.006l-7.258 6.9c-.273.273-.415.473-.415 1.036v10.353a.416.416 0 0 0 .415.412h7.497a.416.416 0 0 0 .292-.12.415.415 0 0 0 .121-.292V31.176c0-.229-.18-.647-.652-.173" style="fill:#a4b6ca;fill-rule:nonzero"/><path d="M48.776 13.636a.212.212 0 0 0-.013-.086.203.203 0 0 0-.048-.071.22.22 0 0 0-.134-.06h-.1l-5.557 1.26-.1.011a.224.224 0 0 0-.109.056.215.215 0 0 0 0 .299l1.332 1.332-12.592 12.592-5.816-5.817a.168.168 0 0 0-.118-.05.184.184 0 0 0-.065.013.18.18 0 0 0-.054.037l-1.578 1.579-9.324 9.324a.171.171 0 0 0 0 .237l1.58 1.579a.165.165 0 0 0 .181.036.176.176 0 0 0 .054-.036l9.211-9.205 4.22 4.221a.137.137 0 0 0 .013.02l1.579 1.577a.185.185 0 0 0 .054.037c.02.008.042.013.064.013a.174.174 0 0 0 .064-.013.185.185 0 0 0 .054-.037l14.288-14.291 1.333 1.331c.019.02.042.036.068.046a.197.197 0 0 0 .08.016.2.2 0 0 0 .08-.016.186.186 0 0 0 .068-.046.202.202 0 0 0 .061-.137v-.017l1.22-5.673.004-.061Z" style="fill:#a4b6ca;fill-rule:nonzero"/><path d="m35.065 32.215-3.512 3.54a.168.168 0 0 1-.226-.009l-3.181-3.24c-.583-.58-.708-.109-.708.118v16.673a.405.405 0 0 0 .12.292.41.41 0 0 0 .291.121h7.497a.413.413 0 0 0 .412-.413V32.345c0-.228-.179-.647-.695-.13" style="fill:#a4b6ca;fill-rule:nonzero"/></svg>