<?xml version="1.0" encoding="UTF-8" standalone="no"?><!DOCTYPE svg PUBLIC "-//W3C//DTD SVG 1.1//EN" "http://www.w3.org/Graphics/SVG/1.1/DTD/svg11.dtd"><svg width="100%" height="100%" viewBox="0 0 64 64" version="1.1" xmlns="http://www.w3.org/2000/svg" xmlns:xlink="http://www.w3.org/1999/xlink" xml:space="preserve" xmlns:serif="http://www.serif.com/" style="fill-rule:evenodd;clip-rule:evenodd;stroke-linejoin:round;stroke-miterlimit:2;"><path d="M53.677,29.273c0,-6.133 -4.878,-11.142 -10.955,-11.364c-0.783,-2.218 -2.235,-4.139 -4.156,-5.498c-1.92,-1.359 -4.215,-2.088 -6.567,-2.088c-2.353,-0 -4.648,0.729 -6.568,2.088c-1.92,1.359 -3.372,3.28 -4.155,5.498c-6.077,0.222 -10.953,5.232 -10.953,11.364c-0,1.729 0.395,3.436 1.156,4.99c0.76,1.553 1.866,2.913 3.232,3.974c-0.297,1.026 -0.448,2.089 -0.449,3.157c0,6.268 5.102,11.37 11.374,11.37c2.292,0.002 4.53,-0.692 6.418,-1.991c1.866,1.251 4.063,1.918 6.31,1.916c6.271,-0 11.373,-5.102 11.373,-11.371c-0,-1.046 -0.145,-2.087 -0.431,-3.094c1.361,-1.061 2.462,-2.419 3.219,-3.97c0.758,-1.551 1.152,-3.254 1.152,-4.981m-12.596,-7.578c-0,4.553 -3.37,8.322 -7.743,8.973c-0.076,-0.462 -0.116,-0.929 -0.119,-1.397c0.003,-2.175 0.786,-4.276 2.207,-5.923c1.421,-1.646 3.385,-2.728 5.536,-3.05c0.076,0.462 0.116,0.929 0.119,1.397Zm-9.04,26.128c-0.866,-0.837 -1.557,-1.839 -2.031,-2.947c-0.474,-1.107 -0.722,-2.298 -0.731,-3.503c-0.008,-1.205 0.225,-2.4 0.684,-3.513c0.459,-1.114 1.136,-2.125 1.991,-2.975c0.866,0.838 1.557,1.84 2.031,2.947c0.475,1.108 0.723,2.299 0.731,3.504c0.009,1.205 -0.224,2.399 -0.683,3.513c-0.46,1.114 -1.137,2.125 -1.992,2.974Zm-9.006,-27.524c4.374,0.651 7.743,4.42 7.743,8.974c-0.004,0.468 -0.044,0.935 -0.12,1.397c-4.372,-0.653 -7.739,-4.422 -7.739,-8.975c0.004,-0.468 0.043,-0.935 0.119,-1.397m6.769,13.037c-0.535,1.077 -1.28,2.036 -2.19,2.822c-0.911,0.785 -1.969,1.382 -3.113,1.754c-1.144,0.372 -2.35,0.512 -3.549,0.412c-1.198,-0.099 -2.365,-0.437 -3.431,-0.993c0.535,-1.077 1.28,-2.036 2.191,-2.822c0.91,-0.785 1.968,-1.382 3.112,-1.754c1.144,-0.372 2.35,-0.512 3.549,-0.412c1.198,0.099 2.365,0.437 3.431,0.993Zm4.355,-0.062c1.072,-0.563 2.247,-0.905 3.454,-1.006c1.207,-0.101 2.422,0.041 3.573,0.418c1.151,0.377 2.215,0.981 3.128,1.777c0.913,0.795 1.658,1.766 2.189,2.854c-1.072,0.564 -2.247,0.906 -3.454,1.007c-1.207,0.101 -2.422,-0.041 -3.573,-0.418c-1.151,-0.377 -2.215,-0.981 -3.128,-1.777c-0.913,-0.795 -1.658,-1.766 -2.189,-2.855Zm-2.162,-20.66c1.768,0.002 3.498,0.52 4.977,1.49c1.479,0.97 2.642,2.35 3.349,3.971c-1.798,0.322 -3.493,1.07 -4.941,2.182c-1.449,1.112 -2.61,2.555 -3.385,4.209c-0.775,-1.654 -1.935,-3.098 -3.384,-4.21c-1.449,-1.112 -3.144,-1.86 -4.942,-2.181c0.707,-1.621 1.871,-3.001 3.349,-3.971c1.479,-0.97 3.209,-1.488 4.977,-1.49Zm-19.384,16.66c0.002,-2.24 0.831,-4.4 2.328,-6.066c1.496,-1.666 3.554,-2.722 5.781,-2.965c-0.238,1.813 -0.034,3.656 0.596,5.373c0.63,1.716 1.667,3.254 3.021,4.482c-1.822,0.21 -3.566,0.857 -5.084,1.886c-1.518,1.029 -2.765,2.409 -3.636,4.023c-0.946,-0.849 -1.702,-1.887 -2.22,-3.047c-0.518,-1.16 -0.786,-2.416 -0.786,-3.686Zm3.937,12.121c-0,-0.633 0.066,-1.264 0.198,-1.883c1.635,0.791 3.437,1.178 5.253,1.129c1.816,-0.05 3.593,-0.535 5.183,-1.414c-0.337,1.787 -0.239,3.629 0.287,5.369c0.525,1.741 1.462,3.329 2.732,4.631c-1.379,0.809 -2.946,1.239 -4.544,1.246c-1.597,0.008 -3.169,-0.407 -4.555,-1.202c-1.385,-0.795 -2.537,-1.942 -3.336,-3.325c-0.8,-1.383 -1.22,-2.953 -1.218,-4.551Zm30.894,-0.076c0.003,1.589 -0.413,3.151 -1.204,4.529c-0.791,1.378 -1.931,2.524 -3.304,3.323c-1.374,0.799 -2.933,1.223 -4.522,1.229c-1.589,0.007 -3.152,-0.404 -4.532,-1.192c1.249,-1.311 2.165,-2.902 2.671,-4.641c0.507,-1.738 0.589,-3.572 0.24,-5.349c1.594,0.885 3.377,1.373 5.199,1.423c1.822,0.049 3.629,-0.341 5.268,-1.137c0.123,0.597 0.184,1.205 0.184,1.815Zm-7.72,-11.288c1.15,-1.063 2.067,-2.352 2.695,-3.786c0.627,-1.434 0.951,-2.983 0.95,-4.549c-0.001,-0.486 -0.033,-0.971 -0.095,-1.453c1.741,0.185 3.391,0.869 4.751,1.971c1.36,1.102 2.372,2.573 2.914,4.238c0.542,1.664 0.591,3.45 0.14,5.141c-0.451,1.691 -1.381,3.216 -2.679,4.39c-0.862,-1.616 -2.1,-3.001 -3.61,-4.037c-1.51,-1.037 -3.248,-1.693 -5.066,-1.915Z" style="fill:#a4b6ca;fill-rule:nonzero;"/><g id="sdg-icon-17.svg"></g></svg>