<svg xmlns="http://www.w3.org/2000/svg" xml:space="preserve" style="fill-rule:evenodd;clip-rule:evenodd;stroke-linejoin:round;stroke-miterlimit:2" viewBox="0 0 64 64"><path d="m27.631 25.566-12.137-7.009v22.671l12.137 3.662V25.566ZM28.966 25.612v19.286l12.215-3.672V18.558l-12.215 7.054ZM50.709 17.983a1.409 1.409 0 0 0-.1-.559 1.438 1.438 0 0 0-1.892-.796 1.453 1.453 0 0 0-.779.796c-.07.178-.104.368-.1.559v1.547h2.871v-1.547ZM48.195 40.827h-.357l1.437 5.018 1.434-5.018h-.357.357V20.656h-2.872v20.171h.358Z" style="fill:#a4b6ca;fill-rule:nonzero"/><path d="m43.789 19.531-1.301-1.028v23.341l-13.486 4.357h-1.371L14.205 42.45V18.503l-1.302 1.028v23.832l14.666 4.06h1.494l13.531-4.296 1.195-.351V19.531Z" style="fill:#a4b6ca;fill-rule:nonzero"/></svg>