<svg
    xmlns="http://www.w3.org/2000/svg"
    xml:space="preserve"
    style="
        fill-rule: evenodd;
        clip-rule: evenodd;
        stroke-linejoin: round;
        stroke-miterlimit: 2;
    "
    viewBox="0 0 64 64"
>
    <clipPath id="a"><path d="M8.774 8.774h46.452v46.452H8.774z" /></clipPath>
    <g clip-path="url(#a)">
        <path
            d="M32 18.769a13.348 13.348 0 0 0-13.097 15.948 13.34 13.34 0 0 0 10.486 10.489 13.35 13.35 0 0 0 15.953-13.091A13.348 13.348 0 0 0 32 18.769Zm-.988 5.272c0-.444.445-.933.993-.933s.988.489.988.933v4.583c0 .441-.441.926-.988.926-.546 0-.993-.485-.993-.926v-4.583ZM32 38.953a6.946 6.946 0 0 1-6.853-5.899 6.943 6.943 0 0 1 4.79-7.668v2.585a4.542 4.542 0 1 0 4.114-.007v-2.585a6.948 6.948 0 0 1 4.812 7.669A6.945 6.945 0 0 1 32 38.953ZM16.678 31.998c0-.605-.537-1.092-1.026-1.092H9.807c-.492 0-1.033.49-1.033 1.092 0 .603.541 1.099 1.033 1.099h5.845c.489 0 1.026-.492 1.026-1.099ZM55.226 31.998c0-.605-.537-1.092-1.026-1.092h-5.844c-.492 0-1.033.49-1.033 1.092 0 .603.541 1.099 1.033 1.099H54.2c.489 0 1.026-.492 1.026-1.099ZM32 16.678c.604 0 1.093-.536 1.093-1.025V9.808c0-.493-.491-1.034-1.093-1.034s-1.101.541-1.101 1.034v5.845c0 .489.495 1.025 1.101 1.025ZM32 55.225c.604 0 1.093-.536 1.093-1.025v-5.844c0-.492-.491-1.034-1.093-1.034s-1.101.542-1.101 1.034V54.2c0 .489.495 1.025 1.101 1.025ZM18.706 24.387c.301-.525.08-1.217-.346-1.457l-5.072-2.903c-.428-.245-1.14-.091-1.442.437-.301.528-.075 1.223.352 1.468l5.073 2.903c.424.243 1.134.082 1.435-.445M52.159 43.534c.3-.523.078-1.216-.346-1.456l-5.072-2.903c-.428-.244-1.141-.091-1.441.438-.301.529-.077 1.223.35 1.467l5.073 2.902c.424.244 1.135.082 1.436-.445M39.613 18.703c.525.3 1.216.078 1.457-.346l2.902-5.073c.246-.428.091-1.141-.436-1.441-.527-.301-1.224-.077-1.468.351l-2.9 5.073c-.243.425-.082 1.136.445 1.437M20.466 52.159c.524.3 1.215.079 1.457-.347l2.902-5.071c.245-.428.091-1.141-.437-1.442-.528-.3-1.221-.077-1.465.352l-2.902 5.071c-.244.425-.082 1.136.445 1.437ZM24.364 18.716c.523-.302.682-1.011.438-1.435l-2.914-5.067c-.246-.427-.94-.651-1.464-.349-.525.301-.684 1.017-.437 1.444l2.914 5.065c.244.425.937.644 1.465.342M43.58 52.133c.524-.301.682-1.011.438-1.434l-2.913-5.067c-.246-.428-.94-.652-1.465-.35-.526.301-.684 1.017-.437 1.445l2.914 5.065c.244.425.938.643 1.464.341M45.284 24.363c.302.525 1.01.682 1.434.439l5.066-2.914c.428-.246.654-.94.351-1.465-.302-.524-1.016-.683-1.444-.437L45.626 22.9c-.426.244-.644.939-.342 1.464M11.867 43.583c.302.524 1.01.682 1.435.438l5.066-2.914c.427-.246.653-.941.349-1.465-.303-.525-1.016-.683-1.443-.438l-5.065 2.913c-.426.244-.644.939-.342 1.465"
            style="fill-rule: nonzero"
        />
    </g>
</svg>
