<svg xmlns="http://www.w3.org/2000/svg" xml:space="preserve" style="fill-rule:evenodd;clip-rule:evenodd;stroke-linejoin:round;stroke-miterlimit:2" viewBox="0 0 64 64"><path d="m51.904 34.288-9.568-5.522V17.72a.644.644 0 0 0-.322-.563l-9.891-5.715a.656.656 0 0 0-.653 0l-9.899 5.713a.66.66 0 0 0-.322.564v11.047l-9.567 5.522a.657.657 0 0 0-.327.564V46.28a.653.653 0 0 0 .327.564l9.892 5.714a.655.655 0 0 0 .653 0l9.566-5.527 9.565 5.522a.652.652 0 0 0 .652 0l9.894-5.714a.657.657 0 0 0 .327-.563V34.847a.656.656 0 0 0-.327-.559ZM31.139 45.147l-7.934-4.582 7.935-4.581-.001 9.163Zm9.24-16.003-7.934 4.579v-9.161l7.934 4.582Zm-9.239 4.579-7.934-4.58 7.934-4.581v9.161Zm1.958 1.127 8.586-4.953 8.589 4.956-8.589 4.959-8.586-4.962Zm7.934-6.841-7.934-4.582 7.934-4.58v9.162Zm-10.544-4.582-7.935 4.582v-9.158l7.935 4.576Zm-9.239 27.431-8.587-4.957v-9.917l8.587 4.962v9.912Zm1.305 0v-9.162l7.935 4.582-7.935 4.58Zm28.373-4.957-8.591 4.957v-9.912l8.589-4.958.002 9.913Z" style="fill:#a4b6ca;fill-rule:nonzero"/></svg>