<svg xmlns="http://www.w3.org/2000/svg" xml:space="preserve" style="fill-rule:evenodd;clip-rule:evenodd;stroke-linejoin:round;stroke-miterlimit:2" viewBox="0 0 64 64"><path d="M48.559 9.338s-.963 1.279-.687 2.526c.276 1.246 1.703 1.987 1.703 1.987s.963-1.279.687-2.524c-.276-1.246-1.703-1.989-1.703-1.989ZM46.989 16.647s.963-1.28.687-2.526c-.276-1.245-1.702-1.987-1.702-1.987s-.964 1.279-.687 2.525c.277 1.247 1.704 1.988 1.704 1.988M50.947 15.277s1.017 1.031 2.175.923c1.159-.107 2.016-1.295 2.016-1.295s-1.015-1.03-2.175-.923c-1.16.106-2.016 1.295-2.016 1.295ZM52.614 9.796c-.942.956-.81 2.648-.81 2.648s1.661.144 2.606-.81c.944-.955.809-2.648.809-2.648s-1.662-.145-2.605.81ZM50.535 19.079c1.154.138 2.239-.854 2.239-.854s-.786-1.217-1.942-1.348c-1.155-.132-2.24.855-2.24.855s.786 1.211 1.94 1.347M51.565 39.129h-8.626a1.22 1.22 0 0 0 0 2.441h8.626a1.223 1.223 0 0 0 1.221-1.22 1.22 1.22 0 0 0-1.221-1.221ZM51.565 52.582h-8.626a1.22 1.22 0 0 0 0 2.441h8.626a1.22 1.22 0 0 0 0-2.441ZM12.769 36.167a5.658 5.658 0 0 0-.599-.154s.221.069.599.154Z" style="fill:#a4b6ca;fill-rule:nonzero"/><path d="M51.248 42.423h-7.994a.695.695 0 0 0-.695.694v2.421l-5.218.572-7.623-.174v-4.658a20.86 20.86 0 0 0 3.032-.616c7.34-2.07 8.94-8.137 8.78-12.335-.159-4.276 1.209-5.936 3.174-6.674a8.933 8.933 0 0 1 1.629-.432c.022 1.05.229 2.271.705 3.725a10.3 10.3 0 0 0 .52-.042c-.495-1.488-.707-2.712-.719-3.756a9.126 9.126 0 0 1 1.741-.053 11.014 11.014 0 0 1-1.657-1.179c.33-2.024 1.536-3.267 2.778-4.539.687-.7 1.389-1.422 1.947-2.283l-.433-.279c-.527.817-1.217 1.521-1.882 2.202-1.211 1.24-2.435 2.506-2.85 4.517a16.723 16.723 0 0 1-1.26-1.266c-1.81-2.029-4.14-.54-7.461 2.554-3.321 3.093-7.503 3.197-11.585-.979-5.381-5.514-10.083-5.481-13.305-5.169 2.204.939 2.977 2.998 4.09 8.232 1.169 5.495 4.122 7.977 8.15 8.32-2.242.793-2.353 2.06-5.359 4.135-2.347 1.618-5.649 1.107-6.983.801 2.457.767 5.368 3.344 7.973 4.236 1.536.523 3.133.851 4.752.974v4.458l-13.658-.312v3.11l25.505-.584 5.218.572v2.419a.696.696 0 0 0 .695.696h7.994a.698.698 0 0 0 .696-.696v-7.918a.695.695 0 0 0-.697-.694Zm-24.499-.975c.573.009 1.139-.009 1.711-.047v4.507l-1.711-.039v-4.421ZM11.09 48.124c0 .656-.458 1.187-1.021 1.187h-.615c-.563 0-1.023-.531-1.023-1.187v-2.152c0-.656.458-1.187 1.023-1.187h.615c.563 0 1.021.531 1.021 1.187v2.152Z" style="fill:#a4b6ca;fill-rule:nonzero"/></svg>