<?xml version="1.0" encoding="UTF-8" standalone="no"?><!DOCTYPE svg PUBLIC "-//W3C//DTD SVG 1.1//EN" "http://www.w3.org/Graphics/SVG/1.1/DTD/svg11.dtd"><svg width="100%" height="100%" viewBox="0 0 64 64" version="1.1" xmlns="http://www.w3.org/2000/svg" xmlns:xlink="http://www.w3.org/1999/xlink" xml:space="preserve" xmlns:serif="http://www.serif.com/" style="fill-rule:evenodd;clip-rule:evenodd;stroke-linejoin:round;stroke-miterlimit:2;"><path d="M39.306,34.461l-15.642,-0c-0.047,0.003 -0.092,0.025 -0.124,0.06c-0.031,0.036 -0.048,0.082 -0.045,0.13l-0,4.701c-0.003,0.048 0.013,0.095 0.045,0.13c0.032,0.036 0.076,0.058 0.124,0.061l15.642,-0c0.048,-0.003 0.092,-0.025 0.124,-0.061c0.032,-0.035 0.048,-0.082 0.046,-0.13l-0,-4.701c0.002,-0.048 -0.015,-0.094 -0.046,-0.13c-0.032,-0.035 -0.076,-0.057 -0.124,-0.06Z" style="fill:#a4b6ca;fill-rule:nonzero;"/><path d="M39.306,24.457l-15.642,0c-0.048,0.003 -0.092,0.025 -0.124,0.061c-0.031,0.035 -0.048,0.082 -0.045,0.129l-0,4.702c-0.003,0.047 0.013,0.094 0.045,0.13c0.032,0.036 0.076,0.057 0.124,0.06l15.642,0c0.048,-0.003 0.092,-0.024 0.124,-0.06c0.032,-0.036 0.048,-0.083 0.045,-0.13l0,-4.702c0.003,-0.047 -0.014,-0.094 -0.045,-0.129c-0.032,-0.036 -0.077,-0.058 -0.124,-0.061Z" style="fill:#a4b6ca;fill-rule:nonzero;"/><path d="M39.086,17.351l-7.509,-7.507c-0.024,-0.024 -0.057,-0.038 -0.091,-0.038c-0.034,0 -0.067,0.014 -0.092,0.038l-7.508,7.507c-0.018,0.019 -0.03,0.042 -0.035,0.067c-0.005,0.025 -0.003,0.051 0.007,0.075c0.01,0.023 0.026,0.043 0.048,0.058c0.021,0.014 0.046,0.022 0.072,0.022l15.016,-0c0.026,-0 0.051,-0.008 0.072,-0.022c0.021,-0.015 0.038,-0.035 0.048,-0.058c0.01,-0.024 0.012,-0.05 0.007,-0.075c-0.005,-0.025 -0.017,-0.048 -0.035,-0.067Z" style="fill:#a4b6ca;fill-rule:nonzero;"/><path d="M46.135,39.6l7.508,-7.508c0.013,-0.012 0.022,-0.026 0.029,-0.042c0.006,-0.016 0.01,-0.033 0.01,-0.05c-0,-0.017 -0.004,-0.034 -0.01,-0.05c-0.007,-0.015 -0.016,-0.03 -0.029,-0.042l-7.508,-7.508c-0.018,-0.018 -0.041,-0.031 -0.066,-0.036c-0.025,-0.005 -0.051,-0.002 -0.075,0.008c-0.024,0.01 -0.044,0.026 -0.058,0.047c-0.014,0.022 -0.022,0.047 -0.022,0.072l-0,15.018c0,0.025 0.008,0.05 0.022,0.072c0.014,0.021 0.034,0.038 0.058,0.047c0.024,0.01 0.05,0.013 0.075,0.008c0.025,-0.005 0.048,-0.018 0.066,-0.036Z" style="fill:#a4b6ca;fill-rule:nonzero;"/><path d="M23.886,46.65l7.508,7.505c0.012,0.013 0.027,0.022 0.042,0.029c0.016,0.006 0.033,0.01 0.05,0.01c0.017,-0 0.034,-0.004 0.05,-0.01c0.015,-0.007 0.03,-0.016 0.041,-0.029l7.509,-7.508c0.018,-0.018 0.031,-0.041 0.036,-0.066c0.005,-0.026 0.003,-0.052 -0.007,-0.076c-0.01,-0.024 -0.027,-0.044 -0.048,-0.058c-0.022,-0.014 -0.047,-0.022 -0.073,-0.022l-15.016,0c-0.027,-0.001 -0.053,0.007 -0.075,0.021c-0.022,0.015 -0.039,0.035 -0.049,0.06c-0.01,0.024 -0.012,0.051 -0.006,0.077c0.006,0.025 0.019,0.049 0.038,0.067Z" style="fill:#a4b6ca;fill-rule:nonzero;"/><path d="M16.837,24.4l-7.508,7.508c-0.013,0.012 -0.022,0.027 -0.029,0.042c-0.006,0.016 -0.01,0.033 -0.01,0.05c0,0.017 0.004,0.034 0.01,0.05c0.007,0.016 0.016,0.03 0.029,0.042l7.508,7.508c0.018,0.018 0.041,0.031 0.066,0.036c0.025,0.005 0.051,0.002 0.075,-0.008c0.024,-0.009 0.044,-0.026 0.058,-0.047c0.014,-0.022 0.022,-0.047 0.022,-0.072l0,-15.018c0,-0.025 -0.008,-0.05 -0.022,-0.072c-0.014,-0.021 -0.034,-0.037 -0.058,-0.047c-0.024,-0.01 -0.05,-0.013 -0.075,-0.008c-0.025,0.005 -0.048,0.018 -0.066,0.036Z" style="fill:#a4b6ca;fill-rule:nonzero;"/><g id="sdg-icon-10.svg"></g></svg>