<?xml version="1.0" encoding="UTF-8" standalone="no"?><!DOCTYPE svg PUBLIC "-//W3C//DTD SVG 1.1//EN" "http://www.w3.org/Graphics/SVG/1.1/DTD/svg11.dtd"><svg width="100%" height="100%" viewBox="0 0 64 64" version="1.1" xmlns="http://www.w3.org/2000/svg" xmlns:xlink="http://www.w3.org/1999/xlink" xml:space="preserve" xmlns:serif="http://www.serif.com/" style="fill-rule:evenodd;clip-rule:evenodd;stroke-linejoin:round;stroke-miterlimit:2;"><clipPath id="_clip1"><rect id="sdg-icon-11.svg" x="8.258" y="14.452" width="47.484" height="35.097"/></clipPath><g clip-path="url(#_clip1)"><path d="M8.903,39.83l10.402,0c0.049,0.001 0.098,-0.014 0.14,-0.04c0.041,-0.027 0.074,-0.066 0.094,-0.111c0.02,-0.045 0.026,-0.095 0.018,-0.144c-0.008,-0.049 -0.03,-0.094 -0.064,-0.131l-0.014,-0.015l-5.177,-6.697l-0.051,-0.056c-0.024,-0.027 -0.053,-0.047 -0.085,-0.062c-0.032,-0.014 -0.068,-0.021 -0.103,-0.021c-0.062,0.001 -0.121,0.024 -0.167,0.065l-0.031,0.036l-0.05,0.055l-5.049,6.627l-0.078,0.095c-0.028,0.042 -0.043,0.092 -0.043,0.143c-0,0.034 0.006,0.067 0.019,0.098c0.013,0.031 0.032,0.06 0.056,0.084c0.024,0.024 0.053,0.042 0.084,0.055c0.031,0.013 0.065,0.02 0.099,0.019Z" style="fill:#a4b6ca;fill-rule:nonzero;"/><path d="M19.273,40.777l-10.426,0c-0.033,0 -0.066,0.007 -0.097,0.02c-0.031,0.013 -0.059,0.031 -0.083,0.055c-0.024,0.024 -0.043,0.052 -0.055,0.083c-0.013,0.031 -0.02,0.064 -0.02,0.098l0,8.155c0,0.034 0.007,0.067 0.019,0.098c0.013,0.031 0.032,0.059 0.056,0.083c0.023,0.024 0.052,0.043 0.083,0.056c0.031,0.013 0.064,0.02 0.097,0.02l3.356,-0l0,-5.134c-0,-0.033 0.006,-0.066 0.019,-0.097c0.013,-0.031 0.032,-0.06 0.056,-0.083c0.023,-0.024 0.051,-0.043 0.083,-0.056c0.031,-0.012 0.064,-0.019 0.097,-0.019l3.113,0c0.034,0 0.067,0.007 0.098,0.019c0.031,0.013 0.059,0.032 0.083,0.056c0.023,0.023 0.042,0.052 0.055,0.083c0.013,0.031 0.019,0.064 0.019,0.097l0,5.134l3.445,-0c0.034,-0 0.067,-0.007 0.098,-0.02c0.031,-0.013 0.059,-0.032 0.083,-0.056c0.024,-0.024 0.042,-0.052 0.055,-0.083c0.013,-0.031 0.019,-0.064 0.019,-0.098l0,-8.158c-0,-0.067 -0.027,-0.131 -0.075,-0.178c-0.047,-0.047 -0.111,-0.074 -0.178,-0.075Z" style="fill:#a4b6ca;fill-rule:nonzero;"/><path d="M55.306,38.639l-10.319,-0c-0.032,-0.001 -0.065,0.005 -0.095,0.017c-0.031,0.012 -0.059,0.03 -0.082,0.053c-0.024,0.023 -0.042,0.05 -0.055,0.08c-0.013,0.03 -0.02,0.062 -0.02,0.095l-0,10.42c0.001,0.065 0.028,0.128 0.075,0.174c0.048,0.046 0.111,0.071 0.177,0.07l10.319,0c0.032,0.001 0.065,-0.005 0.095,-0.017c0.031,-0.012 0.059,-0.03 0.082,-0.053c0.023,-0.022 0.042,-0.049 0.055,-0.079c0.013,-0.03 0.02,-0.063 0.021,-0.095l-0,-10.42c-0,-0.033 -0.007,-0.065 -0.02,-0.095c-0.013,-0.03 -0.032,-0.058 -0.056,-0.08c-0.023,-0.023 -0.051,-0.041 -0.081,-0.053c-0.031,-0.012 -0.063,-0.018 -0.096,-0.017Zm-5.646,6.802c-0.001,0.033 -0.007,0.065 -0.02,0.095c-0.013,0.03 -0.032,0.057 -0.055,0.08c-0.023,0.023 -0.051,0.041 -0.081,0.053c-0.031,0.012 -0.063,0.019 -0.096,0.018l-3.083,0c-0.033,0.001 -0.065,-0.005 -0.096,-0.017c-0.03,-0.013 -0.058,-0.031 -0.082,-0.053c-0.023,-0.023 -0.042,-0.051 -0.055,-0.081c-0.013,-0.03 -0.02,-0.062 -0.02,-0.095l-0,-1.873c0,-0.033 0.007,-0.065 0.02,-0.096c0.013,-0.03 0.032,-0.057 0.055,-0.08c0.024,-0.023 0.052,-0.041 0.082,-0.053c0.031,-0.012 0.063,-0.018 0.096,-0.018l3.083,0c0.033,0 0.065,0.006 0.096,0.018c0.03,0.012 0.058,0.03 0.081,0.053c0.024,0.023 0.042,0.05 0.055,0.081c0.013,0.03 0.02,0.062 0.02,0.095l-0,1.873Zm-0,-3.463c-0.001,0.033 -0.007,0.065 -0.02,0.095c-0.013,0.03 -0.032,0.058 -0.055,0.08c-0.023,0.023 -0.051,0.041 -0.081,0.054c-0.031,0.012 -0.063,0.018 -0.096,0.017l-3.083,0c-0.033,0.001 -0.065,-0.005 -0.096,-0.017c-0.03,-0.012 -0.058,-0.03 -0.082,-0.053c-0.023,-0.023 -0.042,-0.05 -0.055,-0.081c-0.013,-0.03 -0.02,-0.062 -0.02,-0.095l-0,-1.874c0.001,-0.066 0.028,-0.129 0.076,-0.175c0.047,-0.046 0.111,-0.071 0.177,-0.07l3.083,-0c0.033,-0.001 0.065,0.005 0.095,0.017c0.031,0.012 0.058,0.03 0.082,0.053c0.023,0.023 0.042,0.05 0.055,0.08c0.013,0.03 0.019,0.062 0.02,0.095l-0,1.874Zm4.712,3.463c-0,0.033 -0.007,0.065 -0.02,0.095c-0.013,0.031 -0.032,0.058 -0.056,0.081c-0.023,0.023 -0.051,0.041 -0.081,0.053c-0.031,0.012 -0.063,0.018 -0.096,0.017l-3.082,0c-0.033,0.001 -0.065,-0.005 -0.096,-0.017c-0.03,-0.012 -0.058,-0.03 -0.082,-0.053c-0.023,-0.023 -0.042,-0.05 -0.055,-0.081c-0.013,-0.03 -0.02,-0.062 -0.02,-0.095l-0,-1.873c0,-0.033 0.007,-0.065 0.02,-0.096c0.013,-0.03 0.032,-0.057 0.055,-0.08c0.024,-0.023 0.052,-0.041 0.082,-0.053c0.031,-0.012 0.063,-0.018 0.096,-0.018l3.082,0c0.033,-0 0.065,0.006 0.096,0.018c0.03,0.012 0.058,0.03 0.081,0.053c0.024,0.023 0.043,0.05 0.056,0.08c0.013,0.031 0.02,0.063 0.02,0.096l-0,1.873Zm-0,-3.463c-0,0.033 -0.007,0.065 -0.02,0.096c-0.013,0.03 -0.032,0.057 -0.056,0.08c-0.023,0.023 -0.051,0.041 -0.081,0.053c-0.031,0.012 -0.063,0.018 -0.096,0.017l-3.082,0c-0.033,0.001 -0.065,-0.005 -0.096,-0.017c-0.03,-0.012 -0.058,-0.03 -0.082,-0.053c-0.023,-0.023 -0.042,-0.05 -0.055,-0.08c-0.013,-0.031 -0.02,-0.063 -0.02,-0.096l-0,-1.874c0,-0.033 0.007,-0.065 0.02,-0.095c0.013,-0.03 0.032,-0.058 0.056,-0.08c0.023,-0.023 0.051,-0.041 0.081,-0.053c0.031,-0.012 0.063,-0.018 0.096,-0.017l3.082,-0c0.032,-0.001 0.065,0.005 0.095,0.017c0.031,0.012 0.059,0.03 0.082,0.053c0.023,0.022 0.042,0.05 0.055,0.08c0.013,0.03 0.02,0.062 0.021,0.095l-0,1.874Z" style="fill:#a4b6ca;fill-rule:nonzero;"/><path d="M31.319,14.453l-10.099,-0c-0.033,0 -0.065,0.007 -0.095,0.019c-0.03,0.013 -0.057,0.031 -0.08,0.054c-0.022,0.023 -0.041,0.05 -0.053,0.08c-0.012,0.03 -0.019,0.062 -0.018,0.095l-0,34.51c-0,0.065 0.026,0.128 0.072,0.174c0.046,0.046 0.108,0.072 0.174,0.073l10.099,-0c0.066,-0 0.128,-0.026 0.175,-0.073c0.046,-0.046 0.073,-0.109 0.073,-0.174l0,-34.512c0,-0.065 -0.026,-0.128 -0.073,-0.175c-0.046,-0.046 -0.109,-0.072 -0.175,-0.072m-6.007,31.074c0,0.017 -0.003,0.035 -0.01,0.051c-0.007,0.016 -0.017,0.031 -0.029,0.043c-0.012,0.012 -0.027,0.022 -0.043,0.029c-0.016,0.006 -0.033,0.01 -0.051,0.01l-2.311,-0c-0.036,-0 -0.07,-0.014 -0.094,-0.039c-0.025,-0.025 -0.039,-0.059 -0.039,-0.094l-0,-2.576c-0,-0.017 0.003,-0.035 0.01,-0.051c0.006,-0.016 0.016,-0.03 0.029,-0.043c0.012,-0.012 0.027,-0.022 0.043,-0.028c0.016,-0.007 0.033,-0.01 0.051,-0.01l2.311,-0c0.018,-0 0.035,0.003 0.051,0.01c0.016,0.006 0.031,0.016 0.043,0.028c0.012,0.013 0.022,0.027 0.029,0.043c0.007,0.016 0.01,0.034 0.01,0.051l0,2.576Zm0,-5.918c-0,0.018 -0.004,0.035 -0.01,0.051c-0.007,0.016 -0.017,0.03 -0.029,0.042c-0.013,0.013 -0.027,0.022 -0.043,0.029c-0.016,0.006 -0.033,0.01 -0.051,0.01l-2.311,-0c-0.035,-0.001 -0.068,-0.015 -0.092,-0.039c-0.025,-0.025 -0.038,-0.058 -0.039,-0.093l0,-2.575c0,-0.017 0.004,-0.035 0.01,-0.051c0.007,-0.016 0.017,-0.031 0.029,-0.043c0.012,-0.012 0.027,-0.022 0.043,-0.029c0.017,-0.007 0.034,-0.01 0.051,-0.01l2.309,0c0.018,0 0.035,0.003 0.051,0.01c0.016,0.007 0.031,0.017 0.043,0.029c0.013,0.012 0.022,0.027 0.029,0.043c0.007,0.016 0.01,0.034 0.01,0.051l0,2.575Zm0,-5.916c0,0.017 -0.003,0.035 -0.01,0.051c-0.007,0.016 -0.017,0.031 -0.029,0.043c-0.012,0.012 -0.027,0.022 -0.043,0.029c-0.016,0.006 -0.033,0.01 -0.051,0.01l-2.311,-0c-0.036,-0 -0.07,-0.014 -0.094,-0.039c-0.025,-0.025 -0.039,-0.059 -0.039,-0.094l-0,-2.577c-0,-0.036 0.014,-0.069 0.039,-0.094c0.025,-0.025 0.058,-0.038 0.094,-0.038l2.311,-0c0.035,-0 0.069,0.013 0.094,0.038c0.025,0.025 0.039,0.058 0.039,0.094l0,2.577Zm0,-5.918c0,0.035 -0.014,0.069 -0.039,0.094c-0.025,0.025 -0.059,0.039 -0.094,0.039l-2.311,0c-0.035,-0.001 -0.069,-0.015 -0.093,-0.04c-0.024,-0.025 -0.038,-0.059 -0.038,-0.094l0,-2.576c0.001,-0.017 0.004,-0.035 0.011,-0.051c0.006,-0.015 0.016,-0.03 0.029,-0.042c0.012,-0.012 0.027,-0.022 0.043,-0.028c0.016,-0.007 0.033,-0.01 0.05,-0.01l2.309,0c0.018,-0 0.035,0.003 0.051,0.01c0.016,0.006 0.03,0.016 0.043,0.028c0.012,0.012 0.022,0.027 0.029,0.042c0.006,0.016 0.01,0.034 0.01,0.051l0,2.577Zm0,-5.916c-0,0.035 -0.014,0.069 -0.039,0.093c-0.025,0.025 -0.059,0.039 -0.094,0.039l-2.311,0c-0.036,0 -0.069,-0.014 -0.094,-0.039c-0.025,-0.024 -0.039,-0.058 -0.039,-0.093l-0,-2.577c-0,-0.036 0.014,-0.069 0.039,-0.094c0.024,-0.025 0.058,-0.039 0.094,-0.039l2.311,-0c0.018,-0 0.035,0.003 0.051,0.01c0.016,0.007 0.031,0.016 0.043,0.029c0.012,0.012 0.022,0.027 0.029,0.043c0.007,0.016 0.01,0.033 0.01,0.051l0,2.577Zm4.534,23.668c0,0.017 -0.003,0.035 -0.01,0.051c-0.007,0.016 -0.016,0.031 -0.029,0.043c-0.012,0.013 -0.027,0.022 -0.043,0.029c-0.016,0.007 -0.034,0.01 -0.051,0.01l-2.311,-0c-0.018,-0 -0.035,-0.003 -0.051,-0.01c-0.016,-0.007 -0.031,-0.017 -0.043,-0.029c-0.013,-0.012 -0.023,-0.027 -0.029,-0.043c-0.007,-0.016 -0.01,-0.034 -0.01,-0.051l-0,-2.576c-0,-0.017 0.003,-0.035 0.01,-0.051c0.007,-0.016 0.016,-0.03 0.029,-0.043c0.012,-0.012 0.027,-0.022 0.043,-0.028c0.016,-0.007 0.033,-0.01 0.051,-0.01l2.311,-0c0.017,-0 0.035,0.003 0.051,0.01c0.016,0.006 0.031,0.016 0.043,0.028c0.013,0.012 0.022,0.027 0.029,0.043c0.007,0.016 0.01,0.034 0.01,0.051l0,2.576Zm0,-5.918c0,0.018 -0.003,0.035 -0.01,0.051c-0.006,0.017 -0.016,0.031 -0.029,0.044c-0.012,0.012 -0.027,0.022 -0.043,0.028c-0.016,0.007 -0.034,0.01 -0.051,0.01l-2.311,0c-0.018,0 -0.035,-0.003 -0.051,-0.01c-0.016,-0.006 -0.031,-0.016 -0.044,-0.028c-0.012,-0.013 -0.022,-0.028 -0.028,-0.044c-0.007,-0.016 -0.01,-0.033 -0.01,-0.051l-0,-2.575c-0,-0.018 0.003,-0.035 0.01,-0.051c0.006,-0.016 0.016,-0.031 0.028,-0.043c0.013,-0.013 0.028,-0.022 0.044,-0.029c0.016,-0.007 0.033,-0.01 0.051,-0.01l2.311,0c0.017,0 0.035,0.003 0.051,0.01c0.016,0.006 0.031,0.016 0.043,0.029c0.013,0.012 0.023,0.027 0.029,0.043c0.007,0.016 0.01,0.033 0.01,0.051l0,2.575Zm0,-5.916c0,0.017 -0.003,0.035 -0.01,0.051c-0.007,0.016 -0.016,0.031 -0.029,0.043c-0.012,0.012 -0.027,0.022 -0.043,0.029c-0.016,0.007 -0.034,0.01 -0.051,0.01l-2.311,-0c-0.018,-0 -0.035,-0.003 -0.051,-0.01c-0.016,-0.007 -0.031,-0.017 -0.043,-0.029c-0.013,-0.012 -0.023,-0.027 -0.029,-0.043c-0.007,-0.016 -0.01,-0.034 -0.01,-0.051l-0,-2.577c-0,-0.018 0.003,-0.035 0.01,-0.051c0.007,-0.016 0.016,-0.031 0.029,-0.043c0.012,-0.012 0.027,-0.022 0.043,-0.029c0.016,-0.006 0.033,-0.01 0.051,-0.009l2.311,-0c0.017,-0.001 0.035,0.003 0.051,0.009c0.016,0.007 0.03,0.017 0.043,0.029c0.012,0.012 0.022,0.027 0.029,0.043c0.007,0.016 0.01,0.033 0.01,0.051l0,2.577Zm0,-5.918c0,0.018 -0.003,0.035 -0.01,0.051c-0.007,0.016 -0.016,0.031 -0.029,0.043c-0.012,0.013 -0.027,0.022 -0.043,0.029c-0.016,0.007 -0.034,0.01 -0.051,0.01l-2.311,0c-0.018,0 -0.035,-0.003 -0.051,-0.01c-0.016,-0.007 -0.031,-0.016 -0.043,-0.029c-0.013,-0.012 -0.023,-0.027 -0.029,-0.043c-0.007,-0.016 -0.01,-0.033 -0.01,-0.051l-0,-2.577c0,-0.017 0.004,-0.035 0.01,-0.051c0.007,-0.015 0.017,-0.03 0.029,-0.042c0.012,-0.012 0.027,-0.022 0.043,-0.028c0.016,-0.007 0.033,-0.01 0.051,-0.01l2.311,0c0.017,-0 0.034,0.003 0.051,0.01c0.016,0.006 0.03,0.016 0.043,0.028c0.012,0.012 0.022,0.026 0.029,0.042c0.007,0.016 0.01,0.033 0.01,0.051l0,2.577Zm0,-5.916c0,0.017 -0.003,0.035 -0.01,0.051c-0.007,0.016 -0.017,0.03 -0.029,0.043c-0.013,0.012 -0.027,0.022 -0.043,0.028c-0.016,0.007 -0.034,0.01 -0.051,0.01l-2.311,0c-0.018,0 -0.035,-0.003 -0.051,-0.01c-0.016,-0.006 -0.031,-0.016 -0.043,-0.028c-0.013,-0.013 -0.022,-0.027 -0.029,-0.043c-0.007,-0.016 -0.01,-0.034 -0.01,-0.051l-0,-2.577c-0,-0.018 0.003,-0.035 0.01,-0.051c0.006,-0.017 0.016,-0.031 0.029,-0.044c0.012,-0.012 0.027,-0.022 0.043,-0.028c0.016,-0.007 0.033,-0.01 0.051,-0.01l2.311,-0c0.017,-0 0.035,0.003 0.051,0.01c0.016,0.006 0.031,0.016 0.043,0.028c0.013,0.013 0.022,0.027 0.029,0.044c0.007,0.016 0.01,0.033 0.01,0.051l0,2.577Z" style="fill:#a4b6ca;fill-rule:nonzero;"/><path d="M55.547,37.59c0,0.055 -0.022,0.108 -0.061,0.147c-0.039,0.039 -0.091,0.06 -0.146,0.06l-10.387,0c-0.055,0 -0.107,-0.021 -0.146,-0.06c-0.039,-0.039 -0.061,-0.092 -0.061,-0.147l-0,-2.075c-0,-0.055 0.022,-0.108 0.061,-0.147c0.039,-0.039 0.091,-0.061 0.146,-0.061l10.387,0c0.055,0 0.107,0.022 0.146,0.061c0.039,0.039 0.061,0.092 0.061,0.147l0,2.075Z" style="fill:#a4b6ca;fill-rule:nonzero;"/><path d="M43.517,20.97c-0.016,-0.055 -0.049,-0.104 -0.095,-0.139c-0.046,-0.035 -0.102,-0.054 -0.159,-0.054c-0.052,0.001 -0.102,0.018 -0.145,0.048l-0.018,0.012l-0.085,0.108l-9.925,12.589l-0.046,0.062c-0.053,0.052 -0.084,0.122 -0.086,0.196l-0,15.471c-0,0.032 0.006,0.064 0.019,0.094c0.012,0.03 0.03,0.057 0.053,0.08c0.023,0.023 0.051,0.041 0.081,0.053c0.03,0.013 0.062,0.019 0.094,0.019l10.088,0c0.033,0 0.065,-0.006 0.095,-0.019c0.03,-0.012 0.057,-0.03 0.08,-0.053c0.023,-0.023 0.041,-0.05 0.053,-0.08c0.013,-0.03 0.019,-0.062 0.019,-0.094l0,-28.189c-0,-0.036 -0.008,-0.072 -0.023,-0.104Zm-4.178,6.837l0.069,-0.089c0.679,-0.871 1.823,-2.282 2.381,-2.964l0.073,-0.088c0.027,-0.032 0.061,-0.059 0.099,-0.077c0.039,-0.018 0.081,-0.028 0.123,-0.028c0.066,0.001 0.13,0.024 0.18,0.066c0.051,0.042 0.085,0.101 0.097,0.165l-0,3.188c-0,0.074 -0.03,0.145 -0.081,0.198c-0.052,0.053 -0.122,0.084 -0.196,0.086l-2.527,0c-0.074,-0.002 -0.144,-0.033 -0.196,-0.086c-0.051,-0.053 -0.081,-0.124 -0.081,-0.198c0,-0.062 0.021,-0.123 0.059,-0.173Zm-1.571,17.632c0.001,0.032 -0.006,0.064 -0.018,0.095c-0.013,0.03 -0.031,0.057 -0.054,0.08c-0.023,0.023 -0.05,0.041 -0.08,0.053c-0.03,0.013 -0.062,0.019 -0.094,0.019l-3.011,-0c-0.032,-0 -0.064,-0.006 -0.094,-0.019c-0.03,-0.012 -0.058,-0.03 -0.081,-0.053c-0.023,-0.023 -0.041,-0.05 -0.053,-0.08c-0.013,-0.031 -0.019,-0.063 -0.019,-0.095l0,-1.884c0,-0.032 0.007,-0.064 0.019,-0.094c0.012,-0.03 0.031,-0.057 0.054,-0.08c0.023,-0.023 0.05,-0.041 0.08,-0.053c0.03,-0.013 0.062,-0.019 0.094,-0.019l3.01,0c0.032,0 0.064,0.006 0.094,0.019c0.03,0.012 0.057,0.03 0.08,0.053c0.023,0.023 0.042,0.05 0.054,0.08c0.012,0.03 0.019,0.062 0.019,0.094l0,1.884Zm0,-3.481c0.001,0.033 -0.006,0.065 -0.018,0.095c-0.013,0.03 -0.031,0.057 -0.054,0.08c-0.023,0.023 -0.05,0.041 -0.08,0.054c-0.03,0.012 -0.062,0.018 -0.094,0.018l-3.011,0c-0.032,0 -0.064,-0.006 -0.094,-0.018c-0.03,-0.013 -0.058,-0.031 -0.081,-0.054c-0.023,-0.023 -0.041,-0.05 -0.053,-0.08c-0.013,-0.03 -0.019,-0.062 -0.019,-0.095l0,-1.883c0,-0.033 0.006,-0.065 0.019,-0.095c0.012,-0.03 0.03,-0.058 0.053,-0.08c0.023,-0.023 0.05,-0.042 0.08,-0.054c0.03,-0.012 0.063,-0.019 0.095,-0.018l3.01,-0c0.032,-0.001 0.065,0.006 0.095,0.018c0.03,0.012 0.057,0.031 0.08,0.054c0.023,0.022 0.041,0.05 0.053,0.08c0.013,0.03 0.019,0.062 0.019,0.095l0,1.883Zm0,-3.481c0,0.033 -0.006,0.065 -0.018,0.095c-0.013,0.03 -0.031,0.057 -0.054,0.08c-0.023,0.023 -0.05,0.041 -0.08,0.053c-0.03,0.012 -0.062,0.019 -0.094,0.019l-3.011,-0c-0.032,-0 -0.064,-0.007 -0.094,-0.019c-0.03,-0.012 -0.057,-0.03 -0.08,-0.053c-0.023,-0.023 -0.042,-0.05 -0.054,-0.08c-0.012,-0.03 -0.019,-0.062 -0.019,-0.095l0,-1.884c0,-0.032 0.006,-0.064 0.019,-0.095c0.012,-0.029 0.03,-0.057 0.053,-0.08c0.023,-0.023 0.051,-0.041 0.081,-0.053c0.03,-0.013 0.062,-0.019 0.094,-0.019l3.01,0c0.032,0 0.064,0.006 0.094,0.019c0.03,0.012 0.058,0.03 0.081,0.053c0.023,0.023 0.041,0.051 0.053,0.08c0.013,0.031 0.019,0.063 0.019,0.095l0,1.884Zm0.009,-7.627l-0,4.15c-0,0.065 -0.026,0.128 -0.073,0.175c-0.046,0.046 -0.109,0.072 -0.174,0.072l-3.009,0c-0.033,0 -0.065,-0.006 -0.095,-0.018c-0.03,-0.013 -0.058,-0.031 -0.081,-0.054c-0.023,-0.023 -0.041,-0.05 -0.054,-0.08c-0.012,-0.03 -0.018,-0.062 -0.018,-0.095l-0,-0.522c0.001,-0.032 0.007,-0.063 0.018,-0.092c0.004,-0.01 0.01,-0.02 0.015,-0.029c0.007,-0.012 0.014,-0.023 0.023,-0.033c0.006,-0.011 0.018,-0.027 0.027,-0.04c0.385,-0.553 2.121,-2.689 2.85,-3.583l0.073,-0.089c0.027,-0.032 0.061,-0.059 0.1,-0.077c0.038,-0.018 0.08,-0.027 0.123,-0.027c0.065,0 0.129,0.024 0.179,0.066c0.051,0.042 0.085,0.1 0.097,0.164l-0.001,0.112Zm4.591,14.589c0,0.032 -0.006,0.064 -0.018,0.094c-0.013,0.03 -0.031,0.058 -0.054,0.081c-0.023,0.022 -0.05,0.041 -0.08,0.053c-0.03,0.012 -0.062,0.019 -0.095,0.019l-3.009,-0c-0.032,0 -0.064,-0.006 -0.094,-0.018c-0.031,-0.013 -0.058,-0.031 -0.081,-0.054c-0.023,-0.023 -0.041,-0.05 -0.054,-0.08c-0.012,-0.03 -0.019,-0.063 -0.019,-0.095l0,-1.884c0,-0.032 0.007,-0.064 0.019,-0.094c0.013,-0.03 0.031,-0.057 0.054,-0.08c0.023,-0.023 0.051,-0.041 0.081,-0.054c0.03,-0.012 0.062,-0.018 0.094,-0.018l3.009,0c0.066,0 0.129,0.026 0.175,0.072c0.046,0.046 0.072,0.109 0.072,0.174l0,1.884Zm0,-3.481c0,0.066 -0.026,0.129 -0.072,0.175c-0.046,0.046 -0.109,0.072 -0.175,0.072l-3.009,0c-0.032,0 -0.064,-0.006 -0.094,-0.018c-0.031,-0.013 -0.058,-0.031 -0.081,-0.054c-0.023,-0.023 -0.041,-0.05 -0.054,-0.08c-0.012,-0.03 -0.019,-0.062 -0.019,-0.095l0,-1.883c0,-0.033 0.007,-0.065 0.019,-0.095c0.012,-0.03 0.031,-0.058 0.054,-0.081c0.023,-0.023 0.05,-0.041 0.08,-0.053c0.031,-0.012 0.063,-0.019 0.095,-0.018l3.009,-0c0.033,-0 0.065,0.006 0.095,0.018c0.03,0.013 0.057,0.031 0.08,0.054c0.023,0.023 0.041,0.05 0.054,0.08c0.012,0.03 0.018,0.062 0.018,0.095l0,1.883Zm0,-3.481c0,0.066 -0.026,0.128 -0.072,0.174c-0.047,0.046 -0.109,0.073 -0.175,0.073l-3.009,-0c-0.032,-0 -0.064,-0.006 -0.094,-0.019c-0.03,-0.012 -0.058,-0.03 -0.081,-0.053c-0.023,-0.023 -0.041,-0.05 -0.054,-0.08c-0.012,-0.03 -0.019,-0.062 -0.019,-0.095l0,-1.884c0,-0.032 0.007,-0.065 0.019,-0.095c0.013,-0.03 0.031,-0.057 0.054,-0.08c0.023,-0.023 0.05,-0.041 0.081,-0.053c0.03,-0.013 0.062,-0.019 0.094,-0.019l3.009,0c0.066,0 0.129,0.026 0.175,0.072c0.046,0.047 0.072,0.11 0.072,0.175l0,1.884Zm0,-3.481c0,0.065 -0.026,0.128 -0.072,0.174c-0.046,0.046 -0.109,0.072 -0.175,0.072l-3.009,0c-0.032,0 -0.064,-0.006 -0.094,-0.018c-0.03,-0.012 -0.058,-0.031 -0.081,-0.053c-0.023,-0.023 -0.041,-0.05 -0.054,-0.08c-0.012,-0.03 -0.019,-0.063 -0.019,-0.095l0,-1.884c0,-0.032 0.007,-0.064 0.019,-0.094c0.013,-0.031 0.031,-0.058 0.054,-0.081c0.023,-0.023 0.05,-0.041 0.081,-0.053c0.03,-0.012 0.062,-0.019 0.094,-0.019l3.009,0c0.066,0 0.129,0.026 0.175,0.073c0.046,0.046 0.072,0.109 0.072,0.174l0,1.884Zm0,-3.481c0,0.032 -0.006,0.064 -0.018,0.094c-0.013,0.03 -0.031,0.057 -0.054,0.08c-0.023,0.023 -0.05,0.041 -0.08,0.054c-0.03,0.012 -0.062,0.018 -0.095,0.018l-3.009,0c-0.032,0.001 -0.064,-0.006 -0.094,-0.018c-0.031,-0.012 -0.058,-0.03 -0.081,-0.053c-0.023,-0.023 -0.041,-0.051 -0.054,-0.081c-0.012,-0.03 -0.019,-0.062 -0.019,-0.094l0,-1.884c0,-0.033 0.006,-0.065 0.019,-0.095c0.012,-0.03 0.031,-0.058 0.054,-0.081c0.023,-0.023 0.05,-0.041 0.08,-0.053c0.031,-0.013 0.063,-0.019 0.095,-0.019l3.009,0c0.033,0 0.065,0.007 0.095,0.019c0.03,0.013 0.057,0.031 0.08,0.054c0.023,0.023 0.041,0.05 0.054,0.08c0.012,0.03 0.019,0.062 0.018,0.095l0,1.884Z" style="fill:#a4b6ca;fill-rule:nonzero;"/></g><g id="sdg-icon-11.svg1" serif:id="sdg-icon-11.svg"></g></svg>