<svg
    xmlns="http://www.w3.org/2000/svg"
    xml:space="preserve"
    style="
        fill-rule: evenodd;
        clip-rule: evenodd;
        stroke-linejoin: round;
        stroke-miterlimit: 2;
    "
    viewBox="0 0 64 64"
>
    <clipPath id="a">
        <path d="M10.323 10.839h43.355v42.323H10.323z" />
    </clipPath>
    <g clip-path="url(#a)">
        <path
            d="M24.848 35.452a.193.193 0 0 1 .18.12c.01.023.014.048.014.074v6.396a.193.193 0 0 1-.194.194h-2.587a.193.193 0 0 1-.18-.12.192.192 0 0 1-.015-.074v-6.396a.198.198 0 0 1 .057-.138.204.204 0 0 1 .063-.042.212.212 0 0 1 .075-.014h2.587ZM53.271 44.981H10.62a.2.2 0 0 0-.195.201v2.607a.196.196 0 0 0 .195.192h42.651a.195.195 0 0 0 .195-.192v-2.607a.2.2 0 0 0-.195-.201ZM53.27 50.162H10.62a.195.195 0 0 0-.192.193v2.614c.001.051.022.1.058.136a.202.202 0 0 0 .137.057H53.27a.198.198 0 0 0 .196-.193v-2.614a.193.193 0 0 0-.059-.136.194.194 0 0 0-.137-.057ZM45.154 28.373c-.532-.417-1.955-1.39-3.689-1.39-1.24 0-2.393.488-3.425 1.455a.388.388 0 0 0-.084.12.39.39 0 0 0-.03.144v.24a.372.372 0 0 0 .122.292.346.346 0 0 0 .3.07.426.426 0 0 0 .08-.02.594.594 0 0 0 .214-.135c.223-.151.834-.352 1.708-.352.903 0 2.679.243 4.391 1.845l.04.035a.522.522 0 0 0 .567.115.513.513 0 0 0 .165-.112l.035-.036c1.725-1.602 3.497-1.844 4.4-1.844.878 0 1.493.205 1.713.351a.624.624 0 0 0 .236.144c.082.02.168.019.249-.001a.366.366 0 0 0 .269-.352v-.205a.375.375 0 0 0-.114-.264c-1.042-.992-2.207-1.493-3.467-1.493-1.719 0-3.134.958-3.682 1.392M42.508 11.376a.365.365 0 0 0-.186.225l-.043.143a.36.36 0 0 0 .056.32.355.355 0 0 0 .317.144.45.45 0 0 0 .206-.053c.086-.02.174-.03.263-.029.191 0 1.91.058 3.047 1.991l.015.028a.428.428 0 0 0 .272.218.46.46 0 0 0 .351-.032l.028-.014a4.26 4.26 0 0 1 1.903-.471c1.078 0 1.781.439 1.945.623a.494.494 0 0 0 .138.157c.045.026.091.048.139.067a.342.342 0 0 0 .101.009.369.369 0 0 0 .282-.133.352.352 0 0 0 .068-.128l.036-.126a.301.301 0 0 0 .015-.104.348.348 0 0 0-.05-.183c-.828-1.438-2.03-1.738-2.893-1.738a4.525 4.525 0 0 0-1.535.288c-.39-.527-1.378-1.612-2.876-1.612a3.562 3.562 0 0 0-1.599.404M33.496 17.936l.012.193a.357.357 0 0 0 .045.153.357.357 0 0 0 .413.177.471.471 0 0 0 .246-.156c.181-.13.765-.369 1.627-.369.828 0 2.088.221 3.372 1.276l.03.031a.502.502 0 0 0 .329.123h.032a.498.498 0 0 0 .334-.16l.028-.033c1.422-1.504 2.953-1.727 3.739-1.727.56 0 .957.115 1.112.202a.562.562 0 0 0 .222.115.421.421 0 0 0 .246-.011.353.353 0 0 0 .182-.143.36.36 0 0 0 .06-.223l-.01-.167a.36.36 0 0 0-.128-.254c-.849-.714-1.765-1.073-2.728-1.073-1.5 0-2.697.885-3.193 1.317-.453-.309-1.554-.945-2.845-.945-1.135 0-2.152.472-3.026 1.398a.377.377 0 0 0-.099.274M11.913 21.36a4.63 4.63 0 0 1 2.854-4.274 4.638 4.638 0 0 1 1.77-.352c.101 0 .198.009.296.015a6.266 6.266 0 0 1 2.621-4.638 6.247 6.247 0 0 1 7.66.334 6.246 6.246 0 0 1 1.576 7.504 6.991 6.991 0 0 1-1.517 13.815c-.282 0-9.33-.055-9.33-.055a4.943 4.943 0 0 1-3.601-8.339 4.616 4.616 0 0 1-2.329-4.01Z"
            style="fill-rule: nonzero"
        />
    </g>
</svg>
