<svg
    xmlns="http://www.w3.org/2000/svg"
    xml:space="preserve"
    style="
        fill-rule: evenodd;
        clip-rule: evenodd;
        stroke-linejoin: round;
        stroke-miterlimit: 2;
    "
    viewBox="0 0 64 64"
>
    <path
        d="M53.267 40.174c-.992-1.341-7.404-9.514-16.395-9.514-7.808 0-16.157 7.079-16.157 7.079s-3.137-6.42-9.555-7.037c-.037 0-.078-.009-.12-.009H11c-.134.008-.259.138-.244.254a.68.68 0 0 0 .1.237c.827 1.369 2.938 5.277 2.938 9.177 0 3.916-2.123 7.833-2.943 9.2l-.056.086a.254.254 0 0 0 .197.388l.07-.005a.254.254 0 0 0 .067-.006c6.437-.6 9.586-7.04 9.586-7.04s8.351 7.081 16.157 7.081c8.992 0 15.402-8.175 16.395-9.514.027-.036.049-.067.069-.091a.24.24 0 0 0 0-.197c-.02-.027-.042-.059-.069-.092m-11.396 1.225a2.62 2.62 0 0 1-2.569-3.137 2.617 2.617 0 0 1 2.062-2.059 2.62 2.62 0 0 1 3.134 2.572 2.627 2.627 0 0 1-2.627 2.624ZM10.958 15.292a.268.268 0 0 0-.049-.011.266.266 0 0 0-.1.02.257.257 0 0 0-.158.241v1.788a.246.246 0 0 0 .075.185c4.338 3.77 8.448.236 9.399-.697a.26.26 0 0 1 .068-.072.27.27 0 0 1 .143-.047c.065 0 .127.025.174.07l.013.011c4.902 4.677 10.042.889 11.111 0l.105-.096a.22.22 0 0 1 .098-.02.241.241 0 0 1 .102.02l.106.096c1.069.889 6.208 4.677 11.11 0l.009-.011a.253.253 0 0 1 .174-.07.26.26 0 0 1 .143.047.29.29 0 0 1 .072.072c.95.934 5.055 4.467 9.398.697a.265.265 0 0 0 .075-.185v-1.788a.26.26 0 0 0-.073-.184.259.259 0 0 0-.182-.077.357.357 0 0 0-.055.011c-.04.023-.079.045-.13.068-1.335.668-5.474 2.258-9.229-1.297-.035-.032-.072-.065-.109-.104a.298.298 0 0 0-.11-.024.539.539 0 0 0-.079.012.299.299 0 0 0-.131.102c-1.12.854-6.259 4.334-10.836.064l-.067-.066a.284.284 0 0 0-.187-.078.274.274 0 0 0-.179.078l-.071.066c-4.574 4.27-9.72.789-10.839-.064a.277.277 0 0 0-.127-.102.52.52 0 0 0-.079-.012.288.288 0 0 0-.108.024c-.034.037-.07.072-.109.104-3.757 3.555-7.896 1.965-9.229 1.297-.046-.023-.091-.045-.132-.068M20.125 23.33a.31.31 0 0 1 .069-.071.279.279 0 0 1 .142-.049.254.254 0 0 1 .187.083c4.9 4.672 10.042.885 11.111 0l.105-.099a.253.253 0 0 1 .098-.017.279.279 0 0 1 .103.017l.105.099c1.069.885 6.208 4.672 11.111 0l.008-.011a.258.258 0 0 1 .175-.072c.051.002.1.019.142.049a.303.303 0 0 1 .072.071c.947.935 5.054 4.469 9.398.694a.236.236 0 0 0 .058-.082.237.237 0 0 0 .021-.098v-1.795a.255.255 0 0 0-.256-.256.366.366 0 0 0-.056.01l-.13.066c-1.333.669-5.475 2.255-9.228-1.295l-.109-.103a.203.203 0 0 0-.11-.026.155.155 0 0 0-.079.02.216.216 0 0 0-.131.096c-1.119.852-6.26 4.333-10.838.063l-.067-.067a.264.264 0 0 0-.364 0l-.071.067c-4.575 4.27-9.721.789-10.839-.063a.215.215 0 0 0-.127-.096.172.172 0 0 0-.079-.02.212.212 0 0 0-.107.026 1.57 1.57 0 0 1-.112.103c-3.757 3.549-7.894 1.964-9.228 1.295l-.132-.066c-.016-.004-.032-.008-.049-.01a.252.252 0 0 0-.182.075.248.248 0 0 0-.056.083.239.239 0 0 0-.02.098v1.795a.237.237 0 0 0 .074.18c4.339 3.775 8.45.237 9.4-.694"
        style="fill-rule: nonzero"
    />
</svg>
