<?xml version="1.0" encoding="UTF-8" standalone="no"?><!DOCTYPE svg PUBLIC "-//W3C//DTD SVG 1.1//EN" "http://www.w3.org/Graphics/SVG/1.1/DTD/svg11.dtd"><svg width="100%" height="100%" viewBox="0 0 64 64" version="1.1" xmlns="http://www.w3.org/2000/svg" xmlns:xlink="http://www.w3.org/1999/xlink" xml:space="preserve" xmlns:serif="http://www.serif.com/" style="fill-rule:evenodd;clip-rule:evenodd;stroke-linejoin:round;stroke-miterlimit:2;"><clipPath id="_clip1"><rect id="sdg-icon-5.svg" x="16.516" y="11.355" width="30.968" height="41.29"/></clipPath><g clip-path="url(#_clip1)"><path d="M46.997,11.355l-9.642,-0c-0.032,0 -0.063,0.013 -0.086,0.036c-0.023,0.024 -0.036,0.055 -0.036,0.087l-0,3.204c-0,0.032 0.013,0.063 0.036,0.087c0.022,0.023 0.054,0.036 0.086,0.036l3.839,0l-4.263,4.267c-2.218,-1.749 -4.961,-2.699 -7.786,-2.697c-6.963,0 -12.629,5.664 -12.629,12.629c0,6.412 4.803,11.716 10.999,12.52l0,3.693l-3.801,-0c-0.017,-0.001 -0.033,0.002 -0.048,0.008c-0.015,0.006 -0.028,0.015 -0.04,0.026c-0.012,0.012 -0.021,0.025 -0.027,0.04c-0.006,0.015 -0.01,0.031 -0.01,0.047l0,3.435c0,0.016 0.004,0.032 0.01,0.047c0.006,0.015 0.015,0.029 0.027,0.04c0.011,0.012 0.025,0.021 0.04,0.027c0.015,0.006 0.031,0.009 0.048,0.008l3.801,0l0,3.628c0,0.016 0.003,0.032 0.009,0.047c0.007,0.015 0.016,0.028 0.027,0.039c0.011,0.012 0.025,0.021 0.04,0.027c0.015,0.006 0.031,0.009 0.047,0.009l3.432,0c0.016,0 0.032,-0.003 0.047,-0.009c0.015,-0.006 0.029,-0.015 0.041,-0.026c0.011,-0.012 0.02,-0.025 0.027,-0.04c0.006,-0.015 0.009,-0.031 0.009,-0.047l0,-3.631l3.802,0c0.016,0 0.032,-0.003 0.047,-0.009c0.015,-0.006 0.028,-0.015 0.039,-0.027c0.012,-0.011 0.021,-0.024 0.027,-0.039c0.006,-0.015 0.009,-0.031 0.009,-0.047l-0,-3.435c-0,-0.016 -0.003,-0.032 -0.01,-0.046c-0.006,-0.015 -0.015,-0.029 -0.026,-0.04c-0.011,-0.011 -0.025,-0.02 -0.04,-0.026c-0.014,-0.006 -0.03,-0.01 -0.046,-0.01l-3.802,0l0,-3.752c5.992,-0.983 10.578,-6.194 10.578,-12.46c0.002,-2.601 -0.804,-5.139 -2.307,-7.263l4.204,-4.206l0,3.586c0,0.033 0.014,0.064 0.037,0.087c0.024,0.023 0.055,0.036 0.088,0.036l3.203,-0c0.033,-0 0.065,-0.013 0.088,-0.036c0.024,-0.023 0.037,-0.054 0.037,-0.087l0,-9.637c0,-0.017 -0.003,-0.033 -0.009,-0.048c-0.007,-0.015 -0.016,-0.029 -0.028,-0.04c-0.011,-0.011 -0.025,-0.021 -0.04,-0.027c-0.015,-0.006 -0.031,-0.009 -0.048,-0.009m-17.852,26.94c-1.838,0 -3.636,-0.545 -5.164,-1.566c-1.529,-1.022 -2.721,-2.474 -3.424,-4.172c-0.704,-1.699 -0.888,-3.568 -0.529,-5.371c0.358,-1.804 1.244,-3.46 2.544,-4.76c1.3,-1.3 2.956,-2.185 4.76,-2.544c1.803,-0.359 3.672,-0.175 5.371,0.529c1.698,0.703 3.15,1.895 4.172,3.424c1.021,1.528 1.566,3.326 1.566,5.164c-0.002,2.465 -0.982,4.828 -2.725,6.571c-1.743,1.743 -4.106,2.723 -6.571,2.725Z" style="fill:#a4b6ca;fill-rule:nonzero;"/><path d="M34.918,25.186l-11.276,-0c-0.031,-0.001 -0.061,0.009 -0.083,0.03c-0.023,0.02 -0.037,0.049 -0.039,0.08l-0,2.729c0,0.016 0.004,0.031 0.01,0.045c0.007,0.014 0.016,0.027 0.028,0.037c0.011,0.01 0.024,0.018 0.039,0.023c0.014,0.006 0.03,0.008 0.045,0.007l11.276,0c0.015,0.001 0.031,-0.001 0.046,-0.006c0.014,-0.005 0.028,-0.013 0.04,-0.024c0.011,-0.01 0.021,-0.023 0.027,-0.037c0.007,-0.014 0.011,-0.029 0.011,-0.045l0,-2.729c-0.002,-0.031 -0.016,-0.06 -0.039,-0.081c-0.024,-0.02 -0.054,-0.031 -0.085,-0.029Z" style="fill:#a4b6ca;fill-rule:nonzero;"/><path d="M34.918,30.06l-11.276,-0c-0.031,-0.001 -0.061,0.01 -0.084,0.032c-0.023,0.021 -0.037,0.05 -0.038,0.082l-0,2.729c0,0.015 0.004,0.03 0.011,0.044c0.006,0.014 0.016,0.026 0.027,0.037c0.011,0.01 0.025,0.018 0.039,0.023c0.015,0.005 0.03,0.007 0.045,0.006l11.276,0c0.015,0.001 0.031,-0.001 0.045,-0.006c0.015,-0.005 0.028,-0.013 0.04,-0.023c0.012,-0.01 0.021,-0.023 0.028,-0.036c0.007,-0.014 0.011,-0.029 0.011,-0.045l0,-2.729c-0.001,-0.032 -0.015,-0.062 -0.039,-0.083c-0.023,-0.021 -0.054,-0.033 -0.085,-0.031Z" style="fill:#a4b6ca;fill-rule:nonzero;"/></g><g id="sdg-icon-5.svg1" serif:id="sdg-icon-5.svg"></g></svg>