<?xml version="1.0" encoding="UTF-8" standalone="no"?><!DOCTYPE svg PUBLIC "-//W3C//DTD SVG 1.1//EN" "http://www.w3.org/Graphics/SVG/1.1/DTD/svg11.dtd"><svg width="100%" height="100%" viewBox="0 0 64 64" version="1.1" xmlns="http://www.w3.org/2000/svg" xmlns:xlink="http://www.w3.org/1999/xlink" xml:space="preserve" xmlns:serif="http://www.serif.com/" style="fill-rule:evenodd;clip-rule:evenodd;stroke-linejoin:round;stroke-miterlimit:2;"><path d="M45.477,22.01l-7.257,6.902c-0.273,0.272 -0.414,0.473 -0.414,1.037l-0,19.35c0,0.109 0.044,0.214 0.122,0.292c0.077,0.077 0.182,0.12 0.292,0.12l7.497,0c0.11,0 0.215,-0.043 0.292,-0.12c0.078,-0.078 0.121,-0.183 0.122,-0.292l-0,-27.117c-0,-0.228 -0.179,-0.642 -0.653,-0.174" style="fill:#a4b6ca;fill-rule:nonzero;"/><path d="M24.57,31.006l-7.258,6.9c-0.273,0.273 -0.415,0.473 -0.415,1.036l0,10.353c0.001,0.11 0.045,0.215 0.122,0.292c0.078,0.077 0.183,0.12 0.293,0.12l7.497,0c0.109,0 0.214,-0.043 0.292,-0.12c0.077,-0.078 0.121,-0.182 0.121,-0.292l0,-18.119c0,-0.229 -0.18,-0.647 -0.652,-0.173" style="fill:#a4b6ca;fill-rule:nonzero;"/><path d="M48.776,13.636c0.002,-0.029 -0.003,-0.058 -0.013,-0.086c-0.011,-0.027 -0.027,-0.051 -0.048,-0.071c-0.037,-0.035 -0.084,-0.056 -0.134,-0.06l-0.1,0l-5.557,1.26l-0.1,0.011c-0.041,0.008 -0.079,0.028 -0.109,0.056c-0.039,0.04 -0.061,0.094 -0.061,0.15c0,0.055 0.022,0.109 0.061,0.149l1.332,1.332l-12.592,12.592l-5.816,-5.817c-0.015,-0.016 -0.034,-0.028 -0.054,-0.037c-0.02,-0.008 -0.042,-0.013 -0.064,-0.013c-0.022,0 -0.044,0.005 -0.065,0.013c-0.02,0.009 -0.038,0.021 -0.054,0.037l-1.578,1.579l-9.324,9.324c-0.031,0.031 -0.048,0.074 -0.048,0.118c-0,0.044 0.017,0.087 0.048,0.119l1.58,1.579c0.015,0.015 0.034,0.028 0.054,0.036c0.02,0.008 0.042,0.013 0.063,0.013c0.022,-0 0.044,-0.005 0.064,-0.013c0.02,-0.008 0.038,-0.021 0.054,-0.036l9.211,-9.205l4.22,4.221c0.004,0.007 0.008,0.014 0.013,0.02l1.579,1.577c0.015,0.015 0.034,0.028 0.054,0.037c0.02,0.008 0.042,0.013 0.064,0.013c0.022,-0 0.044,-0.005 0.064,-0.013c0.02,-0.009 0.039,-0.022 0.054,-0.037l14.288,-14.291l1.333,1.331c0.019,0.02 0.042,0.036 0.068,0.046c0.025,0.011 0.052,0.016 0.08,0.016c0.027,0 0.055,-0.005 0.08,-0.016c0.026,-0.01 0.049,-0.026 0.068,-0.046c0.037,-0.036 0.059,-0.085 0.061,-0.137l-0,-0.017l1.22,-5.673l0.004,-0.061Z" style="fill:#a4b6ca;fill-rule:nonzero;"/><path d="M35.065,32.215l-3.512,3.54c-0.032,0.027 -0.073,0.041 -0.114,0.039c-0.042,-0.001 -0.082,-0.019 -0.112,-0.048l-3.181,-3.24c-0.583,-0.58 -0.708,-0.109 -0.708,0.118l-0,16.673c-0,0.055 0.01,0.108 0.031,0.158c0.02,0.05 0.051,0.096 0.089,0.134c0.038,0.038 0.083,0.069 0.133,0.089c0.05,0.021 0.104,0.032 0.158,0.032l7.497,0c0.109,-0 0.214,-0.044 0.291,-0.121c0.078,-0.078 0.121,-0.182 0.121,-0.292l0,-16.952c0,-0.228 -0.179,-0.647 -0.695,-0.13" style="fill:#a4b6ca;fill-rule:nonzero;"/><g id="sdg-icon-8.svg"></g></svg>