<?xml version="1.0" encoding="UTF-8" standalone="no"?><!DOCTYPE svg PUBLIC "-//W3C//DTD SVG 1.1//EN" "http://www.w3.org/Graphics/SVG/1.1/DTD/svg11.dtd"><svg width="100%" height="100%" viewBox="0 0 64 64" version="1.1" xmlns="http://www.w3.org/2000/svg" xmlns:xlink="http://www.w3.org/1999/xlink" xml:space="preserve" xmlns:serif="http://www.serif.com/" style="fill-rule:evenodd;clip-rule:evenodd;stroke-linejoin:round;stroke-miterlimit:2;"><clipPath id="_clip1"><rect id="sdg-icon-1.svg" x="0" y="18.065" width="64" height="27.871"/></clipPath><g clip-path="url(#_clip1)"><path d="M55.821,20.377c0.001,-0.457 0.136,-0.904 0.39,-1.283c0.254,-0.38 0.615,-0.676 1.037,-0.85c0.422,-0.175 0.887,-0.221 1.334,-0.132c0.448,0.089 0.86,0.309 1.183,0.632c0.323,0.323 0.543,0.735 0.632,1.183c0.09,0.448 0.044,0.912 -0.13,1.334c-0.175,0.422 -0.471,0.783 -0.85,1.037c-0.38,0.254 -0.826,0.39 -1.283,0.391c-0.613,-0 -1.201,-0.244 -1.635,-0.678c-0.434,-0.433 -0.677,-1.021 -0.678,-1.634Z" style="fill:#a4b6ca;fill-rule:nonzero;"/><path d="M60.832,23.579c0.766,0.071 1.477,0.425 1.994,0.993c0.518,0.568 0.804,1.309 0.803,2.077l0,6.411c0,0.238 -0.094,0.466 -0.262,0.634c-0.168,0.168 -0.396,0.262 -0.633,0.262c-0.238,0 -0.466,-0.094 -0.634,-0.262c-0.168,-0.168 -0.262,-0.396 -0.262,-0.634l-0,-5.506c-0,-0.207 -0.06,-0.486 -0.437,-0.486c-0.261,-0 -0.316,0.276 -0.325,0.452l0,16.494c0,0.342 -0.136,0.669 -0.377,0.911c-0.242,0.241 -0.569,0.377 -0.911,0.377c-0.342,0 -0.67,-0.136 -0.911,-0.377c-0.242,-0.242 -0.377,-0.569 -0.377,-0.911l-0,-9.504c-0,-0.106 -0.039,-0.378 -0.366,-0.378c-0.328,0 -0.368,0.272 -0.372,0.378l0,9.504c0.005,0.172 -0.025,0.343 -0.088,0.503c-0.063,0.159 -0.157,0.305 -0.277,0.428c-0.12,0.123 -0.263,0.221 -0.422,0.288c-0.158,0.067 -0.328,0.101 -0.5,0.101c-0.172,0 -0.342,-0.034 -0.5,-0.101c-0.158,-0.067 -0.302,-0.165 -0.422,-0.288c-0.12,-0.123 -0.214,-0.269 -0.277,-0.428c-0.062,-0.16 -0.092,-0.331 -0.088,-0.503l0,-16.494c-0.008,-0.176 -0.065,-0.452 -0.324,-0.452c-0.379,-0 -0.437,0.279 -0.437,0.486l0,5.506c-0.009,0.231 -0.108,0.449 -0.275,0.609c-0.167,0.159 -0.389,0.248 -0.62,0.248c-0.231,0 -0.452,-0.089 -0.619,-0.248c-0.167,-0.16 -0.266,-0.378 -0.276,-0.609l0,-6.411c0,-0.769 0.287,-1.51 0.806,-2.078c0.518,-0.568 1.23,-0.922 1.996,-0.992c0.055,-0.008 0.111,-0.013 0.167,-0.014l5.047,0c0.059,0.001 0.118,0.006 0.176,0.014" style="fill:#a4b6ca;fill-rule:nonzero;"/><path d="M42.075,21.59c0,-0.432 -0.128,-0.855 -0.369,-1.215c-0.241,-0.36 -0.582,-0.64 -0.982,-0.806c-0.4,-0.165 -0.841,-0.208 -1.265,-0.124c-0.425,0.085 -0.814,0.294 -1.12,0.6c-0.306,0.306 -0.514,0.696 -0.599,1.121c-0.084,0.424 -0.04,0.864 0.126,1.264c0.166,0.4 0.446,0.742 0.807,0.982c0.36,0.24 0.783,0.368 1.216,0.368c0.58,-0.001 1.136,-0.232 1.546,-0.642c0.41,-0.411 0.641,-0.967 0.64,-1.548Z" style="fill:#a4b6ca;fill-rule:nonzero;"/><path d="M35.478,26.548l-1.82,5.928c0,-0 -0.324,1.085 0.597,1.357c0.921,0.271 1.195,-0.789 1.195,-0.789l1.467,-4.943c0,-0 0.084,-0.381 0.366,-0.298c0.282,0.082 0.178,0.488 0.178,0.488l-2.553,9.268l2.375,-0l-0,6.635c0.008,0.297 0.132,0.579 0.344,0.787c0.213,0.207 0.499,0.323 0.796,0.323c0.297,-0 0.583,-0.116 0.795,-0.323c0.213,-0.208 0.337,-0.49 0.345,-0.787l0,-6.643l0.648,0l-0,6.636c0.008,0.297 0.132,0.579 0.345,0.787c0.213,0.207 0.499,0.323 0.796,0.323c0.297,0 0.583,-0.116 0.796,-0.323c0.213,-0.208 0.337,-0.49 0.345,-0.787l-0,-6.636l2.374,0l-2.552,-9.267c0,-0 -0.108,-0.4 0.178,-0.484c0.285,-0.083 0.366,0.298 0.366,0.298l1.467,4.944c-0,-0 0.278,1.059 1.194,0.788c0.915,-0.271 0.597,-1.354 0.597,-1.354l-1.82,-5.928c0,-0 -0.649,-1.713 -2.087,-1.713l-4.641,0c-1.439,0 -2.087,1.713 -2.087,1.713" style="fill:#a4b6ca;fill-rule:nonzero;"/><path d="M28.966,21.59c-0,-0.432 -0.129,-0.855 -0.369,-1.215c-0.241,-0.36 -0.583,-0.64 -0.983,-0.806c-0.4,-0.165 -0.84,-0.208 -1.264,-0.124c-0.425,0.085 -0.815,0.293 -1.12,0.599c-0.306,0.307 -0.515,0.697 -0.599,1.121c-0.084,0.425 -0.041,0.865 0.125,1.265c0.166,0.399 0.446,0.741 0.807,0.981c0.359,0.241 0.783,0.369 1.215,0.369c0.581,-0.001 1.137,-0.232 1.547,-0.642c0.411,-0.411 0.641,-0.967 0.641,-1.548Z" style="fill:#a4b6ca;fill-rule:nonzero;"/><path d="M22.367,26.548l-1.818,5.928c0,-0 -0.326,1.085 0.596,1.357c0.922,0.271 1.195,-0.789 1.195,-0.789l1.467,-4.943c-0,-0 0.079,-0.381 0.366,-0.298c0.286,0.082 0.178,0.488 0.178,0.488l-2.553,9.268l2.375,-0l-0,6.635c-0,0.303 0.12,0.593 0.334,0.807c0.214,0.214 0.504,0.334 0.806,0.334c0.303,-0 0.593,-0.12 0.807,-0.334c0.214,-0.214 0.334,-0.504 0.334,-0.807l-0,-6.643l0.648,0l-0,6.636c0.008,0.297 0.131,0.579 0.344,0.786c0.213,0.207 0.499,0.323 0.796,0.323c0.297,0 0.582,-0.116 0.795,-0.323c0.213,-0.207 0.337,-0.489 0.345,-0.786l-0,-6.636l2.375,0l-2.551,-9.267c-0,-0 -0.109,-0.407 0.176,-0.489c0.285,-0.082 0.366,0.298 0.366,0.298l1.467,4.944c-0,-0 0.278,1.059 1.194,0.788c0.916,-0.271 0.597,-1.349 0.597,-1.349l-1.82,-5.928c0,-0 -0.649,-1.713 -2.087,-1.713l-4.64,0c-1.439,0 -2.092,1.713 -2.092,1.713Z" style="fill:#a4b6ca;fill-rule:nonzero;"/><path d="M49.426,33.841c0.361,-0 0.713,-0.107 1.012,-0.307c0.3,-0.2 0.534,-0.485 0.671,-0.818c0.138,-0.332 0.175,-0.699 0.104,-1.052c-0.07,-0.353 -0.243,-0.678 -0.498,-0.933c-0.254,-0.255 -0.579,-0.428 -0.932,-0.499c-0.353,-0.07 -0.72,-0.034 -1.053,0.103c-0.332,0.138 -0.617,0.371 -0.818,0.671c-0.2,0.299 -0.307,0.651 -0.307,1.011c-0.001,0.24 0.046,0.477 0.137,0.698c0.092,0.222 0.226,0.423 0.395,0.592c0.169,0.169 0.37,0.304 0.592,0.395c0.221,0.092 0.458,0.139 0.697,0.139Z" style="fill:#a4b6ca;fill-rule:nonzero;"/><path d="M45.059,39.5c-0.09,0.213 -0.162,0.668 0.265,0.862c0.501,0.23 0.781,-0.251 0.781,-0.251l0.99,-3.158c0,-0 0.172,-0.212 0.172,0.007l0,7.435l0.004,0c0.008,0.243 0.109,0.474 0.284,0.643c0.174,0.17 0.408,0.264 0.651,0.264c0.243,0 0.477,-0.094 0.651,-0.264c0.175,-0.169 0.276,-0.4 0.284,-0.643l-0,-2.938c-0,0 -0.055,-0.417 0.28,-0.417c0.335,-0 0.283,0.417 0.283,0.417l-0,2.935c-0,0.248 0.098,0.487 0.274,0.662c0.176,0.176 0.414,0.275 0.662,0.275c0.249,-0 0.487,-0.099 0.663,-0.275c0.175,-0.175 0.274,-0.414 0.274,-0.662l0,-7.435c0,-0.219 0.115,-0.063 0.115,-0.063l0.777,2.163c-0,-0 0.334,0.966 0.441,1.008c0.083,0.035 0.173,0.053 0.264,0.053c0.091,0 0.181,-0.017 0.264,-0.052c0.084,-0.035 0.16,-0.086 0.225,-0.15c0.064,-0.064 0.115,-0.14 0.149,-0.224c0.047,-0.108 0.064,-0.227 0.052,-0.344c-0.013,-0.117 -0.056,-0.229 -0.125,-0.324l0.006,-0.007c-0.022,-0.07 -1.16,-2.86 -1.294,-3.252c-0.411,-1.2 -1.159,-1.189 -1.878,-1.209c-0.72,-0.02 -1.152,0 -1.152,0c0,0 -0.46,-0.018 -1.411,0.009c-0.951,0.028 -1.252,0.517 -2.297,3.212c-0.149,0.388 -0.654,1.643 -0.661,1.718l0.007,0.005Z" style="fill:#a4b6ca;fill-rule:nonzero;"/><path d="M7.105,22.688c0.457,0.001 0.904,-0.134 1.285,-0.388c0.38,-0.254 0.677,-0.615 0.852,-1.037c0.176,-0.422 0.222,-0.887 0.133,-1.336c-0.089,-0.449 -0.309,-0.861 -0.632,-1.184c-0.323,-0.324 -0.735,-0.544 -1.184,-0.634c-0.449,-0.089 -0.913,-0.044 -1.336,0.131c-0.423,0.175 -0.784,0.472 -1.038,0.852c-0.254,0.38 -0.39,0.827 -0.39,1.284c0.001,0.613 0.244,1.2 0.677,1.634c0.433,0.433 1.02,0.677 1.633,0.678Z" style="fill:#a4b6ca;fill-rule:nonzero;"/><path d="M9.823,23.568c-0.061,-0.013 -0.123,-0.021 -0.185,-0.026l-5.052,-0c-0.056,0.004 -0.112,0.013 -0.167,0.026c-0.766,0.072 -1.478,0.429 -1.995,0.999c-0.517,0.57 -0.803,1.313 -0.802,2.082l0,6.411c-0.001,0.162 0.042,0.321 0.125,0.46c0.082,0.139 0.201,0.253 0.344,0.33c-0.013,0.025 -0.024,0.051 -0.03,0.078l-2.054,10.88c-0.009,0.044 -0.009,0.089 -0.001,0.132c0.009,0.044 0.027,0.086 0.052,0.122c0.025,0.037 0.057,0.069 0.094,0.093c0.038,0.024 0.08,0.041 0.124,0.049c0.02,0.004 0.041,0.006 0.062,0.005c0.079,0.001 0.156,-0.027 0.217,-0.077c0.061,-0.051 0.103,-0.121 0.117,-0.199l2.053,-10.879c0.003,-0.043 -0.001,-0.085 -0.013,-0.126c0.192,-0.05 0.361,-0.163 0.481,-0.32c0.121,-0.157 0.185,-0.35 0.183,-0.548l-0,-5.506c-0,-0.207 0.054,-0.486 0.431,-0.486c0.261,-0 0.32,0.276 0.32,0.452l0,16.494c0,0.343 0.137,0.672 0.379,0.915c0.243,0.243 0.572,0.379 0.915,0.379c0.344,-0 0.673,-0.136 0.916,-0.379c0.242,-0.243 0.379,-0.572 0.379,-0.915l-0,-9.504c-0.001,-0.051 0.008,-0.1 0.028,-0.147c0.02,-0.046 0.049,-0.087 0.085,-0.122c0.037,-0.034 0.08,-0.06 0.128,-0.077c0.047,-0.016 0.098,-0.023 0.148,-0.018c0.328,-0 0.361,0.258 0.361,0.364l0,9.504c0,0.343 0.137,0.672 0.379,0.915c0.243,0.243 0.572,0.379 0.915,0.379c0.344,-0 0.673,-0.136 0.915,-0.379c0.243,-0.243 0.38,-0.572 0.38,-0.915l-0,-16.494c-0,-0.176 0.061,-0.452 0.319,-0.452c0.38,-0 0.432,0.279 0.432,0.486l-0,5.506c-0,0.244 0.097,0.477 0.269,0.65c0.172,0.172 0.406,0.269 0.649,0.269c0.244,-0 0.478,-0.097 0.65,-0.269c0.172,-0.173 0.269,-0.406 0.269,-0.65l-0,-6.411c-0.004,-0.772 -0.295,-1.515 -0.816,-2.084c-0.521,-0.57 -1.235,-0.925 -2.004,-0.997Z" style="fill:#a4b6ca;fill-rule:nonzero;"/><path d="M18.752,36.852l1.691,-3.069c-0,0 0.204,-0.441 0.204,-0.546c-0.003,-0.143 -0.051,-0.282 -0.138,-0.396c-0.087,-0.113 -0.209,-0.196 -0.347,-0.235c-0.137,-0.04 -0.284,-0.034 -0.418,0.017c-0.134,0.05 -0.249,0.142 -0.326,0.263l-0.008,-0c-0.053,0.046 -0.904,1.555 -1.185,1.836c-0.296,0.3 -0.562,0.263 -0.562,0.263l-2.208,-0c-0,-0 -0.267,0.037 -0.563,-0.263c-0.284,-0.28 -1.13,-1.792 -1.185,-1.836l-0.005,0.005c-0.079,-0.119 -0.192,-0.209 -0.325,-0.258c-0.133,-0.05 -0.278,-0.056 -0.414,-0.017c-0.136,0.038 -0.257,0.119 -0.344,0.231c-0.088,0.111 -0.138,0.248 -0.142,0.389c0.009,0.1 0.031,0.198 0.065,0.292l1.833,3.324c0.062,0.138 0.099,0.286 0.107,0.438l0,0.654l-0.962,3.549l0.961,0l-0,2.922l0.012,0c0.002,0.241 0.1,0.471 0.271,0.64c0.171,0.17 0.402,0.265 0.643,0.265c0.239,0.002 0.469,-0.091 0.64,-0.258c0.17,-0.168 0.268,-0.396 0.27,-0.635l0,-2.816c-0.013,-0.017 -0.022,-0.035 -0.028,-0.056c-0.005,-0.02 -0.006,-0.041 -0.003,-0.062l0.542,0c0.005,0.039 0.002,0.08 -0.01,0.118l0,2.816c0,0.244 0.097,0.477 0.269,0.649c0.173,0.173 0.406,0.269 0.65,0.269c0.243,0 0.477,-0.096 0.649,-0.269c0.173,-0.172 0.269,-0.405 0.269,-0.649l0,-2.934l0.943,0l-0.943,-3.569l0,-0.634c0.008,-0.151 0.04,-0.299 0.097,-0.438Z" style="fill:#a4b6ca;fill-rule:nonzero;"/><path d="M16.558,33.841c0.36,-0 0.713,-0.107 1.012,-0.307c0.3,-0.2 0.533,-0.484 0.672,-0.817c0.138,-0.333 0.174,-0.699 0.104,-1.052c-0.07,-0.354 -0.243,-0.678 -0.498,-0.933c-0.255,-0.255 -0.579,-0.429 -0.932,-0.5c-0.354,-0.07 -0.72,-0.034 -1.053,0.103c-0.333,0.138 -0.618,0.371 -0.818,0.67c-0.201,0.3 -0.308,0.652 -0.308,1.012c-0.001,0.24 0.046,0.477 0.138,0.698c0.091,0.221 0.225,0.422 0.394,0.592c0.169,0.169 0.37,0.304 0.591,0.395c0.221,0.092 0.459,0.139 0.698,0.139Z" style="fill:#a4b6ca;fill-rule:nonzero;"/></g><g id="sdg-icon-1.svg1" serif:id="sdg-icon-1.svg"></g></svg>