<svg
    xmlns="http://www.w3.org/2000/svg"
    xml:space="preserve"
    style="
        fill-rule: evenodd;
        clip-rule: evenodd;
        stroke-linejoin: round;
        stroke-miterlimit: 2;
    "
    viewBox="0 0 64 64"
>
    <path
        d="M53.677 29.273c0-6.133-4.878-11.142-10.955-11.364a11.372 11.372 0 0 0-21.446 0c-6.077.222-10.953 5.232-10.953 11.364a11.346 11.346 0 0 0 4.388 8.964 11.393 11.393 0 0 0-.449 3.157c0 6.268 5.102 11.37 11.374 11.37 2.292.002 4.53-.692 6.418-1.991a11.314 11.314 0 0 0 6.31 1.916c6.271 0 11.373-5.102 11.373-11.371 0-1.046-.145-2.087-.431-3.094a11.342 11.342 0 0 0 3.219-3.97 11.342 11.342 0 0 0 1.152-4.981m-12.596-7.578c0 4.553-3.37 8.322-7.743 8.973a8.96 8.96 0 0 1-.119-1.397 9.085 9.085 0 0 1 7.743-8.973c.076.462.116.929.119 1.397Zm-9.04 26.128a9.05 9.05 0 0 1-2.762-6.45 9.06 9.06 0 0 1 2.675-6.488 9.07 9.07 0 0 1 2.762 6.451 9.044 9.044 0 0 1-2.675 6.487Zm-9.006-27.524c4.374.651 7.743 4.42 7.743 8.974a9.084 9.084 0 0 1-.12 1.397c-4.372-.653-7.739-4.422-7.739-8.975.004-.468.043-.935.119-1.397m6.769 13.037a9.05 9.05 0 0 1-5.303 4.576 9.043 9.043 0 0 1-6.98-.581 9.038 9.038 0 0 1 5.303-4.576 9.043 9.043 0 0 1 6.98.581Zm4.355-.062a9.053 9.053 0 0 1 12.344 4.043 9.037 9.037 0 0 1-7.027.589 9.043 9.043 0 0 1-5.317-4.632ZM32 12.613a9.095 9.095 0 0 1 8.326 5.461A11.417 11.417 0 0 0 32 24.465a11.407 11.407 0 0 0-8.326-6.391A9.095 9.095 0 0 1 32 12.613Zm-19.384 16.66a9.095 9.095 0 0 1 8.109-9.031 11.319 11.319 0 0 0 3.617 9.855 11.383 11.383 0 0 0-8.72 5.909 9.054 9.054 0 0 1-3.006-6.733Zm3.937 12.121c0-.633.066-1.264.198-1.883a11.36 11.36 0 0 0 5.253 1.129 11.358 11.358 0 0 0 5.183-1.414 11.311 11.311 0 0 0 3.019 10 9.066 9.066 0 0 1-13.653-7.832Zm30.894-.076a9.065 9.065 0 0 1-9.03 9.081 9.059 9.059 0 0 1-4.532-1.192 11.313 11.313 0 0 0 2.911-9.99 11.351 11.351 0 0 0 10.467.286c.123.597.184 1.205.184 1.815Zm-7.72-11.288a11.338 11.338 0 0 0 3.55-9.788 9.067 9.067 0 0 1 5.126 15.74 11.405 11.405 0 0 0-8.676-5.952Z"
        style="fill-rule: nonzero"
    />
</svg>
