<svg
    xmlns="http://www.w3.org/2000/svg"
    xml:space="preserve"
    style="
        fill-rule: evenodd;
        clip-rule: evenodd;
        stroke-linejoin: round;
        stroke-miterlimit: 2;
    "
    viewBox="0 0 64 64"
>
    <path
        d="M52.038 22.18c-2.934-2.317-6.452-2.567-7.828-2.567-.726 0-1.398.065-1.89.182l-.193.045c-1.858.438-4.968 1.173-8.59 5.667l-.106.131a.475.475 0 0 0-.091.272.493.493 0 0 0 .064.238l.082.135c.598 1 1.094 1.868 1.49 2.605a.479.479 0 0 0 .774.109c.025-.033.051-.069.072-.095 3.124-4.325 5.574-4.9 7.196-5.284l.203-.048c.327-.063.66-.091.993-.084.754 0 3.375.125 5.42 1.739 1.82 1.439 2.742 3.73 2.742 6.817 0 5.175-2.503 7.195-4.605 7.975a7.32 7.32 0 0 1-2.567.452 9.123 9.123 0 0 1-3.853-.877l-.151-.072c-1.806-.785-4.503-2.42-7.054-7.541-5.227-10.504-9.619-11.496-12.527-12.154l-.153-.034c-.223-.051-.851-.168-1.87-.168-1.684 0-4.923.331-7.698 2.547-1.896 1.511-4.156 4.448-4.156 9.857 0 3.292.678 5.467 2.417 7.755.327.446 3.357 4.358 9.173 4.358.892-.003 1.781-.09 2.657-.26 1.062-.203 2.701-.729 4.532-2.071l1.529 1.38a.46.46 0 0 0 .621-.029.403.403 0 0 0 .11-.288l1.183-7.286v-.085a.431.431 0 0 0-.144-.318.416.416 0 0 0-.307-.113l-7.098 1.954-.135.022a.415.415 0 0 0-.225.13.45.45 0 0 0-.09.148.453.453 0 0 0 .017.338.45.45 0 0 0 .103.138l1.47 1.33c-.773.474-1.545.791-2.297.935-.62.12-1.25.182-1.882.184-4.019 0-5.997-2.638-6.078-2.75l-.04-.054c-1.223-1.607-1.636-2.974-1.636-5.421 0-3.098.907-5.396 2.694-6.82 1.99-1.587 4.55-1.711 5.288-1.711.337-.006.675.022 1.007.084l.157.035c2.321.526 5.499 1.246 9.907 10.098 2.327 4.676 5.246 7.73 8.915 9.341.426.216 2.702 1.303 5.619 1.303a11.187 11.187 0 0 0 3.921-.695c2.142-.8 7.128-3.533 7.128-11.614-.002-5.402-2.296-8.346-4.22-9.865Z"
        style="fill-rule: nonzero"
    />
</svg>
