<?xml version="1.0" encoding="UTF-8" standalone="no"?><!DOCTYPE svg PUBLIC "-//W3C//DTD SVG 1.1//EN" "http://www.w3.org/Graphics/SVG/1.1/DTD/svg11.dtd"><svg width="100%" height="100%" viewBox="0 0 64 64" version="1.1" xmlns="http://www.w3.org/2000/svg" xmlns:xlink="http://www.w3.org/1999/xlink" xml:space="preserve" xmlns:serif="http://www.serif.com/" style="fill-rule:evenodd;clip-rule:evenodd;stroke-linejoin:round;stroke-miterlimit:2;"><path d="M55.56,31.358c-1.677,-2.35 -9.266,-11.745 -23.374,-11.745c-14.108,-0 -21.693,9.395 -23.373,11.745c-0.072,0.1 -0.133,0.191 -0.183,0.262c0.05,0.075 0.111,0.162 0.183,0.264c1.68,2.354 9.266,11.749 23.373,11.749c14.107,0 21.697,-9.395 23.374,-11.747c0.074,-0.102 0.134,-0.191 0.182,-0.264c-0.048,-0.074 -0.108,-0.161 -0.182,-0.262m-31.241,-5.807c0.127,-0.186 0.549,-0.719 0.6,-0.786c0.109,-0.14 0.325,-0.169 0.476,-0.196c0.151,-0.026 0.35,0.056 0.374,0.168c0.024,0.113 -0.058,0.55 -0.132,0.625c-0.207,0.215 -0.746,0.518 -1.042,0.47c-0.23,-0.035 -0.319,-0.213 -0.276,-0.281Zm-0.504,1.002c0.022,-0.026 0.042,-0.048 0.051,-0.059c0.177,-0.202 0.531,-0.246 0.775,-0.284c0.243,-0.038 0.573,0.082 0.609,0.244c0.037,0.162 -0.613,0.459 -0.732,0.573c-0.34,0.313 -0.871,0.95 -1.182,1.019c-0.085,0.022 -0.175,0.012 -0.254,-0.026c0.202,-0.508 0.447,-0.998 0.732,-1.465m5.279,10.83c-0.191,0.752 -0.414,1.022 -0.603,1.259c-0.19,0.237 -0.892,0.546 -1.337,0.513c-0.446,-0.034 -0.51,-1.226 -0.51,-1.84c0,-0.211 -0.3,0.416 -0.456,-0.86c-0.1,-0.817 -0.625,0.085 -0.662,-0.46c-0.037,-0.545 -0.299,-0.435 -0.573,-0.775c-0.274,-0.34 -0.617,0.033 -1,0.205c-0.383,0.171 -0.224,0.258 -0.764,0.087c-0.014,-0.004 -0.021,-0.008 -0.034,-0.013c-0.514,-1.21 -0.779,-2.512 -0.778,-3.827c-0,-0.332 0.017,-0.658 0.049,-0.98c0.017,-0.033 0.037,-0.064 0.06,-0.092c0.52,-0.615 0.509,-0.759 0.509,-0.759l0.574,-0.199c-0,0 0.918,0.142 1.609,0.402c0.57,0.213 1.465,0.697 1.989,0.484c0.377,-0.155 0.672,-0.362 0.637,-0.676c-0.042,-0.394 -0.353,-0.487 -0.729,-0.222c-0.138,0.098 -0.433,-0.594 -0.665,-0.558c-0.232,0.035 0.286,0.812 0.09,0.845c-0.196,0.033 -0.593,-0.811 -0.66,-0.948c-0.068,-0.137 -0.373,-0.475 -0.647,-0.216c-0.579,0.55 -1.521,0.517 -1.71,0.659c-0.573,0.43 -0.727,-0.142 -0.714,-0.491c0.023,-0.079 0.046,-0.159 0.072,-0.238c0.188,-0.207 0.862,-0.276 1.094,-0.122c0.254,0.17 0.436,-0.043 0.536,-0.146c0.099,-0.104 0.064,-0.265 -0,-0.4c-0.064,-0.135 0.127,-0.237 0.258,-0.272c0.132,-0.035 0.57,-0.342 0.745,-0.445c0.176,-0.104 1.083,-0.212 1.492,-0.009c0.162,0.086 0.347,0.112 0.526,0.076c0.179,-0.036 0.34,-0.133 0.456,-0.274c0.2,-0.238 0.441,-0.44 0.712,-0.594c0.143,-0.063 -0.351,-0.526 -0.756,-0.025c-0.405,0.502 -0.613,0.546 -0.804,0.546c-0.191,-0 -1.326,-0.283 -1.465,-0.642c-0.138,-0.358 0.356,-0.626 0.774,-0.827c0.418,-0.202 1.565,-0.197 1.857,-0.263c0.596,-0.131 1.357,-0.43 1.741,-0.169c0.383,0.261 -1.602,0.708 -0.95,1.06c0.232,0.127 1.28,-0.603 1.64,-0.79c0.845,-0.436 -0.819,-0.58 -0.604,-1.465c0.244,-1.001 -2.042,-0.614 -3.183,-0.528c1.319,-0.844 2.821,-1.361 4.381,-1.506c1.56,-0.146 3.131,0.083 4.584,0.669c1.453,0.585 2.745,1.509 3.768,2.695c1.024,1.186 1.748,2.6 2.114,4.123c0.006,0.153 -0.01,0.306 -0.047,0.455c-0.089,0.354 -0.764,0.658 -1.151,0.089c-0.099,-0.144 -0.521,-0.542 -0.509,0.138c0.011,0.681 0.662,0.751 0.033,1.16c-0.628,0.409 -0.742,0.31 -1.032,0.413c-0.291,0.103 -0.574,0.804 -0.502,1.179c0.072,0.375 0.966,1.401 0.302,1.358c-0.156,-0.012 -1.331,-0.814 -1.524,-1.33c-0.205,-0.543 -0.428,-1.074 -0.587,-1.483c-0.158,-0.41 -0.573,-0.51 -0.925,-0.272c-0.353,0.237 0.097,0.478 -0.155,0.99c-0.251,0.512 -0.43,0.967 -0.799,0.545c-0.959,-1.099 -2.356,-0.557 -2.571,-1.783c-0.118,-0.663 -0.689,-0.599 -1.167,-0.975c-0.478,-0.375 -0.747,-0.573 -0.828,-0.306c-0.07,0.238 1.502,1.485 1.614,1.804c0.168,0.475 -0.47,0.891 -0.938,1.006c-0.467,0.115 -0.669,-0.262 -1.128,-0.739c-0.458,-0.478 -0.658,-0.817 -0.689,-0.442c-0.046,0.54 0.434,1.337 0.901,1.631c0.398,0.252 0.843,0.366 0.714,0.775c-0.129,0.408 0,0.178 -0.446,0.618c-0.445,0.441 -0.531,0.586 -0.498,1.197c0.032,0.612 -0.128,0.649 -0.224,1.159c-0.096,0.51 -0.318,0.069 -0.509,0.817m10.545,-3.916c0.33,-0.027 0.828,0.431 0.632,0.606c-0.195,0.176 -0.688,0.111 -0.937,-0.084c-0.249,-0.194 0.156,-0.509 0.305,-0.522Zm-0.418,-0.302c-0.106,-0.04 -0.2,-0.14 -0.28,-0.382c-0.08,-0.242 0.123,-0.382 0.318,-0.282c0.196,0.1 0.464,0.403 0.464,0.563c0,0.161 -0.397,0.142 -0.505,0.1m-4.337,-0.018c-0.194,0.174 -0.691,0.11 -0.939,-0.084c-0.248,-0.193 0.157,-0.509 0.304,-0.522c0.331,-0.03 0.828,0.432 0.637,0.606m-4.011,1.952c-0.135,0.221 -0.505,1.873 -0.753,1.681c-0.248,-0.192 0.101,-1.917 0.172,-2.048c0.388,-0.712 1.228,-0.677 0.581,0.367Zm1.337,6.404c-0.935,0.001 -1.865,-0.132 -2.762,-0.395c-0.07,-0.055 -0.12,-0.133 -0.141,-0.22c-0.022,-0.087 -0.014,-0.178 0.022,-0.26c0.304,-0.793 1.21,-1.103 1.924,-1.172c1.592,-0.156 3.688,1.034 4.021,0.842c0.333,-0.192 1.008,-1.068 1.997,-1.031c0.675,0.026 0.67,0.14 0.896,0.225c-1.71,1.307 -3.804,2.014 -5.957,2.011Zm6.931,-2.86c-0.106,-0.027 -0.21,-0.066 -0.308,-0.114c-0.537,-0.273 -0.473,0.163 -0.737,0.064c-0.263,-0.099 0.298,-0.71 -0.494,-0.191c-0.792,0.519 -0.576,-0.08 -0.92,-0.955c-0.344,-0.875 0.396,-1.874 1.018,-2.101c0.854,-0.309 1.384,-0.372 1.783,-0.471c1.181,-0.295 1.431,-0.995 1.644,-0.569c0.041,0.079 0.08,0.156 0.116,0.227c0.095,0.202 0.146,0.423 0.149,0.646c-0.497,1.302 -1.265,2.484 -2.253,3.467m2.692,-4.961c-0.264,-0.072 -1.367,-1.598 -0.495,-2.601c0.145,-0.165 -0.293,-0.651 -0.173,-0.661c0.478,-0.037 0.731,0.26 0.856,0.686c0.01,0.191 0.018,0.378 0.018,0.573c-0,0.674 -0.069,1.346 -0.206,2.006" style="fill:#a4b6ca;fill-rule:nonzero;"/><g id="sdg-icon-13.svg"></g></svg>