<svg xmlns="http://www.w3.org/2000/svg" viewBox="0 0 64 64">
    <clipPath id="a">
        <path d="M0 18.065h64v27.871H0z"/>
    </clipPath>
    <g clip-path="url(#a)">
        <path d="M55.821 20.377a2.314 2.314 0 0 1 2.761-2.265 2.31 2.31 0 1 1-2.761 2.265Zm5.011 3.202a3.08 3.08 0 0 1 2.797 3.07v6.411a.896.896 0 1 1-1.791 0v-5.506c0-.207-.06-.486-.437-.486-.261 0-.316.276-.325.452v16.494a1.29 1.29 0 0 1-1.288 1.288 1.289 1.289 0 0 1-1.288-1.288V34.51c0-.106-.039-.378-.366-.378-.328 0-.368.272-.372.378v9.504a1.272 1.272 0 0 1-.365.931 1.288 1.288 0 0 1-2.209-.931V27.52c-.008-.176-.065-.452-.324-.452-.379 0-.437.279-.437.486v5.506a.892.892 0 0 1-.895.857.897.897 0 0 1-.895-.857v-6.411a3.08 3.08 0 0 1 2.802-3.07c.055-.008.111-.013.167-.014h5.047c.059.001.118.006.176.014M42.075 21.59a2.184 2.184 0 0 0-1.351-2.021 2.191 2.191 0 0 0-2.858 2.861 2.182 2.182 0 0 0 2.023 1.35 2.192 2.192 0 0 0 2.186-2.19Zm-6.597 4.958-1.82 5.928s-.324 1.085.597 1.357c.921.271 1.195-.789 1.195-.789l1.467-4.943s.084-.381.366-.298c.282.082.178.488.178.488l-2.553 9.268h2.375v6.635a1.143 1.143 0 0 0 1.935.787c.213-.208.337-.49.345-.787v-6.643h.648v6.636a1.143 1.143 0 0 0 1.141 1.11 1.143 1.143 0 0 0 1.141-1.11v-6.636h2.374l-2.552-9.267s-.108-.4.178-.484c.285-.083.366.298.366.298l1.467 4.944s.278 1.059 1.194.788c.915-.271.597-1.354.597-1.354l-1.82-5.928s-.649-1.713-2.087-1.713h-4.641c-1.439 0-2.087 1.713-2.087 1.713m-6.516-4.958a2.192 2.192 0 0 0-1.352-2.021 2.185 2.185 0 0 0-2.983 1.596 2.19 2.19 0 0 0 2.147 2.615 2.193 2.193 0 0 0 2.188-2.19Zm-6.599 4.958-1.818 5.928s-.326 1.085.596 1.357c.922.271 1.195-.789 1.195-.789l1.467-4.943s.079-.381.366-.298c.286.082.178.488.178.488l-2.553 9.268h2.375v6.635a1.14 1.14 0 1 0 2.281 0v-6.643h.648v6.636a1.138 1.138 0 0 0 1.14 1.109 1.14 1.14 0 0 0 1.14-1.109v-6.636h2.375l-2.551-9.267s-.109-.407.176-.489c.285-.082.366.298.366.298l1.467 4.944s.278 1.059 1.194.788c.916-.271.597-1.349.597-1.349l-1.82-5.928s-.649-1.713-2.087-1.713h-4.64c-1.439 0-2.092 1.713-2.092 1.713Zm27.059 7.293a1.82 1.82 0 0 0 1.787-2.177 1.82 1.82 0 0 0-3.608.353 1.813 1.813 0 0 0 1.124 1.685c.221.092.458.139.697.139ZM45.059 39.5c-.09.213-.162.668.265.862.501.23.781-.251.781-.251l.99-3.158s.172-.212.172.007v7.435h.004a.936.936 0 0 0 1.87 0v-2.938s-.055-.417.28-.417.283.417.283.417v2.935a.934.934 0 0 0 .936.937.937.937 0 0 0 .937-.937v-7.435c0-.219.115-.063.115-.063l.777 2.163s.334.966.441 1.008a.68.68 0 0 0 .528.001.676.676 0 0 0 .374-.374.687.687 0 0 0-.073-.668l.006-.007c-.022-.07-1.16-2.86-1.294-3.252-.411-1.2-1.159-1.189-1.878-1.209-.72-.02-1.152 0-1.152 0s-.46-.018-1.411.009c-.951.028-1.252.517-2.297 3.212-.149.388-.654 1.643-.661 1.718l.007.005ZM7.105 22.688a2.307 2.307 0 0 0 2.137-1.425 2.306 2.306 0 0 0-.499-2.52 2.312 2.312 0 1 0-1.638 3.945Zm2.718.88a1.445 1.445 0 0 0-.185-.026H4.586a1.054 1.054 0 0 0-.167.026 3.094 3.094 0 0 0-2.797 3.081v6.411a.886.886 0 0 0 .469.79.322.322 0 0 0-.03.078L.007 44.808a.332.332 0 0 0 .051.254.333.333 0 0 0 .28.147.337.337 0 0 0 .334-.276l2.053-10.879a.356.356 0 0 0-.013-.126.887.887 0 0 0 .664-.868v-5.506c0-.207.054-.486.431-.486.261 0 .32.276.32.452v16.494a1.298 1.298 0 0 0 1.294 1.294 1.294 1.294 0 0 0 1.295-1.294V34.51a.353.353 0 0 1 .113-.269.353.353 0 0 1 .276-.095c.328 0 .361.258.361.364v9.504a1.298 1.298 0 0 0 1.294 1.294 1.294 1.294 0 0 0 1.295-1.294V27.52c0-.176.061-.452.319-.452.38 0 .432.279.432.486v5.506a.921.921 0 0 0 .918.919.92.92 0 0 0 .919-.919v-6.411a3.11 3.11 0 0 0-2.82-3.081Z"/>
        <path d="m18.752 36.852 1.691-3.069s.204-.441.204-.546a.668.668 0 0 0-1.229-.351h-.008c-.053.046-.904 1.555-1.185 1.836-.296.3-.562.263-.562.263h-2.208s-.267.037-.563-.263c-.284-.28-1.13-1.792-1.185-1.836l-.005.005a.666.666 0 0 0-1.083-.044.658.658 0 0 0-.142.389c.009.1.031.198.065.292l1.833 3.324c.062.138.099.286.107.438v.654l-.962 3.549h.961v2.922h.012a.911.911 0 0 0 .914.905.905.905 0 0 0 .91-.893v-2.816a.164.164 0 0 1-.028-.056.161.161 0 0 1-.003-.062h.542a.278.278 0 0 1-.01.118v2.816a.917.917 0 0 0 1.568.649.913.913 0 0 0 .269-.649v-2.934h.943l-.943-3.569v-.634a1.34 1.34 0 0 1 .097-.438Z"/>
        <path d="M16.558 33.841a1.822 1.822 0 1 0 0-3.644 1.822 1.822 0 0 0 0 3.644Z"/>
    </g>
</svg>
