<?xml version="1.0" encoding="UTF-8" standalone="no"?><!DOCTYPE svg PUBLIC "-//W3C//DTD SVG 1.1//EN" "http://www.w3.org/Graphics/SVG/1.1/DTD/svg11.dtd"><svg width="100%" height="100%" viewBox="0 0 64 64" version="1.1" xmlns="http://www.w3.org/2000/svg" xmlns:xlink="http://www.w3.org/1999/xlink" xml:space="preserve" xmlns:serif="http://www.serif.com/" style="fill-rule:evenodd;clip-rule:evenodd;stroke-linejoin:round;stroke-miterlimit:2;"><clipPath id="_clip1"><rect id="sdg-icon-7.svg" x="8.774" y="8.774" width="46.452" height="46.452"/></clipPath><g clip-path="url(#_clip1)"><path d="M32,18.769c-2.64,-0.001 -5.221,0.78 -7.417,2.246c-2.196,1.466 -3.907,3.551 -4.918,5.989c-1.011,2.439 -1.276,5.123 -0.762,7.713c0.514,2.589 1.785,4.968 3.652,6.835c1.866,1.867 4.245,3.139 6.834,3.654c2.589,0.515 5.273,0.251 7.712,-0.759c2.44,-1.01 4.524,-2.721 5.991,-4.916c1.467,-2.195 2.25,-4.776 2.25,-7.416c-0,-3.539 -1.406,-6.933 -3.908,-9.436c-2.502,-2.503 -5.895,-3.909 -9.434,-3.91Zm-0.988,5.272c-0,-0.444 0.445,-0.933 0.993,-0.933c0.548,-0 0.988,0.489 0.988,0.933l0,4.583c0,0.441 -0.441,0.926 -0.988,0.926c-0.546,-0 -0.993,-0.485 -0.993,-0.926l-0,-4.583Zm0.988,14.912c-1.659,-0.002 -3.261,-0.599 -4.518,-1.681c-1.257,-1.082 -2.085,-2.578 -2.335,-4.218c-0.249,-1.639 0.097,-3.314 0.976,-4.721c0.878,-1.406 2.232,-2.452 3.814,-2.947l0,2.585c-0.909,0.463 -1.636,1.22 -2.063,2.147c-0.427,0.928 -0.529,1.972 -0.29,2.965c0.239,0.992 0.806,1.875 1.608,2.506c0.803,0.631 1.795,0.973 2.816,0.972c1.021,-0.002 2.011,-0.347 2.812,-0.981c0.8,-0.633 1.364,-1.518 1.6,-2.511c0.236,-0.993 0.131,-2.037 -0.299,-2.963c-0.429,-0.926 -1.159,-1.681 -2.07,-2.142l0,-2.585c1.587,0.492 2.945,1.536 3.828,2.943c0.883,1.407 1.232,3.084 0.984,4.726c-0.249,1.643 -1.078,3.142 -2.337,4.225c-1.259,1.084 -2.865,1.68 -4.526,1.68Z" style="fill:#a4b6ca;fill-rule:nonzero;"/><path d="M16.678,31.998c-0,-0.605 -0.537,-1.092 -1.026,-1.092l-5.845,-0c-0.492,-0 -1.033,0.49 -1.033,1.092c-0,0.603 0.541,1.099 1.033,1.099l5.845,0c0.489,0 1.026,-0.492 1.026,-1.099Z" style="fill:#a4b6ca;fill-rule:nonzero;"/><path d="M55.226,31.998c-0,-0.605 -0.537,-1.092 -1.026,-1.092l-5.844,-0c-0.492,-0 -1.033,0.49 -1.033,1.092c-0,0.603 0.541,1.099 1.033,1.099l5.844,0c0.489,0 1.026,-0.492 1.026,-1.099Z" style="fill:#a4b6ca;fill-rule:nonzero;"/><path d="M32,16.678c0.604,-0 1.093,-0.536 1.093,-1.025l-0,-5.845c-0,-0.493 -0.491,-1.034 -1.093,-1.034c-0.602,0 -1.101,0.541 -1.101,1.034l0,5.845c0,0.489 0.495,1.025 1.101,1.025Z" style="fill:#a4b6ca;fill-rule:nonzero;"/><path d="M32,55.225c0.604,0 1.093,-0.536 1.093,-1.025l-0,-5.844c-0,-0.492 -0.491,-1.034 -1.093,-1.034c-0.602,0 -1.101,0.542 -1.101,1.034l0,5.844c0,0.489 0.495,1.025 1.101,1.025Z" style="fill:#a4b6ca;fill-rule:nonzero;"/><path d="M18.706,24.387c0.301,-0.525 0.08,-1.217 -0.346,-1.457l-5.072,-2.903c-0.428,-0.245 -1.14,-0.091 -1.442,0.437c-0.301,0.528 -0.075,1.223 0.352,1.468l5.073,2.903c0.424,0.243 1.134,0.082 1.435,-0.445" style="fill:#a4b6ca;fill-rule:nonzero;"/><path d="M52.159,43.534c0.3,-0.523 0.078,-1.216 -0.346,-1.456l-5.072,-2.903c-0.428,-0.244 -1.141,-0.091 -1.441,0.438c-0.301,0.529 -0.077,1.223 0.35,1.467l5.073,2.902c0.424,0.244 1.135,0.082 1.436,-0.445" style="fill:#a4b6ca;fill-rule:nonzero;"/><path d="M39.613,18.703c0.525,0.3 1.216,0.078 1.457,-0.346l2.902,-5.073c0.246,-0.428 0.091,-1.141 -0.436,-1.441c-0.527,-0.301 -1.224,-0.077 -1.468,0.351l-2.9,5.073c-0.243,0.425 -0.082,1.136 0.445,1.437" style="fill:#a4b6ca;fill-rule:nonzero;"/><path d="M20.466,52.159c0.524,0.3 1.215,0.079 1.457,-0.347l2.902,-5.071c0.245,-0.428 0.091,-1.141 -0.437,-1.442c-0.528,-0.3 -1.221,-0.077 -1.465,0.352l-2.902,5.071c-0.244,0.425 -0.082,1.136 0.445,1.437Z" style="fill:#a4b6ca;fill-rule:nonzero;"/><path d="M24.364,18.716c0.523,-0.302 0.682,-1.011 0.438,-1.435l-2.914,-5.067c-0.246,-0.427 -0.94,-0.651 -1.464,-0.349c-0.525,0.301 -0.684,1.017 -0.437,1.444l2.914,5.065c0.244,0.425 0.937,0.644 1.465,0.342" style="fill:#a4b6ca;fill-rule:nonzero;"/><path d="M43.58,52.133c0.524,-0.301 0.682,-1.011 0.438,-1.434l-2.913,-5.067c-0.246,-0.428 -0.94,-0.652 -1.465,-0.35c-0.526,0.301 -0.684,1.017 -0.437,1.445l2.914,5.065c0.244,0.425 0.938,0.643 1.464,0.341" style="fill:#a4b6ca;fill-rule:nonzero;"/><path d="M45.284,24.363c0.302,0.525 1.01,0.682 1.434,0.439l5.066,-2.914c0.428,-0.246 0.654,-0.94 0.351,-1.465c-0.302,-0.524 -1.016,-0.683 -1.444,-0.437l-5.065,2.914c-0.426,0.244 -0.644,0.939 -0.342,1.464" style="fill:#a4b6ca;fill-rule:nonzero;"/><path d="M11.867,43.583c0.302,0.524 1.01,0.682 1.435,0.438l5.066,-2.914c0.427,-0.246 0.653,-0.941 0.349,-1.465c-0.303,-0.525 -1.016,-0.683 -1.443,-0.438l-5.065,2.913c-0.426,0.244 -0.644,0.939 -0.342,1.465" style="fill:#a4b6ca;fill-rule:nonzero;"/></g><g id="sdg-icon-7.svg1" serif:id="sdg-icon-7.svg"></g></svg>