<svg xmlns="http://www.w3.org/2000/svg" viewBox="0 0 64 64">
    <path d="M55.915 32.843c0-2.009-1.285-3.642-3.242-3.642-.976 0-2.154 1.072-2.794 1.728-.642-.659-1.739-1.729-2.713-1.729-1.952 0-3.321 1.629-3.321 3.642a3.679 3.679 0 0 0 1.036 2.57l5.005 5.015 4.999-5.009-.005-.004a3.68 3.68 0 0 0 1.035-2.571Z"/>
    <path d="M34.604 48.615h-.051a.822.822 0 0 1-.759-.681l-2.543-14.81-3.851 7.14a.82.82 0 0 1-1.537-.273l-1.635-11.429-2.991 6.72a.83.83 0 0 1-.751.489H8.859a.824.824 0 0 1 0-1.643h11.093l3.935-8.837a.82.82 0 0 1 1.564.214l1.686 11.782 3.798-7.043a.823.823 0 0 1 1.534.251l2.356 13.715 8.579-28.504a.823.823 0 0 1 1.528-.12l4.515 9.361a.809.809 0 0 1 .045.634.823.823 0 0 1-.735.557.816.816 0 0 1-.79-.478l-3.597-7.455-8.979 29.824a.825.825 0 0 1-.787.586Z"/>
</svg>
