<?xml version="1.0" encoding="UTF-8" standalone="no"?><!DOCTYPE svg PUBLIC "-//W3C//DTD SVG 1.1//EN" "http://www.w3.org/Graphics/SVG/1.1/DTD/svg11.dtd"><svg width="100%" height="100%" viewBox="0 0 64 64" version="1.1" xmlns="http://www.w3.org/2000/svg" xmlns:xlink="http://www.w3.org/1999/xlink" xml:space="preserve" xmlns:serif="http://www.serif.com/" style="fill-rule:evenodd;clip-rule:evenodd;stroke-linejoin:round;stroke-miterlimit:2;"><path d="M55.915,32.843c0,-2.009 -1.285,-3.642 -3.242,-3.642c-0.976,0 -2.154,1.072 -2.794,1.728c-0.642,-0.659 -1.739,-1.729 -2.713,-1.729c-1.952,0 -3.321,1.629 -3.321,3.642c-0.003,0.959 0.369,1.881 1.036,2.57l5.005,5.015l4.999,-5.009l-0.005,-0.004c0.667,-0.689 1.038,-1.612 1.035,-2.571Z" style="fill:#a4b6ca;fill-rule:nonzero;"/><path d="M34.604,48.615l-0.051,-0c-0.185,-0.011 -0.36,-0.085 -0.498,-0.208c-0.138,-0.124 -0.23,-0.291 -0.261,-0.473l-2.543,-14.81l-3.851,7.14c-0.082,0.152 -0.21,0.275 -0.366,0.35c-0.156,0.075 -0.331,0.099 -0.501,0.069c-0.171,-0.031 -0.327,-0.114 -0.447,-0.238c-0.12,-0.124 -0.198,-0.283 -0.223,-0.454l-1.635,-11.429l-2.991,6.72c-0.065,0.145 -0.17,0.268 -0.303,0.355c-0.134,0.087 -0.289,0.133 -0.448,0.134l-11.627,-0c-0.209,-0.013 -0.406,-0.105 -0.55,-0.257c-0.144,-0.153 -0.224,-0.355 -0.224,-0.564c-0,-0.21 0.08,-0.412 0.224,-0.565c0.144,-0.152 0.341,-0.244 0.55,-0.257l11.093,0l3.935,-8.837c0.072,-0.163 0.195,-0.298 0.351,-0.385c0.155,-0.087 0.335,-0.121 0.511,-0.096c0.177,0.024 0.341,0.105 0.467,0.23c0.127,0.125 0.209,0.289 0.235,0.465l1.686,11.782l3.798,-7.043c0.081,-0.15 0.208,-0.272 0.361,-0.347c0.154,-0.075 0.327,-0.101 0.495,-0.073c0.169,0.028 0.325,0.107 0.446,0.227c0.122,0.121 0.203,0.276 0.232,0.444l2.356,13.715l8.579,-28.504c0.048,-0.159 0.143,-0.299 0.272,-0.403c0.129,-0.104 0.286,-0.166 0.451,-0.179c0.166,-0.013 0.331,0.024 0.474,0.107c0.144,0.082 0.259,0.206 0.331,0.355l4.515,9.361c0.05,0.097 0.079,0.203 0.087,0.312c0.007,0.109 -0.007,0.219 -0.042,0.322c-0.035,0.104 -0.09,0.199 -0.162,0.281c-0.073,0.082 -0.161,0.148 -0.259,0.196c-0.098,0.047 -0.205,0.074 -0.314,0.08c-0.109,0.006 -0.218,-0.01 -0.321,-0.047c-0.103,-0.037 -0.197,-0.094 -0.278,-0.168c-0.08,-0.074 -0.145,-0.163 -0.191,-0.263l-3.597,-7.455l-8.979,29.824c-0.051,0.169 -0.155,0.318 -0.296,0.423c-0.142,0.106 -0.314,0.163 -0.491,0.163Z" style="fill:#a4b6ca;fill-rule:nonzero;"/><g id="sdg-icon-3.svg"></g></svg>