<svg xmlns="http://www.w3.org/2000/svg" xml:space="preserve" style="fill-rule:evenodd;clip-rule:evenodd;stroke-linejoin:round;stroke-miterlimit:2" viewBox="0 0 64 64"><clipPath id="a"><path d="M16.516 11.355h30.968v41.29H16.516z"/></clipPath><g clip-path="url(#a)"><path d="M46.997 11.355h-9.642a.122.122 0 0 0-.122.123v3.204c0 .032.013.063.036.087a.12.12 0 0 0 .086.036h3.839l-4.263 4.267a12.56 12.56 0 0 0-7.786-2.697c-6.963 0-12.629 5.664-12.629 12.629 0 6.412 4.803 11.716 10.999 12.52v3.693h-3.801a.11.11 0 0 0-.048.008.118.118 0 0 0-.067.066.128.128 0 0 0-.01.047v3.435a.128.128 0 0 0 .077.114.11.11 0 0 0 .048.008h3.801v3.628c0 .016.003.032.009.047a.136.136 0 0 0 .027.039.109.109 0 0 0 .04.027.127.127 0 0 0 .047.009h3.432a.127.127 0 0 0 .088-.035.156.156 0 0 0 .027-.04.127.127 0 0 0 .009-.047v-3.631h3.802a.127.127 0 0 0 .047-.009.105.105 0 0 0 .039-.027.105.105 0 0 0 .027-.039.127.127 0 0 0 .009-.047v-3.435a.103.103 0 0 0-.01-.046.12.12 0 0 0-.026-.04.12.12 0 0 0-.04-.026.119.119 0 0 0-.046-.01h-3.802v-3.752c5.992-.983 10.578-6.194 10.578-12.46a12.557 12.557 0 0 0-2.307-7.263l4.204-4.206v3.586c0 .033.014.064.037.087a.127.127 0 0 0 .088.036h3.203a.125.125 0 0 0 .125-.123v-9.637a.128.128 0 0 0-.009-.048.126.126 0 0 0-.028-.04.123.123 0 0 0-.088-.036m-17.852 26.94a9.297 9.297 0 1 1 9.296-9.296 9.303 9.303 0 0 1-9.296 9.296Z" style="fill:#a4b6ca;fill-rule:nonzero"/><path d="M34.918 25.186H23.642a.114.114 0 0 0-.083.03.116.116 0 0 0-.039.08v2.729c0 .016.004.031.01.045a.113.113 0 0 0 .028.037c.011.01.024.018.039.023a.1.1 0 0 0 .045.007h11.276a.122.122 0 0 0 .046-.006.119.119 0 0 0 .067-.061.1.1 0 0 0 .011-.045v-2.729a.12.12 0 0 0-.039-.081.12.12 0 0 0-.085-.029ZM34.918 30.06H23.642a.115.115 0 0 0-.084.032.115.115 0 0 0-.038.082v2.729a.122.122 0 0 0 .038.081.117.117 0 0 0 .084.029h11.276a.114.114 0 0 0 .045-.006.123.123 0 0 0 .068-.059.1.1 0 0 0 .011-.045v-2.729a.115.115 0 0 0-.039-.083.117.117 0 0 0-.085-.031Z" style="fill:#a4b6ca;fill-rule:nonzero"/></g></svg>