<svg xmlns="http://www.w3.org/2000/svg" xml:space="preserve" style="fill-rule:evenodd;clip-rule:evenodd;stroke-linejoin:round;stroke-miterlimit:2" viewBox="0 0 64 64"><clipPath id="a"><path d="M11.355 14.452h41.29v35.097h-41.29z"/></clipPath><g clip-path="url(#a)"><path d="M25.31 47.942v1.075a.085.085 0 0 0-.003.023c0 .009.001.017.003.026a.505.505 0 0 0 .495.482h12.65a.507.507 0 0 0 .497-.508v-1.219c7.094-2.325 12.409-8.075 13.578-15.082 0-.016.005-.029.007-.042a.503.503 0 0 0-.142-.431.515.515 0 0 0-.361-.149H11.866a.513.513 0 0 0-.511.509l.027.23c1.227 7.073 6.687 12.855 13.928 15.086ZM38.937 14.975c-.165.235-4.049 5.822.087 10.339 1.895 2.074 1.731 3.903 1.19 5.138h2.651c.535-1.824.315-4.112-1.834-6.463-3.045-3.33.039-7.829.086-7.898.364-.514.169-1.175-.43-1.484-.599-.308-1.381-.143-1.746.368M22.955 14.975c-.168.235-4.049 5.822.086 10.339 1.896 2.074 1.731 3.903 1.191 5.138h2.651c.535-1.823.315-4.111-1.839-6.463-3.046-3.33.038-7.829.087-7.9.36-.512.168-1.173-.433-1.482-.602-.308-1.379-.143-1.743.368ZM30.862 14.975c-.169.235-4.05 5.822.085 10.339 1.896 2.074 1.732 3.903 1.192 5.138h2.651c.535-1.823.315-4.111-1.84-6.463-3.046-3.33.038-7.829.087-7.9.36-.512.168-1.173-.433-1.482-.601-.308-1.379-.143-1.742.368Z" style="fill:#a4b6ca;fill-rule:nonzero"/></g></svg>