<?xml version="1.0" encoding="UTF-8" standalone="no"?><!DOCTYPE svg PUBLIC "-//W3C//DTD SVG 1.1//EN" "http://www.w3.org/Graphics/SVG/1.1/DTD/svg11.dtd"><svg width="100%" height="100%" viewBox="0 0 64 64" version="1.1" xmlns="http://www.w3.org/2000/svg" xmlns:xlink="http://www.w3.org/1999/xlink" xml:space="preserve" xmlns:serif="http://www.serif.com/" style="fill-rule:evenodd;clip-rule:evenodd;stroke-linejoin:round;stroke-miterlimit:2;"><path d="M48.559,9.338c-0,0 -0.963,1.279 -0.687,2.526c0.276,1.246 1.703,1.987 1.703,1.987c0,0 0.963,-1.279 0.687,-2.524c-0.276,-1.246 -1.703,-1.989 -1.703,-1.989Z" style="fill:#a4b6ca;fill-rule:nonzero;"/><path d="M46.989,16.647c0,-0 0.963,-1.28 0.687,-2.526c-0.276,-1.245 -1.702,-1.987 -1.702,-1.987c-0,-0 -0.964,1.279 -0.687,2.525c0.277,1.247 1.704,1.988 1.704,1.988" style="fill:#a4b6ca;fill-rule:nonzero;"/><path d="M50.947,15.277c0,0 1.017,1.031 2.175,0.923c1.159,-0.107 2.016,-1.295 2.016,-1.295c0,0 -1.015,-1.03 -2.175,-0.923c-1.16,0.106 -2.016,1.295 -2.016,1.295Z" style="fill:#a4b6ca;fill-rule:nonzero;"/><path d="M52.614,9.796c-0.942,0.956 -0.81,2.648 -0.81,2.648c0,0 1.661,0.144 2.606,-0.81c0.944,-0.955 0.809,-2.648 0.809,-2.648c0,-0 -1.662,-0.145 -2.605,0.81Z" style="fill:#a4b6ca;fill-rule:nonzero;"/><path d="M50.535,19.079c1.154,0.138 2.239,-0.854 2.239,-0.854c-0,0 -0.786,-1.217 -1.942,-1.348c-1.155,-0.132 -2.24,0.855 -2.24,0.855c0,-0 0.786,1.211 1.94,1.347" style="fill:#a4b6ca;fill-rule:nonzero;"/><path d="M51.565,39.129l-8.626,0c-0.324,0 -0.634,0.129 -0.863,0.358c-0.229,0.229 -0.357,0.539 -0.357,0.863c-0,0.323 0.128,0.634 0.357,0.863c0.229,0.228 0.539,0.357 0.863,0.357l8.626,-0c0.324,-0 0.634,-0.129 0.863,-0.357c0.229,-0.229 0.358,-0.54 0.358,-0.863c-0,-0.324 -0.129,-0.634 -0.358,-0.863c-0.229,-0.229 -0.539,-0.358 -0.863,-0.358Z" style="fill:#a4b6ca;fill-rule:nonzero;"/><path d="M51.565,52.582l-8.626,-0c-0.324,-0 -0.634,0.129 -0.863,0.357c-0.229,0.229 -0.357,0.54 -0.357,0.863c-0,0.324 0.128,0.634 0.357,0.863c0.229,0.229 0.539,0.358 0.863,0.358l8.626,-0c0.324,-0 0.634,-0.129 0.863,-0.358c0.229,-0.229 0.358,-0.539 0.358,-0.863c-0,-0.323 -0.129,-0.634 -0.358,-0.863c-0.229,-0.228 -0.539,-0.357 -0.863,-0.357Z" style="fill:#a4b6ca;fill-rule:nonzero;"/><path d="M12.769,36.167c-0.197,-0.062 -0.397,-0.114 -0.599,-0.154c0,0 0.221,0.069 0.599,0.154Z" style="fill:#a4b6ca;fill-rule:nonzero;"/><path d="M51.248,42.423l-7.994,-0c-0.184,-0 -0.361,0.073 -0.491,0.203c-0.13,0.13 -0.204,0.307 -0.204,0.491l0,2.421l-5.218,0.572l-7.623,-0.174l-0,-4.658c1.025,-0.13 2.038,-0.336 3.032,-0.616c7.34,-2.07 8.94,-8.137 8.78,-12.335c-0.159,-4.276 1.209,-5.936 3.174,-6.674c0.529,-0.195 1.074,-0.34 1.629,-0.432c0.022,1.05 0.229,2.271 0.705,3.725c0.175,-0.009 0.343,-0.024 0.52,-0.042c-0.495,-1.488 -0.707,-2.712 -0.719,-3.756c0.577,-0.073 1.16,-0.091 1.741,-0.053c-0.588,-0.341 -1.142,-0.736 -1.657,-1.179c0.33,-2.024 1.536,-3.267 2.778,-4.539c0.687,-0.7 1.389,-1.422 1.947,-2.283l-0.433,-0.279c-0.527,0.817 -1.217,1.521 -1.882,2.202c-1.211,1.24 -2.435,2.506 -2.85,4.517c-0.442,-0.399 -0.863,-0.822 -1.26,-1.266c-1.81,-2.029 -4.14,-0.54 -7.461,2.554c-3.321,3.093 -7.503,3.197 -11.585,-0.979c-5.381,-5.514 -10.083,-5.481 -13.305,-5.169c2.204,0.939 2.977,2.998 4.09,8.232c1.169,5.495 4.122,7.977 8.15,8.32c-2.242,0.793 -2.353,2.06 -5.359,4.135c-2.347,1.618 -5.649,1.107 -6.983,0.801c2.457,0.767 5.368,3.344 7.973,4.236c1.536,0.523 3.133,0.851 4.752,0.974l-0,4.458l-13.658,-0.312l0,3.11l25.505,-0.584l5.218,0.572l0,2.419c0.001,0.185 0.074,0.361 0.204,0.492c0.13,0.13 0.307,0.204 0.491,0.204l7.994,0c0.185,-0 0.361,-0.074 0.492,-0.204c0.13,-0.131 0.204,-0.307 0.204,-0.492l0,-7.918c-0,-0.185 -0.074,-0.361 -0.205,-0.491c-0.131,-0.131 -0.308,-0.203 -0.492,-0.203Zm-24.499,-0.975c0.573,0.009 1.139,-0.009 1.711,-0.047l-0,4.507l-1.711,-0.039l0,-4.421Z" style="fill:#a4b6ca;fill-rule:nonzero;"/><path d="M11.09,48.124c-0,0.656 -0.458,1.187 -1.021,1.187l-0.615,0c-0.563,0 -1.023,-0.531 -1.023,-1.187l0,-2.152c0,-0.656 0.458,-1.187 1.023,-1.187l0.615,-0c0.563,-0 1.021,0.531 1.021,1.187l-0,2.152Z" style="fill:#a4b6ca;fill-rule:nonzero;"/><g id="sdg-icon-16.svg"></g></svg>