<svg xmlns="http://www.w3.org/2000/svg" xml:space="preserve" style="fill-rule:evenodd;clip-rule:evenodd;stroke-linejoin:round;stroke-miterlimit:2" viewBox="0 0 64 64"><clipPath id="a"><path d="M8.258 14.452h47.484v35.097H8.258z"/></clipPath><g clip-path="url(#a)"><path d="M8.903 39.83h10.402a.259.259 0 0 0 .14-.04.254.254 0 0 0 .048-.386l-.014-.015-5.177-6.697-.051-.056a.259.259 0 0 0-.085-.062.257.257 0 0 0-.27.044l-.031.036-.05.055-5.049 6.627-.078.095a.258.258 0 0 0 .116.38.24.24 0 0 0 .099.019ZM19.273 40.777H8.847a.256.256 0 0 0-.255.256v8.155c0 .034.007.067.019.098a.259.259 0 0 0 .236.159h3.356v-5.134a.25.25 0 0 1 .075-.18.239.239 0 0 1 .083-.056.27.27 0 0 1 .097-.019h3.113c.034 0 .067.007.098.019a.259.259 0 0 1 .157.236v5.134h3.445a.253.253 0 0 0 .181-.076.256.256 0 0 0 .074-.181V41.03a.257.257 0 0 0-.253-.253ZM55.306 38.639H44.987a.239.239 0 0 0-.095.017.244.244 0 0 0-.157.228v10.42a.25.25 0 0 0 .252.244h10.319a.239.239 0 0 0 .095-.017.244.244 0 0 0 .158-.227v-10.42a.238.238 0 0 0-.076-.175.242.242 0 0 0-.177-.07Zm-5.646 6.802a.256.256 0 0 1-.02.095.26.26 0 0 1-.136.133.244.244 0 0 1-.096.018h-3.083a.243.243 0 0 1-.178-.07.264.264 0 0 1-.055-.081.238.238 0 0 1-.02-.095v-1.873a.246.246 0 0 1 .157-.229.264.264 0 0 1 .096-.018h3.083a.242.242 0 0 1 .232.152c.013.03.02.062.02.095v1.873Zm0-3.463a.248.248 0 0 1-.075.175.243.243 0 0 1-.177.071h-3.083a.243.243 0 0 1-.178-.07.253.253 0 0 1-.075-.176v-1.874a.248.248 0 0 1 .253-.245h3.083a.246.246 0 0 1 .252.245v1.874Zm4.712 3.463a.24.24 0 0 1-.076.176.242.242 0 0 1-.177.07h-3.082a.243.243 0 0 1-.178-.07.253.253 0 0 1-.075-.176v-1.873a.246.246 0 0 1 .157-.229.264.264 0 0 1 .096-.018h3.082a.242.242 0 0 1 .177.071.246.246 0 0 1 .076.176v1.873Zm0-3.463a.246.246 0 0 1-.253.246h-3.082a.243.243 0 0 1-.178-.07.246.246 0 0 1-.075-.176v-1.874a.238.238 0 0 1 .076-.175.242.242 0 0 1 .177-.07h3.082a.239.239 0 0 1 .095.017.248.248 0 0 1 .158.228v1.874ZM31.319 14.453H21.22a.256.256 0 0 0-.095.019.254.254 0 0 0-.133.134.236.236 0 0 0-.018.095v34.51a.247.247 0 0 0 .246.247h10.099a.248.248 0 0 0 .248-.247V14.699a.248.248 0 0 0-.248-.247m-6.007 31.074a.129.129 0 0 1-.039.094.142.142 0 0 1-.043.029.145.145 0 0 1-.051.01h-2.311a.133.133 0 0 1-.133-.133V42.95a.129.129 0 0 1 .039-.094.123.123 0 0 1 .043-.028.125.125 0 0 1 .051-.01h2.311c.018 0 .035.003.051.01a.123.123 0 0 1 .043.028.129.129 0 0 1 .039.094v2.576Zm0-5.918a.145.145 0 0 1-.01.051.137.137 0 0 1-.123.081h-2.311a.135.135 0 0 1-.092-.039.135.135 0 0 1-.039-.093v-2.575a.15.15 0 0 1 .01-.051.142.142 0 0 1 .029-.043.132.132 0 0 1 .094-.039h2.309c.018 0 .035.003.051.01a.142.142 0 0 1 .043.029.129.129 0 0 1 .039.094v2.575Zm0-5.916a.129.129 0 0 1-.039.094.142.142 0 0 1-.043.029.145.145 0 0 1-.051.01h-2.311a.133.133 0 0 1-.133-.133v-2.577a.132.132 0 0 1 .133-.132h2.311a.132.132 0 0 1 .133.132v2.577Zm0-5.918a.133.133 0 0 1-.133.133h-2.311a.134.134 0 0 1-.093-.04.137.137 0 0 1-.038-.094v-2.576a.15.15 0 0 1 .011-.051.118.118 0 0 1 .029-.042.123.123 0 0 1 .043-.028.124.124 0 0 1 .05-.01h2.309a.133.133 0 0 1 .123.08.15.15 0 0 1 .01.051v2.577Zm0-5.916a.133.133 0 0 1-.133.132h-2.311a.132.132 0 0 1-.094-.039.13.13 0 0 1-.039-.093v-2.577c0-.036.014-.069.039-.094a.13.13 0 0 1 .094-.039h2.311c.018 0 .035.003.051.01a.126.126 0 0 1 .043.029.142.142 0 0 1 .029.043c.007.016.01.033.01.051v2.577Zm4.534 23.668a.129.129 0 0 1-.039.094.129.129 0 0 1-.094.039h-2.311a.125.125 0 0 1-.051-.01.142.142 0 0 1-.043-.029.129.129 0 0 1-.039-.094V42.95a.129.129 0 0 1 .039-.094.123.123 0 0 1 .043-.028.125.125 0 0 1 .051-.01h2.311c.017 0 .035.003.051.01a.123.123 0 0 1 .043.028.129.129 0 0 1 .039.094v2.576Zm0-5.918a.125.125 0 0 1-.01.051.117.117 0 0 1-.029.044.123.123 0 0 1-.043.028.129.129 0 0 1-.051.01h-2.311a.137.137 0 0 1-.095-.038.137.137 0 0 1-.038-.095v-2.575c0-.018.003-.035.01-.051a.123.123 0 0 1 .028-.043.14.14 0 0 1 .095-.039h2.311a.129.129 0 0 1 .094.039.113.113 0 0 1 .029.043c.007.016.01.033.01.051v2.575Zm0-5.916a.129.129 0 0 1-.039.094.129.129 0 0 1-.094.039h-2.311a.125.125 0 0 1-.051-.01.142.142 0 0 1-.043-.029.129.129 0 0 1-.039-.094v-2.577c0-.018.003-.035.01-.051a.126.126 0 0 1 .029-.043.125.125 0 0 1 .094-.038h2.311a.128.128 0 0 1 .051.009c.016.007.03.017.043.029a.142.142 0 0 1 .029.043c.007.016.01.033.01.051v2.577Zm0-5.918a.125.125 0 0 1-.01.051.126.126 0 0 1-.029.043.129.129 0 0 1-.094.039h-2.311a.125.125 0 0 1-.051-.01.126.126 0 0 1-.043-.029.113.113 0 0 1-.029-.043.125.125 0 0 1-.01-.051v-2.577a.15.15 0 0 1 .01-.051.15.15 0 0 1 .029-.042.123.123 0 0 1 .043-.028.125.125 0 0 1 .051-.01h2.311a.132.132 0 0 1 .094.038.125.125 0 0 1 .039.093v2.577Zm0-5.916a.129.129 0 0 1-.039.094.133.133 0 0 1-.094.038h-2.311a.125.125 0 0 1-.051-.01.123.123 0 0 1-.043-.028.129.129 0 0 1-.039-.094v-2.577c0-.018.003-.035.01-.051a.117.117 0 0 1 .029-.044.123.123 0 0 1 .043-.028.125.125 0 0 1 .051-.01h2.311c.017 0 .035.003.051.01a.13.13 0 0 1 .072.072c.007.016.01.033.01.051v2.577ZM55.547 37.59a.208.208 0 0 1-.207.207H44.953a.205.205 0 0 1-.207-.207v-2.075a.208.208 0 0 1 .207-.208H55.34a.208.208 0 0 1 .207.208v2.075ZM43.517 20.97a.269.269 0 0 0-.254-.193.262.262 0 0 0-.145.048l-.018.012-.085.108-9.925 12.589-.046.062a.285.285 0 0 0-.086.196v15.471c0 .032.006.064.019.094a.238.238 0 0 0 .134.133c.03.013.062.019.094.019h10.088a.237.237 0 0 0 .095-.019.238.238 0 0 0 .133-.133.236.236 0 0 0 .019-.094V21.074a.247.247 0 0 0-.023-.104Zm-4.178 6.837.069-.089a200.11 200.11 0 0 1 2.381-2.964l.073-.088a.298.298 0 0 1 .222-.105.287.287 0 0 1 .277.231v3.188a.287.287 0 0 1-.277.284h-2.527a.285.285 0 0 1-.218-.457Zm-1.571 17.632a.243.243 0 0 1-.246.247h-3.011a.236.236 0 0 1-.094-.019.242.242 0 0 1-.153-.228v-1.884a.24.24 0 0 1 .153-.227.236.236 0 0 1 .094-.019h3.01c.032 0 .064.006.094.019a.24.24 0 0 1 .153.227v1.884Zm0-3.481a.236.236 0 0 1-.072.175.257.257 0 0 1-.08.054.253.253 0 0 1-.094.018h-3.011a.253.253 0 0 1-.094-.018.238.238 0 0 1-.134-.134.237.237 0 0 1-.019-.095v-1.883c0-.033.006-.065.019-.095a.24.24 0 0 1 .228-.152h3.01a.24.24 0 0 1 .228.152c.013.03.019.062.019.095v1.883Zm0-3.481a.255.255 0 0 1-.018.095.257.257 0 0 1-.054.08.254.254 0 0 1-.174.072h-3.011a.254.254 0 0 1-.174-.072.24.24 0 0 1-.073-.175v-1.884a.244.244 0 0 1 .153-.228.236.236 0 0 1 .094-.019h3.01c.032 0 .064.006.094.019a.242.242 0 0 1 .153.228v1.884Zm.009-7.627V35a.248.248 0 0 1-.247.247h-3.009a.255.255 0 0 1-.095-.018.257.257 0 0 1-.135-.134.255.255 0 0 1-.018-.095v-.522a.284.284 0 0 1 .018-.092c.004-.01.01-.02.015-.029a.194.194 0 0 1 .023-.033c.006-.011.018-.027.027-.04.385-.553 2.121-2.689 2.85-3.583l.073-.089a.292.292 0 0 1 .223-.104.28.28 0 0 1 .179.066c.051.042.085.1.097.164l-.001.112Zm4.591 14.589a.253.253 0 0 1-.018.094.261.261 0 0 1-.054.081.254.254 0 0 1-.175.072h-3.009a.25.25 0 0 1-.248-.247v-1.884c0-.032.007-.064.019-.094a.257.257 0 0 1 .135-.134.253.253 0 0 1 .094-.018h3.009a.247.247 0 0 1 .247.246v1.884Zm0-3.481a.247.247 0 0 1-.247.247h-3.009a.25.25 0 0 1-.248-.247v-1.883a.256.256 0 0 1 .073-.176.238.238 0 0 1 .175-.071h3.009c.033 0 .065.006.095.018a.257.257 0 0 1 .134.134c.012.03.018.062.018.095v1.883Zm0-3.481a.245.245 0 0 1-.072.174.25.25 0 0 1-.175.073h-3.009a.236.236 0 0 1-.094-.019.242.242 0 0 1-.135-.133.256.256 0 0 1-.019-.095v-1.884a.26.26 0 0 1 .019-.095.257.257 0 0 1 .054-.08.232.232 0 0 1 .081-.053.236.236 0 0 1 .094-.019h3.009a.247.247 0 0 1 .247.247v1.884Zm0-3.481a.247.247 0 0 1-.247.246h-3.009a.253.253 0 0 1-.175-.071.257.257 0 0 1-.054-.08.26.26 0 0 1-.019-.095v-1.884a.254.254 0 0 1 .073-.175.254.254 0 0 1 .175-.072h3.009a.247.247 0 0 1 .247.247v1.884Zm0-3.481a.253.253 0 0 1-.018.094.257.257 0 0 1-.134.134.255.255 0 0 1-.095.018h-3.009a.235.235 0 0 1-.094-.018.232.232 0 0 1-.081-.053.254.254 0 0 1-.073-.175v-1.884a.245.245 0 0 1 .248-.248h3.009c.033 0 .065.007.095.019a.257.257 0 0 1 .134.134c.012.03.019.062.018.095v1.884Z" style="fill:#a4b6ca;fill-rule:nonzero"/></g></svg>