<?xml version="1.0" encoding="UTF-8" standalone="no"?><!DOCTYPE svg PUBLIC "-//W3C//DTD SVG 1.1//EN" "http://www.w3.org/Graphics/SVG/1.1/DTD/svg11.dtd"><svg width="100%" height="100%" viewBox="0 0 64 64" version="1.1" xmlns="http://www.w3.org/2000/svg" xmlns:xlink="http://www.w3.org/1999/xlink" xml:space="preserve" xmlns:serif="http://www.serif.com/" style="fill-rule:evenodd;clip-rule:evenodd;stroke-linejoin:round;stroke-miterlimit:2;"><path d="M27.631,25.566l-12.137,-7.009l-0,22.671l12.137,3.662l-0,-19.324Z" style="fill:#a4b6ca;fill-rule:nonzero;"/><path d="M28.966,25.612l-0,19.286l12.215,-3.672l0,-22.668l-12.215,7.054Z" style="fill:#a4b6ca;fill-rule:nonzero;"/><path d="M50.709,17.983c0.005,-0.191 -0.029,-0.381 -0.1,-0.559c-0.07,-0.178 -0.175,-0.34 -0.309,-0.476c-0.133,-0.137 -0.293,-0.245 -0.469,-0.32c-0.177,-0.074 -0.366,-0.112 -0.557,-0.112c-0.191,0 -0.381,0.038 -0.557,0.112c-0.176,0.075 -0.336,0.183 -0.47,0.32c-0.133,0.136 -0.238,0.298 -0.309,0.476c-0.07,0.178 -0.104,0.368 -0.1,0.559l0,1.547l2.871,-0l0,-1.547Z" style="fill:#a4b6ca;fill-rule:nonzero;"/><path d="M48.195,40.827l-0.357,-0l1.437,5.018l1.434,-5.018l-0.357,-0l0.357,-0l-0,-20.171l-2.872,-0l0,20.171l0.358,-0Z" style="fill:#a4b6ca;fill-rule:nonzero;"/><path d="M43.789,19.531l-1.301,-1.028l-0,23.341l-13.486,4.357l-1.371,0l-13.426,-3.751l0,-23.947l-1.302,1.028l0,23.832l14.666,4.06l1.494,0l13.531,-4.296l1.195,-0.351l-0,-23.245Z" style="fill:#a4b6ca;fill-rule:nonzero;"/><g id="sdg-icon-4.svg"></g></svg>