<?xml version="1.0" encoding="UTF-8" standalone="no"?><!DOCTYPE svg PUBLIC "-//W3C//DTD SVG 1.1//EN" "http://www.w3.org/Graphics/SVG/1.1/DTD/svg11.dtd"><svg width="100%" height="100%" viewBox="0 0 64 64" version="1.1" xmlns="http://www.w3.org/2000/svg" xmlns:xlink="http://www.w3.org/1999/xlink" xml:space="preserve" xmlns:serif="http://www.serif.com/" style="fill-rule:evenodd;clip-rule:evenodd;stroke-linejoin:round;stroke-miterlimit:2;"><clipPath id="_clip1"><rect id="sdg-icon-15.svg" x="10.323" y="10.839" width="43.355" height="42.323"/></clipPath><g clip-path="url(#_clip1)"><path d="M24.848,35.452c0.026,-0 0.051,0.005 0.075,0.015c0.023,0.009 0.045,0.024 0.063,0.042c0.018,0.018 0.032,0.039 0.042,0.063c0.01,0.023 0.014,0.048 0.014,0.074l0,6.396c0.001,0.025 -0.004,0.05 -0.014,0.074c-0.01,0.024 -0.024,0.045 -0.042,0.063c-0.018,0.018 -0.04,0.032 -0.063,0.042c-0.024,0.01 -0.049,0.015 -0.075,0.015l-2.587,-0c-0.026,-0 -0.051,-0.005 -0.075,-0.015c-0.023,-0.009 -0.045,-0.024 -0.063,-0.042c-0.018,-0.018 -0.032,-0.039 -0.042,-0.063c-0.01,-0.024 -0.015,-0.049 -0.015,-0.074l0,-6.396c0,-0.026 0.005,-0.051 0.015,-0.074c0.01,-0.024 0.024,-0.046 0.042,-0.064c0.018,-0.018 0.04,-0.032 0.063,-0.042c0.024,-0.009 0.049,-0.014 0.075,-0.014l2.587,-0Z" style="fill:#a4b6ca;fill-rule:nonzero;"/><path d="M53.271,44.981l-42.651,0c-0.052,0.002 -0.102,0.024 -0.138,0.061c-0.037,0.038 -0.057,0.088 -0.057,0.14l0,2.607c0.001,0.051 0.022,0.1 0.058,0.136c0.037,0.036 0.086,0.056 0.137,0.056l42.651,-0c0.051,-0.001 0.1,-0.021 0.136,-0.056c0.037,-0.036 0.058,-0.085 0.059,-0.136l0,-2.607c0,-0.052 -0.02,-0.102 -0.057,-0.14c-0.036,-0.037 -0.086,-0.059 -0.138,-0.061Z" style="fill:#a4b6ca;fill-rule:nonzero;"/><path d="M53.27,50.162l-42.65,0c-0.051,0.001 -0.099,0.021 -0.135,0.057c-0.036,0.036 -0.056,0.085 -0.057,0.136l-0,2.614c0.001,0.051 0.022,0.1 0.058,0.136c0.037,0.036 0.086,0.056 0.137,0.057l42.647,-0c0.052,-0.001 0.101,-0.021 0.137,-0.057c0.037,-0.036 0.058,-0.085 0.059,-0.136l0,-2.614c-0.001,-0.052 -0.022,-0.1 -0.059,-0.136c-0.036,-0.036 -0.085,-0.057 -0.137,-0.057Z" style="fill:#a4b6ca;fill-rule:nonzero;"/><path d="M45.154,28.373c-0.532,-0.417 -1.955,-1.39 -3.689,-1.39c-1.24,-0 -2.393,0.488 -3.425,1.455c-0.035,0.034 -0.064,0.075 -0.084,0.12c-0.019,0.045 -0.029,0.094 -0.03,0.144l0,0.24c-0.002,0.055 0.007,0.109 0.028,0.16c0.021,0.05 0.053,0.095 0.094,0.132c0.041,0.034 0.09,0.059 0.142,0.071c0.052,0.012 0.106,0.012 0.158,-0.001c0.028,-0.004 0.054,-0.011 0.08,-0.02c0.08,-0.029 0.153,-0.075 0.214,-0.135c0.223,-0.151 0.834,-0.352 1.708,-0.352c0.903,0 2.679,0.243 4.391,1.845l0.04,0.035c0.048,0.049 0.106,0.088 0.17,0.115c0.063,0.026 0.132,0.04 0.201,0.039c0.067,0.001 0.133,-0.013 0.196,-0.039c0.061,-0.026 0.118,-0.064 0.165,-0.112l0.035,-0.036c1.725,-1.602 3.497,-1.844 4.4,-1.844c0.878,-0 1.493,0.205 1.713,0.351c0.067,0.065 0.147,0.114 0.236,0.144c0.082,0.02 0.168,0.019 0.249,-0.001c0.077,-0.022 0.145,-0.067 0.194,-0.131c0.048,-0.063 0.075,-0.141 0.075,-0.221l0,-0.205c-0,-0.05 -0.011,-0.098 -0.03,-0.144c-0.02,-0.045 -0.048,-0.086 -0.084,-0.12c-1.042,-0.992 -2.207,-1.493 -3.467,-1.493c-1.719,0 -3.134,0.958 -3.682,1.392" style="fill:#a4b6ca;fill-rule:nonzero;"/><path d="M42.508,11.376c-0.045,0.023 -0.085,0.054 -0.117,0.093c-0.032,0.039 -0.056,0.084 -0.069,0.132l-0.043,0.143c-0.016,0.054 -0.02,0.111 -0.01,0.166c0.01,0.056 0.032,0.109 0.066,0.154c0.031,0.042 0.07,0.077 0.116,0.102c0.045,0.025 0.096,0.039 0.148,0.042c0.017,0.004 0.035,0.004 0.053,0c0.072,-0.001 0.142,-0.019 0.206,-0.053c0.086,-0.02 0.174,-0.03 0.263,-0.029c0.191,0 1.91,0.058 3.047,1.991l0.015,0.028c0.028,0.053 0.066,0.1 0.113,0.137c0.047,0.038 0.101,0.065 0.159,0.081c0.044,0.013 0.09,0.02 0.136,0.021c0.075,-0 0.149,-0.018 0.215,-0.053l0.028,-0.014c0.589,-0.303 1.241,-0.464 1.903,-0.471c1.078,0 1.781,0.439 1.945,0.623c0.034,0.061 0.081,0.115 0.138,0.157c0.045,0.026 0.091,0.048 0.139,0.067c0.021,0.005 0.042,0.008 0.063,0.009c0.013,0.001 0.025,0.001 0.038,-0c0.059,-0.001 0.117,-0.015 0.169,-0.043c0.044,-0.022 0.082,-0.053 0.113,-0.09c0.031,-0.038 0.055,-0.081 0.068,-0.128l0.036,-0.126c0.011,-0.033 0.016,-0.068 0.015,-0.104c0.001,-0.064 -0.017,-0.128 -0.05,-0.183c-0.828,-1.438 -2.03,-1.738 -2.893,-1.738c-0.524,0.006 -1.044,0.104 -1.535,0.288c-0.39,-0.527 -1.378,-1.612 -2.876,-1.612c-0.558,0.008 -1.105,0.146 -1.599,0.404" style="fill:#a4b6ca;fill-rule:nonzero;"/><path d="M33.496,17.936l0.012,0.193c0.003,0.054 0.019,0.106 0.045,0.153c0.026,0.048 0.062,0.089 0.106,0.12c0.043,0.032 0.094,0.053 0.147,0.063c0.053,0.01 0.107,0.008 0.16,-0.006c0.021,-0.005 0.042,-0.012 0.062,-0.019c0.072,-0.03 0.135,-0.077 0.184,-0.137c0.181,-0.13 0.765,-0.369 1.627,-0.369c0.828,-0 2.088,0.221 3.372,1.276l0.03,0.031c0.091,0.079 0.208,0.123 0.329,0.123l0.032,0c0.128,-0.008 0.247,-0.066 0.334,-0.16l0.028,-0.033c1.422,-1.504 2.953,-1.727 3.739,-1.727c0.56,-0 0.957,0.115 1.112,0.202c0.065,0.055 0.141,0.094 0.222,0.115c0.082,0.021 0.167,0.017 0.246,-0.011c0.075,-0.026 0.139,-0.076 0.182,-0.143c0.044,-0.066 0.065,-0.144 0.06,-0.223l-0.01,-0.167c-0.003,-0.049 -0.016,-0.096 -0.038,-0.14c-0.022,-0.044 -0.053,-0.082 -0.09,-0.114c-0.849,-0.714 -1.765,-1.073 -2.728,-1.073c-1.5,-0 -2.697,0.885 -3.193,1.317c-0.453,-0.309 -1.554,-0.945 -2.845,-0.945c-1.135,0 -2.152,0.472 -3.026,1.398c-0.034,0.037 -0.06,0.08 -0.077,0.127c-0.017,0.047 -0.025,0.097 -0.022,0.147" style="fill:#a4b6ca;fill-rule:nonzero;"/><path d="M11.913,21.36c0,-0.608 0.12,-1.209 0.352,-1.77c0.232,-0.561 0.573,-1.071 1.002,-1.501c0.429,-0.43 0.939,-0.77 1.5,-1.003c0.562,-0.232 1.163,-0.352 1.77,-0.352c0.101,-0 0.198,0.009 0.296,0.015c0.069,-0.918 0.339,-1.81 0.792,-2.612c0.453,-0.802 1.077,-1.494 1.829,-2.026c0.751,-0.533 1.611,-0.893 2.517,-1.054c0.907,-0.162 1.838,-0.121 2.727,0.119c0.889,0.24 1.714,0.673 2.416,1.269c0.703,0.596 1.264,1.339 1.646,2.178c0.381,0.838 0.573,1.75 0.561,2.671c-0.012,0.921 -0.228,1.827 -0.631,2.655c1.683,0.372 3.17,1.352 4.174,2.753c1.004,1.4 1.456,3.123 1.268,4.836c-0.189,1.713 -1.003,3.296 -2.288,4.445c-1.284,1.15 -2.948,1.784 -4.671,1.781c-0.282,-0 -9.33,-0.055 -9.33,-0.055c-0.967,0.002 -1.913,-0.28 -2.721,-0.81c-0.808,-0.531 -1.443,-1.286 -1.826,-2.174c-0.383,-0.887 -0.498,-1.867 -0.33,-2.819c0.168,-0.952 0.612,-1.833 1.276,-2.536c-0.708,-0.404 -1.295,-0.987 -1.704,-1.692c-0.409,-0.704 -0.625,-1.504 -0.625,-2.318Z" style="fill:#a4b6ca;fill-rule:nonzero;"/></g><g id="sdg-icon-15.svg1" serif:id="sdg-icon-15.svg"></g></svg>