<svg enable-background="new 0 0 184 212.15" viewBox="0 0 184 212.15" xmlns="http://www.w3.org/2000/svg"><ellipse cx="37.42" cy="27.35" rx="17.89" ry="11.62" transform="matrix(.5358 -.8444 .8444 .5358 -5.7245 44.2962)"/><ellipse cx="36.32" cy="133.38" rx="22.4" ry="44.53" stroke="#fff" stroke-miterlimit="10"/><path d="m48.49 47.83v-2c27.3 0 48.23-4.98 56.42-10.71-5.79-13.64-16.94-23.5-30.77-25.3-22.69-2.95-43.97 16.89-47.54 44.31-1.72 13.23 1 25.8 6.82 35.61 8.87-7.15 15.07-23.24 15.07-41.91z"/><path d="m52.46 49.79c-.42 19.47-7.12 35.75-16.84 43.33 6.24 8.7 15.15 14.66 25.59 16.02 22.68 2.95 43.97-16.89 47.54-44.31 1.2-9.19.24-18.06-2.39-25.91-10.45 6.72-32.29 10.46-53.9 10.87z"/><path d="m113.47 93.36-2.04 121.11c.68-17.62 19.99-31.71 43.76-31.71l18.55-118.04c-33.31-.01-60.27 12.8-60.27 28.64z"/><g stroke="#fff" stroke-miterlimit="10"><path d="m113.47 93.36c0-15.84 26.96-28.64 60.27-28.64" fill="none" stroke-width="2"/><path d="m113.47 93.36-2.04 121.1" fill="none" stroke-width="2"/><path d="m111.43 214.46c.68-17.62 19.99-31.71 43.76-31.71" fill="none" stroke-width="2"/><path d="m111.43 214.46c-.01.32-.02.63-.02.95" fill="none" stroke-width="2"/><path d="m155.2 182.76 18.54-118.05" fill="none" stroke-width="2"/></g><path d="m11.53 83.71 30.2 116.34c37.58 0 68 2.87 68 6.41l2.72-116.85c-.01-3.27-45.14-5.9-100.92-5.9z"/><path d="m112.44 89.6-2.71 116.85" fill="none" stroke="#fff" stroke-miterlimit="10" stroke-width="2"/><path d="m112.44 89.6c0-3.26-45.14-5.9-100.91-5.9" fill="none" stroke="#fff" stroke-miterlimit="10" stroke-width="2"/><path d="m109.73 206.45c0-3.54-30.42-6.41-68-6.41" fill="none" stroke="#fff" stroke-miterlimit="10" stroke-width="2"/><path d="m41.73 200.05-30.2-116.34" fill="none" stroke="#fff" stroke-miterlimit="10" stroke-width="2"/><ellipse cx="160.37" cy="140.84" rx="17.33" ry="9.75" transform="matrix(.1656 -.9862 .9862 .1656 -5.0866 275.6764)"/><path d="m170.61 129.39c-1.47-4.06-3.99-6.59-7.12-7.12-3.12-.52-6.34 1.04-9.05 4.4-2.52 3.12-4.35 7.49-5.16 12.3-1.75 10.41 1.75 19.39 7.97 20.43.4.07.79.1 1.19.1 2.74 0 5.49-1.56 7.86-4.5 2.52-3.12 4.35-7.49 5.16-12.3s.51-9.54-.85-13.31zm-2.1 12.82c-.72 4.31-2.33 8.19-4.53 10.92-2 2.48-4.21 3.67-6.22 3.33-4.41-.74-6.93-8.51-5.51-16.98.72-4.31 2.33-8.19 4.53-10.92 1.78-2.2 3.72-3.38 5.54-3.38.23 0 .46.02.68.06 2.01.34 3.71 2.18 4.79 5.18 1.19 3.28 1.44 7.48.72 11.79z" fill="#fff"/><ellipse cx="33.04" cy="164.72" rx="9.75" ry="17.33" stroke="#fff" stroke-miterlimit="10" stroke-width="3" transform="matrix(.9795 -.2015 .2015 .9795 -32.5175 10.0378)"/><path d="m113.53 90.04-2.12 125.37" fill="none" stroke="#fff" stroke-miterlimit="10" stroke-width="2"/></svg>