<svg xmlns="http://www.w3.org/2000/svg" viewBox="0 0 2233 448"><g fill="none"><path fill="#FC6723" d="M0 0h447.78v448H0V0z"/><path fill="#FFFEFE" d="M447.78 0H2233v163.36c-16.52-2.96-33.38 4.03-45.05 15.59-3.66 3.62-7.11 7.48-11.25 10.57-.45-9.1-1.3-18.46-5.59-26.68-8.14 1.84-16.12 4.3-24.14 6.56.58 6.91 2.81 13.58 3.01 20.55 1.02 19.66.72 39.37.87 59.05.05 28.97-.08 57.95.06 86.92 8.94.2 17.89.2 26.83 0 .04-25.97-.01-51.94.03-77.92-.11-9.67.11-19.34.53-29.01.32-6.66-.54-14.2 3.89-19.79a58.84 58.84 0 0 1 16.55-14.44c6.48-3.63 14.12-3.45 21.33-3.62 1.14-.28 3.17.2 3.65-1.28 3.4-8.02 5.66-16.49 9.28-24.43V448H447.78V0z"/><path fill="#FC6723" d="M1232.13 92.63c7.19-1.72 14.44-4 21.9-3.91 4.13.19 4.75 5.05 5.12 8.24a705.06 705.06 0 0 1 1.56 45.04c.66 14.3.57 28.62.85 42.94 8.08-6.21 16-12.92 25.57-16.73 15.31-6.73 33.68-6.81 48.61 1 16.05 8.03 27.26 23.53 32.9 40.27 5.28 15.88 6.55 32.89 5.66 49.52-1.43 19.43-6.71 39.09-18.23 55.05-6.82 9.25-15.78 17.36-26.73 21.29-17.54 6.42-38.02 4.12-53.76-5.91-4.99-3.12-9.19-7.29-13.76-10.95-1.84 5.75-3.23 11.64-5.02 17.42-8.41.09-16.9.68-25.23-.69 3.36-13.45 3.44-27.38 3.81-41.16.62-48.35-.05-96.71-.25-145.06-1.07-18.78.5-37.77-3-56.36zm195.28 2.82a23.61 23.61 0 0 1 16.35.83 26.03 26.03 0 0 1 10.27 12.66c3.46 11.19-5.63 23.75-17.02 25.03-8.8.98-18.47-4.17-21.2-12.89-3.62-9.86 1.95-21.73 11.6-25.63zM633.73 115.7c12.79-8.56 27.7-15 43.29-15.2 15.87-.29 32.32.84 46.92 7.6 5.98 2.74 12.01 5.62 16.98 10.02-3.63 6.27-8.42 11.74-12.95 17.35-5.81-3.45-11.55-7.16-18-9.35-15.72-5.55-33.59-6.74-49.27-.42-13.12 4.99-23.84 15.18-30.57 27.39-4.65 8.6-8.54 17.73-10.48 27.36-1.73 9.4-2.28 18.97-2.43 28.51-.51 12.68-1.1 25.4-.33 38.07 2.23 17.61 8.34 35.34 20.35 48.73 10.52 12.1 26.06 19.2 41.88 20.79 8.33.46 16.84.57 24.98-1.54 9.9-2.17 18.67-7.37 27.82-11.47 5.34 5.3 9.98 11.26 14.34 17.38a193 193 0 0 1-21.12 10.25c-19.52 7.91-41.17 8.08-61.83 6.09-14.86-3.09-28.65-10.6-40.11-20.46-13.22-11.5-22.9-26.76-28.73-43.22-3.93-11.09-5.85-22.79-6.89-34.48-.41-8.69-1.38-17.41-.4-26.11.3-16.47 2.97-33.08 9.54-48.28 7.91-19.07 19.78-37.16 37.01-49.01z"/><path fill="#FFFEFE" d="M133.02 111.64c1.97-.44 3.93-.94 5.96-1 9.62-.2 19.23.4 28.84.7 1.52-.24 2.05 1.17 2.61 2.27 14.65 30.02 29.09 60.16 43.88 90.12 3.18 6.22 6.03 12.62 9.63 18.62 3.03-4.92 5.49-10.17 8.16-15.29 16.61-31.99 32.32-64.45 48.67-96.57 10.82.33 21.75-.74 32.48 1.03-1.95 6.13-5.46 11.58-8.24 17.35-21.46 41.12-43.5 81.93-65.16 122.94a10.5 10.5 0 0 0-1.07 5.12c.04 29.31 0 58.63.02 87.94-10.45.01-20.9.07-31.35-.04.11-28.61-.03-57.22.07-85.83-.04-3.07.35-6.36-1.35-9.09-19.96-37.44-39.99-74.84-59.84-112.33-4.39-8.67-9.35-17.06-13.31-25.94z"/><path fill="#FC6723" d="M1864.53 124.49c8.58-2.76 17.39-4.8 26.26-6.39-1.3 16.33-2.5 32.67-3.07 49.05 13.93.33 27.87.33 41.8.9a422.83 422.83 0 0 1-7.68 18.6c-11.73.04-23.47-.05-35.2.04-.04 15.11.13 30.21.13 45.32-.14 12 .71 23.98.52 35.99.32 13.6-.39 27.27 1.15 40.82.39 5.64 5.46 9.61 10.56 11.05 8.5 1.95 17.38 1.26 25.8-.8a33.24 33.24 0 0 1 3.02 15.69c-7.64 3.98-16.4 4.75-24.83 5.5-11.9.48-25.17-1.41-33.72-10.54-7.04-6.54-6.49-16.94-7.3-25.73-.86-19.31-.52-38.66-.62-57.99-.04-19.77.06-39.53-.05-59.3-7.43-.1-14.85-.03-22.26-.04-.28-6.46-.24-12.93-.04-19.39 7.29-.06 14.58.1 21.87-.11 1.11-14.23 1.36-28.56 3.66-42.67zm-1035.08 39.2c5.82-.74 11.7-.46 17.55-.41 6.93.23 14.04-.15 20.72 2.05 15.33 5.27 28.82 15.91 37.02 29.95 6.98 12.11 11.89 25.7 12.45 39.77.87 18.9 1.5 38.35-4.42 56.58-5.51 17.1-17.57 32.34-33.7 40.51-16.04 8.29-35.24 9.84-52.59 5.17-15.6-4.1-29.14-14.38-38.09-27.69-9.95-14.27-13.31-31.94-13.92-49.03-.4-16.53-.72-33.54 4.78-49.38 5.19-15.62 15.22-29.9 29.28-38.71 6.46-3.96 13.44-7.36 20.92-8.81zm133.92 5.25a190.96 190.96 0 0 1 23.69-5.97 73.64 73.64 0 0 1 5.93 23.67c5.47-2.84 9.74-7.39 14.84-10.8 11.64-8.33 25.78-13.63 40.23-13.01 3.26.22 6.42 1.26 9.34 2.73 4.97 2.49 10.04 5.05 14.09 8.96 4.27 4.03 6.95 9.35 9.89 14.35 6.52-2.91 11.57-8.1 17.42-12.06 10.15-7.01 21.72-12.57 34.14-13.78 11.37-1.3 23.27 2.51 31.59 10.43 3.76 3.61 7.76 7.28 9.84 12.18 2.02 4.78 2.64 10 3.11 15.13 1.98 27.03.62 54.17 1.68 81.23 0 17.99.13 35.97.14 53.96-9 .13-17.99.19-26.98-.06.03-26.97.01-53.93.01-80.9-.08-17.34.33-34.71-1.09-52.01a20.44 20.44 0 0 0-8.31-13.88c-5.25-3.46-11.86-3.08-17.85-2.74-10.63 1-19.52 7.66-27.54 14.15-3.8 3.21-7.75 6.24-11.45 9.56-1.15.91-.79 2.56-.92 3.84.01 40.67.07 81.35-.03 122.03-8.95.15-17.91.19-26.85-.04.01-31.64.02-63.27-.01-94.91-.07-7.68.16-15.38-.47-23.04-.48-7.81.32-16.19-3.34-23.37-5.46-7.73-16.28-9.35-24.96-7.21-13.53 3.25-25.2 11.59-35.43 20.73-1.66 1.06-1.5 3.12-1.51 4.83.08 40.98-.03 81.97.05 122.95-7.85.24-15.71.26-23.55-.02-.74-41.95-.22-83.94-1.36-125.9-.24-9.52-.23-19.07-1.49-28.53-.76-4.21-2.14-8.28-2.85-12.5zm457.78-1.48c8.62-1.26 17.2-2.75 25.75-4.41 1.09 23.62.71 47.3.92 70.94.04 33.98.01 67.96.01 101.93-8.92.2-17.84.2-26.76.01-.28-48.64-.04-97.29-.12-145.93.05-7.51-.16-15.03.2-22.54zm264.47 14.12c17.91-9.87 37.54-18.42 58.38-18.27 7.32.05 14.73-.27 22.01.85 18.18 3.44 33.72 19.79 34.2 38.65.97 28.05-.2 56.13.09 84.19.21 8.34-.1 16.83 1.95 24.98 1.22 5.5 6.34 8.54 10.28 12.01-3.87 5.29-7.04 11.25-12.07 15.55-2.93 2.45-6.55-.21-9.02-2.01-6.52-4.83-10.95-11.85-14.55-19-5.78 3.15-10.21 8.17-15.84 11.56-9.81 6.22-21.38 9.92-33.04 9.75-10.46.24-21.18-1.5-30.6-6.17-15.3-8.08-23.8-25.7-23.36-42.65-.13-16.29 8.13-32.15 21.21-41.76 15.66-11.69 35.56-15.54 54.66-16.94 8.73-.77 17.51-.81 26.27-1.19.35-8.55-.3-17.11-1.52-25.57-1.03-7.19-4.46-14.55-11.06-18.16-7.91-4.17-17.26-4.27-25.91-3.02-16.32 1.99-31.64 8.96-44.92 18.47-3.54-5.05-7.3-9.98-10.31-15.36-1.47-2.69.91-4.81 3.15-5.91zm329.79-17.91a94.8 94.8 0 0 1 31.3.87 65.56 65.56 0 0 1 38.07 25.66c7.37 10.3 12.17 22.36 14.46 34.79a197.05 197.05 0 0 1 2.01 36c-.46 19.56-6.48 39.23-18.41 54.87-9.65 12.52-24.6 20.03-39.95 22.81-18.64 3.26-38.87-.04-54.46-11.12-13.68-9.74-22.4-24.98-27.13-40.83-2.56-7.99-3.01-16.42-3.61-24.72-.26-13.98-.53-28.13 2.3-41.9 3.87-15.61 11.57-30.62 23.52-41.59a57.41 57.41 0 0 1 31.9-14.84zm131.56 5.73c8.02-2.26 16-4.72 24.14-6.56 4.29 8.22 5.14 17.58 5.59 26.68 4.14-3.09 7.59-6.95 11.25-10.57 11.67-11.56 28.53-18.55 45.05-15.59v2.07c-3.62 7.94-5.88 16.41-9.28 24.43-.48 1.48-2.51 1-3.65 1.28-7.21.17-14.85-.01-21.33 3.62a58.84 58.84 0 0 0-16.55 14.44c-4.43 5.59-3.57 13.13-3.89 19.79-.42 9.67-.64 19.34-.53 29.01-.04 25.98.01 51.95-.03 77.92-8.94.2-17.89.2-26.83 0-.14-28.97-.01-57.95-.06-86.92-.15-19.68.15-39.39-.87-59.05-.2-6.97-2.43-13.64-3.01-20.55zm-646.7.33c7.93-2.5 15.96-5.42 24.35-5.58a93.35 93.35 0 0 1 5.86 24.09c7.08-4.38 13.05-10.33 20.32-14.45 13.98-8.3 31.43-13.98 47.37-8.03 9.35 3.3 18.44 8.61 24.1 16.98 4.63 6.06 5.7 13.89 6.18 21.28 1.41 26.3.96 52.65 1.29 78.97-.02 17.64.34 35.27.39 52.9-8.95.26-17.91.23-26.86.02-.01-28.97-.58-57.94-.64-86.92-.39-16.12.46-32.33-1.49-48.37-2.42-7.69-9.86-14.12-18.12-14.33-6.1-.25-12.42-.48-18.24 1.67-12.8 4.77-24.33 12.4-34.76 21.14-.3 42.27-.02 84.56-.14 126.84-7.84.16-15.68.2-23.51-.05-.03-23.97-.63-47.93-.75-71.9-.22-24.67-.03-49.35-1.32-73.99-.27-6.95-2.55-13.54-4.03-20.27z"/><path fill="#FFFEFE" d="M833.42 184.81c10.88-2.57 22.93-1.71 32.7 4.02a36.44 36.44 0 0 1 15.56 17.47c5.15 11.86 6.03 24.97 6.6 37.72.21 12.25.49 24.58-1.21 36.75-1.34 9.69-5.16 19.22-11.8 26.5-8.21 8.57-20.75 11.68-32.29 10.93-12.1-.84-24.71-6.43-30.86-17.35-5.63-10.41-7.85-22.26-9.26-33.89-.85-9.62-1.69-19.3-.78-28.95.8-12.96 1.82-26.71 8.89-38.01 4.97-7.92 13.46-13.07 22.45-15.19zm1183.99-.2c8.77-1.18 17.99-1.4 26.47 1.48 8.05 3.63 15 9.8 19.71 17.27 5.46 9.96 6.68 21.53 7.59 32.67.6 10.65.5 21.33-.02 31.98-.7 8.96-1.1 18.18-4.52 26.61-2.91 7.11-7.5 13.87-14.27 17.76-10.03 5.82-22.35 7.08-33.57 4.57-7.91-1.73-15.52-5.69-20.75-11.97-5.48-6.3-8.1-14.48-9.64-22.54-2.21-12.02-2.19-24.27-2.53-36.44.29-12.88-.36-26.24 4.69-38.4 4.08-11.63 14.24-21.61 26.84-22.99zm-723.01 3.01c7.36-.61 14.92-.8 22.18.81 8.94 1.92 16.46 8.27 21.03 16.04 5.61 9.48 7.66 20.62 8.16 31.5 1.04 9.36-.12 18.75-.69 28.1-1.35 12.16-3.55 24.62-9.82 35.31-4.41 7.55-11.7 13.42-20.23 15.58-17.62 4.5-37.06-1.46-50.07-13.93-1.67-1.69-4.12-3.27-3.66-6 0-25.68.02-51.35 0-77.03.03-3.2-.22-6.41.19-9.59 8.78-9.67 19.49-18.91 32.91-20.79zm435.89 64.62c8.04-2.25 16.43-2.73 24.71-3.51 6.63-.58 13.19.93 19.83.72-.17 13.74.08 27.52-1.04 41.22-.39 7.74-5.89 13.87-11.55 18.57-6.76 5.41-14.59 10.13-23.34 11.19-7.31.65-14.94.37-21.79-2.5-5.93-2.45-9.81-8.07-12.19-13.8-2.41-5.75-1.62-12.13-1.48-18.19.31-5.47.28-11.33 3.21-16.17 5.12-8.73 14-14.79 23.64-17.53z"/></g></svg>